{
	"asset":{
		"generator":"Khronos glTF Blender I/O v3.6.27",
		"version":"2.0"
	},
	"scene":0,
	"scenes":[
		{
			"name":"Scene",
			"nodes":[
				0
			]
		}
	],
	"nodes":[
		{
			"mesh":0,
			"name":"Maus",
			"rotation":[
				0,
				-0.8660253882408142,
				0,
				0.4999999701976776
			],
			"scale":[
				0.3450958728790283,
				0.3450958728790283,
				0.3450958728790283
			],
			"translation":[
				-0.13694490492343903,
				0.43813690543174744,
				-0.07906515896320343
			]
		}
	],
	"materials":[
		{
			"doubleSided":true,
			"name":"Material",
			"pbrMetallicRoughness":{
				"baseColorFactor":[
					0.0703575611114502,
					0.0703575611114502,
					0.0703575611114502,
					1
				],
				"metallicFactor":0,
				"roughnessFactor":0.5
			}
		}
	],
	"meshes":[
		{
			"name":"Cube.003",
			"primitives":[
				{
					"attributes":{
						"POSITION":0,
						"NORMAL":1,
						"TEXCOORD_0":2
					},
					"indices":3,
					"material":0
				}
			]
		}
	],
	"accessors":[
		{
			"bufferView":0,
			"componentType":5126,
			"count":2790,
			"max":[
				1.3427307605743408,
				1.1573536396026611,
				3.1597414016723633
			],
			"min":[
				-1.3427306413650513,
				-1.3110313415527344,
				-5.035946846008301
			],
			"type":"VEC3"
		},
		{
			"bufferView":1,
			"componentType":5126,
			"count":2790,
			"type":"VEC3"
		},
		{
			"bufferView":2,
			"componentType":5126,
			"count":2790,
			"type":"VEC2"
		},
		{
			"bufferView":3,
			"componentType":5123,
			"count":11106,
			"type":"SCALAR"
		}
	],
	"bufferViews":[
		{
			"buffer":0,
			"byteLength":33480,
			"byteOffset":0,
			"target":34962
		},
		{
			"buffer":0,
			"byteLength":33480,
			"byteOffset":33480,
			"target":34962
		},
		{
			"buffer":0,
			"byteLength":22320,
			"byteOffset":66960,
			"target":34962
		},
		{
			"buffer":0,
			"byteLength":22212,
			"byteOffset":89280,
			"target":34963
		}
	],
	"buffers":[
		{
			"byteLength":111492,
			"uri":"mouse.bin"
		}
	]
}
