{
	"asset":{
		"generator":"Khronos glTF Blender I/O v3.6.27",
		"version":"2.0"
	},
	"scene":0,
	"scenes":[
		{
			"name":"Scene",
			"nodes":[
				0,
				1,
				2,
				3,
				4,
				5
			]
		}
	],
	"nodes":[
		{
			"mesh":0,
			"name":"base1",
			"translation":[
				0,
				0.021216001361608505,
				0
			]
		},
		{
			"mesh":1,
			"name":"lamp control knob",
			"translation":[
				0,
				0.047830838710069656,
				0.06181569769978523
			]
		},
		{
			"mesh":2,
			"name":"base3.001",
			"translation":[
				0,
				0.0917411595582962,
				-0.023662367835640907
			]
		},
		{
			"mesh":3,
			"name":"Text.010",
			"rotation":[
				0.70710688829422,
				0,
				0,
				0.7071066498756409
			],
			"scale":[
				0.011089053936302662,
				0.024601411074399948,
				0.013473321683704853
			],
			"translation":[
				0.12549760937690735,
				0.012845414690673351,
				0.04534444212913513
			]
		},
		{
			"mesh":4,
			"name":"Cube.020",
			"scale":[
				0.0429159514605999,
				0.0010000000474974513,
				0
			],
			"translation":[
				0.05551503226161003,
				0.01726498082280159,
				0.04516300559043884
			]
		},
		{
			"mesh":5,
			"name":"Cube.021",
			"scale":[
				0.042796939611434937,
				0.009707197546958923,
				9.999999747378752e-05
			],
			"translation":[
				0.1393125355243683,
				0.017766762524843216,
				0.044841937720775604
			]
		}
	],
	"materials":[
		{
			"doubleSided":true,
			"name":"Material.017",
			"pbrMetallicRoughness":{
				"metallicFactor":0,
				"roughnessFactor":0.8257575631141663
			}
		},
		{
			"doubleSided":true,
			"name":"black plastic.001",
			"pbrMetallicRoughness":{
				"baseColorFactor":[
					0.0056046294048428535,
					0.0056046294048428535,
					0.0056046294048428535,
					1
				],
				"metallicFactor":0,
				"roughnessFactor":0.6166667342185974
			}
		},
		{
			"doubleSided":true,
			"name":"metal.017",
			"pbrMetallicRoughness":{
				"baseColorFactor":[
					0.5925782918930054,
					0.5925782918930054,
					0.5925782918930054,
					1
				],
				"roughnessFactor":0.4833333194255829
			}
		},
		{
			"doubleSided":true,
			"name":"Material.018",
			"pbrMetallicRoughness":{
				"baseColorFactor":[
					0.8000000715255737,
					0.7875087857246399,
					0.7507203817367554,
					1
				],
				"metallicFactor":0,
				"roughnessFactor":0.8257575631141663
			}
		},
		{
			"doubleSided":true,
			"name":"black plastic.031",
			"pbrMetallicRoughness":{
				"baseColorFactor":[
					0.0056046294048428535,
					0.0056046294048428535,
					0.0056046294048428535,
					1
				],
				"metallicFactor":0,
				"roughnessFactor":0.6166667342185974
			}
		}
	],
	"meshes":[
		{
			"name":"Cube.003",
			"primitives":[
				{
					"attributes":{
						"POSITION":0,
						"NORMAL":1,
						"TEXCOORD_0":2,
						"TEXCOORD_1":3
					},
					"indices":4,
					"material":0
				}
			]
		},
		{
			"name":"Cylinder.003",
			"primitives":[
				{
					"attributes":{
						"POSITION":5,
						"NORMAL":6,
						"TEXCOORD_0":7,
						"TEXCOORD_1":8
					},
					"indices":9,
					"material":1
				},
				{
					"attributes":{
						"POSITION":10,
						"NORMAL":11,
						"TEXCOORD_0":12,
						"TEXCOORD_1":13
					},
					"indices":14,
					"material":2
				}
			]
		},
		{
			"name":"Cube.004",
			"primitives":[
				{
					"attributes":{
						"POSITION":15,
						"NORMAL":16,
						"TEXCOORD_0":17
					},
					"indices":18,
					"material":3
				}
			]
		},
		{
			"name":"Text.010",
			"primitives":[
				{
					"attributes":{
						"POSITION":19,
						"NORMAL":20,
						"TEXCOORD_0":21
					},
					"indices":22,
					"material":4
				}
			]
		},
		{
			"name":"Cube.028",
			"primitives":[
				{
					"attributes":{
						"POSITION":23,
						"NORMAL":24,
						"TEXCOORD_0":25
					},
					"indices":26
				}
			]
		},
		{
			"name":"Cube.029",
			"primitives":[
				{
					"attributes":{
						"POSITION":27,
						"NORMAL":28,
						"TEXCOORD_0":29
					},
					"indices":26
				}
			]
		}
	],
	"accessors":[
		{
			"bufferView":0,
			"componentType":5126,
			"count":1313,
			"max":[
				0.06495493650436401,
				0.01823573000729084,
				0.08862126618623734
			],
			"min":[
				-0.06495493650436401,
				-0.017514055594801903,
				-0.08357375860214233
			],
			"type":"VEC3"
		},
		{
			"bufferView":1,
			"componentType":5126,
			"count":1313,
			"type":"VEC3"
		},
		{
			"bufferView":2,
			"componentType":5126,
			"count":1313,
			"type":"VEC2"
		},
		{
			"bufferView":3,
			"componentType":5126,
			"count":1313,
			"type":"VEC2"
		},
		{
			"bufferView":4,
			"componentType":5123,
			"count":3456,
			"type":"SCALAR"
		},
		{
			"bufferView":5,
			"componentType":5126,
			"count":98,
			"max":[
				0.010000000707805157,
				0.009000000543892384,
				0.010000000707805157
			],
			"min":[
				-0.010000000707805157,
				-0.009000000543892384,
				-0.010000000707805157
			],
			"type":"VEC3"
		},
		{
			"bufferView":6,
			"componentType":5126,
			"count":98,
			"type":"VEC3"
		},
		{
			"bufferView":7,
			"componentType":5126,
			"count":98,
			"type":"VEC2"
		},
		{
			"bufferView":8,
			"componentType":5126,
			"count":98,
			"type":"VEC2"
		},
		{
			"bufferView":9,
			"componentType":5123,
			"count":282,
			"type":"SCALAR"
		},
		{
			"bufferView":10,
			"componentType":5126,
			"count":259,
			"max":[
				0.010000000707805157,
				0.009000000543892384,
				0.010000000707805157
			],
			"min":[
				-0.010000000707805157,
				0.008553490042686462,
				-0.010000000707805157
			],
			"type":"VEC3"
		},
		{
			"bufferView":11,
			"componentType":5126,
			"count":259,
			"type":"VEC3"
		},
		{
			"bufferView":12,
			"componentType":5126,
			"count":259,
			"type":"VEC2"
		},
		{
			"bufferView":13,
			"componentType":5126,
			"count":259,
			"type":"VEC2"
		},
		{
			"bufferView":14,
			"componentType":5123,
			"count":960,
			"type":"SCALAR"
		},
		{
			"bufferView":15,
			"componentType":5126,
			"count":1337,
			"max":[
				0.03253453969955444,
				0.04722046107053757,
				0.03552424535155296
			],
			"min":[
				-0.03253453969955444,
				-0.0465247668325901,
				-0.017477385699748993
			],
			"type":"VEC3"
		},
		{
			"bufferView":16,
			"componentType":5126,
			"count":1337,
			"type":"VEC3"
		},
		{
			"bufferView":17,
			"componentType":5126,
			"count":1337,
			"type":"VEC2"
		},
		{
			"bufferView":18,
			"componentType":5123,
			"count":4593,
			"type":"SCALAR"
		},
		{
			"bufferView":19,
			"componentType":5126,
			"count":1018,
			"max":[
				2.1590001583099365,
				0.010000000707805157,
				0.009000000543892384
			],
			"min":[
				0.07500000298023224,
				-0.010000000707805157,
				-0.6910000443458557
			],
			"type":"VEC3"
		},
		{
			"bufferView":20,
			"componentType":5126,
			"count":1018,
			"type":"VEC3"
		},
		{
			"bufferView":21,
			"componentType":5126,
			"count":1018,
			"type":"VEC2"
		},
		{
			"bufferView":22,
			"componentType":5123,
			"count":3000,
			"type":"SCALAR"
		},
		{
			"bufferView":23,
			"componentType":5126,
			"count":24,
			"max":[
				1,
				1,
				1
			],
			"min":[
				-1,
				-1,
				-1
			],
			"type":"VEC3"
		},
		{
			"bufferView":24,
			"componentType":5126,
			"count":24,
			"type":"VEC3"
		},
		{
			"bufferView":25,
			"componentType":5126,
			"count":24,
			"type":"VEC2"
		},
		{
			"bufferView":26,
			"componentType":5123,
			"count":36,
			"type":"SCALAR"
		},
		{
			"bufferView":27,
			"componentType":5126,
			"count":24,
			"max":[
				1,
				1,
				1
			],
			"min":[
				-1,
				-1,
				-1
			],
			"type":"VEC3"
		},
		{
			"bufferView":28,
			"componentType":5126,
			"count":24,
			"type":"VEC3"
		},
		{
			"bufferView":29,
			"componentType":5126,
			"count":24,
			"type":"VEC2"
		}
	],
	"bufferViews":[
		{
			"buffer":0,
			"byteLength":15756,
			"byteOffset":0,
			"target":34962
		},
		{
			"buffer":0,
			"byteLength":15756,
			"byteOffset":15756,
			"target":34962
		},
		{
			"buffer":0,
			"byteLength":10504,
			"byteOffset":31512,
			"target":34962
		},
		{
			"buffer":0,
			"byteLength":10504,
			"byteOffset":42016,
			"target":34962
		},
		{
			"buffer":0,
			"byteLength":6912,
			"byteOffset":52520,
			"target":34963
		},
		{
			"buffer":0,
			"byteLength":1176,
			"byteOffset":59432,
			"target":34962
		},
		{
			"buffer":0,
			"byteLength":1176,
			"byteOffset":60608,
			"target":34962
		},
		{
			"buffer":0,
			"byteLength":784,
			"byteOffset":61784,
			"target":34962
		},
		{
			"buffer":0,
			"byteLength":784,
			"byteOffset":62568,
			"target":34962
		},
		{
			"buffer":0,
			"byteLength":564,
			"byteOffset":63352,
			"target":34963
		},
		{
			"buffer":0,
			"byteLength":3108,
			"byteOffset":63916,
			"target":34962
		},
		{
			"buffer":0,
			"byteLength":3108,
			"byteOffset":67024,
			"target":34962
		},
		{
			"buffer":0,
			"byteLength":2072,
			"byteOffset":70132,
			"target":34962
		},
		{
			"buffer":0,
			"byteLength":2072,
			"byteOffset":72204,
			"target":34962
		},
		{
			"buffer":0,
			"byteLength":1920,
			"byteOffset":74276,
			"target":34963
		},
		{
			"buffer":0,
			"byteLength":16044,
			"byteOffset":76196,
			"target":34962
		},
		{
			"buffer":0,
			"byteLength":16044,
			"byteOffset":92240,
			"target":34962
		},
		{
			"buffer":0,
			"byteLength":10696,
			"byteOffset":108284,
			"target":34962
		},
		{
			"buffer":0,
			"byteLength":9186,
			"byteOffset":118980,
			"target":34963
		},
		{
			"buffer":0,
			"byteLength":12216,
			"byteOffset":128168,
			"target":34962
		},
		{
			"buffer":0,
			"byteLength":12216,
			"byteOffset":140384,
			"target":34962
		},
		{
			"buffer":0,
			"byteLength":8144,
			"byteOffset":152600,
			"target":34962
		},
		{
			"buffer":0,
			"byteLength":6000,
			"byteOffset":160744,
			"target":34963
		},
		{
			"buffer":0,
			"byteLength":288,
			"byteOffset":166744,
			"target":34962
		},
		{
			"buffer":0,
			"byteLength":288,
			"byteOffset":167032,
			"target":34962
		},
		{
			"buffer":0,
			"byteLength":192,
			"byteOffset":167320,
			"target":34962
		},
		{
			"buffer":0,
			"byteLength":72,
			"byteOffset":167512,
			"target":34963
		},
		{
			"buffer":0,
			"byteLength":288,
			"byteOffset":167584,
			"target":34962
		},
		{
			"buffer":0,
			"byteLength":288,
			"byteOffset":167872,
			"target":34962
		},
		{
			"buffer":0,
			"byteLength":192,
			"byteOffset":168160,
			"target":34962
		}
	],
	"buffers":[
		{
			"byteLength":168352,
			"uri":"base.bin"
		}
	]
}
