{
	"asset":{
		"generator":"Khronos glTF Blender I/O v3.6.27",
		"version":"2.0"
	},
	"scene":0,
	"scenes":[
		{
			"name":"Scene",
			"nodes":[
				0,
				1,
				2,
				3,
				4,
				5,
				6,
				7,
				8
			]
		}
	],
	"nodes":[
		{
			"mesh":0,
			"name":"base1",
			"translation":[
				0,
				0.021216001361608505,
				0
			]
		},
		{
			"mesh":1,
			"name":"lamp control knob",
			"translation":[
				0,
				0.047830838710069656,
				0.06181569769978523
			]
		},
		{
			"mesh":2,
			"name":"lamp",
			"scale":[
				1.0309115648269653,
				0.760053813457489,
				0.950333833694458
			],
			"translation":[
				0,
				0.037643104791641235,
				0.018051600083708763
			]
		},
		{
			"mesh":3,
			"name":"Text.010",
			"rotation":[
				0.70710688829422,
				0,
				0,
				0.7071066498756409
			],
			"scale":[
				0.011089053936302662,
				0.0246014092117548,
				0.013473320752382278
			],
			"translation":[
				-0.21106430888175964,
				0.012279774062335491,
				0.04534444212913513
			]
		},
		{
			"mesh":4,
			"name":"Cube.020",
			"scale":[
				0.0429159514605999,
				0.0010000000474974513,
				0
			],
			"translation":[
				-0.11156807094812393,
				0.01669934019446373,
				0.04516300559043884
			]
		},
		{
			"mesh":5,
			"name":"Cube.021",
			"scale":[
				0.042796939611434937,
				0.009707197546958923,
				9.999999747378752e-05
			],
			"translation":[
				-0.1972493827342987,
				0.017201121896505356,
				0.044841937720775604
			]
		},
		{
			"mesh":6,
			"name":"Cube.024",
			"scale":[
				0.06759928166866302,
				0.0016545412363484502,
				0
			],
			"translation":[
				-0.08592169731855392,
				0.04053900018334389,
				0.018174726516008377
			]
		},
		{
			"mesh":7,
			"name":"Cube.025",
			"scale":[
				0.06856472790241241,
				0.009707197546958923,
				9.999999747378752e-05
			],
			"translation":[
				-0.22203834354877472,
				0.04169497266411781,
				0.01785365864634514
			]
		},
		{
			"mesh":8,
			"name":"Text.015",
			"rotation":[
				0.7071068286895752,
				0,
				0,
				0.7071068286895752
			],
			"scale":[
				0.011089053936302662,
				0.02460140734910965,
				0.013473319821059704
			],
			"translation":[
				-0.278822124004364,
				0.037029117345809937,
				0.018303532153367996
			]
		}
	],
	"materials":[
		{
			"doubleSided":true,
			"name":"Material.008",
			"pbrMetallicRoughness":{
				"metallicFactor":0,
				"roughnessFactor":0.8257575631141663
			}
		},
		{
			"doubleSided":true,
			"name":"black plastic.016",
			"pbrMetallicRoughness":{
				"baseColorFactor":[
					0.0056046294048428535,
					0.0056046294048428535,
					0.0056046294048428535,
					1
				],
				"metallicFactor":0,
				"roughnessFactor":0.6166667342185974
			}
		},
		{
			"doubleSided":true,
			"name":"metal.006",
			"pbrMetallicRoughness":{
				"baseColorFactor":[
					0.5925782918930054,
					0.5925782918930054,
					0.5925782918930054,
					1
				],
				"roughnessFactor":0.4833333194255829
			}
		},
		{
			"doubleSided":true,
			"name":"black plastic.017",
			"pbrMetallicRoughness":{
				"baseColorFactor":[
					0.0056046294048428535,
					0.0056046294048428535,
					0.0056046294048428535,
					1
				],
				"metallicFactor":0,
				"roughnessFactor":0.6166667342185974
			}
		},
		{
			"doubleSided":true,
			"name":"glass.003",
			"pbrMetallicRoughness":{
				"baseColorFactor":[
					0.38437479734420776,
					0.3731274902820587,
					0.3731274902820587,
					1
				],
				"metallicFactor":0,
				"roughnessFactor":0
			}
		},
		{
			"doubleSided":true,
			"name":"black plastic.018",
			"pbrMetallicRoughness":{
				"baseColorFactor":[
					0.0056046294048428535,
					0.0056046294048428535,
					0.0056046294048428535,
					1
				],
				"metallicFactor":0,
				"roughnessFactor":0.6166667342185974
			}
		},
		{
			"doubleSided":true,
			"name":"black plastic",
			"pbrMetallicRoughness":{
				"baseColorFactor":[
					0.0056046294048428535,
					0.0056046294048428535,
					0.0056046294048428535,
					1
				],
				"metallicFactor":0,
				"roughnessFactor":0.6166667342185974
			}
		}
	],
	"meshes":[
		{
			"name":"Cube.040",
			"primitives":[
				{
					"attributes":{
						"POSITION":0,
						"NORMAL":1,
						"TEXCOORD_0":2,
						"TEXCOORD_1":3
					},
					"indices":4,
					"material":0
				}
			]
		},
		{
			"name":"Cylinder.002",
			"primitives":[
				{
					"attributes":{
						"POSITION":5,
						"NORMAL":6,
						"TEXCOORD_0":7,
						"TEXCOORD_1":8
					},
					"indices":9,
					"material":1
				},
				{
					"attributes":{
						"POSITION":10,
						"NORMAL":11,
						"TEXCOORD_0":12,
						"TEXCOORD_1":13
					},
					"indices":14,
					"material":2
				}
			]
		},
		{
			"name":"Cylinder.005",
			"primitives":[
				{
					"attributes":{
						"POSITION":15,
						"NORMAL":16,
						"TEXCOORD_0":17
					},
					"indices":18,
					"material":3
				},
				{
					"attributes":{
						"POSITION":19,
						"NORMAL":20,
						"TEXCOORD_0":21
					},
					"indices":22,
					"material":4
				}
			]
		},
		{
			"name":"Text.001",
			"primitives":[
				{
					"attributes":{
						"POSITION":23,
						"NORMAL":24,
						"TEXCOORD_0":25
					},
					"indices":26,
					"material":5
				}
			]
		},
		{
			"name":"Cube.041",
			"primitives":[
				{
					"attributes":{
						"POSITION":27,
						"NORMAL":28,
						"TEXCOORD_0":29
					},
					"indices":30
				}
			]
		},
		{
			"name":"Cube.042",
			"primitives":[
				{
					"attributes":{
						"POSITION":31,
						"NORMAL":32,
						"TEXCOORD_0":33
					},
					"indices":30
				}
			]
		},
		{
			"name":"Cube.043",
			"primitives":[
				{
					"attributes":{
						"POSITION":34,
						"NORMAL":35,
						"TEXCOORD_0":36
					},
					"indices":30
				}
			]
		},
		{
			"name":"Cube.044",
			"primitives":[
				{
					"attributes":{
						"POSITION":37,
						"NORMAL":38,
						"TEXCOORD_0":39
					},
					"indices":30
				}
			]
		},
		{
			"name":"Text.015",
			"primitives":[
				{
					"attributes":{
						"POSITION":40,
						"NORMAL":41,
						"TEXCOORD_0":42
					},
					"indices":43,
					"material":6
				}
			]
		}
	],
	"accessors":[
		{
			"bufferView":0,
			"componentType":5126,
			"count":238,
			"max":[
				0.06495427340269089,
				0.01823599264025688,
				0.08862750977277756
			],
			"min":[
				-0.06495427340269089,
				-0.017475713044404984,
				-0.08353542536497116
			],
			"type":"VEC3"
		},
		{
			"bufferView":1,
			"componentType":5126,
			"count":238,
			"type":"VEC3"
		},
		{
			"bufferView":2,
			"componentType":5126,
			"count":238,
			"type":"VEC2"
		},
		{
			"bufferView":3,
			"componentType":5126,
			"count":238,
			"type":"VEC2"
		},
		{
			"bufferView":4,
			"componentType":5123,
			"count":588,
			"type":"SCALAR"
		},
		{
			"bufferView":5,
			"componentType":5126,
			"count":98,
			"max":[
				0.010000000707805157,
				0.009000000543892384,
				0.010000000707805157
			],
			"min":[
				-0.010000000707805157,
				-0.009000000543892384,
				-0.010000000707805157
			],
			"type":"VEC3"
		},
		{
			"bufferView":6,
			"componentType":5126,
			"count":98,
			"type":"VEC3"
		},
		{
			"bufferView":7,
			"componentType":5126,
			"count":98,
			"type":"VEC2"
		},
		{
			"bufferView":8,
			"componentType":5126,
			"count":98,
			"type":"VEC2"
		},
		{
			"bufferView":9,
			"componentType":5123,
			"count":282,
			"type":"SCALAR"
		},
		{
			"bufferView":10,
			"componentType":5126,
			"count":132,
			"max":[
				0.010000000707805157,
				0.009000000543892384,
				0.010000000707805157
			],
			"min":[
				-0.010000000707805157,
				0.008553490042686462,
				-0.010000000707805157
			],
			"type":"VEC3"
		},
		{
			"bufferView":11,
			"componentType":5126,
			"count":132,
			"type":"VEC3"
		},
		{
			"bufferView":12,
			"componentType":5126,
			"count":132,
			"type":"VEC2"
		},
		{
			"bufferView":13,
			"componentType":5126,
			"count":132,
			"type":"VEC2"
		},
		{
			"bufferView":14,
			"componentType":5123,
			"count":384,
			"type":"SCALAR"
		},
		{
			"bufferView":15,
			"componentType":5126,
			"count":1954,
			"max":[
				0.019641295075416565,
				0.04631847143173218,
				0.019641295075416565
			],
			"min":[
				-0.019641295075416565,
				-0.006713099777698517,
				-0.019641295075416565
			],
			"type":"VEC3"
		},
		{
			"bufferView":16,
			"componentType":5126,
			"count":1954,
			"type":"VEC3"
		},
		{
			"bufferView":17,
			"componentType":5126,
			"count":1954,
			"type":"VEC2"
		},
		{
			"bufferView":18,
			"componentType":5123,
			"count":6210,
			"type":"SCALAR"
		},
		{
			"bufferView":19,
			"componentType":5126,
			"count":315,
			"max":[
				0.012993721291422844,
				0.04500981792807579,
				0.012993721291422844
			],
			"min":[
				-0.01299372036010027,
				0.04377297684550285,
				-0.012993721291422844
			],
			"type":"VEC3"
		},
		{
			"bufferView":20,
			"componentType":5126,
			"count":315,
			"type":"VEC3"
		},
		{
			"bufferView":21,
			"componentType":5126,
			"count":315,
			"type":"VEC2"
		},
		{
			"bufferView":22,
			"componentType":5123,
			"count":1779,
			"type":"SCALAR"
		},
		{
			"bufferView":23,
			"componentType":5126,
			"count":1018,
			"max":[
				2.1590001583099365,
				0.010000000707805157,
				0.009000000543892384
			],
			"min":[
				0.07500000298023224,
				-0.010000000707805157,
				-0.6910000443458557
			],
			"type":"VEC3"
		},
		{
			"bufferView":24,
			"componentType":5126,
			"count":1018,
			"type":"VEC3"
		},
		{
			"bufferView":25,
			"componentType":5126,
			"count":1018,
			"type":"VEC2"
		},
		{
			"bufferView":26,
			"componentType":5123,
			"count":3000,
			"type":"SCALAR"
		},
		{
			"bufferView":27,
			"componentType":5126,
			"count":24,
			"max":[
				1,
				1,
				1
			],
			"min":[
				-1,
				-1,
				-1
			],
			"type":"VEC3"
		},
		{
			"bufferView":28,
			"componentType":5126,
			"count":24,
			"type":"VEC3"
		},
		{
			"bufferView":29,
			"componentType":5126,
			"count":24,
			"type":"VEC2"
		},
		{
			"bufferView":30,
			"componentType":5123,
			"count":36,
			"type":"SCALAR"
		},
		{
			"bufferView":31,
			"componentType":5126,
			"count":24,
			"max":[
				1,
				1,
				1
			],
			"min":[
				-1,
				-1,
				-1
			],
			"type":"VEC3"
		},
		{
			"bufferView":32,
			"componentType":5126,
			"count":24,
			"type":"VEC3"
		},
		{
			"bufferView":33,
			"componentType":5126,
			"count":24,
			"type":"VEC2"
		},
		{
			"bufferView":34,
			"componentType":5126,
			"count":24,
			"max":[
				1,
				1,
				1
			],
			"min":[
				-1,
				-1,
				-1
			],
			"type":"VEC3"
		},
		{
			"bufferView":35,
			"componentType":5126,
			"count":24,
			"type":"VEC3"
		},
		{
			"bufferView":36,
			"componentType":5126,
			"count":24,
			"type":"VEC2"
		},
		{
			"bufferView":37,
			"componentType":5126,
			"count":24,
			"max":[
				1,
				1,
				1
			],
			"min":[
				-1,
				-1,
				-1
			],
			"type":"VEC3"
		},
		{
			"bufferView":38,
			"componentType":5126,
			"count":24,
			"type":"VEC3"
		},
		{
			"bufferView":39,
			"componentType":5126,
			"count":24,
			"type":"VEC2"
		},
		{
			"bufferView":40,
			"componentType":5126,
			"count":2985,
			"max":[
				10.395000457763672,
				0.010000000707805157,
				0.009000000543892384
			],
			"min":[
				0.07600000500679016,
				-0.010000000707805157,
				-0.6910000443458557
			],
			"type":"VEC3"
		},
		{
			"bufferView":41,
			"componentType":5126,
			"count":2985,
			"type":"VEC3"
		},
		{
			"bufferView":42,
			"componentType":5126,
			"count":2985,
			"type":"VEC2"
		},
		{
			"bufferView":43,
			"componentType":5123,
			"count":8664,
			"type":"SCALAR"
		}
	],
	"bufferViews":[
		{
			"buffer":0,
			"byteLength":2856,
			"byteOffset":0,
			"target":34962
		},
		{
			"buffer":0,
			"byteLength":2856,
			"byteOffset":2856,
			"target":34962
		},
		{
			"buffer":0,
			"byteLength":1904,
			"byteOffset":5712,
			"target":34962
		},
		{
			"buffer":0,
			"byteLength":1904,
			"byteOffset":7616,
			"target":34962
		},
		{
			"buffer":0,
			"byteLength":1176,
			"byteOffset":9520,
			"target":34963
		},
		{
			"buffer":0,
			"byteLength":1176,
			"byteOffset":10696,
			"target":34962
		},
		{
			"buffer":0,
			"byteLength":1176,
			"byteOffset":11872,
			"target":34962
		},
		{
			"buffer":0,
			"byteLength":784,
			"byteOffset":13048,
			"target":34962
		},
		{
			"buffer":0,
			"byteLength":784,
			"byteOffset":13832,
			"target":34962
		},
		{
			"buffer":0,
			"byteLength":564,
			"byteOffset":14616,
			"target":34963
		},
		{
			"buffer":0,
			"byteLength":1584,
			"byteOffset":15180,
			"target":34962
		},
		{
			"buffer":0,
			"byteLength":1584,
			"byteOffset":16764,
			"target":34962
		},
		{
			"buffer":0,
			"byteLength":1056,
			"byteOffset":18348,
			"target":34962
		},
		{
			"buffer":0,
			"byteLength":1056,
			"byteOffset":19404,
			"target":34962
		},
		{
			"buffer":0,
			"byteLength":768,
			"byteOffset":20460,
			"target":34963
		},
		{
			"buffer":0,
			"byteLength":23448,
			"byteOffset":21228,
			"target":34962
		},
		{
			"buffer":0,
			"byteLength":23448,
			"byteOffset":44676,
			"target":34962
		},
		{
			"buffer":0,
			"byteLength":15632,
			"byteOffset":68124,
			"target":34962
		},
		{
			"buffer":0,
			"byteLength":12420,
			"byteOffset":83756,
			"target":34963
		},
		{
			"buffer":0,
			"byteLength":3780,
			"byteOffset":96176,
			"target":34962
		},
		{
			"buffer":0,
			"byteLength":3780,
			"byteOffset":99956,
			"target":34962
		},
		{
			"buffer":0,
			"byteLength":2520,
			"byteOffset":103736,
			"target":34962
		},
		{
			"buffer":0,
			"byteLength":3558,
			"byteOffset":106256,
			"target":34963
		},
		{
			"buffer":0,
			"byteLength":12216,
			"byteOffset":109816,
			"target":34962
		},
		{
			"buffer":0,
			"byteLength":12216,
			"byteOffset":122032,
			"target":34962
		},
		{
			"buffer":0,
			"byteLength":8144,
			"byteOffset":134248,
			"target":34962
		},
		{
			"buffer":0,
			"byteLength":6000,
			"byteOffset":142392,
			"target":34963
		},
		{
			"buffer":0,
			"byteLength":288,
			"byteOffset":148392,
			"target":34962
		},
		{
			"buffer":0,
			"byteLength":288,
			"byteOffset":148680,
			"target":34962
		},
		{
			"buffer":0,
			"byteLength":192,
			"byteOffset":148968,
			"target":34962
		},
		{
			"buffer":0,
			"byteLength":72,
			"byteOffset":149160,
			"target":34963
		},
		{
			"buffer":0,
			"byteLength":288,
			"byteOffset":149232,
			"target":34962
		},
		{
			"buffer":0,
			"byteLength":288,
			"byteOffset":149520,
			"target":34962
		},
		{
			"buffer":0,
			"byteLength":192,
			"byteOffset":149808,
			"target":34962
		},
		{
			"buffer":0,
			"byteLength":288,
			"byteOffset":150000,
			"target":34962
		},
		{
			"buffer":0,
			"byteLength":288,
			"byteOffset":150288,
			"target":34962
		},
		{
			"buffer":0,
			"byteLength":192,
			"byteOffset":150576,
			"target":34962
		},
		{
			"buffer":0,
			"byteLength":288,
			"byteOffset":150768,
			"target":34962
		},
		{
			"buffer":0,
			"byteLength":288,
			"byteOffset":151056,
			"target":34962
		},
		{
			"buffer":0,
			"byteLength":192,
			"byteOffset":151344,
			"target":34962
		},
		{
			"buffer":0,
			"byteLength":35820,
			"byteOffset":151536,
			"target":34962
		},
		{
			"buffer":0,
			"byteLength":35820,
			"byteOffset":187356,
			"target":34962
		},
		{
			"buffer":0,
			"byteLength":23880,
			"byteOffset":223176,
			"target":34962
		},
		{
			"buffer":0,
			"byteLength":17328,
			"byteOffset":247056,
			"target":34963
		}
	],
	"buffers":[
		{
			"byteLength":264384,
			"uri":"base7.bin"
		}
	]
}
