{
	"asset":{
		"generator":"Khronos glTF Blender I/O v4.0.43",
		"version":"2.0"
	},
	"scene":0,
	"scenes":[
		{
			"name":"Scene",
			"nodes":[
				0,
				1
			]
		}
	],
	"nodes":[
		{
			"mesh":0,
			"name":"Remesh",
			"rotation":[
				0.7071068286895752,
				0,
				0,
				0.7071068286895752
			],
			"scale":[
				5.7893012126442045e-05,
				5.7893012126442045e-05,
				9.999999747378752e-06
			],
			"translation":[
				0.051122765988111496,
				0.13633742928504944,
				0.12218298017978668
			]
		},
		{
			"mesh":1,
			"name":"Cube.028",
			"scale":[
				0.24315065145492554,
				9.999999747378752e-05,
				0.05789301171898842
			],
			"translation":[
				0.038201648741960526,
				0.13596031069755554,
				0.13580985367298126
			]
		}
	],
	"materials":[
		{
			"doubleSided":true,
			"name":"Material.011",
			"pbrMetallicRoughness":{
				"baseColorFactor":[
					0.801857590675354,
					0,
					0.00041382803465239704,
					1
				],
				"metallicFactor":0,
				"roughnessFactor":0.5
			}
		},
		{
			"doubleSided":true,
			"name":"Material.010",
			"pbrMetallicRoughness":{
				"baseColorFactor":[
					0.26310232281684875,
					0.27044662833213806,
					0.24352115392684937,
					1
				],
				"metallicFactor":0,
				"roughnessFactor":0
			}
		}
	],
	"meshes":[
		{
			"name":"Mesh",
			"primitives":[
				{
					"attributes":{
						"POSITION":0,
						"NORMAL":1,
						"TEXCOORD_0":2
					},
					"indices":3,
					"material":0
				}
			]
		},
		{
			"name":"Cube.036",
			"primitives":[
				{
					"attributes":{
						"POSITION":4,
						"NORMAL":5,
						"TEXCOORD_0":6
					},
					"indices":7,
					"material":1
				}
			]
		}
	],
	"accessors":[
		{
			"bufferView":0,
			"componentType":5126,
			"count":23139,
			"max":[
				387.62127685546875,
				1059.021484375,
				36.1993408203125
			],
			"min":[
				-960.9020385742188,
				-554.4155883789062,
				-73.18682861328125
			],
			"type":"VEC3"
		},
		{
			"bufferView":1,
			"componentType":5126,
			"count":23139,
			"type":"VEC3"
		},
		{
			"bufferView":2,
			"componentType":5126,
			"count":23139,
			"type":"VEC2"
		},
		{
			"bufferView":3,
			"componentType":5123,
			"count":131856,
			"type":"SCALAR"
		},
		{
			"bufferView":4,
			"componentType":5126,
			"count":24,
			"max":[
				1,
				1,
				1
			],
			"min":[
				-1,
				-1,
				-1
			],
			"type":"VEC3"
		},
		{
			"bufferView":5,
			"componentType":5126,
			"count":24,
			"type":"VEC3"
		},
		{
			"bufferView":6,
			"componentType":5126,
			"count":24,
			"type":"VEC2"
		},
		{
			"bufferView":7,
			"componentType":5123,
			"count":36,
			"type":"SCALAR"
		}
	],
	"bufferViews":[
		{
			"buffer":0,
			"byteLength":277668,
			"byteOffset":0,
			"target":34962
		},
		{
			"buffer":0,
			"byteLength":277668,
			"byteOffset":277668,
			"target":34962
		},
		{
			"buffer":0,
			"byteLength":185112,
			"byteOffset":555336,
			"target":34962
		},
		{
			"buffer":0,
			"byteLength":263712,
			"byteOffset":740448,
			"target":34963
		},
		{
			"buffer":0,
			"byteLength":288,
			"byteOffset":1004160,
			"target":34962
		},
		{
			"buffer":0,
			"byteLength":288,
			"byteOffset":1004448,
			"target":34962
		},
		{
			"buffer":0,
			"byteLength":192,
			"byteOffset":1004736,
			"target":34962
		},
		{
			"buffer":0,
			"byteLength":72,
			"byteOffset":1004928,
			"target":34963
		}
	],
	"buffers":[
		{
			"byteLength":1005000,
			"uri":"specimen.bin"
		}
	]
}
