{
	"asset":{
		"generator":"Khronos glTF Blender I/O v3.6.27",
		"version":"2.0"
	},
	"scene":0,
	"scenes":[
		{
			"name":"Scene",
			"nodes":[
				0,
				1,
				2
			]
		}
	],
	"nodes":[
		{
			"mesh":0,
			"name":"Cube.003",
			"scale":[
				1.0191447734832764,
				0.38192975521087646,
				0.10566527396440506
			],
			"translation":[
				0.003978341817855835,
				1.63499116897583,
				0.6346207857131958
			]
		},
		{
			"mesh":1,
			"name":"Text.003",
			"rotation":[
				0.6846910119056702,
				0.008405092172324657,
				-0.017569584771990776,
				0.7285732626914978
			],
			"scale":[
				0.2183009386062622,
				0.07647952437400818,
				0.21805429458618164
			],
			"translation":[
				-0.004080682992935181,
				1.6991015672683716,
				0.7902485132217407
			]
		},
		{
			"mesh":2,
			"name":"mycobacteria",
			"rotation":[
				0.7071020007133484,
				0.002618788741528988,
				-0.0026187889743596315,
				0.7071019411087036
			],
			"scale":[
				1.5205044746398926,
				1.385969877243042,
				1.3859622478485107
			],
			"translation":[
				0.0042821988463401794,
				2.577547311782837,
				0.6245494484901428
			]
		}
	],
	"materials":[
		{
			"doubleSided":true,
			"name":"Material.002",
			"pbrMetallicRoughness":{
				"baseColorFactor":[
					0,
					0,
					0,
					1
				],
				"metallicFactor":0,
				"roughnessFactor":0.5
			}
		},
		{
			"alphaMode":"BLEND",
			"doubleSided":true,
			"name":"mycobacteria",
			"pbrMetallicRoughness":{
				"baseColorTexture":{
					"index":0
				},
				"metallicFactor":0,
				"roughnessFactor":0.5
			}
		}
	],
	"meshes":[
		{
			"name":"Cube.010",
			"primitives":[
				{
					"attributes":{
						"POSITION":0,
						"NORMAL":1,
						"TEXCOORD_0":2
					},
					"indices":3,
					"material":0
				}
			]
		},
		{
			"name":"Text.014",
			"primitives":[
				{
					"attributes":{
						"POSITION":4,
						"NORMAL":5,
						"TEXCOORD_0":6
					},
					"indices":7
				}
			]
		},
		{
			"name":"mycobacteria",
			"primitives":[
				{
					"attributes":{
						"POSITION":8,
						"NORMAL":9,
						"TEXCOORD_0":10
					},
					"indices":11,
					"material":1
				}
			]
		}
	],
	"textures":[
		{
			"sampler":0,
			"source":0
		}
	],
	"images":[
		{
			"mimeType":"image/png",
			"name":"mycobacteria",
			"uri":"mycobacteria.png"
		}
	],
	"accessors":[
		{
			"bufferView":0,
			"componentType":5126,
			"count":24,
			"max":[
				1,
				1,
				1
			],
			"min":[
				-1,
				-1,
				-1
			],
			"type":"VEC3"
		},
		{
			"bufferView":1,
			"componentType":5126,
			"count":24,
			"type":"VEC3"
		},
		{
			"bufferView":2,
			"componentType":5126,
			"count":24,
			"type":"VEC2"
		},
		{
			"bufferView":3,
			"componentType":5123,
			"count":36,
			"type":"SCALAR"
		},
		{
			"bufferView":4,
			"componentType":5126,
			"count":7910,
			"max":[
				2.938000202178955,
				0.029999999329447746,
				1.0089999437332153
			],
			"min":[
				-3.2019999027252197,
				-0.029999999329447746,
				-0.6820000410079956
			],
			"type":"VEC3"
		},
		{
			"bufferView":5,
			"componentType":5126,
			"count":7910,
			"type":"VEC3"
		},
		{
			"bufferView":6,
			"componentType":5126,
			"count":7910,
			"type":"VEC2"
		},
		{
			"bufferView":7,
			"componentType":5123,
			"count":23256,
			"type":"SCALAR"
		},
		{
			"bufferView":8,
			"componentType":5126,
			"count":4,
			"max":[
				0.6541450619697571,
				0,
				0.5
			],
			"min":[
				-0.6541450619697571,
				0,
				-0.5
			],
			"type":"VEC3"
		},
		{
			"bufferView":9,
			"componentType":5126,
			"count":4,
			"type":"VEC3"
		},
		{
			"bufferView":10,
			"componentType":5126,
			"count":4,
			"type":"VEC2"
		},
		{
			"bufferView":11,
			"componentType":5123,
			"count":6,
			"type":"SCALAR"
		}
	],
	"bufferViews":[
		{
			"buffer":0,
			"byteLength":288,
			"byteOffset":0,
			"target":34962
		},
		{
			"buffer":0,
			"byteLength":288,
			"byteOffset":288,
			"target":34962
		},
		{
			"buffer":0,
			"byteLength":192,
			"byteOffset":576,
			"target":34962
		},
		{
			"buffer":0,
			"byteLength":72,
			"byteOffset":768,
			"target":34963
		},
		{
			"buffer":0,
			"byteLength":94920,
			"byteOffset":840,
			"target":34962
		},
		{
			"buffer":0,
			"byteLength":94920,
			"byteOffset":95760,
			"target":34962
		},
		{
			"buffer":0,
			"byteLength":63280,
			"byteOffset":190680,
			"target":34962
		},
		{
			"buffer":0,
			"byteLength":46512,
			"byteOffset":253960,
			"target":34963
		},
		{
			"buffer":0,
			"byteLength":48,
			"byteOffset":300472,
			"target":34962
		},
		{
			"buffer":0,
			"byteLength":48,
			"byteOffset":300520,
			"target":34962
		},
		{
			"buffer":0,
			"byteLength":32,
			"byteOffset":300568,
			"target":34962
		},
		{
			"buffer":0,
			"byteLength":12,
			"byteOffset":300600,
			"target":34963
		}
	],
	"samplers":[
		{
			"magFilter":9729,
			"minFilter":9987,
			"wrapS":33071,
			"wrapT":33071
		}
	],
	"buffers":[
		{
			"byteLength":300612,
			"uri":"mycob.bin"
		}
	]
}
