{
	"asset":{
		"generator":"Khronos glTF Blender I/O v3.6.27",
		"version":"2.0"
	},
	"scene":0,
	"scenes":[
		{
			"name":"Scene",
			"nodes":[
				0,
				1,
				2
			]
		}
	],
	"nodes":[
		{
			"mesh":0,
			"name":"Cube.001",
			"scale":[
				1.0191447734832764,
				0.38192975521087646,
				0.10566527396440506
			],
			"translation":[
				-5.547425270080566,
				1.5180432796478271,
				0.5286133289337158
			]
		},
		{
			"mesh":1,
			"name":"Text.001",
			"rotation":[
				0.6846910119056702,
				0.008405092172324657,
				-0.017569584771990776,
				0.7285732626914978
			],
			"scale":[
				0.2183009386062622,
				0.07647952437400818,
				0.21805429458618164
			],
			"translation":[
				-5.555484294891357,
				1.6122568845748901,
				0.6842410564422607
			]
		},
		{
			"mesh":2,
			"name":"sterile_science-staphylococcus_01-2",
			"rotation":[
				0.7071020007133484,
				0.002618788741528988,
				-0.002618788741528988,
				0.7071019411087036
			],
			"scale":[
				1.3706122636795044,
				1.5594011545181274,
				1.5594109296798706
			],
			"translation":[
				-5.511592388153076,
				2.4101016521453857,
				0.5209375619888306
			]
		}
	],
	"materials":[
		{
			"doubleSided":true,
			"name":"Material.002",
			"pbrMetallicRoughness":{
				"baseColorFactor":[
					0,
					0,
					0,
					1
				],
				"metallicFactor":0,
				"roughnessFactor":0.5
			}
		},
		{
			"alphaMode":"BLEND",
			"doubleSided":true,
			"name":"sterile_science-staphylococcus_01-2",
			"pbrMetallicRoughness":{
				"baseColorTexture":{
					"index":0
				},
				"metallicFactor":0,
				"roughnessFactor":0.5
			}
		}
	],
	"meshes":[
		{
			"name":"Cube.003",
			"primitives":[
				{
					"attributes":{
						"POSITION":0,
						"NORMAL":1,
						"TEXCOORD_0":2
					},
					"indices":3,
					"material":0
				}
			]
		},
		{
			"name":"Text.006",
			"primitives":[
				{
					"attributes":{
						"POSITION":4,
						"NORMAL":5,
						"TEXCOORD_0":6
					},
					"indices":7
				}
			]
		},
		{
			"name":"sterile_science-staphylococcus_01-2",
			"primitives":[
				{
					"attributes":{
						"POSITION":8,
						"NORMAL":9,
						"TEXCOORD_0":10
					},
					"indices":11,
					"material":1
				}
			]
		}
	],
	"textures":[
		{
			"sampler":0,
			"source":0
		}
	],
	"images":[
		{
			"mimeType":"image/png",
			"name":"sterile_science-staphylococcus_01-2",
			"uri":"sterile_science-staphylococcus_01-2.png"
		}
	],
	"accessors":[
		{
			"bufferView":0,
			"componentType":5126,
			"count":24,
			"max":[
				1,
				1,
				1
			],
			"min":[
				-1,
				-1,
				-1
			],
			"type":"VEC3"
		},
		{
			"bufferView":1,
			"componentType":5126,
			"count":24,
			"type":"VEC3"
		},
		{
			"bufferView":2,
			"componentType":5126,
			"count":24,
			"type":"VEC2"
		},
		{
			"bufferView":3,
			"componentType":5123,
			"count":36,
			"type":"SCALAR"
		},
		{
			"bufferView":4,
			"componentType":5126,
			"count":7060,
			"max":[
				2.9100000858306885,
				0.029999999329447746,
				1.0089999437332153
			],
			"min":[
				-3.188000202178955,
				-0.029999999329447746,
				-0.6910000443458557
			],
			"type":"VEC3"
		},
		{
			"bufferView":5,
			"componentType":5126,
			"count":7060,
			"type":"VEC3"
		},
		{
			"bufferView":6,
			"componentType":5126,
			"count":7060,
			"type":"VEC2"
		},
		{
			"bufferView":7,
			"componentType":5123,
			"count":20844,
			"type":"SCALAR"
		},
		{
			"bufferView":8,
			"componentType":5126,
			"count":4,
			"max":[
				0.75,
				0,
				0.5
			],
			"min":[
				-0.75,
				0,
				-0.5
			],
			"type":"VEC3"
		},
		{
			"bufferView":9,
			"componentType":5126,
			"count":4,
			"type":"VEC3"
		},
		{
			"bufferView":10,
			"componentType":5126,
			"count":4,
			"type":"VEC2"
		},
		{
			"bufferView":11,
			"componentType":5123,
			"count":6,
			"type":"SCALAR"
		}
	],
	"bufferViews":[
		{
			"buffer":0,
			"byteLength":288,
			"byteOffset":0,
			"target":34962
		},
		{
			"buffer":0,
			"byteLength":288,
			"byteOffset":288,
			"target":34962
		},
		{
			"buffer":0,
			"byteLength":192,
			"byteOffset":576,
			"target":34962
		},
		{
			"buffer":0,
			"byteLength":72,
			"byteOffset":768,
			"target":34963
		},
		{
			"buffer":0,
			"byteLength":84720,
			"byteOffset":840,
			"target":34962
		},
		{
			"buffer":0,
			"byteLength":84720,
			"byteOffset":85560,
			"target":34962
		},
		{
			"buffer":0,
			"byteLength":56480,
			"byteOffset":170280,
			"target":34962
		},
		{
			"buffer":0,
			"byteLength":41688,
			"byteOffset":226760,
			"target":34963
		},
		{
			"buffer":0,
			"byteLength":48,
			"byteOffset":268448,
			"target":34962
		},
		{
			"buffer":0,
			"byteLength":48,
			"byteOffset":268496,
			"target":34962
		},
		{
			"buffer":0,
			"byteLength":32,
			"byteOffset":268544,
			"target":34962
		},
		{
			"buffer":0,
			"byteLength":12,
			"byteOffset":268576,
			"target":34963
		}
	],
	"samplers":[
		{
			"magFilter":9729,
			"minFilter":9987,
			"wrapS":33071,
			"wrapT":33071
		}
	],
	"buffers":[
		{
			"byteLength":268588,
			"uri":"staph.bin"
		}
	]
}
