{
	"asset":{
		"generator":"Khronos glTF Blender I/O v3.6.27",
		"version":"2.0"
	},
	"scene":0,
	"scenes":[
		{
			"name":"Scene",
			"nodes":[
				0,
				1,
				2
			]
		}
	],
	"nodes":[
		{
			"mesh":0,
			"name":"Cube.004",
			"scale":[
				1.0191447734832764,
				0.38192975521087646,
				0.10566527396440506
			],
			"translation":[
				2.7890803813934326,
				1.5947751998901367,
				0.7200382947921753
			]
		},
		{
			"mesh":1,
			"name":"Text.004",
			"rotation":[
				0.6846910119056702,
				0.008405092172324657,
				-0.017569584771990776,
				0.7285732626914978
			],
			"scale":[
				0.2183009386062622,
				0.07647952437400818,
				0.21805429458618164
			],
			"translation":[
				2.7810208797454834,
				1.6889888048171997,
				0.8756659030914307
			]
		},
		{
			"mesh":2,
			"name":"vibrio",
			"rotation":[
				0.7071020007133484,
				0.002618788741528988,
				-0.002618788741528988,
				0.7071019411087036
			],
			"scale":[
				1.5251909494400024,
				1.5251909494400024,
				1.5251909494400024
			],
			"translation":[
				2.817795991897583,
				2.5239408016204834,
				0.6956007480621338
			]
		}
	],
	"materials":[
		{
			"doubleSided":true,
			"name":"Material.002",
			"pbrMetallicRoughness":{
				"baseColorFactor":[
					0,
					0,
					0,
					1
				],
				"metallicFactor":0,
				"roughnessFactor":0.5
			}
		},
		{
			"alphaMode":"BLEND",
			"doubleSided":true,
			"name":"vibrio",
			"pbrMetallicRoughness":{
				"baseColorTexture":{
					"index":0
				},
				"metallicFactor":0,
				"roughnessFactor":0.5
			}
		}
	],
	"meshes":[
		{
			"name":"Cube.011",
			"primitives":[
				{
					"attributes":{
						"POSITION":0,
						"NORMAL":1,
						"TEXCOORD_0":2
					},
					"indices":3,
					"material":0
				}
			]
		},
		{
			"name":"Text.015",
			"primitives":[
				{
					"attributes":{
						"POSITION":4,
						"NORMAL":5,
						"TEXCOORD_0":6
					},
					"indices":7
				}
			]
		},
		{
			"name":"vibrio",
			"primitives":[
				{
					"attributes":{
						"POSITION":8,
						"NORMAL":9,
						"TEXCOORD_0":10
					},
					"indices":11,
					"material":1
				}
			]
		}
	],
	"textures":[
		{
			"sampler":0,
			"source":0
		}
	],
	"images":[
		{
			"mimeType":"image/png",
			"name":"vibrio",
			"uri":"vibrio.png"
		}
	],
	"accessors":[
		{
			"bufferView":0,
			"componentType":5126,
			"count":24,
			"max":[
				1,
				1,
				1
			],
			"min":[
				-1,
				-1,
				-1
			],
			"type":"VEC3"
		},
		{
			"bufferView":1,
			"componentType":5126,
			"count":24,
			"type":"VEC3"
		},
		{
			"bufferView":2,
			"componentType":5126,
			"count":24,
			"type":"VEC2"
		},
		{
			"bufferView":3,
			"componentType":5123,
			"count":36,
			"type":"SCALAR"
		},
		{
			"bufferView":4,
			"componentType":5126,
			"count":4220,
			"max":[
				1.7120000123977661,
				0.029999999329447746,
				1.0089999437332153
			],
			"min":[
				-1.7040001153945923,
				-0.029999999329447746,
				-0.6820000410079956
			],
			"type":"VEC3"
		},
		{
			"bufferView":5,
			"componentType":5126,
			"count":4220,
			"type":"VEC3"
		},
		{
			"bufferView":6,
			"componentType":5126,
			"count":4220,
			"type":"VEC2"
		},
		{
			"bufferView":7,
			"componentType":5123,
			"count":12408,
			"type":"SCALAR"
		},
		{
			"bufferView":8,
			"componentType":5126,
			"count":4,
			"max":[
				0.6666666865348816,
				0,
				0.5
			],
			"min":[
				-0.6666666865348816,
				0,
				-0.5
			],
			"type":"VEC3"
		},
		{
			"bufferView":9,
			"componentType":5126,
			"count":4,
			"type":"VEC3"
		},
		{
			"bufferView":10,
			"componentType":5126,
			"count":4,
			"type":"VEC2"
		},
		{
			"bufferView":11,
			"componentType":5123,
			"count":6,
			"type":"SCALAR"
		}
	],
	"bufferViews":[
		{
			"buffer":0,
			"byteLength":288,
			"byteOffset":0,
			"target":34962
		},
		{
			"buffer":0,
			"byteLength":288,
			"byteOffset":288,
			"target":34962
		},
		{
			"buffer":0,
			"byteLength":192,
			"byteOffset":576,
			"target":34962
		},
		{
			"buffer":0,
			"byteLength":72,
			"byteOffset":768,
			"target":34963
		},
		{
			"buffer":0,
			"byteLength":50640,
			"byteOffset":840,
			"target":34962
		},
		{
			"buffer":0,
			"byteLength":50640,
			"byteOffset":51480,
			"target":34962
		},
		{
			"buffer":0,
			"byteLength":33760,
			"byteOffset":102120,
			"target":34962
		},
		{
			"buffer":0,
			"byteLength":24816,
			"byteOffset":135880,
			"target":34963
		},
		{
			"buffer":0,
			"byteLength":48,
			"byteOffset":160696,
			"target":34962
		},
		{
			"buffer":0,
			"byteLength":48,
			"byteOffset":160744,
			"target":34962
		},
		{
			"buffer":0,
			"byteLength":32,
			"byteOffset":160792,
			"target":34962
		},
		{
			"buffer":0,
			"byteLength":12,
			"byteOffset":160824,
			"target":34963
		}
	],
	"samplers":[
		{
			"magFilter":9729,
			"minFilter":9987,
			"wrapS":33071,
			"wrapT":33071
		}
	],
	"buffers":[
		{
			"byteLength":160836,
			"uri":"vibrio.bin"
		}
	]
}
