{
	"asset":{
		"generator":"Khronos glTF Blender I/O v3.6.27",
		"version":"2.0"
	},
	"scene":0,
	"scenes":[
		{
			"name":"Scene",
			"nodes":[
				0
			]
		}
	],
	"nodes":[
		{
			"mesh":0,
			"name":"Landscape.004",
			"translation":[
				0.016344403848052025,
				-0.2452634871006012,
				-2.6761317253112793
			]
		}
	],
	"materials":[
		{
			"doubleSided":true,
			"name":"Material",
			"pbrMetallicRoughness":{
				"baseColorFactor":[
					0.020852161571383476,
					0.41400593519210815,
					0.8000000715255737,
					1
				],
				"metallicFactor":0,
				"roughnessFactor":0.5
			}
		}
	],
	"meshes":[
		{
			"name":"Landscape.004",
			"primitives":[
				{
					"attributes":{
						"POSITION":0,
						"NORMAL":1
					},
					"indices":2,
					"material":0
				}
			]
		}
	],
	"accessors":[
		{
			"bufferView":0,
			"componentType":5126,
			"count":21174,
			"max":[
				10.159329414367676,
				3.380366563796997,
				10.50728988647461
			],
			"min":[
				-10.96117877960205,
				-0.12729841470718384,
				-9.962519645690918
			],
			"type":"VEC3"
		},
		{
			"bufferView":1,
			"componentType":5126,
			"count":21174,
			"type":"VEC3"
		},
		{
			"bufferView":2,
			"componentType":5123,
			"count":125337,
			"type":"SCALAR"
		}
	],
	"bufferViews":[
		{
			"buffer":0,
			"byteLength":254088,
			"byteOffset":0,
			"target":34962
		},
		{
			"buffer":0,
			"byteLength":254088,
			"byteOffset":254088,
			"target":34962
		},
		{
			"buffer":0,
			"byteLength":250674,
			"byteOffset":508176,
			"target":34963
		}
	],
	"buffers":[
		{
			"byteLength":758852,
			"uri":"water.bin"
		}
	]
}
