{
	"asset":{
		"generator":"Khronos glTF Blender I/O v3.6.27",
		"version":"2.0"
	},
	"scene":0,
	"scenes":[
		{
			"name":"Scene",
			"nodes":[
				0
			]
		}
	],
	"nodes":[
		{
			"mesh":0,
			"name":"100x",
			"rotation":[
				-0.06473423540592194,
				0.007583486381918192,
				0.08920599520206451,
				0.9938784837722778
			],
			"translation":[
				0.01931070163846016,
				0.19942279160022736,
				0.03537203371524811
			]
		}
	],
	"materials":[
		{
			"doubleSided":true,
			"name":"metal",
			"pbrMetallicRoughness":{
				"baseColorTexture":{
					"index":0
				},
				"roughnessFactor":0.4833333194255829
			}
		},
		{
			"doubleSided":true,
			"name":"Material.005",
			"pbrMetallicRoughness":{
				"baseColorTexture":{
					"index":1
				},
				"metallicFactor":0,
				"roughnessFactor":0.2083333432674408
			}
		}
	],
	"meshes":[
		{
			"name":"Cylinder.022",
			"primitives":[
				{
					"attributes":{
						"POSITION":0,
						"NORMAL":1,
						"TEXCOORD_0":2
					},
					"indices":3,
					"material":0
				},
				{
					"attributes":{
						"POSITION":4,
						"NORMAL":5,
						"TEXCOORD_0":6
					},
					"indices":7,
					"material":1
				}
			]
		}
	],
	"textures":[
		{
			"sampler":0,
			"source":0
		},
		{
			"sampler":0,
			"source":0
		}
	],
	"images":[
		{
			"mimeType":"image/jpeg",
			"name":"microscope1",
			"uri":"microscope1.jpg"
		}
	],
	"accessors":[
		{
			"bufferView":0,
			"componentType":5126,
			"count":5736,
			"max":[
				0.010769831016659737,
				0.020500000566244125,
				0.010769831016659737
			],
			"min":[
				-0.010769831016659737,
				-0.02387024648487568,
				-0.010769831016659737
			],
			"type":"VEC3"
		},
		{
			"bufferView":1,
			"componentType":5126,
			"count":5736,
			"type":"VEC3"
		},
		{
			"bufferView":2,
			"componentType":5126,
			"count":5736,
			"type":"VEC2"
		},
		{
			"bufferView":3,
			"componentType":5123,
			"count":17268,
			"type":"SCALAR"
		},
		{
			"bufferView":4,
			"componentType":5126,
			"count":130,
			"max":[
				0.009901701472699642,
				0.0033239289186894894,
				0.009901701472699642
			],
			"min":[
				-0.009901701472699642,
				0.0023599043488502502,
				-0.009901701472699642
			],
			"type":"VEC3"
		},
		{
			"bufferView":5,
			"componentType":5126,
			"count":130,
			"type":"VEC3"
		},
		{
			"bufferView":6,
			"componentType":5126,
			"count":130,
			"type":"VEC2"
		},
		{
			"bufferView":7,
			"componentType":5123,
			"count":384,
			"type":"SCALAR"
		}
	],
	"bufferViews":[
		{
			"buffer":0,
			"byteLength":68832,
			"byteOffset":0,
			"target":34962
		},
		{
			"buffer":0,
			"byteLength":68832,
			"byteOffset":68832,
			"target":34962
		},
		{
			"buffer":0,
			"byteLength":45888,
			"byteOffset":137664,
			"target":34962
		},
		{
			"buffer":0,
			"byteLength":34536,
			"byteOffset":183552,
			"target":34963
		},
		{
			"buffer":0,
			"byteLength":1560,
			"byteOffset":218088,
			"target":34962
		},
		{
			"buffer":0,
			"byteLength":1560,
			"byteOffset":219648,
			"target":34962
		},
		{
			"buffer":0,
			"byteLength":1040,
			"byteOffset":221208,
			"target":34962
		},
		{
			"buffer":0,
			"byteLength":768,
			"byteOffset":222248,
			"target":34963
		}
	],
	"samplers":[
		{
			"magFilter":9729,
			"minFilter":9987
		}
	],
	"buffers":[
		{
			"byteLength":223016,
			"uri":"100x.bin"
		}
	]
}
