{
	"asset":{
		"generator":"Khronos glTF Blender I/O v3.6.27",
		"version":"2.0"
	},
	"scene":0,
	"scenes":[
		{
			"name":"Scene",
			"nodes":[
				0,
				1,
				2,
				3
			]
		}
	],
	"nodes":[
		{
			"mesh":0,
			"name":"40x",
			"rotation":[
				-0.15030543506145477,
				0,
				0,
				0.9886397123336792
			],
			"translation":[
				0,
				0.20257683098316193,
				0.055223770439624786
			]
		},
		{
			"mesh":1,
			"name":"Text.002",
			"rotation":[
				0.7071068286895752,
				0,
				0,
				0.7071068286895752
			],
			"scale":[
				0.011089053936302662,
				0.02460140734910965,
				0.013473319821059704
			],
			"translation":[
				0.09243625402450562,
				0.20341816544532776,
				0.05931434780359268
			]
		},
		{
			"mesh":2,
			"name":"Cube.004",
			"scale":[
				0.01871500164270401,
				0.009707197546958923,
				9.999999747378752e-05
			],
			"translation":[
				0.10207636654376984,
				0.20833948254585266,
				0.058811843395233154
			]
		},
		{
			"mesh":3,
			"name":"Cube.005",
			"scale":[
				0.0429159514605999,
				0.0010000000474974513,
				0
			],
			"translation":[
				0.03955841064453125,
				0.20783773064613342,
				0.05913291126489639
			]
		}
	],
	"materials":[
		{
			"doubleSided":true,
			"name":"metal.001",
			"pbrMetallicRoughness":{
				"roughnessFactor":0.36060604453086853
			}
		},
		{
			"doubleSided":true,
			"name":"Material.003",
			"pbrMetallicRoughness":{
				"baseColorFactor":[
					0,
					0.021236764267086983,
					0.8000000715255737,
					1
				],
				"metallicFactor":0,
				"roughnessFactor":0.2083333432674408
			}
		},
		{
			"doubleSided":true,
			"name":"black plastic.010",
			"pbrMetallicRoughness":{
				"baseColorFactor":[
					0.0056046294048428535,
					0.0056046294048428535,
					0.0056046294048428535,
					1
				],
				"metallicFactor":0,
				"roughnessFactor":0.6166667342185974
			}
		}
	],
	"meshes":[
		{
			"name":"Cylinder.020",
			"primitives":[
				{
					"attributes":{
						"POSITION":0,
						"NORMAL":1,
						"TEXCOORD_0":2,
						"TEXCOORD_1":3
					},
					"indices":4,
					"material":0
				},
				{
					"attributes":{
						"POSITION":5,
						"NORMAL":6,
						"TEXCOORD_0":7,
						"TEXCOORD_1":8
					},
					"indices":9,
					"material":1
				}
			]
		},
		{
			"name":"Text.001",
			"primitives":[
				{
					"attributes":{
						"POSITION":10,
						"NORMAL":11,
						"TEXCOORD_0":12
					},
					"indices":13,
					"material":2
				}
			]
		},
		{
			"name":"Cube.010",
			"primitives":[
				{
					"attributes":{
						"POSITION":14,
						"NORMAL":15,
						"TEXCOORD_0":16
					},
					"indices":17
				}
			]
		},
		{
			"name":"Cube.011",
			"primitives":[
				{
					"attributes":{
						"POSITION":18,
						"NORMAL":19,
						"TEXCOORD_0":20
					},
					"indices":17
				}
			]
		}
	],
	"accessors":[
		{
			"bufferView":0,
			"componentType":5126,
			"count":6064,
			"max":[
				0.010980785824358463,
				0.020500000566244125,
				0.010980785824358463
			],
			"min":[
				-0.010980785824358463,
				-0.02310897782444954,
				-0.010980785824358463
			],
			"type":"VEC3"
		},
		{
			"bufferView":1,
			"componentType":5126,
			"count":6064,
			"type":"VEC3"
		},
		{
			"bufferView":2,
			"componentType":5126,
			"count":6064,
			"type":"VEC2"
		},
		{
			"bufferView":3,
			"componentType":5126,
			"count":6064,
			"type":"VEC2"
		},
		{
			"bufferView":4,
			"componentType":5123,
			"count":15348,
			"type":"SCALAR"
		},
		{
			"bufferView":5,
			"componentType":5126,
			"count":130,
			"max":[
				0.009944374673068523,
				0.0023571790661662817,
				0.009944374673068523
			],
			"min":[
				-0.009944374673068523,
				0.0013936175964772701,
				-0.009944374673068523
			],
			"type":"VEC3"
		},
		{
			"bufferView":6,
			"componentType":5126,
			"count":130,
			"type":"VEC3"
		},
		{
			"bufferView":7,
			"componentType":5126,
			"count":130,
			"type":"VEC2"
		},
		{
			"bufferView":8,
			"componentType":5126,
			"count":130,
			"type":"VEC2"
		},
		{
			"bufferView":9,
			"componentType":5123,
			"count":384,
			"type":"SCALAR"
		},
		{
			"bufferView":10,
			"componentType":5126,
			"count":506,
			"max":[
				1.5,
				0.010000000707805157,
				0.009000000543892384
			],
			"min":[
				0.01100000087171793,
				-0.010000000707805157,
				-0.6910000443458557
			],
			"type":"VEC3"
		},
		{
			"bufferView":11,
			"componentType":5126,
			"count":506,
			"type":"VEC3"
		},
		{
			"bufferView":12,
			"componentType":5126,
			"count":506,
			"type":"VEC2"
		},
		{
			"bufferView":13,
			"componentType":5123,
			"count":1464,
			"type":"SCALAR"
		},
		{
			"bufferView":14,
			"componentType":5126,
			"count":24,
			"max":[
				1,
				1,
				1
			],
			"min":[
				-1,
				-1,
				-1
			],
			"type":"VEC3"
		},
		{
			"bufferView":15,
			"componentType":5126,
			"count":24,
			"type":"VEC3"
		},
		{
			"bufferView":16,
			"componentType":5126,
			"count":24,
			"type":"VEC2"
		},
		{
			"bufferView":17,
			"componentType":5123,
			"count":36,
			"type":"SCALAR"
		},
		{
			"bufferView":18,
			"componentType":5126,
			"count":24,
			"max":[
				1,
				1,
				1
			],
			"min":[
				-1,
				-1,
				-1
			],
			"type":"VEC3"
		},
		{
			"bufferView":19,
			"componentType":5126,
			"count":24,
			"type":"VEC3"
		},
		{
			"bufferView":20,
			"componentType":5126,
			"count":24,
			"type":"VEC2"
		}
	],
	"bufferViews":[
		{
			"buffer":0,
			"byteLength":72768,
			"byteOffset":0,
			"target":34962
		},
		{
			"buffer":0,
			"byteLength":72768,
			"byteOffset":72768,
			"target":34962
		},
		{
			"buffer":0,
			"byteLength":48512,
			"byteOffset":145536,
			"target":34962
		},
		{
			"buffer":0,
			"byteLength":48512,
			"byteOffset":194048,
			"target":34962
		},
		{
			"buffer":0,
			"byteLength":30696,
			"byteOffset":242560,
			"target":34963
		},
		{
			"buffer":0,
			"byteLength":1560,
			"byteOffset":273256,
			"target":34962
		},
		{
			"buffer":0,
			"byteLength":1560,
			"byteOffset":274816,
			"target":34962
		},
		{
			"buffer":0,
			"byteLength":1040,
			"byteOffset":276376,
			"target":34962
		},
		{
			"buffer":0,
			"byteLength":1040,
			"byteOffset":277416,
			"target":34962
		},
		{
			"buffer":0,
			"byteLength":768,
			"byteOffset":278456,
			"target":34963
		},
		{
			"buffer":0,
			"byteLength":6072,
			"byteOffset":279224,
			"target":34962
		},
		{
			"buffer":0,
			"byteLength":6072,
			"byteOffset":285296,
			"target":34962
		},
		{
			"buffer":0,
			"byteLength":4048,
			"byteOffset":291368,
			"target":34962
		},
		{
			"buffer":0,
			"byteLength":2928,
			"byteOffset":295416,
			"target":34963
		},
		{
			"buffer":0,
			"byteLength":288,
			"byteOffset":298344,
			"target":34962
		},
		{
			"buffer":0,
			"byteLength":288,
			"byteOffset":298632,
			"target":34962
		},
		{
			"buffer":0,
			"byteLength":192,
			"byteOffset":298920,
			"target":34962
		},
		{
			"buffer":0,
			"byteLength":72,
			"byteOffset":299112,
			"target":34963
		},
		{
			"buffer":0,
			"byteLength":288,
			"byteOffset":299184,
			"target":34962
		},
		{
			"buffer":0,
			"byteLength":288,
			"byteOffset":299472,
			"target":34962
		},
		{
			"buffer":0,
			"byteLength":192,
			"byteOffset":299760,
			"target":34962
		}
	],
	"buffers":[
		{
			"byteLength":299952,
			"uri":"40x.bin"
		}
	]
}
