{
	"asset":{
		"generator":"Khronos glTF Blender I/O v3.6.27",
		"version":"2.0"
	},
	"scene":0,
	"scenes":[
		{
			"name":"Scene",
			"nodes":[
				0,
				1,
				2,
				3
			]
		}
	],
	"nodes":[
		{
			"mesh":0,
			"name":"4x",
			"translation":[
				0,
				0.20381410419940948,
				0.01805155538022518
			]
		},
		{
			"mesh":1,
			"name":"Text.007",
			"rotation":[
				0.7071068286895752,
				0,
				0,
				0.7071068286895752
			],
			"scale":[
				0.011089053936302662,
				0.02460140734910965,
				0.013473319821059704
			],
			"translation":[
				-0.17060206830501556,
				0.20810116827487946,
				0.012133246287703514
			]
		},
		{
			"mesh":2,
			"name":"Cube.014",
			"scale":[
				0.01871500164270401,
				0.009707197546958923,
				9.999999747378752e-05
			],
			"translation":[
				-0.16096195578575134,
				0.21302248537540436,
				0.01163073442876339
			]
		},
		{
			"mesh":3,
			"name":"Cube.015",
			"scale":[
				0.06402575969696045,
				0.0010455100564286113,
				0
			],
			"translation":[
				-0.0785558819770813,
				0.21102097630500793,
				0.012418175116181374
			]
		}
	],
	"materials":[
		{
			"doubleSided":true,
			"name":"metal",
			"pbrMetallicRoughness":{
				"roughnessFactor":0.4833333194255829
			}
		},
		{
			"doubleSided":true,
			"name":"Material.002",
			"pbrMetallicRoughness":{
				"baseColorFactor":[
					0.8000000715255737,
					0,
					0.0008169133216142654,
					1
				],
				"metallicFactor":0,
				"roughnessFactor":0.2083333432674408
			}
		},
		{
			"doubleSided":true,
			"name":"glass",
			"pbrMetallicRoughness":{
				"baseColorFactor":[
					0.38437479734420776,
					0.3731274902820587,
					0.3731274902820587,
					1
				],
				"metallicFactor":0,
				"roughnessFactor":0
			}
		},
		{
			"doubleSided":true,
			"name":"black plastic.010",
			"pbrMetallicRoughness":{
				"baseColorFactor":[
					0.0056046294048428535,
					0.0056046294048428535,
					0.0056046294048428535,
					1
				],
				"metallicFactor":0,
				"roughnessFactor":0.6166667342185974
			}
		}
	],
	"meshes":[
		{
			"name":"Cylinder.017",
			"primitives":[
				{
					"attributes":{
						"POSITION":0,
						"NORMAL":1,
						"TEXCOORD_0":2
					},
					"indices":3,
					"material":0
				},
				{
					"attributes":{
						"POSITION":4,
						"NORMAL":5,
						"TEXCOORD_0":6
					},
					"indices":7,
					"material":1
				},
				{
					"attributes":{
						"POSITION":8,
						"NORMAL":9,
						"TEXCOORD_0":10
					},
					"indices":11,
					"material":2
				}
			]
		},
		{
			"name":"Text.003",
			"primitives":[
				{
					"attributes":{
						"POSITION":12,
						"NORMAL":13,
						"TEXCOORD_0":14
					},
					"indices":15,
					"material":3
				}
			]
		},
		{
			"name":"Cube.014",
			"primitives":[
				{
					"attributes":{
						"POSITION":16,
						"NORMAL":17,
						"TEXCOORD_0":18
					},
					"indices":19
				}
			]
		},
		{
			"name":"Cube.015",
			"primitives":[
				{
					"attributes":{
						"POSITION":20,
						"NORMAL":21,
						"TEXCOORD_0":22
					},
					"indices":19
				}
			]
		}
	],
	"accessors":[
		{
			"bufferView":0,
			"componentType":5126,
			"count":2375,
			"max":[
				0.009662123396992683,
				0.013000000268220901,
				0.009662123396992683
			],
			"min":[
				-0.009662123396992683,
				-0.013000000268220901,
				-0.009662123396992683
			],
			"type":"VEC3"
		},
		{
			"bufferView":1,
			"componentType":5126,
			"count":2375,
			"type":"VEC3"
		},
		{
			"bufferView":2,
			"componentType":5126,
			"count":2375,
			"type":"VEC2"
		},
		{
			"bufferView":3,
			"componentType":5123,
			"count":7098,
			"type":"SCALAR"
		},
		{
			"bufferView":4,
			"componentType":5126,
			"count":154,
			"max":[
				0.009351932443678379,
				0.004474494606256485,
				0.009351932443678379
			],
			"min":[
				-0.009351932443678379,
				0.003508908674120903,
				-0.009351932443678379
			],
			"type":"VEC3"
		},
		{
			"bufferView":5,
			"componentType":5126,
			"count":154,
			"type":"VEC3"
		},
		{
			"bufferView":6,
			"componentType":5126,
			"count":154,
			"type":"VEC2"
		},
		{
			"bufferView":7,
			"componentType":5123,
			"count":384,
			"type":"SCALAR"
		},
		{
			"bufferView":8,
			"componentType":5126,
			"count":64,
			"max":[
				0.003079392481595278,
				-0.009680964052677155,
				0.003079392481595278
			],
			"min":[
				-0.0030793906189501286,
				-0.009680966846644878,
				-0.003079391550272703
			],
			"type":"VEC3"
		},
		{
			"bufferView":9,
			"componentType":5126,
			"count":64,
			"type":"VEC3"
		},
		{
			"bufferView":10,
			"componentType":5126,
			"count":64,
			"type":"VEC2"
		},
		{
			"bufferView":11,
			"componentType":5123,
			"count":186,
			"type":"SCALAR"
		},
		{
			"bufferView":12,
			"componentType":5126,
			"count":118,
			"max":[
				1.277999997138977,
				0.010000000707805157,
				0
			],
			"min":[
				0.2890000343322754,
				-0.010000000707805157,
				-0.6910000443458557
			],
			"type":"VEC3"
		},
		{
			"bufferView":13,
			"componentType":5126,
			"count":118,
			"type":"VEC3"
		},
		{
			"bufferView":14,
			"componentType":5126,
			"count":118,
			"type":"VEC2"
		},
		{
			"bufferView":15,
			"componentType":5123,
			"count":312,
			"type":"SCALAR"
		},
		{
			"bufferView":16,
			"componentType":5126,
			"count":24,
			"max":[
				1,
				1,
				1
			],
			"min":[
				-1,
				-1,
				-1
			],
			"type":"VEC3"
		},
		{
			"bufferView":17,
			"componentType":5126,
			"count":24,
			"type":"VEC3"
		},
		{
			"bufferView":18,
			"componentType":5126,
			"count":24,
			"type":"VEC2"
		},
		{
			"bufferView":19,
			"componentType":5123,
			"count":36,
			"type":"SCALAR"
		},
		{
			"bufferView":20,
			"componentType":5126,
			"count":24,
			"max":[
				1,
				1,
				1
			],
			"min":[
				-1,
				-1,
				-1
			],
			"type":"VEC3"
		},
		{
			"bufferView":21,
			"componentType":5126,
			"count":24,
			"type":"VEC3"
		},
		{
			"bufferView":22,
			"componentType":5126,
			"count":24,
			"type":"VEC2"
		}
	],
	"bufferViews":[
		{
			"buffer":0,
			"byteLength":28500,
			"byteOffset":0,
			"target":34962
		},
		{
			"buffer":0,
			"byteLength":28500,
			"byteOffset":28500,
			"target":34962
		},
		{
			"buffer":0,
			"byteLength":19000,
			"byteOffset":57000,
			"target":34962
		},
		{
			"buffer":0,
			"byteLength":14196,
			"byteOffset":76000,
			"target":34963
		},
		{
			"buffer":0,
			"byteLength":1848,
			"byteOffset":90196,
			"target":34962
		},
		{
			"buffer":0,
			"byteLength":1848,
			"byteOffset":92044,
			"target":34962
		},
		{
			"buffer":0,
			"byteLength":1232,
			"byteOffset":93892,
			"target":34962
		},
		{
			"buffer":0,
			"byteLength":768,
			"byteOffset":95124,
			"target":34963
		},
		{
			"buffer":0,
			"byteLength":768,
			"byteOffset":95892,
			"target":34962
		},
		{
			"buffer":0,
			"byteLength":768,
			"byteOffset":96660,
			"target":34962
		},
		{
			"buffer":0,
			"byteLength":512,
			"byteOffset":97428,
			"target":34962
		},
		{
			"buffer":0,
			"byteLength":372,
			"byteOffset":97940,
			"target":34963
		},
		{
			"buffer":0,
			"byteLength":1416,
			"byteOffset":98312,
			"target":34962
		},
		{
			"buffer":0,
			"byteLength":1416,
			"byteOffset":99728,
			"target":34962
		},
		{
			"buffer":0,
			"byteLength":944,
			"byteOffset":101144,
			"target":34962
		},
		{
			"buffer":0,
			"byteLength":624,
			"byteOffset":102088,
			"target":34963
		},
		{
			"buffer":0,
			"byteLength":288,
			"byteOffset":102712,
			"target":34962
		},
		{
			"buffer":0,
			"byteLength":288,
			"byteOffset":103000,
			"target":34962
		},
		{
			"buffer":0,
			"byteLength":192,
			"byteOffset":103288,
			"target":34962
		},
		{
			"buffer":0,
			"byteLength":72,
			"byteOffset":103480,
			"target":34963
		},
		{
			"buffer":0,
			"byteLength":288,
			"byteOffset":103552,
			"target":34962
		},
		{
			"buffer":0,
			"byteLength":288,
			"byteOffset":103840,
			"target":34962
		},
		{
			"buffer":0,
			"byteLength":192,
			"byteOffset":104128,
			"target":34962
		}
	],
	"buffers":[
		{
			"byteLength":104320,
			"uri":"4x.bin"
		}
	]
}
