{
	"asset":{
		"generator":"Khronos glTF Blender I/O v3.6.27",
		"version":"2.0"
	},
	"scene":0,
	"scenes":[
		{
			"name":"Scene",
			"nodes":[
				0,
				1,
				2,
				3,
				4,
				5,
				6,
				7
			]
		}
	],
	"nodes":[
		{
			"mesh":0,
			"name":"base1",
			"translation":[
				0,
				0.021216001361608505,
				0
			]
		},
		{
			"mesh":1,
			"name":"base2",
			"translation":[
				0,
				0.09443385899066925,
				-0.06159842759370804
			]
		},
		{
			"mesh":2,
			"name":"lamp control knob",
			"translation":[
				0,
				0.047830838710069656,
				0.06181569769978523
			]
		},
		{
			"mesh":3,
			"name":"lamp",
			"scale":[
				1.0309115648269653,
				0.760053813457489,
				0.950333833694458
			],
			"translation":[
				0,
				0.037643104791641235,
				0.018051600083708763
			]
		},
		{
			"mesh":4,
			"name":"base3",
			"translation":[
				0,
				0.0917411595582962,
				-0.023662367835640907
			]
		},
		{
			"mesh":5,
			"name":"Text.012",
			"rotation":[
				0.7071068286895752,
				0,
				0,
				0.7071068286895752
			],
			"scale":[
				0.011089053936302662,
				0.02460140734910965,
				0.013473319821059704
			],
			"translation":[
				0.15280933678150177,
				0.04533356800675392,
				0.06467242538928986
			]
		},
		{
			"mesh":6,
			"name":"Cube.024",
			"scale":[
				0.06759928166866302,
				0.0016545412363484502,
				0
			],
			"translation":[
				0.07955682277679443,
				0.049753133207559586,
				0.06449098885059357
			]
		},
		{
			"mesh":7,
			"name":"Cube.025",
			"scale":[
				0.05242645740509033,
				0.009707197546958923,
				9.999999747378752e-05
			],
			"translation":[
				0.1992085576057434,
				0.05025491490960121,
				0.06416992098093033
			]
		}
	],
	"materials":[
		{
			"doubleSided":true,
			"name":"Material.006",
			"pbrMetallicRoughness":{
				"metallicFactor":0,
				"roughnessFactor":0.8257575631141663
			}
		},
		{
			"doubleSided":true,
			"name":"Material",
			"pbrMetallicRoughness":{
				"baseColorFactor":[
					0.8000000715255737,
					0.7875087857246399,
					0.7507203817367554,
					1
				],
				"metallicFactor":0,
				"roughnessFactor":0.8257575631141663
			}
		},
		{
			"doubleSided":true,
			"name":"black plastic.002",
			"pbrMetallicRoughness":{
				"baseColorFactor":[
					0.0056046294048428535,
					0.0056046294048428535,
					0.0056046294048428535,
					1
				],
				"metallicFactor":0,
				"roughnessFactor":0.6166667342185974
			}
		},
		{
			"doubleSided":true,
			"name":"metal.002",
			"pbrMetallicRoughness":{
				"baseColorFactor":[
					0.5925782918930054,
					0.5925782918930054,
					0.5925782918930054,
					1
				],
				"roughnessFactor":0.4833333194255829
			}
		},
		{
			"doubleSided":true,
			"name":"black plastic",
			"pbrMetallicRoughness":{
				"baseColorFactor":[
					0.0056046294048428535,
					0.0056046294048428535,
					0.0056046294048428535,
					1
				],
				"metallicFactor":0,
				"roughnessFactor":0.6166667342185974
			}
		},
		{
			"doubleSided":true,
			"name":"glass",
			"pbrMetallicRoughness":{
				"baseColorFactor":[
					0.38437479734420776,
					0.3731274902820587,
					0.3731274902820587,
					1
				],
				"metallicFactor":0,
				"roughnessFactor":0
			}
		},
		{
			"doubleSided":true,
			"name":"black plastic.012",
			"pbrMetallicRoughness":{
				"baseColorFactor":[
					0.0056046294048428535,
					0.0056046294048428535,
					0.0056046294048428535,
					1
				],
				"metallicFactor":0,
				"roughnessFactor":0.6166667342185974
			}
		}
	],
	"meshes":[
		{
			"name":"Cube",
			"primitives":[
				{
					"attributes":{
						"POSITION":0,
						"NORMAL":1,
						"TEXCOORD_0":2,
						"TEXCOORD_1":3
					},
					"indices":4,
					"material":0
				}
			]
		},
		{
			"name":"Cube.001",
			"primitives":[
				{
					"attributes":{
						"POSITION":5,
						"NORMAL":6,
						"TEXCOORD_0":7
					},
					"indices":8,
					"material":1
				}
			]
		},
		{
			"name":"Cylinder.003",
			"primitives":[
				{
					"attributes":{
						"POSITION":9,
						"NORMAL":10,
						"TEXCOORD_0":11,
						"TEXCOORD_1":12
					},
					"indices":13,
					"material":2
				},
				{
					"attributes":{
						"POSITION":14,
						"NORMAL":15,
						"TEXCOORD_0":16,
						"TEXCOORD_1":17
					},
					"indices":18,
					"material":3
				}
			]
		},
		{
			"name":"Cylinder.006",
			"primitives":[
				{
					"attributes":{
						"POSITION":19,
						"NORMAL":20,
						"TEXCOORD_0":21
					},
					"indices":22,
					"material":4
				},
				{
					"attributes":{
						"POSITION":23,
						"NORMAL":24,
						"TEXCOORD_0":25
					},
					"indices":26,
					"material":5
				}
			]
		},
		{
			"name":"Cube.002",
			"primitives":[
				{
					"attributes":{
						"POSITION":27,
						"NORMAL":28,
						"TEXCOORD_0":29
					},
					"indices":30,
					"material":1
				}
			]
		},
		{
			"name":"Text.012",
			"primitives":[
				{
					"attributes":{
						"POSITION":31,
						"NORMAL":32,
						"TEXCOORD_0":33
					},
					"indices":34,
					"material":6
				}
			]
		},
		{
			"name":"Cube.032",
			"primitives":[
				{
					"attributes":{
						"POSITION":35,
						"NORMAL":36,
						"TEXCOORD_0":37
					},
					"indices":38
				}
			]
		},
		{
			"name":"Cube.033",
			"primitives":[
				{
					"attributes":{
						"POSITION":39,
						"NORMAL":40,
						"TEXCOORD_0":41
					},
					"indices":38
				}
			]
		}
	],
	"accessors":[
		{
			"bufferView":0,
			"componentType":5126,
			"count":1284,
			"max":[
				0.06495493650436401,
				0.01823573000729084,
				0.08862126618623734
			],
			"min":[
				-0.06495493650436401,
				-0.017514055594801903,
				-0.08357375860214233
			],
			"type":"VEC3"
		},
		{
			"bufferView":1,
			"componentType":5126,
			"count":1284,
			"type":"VEC3"
		},
		{
			"bufferView":2,
			"componentType":5126,
			"count":1284,
			"type":"VEC2"
		},
		{
			"bufferView":3,
			"componentType":5126,
			"count":1284,
			"type":"VEC2"
		},
		{
			"bufferView":4,
			"componentType":5123,
			"count":3456,
			"type":"SCALAR"
		},
		{
			"bufferView":5,
			"componentType":5126,
			"count":2032,
			"max":[
				0.02823987789452076,
				0.15361864864826202,
				0.10772170126438141
			],
			"min":[
				-0.02823987789452076,
				-0.05507567897439003,
				-0.02047540992498398
			],
			"type":"VEC3"
		},
		{
			"bufferView":6,
			"componentType":5126,
			"count":2032,
			"type":"VEC3"
		},
		{
			"bufferView":7,
			"componentType":5126,
			"count":2032,
			"type":"VEC2"
		},
		{
			"bufferView":8,
			"componentType":5123,
			"count":6180,
			"type":"SCALAR"
		},
		{
			"bufferView":9,
			"componentType":5126,
			"count":98,
			"max":[
				0.010000000707805157,
				0.009000000543892384,
				0.010000000707805157
			],
			"min":[
				-0.010000000707805157,
				-0.009000000543892384,
				-0.010000000707805157
			],
			"type":"VEC3"
		},
		{
			"bufferView":10,
			"componentType":5126,
			"count":98,
			"type":"VEC3"
		},
		{
			"bufferView":11,
			"componentType":5126,
			"count":98,
			"type":"VEC2"
		},
		{
			"bufferView":12,
			"componentType":5126,
			"count":98,
			"type":"VEC2"
		},
		{
			"bufferView":13,
			"componentType":5123,
			"count":282,
			"type":"SCALAR"
		},
		{
			"bufferView":14,
			"componentType":5126,
			"count":250,
			"max":[
				0.010000000707805157,
				0.009000000543892384,
				0.010000000707805157
			],
			"min":[
				-0.010000000707805157,
				0.008553490042686462,
				-0.010000000707805157
			],
			"type":"VEC3"
		},
		{
			"bufferView":15,
			"componentType":5126,
			"count":250,
			"type":"VEC3"
		},
		{
			"bufferView":16,
			"componentType":5126,
			"count":250,
			"type":"VEC2"
		},
		{
			"bufferView":17,
			"componentType":5126,
			"count":250,
			"type":"VEC2"
		},
		{
			"bufferView":18,
			"componentType":5123,
			"count":960,
			"type":"SCALAR"
		},
		{
			"bufferView":19,
			"componentType":5126,
			"count":8434,
			"max":[
				0.019641295075416565,
				0.04631847143173218,
				0.019641295075416565
			],
			"min":[
				-0.019641295075416565,
				-0.006713099777698517,
				-0.019641295075416565
			],
			"type":"VEC3"
		},
		{
			"bufferView":20,
			"componentType":5126,
			"count":8434,
			"type":"VEC3"
		},
		{
			"bufferView":21,
			"componentType":5126,
			"count":8434,
			"type":"VEC2"
		},
		{
			"bufferView":22,
			"componentType":5123,
			"count":21084,
			"type":"SCALAR"
		},
		{
			"bufferView":23,
			"componentType":5126,
			"count":452,
			"max":[
				0.01292457152158022,
				0.04500981792807579,
				0.01292457152158022
			],
			"min":[
				-0.012924570590257645,
				0.043777622282505035,
				-0.01292457152158022
			],
			"type":"VEC3"
		},
		{
			"bufferView":24,
			"componentType":5126,
			"count":452,
			"type":"VEC3"
		},
		{
			"bufferView":25,
			"componentType":5126,
			"count":452,
			"type":"VEC2"
		},
		{
			"bufferView":26,
			"componentType":5123,
			"count":1989,
			"type":"SCALAR"
		},
		{
			"bufferView":27,
			"componentType":5126,
			"count":1325,
			"max":[
				0.03253453969955444,
				0.04722046107053757,
				0.03552424535155296
			],
			"min":[
				-0.03253453969955444,
				-0.0465247668325901,
				-0.017477385699748993
			],
			"type":"VEC3"
		},
		{
			"bufferView":28,
			"componentType":5126,
			"count":1325,
			"type":"VEC3"
		},
		{
			"bufferView":29,
			"componentType":5126,
			"count":1325,
			"type":"VEC2"
		},
		{
			"bufferView":30,
			"componentType":5123,
			"count":4593,
			"type":"SCALAR"
		},
		{
			"bufferView":31,
			"componentType":5126,
			"count":2424,
			"max":[
				8.26300048828125,
				0.010000000707805157,
				0.23000000417232513
			],
			"min":[
				0.34800001978874207,
				-0.010000000707805157,
				-0.6940000057220459
			],
			"type":"VEC3"
		},
		{
			"bufferView":32,
			"componentType":5126,
			"count":2424,
			"type":"VEC3"
		},
		{
			"bufferView":33,
			"componentType":5126,
			"count":2424,
			"type":"VEC2"
		},
		{
			"bufferView":34,
			"componentType":5123,
			"count":7068,
			"type":"SCALAR"
		},
		{
			"bufferView":35,
			"componentType":5126,
			"count":24,
			"max":[
				1,
				1,
				1
			],
			"min":[
				-1,
				-1,
				-1
			],
			"type":"VEC3"
		},
		{
			"bufferView":36,
			"componentType":5126,
			"count":24,
			"type":"VEC3"
		},
		{
			"bufferView":37,
			"componentType":5126,
			"count":24,
			"type":"VEC2"
		},
		{
			"bufferView":38,
			"componentType":5123,
			"count":36,
			"type":"SCALAR"
		},
		{
			"bufferView":39,
			"componentType":5126,
			"count":24,
			"max":[
				1,
				1,
				1
			],
			"min":[
				-1,
				-1,
				-1
			],
			"type":"VEC3"
		},
		{
			"bufferView":40,
			"componentType":5126,
			"count":24,
			"type":"VEC3"
		},
		{
			"bufferView":41,
			"componentType":5126,
			"count":24,
			"type":"VEC2"
		}
	],
	"bufferViews":[
		{
			"buffer":0,
			"byteLength":15408,
			"byteOffset":0,
			"target":34962
		},
		{
			"buffer":0,
			"byteLength":15408,
			"byteOffset":15408,
			"target":34962
		},
		{
			"buffer":0,
			"byteLength":10272,
			"byteOffset":30816,
			"target":34962
		},
		{
			"buffer":0,
			"byteLength":10272,
			"byteOffset":41088,
			"target":34962
		},
		{
			"buffer":0,
			"byteLength":6912,
			"byteOffset":51360,
			"target":34963
		},
		{
			"buffer":0,
			"byteLength":24384,
			"byteOffset":58272,
			"target":34962
		},
		{
			"buffer":0,
			"byteLength":24384,
			"byteOffset":82656,
			"target":34962
		},
		{
			"buffer":0,
			"byteLength":16256,
			"byteOffset":107040,
			"target":34962
		},
		{
			"buffer":0,
			"byteLength":12360,
			"byteOffset":123296,
			"target":34963
		},
		{
			"buffer":0,
			"byteLength":1176,
			"byteOffset":135656,
			"target":34962
		},
		{
			"buffer":0,
			"byteLength":1176,
			"byteOffset":136832,
			"target":34962
		},
		{
			"buffer":0,
			"byteLength":784,
			"byteOffset":138008,
			"target":34962
		},
		{
			"buffer":0,
			"byteLength":784,
			"byteOffset":138792,
			"target":34962
		},
		{
			"buffer":0,
			"byteLength":564,
			"byteOffset":139576,
			"target":34963
		},
		{
			"buffer":0,
			"byteLength":3000,
			"byteOffset":140140,
			"target":34962
		},
		{
			"buffer":0,
			"byteLength":3000,
			"byteOffset":143140,
			"target":34962
		},
		{
			"buffer":0,
			"byteLength":2000,
			"byteOffset":146140,
			"target":34962
		},
		{
			"buffer":0,
			"byteLength":2000,
			"byteOffset":148140,
			"target":34962
		},
		{
			"buffer":0,
			"byteLength":1920,
			"byteOffset":150140,
			"target":34963
		},
		{
			"buffer":0,
			"byteLength":101208,
			"byteOffset":152060,
			"target":34962
		},
		{
			"buffer":0,
			"byteLength":101208,
			"byteOffset":253268,
			"target":34962
		},
		{
			"buffer":0,
			"byteLength":67472,
			"byteOffset":354476,
			"target":34962
		},
		{
			"buffer":0,
			"byteLength":42168,
			"byteOffset":421948,
			"target":34963
		},
		{
			"buffer":0,
			"byteLength":5424,
			"byteOffset":464116,
			"target":34962
		},
		{
			"buffer":0,
			"byteLength":5424,
			"byteOffset":469540,
			"target":34962
		},
		{
			"buffer":0,
			"byteLength":3616,
			"byteOffset":474964,
			"target":34962
		},
		{
			"buffer":0,
			"byteLength":3978,
			"byteOffset":478580,
			"target":34963
		},
		{
			"buffer":0,
			"byteLength":15900,
			"byteOffset":482560,
			"target":34962
		},
		{
			"buffer":0,
			"byteLength":15900,
			"byteOffset":498460,
			"target":34962
		},
		{
			"buffer":0,
			"byteLength":10600,
			"byteOffset":514360,
			"target":34962
		},
		{
			"buffer":0,
			"byteLength":9186,
			"byteOffset":524960,
			"target":34963
		},
		{
			"buffer":0,
			"byteLength":29088,
			"byteOffset":534148,
			"target":34962
		},
		{
			"buffer":0,
			"byteLength":29088,
			"byteOffset":563236,
			"target":34962
		},
		{
			"buffer":0,
			"byteLength":19392,
			"byteOffset":592324,
			"target":34962
		},
		{
			"buffer":0,
			"byteLength":14136,
			"byteOffset":611716,
			"target":34963
		},
		{
			"buffer":0,
			"byteLength":288,
			"byteOffset":625852,
			"target":34962
		},
		{
			"buffer":0,
			"byteLength":288,
			"byteOffset":626140,
			"target":34962
		},
		{
			"buffer":0,
			"byteLength":192,
			"byteOffset":626428,
			"target":34962
		},
		{
			"buffer":0,
			"byteLength":72,
			"byteOffset":626620,
			"target":34963
		},
		{
			"buffer":0,
			"byteLength":288,
			"byteOffset":626692,
			"target":34962
		},
		{
			"buffer":0,
			"byteLength":288,
			"byteOffset":626980,
			"target":34962
		},
		{
			"buffer":0,
			"byteLength":192,
			"byteOffset":627268,
			"target":34962
		}
	],
	"buffers":[
		{
			"byteLength":627460,
			"uri":"base.bin"
		}
	]
}
