{
	"asset":{
		"generator":"Khronos glTF Blender I/O v3.6.27",
		"version":"2.0"
	},
	"scene":0,
	"scenes":[
		{
			"name":"Scene",
			"nodes":[
				0,
				1,
				2,
				3
			]
		}
	],
	"nodes":[
		{
			"mesh":0,
			"name":"100x",
			"rotation":[
				-0.06473425030708313,
				0.007583487778902054,
				0.08920601010322571,
				0.9938784837722778
			],
			"translation":[
				0.01931070163846016,
				0.19942279160022736,
				0.03537203371524811
			]
		},
		{
			"mesh":1,
			"name":"Text.008",
			"rotation":[
				0.70710688829422,
				0,
				0,
				0.7071066498756409
			],
			"scale":[
				0.011089053936302662,
				0.024601411074399948,
				0.013473321683704853
			],
			"translation":[
				0.12822401523590088,
				0.17681530117988586,
				0.03435484319925308
			]
		},
		{
			"mesh":2,
			"name":"Cube.016",
			"scale":[
				0.01871500164270401,
				0.009707197546958923,
				9.999999747378752e-05
			],
			"translation":[
				0.1378641277551651,
				0.18173661828041077,
				0.033852338790893555
			]
		},
		{
			"mesh":3,
			"name":"Cube.017",
			"scale":[
				0.0429159514605999,
				0.0010000000474974513,
				0
			],
			"translation":[
				0.07534617185592651,
				0.18123486638069153,
				0.03417340666055679
			]
		}
	],
	"materials":[
		{
			"doubleSided":true,
			"name":"metal.029",
			"pbrMetallicRoughness":{
				"roughnessFactor":0.4833333194255829
			}
		},
		{
			"doubleSided":true,
			"name":"Material.027",
			"pbrMetallicRoughness":{
				"metallicFactor":0,
				"roughnessFactor":0.2083333432674408
			}
		},
		{
			"doubleSided":true,
			"name":"black plastic.051",
			"pbrMetallicRoughness":{
				"baseColorFactor":[
					0.0056046294048428535,
					0.0056046294048428535,
					0.0056046294048428535,
					1
				],
				"metallicFactor":0,
				"roughnessFactor":0.6166667342185974
			}
		}
	],
	"meshes":[
		{
			"name":"Cylinder.019",
			"primitives":[
				{
					"attributes":{
						"POSITION":0,
						"NORMAL":1,
						"TEXCOORD_0":2
					},
					"indices":3,
					"material":0
				},
				{
					"attributes":{
						"POSITION":4,
						"NORMAL":5,
						"TEXCOORD_0":6
					},
					"indices":7,
					"material":1
				}
			]
		},
		{
			"name":"Text.003",
			"primitives":[
				{
					"attributes":{
						"POSITION":8,
						"NORMAL":9,
						"TEXCOORD_0":10
					},
					"indices":11,
					"material":2
				}
			]
		},
		{
			"name":"Cube.046",
			"primitives":[
				{
					"attributes":{
						"POSITION":12,
						"NORMAL":13,
						"TEXCOORD_0":14
					},
					"indices":15
				}
			]
		},
		{
			"name":"Cube.047",
			"primitives":[
				{
					"attributes":{
						"POSITION":16,
						"NORMAL":17,
						"TEXCOORD_0":18
					},
					"indices":15
				}
			]
		}
	],
	"accessors":[
		{
			"bufferView":0,
			"componentType":5126,
			"count":5832,
			"max":[
				0.010769831016659737,
				0.020500000566244125,
				0.010769831016659737
			],
			"min":[
				-0.010769831016659737,
				-0.02387024648487568,
				-0.010769831016659737
			],
			"type":"VEC3"
		},
		{
			"bufferView":1,
			"componentType":5126,
			"count":5832,
			"type":"VEC3"
		},
		{
			"bufferView":2,
			"componentType":5126,
			"count":5832,
			"type":"VEC2"
		},
		{
			"bufferView":3,
			"componentType":5123,
			"count":17268,
			"type":"SCALAR"
		},
		{
			"bufferView":4,
			"componentType":5126,
			"count":130,
			"max":[
				0.009901701472699642,
				0.0033239289186894894,
				0.009901701472699642
			],
			"min":[
				-0.009901701472699642,
				0.0023599043488502502,
				-0.009901701472699642
			],
			"type":"VEC3"
		},
		{
			"bufferView":5,
			"componentType":5126,
			"count":130,
			"type":"VEC3"
		},
		{
			"bufferView":6,
			"componentType":5126,
			"count":130,
			"type":"VEC2"
		},
		{
			"bufferView":7,
			"componentType":5123,
			"count":384,
			"type":"SCALAR"
		},
		{
			"bufferView":8,
			"componentType":5126,
			"count":844,
			"max":[
				2,
				0.010000000707805157,
				0.009000000543892384
			],
			"min":[
				0.20200000703334808,
				-0.010000000707805157,
				-0.6910000443458557
			],
			"type":"VEC3"
		},
		{
			"bufferView":9,
			"componentType":5126,
			"count":844,
			"type":"VEC3"
		},
		{
			"bufferView":10,
			"componentType":5126,
			"count":844,
			"type":"VEC2"
		},
		{
			"bufferView":11,
			"componentType":5123,
			"count":2472,
			"type":"SCALAR"
		},
		{
			"bufferView":12,
			"componentType":5126,
			"count":24,
			"max":[
				1,
				1,
				1
			],
			"min":[
				-1,
				-1,
				-1
			],
			"type":"VEC3"
		},
		{
			"bufferView":13,
			"componentType":5126,
			"count":24,
			"type":"VEC3"
		},
		{
			"bufferView":14,
			"componentType":5126,
			"count":24,
			"type":"VEC2"
		},
		{
			"bufferView":15,
			"componentType":5123,
			"count":36,
			"type":"SCALAR"
		},
		{
			"bufferView":16,
			"componentType":5126,
			"count":24,
			"max":[
				1,
				1,
				1
			],
			"min":[
				-1,
				-1,
				-1
			],
			"type":"VEC3"
		},
		{
			"bufferView":17,
			"componentType":5126,
			"count":24,
			"type":"VEC3"
		},
		{
			"bufferView":18,
			"componentType":5126,
			"count":24,
			"type":"VEC2"
		}
	],
	"bufferViews":[
		{
			"buffer":0,
			"byteLength":69984,
			"byteOffset":0,
			"target":34962
		},
		{
			"buffer":0,
			"byteLength":69984,
			"byteOffset":69984,
			"target":34962
		},
		{
			"buffer":0,
			"byteLength":46656,
			"byteOffset":139968,
			"target":34962
		},
		{
			"buffer":0,
			"byteLength":34536,
			"byteOffset":186624,
			"target":34963
		},
		{
			"buffer":0,
			"byteLength":1560,
			"byteOffset":221160,
			"target":34962
		},
		{
			"buffer":0,
			"byteLength":1560,
			"byteOffset":222720,
			"target":34962
		},
		{
			"buffer":0,
			"byteLength":1040,
			"byteOffset":224280,
			"target":34962
		},
		{
			"buffer":0,
			"byteLength":768,
			"byteOffset":225320,
			"target":34963
		},
		{
			"buffer":0,
			"byteLength":10128,
			"byteOffset":226088,
			"target":34962
		},
		{
			"buffer":0,
			"byteLength":10128,
			"byteOffset":236216,
			"target":34962
		},
		{
			"buffer":0,
			"byteLength":6752,
			"byteOffset":246344,
			"target":34962
		},
		{
			"buffer":0,
			"byteLength":4944,
			"byteOffset":253096,
			"target":34963
		},
		{
			"buffer":0,
			"byteLength":288,
			"byteOffset":258040,
			"target":34962
		},
		{
			"buffer":0,
			"byteLength":288,
			"byteOffset":258328,
			"target":34962
		},
		{
			"buffer":0,
			"byteLength":192,
			"byteOffset":258616,
			"target":34962
		},
		{
			"buffer":0,
			"byteLength":72,
			"byteOffset":258808,
			"target":34963
		},
		{
			"buffer":0,
			"byteLength":288,
			"byteOffset":258880,
			"target":34962
		},
		{
			"buffer":0,
			"byteLength":288,
			"byteOffset":259168,
			"target":34962
		},
		{
			"buffer":0,
			"byteLength":192,
			"byteOffset":259456,
			"target":34962
		}
	],
	"buffers":[
		{
			"byteLength":259648,
			"uri":"L100x.bin"
		}
	]
}
