{
	"asset":{
		"generator":"Khronos glTF Blender I/O v3.6.27",
		"version":"2.0"
	},
	"scene":0,
	"scenes":[
		{
			"name":"Scene",
			"nodes":[
				0,
				1,
				2,
				3,
				4,
				5,
				6,
				7,
				8,
				9,
				10,
				11
			]
		}
	],
	"nodes":[
		{
			"mesh":0,
			"name":"10x",
			"rotation":[
				-0.05993626266717911,
				0.010082120075821877,
				-0.09488498419523239,
				0.99363112449646
			],
			"translation":[
				-0.0196746364235878,
				0.20124287903308868,
				0.03376791626214981
			]
		},
		{
			"mesh":1,
			"name":"Text.003",
			"rotation":[
				0.70710688829422,
				0,
				0,
				0.7071066498756409
			],
			"scale":[
				0.011089053936302662,
				0.0246014092117548,
				0.013473320752382278
			],
			"translation":[
				-0.12977632880210876,
				0.18221300840377808,
				0.03357785940170288
			]
		},
		{
			"mesh":2,
			"name":"Cube.006",
			"scale":[
				0.01871500164270401,
				0.009707197546958923,
				9.999999747378752e-05
			],
			"translation":[
				-0.12013620883226395,
				0.18713432550430298,
				0.033075347542762756
			]
		},
		{
			"mesh":3,
			"name":"Cube.007",
			"scale":[
				0.0429159514605999,
				0.0010000000474974513,
				0
			],
			"translation":[
				-0.06291262805461884,
				0.18513281643390656,
				0.03386278823018074
			]
		},
		{
			"mesh":4,
			"name":"40x",
			"rotation":[
				-0.15030543506145477,
				0,
				0,
				0.9886397123336792
			],
			"translation":[
				0,
				0.20257683098316193,
				0.055223770439624786
			]
		},
		{
			"mesh":5,
			"name":"Text.002",
			"rotation":[
				0.70710688829422,
				0,
				0,
				0.7071066498756409
			],
			"scale":[
				0.011089053936302662,
				0.0246014092117548,
				0.013473320752382278
			],
			"translation":[
				0.09243625402450562,
				0.20341816544532776,
				0.05931434780359268
			]
		},
		{
			"mesh":6,
			"name":"Cube.004",
			"scale":[
				0.01871500164270401,
				0.009707197546958923,
				9.999999747378752e-05
			],
			"translation":[
				0.10207636654376984,
				0.20833948254585266,
				0.058811843395233154
			]
		},
		{
			"mesh":7,
			"name":"Cube.005",
			"scale":[
				0.0429159514605999,
				0.0010000000474974513,
				0
			],
			"translation":[
				0.03955841064453125,
				0.20783773064613342,
				0.05913291126489639
			]
		},
		{
			"mesh":8,
			"name":"100x",
			"rotation":[
				-0.06473426520824432,
				0.007583489175885916,
				0.0892060250043869,
				0.9938784837722778
			],
			"translation":[
				0.01931070163846016,
				0.19942279160022736,
				0.03537203371524811
			]
		},
		{
			"mesh":9,
			"name":"Text.008",
			"rotation":[
				0.70710688829422,
				0,
				0,
				0.7071066498756409
			],
			"scale":[
				0.011089053936302662,
				0.0246014092117548,
				0.013473320752382278
			],
			"translation":[
				0.12822401523590088,
				0.17681530117988586,
				0.03435484319925308
			]
		},
		{
			"mesh":10,
			"name":"Cube.016",
			"scale":[
				0.01871500164270401,
				0.009707197546958923,
				9.999999747378752e-05
			],
			"translation":[
				0.1378641277551651,
				0.18173661828041077,
				0.033852338790893555
			]
		},
		{
			"mesh":11,
			"name":"Cube.017",
			"scale":[
				0.0429159514605999,
				0.0010000000474974513,
				0
			],
			"translation":[
				0.07534617185592651,
				0.18123486638069153,
				0.03417340666055679
			]
		}
	],
	"materials":[
		{
			"doubleSided":true,
			"name":"metal.027",
			"pbrMetallicRoughness":{
				"roughnessFactor":0.4833333194255829
			}
		},
		{
			"doubleSided":true,
			"name":"Material.025",
			"pbrMetallicRoughness":{
				"baseColorFactor":[
					0.8000000715255737,
					0.23028378188610077,
					0,
					1
				],
				"metallicFactor":0,
				"roughnessFactor":0.2083333432674408
			}
		},
		{
			"doubleSided":true,
			"name":"glass.012",
			"pbrMetallicRoughness":{
				"baseColorFactor":[
					0.38437479734420776,
					0.3731274902820587,
					0.3731274902820587,
					1
				],
				"metallicFactor":0,
				"roughnessFactor":0
			}
		},
		{
			"doubleSided":true,
			"name":"black plastic.049",
			"pbrMetallicRoughness":{
				"baseColorFactor":[
					0.0056046294048428535,
					0.0056046294048428535,
					0.0056046294048428535,
					1
				],
				"metallicFactor":0,
				"roughnessFactor":0.6166667342185974
			}
		},
		{
			"doubleSided":true,
			"name":"metal.028",
			"pbrMetallicRoughness":{
				"roughnessFactor":0.36060604453086853
			}
		},
		{
			"doubleSided":true,
			"name":"Material.026",
			"pbrMetallicRoughness":{
				"baseColorFactor":[
					0,
					0.021236764267086983,
					0.8000000715255737,
					1
				],
				"metallicFactor":0,
				"roughnessFactor":0.2083333432674408
			}
		},
		{
			"doubleSided":true,
			"name":"black plastic.050",
			"pbrMetallicRoughness":{
				"baseColorFactor":[
					0.0056046294048428535,
					0.0056046294048428535,
					0.0056046294048428535,
					1
				],
				"metallicFactor":0,
				"roughnessFactor":0.6166667342185974
			}
		},
		{
			"doubleSided":true,
			"name":"metal.029",
			"pbrMetallicRoughness":{
				"roughnessFactor":0.4833333194255829
			}
		},
		{
			"doubleSided":true,
			"name":"Material.027",
			"pbrMetallicRoughness":{
				"metallicFactor":0,
				"roughnessFactor":0.2083333432674408
			}
		},
		{
			"doubleSided":true,
			"name":"black plastic.051",
			"pbrMetallicRoughness":{
				"baseColorFactor":[
					0.0056046294048428535,
					0.0056046294048428535,
					0.0056046294048428535,
					1
				],
				"metallicFactor":0,
				"roughnessFactor":0.6166667342185974
			}
		}
	],
	"meshes":[
		{
			"name":"Cylinder.013",
			"primitives":[
				{
					"attributes":{
						"POSITION":0,
						"NORMAL":1,
						"TEXCOORD_0":2
					},
					"indices":3,
					"material":0
				},
				{
					"attributes":{
						"POSITION":4,
						"NORMAL":5,
						"TEXCOORD_0":6
					},
					"indices":7,
					"material":1
				},
				{
					"attributes":{
						"POSITION":8,
						"NORMAL":9,
						"TEXCOORD_0":10
					},
					"indices":11,
					"material":2
				}
			]
		},
		{
			"name":"Text.002",
			"primitives":[
				{
					"attributes":{
						"POSITION":12,
						"NORMAL":13,
						"TEXCOORD_0":14
					},
					"indices":15,
					"material":3
				}
			]
		},
		{
			"name":"Cube.042",
			"primitives":[
				{
					"attributes":{
						"POSITION":16,
						"NORMAL":17,
						"TEXCOORD_0":18
					},
					"indices":19
				}
			]
		},
		{
			"name":"Cube.043",
			"primitives":[
				{
					"attributes":{
						"POSITION":20,
						"NORMAL":21,
						"TEXCOORD_0":22
					},
					"indices":19
				}
			]
		},
		{
			"name":"Cylinder.018",
			"primitives":[
				{
					"attributes":{
						"POSITION":23,
						"NORMAL":24,
						"TEXCOORD_0":25,
						"TEXCOORD_1":26
					},
					"indices":27,
					"material":4
				},
				{
					"attributes":{
						"POSITION":28,
						"NORMAL":29,
						"TEXCOORD_0":30,
						"TEXCOORD_1":31
					},
					"indices":32,
					"material":5
				}
			]
		},
		{
			"name":"Text.001",
			"primitives":[
				{
					"attributes":{
						"POSITION":33,
						"NORMAL":34,
						"TEXCOORD_0":35
					},
					"indices":36,
					"material":6
				}
			]
		},
		{
			"name":"Cube.044",
			"primitives":[
				{
					"attributes":{
						"POSITION":37,
						"NORMAL":38,
						"TEXCOORD_0":39
					},
					"indices":19
				}
			]
		},
		{
			"name":"Cube.045",
			"primitives":[
				{
					"attributes":{
						"POSITION":40,
						"NORMAL":41,
						"TEXCOORD_0":42
					},
					"indices":19
				}
			]
		},
		{
			"name":"Cylinder.019",
			"primitives":[
				{
					"attributes":{
						"POSITION":43,
						"NORMAL":44,
						"TEXCOORD_0":45
					},
					"indices":46,
					"material":7
				},
				{
					"attributes":{
						"POSITION":47,
						"NORMAL":48,
						"TEXCOORD_0":49
					},
					"indices":50,
					"material":8
				}
			]
		},
		{
			"name":"Text.003",
			"primitives":[
				{
					"attributes":{
						"POSITION":51,
						"NORMAL":52,
						"TEXCOORD_0":53
					},
					"indices":54,
					"material":9
				}
			]
		},
		{
			"name":"Cube.046",
			"primitives":[
				{
					"attributes":{
						"POSITION":55,
						"NORMAL":56,
						"TEXCOORD_0":57
					},
					"indices":19
				}
			]
		},
		{
			"name":"Cube.047",
			"primitives":[
				{
					"attributes":{
						"POSITION":58,
						"NORMAL":59,
						"TEXCOORD_0":60
					},
					"indices":19
				}
			]
		}
	],
	"accessors":[
		{
			"bufferView":0,
			"componentType":5126,
			"count":6030,
			"max":[
				0.010291293263435364,
				0.01850000023841858,
				0.010291293263435364
			],
			"min":[
				-0.010291293263435364,
				-0.020071683451533318,
				-0.010291293263435364
			],
			"type":"VEC3"
		},
		{
			"bufferView":1,
			"componentType":5126,
			"count":6030,
			"type":"VEC3"
		},
		{
			"bufferView":2,
			"componentType":5126,
			"count":6030,
			"type":"VEC2"
		},
		{
			"bufferView":3,
			"componentType":5123,
			"count":16698,
			"type":"SCALAR"
		},
		{
			"bufferView":4,
			"componentType":5126,
			"count":132,
			"max":[
				0.009527250193059444,
				0.003973281942307949,
				0.009527250193059444
			],
			"min":[
				-0.009527250193059444,
				0.003006430109962821,
				-0.009527250193059444
			],
			"type":"VEC3"
		},
		{
			"bufferView":5,
			"componentType":5126,
			"count":132,
			"type":"VEC3"
		},
		{
			"bufferView":6,
			"componentType":5126,
			"count":132,
			"type":"VEC2"
		},
		{
			"bufferView":7,
			"componentType":5123,
			"count":384,
			"type":"SCALAR"
		},
		{
			"bufferView":8,
			"componentType":5126,
			"count":80,
			"max":[
				0.003487830050289631,
				-0.018871862441301346,
				0.0034878288861364126
			],
			"min":[
				-0.003487827954813838,
				-0.018871866166591644,
				-0.0034878288861364126
			],
			"type":"VEC3"
		},
		{
			"bufferView":9,
			"componentType":5126,
			"count":80,
			"type":"VEC3"
		},
		{
			"bufferView":10,
			"componentType":5126,
			"count":80,
			"type":"VEC2"
		},
		{
			"bufferView":11,
			"componentType":5123,
			"count":186,
			"type":"SCALAR"
		},
		{
			"bufferView":12,
			"componentType":5126,
			"count":456,
			"max":[
				1.5,
				0.010000000707805157,
				0.009000000543892384
			],
			"min":[
				0.20200000703334808,
				-0.010000000707805157,
				-0.6910000443458557
			],
			"type":"VEC3"
		},
		{
			"bufferView":13,
			"componentType":5126,
			"count":456,
			"type":"VEC3"
		},
		{
			"bufferView":14,
			"componentType":5126,
			"count":456,
			"type":"VEC2"
		},
		{
			"bufferView":15,
			"componentType":5123,
			"count":1320,
			"type":"SCALAR"
		},
		{
			"bufferView":16,
			"componentType":5126,
			"count":24,
			"max":[
				1,
				1,
				1
			],
			"min":[
				-1,
				-1,
				-1
			],
			"type":"VEC3"
		},
		{
			"bufferView":17,
			"componentType":5126,
			"count":24,
			"type":"VEC3"
		},
		{
			"bufferView":18,
			"componentType":5126,
			"count":24,
			"type":"VEC2"
		},
		{
			"bufferView":19,
			"componentType":5123,
			"count":36,
			"type":"SCALAR"
		},
		{
			"bufferView":20,
			"componentType":5126,
			"count":24,
			"max":[
				1,
				1,
				1
			],
			"min":[
				-1,
				-1,
				-1
			],
			"type":"VEC3"
		},
		{
			"bufferView":21,
			"componentType":5126,
			"count":24,
			"type":"VEC3"
		},
		{
			"bufferView":22,
			"componentType":5126,
			"count":24,
			"type":"VEC2"
		},
		{
			"bufferView":23,
			"componentType":5126,
			"count":6193,
			"max":[
				0.010980785824358463,
				0.020500000566244125,
				0.010980785824358463
			],
			"min":[
				-0.010980785824358463,
				-0.02310897782444954,
				-0.010980785824358463
			],
			"type":"VEC3"
		},
		{
			"bufferView":24,
			"componentType":5126,
			"count":6193,
			"type":"VEC3"
		},
		{
			"bufferView":25,
			"componentType":5126,
			"count":6193,
			"type":"VEC2"
		},
		{
			"bufferView":26,
			"componentType":5126,
			"count":6193,
			"type":"VEC2"
		},
		{
			"bufferView":27,
			"componentType":5123,
			"count":15348,
			"type":"SCALAR"
		},
		{
			"bufferView":28,
			"componentType":5126,
			"count":130,
			"max":[
				0.009944374673068523,
				0.0023571790661662817,
				0.009944374673068523
			],
			"min":[
				-0.009944374673068523,
				0.0013936175964772701,
				-0.009944374673068523
			],
			"type":"VEC3"
		},
		{
			"bufferView":29,
			"componentType":5126,
			"count":130,
			"type":"VEC3"
		},
		{
			"bufferView":30,
			"componentType":5126,
			"count":130,
			"type":"VEC2"
		},
		{
			"bufferView":31,
			"componentType":5126,
			"count":130,
			"type":"VEC2"
		},
		{
			"bufferView":32,
			"componentType":5123,
			"count":384,
			"type":"SCALAR"
		},
		{
			"bufferView":33,
			"componentType":5126,
			"count":506,
			"max":[
				1.5,
				0.010000000707805157,
				0.009000000543892384
			],
			"min":[
				0.01100000087171793,
				-0.010000000707805157,
				-0.6910000443458557
			],
			"type":"VEC3"
		},
		{
			"bufferView":34,
			"componentType":5126,
			"count":506,
			"type":"VEC3"
		},
		{
			"bufferView":35,
			"componentType":5126,
			"count":506,
			"type":"VEC2"
		},
		{
			"bufferView":36,
			"componentType":5123,
			"count":1464,
			"type":"SCALAR"
		},
		{
			"bufferView":37,
			"componentType":5126,
			"count":24,
			"max":[
				1,
				1,
				1
			],
			"min":[
				-1,
				-1,
				-1
			],
			"type":"VEC3"
		},
		{
			"bufferView":38,
			"componentType":5126,
			"count":24,
			"type":"VEC3"
		},
		{
			"bufferView":39,
			"componentType":5126,
			"count":24,
			"type":"VEC2"
		},
		{
			"bufferView":40,
			"componentType":5126,
			"count":24,
			"max":[
				1,
				1,
				1
			],
			"min":[
				-1,
				-1,
				-1
			],
			"type":"VEC3"
		},
		{
			"bufferView":41,
			"componentType":5126,
			"count":24,
			"type":"VEC3"
		},
		{
			"bufferView":42,
			"componentType":5126,
			"count":24,
			"type":"VEC2"
		},
		{
			"bufferView":43,
			"componentType":5126,
			"count":5834,
			"max":[
				0.010769831016659737,
				0.020500000566244125,
				0.010769831016659737
			],
			"min":[
				-0.010769831016659737,
				-0.02387024648487568,
				-0.010769831016659737
			],
			"type":"VEC3"
		},
		{
			"bufferView":44,
			"componentType":5126,
			"count":5834,
			"type":"VEC3"
		},
		{
			"bufferView":45,
			"componentType":5126,
			"count":5834,
			"type":"VEC2"
		},
		{
			"bufferView":46,
			"componentType":5123,
			"count":17268,
			"type":"SCALAR"
		},
		{
			"bufferView":47,
			"componentType":5126,
			"count":130,
			"max":[
				0.009901701472699642,
				0.0033239289186894894,
				0.009901701472699642
			],
			"min":[
				-0.009901701472699642,
				0.0023599043488502502,
				-0.009901701472699642
			],
			"type":"VEC3"
		},
		{
			"bufferView":48,
			"componentType":5126,
			"count":130,
			"type":"VEC3"
		},
		{
			"bufferView":49,
			"componentType":5126,
			"count":130,
			"type":"VEC2"
		},
		{
			"bufferView":50,
			"componentType":5123,
			"count":384,
			"type":"SCALAR"
		},
		{
			"bufferView":51,
			"componentType":5126,
			"count":844,
			"max":[
				2,
				0.010000000707805157,
				0.009000000543892384
			],
			"min":[
				0.20200000703334808,
				-0.010000000707805157,
				-0.6910000443458557
			],
			"type":"VEC3"
		},
		{
			"bufferView":52,
			"componentType":5126,
			"count":844,
			"type":"VEC3"
		},
		{
			"bufferView":53,
			"componentType":5126,
			"count":844,
			"type":"VEC2"
		},
		{
			"bufferView":54,
			"componentType":5123,
			"count":2472,
			"type":"SCALAR"
		},
		{
			"bufferView":55,
			"componentType":5126,
			"count":24,
			"max":[
				1,
				1,
				1
			],
			"min":[
				-1,
				-1,
				-1
			],
			"type":"VEC3"
		},
		{
			"bufferView":56,
			"componentType":5126,
			"count":24,
			"type":"VEC3"
		},
		{
			"bufferView":57,
			"componentType":5126,
			"count":24,
			"type":"VEC2"
		},
		{
			"bufferView":58,
			"componentType":5126,
			"count":24,
			"max":[
				1,
				1,
				1
			],
			"min":[
				-1,
				-1,
				-1
			],
			"type":"VEC3"
		},
		{
			"bufferView":59,
			"componentType":5126,
			"count":24,
			"type":"VEC3"
		},
		{
			"bufferView":60,
			"componentType":5126,
			"count":24,
			"type":"VEC2"
		}
	],
	"bufferViews":[
		{
			"buffer":0,
			"byteLength":72360,
			"byteOffset":0,
			"target":34962
		},
		{
			"buffer":0,
			"byteLength":72360,
			"byteOffset":72360,
			"target":34962
		},
		{
			"buffer":0,
			"byteLength":48240,
			"byteOffset":144720,
			"target":34962
		},
		{
			"buffer":0,
			"byteLength":33396,
			"byteOffset":192960,
			"target":34963
		},
		{
			"buffer":0,
			"byteLength":1584,
			"byteOffset":226356,
			"target":34962
		},
		{
			"buffer":0,
			"byteLength":1584,
			"byteOffset":227940,
			"target":34962
		},
		{
			"buffer":0,
			"byteLength":1056,
			"byteOffset":229524,
			"target":34962
		},
		{
			"buffer":0,
			"byteLength":768,
			"byteOffset":230580,
			"target":34963
		},
		{
			"buffer":0,
			"byteLength":960,
			"byteOffset":231348,
			"target":34962
		},
		{
			"buffer":0,
			"byteLength":960,
			"byteOffset":232308,
			"target":34962
		},
		{
			"buffer":0,
			"byteLength":640,
			"byteOffset":233268,
			"target":34962
		},
		{
			"buffer":0,
			"byteLength":372,
			"byteOffset":233908,
			"target":34963
		},
		{
			"buffer":0,
			"byteLength":5472,
			"byteOffset":234280,
			"target":34962
		},
		{
			"buffer":0,
			"byteLength":5472,
			"byteOffset":239752,
			"target":34962
		},
		{
			"buffer":0,
			"byteLength":3648,
			"byteOffset":245224,
			"target":34962
		},
		{
			"buffer":0,
			"byteLength":2640,
			"byteOffset":248872,
			"target":34963
		},
		{
			"buffer":0,
			"byteLength":288,
			"byteOffset":251512,
			"target":34962
		},
		{
			"buffer":0,
			"byteLength":288,
			"byteOffset":251800,
			"target":34962
		},
		{
			"buffer":0,
			"byteLength":192,
			"byteOffset":252088,
			"target":34962
		},
		{
			"buffer":0,
			"byteLength":72,
			"byteOffset":252280,
			"target":34963
		},
		{
			"buffer":0,
			"byteLength":288,
			"byteOffset":252352,
			"target":34962
		},
		{
			"buffer":0,
			"byteLength":288,
			"byteOffset":252640,
			"target":34962
		},
		{
			"buffer":0,
			"byteLength":192,
			"byteOffset":252928,
			"target":34962
		},
		{
			"buffer":0,
			"byteLength":74316,
			"byteOffset":253120,
			"target":34962
		},
		{
			"buffer":0,
			"byteLength":74316,
			"byteOffset":327436,
			"target":34962
		},
		{
			"buffer":0,
			"byteLength":49544,
			"byteOffset":401752,
			"target":34962
		},
		{
			"buffer":0,
			"byteLength":49544,
			"byteOffset":451296,
			"target":34962
		},
		{
			"buffer":0,
			"byteLength":30696,
			"byteOffset":500840,
			"target":34963
		},
		{
			"buffer":0,
			"byteLength":1560,
			"byteOffset":531536,
			"target":34962
		},
		{
			"buffer":0,
			"byteLength":1560,
			"byteOffset":533096,
			"target":34962
		},
		{
			"buffer":0,
			"byteLength":1040,
			"byteOffset":534656,
			"target":34962
		},
		{
			"buffer":0,
			"byteLength":1040,
			"byteOffset":535696,
			"target":34962
		},
		{
			"buffer":0,
			"byteLength":768,
			"byteOffset":536736,
			"target":34963
		},
		{
			"buffer":0,
			"byteLength":6072,
			"byteOffset":537504,
			"target":34962
		},
		{
			"buffer":0,
			"byteLength":6072,
			"byteOffset":543576,
			"target":34962
		},
		{
			"buffer":0,
			"byteLength":4048,
			"byteOffset":549648,
			"target":34962
		},
		{
			"buffer":0,
			"byteLength":2928,
			"byteOffset":553696,
			"target":34963
		},
		{
			"buffer":0,
			"byteLength":288,
			"byteOffset":556624,
			"target":34962
		},
		{
			"buffer":0,
			"byteLength":288,
			"byteOffset":556912,
			"target":34962
		},
		{
			"buffer":0,
			"byteLength":192,
			"byteOffset":557200,
			"target":34962
		},
		{
			"buffer":0,
			"byteLength":288,
			"byteOffset":557392,
			"target":34962
		},
		{
			"buffer":0,
			"byteLength":288,
			"byteOffset":557680,
			"target":34962
		},
		{
			"buffer":0,
			"byteLength":192,
			"byteOffset":557968,
			"target":34962
		},
		{
			"buffer":0,
			"byteLength":70008,
			"byteOffset":558160,
			"target":34962
		},
		{
			"buffer":0,
			"byteLength":70008,
			"byteOffset":628168,
			"target":34962
		},
		{
			"buffer":0,
			"byteLength":46672,
			"byteOffset":698176,
			"target":34962
		},
		{
			"buffer":0,
			"byteLength":34536,
			"byteOffset":744848,
			"target":34963
		},
		{
			"buffer":0,
			"byteLength":1560,
			"byteOffset":779384,
			"target":34962
		},
		{
			"buffer":0,
			"byteLength":1560,
			"byteOffset":780944,
			"target":34962
		},
		{
			"buffer":0,
			"byteLength":1040,
			"byteOffset":782504,
			"target":34962
		},
		{
			"buffer":0,
			"byteLength":768,
			"byteOffset":783544,
			"target":34963
		},
		{
			"buffer":0,
			"byteLength":10128,
			"byteOffset":784312,
			"target":34962
		},
		{
			"buffer":0,
			"byteLength":10128,
			"byteOffset":794440,
			"target":34962
		},
		{
			"buffer":0,
			"byteLength":6752,
			"byteOffset":804568,
			"target":34962
		},
		{
			"buffer":0,
			"byteLength":4944,
			"byteOffset":811320,
			"target":34963
		},
		{
			"buffer":0,
			"byteLength":288,
			"byteOffset":816264,
			"target":34962
		},
		{
			"buffer":0,
			"byteLength":288,
			"byteOffset":816552,
			"target":34962
		},
		{
			"buffer":0,
			"byteLength":192,
			"byteOffset":816840,
			"target":34962
		},
		{
			"buffer":0,
			"byteLength":288,
			"byteOffset":817032,
			"target":34962
		},
		{
			"buffer":0,
			"byteLength":288,
			"byteOffset":817320,
			"target":34962
		},
		{
			"buffer":0,
			"byteLength":192,
			"byteOffset":817608,
			"target":34962
		}
	],
	"buffers":[
		{
			"byteLength":817800,
			"uri":"objective3.bin"
		}
	]
}
