{
	"asset":{
		"generator":"Khronos glTF Blender I/O v3.6.27",
		"version":"2.0"
	},
	"scene":0,
	"scenes":[
		{
			"name":"Scene",
			"nodes":[
				0,
				1,
				2,
				3,
				4,
				5,
				6
			]
		}
	],
	"nodes":[
		{
			"mesh":0,
			"name":"4x",
			"translation":[
				0,
				0.20381410419940948,
				0.01805155538022518
			]
		},
		{
			"mesh":1,
			"name":"40x",
			"rotation":[
				-0.15030543506145477,
				0,
				0,
				0.9886397123336792
			],
			"translation":[
				0,
				0.20257683098316193,
				0.055223770439624786
			]
		},
		{
			"mesh":2,
			"name":"10x",
			"rotation":[
				-0.059936266392469406,
				0.010082121007144451,
				-0.09488498419523239,
				0.99363112449646
			],
			"translation":[
				-0.0196746364235878,
				0.20124287903308868,
				0.03376791626214981
			]
		},
		{
			"mesh":3,
			"name":"100x",
			"rotation":[
				-0.06473425030708313,
				0.007583487778902054,
				0.08920601010322571,
				0.9938784837722778
			],
			"translation":[
				0.01931070163846016,
				0.19942279160022736,
				0.03537203371524811
			]
		},
		{
			"mesh":4,
			"name":"Text.008",
			"rotation":[
				0.70710688829422,
				0,
				0,
				0.7071066498756409
			],
			"scale":[
				0.011089053936302662,
				0.024601411074399948,
				0.013473321683704853
			],
			"translation":[
				0.08876682072877884,
				0.18280155956745148,
				0.061841607093811035
			]
		},
		{
			"mesh":5,
			"name":"Cube.016",
			"scale":[
				0.05641932785511017,
				0.009707197546958923,
				9.999999747378752e-05
			],
			"translation":[
				0.1348271518945694,
				0.18772287666797638,
				0.06133910268545151
			]
		},
		{
			"mesh":6,
			"name":"Cube.017",
			"scale":[
				0.0429159514605999,
				0.0010000000474974513,
				0
			],
			"translation":[
				0.035888977348804474,
				0.18722112476825714,
				0.061660170555114746
			]
		}
	],
	"materials":[
		{
			"doubleSided":true,
			"name":"metal.013",
			"pbrMetallicRoughness":{
				"roughnessFactor":0.4833333194255829
			}
		},
		{
			"doubleSided":true,
			"name":"Material.012",
			"pbrMetallicRoughness":{
				"baseColorFactor":[
					0.8000000715255737,
					0,
					0.0008169133216142654,
					1
				],
				"metallicFactor":0,
				"roughnessFactor":0.2083333432674408
			}
		},
		{
			"doubleSided":true,
			"name":"glass.005",
			"pbrMetallicRoughness":{
				"baseColorFactor":[
					0.38437479734420776,
					0.3731274902820587,
					0.3731274902820587,
					1
				],
				"metallicFactor":0,
				"roughnessFactor":0
			}
		},
		{
			"doubleSided":true,
			"name":"metal.014",
			"pbrMetallicRoughness":{
				"roughnessFactor":0.36060604453086853
			}
		},
		{
			"doubleSided":true,
			"name":"Material.013",
			"pbrMetallicRoughness":{
				"baseColorFactor":[
					0,
					0.021236764267086983,
					0.8000000715255737,
					1
				],
				"metallicFactor":0,
				"roughnessFactor":0.2083333432674408
			}
		},
		{
			"doubleSided":true,
			"name":"metal.015",
			"pbrMetallicRoughness":{
				"roughnessFactor":0.4833333194255829
			}
		},
		{
			"doubleSided":true,
			"name":"Material.014",
			"pbrMetallicRoughness":{
				"baseColorFactor":[
					0.8000000715255737,
					0.23028378188610077,
					0,
					1
				],
				"metallicFactor":0,
				"roughnessFactor":0.2083333432674408
			}
		},
		{
			"doubleSided":true,
			"name":"glass.006",
			"pbrMetallicRoughness":{
				"baseColorFactor":[
					0.38437479734420776,
					0.3731274902820587,
					0.3731274902820587,
					1
				],
				"metallicFactor":0,
				"roughnessFactor":0
			}
		},
		{
			"doubleSided":true,
			"name":"Material.015",
			"pbrMetallicRoughness":{
				"metallicFactor":0,
				"roughnessFactor":0.2083333432674408
			}
		},
		{
			"doubleSided":true,
			"name":"black plastic.028",
			"pbrMetallicRoughness":{
				"baseColorFactor":[
					0.0056046294048428535,
					0.0056046294048428535,
					0.0056046294048428535,
					1
				],
				"metallicFactor":0,
				"roughnessFactor":0.6166667342185974
			}
		}
	],
	"meshes":[
		{
			"name":"Cylinder.025",
			"primitives":[
				{
					"attributes":{
						"POSITION":0,
						"NORMAL":1,
						"TEXCOORD_0":2
					},
					"indices":3,
					"material":0
				},
				{
					"attributes":{
						"POSITION":4,
						"NORMAL":5,
						"TEXCOORD_0":6
					},
					"indices":7,
					"material":1
				},
				{
					"attributes":{
						"POSITION":8,
						"NORMAL":9,
						"TEXCOORD_0":10
					},
					"indices":11,
					"material":2
				}
			]
		},
		{
			"name":"Cylinder.026",
			"primitives":[
				{
					"attributes":{
						"POSITION":12,
						"NORMAL":13,
						"TEXCOORD_0":14,
						"TEXCOORD_1":15
					},
					"indices":16,
					"material":3
				},
				{
					"attributes":{
						"POSITION":17,
						"NORMAL":18,
						"TEXCOORD_0":19,
						"TEXCOORD_1":20
					},
					"indices":21,
					"material":4
				}
			]
		},
		{
			"name":"Cylinder.027",
			"primitives":[
				{
					"attributes":{
						"POSITION":22,
						"NORMAL":23,
						"TEXCOORD_0":24
					},
					"indices":25,
					"material":5
				},
				{
					"attributes":{
						"POSITION":26,
						"NORMAL":27,
						"TEXCOORD_0":28
					},
					"indices":29,
					"material":6
				},
				{
					"attributes":{
						"POSITION":30,
						"NORMAL":31,
						"TEXCOORD_0":32
					},
					"indices":33,
					"material":7
				}
			]
		},
		{
			"name":"Cylinder.028",
			"primitives":[
				{
					"attributes":{
						"POSITION":34,
						"NORMAL":35,
						"TEXCOORD_0":36
					},
					"indices":37,
					"material":5
				},
				{
					"attributes":{
						"POSITION":38,
						"NORMAL":39,
						"TEXCOORD_0":40
					},
					"indices":41,
					"material":8
				}
			]
		},
		{
			"name":"Text.008",
			"primitives":[
				{
					"attributes":{
						"POSITION":42,
						"NORMAL":43,
						"TEXCOORD_0":44
					},
					"indices":45,
					"material":9
				}
			]
		},
		{
			"name":"Cube.059",
			"primitives":[
				{
					"attributes":{
						"POSITION":46,
						"NORMAL":47,
						"TEXCOORD_0":48
					},
					"indices":49
				}
			]
		},
		{
			"name":"Cube.060",
			"primitives":[
				{
					"attributes":{
						"POSITION":50,
						"NORMAL":51,
						"TEXCOORD_0":52
					},
					"indices":49
				}
			]
		}
	],
	"accessors":[
		{
			"bufferView":0,
			"componentType":5126,
			"count":2377,
			"max":[
				0.009662123396992683,
				0.013000000268220901,
				0.009662123396992683
			],
			"min":[
				-0.009662123396992683,
				-0.013000000268220901,
				-0.009662123396992683
			],
			"type":"VEC3"
		},
		{
			"bufferView":1,
			"componentType":5126,
			"count":2377,
			"type":"VEC3"
		},
		{
			"bufferView":2,
			"componentType":5126,
			"count":2377,
			"type":"VEC2"
		},
		{
			"bufferView":3,
			"componentType":5123,
			"count":7098,
			"type":"SCALAR"
		},
		{
			"bufferView":4,
			"componentType":5126,
			"count":154,
			"max":[
				0.009351932443678379,
				0.004474494606256485,
				0.009351932443678379
			],
			"min":[
				-0.009351932443678379,
				0.003508908674120903,
				-0.009351932443678379
			],
			"type":"VEC3"
		},
		{
			"bufferView":5,
			"componentType":5126,
			"count":154,
			"type":"VEC3"
		},
		{
			"bufferView":6,
			"componentType":5126,
			"count":154,
			"type":"VEC2"
		},
		{
			"bufferView":7,
			"componentType":5123,
			"count":384,
			"type":"SCALAR"
		},
		{
			"bufferView":8,
			"componentType":5126,
			"count":81,
			"max":[
				0.003079392481595278,
				-0.009680964052677155,
				0.003079392481595278
			],
			"min":[
				-0.0030793906189501286,
				-0.009680966846644878,
				-0.003079391550272703
			],
			"type":"VEC3"
		},
		{
			"bufferView":9,
			"componentType":5126,
			"count":81,
			"type":"VEC3"
		},
		{
			"bufferView":10,
			"componentType":5126,
			"count":81,
			"type":"VEC2"
		},
		{
			"bufferView":11,
			"componentType":5123,
			"count":186,
			"type":"SCALAR"
		},
		{
			"bufferView":12,
			"componentType":5126,
			"count":6192,
			"max":[
				0.010980785824358463,
				0.020500000566244125,
				0.010980785824358463
			],
			"min":[
				-0.010980785824358463,
				-0.02310897782444954,
				-0.010980785824358463
			],
			"type":"VEC3"
		},
		{
			"bufferView":13,
			"componentType":5126,
			"count":6192,
			"type":"VEC3"
		},
		{
			"bufferView":14,
			"componentType":5126,
			"count":6192,
			"type":"VEC2"
		},
		{
			"bufferView":15,
			"componentType":5126,
			"count":6192,
			"type":"VEC2"
		},
		{
			"bufferView":16,
			"componentType":5123,
			"count":15348,
			"type":"SCALAR"
		},
		{
			"bufferView":17,
			"componentType":5126,
			"count":130,
			"max":[
				0.009944374673068523,
				0.0023571790661662817,
				0.009944374673068523
			],
			"min":[
				-0.009944374673068523,
				0.0013936175964772701,
				-0.009944374673068523
			],
			"type":"VEC3"
		},
		{
			"bufferView":18,
			"componentType":5126,
			"count":130,
			"type":"VEC3"
		},
		{
			"bufferView":19,
			"componentType":5126,
			"count":130,
			"type":"VEC2"
		},
		{
			"bufferView":20,
			"componentType":5126,
			"count":130,
			"type":"VEC2"
		},
		{
			"bufferView":21,
			"componentType":5123,
			"count":384,
			"type":"SCALAR"
		},
		{
			"bufferView":22,
			"componentType":5126,
			"count":6030,
			"max":[
				0.010291293263435364,
				0.01850000023841858,
				0.010291293263435364
			],
			"min":[
				-0.010291293263435364,
				-0.020071683451533318,
				-0.010291293263435364
			],
			"type":"VEC3"
		},
		{
			"bufferView":23,
			"componentType":5126,
			"count":6030,
			"type":"VEC3"
		},
		{
			"bufferView":24,
			"componentType":5126,
			"count":6030,
			"type":"VEC2"
		},
		{
			"bufferView":25,
			"componentType":5123,
			"count":16698,
			"type":"SCALAR"
		},
		{
			"bufferView":26,
			"componentType":5126,
			"count":132,
			"max":[
				0.009527250193059444,
				0.003973281942307949,
				0.009527250193059444
			],
			"min":[
				-0.009527250193059444,
				0.003006430109962821,
				-0.009527250193059444
			],
			"type":"VEC3"
		},
		{
			"bufferView":27,
			"componentType":5126,
			"count":132,
			"type":"VEC3"
		},
		{
			"bufferView":28,
			"componentType":5126,
			"count":132,
			"type":"VEC2"
		},
		{
			"bufferView":29,
			"componentType":5123,
			"count":384,
			"type":"SCALAR"
		},
		{
			"bufferView":30,
			"componentType":5126,
			"count":80,
			"max":[
				0.003487830050289631,
				-0.018871862441301346,
				0.0034878288861364126
			],
			"min":[
				-0.003487827954813838,
				-0.018871866166591644,
				-0.0034878288861364126
			],
			"type":"VEC3"
		},
		{
			"bufferView":31,
			"componentType":5126,
			"count":80,
			"type":"VEC3"
		},
		{
			"bufferView":32,
			"componentType":5126,
			"count":80,
			"type":"VEC2"
		},
		{
			"bufferView":33,
			"componentType":5123,
			"count":186,
			"type":"SCALAR"
		},
		{
			"bufferView":34,
			"componentType":5126,
			"count":5832,
			"max":[
				0.010769831016659737,
				0.020500000566244125,
				0.010769831016659737
			],
			"min":[
				-0.010769831016659737,
				-0.02387024648487568,
				-0.010769831016659737
			],
			"type":"VEC3"
		},
		{
			"bufferView":35,
			"componentType":5126,
			"count":5832,
			"type":"VEC3"
		},
		{
			"bufferView":36,
			"componentType":5126,
			"count":5832,
			"type":"VEC2"
		},
		{
			"bufferView":37,
			"componentType":5123,
			"count":17268,
			"type":"SCALAR"
		},
		{
			"bufferView":38,
			"componentType":5126,
			"count":130,
			"max":[
				0.009901701472699642,
				0.0033239289186894894,
				0.009901701472699642
			],
			"min":[
				-0.009901701472699642,
				0.0023599043488502502,
				-0.009901701472699642
			],
			"type":"VEC3"
		},
		{
			"bufferView":39,
			"componentType":5126,
			"count":130,
			"type":"VEC3"
		},
		{
			"bufferView":40,
			"componentType":5126,
			"count":130,
			"type":"VEC2"
		},
		{
			"bufferView":41,
			"componentType":5123,
			"count":384,
			"type":"SCALAR"
		},
		{
			"bufferView":42,
			"componentType":5126,
			"count":2712,
			"max":[
				8.234999656677246,
				0.010000000707805157,
				0.23000000417232513
			],
			"min":[
				0.04500000178813934,
				-0.010000000707805157,
				-0.6910000443458557
			],
			"type":"VEC3"
		},
		{
			"bufferView":43,
			"componentType":5126,
			"count":2712,
			"type":"VEC3"
		},
		{
			"bufferView":44,
			"componentType":5126,
			"count":2712,
			"type":"VEC2"
		},
		{
			"bufferView":45,
			"componentType":5123,
			"count":7872,
			"type":"SCALAR"
		},
		{
			"bufferView":46,
			"componentType":5126,
			"count":24,
			"max":[
				1,
				1,
				1
			],
			"min":[
				-1,
				-1,
				-1
			],
			"type":"VEC3"
		},
		{
			"bufferView":47,
			"componentType":5126,
			"count":24,
			"type":"VEC3"
		},
		{
			"bufferView":48,
			"componentType":5126,
			"count":24,
			"type":"VEC2"
		},
		{
			"bufferView":49,
			"componentType":5123,
			"count":36,
			"type":"SCALAR"
		},
		{
			"bufferView":50,
			"componentType":5126,
			"count":24,
			"max":[
				1,
				1,
				1
			],
			"min":[
				-1,
				-1,
				-1
			],
			"type":"VEC3"
		},
		{
			"bufferView":51,
			"componentType":5126,
			"count":24,
			"type":"VEC3"
		},
		{
			"bufferView":52,
			"componentType":5126,
			"count":24,
			"type":"VEC2"
		}
	],
	"bufferViews":[
		{
			"buffer":0,
			"byteLength":28524,
			"byteOffset":0,
			"target":34962
		},
		{
			"buffer":0,
			"byteLength":28524,
			"byteOffset":28524,
			"target":34962
		},
		{
			"buffer":0,
			"byteLength":19016,
			"byteOffset":57048,
			"target":34962
		},
		{
			"buffer":0,
			"byteLength":14196,
			"byteOffset":76064,
			"target":34963
		},
		{
			"buffer":0,
			"byteLength":1848,
			"byteOffset":90260,
			"target":34962
		},
		{
			"buffer":0,
			"byteLength":1848,
			"byteOffset":92108,
			"target":34962
		},
		{
			"buffer":0,
			"byteLength":1232,
			"byteOffset":93956,
			"target":34962
		},
		{
			"buffer":0,
			"byteLength":768,
			"byteOffset":95188,
			"target":34963
		},
		{
			"buffer":0,
			"byteLength":972,
			"byteOffset":95956,
			"target":34962
		},
		{
			"buffer":0,
			"byteLength":972,
			"byteOffset":96928,
			"target":34962
		},
		{
			"buffer":0,
			"byteLength":648,
			"byteOffset":97900,
			"target":34962
		},
		{
			"buffer":0,
			"byteLength":372,
			"byteOffset":98548,
			"target":34963
		},
		{
			"buffer":0,
			"byteLength":74304,
			"byteOffset":98920,
			"target":34962
		},
		{
			"buffer":0,
			"byteLength":74304,
			"byteOffset":173224,
			"target":34962
		},
		{
			"buffer":0,
			"byteLength":49536,
			"byteOffset":247528,
			"target":34962
		},
		{
			"buffer":0,
			"byteLength":49536,
			"byteOffset":297064,
			"target":34962
		},
		{
			"buffer":0,
			"byteLength":30696,
			"byteOffset":346600,
			"target":34963
		},
		{
			"buffer":0,
			"byteLength":1560,
			"byteOffset":377296,
			"target":34962
		},
		{
			"buffer":0,
			"byteLength":1560,
			"byteOffset":378856,
			"target":34962
		},
		{
			"buffer":0,
			"byteLength":1040,
			"byteOffset":380416,
			"target":34962
		},
		{
			"buffer":0,
			"byteLength":1040,
			"byteOffset":381456,
			"target":34962
		},
		{
			"buffer":0,
			"byteLength":768,
			"byteOffset":382496,
			"target":34963
		},
		{
			"buffer":0,
			"byteLength":72360,
			"byteOffset":383264,
			"target":34962
		},
		{
			"buffer":0,
			"byteLength":72360,
			"byteOffset":455624,
			"target":34962
		},
		{
			"buffer":0,
			"byteLength":48240,
			"byteOffset":527984,
			"target":34962
		},
		{
			"buffer":0,
			"byteLength":33396,
			"byteOffset":576224,
			"target":34963
		},
		{
			"buffer":0,
			"byteLength":1584,
			"byteOffset":609620,
			"target":34962
		},
		{
			"buffer":0,
			"byteLength":1584,
			"byteOffset":611204,
			"target":34962
		},
		{
			"buffer":0,
			"byteLength":1056,
			"byteOffset":612788,
			"target":34962
		},
		{
			"buffer":0,
			"byteLength":768,
			"byteOffset":613844,
			"target":34963
		},
		{
			"buffer":0,
			"byteLength":960,
			"byteOffset":614612,
			"target":34962
		},
		{
			"buffer":0,
			"byteLength":960,
			"byteOffset":615572,
			"target":34962
		},
		{
			"buffer":0,
			"byteLength":640,
			"byteOffset":616532,
			"target":34962
		},
		{
			"buffer":0,
			"byteLength":372,
			"byteOffset":617172,
			"target":34963
		},
		{
			"buffer":0,
			"byteLength":69984,
			"byteOffset":617544,
			"target":34962
		},
		{
			"buffer":0,
			"byteLength":69984,
			"byteOffset":687528,
			"target":34962
		},
		{
			"buffer":0,
			"byteLength":46656,
			"byteOffset":757512,
			"target":34962
		},
		{
			"buffer":0,
			"byteLength":34536,
			"byteOffset":804168,
			"target":34963
		},
		{
			"buffer":0,
			"byteLength":1560,
			"byteOffset":838704,
			"target":34962
		},
		{
			"buffer":0,
			"byteLength":1560,
			"byteOffset":840264,
			"target":34962
		},
		{
			"buffer":0,
			"byteLength":1040,
			"byteOffset":841824,
			"target":34962
		},
		{
			"buffer":0,
			"byteLength":768,
			"byteOffset":842864,
			"target":34963
		},
		{
			"buffer":0,
			"byteLength":32544,
			"byteOffset":843632,
			"target":34962
		},
		{
			"buffer":0,
			"byteLength":32544,
			"byteOffset":876176,
			"target":34962
		},
		{
			"buffer":0,
			"byteLength":21696,
			"byteOffset":908720,
			"target":34962
		},
		{
			"buffer":0,
			"byteLength":15744,
			"byteOffset":930416,
			"target":34963
		},
		{
			"buffer":0,
			"byteLength":288,
			"byteOffset":946160,
			"target":34962
		},
		{
			"buffer":0,
			"byteLength":288,
			"byteOffset":946448,
			"target":34962
		},
		{
			"buffer":0,
			"byteLength":192,
			"byteOffset":946736,
			"target":34962
		},
		{
			"buffer":0,
			"byteLength":72,
			"byteOffset":946928,
			"target":34963
		},
		{
			"buffer":0,
			"byteLength":288,
			"byteOffset":947000,
			"target":34962
		},
		{
			"buffer":0,
			"byteLength":288,
			"byteOffset":947288,
			"target":34962
		},
		{
			"buffer":0,
			"byteLength":192,
			"byteOffset":947576,
			"target":34962
		}
	],
	"buffers":[
		{
			"byteLength":947768,
			"uri":"objective1.bin"
		}
	]
}
