{
	"asset":{
		"generator":"Khronos glTF Blender I/O v3.6.27",
		"version":"2.0"
	},
	"scene":0,
	"scenes":[
		{
			"name":"Scene",
			"nodes":[
				0,
				1,
				2,
				3,
				4,
				5,
				6
			]
		}
	],
	"nodes":[
		{
			"mesh":0,
			"name":"4x",
			"translation":[
				0,
				0.20381410419940948,
				0.01805155538022518
			]
		},
		{
			"mesh":1,
			"name":"40x",
			"rotation":[
				-0.15030543506145477,
				0,
				0,
				0.9886397123336792
			],
			"translation":[
				0,
				0.20257683098316193,
				0.055223770439624786
			]
		},
		{
			"mesh":2,
			"name":"10x",
			"rotation":[
				-0.05993626266717911,
				0.010082120075821877,
				-0.09488498419523239,
				0.99363112449646
			],
			"translation":[
				-0.0196746364235878,
				0.20124287903308868,
				0.03376791626214981
			]
		},
		{
			"mesh":3,
			"name":"100x",
			"rotation":[
				-0.06473426520824432,
				0.007583489175885916,
				0.0892060250043869,
				0.9938784837722778
			],
			"translation":[
				0.01931070163846016,
				0.19942279160022736,
				0.03537203371524811
			]
		},
		{
			"mesh":4,
			"name":"Text.008",
			"rotation":[
				0.70710688829422,
				0,
				0,
				0.7071066498756409
			],
			"scale":[
				0.011089053936302662,
				0.0246014092117548,
				0.013473320752382278
			],
			"translation":[
				0.08876682072877884,
				0.18280155956745148,
				0.061841607093811035
			]
		},
		{
			"mesh":5,
			"name":"Cube.016",
			"scale":[
				0.05641932785511017,
				0.009707197546958923,
				9.999999747378752e-05
			],
			"translation":[
				0.1348271518945694,
				0.18772287666797638,
				0.06133910268545151
			]
		},
		{
			"mesh":6,
			"name":"Cube.017",
			"scale":[
				0.0429159514605999,
				0.0010000000474974513,
				0
			],
			"translation":[
				0.035888977348804474,
				0.18722112476825714,
				0.061660170555114746
			]
		}
	],
	"materials":[
		{
			"doubleSided":true,
			"name":"Material.012",
			"pbrMetallicRoughness":{
				"baseColorFactor":[
					0.8000000715255737,
					0,
					0.0008169133216142654,
					1
				],
				"metallicFactor":0,
				"roughnessFactor":0.2083333432674408
			}
		},
		{
			"doubleSided":true,
			"name":"glass.005",
			"pbrMetallicRoughness":{
				"baseColorFactor":[
					0.38437479734420776,
					0.3731274902820587,
					0.3731274902820587,
					1
				],
				"metallicFactor":0,
				"roughnessFactor":0
			}
		},
		{
			"doubleSided":true,
			"name":"Material.013",
			"pbrMetallicRoughness":{
				"baseColorFactor":[
					0,
					0.021236764267086983,
					0.8000000715255737,
					1
				],
				"metallicFactor":0,
				"roughnessFactor":0.2083333432674408
			}
		},
		{
			"doubleSided":true,
			"name":"Material.014",
			"pbrMetallicRoughness":{
				"baseColorFactor":[
					0.8000000715255737,
					0.23028378188610077,
					0,
					1
				],
				"metallicFactor":0,
				"roughnessFactor":0.2083333432674408
			}
		},
		{
			"doubleSided":true,
			"name":"glass.006",
			"pbrMetallicRoughness":{
				"baseColorFactor":[
					0.38437479734420776,
					0.3731274902820587,
					0.3731274902820587,
					1
				],
				"metallicFactor":0,
				"roughnessFactor":0
			}
		},
		{
			"doubleSided":true,
			"name":"Material.015",
			"pbrMetallicRoughness":{
				"metallicFactor":0,
				"roughnessFactor":0.2083333432674408
			}
		},
		{
			"doubleSided":true,
			"name":"black plastic.028",
			"pbrMetallicRoughness":{
				"baseColorFactor":[
					0.0056046294048428535,
					0.0056046294048428535,
					0.0056046294048428535,
					1
				],
				"metallicFactor":0,
				"roughnessFactor":0.6166667342185974
			}
		}
	],
	"meshes":[
		{
			"name":"Cylinder.025",
			"primitives":[
				{
					"attributes":{
						"POSITION":0,
						"NORMAL":1,
						"TEXCOORD_0":2
					},
					"indices":3,
					"material":0
				},
				{
					"attributes":{
						"POSITION":4,
						"NORMAL":5,
						"TEXCOORD_0":6
					},
					"indices":7,
					"material":1
				}
			]
		},
		{
			"name":"Cylinder.026",
			"primitives":[
				{
					"attributes":{
						"POSITION":8,
						"NORMAL":9,
						"TEXCOORD_0":10,
						"TEXCOORD_1":11
					},
					"indices":12,
					"material":2
				}
			]
		},
		{
			"name":"Cylinder.027",
			"primitives":[
				{
					"attributes":{
						"POSITION":13,
						"NORMAL":14,
						"TEXCOORD_0":15
					},
					"indices":16,
					"material":3
				},
				{
					"attributes":{
						"POSITION":17,
						"NORMAL":18,
						"TEXCOORD_0":19
					},
					"indices":20,
					"material":4
				}
			]
		},
		{
			"name":"Cylinder.028",
			"primitives":[
				{
					"attributes":{
						"POSITION":21,
						"NORMAL":22,
						"TEXCOORD_0":23
					},
					"indices":24,
					"material":5
				}
			]
		},
		{
			"name":"Text.008",
			"primitives":[
				{
					"attributes":{
						"POSITION":25,
						"NORMAL":26,
						"TEXCOORD_0":27
					},
					"indices":28,
					"material":6
				}
			]
		},
		{
			"name":"Cube.059",
			"primitives":[
				{
					"attributes":{
						"POSITION":29,
						"NORMAL":30,
						"TEXCOORD_0":31
					},
					"indices":32
				}
			]
		},
		{
			"name":"Cube.060",
			"primitives":[
				{
					"attributes":{
						"POSITION":33,
						"NORMAL":34,
						"TEXCOORD_0":35
					},
					"indices":32
				}
			]
		}
	],
	"accessors":[
		{
			"bufferView":0,
			"componentType":5126,
			"count":2531,
			"max":[
				0.009662123396992683,
				0.013000000268220901,
				0.009662123396992683
			],
			"min":[
				-0.009662123396992683,
				-0.013000000268220901,
				-0.009662123396992683
			],
			"type":"VEC3"
		},
		{
			"bufferView":1,
			"componentType":5126,
			"count":2531,
			"type":"VEC3"
		},
		{
			"bufferView":2,
			"componentType":5126,
			"count":2531,
			"type":"VEC2"
		},
		{
			"bufferView":3,
			"componentType":5123,
			"count":7482,
			"type":"SCALAR"
		},
		{
			"bufferView":4,
			"componentType":5126,
			"count":81,
			"max":[
				0.003079392481595278,
				-0.009680964052677155,
				0.003079392481595278
			],
			"min":[
				-0.0030793906189501286,
				-0.009680966846644878,
				-0.003079391550272703
			],
			"type":"VEC3"
		},
		{
			"bufferView":5,
			"componentType":5126,
			"count":81,
			"type":"VEC3"
		},
		{
			"bufferView":6,
			"componentType":5126,
			"count":81,
			"type":"VEC2"
		},
		{
			"bufferView":7,
			"componentType":5123,
			"count":186,
			"type":"SCALAR"
		},
		{
			"bufferView":8,
			"componentType":5126,
			"count":6323,
			"max":[
				0.010980785824358463,
				0.020500000566244125,
				0.010980785824358463
			],
			"min":[
				-0.010980785824358463,
				-0.02310897782444954,
				-0.010980785824358463
			],
			"type":"VEC3"
		},
		{
			"bufferView":9,
			"componentType":5126,
			"count":6323,
			"type":"VEC3"
		},
		{
			"bufferView":10,
			"componentType":5126,
			"count":6323,
			"type":"VEC2"
		},
		{
			"bufferView":11,
			"componentType":5126,
			"count":6323,
			"type":"VEC2"
		},
		{
			"bufferView":12,
			"componentType":5123,
			"count":15732,
			"type":"SCALAR"
		},
		{
			"bufferView":13,
			"componentType":5126,
			"count":6162,
			"max":[
				0.010291293263435364,
				0.01850000023841858,
				0.010291293263435364
			],
			"min":[
				-0.010291293263435364,
				-0.020071683451533318,
				-0.010291293263435364
			],
			"type":"VEC3"
		},
		{
			"bufferView":14,
			"componentType":5126,
			"count":6162,
			"type":"VEC3"
		},
		{
			"bufferView":15,
			"componentType":5126,
			"count":6162,
			"type":"VEC2"
		},
		{
			"bufferView":16,
			"componentType":5123,
			"count":17082,
			"type":"SCALAR"
		},
		{
			"bufferView":17,
			"componentType":5126,
			"count":80,
			"max":[
				0.003487830050289631,
				-0.018871862441301346,
				0.0034878288861364126
			],
			"min":[
				-0.003487827954813838,
				-0.018871866166591644,
				-0.0034878288861364126
			],
			"type":"VEC3"
		},
		{
			"bufferView":18,
			"componentType":5126,
			"count":80,
			"type":"VEC3"
		},
		{
			"bufferView":19,
			"componentType":5126,
			"count":80,
			"type":"VEC2"
		},
		{
			"bufferView":20,
			"componentType":5123,
			"count":186,
			"type":"SCALAR"
		},
		{
			"bufferView":21,
			"componentType":5126,
			"count":5964,
			"max":[
				0.010769831016659737,
				0.020500000566244125,
				0.010769831016659737
			],
			"min":[
				-0.010769831016659737,
				-0.02387024648487568,
				-0.010769831016659737
			],
			"type":"VEC3"
		},
		{
			"bufferView":22,
			"componentType":5126,
			"count":5964,
			"type":"VEC3"
		},
		{
			"bufferView":23,
			"componentType":5126,
			"count":5964,
			"type":"VEC2"
		},
		{
			"bufferView":24,
			"componentType":5123,
			"count":17652,
			"type":"SCALAR"
		},
		{
			"bufferView":25,
			"componentType":5126,
			"count":2712,
			"max":[
				8.234999656677246,
				0.010000000707805157,
				0.23000000417232513
			],
			"min":[
				0.04500000178813934,
				-0.010000000707805157,
				-0.6910000443458557
			],
			"type":"VEC3"
		},
		{
			"bufferView":26,
			"componentType":5126,
			"count":2712,
			"type":"VEC3"
		},
		{
			"bufferView":27,
			"componentType":5126,
			"count":2712,
			"type":"VEC2"
		},
		{
			"bufferView":28,
			"componentType":5123,
			"count":7872,
			"type":"SCALAR"
		},
		{
			"bufferView":29,
			"componentType":5126,
			"count":24,
			"max":[
				1,
				1,
				1
			],
			"min":[
				-1,
				-1,
				-1
			],
			"type":"VEC3"
		},
		{
			"bufferView":30,
			"componentType":5126,
			"count":24,
			"type":"VEC3"
		},
		{
			"bufferView":31,
			"componentType":5126,
			"count":24,
			"type":"VEC2"
		},
		{
			"bufferView":32,
			"componentType":5123,
			"count":36,
			"type":"SCALAR"
		},
		{
			"bufferView":33,
			"componentType":5126,
			"count":24,
			"max":[
				1,
				1,
				1
			],
			"min":[
				-1,
				-1,
				-1
			],
			"type":"VEC3"
		},
		{
			"bufferView":34,
			"componentType":5126,
			"count":24,
			"type":"VEC3"
		},
		{
			"bufferView":35,
			"componentType":5126,
			"count":24,
			"type":"VEC2"
		}
	],
	"bufferViews":[
		{
			"buffer":0,
			"byteLength":30372,
			"byteOffset":0,
			"target":34962
		},
		{
			"buffer":0,
			"byteLength":30372,
			"byteOffset":30372,
			"target":34962
		},
		{
			"buffer":0,
			"byteLength":20248,
			"byteOffset":60744,
			"target":34962
		},
		{
			"buffer":0,
			"byteLength":14964,
			"byteOffset":80992,
			"target":34963
		},
		{
			"buffer":0,
			"byteLength":972,
			"byteOffset":95956,
			"target":34962
		},
		{
			"buffer":0,
			"byteLength":972,
			"byteOffset":96928,
			"target":34962
		},
		{
			"buffer":0,
			"byteLength":648,
			"byteOffset":97900,
			"target":34962
		},
		{
			"buffer":0,
			"byteLength":372,
			"byteOffset":98548,
			"target":34963
		},
		{
			"buffer":0,
			"byteLength":75876,
			"byteOffset":98920,
			"target":34962
		},
		{
			"buffer":0,
			"byteLength":75876,
			"byteOffset":174796,
			"target":34962
		},
		{
			"buffer":0,
			"byteLength":50584,
			"byteOffset":250672,
			"target":34962
		},
		{
			"buffer":0,
			"byteLength":50584,
			"byteOffset":301256,
			"target":34962
		},
		{
			"buffer":0,
			"byteLength":31464,
			"byteOffset":351840,
			"target":34963
		},
		{
			"buffer":0,
			"byteLength":73944,
			"byteOffset":383304,
			"target":34962
		},
		{
			"buffer":0,
			"byteLength":73944,
			"byteOffset":457248,
			"target":34962
		},
		{
			"buffer":0,
			"byteLength":49296,
			"byteOffset":531192,
			"target":34962
		},
		{
			"buffer":0,
			"byteLength":34164,
			"byteOffset":580488,
			"target":34963
		},
		{
			"buffer":0,
			"byteLength":960,
			"byteOffset":614652,
			"target":34962
		},
		{
			"buffer":0,
			"byteLength":960,
			"byteOffset":615612,
			"target":34962
		},
		{
			"buffer":0,
			"byteLength":640,
			"byteOffset":616572,
			"target":34962
		},
		{
			"buffer":0,
			"byteLength":372,
			"byteOffset":617212,
			"target":34963
		},
		{
			"buffer":0,
			"byteLength":71568,
			"byteOffset":617584,
			"target":34962
		},
		{
			"buffer":0,
			"byteLength":71568,
			"byteOffset":689152,
			"target":34962
		},
		{
			"buffer":0,
			"byteLength":47712,
			"byteOffset":760720,
			"target":34962
		},
		{
			"buffer":0,
			"byteLength":35304,
			"byteOffset":808432,
			"target":34963
		},
		{
			"buffer":0,
			"byteLength":32544,
			"byteOffset":843736,
			"target":34962
		},
		{
			"buffer":0,
			"byteLength":32544,
			"byteOffset":876280,
			"target":34962
		},
		{
			"buffer":0,
			"byteLength":21696,
			"byteOffset":908824,
			"target":34962
		},
		{
			"buffer":0,
			"byteLength":15744,
			"byteOffset":930520,
			"target":34963
		},
		{
			"buffer":0,
			"byteLength":288,
			"byteOffset":946264,
			"target":34962
		},
		{
			"buffer":0,
			"byteLength":288,
			"byteOffset":946552,
			"target":34962
		},
		{
			"buffer":0,
			"byteLength":192,
			"byteOffset":946840,
			"target":34962
		},
		{
			"buffer":0,
			"byteLength":72,
			"byteOffset":947032,
			"target":34963
		},
		{
			"buffer":0,
			"byteLength":288,
			"byteOffset":947104,
			"target":34962
		},
		{
			"buffer":0,
			"byteLength":288,
			"byteOffset":947392,
			"target":34962
		},
		{
			"buffer":0,
			"byteLength":192,
			"byteOffset":947680,
			"target":34962
		}
	],
	"buffers":[
		{
			"byteLength":947872,
			"uri":"updatedobj.bin"
		}
	]
}
