{
	"asset":{
		"generator":"Khronos glTF Blender I/O v3.6.27",
		"version":"2.0"
	},
	"scene":0,
	"scenes":[
		{
			"name":"Scene",
			"nodes":[
				0,
				1
			]
		}
	],
	"nodes":[
		{
			"mesh":0,
			"name":"05deerFinal",
			"translation":[
				-0.18909716606140137,
				-0.07632305473089218,
				-1.622194766998291
			]
		},
		{
			"mesh":1,
			"name":"09deerFinal",
			"translation":[
				0.7123867869377136,
				-0.08874379843473434,
				-1.644594430923462
			]
		}
	],
	"materials":[
		{
			"doubleSided":true,
			"name":"Material.120",
			"pbrMetallicRoughness":{
				"baseColorTexture":{
					"index":0
				},
				"metallicFactor":0
			}
		},
		{
			"doubleSided":true,
			"name":"Material.138",
			"pbrMetallicRoughness":{
				"baseColorTexture":{
					"index":1
				},
				"metallicFactor":0
			}
		}
	],
	"meshes":[
		{
			"name":"Plane.173",
			"primitives":[
				{
					"attributes":{
						"POSITION":0,
						"NORMAL":1,
						"TEXCOORD_0":2
					},
					"indices":3,
					"material":0
				}
			]
		},
		{
			"name":"Plane.188",
			"primitives":[
				{
					"attributes":{
						"POSITION":4,
						"NORMAL":5,
						"TEXCOORD_0":6
					},
					"indices":7,
					"material":1
				}
			]
		}
	],
	"textures":[
		{
			"sampler":0,
			"source":0
		},
		{
			"sampler":0,
			"source":1
		}
	],
	"images":[
		{
			"mimeType":"image/png",
			"name":"05deertexture",
			"uri":"05deertexture.png"
		},
		{
			"mimeType":"image/png",
			"name":"09deertexture.png",
			"uri":"09deertexture_png.png"
		}
	],
	"accessors":[
		{
			"bufferView":0,
			"componentType":5126,
			"count":2260,
			"max":[
				0.3571834862232208,
				2.0505783557891846,
				1.074887752532959
			],
			"min":[
				-0.35718271136283875,
				0.015686960890889168,
				-0.7527769804000854
			],
			"type":"VEC3"
		},
		{
			"bufferView":1,
			"componentType":5126,
			"count":2260,
			"type":"VEC3"
		},
		{
			"bufferView":2,
			"componentType":5126,
			"count":2260,
			"type":"VEC2"
		},
		{
			"bufferView":3,
			"componentType":5123,
			"count":3420,
			"type":"SCALAR"
		},
		{
			"bufferView":4,
			"componentType":5126,
			"count":2824,
			"max":[
				0.4801059663295746,
				2.7274394035339355,
				1.3466612100601196
			],
			"min":[
				-0.5557963848114014,
				0.010280739516019821,
				-0.8902921676635742
			],
			"type":"VEC3"
		},
		{
			"bufferView":5,
			"componentType":5126,
			"count":2824,
			"type":"VEC3"
		},
		{
			"bufferView":6,
			"componentType":5126,
			"count":2824,
			"type":"VEC2"
		},
		{
			"bufferView":7,
			"componentType":5123,
			"count":4092,
			"type":"SCALAR"
		}
	],
	"bufferViews":[
		{
			"buffer":0,
			"byteLength":27120,
			"byteOffset":0,
			"target":34962
		},
		{
			"buffer":0,
			"byteLength":27120,
			"byteOffset":27120,
			"target":34962
		},
		{
			"buffer":0,
			"byteLength":18080,
			"byteOffset":54240,
			"target":34962
		},
		{
			"buffer":0,
			"byteLength":6840,
			"byteOffset":72320,
			"target":34963
		},
		{
			"buffer":0,
			"byteLength":33888,
			"byteOffset":79160,
			"target":34962
		},
		{
			"buffer":0,
			"byteLength":33888,
			"byteOffset":113048,
			"target":34962
		},
		{
			"buffer":0,
			"byteLength":22592,
			"byteOffset":146936,
			"target":34962
		},
		{
			"buffer":0,
			"byteLength":8184,
			"byteOffset":169528,
			"target":34963
		}
	],
	"samplers":[
		{
			"magFilter":9729,
			"minFilter":9987
		}
	],
	"buffers":[
		{
			"byteLength":177712,
			"uri":"deer.bin"
		}
	]
}
