{
	"asset":{
		"generator":"Khronos glTF Blender I/O v4.0.43",
		"version":"2.0"
	},
	"scene":0,
	"scenes":[
		{
			"name":"Scene",
			"nodes":[
				0,
				1,
				2
			]
		}
	],
	"nodes":[
		{
			"mesh":0,
			"name":"Text.008",
			"rotation":[
				0.7071066498756409,
				0.0005109042976982892,
				-0.0005109043559059501,
				0.7071066498756409
			],
			"scale":[
				0.4343431890010834,
				0.9138297438621521,
				0.43434321880340576
			],
			"translation":[
				-6.58510684967041,
				4.222408771514893,
				-2.2497689723968506
			]
		},
		{
			"mesh":1,
			"name":"Text.009",
			"rotation":[
				0.7071066498756409,
				0.0005109042976982892,
				-0.0005109042976982892,
				0.7071066498756409
			],
			"scale":[
				0.4443278908729553,
				0.9138297438621521,
				0.4443278908729553
			],
			"translation":[
				1.0402681827545166,
				4.336650371551514,
				-2.2583565711975098
			]
		},
		{
			"mesh":2,
			"name":"Plane.013",
			"rotation":[
				-0.5003611445426941,
				0.5003611445426941,
				-0.4996386468410492,
				0.4996386766433716
			],
			"scale":[
				2.980520725250244,
				1,
				7.968738555908203
			],
			"translation":[
				-0.3181871175765991,
				2.2642641067504883,
				-2.3603708744049072
			]
		}
	],
	"materials":[
		{
			"doubleSided":true,
			"name":"Material.038",
			"pbrMetallicRoughness":{
				"metallicFactor":0,
				"roughnessFactor":0.5
			}
		},
		{
			"doubleSided":true,
			"name":"Material.039",
			"pbrMetallicRoughness":{
				"metallicFactor":0,
				"roughnessFactor":0.5
			}
		},
		{
			"doubleSided":true,
			"name":"Material.044",
			"pbrMetallicRoughness":{
				"baseColorFactor":[
					0.0064769890159368515,
					0.055540382862091064,
					0.008944455534219742,
					1
				],
				"metallicFactor":0,
				"roughnessFactor":0.5
			}
		}
	],
	"meshes":[
		{
			"name":"Text.022",
			"primitives":[
				{
					"attributes":{
						"POSITION":0,
						"NORMAL":1,
						"TEXCOORD_0":2
					},
					"indices":3,
					"material":0
				}
			]
		},
		{
			"name":"Text.023",
			"primitives":[
				{
					"attributes":{
						"POSITION":4,
						"NORMAL":5,
						"TEXCOORD_0":6
					},
					"indices":7,
					"material":1
				}
			]
		},
		{
			"name":"Plane.026",
			"primitives":[
				{
					"attributes":{
						"POSITION":8,
						"NORMAL":9,
						"TEXCOORD_0":10
					},
					"indices":11,
					"material":2
				}
			]
		}
	],
	"accessors":[
		{
			"bufferView":0,
			"componentType":5126,
			"count":8814,
			"max":[
				10.47900104522705,
				0.020000001415610313,
				0.23000000417232513
			],
			"min":[
				0.07500000298023224,
				-0.020000001415610313,
				-0.6914074420928955
			],
			"type":"VEC3"
		},
		{
			"bufferView":1,
			"componentType":5126,
			"count":8814,
			"type":"VEC3"
		},
		{
			"bufferView":2,
			"componentType":5126,
			"count":8814,
			"type":"VEC2"
		},
		{
			"bufferView":3,
			"componentType":5123,
			"count":25968,
			"type":"SCALAR"
		},
		{
			"bufferView":4,
			"componentType":5126,
			"count":7464,
			"max":[
				9.97800064086914,
				0.020000001415610313,
				0.23000000417232513
			],
			"min":[
				0.07500000298023224,
				-0.020000001415610313,
				-0.6914074420928955
			],
			"type":"VEC3"
		},
		{
			"bufferView":5,
			"componentType":5126,
			"count":7464,
			"type":"VEC3"
		},
		{
			"bufferView":6,
			"componentType":5126,
			"count":7464,
			"type":"VEC2"
		},
		{
			"bufferView":7,
			"componentType":5123,
			"count":21984,
			"type":"SCALAR"
		},
		{
			"bufferView":8,
			"componentType":5126,
			"count":4,
			"max":[
				1,
				0,
				1
			],
			"min":[
				-1,
				0,
				-1
			],
			"type":"VEC3"
		},
		{
			"bufferView":9,
			"componentType":5126,
			"count":4,
			"type":"VEC3"
		},
		{
			"bufferView":10,
			"componentType":5126,
			"count":4,
			"type":"VEC2"
		},
		{
			"bufferView":11,
			"componentType":5123,
			"count":6,
			"type":"SCALAR"
		}
	],
	"bufferViews":[
		{
			"buffer":0,
			"byteLength":105768,
			"byteOffset":0,
			"target":34962
		},
		{
			"buffer":0,
			"byteLength":105768,
			"byteOffset":105768,
			"target":34962
		},
		{
			"buffer":0,
			"byteLength":70512,
			"byteOffset":211536,
			"target":34962
		},
		{
			"buffer":0,
			"byteLength":51936,
			"byteOffset":282048,
			"target":34963
		},
		{
			"buffer":0,
			"byteLength":89568,
			"byteOffset":333984,
			"target":34962
		},
		{
			"buffer":0,
			"byteLength":89568,
			"byteOffset":423552,
			"target":34962
		},
		{
			"buffer":0,
			"byteLength":59712,
			"byteOffset":513120,
			"target":34962
		},
		{
			"buffer":0,
			"byteLength":43968,
			"byteOffset":572832,
			"target":34963
		},
		{
			"buffer":0,
			"byteLength":48,
			"byteOffset":616800,
			"target":34962
		},
		{
			"buffer":0,
			"byteLength":48,
			"byteOffset":616848,
			"target":34962
		},
		{
			"buffer":0,
			"byteLength":32,
			"byteOffset":616896,
			"target":34962
		},
		{
			"buffer":0,
			"byteLength":12,
			"byteOffset":616928,
			"target":34963
		}
	],
	"buffers":[
		{
			"byteLength":616940,
			"uri":"bg.bin"
		}
	]
}
