{
	"asset":{
		"generator":"Khronos glTF Blender I/O v4.0.43",
		"version":"2.0"
	},
	"scene":0,
	"scenes":[
		{
			"name":"Scene",
			"nodes":[
				0,
				1,
				2,
				3,
				4
			]
		}
	],
	"nodes":[
		{
			"mesh":0,
			"name":"Yakult.001",
			"scale":[
				18.178787231445312,
				45.4787712097168,
				18.82813835144043
			],
			"translation":[
				-1.2137384414672852,
				2.975224494934082,
				0
			]
		},
		{
			"mesh":1,
			"name":"Yakult",
			"scale":[
				18.60942268371582,
				37.14553451538086,
				18.023178100585938
			],
			"translation":[
				-1.2075815200805664,
				3.0803980827331543,
				0.005375370383262634
			]
		},
		{
			"mesh":2,
			"name":"Plane",
			"rotation":[
				0.7071068286895752,
				0,
				0,
				0.7071068286895752
			],
			"scale":[
				0.2350461483001709,
				1,
				0.24051205813884735
			],
			"translation":[
				-1.1584774255752563,
				2.703470468521118,
				0.3919832408428192
			]
		},
		{
			"mesh":3,
			"name":"Cube",
			"rotation":[
				0,
				0,
				-0.37174034118652344,
				0.9283368587493896
			],
			"scale":[
				0.009999999776482582,
				0.5,
				0.009999999776482582
			],
			"translation":[
				-0.639518141746521,
				3.0340535640716553,
				0.41448715329170227
			]
		},
		{
			"mesh":4,
			"name":"Text",
			"rotation":[
				0.7071068286895752,
				0,
				0,
				0.7071068286895752
			],
			"scale":[
				0.20147556066513062,
				1,
				0.20147556066513062
			],
			"translation":[
				-1.1956396102905273,
				3.4499595165252686,
				0.6376878619194031
			]
		}
	],
	"materials":[
		{
			"doubleSided":true,
			"name":"Material.069",
			"pbrMetallicRoughness":{
				"baseColorFactor":[
					0.8000315427780151,
					0,
					0.005314422305673361,
					1
				],
				"metallicFactor":0,
				"roughnessFactor":0.5
			}
		},
		{
			"doubleSided":true,
			"name":"Material.070",
			"pbrMetallicRoughness":{
				"baseColorFactor":[
					0.7486907243728638,
					0.8003629446029663,
					0.1672758311033249,
					1
				],
				"metallicFactor":0,
				"roughnessFactor":0.5
			}
		},
		{
			"doubleSided":true,
			"name":"Material.072",
			"pbrMetallicRoughness":{
				"baseColorTexture":{
					"index":0
				},
				"metallicFactor":0,
				"roughnessFactor":0.5
			}
		},
		{
			"doubleSided":true,
			"name":"Material.073",
			"pbrMetallicRoughness":{
				"baseColorFactor":[
					0,
					0,
					0,
					1
				],
				"metallicFactor":0,
				"roughnessFactor":0.5
			}
		}
	],
	"meshes":[
		{
			"name":"Cylinder.005",
			"primitives":[
				{
					"attributes":{
						"POSITION":0,
						"NORMAL":1,
						"TEXCOORD_0":2,
						"TEXCOORD_1":3
					},
					"indices":4,
					"material":0
				}
			]
		},
		{
			"name":"Cylinder.006",
			"primitives":[
				{
					"attributes":{
						"POSITION":5,
						"NORMAL":6,
						"TEXCOORD_0":7,
						"TEXCOORD_1":8
					},
					"indices":9,
					"material":1
				}
			]
		},
		{
			"name":"Plane.040",
			"primitives":[
				{
					"attributes":{
						"POSITION":10,
						"NORMAL":11,
						"TEXCOORD_0":12
					},
					"indices":13,
					"material":2
				}
			]
		},
		{
			"name":"Cube.002",
			"primitives":[
				{
					"attributes":{
						"POSITION":14,
						"NORMAL":15,
						"TEXCOORD_0":16
					},
					"indices":17
				}
			]
		},
		{
			"name":"Text.009",
			"primitives":[
				{
					"attributes":{
						"POSITION":18,
						"NORMAL":19,
						"TEXCOORD_0":20
					},
					"indices":21,
					"material":3
				}
			]
		}
	],
	"textures":[
		{
			"sampler":0,
			"source":0
		}
	],
	"images":[
		{
			"mimeType":"image/png",
			"name":"lacto.png",
			"uri":"lacto.png"
		}
	],
	"accessors":[
		{
			"bufferView":0,
			"componentType":5126,
			"count":389,
			"max":[
				0.013954582624137402,
				0.021399473771452904,
				0.014517326839268208
			],
			"min":[
				-0.014946839772164822,
				0.017552388831973076,
				-0.014301885850727558
			],
			"type":"VEC3"
		},
		{
			"bufferView":1,
			"componentType":5126,
			"count":389,
			"type":"VEC3"
		},
		{
			"bufferView":2,
			"componentType":5126,
			"count":389,
			"type":"VEC2"
		},
		{
			"bufferView":3,
			"componentType":5126,
			"count":389,
			"type":"VEC2"
		},
		{
			"bufferView":4,
			"componentType":5123,
			"count":1362,
			"type":"SCALAR"
		},
		{
			"bufferView":5,
			"componentType":5126,
			"count":714,
			"max":[
				0.0206589438021183,
				0.02026330679655075,
				0.0206589438021183
			],
			"min":[
				-0.0206589438021183,
				-0.02006579376757145,
				-0.0206589438021183
			],
			"type":"VEC3"
		},
		{
			"bufferView":6,
			"componentType":5126,
			"count":714,
			"type":"VEC3"
		},
		{
			"bufferView":7,
			"componentType":5126,
			"count":714,
			"type":"VEC2"
		},
		{
			"bufferView":8,
			"componentType":5126,
			"count":714,
			"type":"VEC2"
		},
		{
			"bufferView":9,
			"componentType":5123,
			"count":2436,
			"type":"SCALAR"
		},
		{
			"bufferView":10,
			"componentType":5126,
			"count":4,
			"max":[
				1,
				0,
				1
			],
			"min":[
				-1,
				0,
				-1
			],
			"type":"VEC3"
		},
		{
			"bufferView":11,
			"componentType":5126,
			"count":4,
			"type":"VEC3"
		},
		{
			"bufferView":12,
			"componentType":5126,
			"count":4,
			"type":"VEC2"
		},
		{
			"bufferView":13,
			"componentType":5123,
			"count":6,
			"type":"SCALAR"
		},
		{
			"bufferView":14,
			"componentType":5126,
			"count":24,
			"max":[
				1,
				1,
				1
			],
			"min":[
				-1,
				-1,
				-1
			],
			"type":"VEC3"
		},
		{
			"bufferView":15,
			"componentType":5126,
			"count":24,
			"type":"VEC3"
		},
		{
			"bufferView":16,
			"componentType":5126,
			"count":24,
			"type":"VEC2"
		},
		{
			"bufferView":17,
			"componentType":5123,
			"count":36,
			"type":"SCALAR"
		},
		{
			"bufferView":18,
			"componentType":5126,
			"count":2039,
			"max":[
				9.395999908447266,
				0,
				0.23000000417232513
			],
			"min":[
				0.07400000095367432,
				0,
				-0.6820000410079956
			],
			"type":"VEC3"
		},
		{
			"bufferView":19,
			"componentType":5126,
			"count":2039,
			"type":"VEC3"
		},
		{
			"bufferView":20,
			"componentType":5126,
			"count":2039,
			"type":"VEC2"
		},
		{
			"bufferView":21,
			"componentType":5123,
			"count":6015,
			"type":"SCALAR"
		}
	],
	"bufferViews":[
		{
			"buffer":0,
			"byteLength":4668,
			"byteOffset":0,
			"target":34962
		},
		{
			"buffer":0,
			"byteLength":4668,
			"byteOffset":4668,
			"target":34962
		},
		{
			"buffer":0,
			"byteLength":3112,
			"byteOffset":9336,
			"target":34962
		},
		{
			"buffer":0,
			"byteLength":3112,
			"byteOffset":12448,
			"target":34962
		},
		{
			"buffer":0,
			"byteLength":2724,
			"byteOffset":15560,
			"target":34963
		},
		{
			"buffer":0,
			"byteLength":8568,
			"byteOffset":18284,
			"target":34962
		},
		{
			"buffer":0,
			"byteLength":8568,
			"byteOffset":26852,
			"target":34962
		},
		{
			"buffer":0,
			"byteLength":5712,
			"byteOffset":35420,
			"target":34962
		},
		{
			"buffer":0,
			"byteLength":5712,
			"byteOffset":41132,
			"target":34962
		},
		{
			"buffer":0,
			"byteLength":4872,
			"byteOffset":46844,
			"target":34963
		},
		{
			"buffer":0,
			"byteLength":48,
			"byteOffset":51716,
			"target":34962
		},
		{
			"buffer":0,
			"byteLength":48,
			"byteOffset":51764,
			"target":34962
		},
		{
			"buffer":0,
			"byteLength":32,
			"byteOffset":51812,
			"target":34962
		},
		{
			"buffer":0,
			"byteLength":12,
			"byteOffset":51844,
			"target":34963
		},
		{
			"buffer":0,
			"byteLength":288,
			"byteOffset":51856,
			"target":34962
		},
		{
			"buffer":0,
			"byteLength":288,
			"byteOffset":52144,
			"target":34962
		},
		{
			"buffer":0,
			"byteLength":192,
			"byteOffset":52432,
			"target":34962
		},
		{
			"buffer":0,
			"byteLength":72,
			"byteOffset":52624,
			"target":34963
		},
		{
			"buffer":0,
			"byteLength":24468,
			"byteOffset":52696,
			"target":34962
		},
		{
			"buffer":0,
			"byteLength":24468,
			"byteOffset":77164,
			"target":34962
		},
		{
			"buffer":0,
			"byteLength":16312,
			"byteOffset":101632,
			"target":34962
		},
		{
			"buffer":0,
			"byteLength":12030,
			"byteOffset":117944,
			"target":34963
		}
	],
	"samplers":[
		{
			"magFilter":9729,
			"minFilter":9987
		}
	],
	"buffers":[
		{
			"byteLength":129976,
			"uri":"yakult.bin"
		}
	]
}
