{
	"asset":{
		"generator":"Khronos glTF Blender I/O v3.6.27",
		"version":"2.0"
	},
	"scene":0,
	"scenes":[
		{
			"name":"Scene",
			"nodes":[
				1,
				2,
				3
			]
		}
	],
	"nodes":[
		{
			"mesh":0,
			"name":"Plane"
		},
		{
			"children":[
				0
			],
			"name":"Simple Growth GN",
			"translation":[
				-5.27069091796875,
				1.0233296155929565,
				0
			]
		},
		{
			"mesh":1,
			"name":"Roundcube_Material_0",
			"rotation":[
				-0.70710688829422,
				0,
				0,
				0.7071066498756409
			],
			"translation":[
				-5.27069091796875,
				1.0233296155929565,
				0
			]
		},
		{
			"mesh":2,
			"name":"Roundcube.001_Material.001_0",
			"rotation":[
				-0.70710688829422,
				0,
				0,
				0.7071066498756409
			],
			"scale":[
				0.9773159027099609,
				0.9773159623146057,
				0.9773159623146057
			],
			"translation":[
				-5.310775279998779,
				1.0233296155929565,
				0
			]
		}
	],
	"materials":[
		{
			"doubleSided":true,
			"name":"Material.009",
			"pbrMetallicRoughness":{}
		},
		{
			"doubleSided":true,
			"name":"Material.011",
			"pbrMetallicRoughness":{
				"baseColorFactor":[
					0.8000000715255737,
					0.01346652489155531,
					0,
					1
				],
				"metallicFactor":0,
				"roughnessFactor":0.5
			}
		}
	],
	"meshes":[
		{
			"name":"Plane.1811",
			"primitives":[
				{
					"attributes":{
						"POSITION":0,
						"NORMAL":1,
						"TEXCOORD_0":2
					},
					"indices":3
				}
			]
		},
		{
			"name":"Roundcube_Material_0.001",
			"primitives":[
				{
					"attributes":{
						"POSITION":4,
						"NORMAL":5
					},
					"indices":6,
					"material":0
				}
			]
		},
		{
			"name":"Roundcube.001_Material.001_0.001",
			"primitives":[
				{
					"attributes":{
						"POSITION":7,
						"NORMAL":8
					},
					"indices":9,
					"material":1
				}
			]
		}
	],
	"accessors":[
		{
			"bufferView":0,
			"componentType":5126,
			"count":4,
			"max":[
				0.9558678269386292,
				0,
				0.9558678269386292
			],
			"min":[
				-0.9558678269386292,
				0,
				-0.9558678269386292
			],
			"type":"VEC3"
		},
		{
			"bufferView":1,
			"componentType":5126,
			"count":4,
			"type":"VEC3"
		},
		{
			"bufferView":2,
			"componentType":5126,
			"count":4,
			"type":"VEC2"
		},
		{
			"bufferView":3,
			"componentType":5123,
			"count":6,
			"type":"SCALAR"
		},
		{
			"bufferView":4,
			"componentType":5126,
			"count":401,
			"max":[
				2.5,
				1,
				1
			],
			"min":[
				0.010599136352539062,
				-1,
				-1
			],
			"type":"VEC3"
		},
		{
			"bufferView":5,
			"componentType":5126,
			"count":401,
			"type":"VEC3"
		},
		{
			"bufferView":6,
			"componentType":5123,
			"count":2154,
			"type":"SCALAR"
		},
		{
			"bufferView":7,
			"componentType":5126,
			"count":401,
			"max":[
				0.1170738935470581,
				1.0677928924560547,
				1.0746395587921143
			],
			"min":[
				-2.5450124740600586,
				-1.0677928924560547,
				-1.0667994022369385
			],
			"type":"VEC3"
		},
		{
			"bufferView":8,
			"componentType":5126,
			"count":401,
			"type":"VEC3"
		},
		{
			"bufferView":9,
			"componentType":5123,
			"count":2154,
			"type":"SCALAR"
		}
	],
	"bufferViews":[
		{
			"buffer":0,
			"byteLength":48,
			"byteOffset":0,
			"target":34962
		},
		{
			"buffer":0,
			"byteLength":48,
			"byteOffset":48,
			"target":34962
		},
		{
			"buffer":0,
			"byteLength":32,
			"byteOffset":96,
			"target":34962
		},
		{
			"buffer":0,
			"byteLength":12,
			"byteOffset":128,
			"target":34963
		},
		{
			"buffer":0,
			"byteLength":4812,
			"byteOffset":140,
			"target":34962
		},
		{
			"buffer":0,
			"byteLength":4812,
			"byteOffset":4952,
			"target":34962
		},
		{
			"buffer":0,
			"byteLength":4308,
			"byteOffset":9764,
			"target":34963
		},
		{
			"buffer":0,
			"byteLength":4812,
			"byteOffset":14072,
			"target":34962
		},
		{
			"buffer":0,
			"byteLength":4812,
			"byteOffset":18884,
			"target":34962
		},
		{
			"buffer":0,
			"byteLength":4308,
			"byteOffset":23696,
			"target":34963
		}
	],
	"buffers":[
		{
			"byteLength":28004,
			"uri":"pill.bin"
		}
	]
}
