{
	"asset":{
		"generator":"Khronos glTF Blender I/O v3.6.27",
		"version":"2.0"
	},
	"scene":0,
	"scenes":[
		{
			"name":"Scene",
			"nodes":[
				0,
				4,
				5,
				6
			]
		}
	],
	"nodes":[
		{
			"mesh":0,
			"name":"05deerFinal",
			"rotation":[
				0,
				0,
				-0.6994794607162476,
				0.7146527171134949
			],
			"scale":[
				0.6959840059280396,
				0.6959840059280396,
				0.6959839463233948
			],
			"translation":[
				-3.0867669582366943,
				-0.07632305473089218,
				-0.06305521726608276
			]
		},
		{
			"name":"Hiena_HP_0",
			"rotation":[
				0.70710688829422,
				0,
				0,
				0.7071066498756409
			],
			"scale":[
				0.004999999888241291,
				0.005000000819563866,
				0.005000000819563866
			]
		},
		{
			"children":[
				1
			],
			"name":"GLTF_SceneRootNode.002",
			"rotation":[
				0.70710688829422,
				0,
				0,
				0.7071066498756409
			]
		},
		{
			"children":[
				2
			],
			"name":"root.002"
		},
		{
			"children":[
				3
			],
			"name":"Sketchfab_model.003",
			"rotation":[
				-0.70710688829422,
				0,
				0,
				0.7071066498756409
			],
			"scale":[
				2.902585506439209,
				2.902585744857788,
				2.902585744857788
			],
			"translation":[
				-2.4062583446502686,
				0,
				0
			]
		},
		{
			"mesh":1,
			"name":"Text",
			"rotation":[
				0.6604371666908264,
				0,
				0,
				0.7508813142776489
			],
			"scale":[
				0.37343257665634155,
				0.37343257665634155,
				0.37343257665634155
			],
			"translation":[
				-3.8991808891296387,
				1.096045732498169,
				0
			]
		},
		{
			"mesh":2,
			"name":"Mesh_0_Material_0_0",
			"rotation":[
				-0.6501238346099854,
				-0.2780988812446594,
				-0.2780987620353699,
				0.6501238942146301
			],
			"translation":[
				-3.4218711853027344,
				0.4762283265590668,
				0
			]
		}
	],
	"materials":[
		{
			"doubleSided":true,
			"name":"Material.120",
			"pbrMetallicRoughness":{
				"baseColorTexture":{
					"index":0
				},
				"metallicFactor":0
			}
		},
		{
			"doubleSided":true,
			"name":"Material_0",
			"pbrMetallicRoughness":{
				"baseColorTexture":{
					"index":1
				},
				"metallicFactor":0,
				"roughnessFactor":0.8868629336357117
			}
		}
	],
	"meshes":[
		{
			"name":"Plane.173",
			"primitives":[
				{
					"attributes":{
						"POSITION":0,
						"NORMAL":1,
						"TEXCOORD_0":2
					},
					"indices":3,
					"material":0
				}
			]
		},
		{
			"name":"Text",
			"primitives":[
				{
					"attributes":{
						"POSITION":4,
						"NORMAL":5,
						"TEXCOORD_0":6
					},
					"indices":7
				}
			]
		},
		{
			"name":"Mesh_0_Material_0_0",
			"primitives":[
				{
					"attributes":{
						"POSITION":8,
						"NORMAL":9,
						"TEXCOORD_0":10
					},
					"indices":11,
					"material":1
				}
			]
		}
	],
	"textures":[
		{
			"sampler":0,
			"source":0
		},
		{
			"sampler":0,
			"source":1
		}
	],
	"images":[
		{
			"mimeType":"image/png",
			"name":"05deertexture",
			"uri":"05deertexture.png"
		},
		{
			"mimeType":"image/jpeg",
			"name":"Material_0_baseColor",
			"uri":"Material_0_baseColor.jpg"
		}
	],
	"accessors":[
		{
			"bufferView":0,
			"componentType":5126,
			"count":2311,
			"max":[
				0.3571834862232208,
				2.0505783557891846,
				1.074887752532959
			],
			"min":[
				-0.35718271136283875,
				0.015686960890889168,
				-0.7527769804000854
			],
			"type":"VEC3"
		},
		{
			"bufferView":1,
			"componentType":5126,
			"count":2311,
			"type":"VEC3"
		},
		{
			"bufferView":2,
			"componentType":5126,
			"count":2311,
			"type":"VEC2"
		},
		{
			"bufferView":3,
			"componentType":5123,
			"count":3420,
			"type":"SCALAR"
		},
		{
			"bufferView":4,
			"componentType":5126,
			"count":725,
			"max":[
				3.8650002479553223,
				0,
				0.009000000543892384
			],
			"min":[
				0.07000000029802322,
				0,
				-0.6820000410079956
			],
			"type":"VEC3"
		},
		{
			"bufferView":5,
			"componentType":5126,
			"count":725,
			"type":"VEC3"
		},
		{
			"bufferView":6,
			"componentType":5126,
			"count":725,
			"type":"VEC2"
		},
		{
			"bufferView":7,
			"componentType":5123,
			"count":2145,
			"type":"SCALAR"
		},
		{
			"bufferView":8,
			"componentType":5126,
			"count":3766,
			"max":[
				0.6013109683990479,
				0.20932400226593018,
				0.4273374080657959
			],
			"min":[
				-0.5994899868965149,
				-0.20771467685699463,
				-0.4271017611026764
			],
			"type":"VEC3"
		},
		{
			"bufferView":9,
			"componentType":5126,
			"count":3766,
			"type":"VEC3"
		},
		{
			"bufferView":10,
			"componentType":5126,
			"count":3766,
			"type":"VEC2"
		},
		{
			"bufferView":11,
			"componentType":5123,
			"count":11901,
			"type":"SCALAR"
		}
	],
	"bufferViews":[
		{
			"buffer":0,
			"byteLength":27732,
			"byteOffset":0,
			"target":34962
		},
		{
			"buffer":0,
			"byteLength":27732,
			"byteOffset":27732,
			"target":34962
		},
		{
			"buffer":0,
			"byteLength":18488,
			"byteOffset":55464,
			"target":34962
		},
		{
			"buffer":0,
			"byteLength":6840,
			"byteOffset":73952,
			"target":34963
		},
		{
			"buffer":0,
			"byteLength":8700,
			"byteOffset":80792,
			"target":34962
		},
		{
			"buffer":0,
			"byteLength":8700,
			"byteOffset":89492,
			"target":34962
		},
		{
			"buffer":0,
			"byteLength":5800,
			"byteOffset":98192,
			"target":34962
		},
		{
			"buffer":0,
			"byteLength":4290,
			"byteOffset":103992,
			"target":34963
		},
		{
			"buffer":0,
			"byteLength":45192,
			"byteOffset":108284,
			"target":34962
		},
		{
			"buffer":0,
			"byteLength":45192,
			"byteOffset":153476,
			"target":34962
		},
		{
			"buffer":0,
			"byteLength":30128,
			"byteOffset":198668,
			"target":34962
		},
		{
			"buffer":0,
			"byteLength":23802,
			"byteOffset":228796,
			"target":34963
		}
	],
	"samplers":[
		{
			"magFilter":9729,
			"minFilter":9987
		}
	],
	"buffers":[
		{
			"byteLength":252600,
			"uri":"predation.bin"
		}
	]
}
