{
	"asset":{
		"generator":"Khronos glTF Blender I/O v3.6.27",
		"version":"2.0"
	},
	"scene":0,
	"scenes":[
		{
			"name":"Scene",
			"nodes":[
				0
			]
		}
	],
	"nodes":[
		{
			"mesh":0,
			"name":"disk",
			"rotation":[
				-0.08126087486743927,
				0,
				0,
				0.996692955493927
			],
			"translation":[
				0,
				0.22425320744514465,
				0.03279659152030945
			]
		}
	],
	"materials":[
		{
			"alphaMode":"BLEND",
			"doubleSided":true,
			"emissiveFactor":[
				0.20863690972328186,
				0.4341537058353424,
				0.42326778173446655
			],
			"name":"Material.002",
			"pbrMetallicRoughness":{
				"baseColorFactor":[
					0,
					0.8000000715255737,
					0.6176220774650574,
					0.08454543352127075
				],
				"metallicFactor":0,
				"roughnessFactor":0.5
			}
		}
	],
	"meshes":[
		{
			"name":"Cylinder.015",
			"primitives":[
				{
					"attributes":{
						"POSITION":0,
						"NORMAL":1,
						"TEXCOORD_0":2
					},
					"indices":3,
					"material":0
				}
			]
		}
	],
	"accessors":[
		{
			"bufferView":0,
			"componentType":5126,
			"count":1802,
			"max":[
				0.031550001353025436,
				0.00411773007363081,
				0.031550001353025436
			],
			"min":[
				-0.031550001353025436,
				-0.011147791519761086,
				-0.031550001353025436
			],
			"type":"VEC3"
		},
		{
			"bufferView":1,
			"componentType":5126,
			"count":1802,
			"type":"VEC3"
		},
		{
			"bufferView":2,
			"componentType":5126,
			"count":1802,
			"type":"VEC2"
		},
		{
			"bufferView":3,
			"componentType":5123,
			"count":5748,
			"type":"SCALAR"
		}
	],
	"bufferViews":[
		{
			"buffer":0,
			"byteLength":21624,
			"byteOffset":0,
			"target":34962
		},
		{
			"buffer":0,
			"byteLength":21624,
			"byteOffset":21624,
			"target":34962
		},
		{
			"buffer":0,
			"byteLength":14416,
			"byteOffset":43248,
			"target":34962
		},
		{
			"buffer":0,
			"byteLength":11496,
			"byteOffset":57664,
			"target":34963
		}
	],
	"buffers":[
		{
			"byteLength":69160,
			"uri":"hnose.bin"
		}
	]
}
