{
	"asset":{
		"generator":"Khronos glTF Blender I/O v3.6.27",
		"version":"2.0"
	},
	"scene":0,
	"scenes":[
		{
			"name":"Scene",
			"nodes":[
				0
			]
		}
	],
	"nodes":[
		{
			"mesh":0,
			"name":"Mesh_0_Material_0_0.001",
			"rotation":[
				-0.6501238346099854,
				-0.2780988812446594,
				-0.2780987620353699,
				0.6501238942146301
			],
			"translation":[
				-3.4218711853027344,
				0.4762283265590668,
				0
			]
		}
	],
	"materials":[
		{
			"doubleSided":true,
			"name":"Material_0.001",
			"pbrMetallicRoughness":{
				"baseColorTexture":{
					"index":0
				},
				"metallicFactor":0,
				"roughnessFactor":0.8868629336357117
			}
		}
	],
	"meshes":[
		{
			"name":"Mesh_0_Material_0_0.001",
			"primitives":[
				{
					"attributes":{
						"POSITION":0,
						"NORMAL":1,
						"TEXCOORD_0":2
					},
					"indices":3,
					"material":0
				}
			]
		}
	],
	"textures":[
		{
			"sampler":0,
			"source":0
		}
	],
	"images":[
		{
			"mimeType":"image/jpeg",
			"name":"Material_0_baseColor",
			"uri":"Material_0_baseColor.jpg"
		}
	],
	"accessors":[
		{
			"bufferView":0,
			"componentType":5126,
			"count":3766,
			"max":[
				0.6013109683990479,
				0.20932400226593018,
				0.4273374080657959
			],
			"min":[
				-0.5994899868965149,
				-0.20771467685699463,
				-0.4271017611026764
			],
			"type":"VEC3"
		},
		{
			"bufferView":1,
			"componentType":5126,
			"count":3766,
			"type":"VEC3"
		},
		{
			"bufferView":2,
			"componentType":5126,
			"count":3766,
			"type":"VEC2"
		},
		{
			"bufferView":3,
			"componentType":5123,
			"count":11901,
			"type":"SCALAR"
		}
	],
	"bufferViews":[
		{
			"buffer":0,
			"byteLength":45192,
			"byteOffset":0,
			"target":34962
		},
		{
			"buffer":0,
			"byteLength":45192,
			"byteOffset":45192,
			"target":34962
		},
		{
			"buffer":0,
			"byteLength":30128,
			"byteOffset":90384,
			"target":34962
		},
		{
			"buffer":0,
			"byteLength":23802,
			"byteOffset":120512,
			"target":34963
		}
	],
	"samplers":[
		{
			"magFilter":9729,
			"minFilter":9987
		}
	],
	"buffers":[
		{
			"byteLength":144316,
			"uri":"lion.bin"
		}
	]
}
