{
	"asset":{
		"generator":"Khronos glTF Blender I/O v3.6.27",
		"version":"2.0"
	},
	"scene":0,
	"scenes":[
		{
			"name":"Scene",
			"nodes":[
				0,
				1
			]
		}
	],
	"nodes":[
		{
			"mesh":0,
			"name":"Cube.008",
			"scale":[
				1.899095058441162,
				0.2615077793598175,
				0.6725035905838013
			],
			"translation":[
				0.6524425745010376,
				5.679630279541016,
				0.2023906111717224
			]
		},
		{
			"mesh":1,
			"name":"CEELS.008",
			"rotation":[
				0.70710688829422,
				0,
				0,
				0.7071066498756409
			],
			"scale":[
				0.19606025516986847,
				0.42151254415512085,
				0.23138244450092316
			],
			"translation":[
				-0.2135366052389145,
				5.529299736022949,
				0.9407800436019897
			]
		}
	],
	"materials":[
		{
			"doubleSided":true,
			"name":"Material.010",
			"pbrMetallicRoughness":{
				"baseColorFactor":[
					0.2383974939584732,
					0.024157462641596794,
					0.27049776911735535,
					1
				],
				"metallicFactor":0,
				"roughnessFactor":0.5
			}
		},
		{
			"doubleSided":true,
			"name":"Material.018",
			"pbrMetallicRoughness":{
				"baseColorFactor":[
					0.8039097189903259,
					0.7102770209312439,
					0.7102770209312439,
					1
				],
				"metallicFactor":0,
				"roughnessFactor":0.5
			}
		}
	],
	"meshes":[
		{
			"name":"Cube.008",
			"primitives":[
				{
					"attributes":{
						"POSITION":0,
						"NORMAL":1,
						"TEXCOORD_0":2
					},
					"indices":3,
					"material":0
				}
			]
		},
		{
			"name":"Text.008",
			"primitives":[
				{
					"attributes":{
						"POSITION":4,
						"NORMAL":5,
						"TEXCOORD_0":6
					},
					"indices":7,
					"material":1
				}
			]
		}
	],
	"accessors":[
		{
			"bufferView":0,
			"componentType":5126,
			"count":24,
			"max":[
				1,
				1,
				1
			],
			"min":[
				-1,
				-1,
				-1
			],
			"type":"VEC3"
		},
		{
			"bufferView":1,
			"componentType":5126,
			"count":24,
			"type":"VEC3"
		},
		{
			"bufferView":2,
			"componentType":5126,
			"count":24,
			"type":"VEC2"
		},
		{
			"bufferView":3,
			"componentType":5123,
			"count":36,
			"type":"SCALAR"
		},
		{
			"bufferView":4,
			"componentType":5126,
			"count":5078,
			"max":[
				9.216110229492188,
				0.5299999713897705,
				0.048056259751319885
			],
			"min":[
				0.12000000476837158,
				-0.5299999713897705,
				-1.4120548963546753
			],
			"type":"VEC3"
		},
		{
			"bufferView":5,
			"componentType":5126,
			"count":5078,
			"type":"VEC3"
		},
		{
			"bufferView":6,
			"componentType":5126,
			"count":5078,
			"type":"VEC2"
		},
		{
			"bufferView":7,
			"componentType":5123,
			"count":25524,
			"type":"SCALAR"
		}
	],
	"bufferViews":[
		{
			"buffer":0,
			"byteLength":288,
			"byteOffset":0,
			"target":34962
		},
		{
			"buffer":0,
			"byteLength":288,
			"byteOffset":288,
			"target":34962
		},
		{
			"buffer":0,
			"byteLength":192,
			"byteOffset":576,
			"target":34962
		},
		{
			"buffer":0,
			"byteLength":72,
			"byteOffset":768,
			"target":34963
		},
		{
			"buffer":0,
			"byteLength":60936,
			"byteOffset":840,
			"target":34962
		},
		{
			"buffer":0,
			"byteLength":60936,
			"byteOffset":61776,
			"target":34962
		},
		{
			"buffer":0,
			"byteLength":40624,
			"byteOffset":122712,
			"target":34962
		},
		{
			"buffer":0,
			"byteLength":51048,
			"byteOffset":163336,
			"target":34963
		}
	],
	"buffers":[
		{
			"byteLength":214384,
			"uri":"biomes.bin"
		}
	]
}
