{
	"asset":{
		"generator":"Khronos glTF Blender I/O v3.6.27",
		"version":"2.0"
	},
	"scene":0,
	"scenes":[
		{
			"name":"Scene",
			"nodes":[
				0,
				1,
				2
			]
		}
	],
	"nodes":[
		{
			"mesh":0,
			"name":"Cube.009",
			"scale":[
				1.472381353378296,
				0.2777102589607239,
				0.6939638257026672
			],
			"translation":[
				0.5553009510040283,
				6.460392951965332,
				0.24875089526176453
			]
		},
		{
			"mesh":1,
			"name":"CEELS.009",
			"rotation":[
				0.70710688829422,
				0,
				0,
				0.7071066498756409
			],
			"scale":[
				0.18686795234680176,
				0.48072218894958496,
				0.1843050718307495
			],
			"translation":[
				-0.7004414796829224,
				6.367264747619629,
				0.9070954918861389
			]
		},
		{
			"mesh":2,
			"name":"Cone",
			"scale":[
				1.5517632961273193,
				0.6468464732170105,
				0.7870018482208252
			],
			"translation":[
				0.5520035624504089,
				7.325927734375,
				0.28163307905197144
			]
		}
	],
	"materials":[
		{
			"doubleSided":true,
			"name":"Material.009",
			"pbrMetallicRoughness":{
				"baseColorFactor":[
					0.7991030216217041,
					0.0018208454130217433,
					0.3324514925479889,
					1
				],
				"metallicFactor":0,
				"roughnessFactor":0.5
			}
		},
		{
			"doubleSided":true,
			"name":"Material.019",
			"pbrMetallicRoughness":{
				"baseColorFactor":[
					0.8039095997810364,
					0.7562480568885803,
					0.7562480568885803,
					1
				],
				"metallicFactor":0,
				"roughnessFactor":0.5
			}
		},
		{
			"doubleSided":true,
			"name":"Material.024",
			"pbrMetallicRoughness":{
				"baseColorFactor":[
					0.7991030216217041,
					0.0018208454130217433,
					0.3324514925479889,
					1
				],
				"metallicFactor":0,
				"roughnessFactor":0.5
			}
		}
	],
	"meshes":[
		{
			"name":"Cube.009",
			"primitives":[
				{
					"attributes":{
						"POSITION":0,
						"NORMAL":1,
						"TEXCOORD_0":2
					},
					"indices":3,
					"material":0
				}
			]
		},
		{
			"name":"Text.009",
			"primitives":[
				{
					"attributes":{
						"POSITION":4,
						"NORMAL":5,
						"TEXCOORD_0":6
					},
					"indices":7,
					"material":1
				}
			]
		},
		{
			"name":"Cone",
			"primitives":[
				{
					"attributes":{
						"POSITION":8,
						"NORMAL":9,
						"TEXCOORD_0":10
					},
					"indices":11,
					"material":2
				}
			]
		}
	],
	"accessors":[
		{
			"bufferView":0,
			"componentType":5126,
			"count":24,
			"max":[
				1,
				1,
				1
			],
			"min":[
				-1,
				-1,
				-1
			],
			"type":"VEC3"
		},
		{
			"bufferView":1,
			"componentType":5126,
			"count":24,
			"type":"VEC3"
		},
		{
			"bufferView":2,
			"componentType":5126,
			"count":24,
			"type":"VEC2"
		},
		{
			"bufferView":3,
			"componentType":5123,
			"count":36,
			"type":"SCALAR"
		},
		{
			"bufferView":4,
			"componentType":5126,
			"count":7398,
			"max":[
				13.845999717712402,
				0.5299999713897705,
				0.048056259751319885
			],
			"min":[
				0.12000000476837158,
				-0.5299999713897705,
				-1.4120548963546753
			],
			"type":"VEC3"
		},
		{
			"bufferView":5,
			"componentType":5126,
			"count":7398,
			"type":"VEC3"
		},
		{
			"bufferView":6,
			"componentType":5126,
			"count":7398,
			"type":"VEC2"
		},
		{
			"bufferView":7,
			"componentType":5123,
			"count":36960,
			"type":"SCALAR"
		},
		{
			"bufferView":8,
			"componentType":5126,
			"count":128,
			"max":[
				1,
				1,
				1
			],
			"min":[
				-1,
				-1,
				-1
			],
			"type":"VEC3"
		},
		{
			"bufferView":9,
			"componentType":5126,
			"count":128,
			"type":"VEC3"
		},
		{
			"bufferView":10,
			"componentType":5126,
			"count":128,
			"type":"VEC2"
		},
		{
			"bufferView":11,
			"componentType":5123,
			"count":186,
			"type":"SCALAR"
		}
	],
	"bufferViews":[
		{
			"buffer":0,
			"byteLength":288,
			"byteOffset":0,
			"target":34962
		},
		{
			"buffer":0,
			"byteLength":288,
			"byteOffset":288,
			"target":34962
		},
		{
			"buffer":0,
			"byteLength":192,
			"byteOffset":576,
			"target":34962
		},
		{
			"buffer":0,
			"byteLength":72,
			"byteOffset":768,
			"target":34963
		},
		{
			"buffer":0,
			"byteLength":88776,
			"byteOffset":840,
			"target":34962
		},
		{
			"buffer":0,
			"byteLength":88776,
			"byteOffset":89616,
			"target":34962
		},
		{
			"buffer":0,
			"byteLength":59184,
			"byteOffset":178392,
			"target":34962
		},
		{
			"buffer":0,
			"byteLength":73920,
			"byteOffset":237576,
			"target":34963
		},
		{
			"buffer":0,
			"byteLength":1536,
			"byteOffset":311496,
			"target":34962
		},
		{
			"buffer":0,
			"byteLength":1536,
			"byteOffset":313032,
			"target":34962
		},
		{
			"buffer":0,
			"byteLength":1024,
			"byteOffset":314568,
			"target":34962
		},
		{
			"buffer":0,
			"byteLength":372,
			"byteOffset":315592,
			"target":34963
		}
	],
	"buffers":[
		{
			"byteLength":315964,
			"uri":"biosphere.bin"
		}
	]
}
