{
	"asset":{
		"generator":"Khronos glTF Blender I/O v3.6.27",
		"version":"2.0"
	},
	"scene":0,
	"scenes":[
		{
			"name":"Scene",
			"nodes":[
				0,
				1
			]
		}
	],
	"nodes":[
		{
			"mesh":0,
			"name":"Cube",
			"scale":[
				5.211214065551758,
				0.33291783928871155,
				0.6615290641784668
			],
			"translation":[
				0.6496950387954712,
				-1.7833229303359985,
				0.20864173769950867
			]
		},
		{
			"mesh":1,
			"name":"CEELS",
			"rotation":[
				0.70710688829422,
				0,
				0,
				0.7071066498756409
			],
			"scale":[
				0.33291783928871155,
				0.6615290641784668,
				0.33291786909103394
			],
			"translation":[
				-0.544474720954895,
				-2.014225959777832,
				0.9580705165863037
			]
		}
	],
	"materials":[
		{
			"doubleSided":true,
			"name":"Material.007",
			"pbrMetallicRoughness":{
				"baseColorFactor":[
					0.8796226382255554,
					0.016953609883785248,
					0.014525793492794037,
					1
				],
				"metallicFactor":0,
				"roughnessFactor":0.5
			}
		},
		{
			"doubleSided":true,
			"name":"Material.008",
			"pbrMetallicRoughness":{
				"baseColorFactor":[
					0.8039095997810364,
					0.7507341504096985,
					0.7740157842636108,
					1
				],
				"metallicFactor":0,
				"roughnessFactor":0.5
			}
		}
	],
	"meshes":[
		{
			"name":"Cube.005",
			"primitives":[
				{
					"attributes":{
						"POSITION":0,
						"NORMAL":1,
						"TEXCOORD_0":2
					},
					"indices":3,
					"material":0
				}
			]
		},
		{
			"name":"Text",
			"primitives":[
				{
					"attributes":{
						"POSITION":4,
						"NORMAL":5,
						"TEXCOORD_0":6
					},
					"indices":7,
					"material":1
				}
			]
		}
	],
	"accessors":[
		{
			"bufferView":0,
			"componentType":5126,
			"count":24,
			"max":[
				1,
				1,
				1
			],
			"min":[
				-1,
				-1,
				-1
			],
			"type":"VEC3"
		},
		{
			"bufferView":1,
			"componentType":5126,
			"count":24,
			"type":"VEC3"
		},
		{
			"bufferView":2,
			"componentType":5126,
			"count":24,
			"type":"VEC2"
		},
		{
			"bufferView":3,
			"componentType":5123,
			"count":36,
			"type":"SCALAR"
		},
		{
			"bufferView":4,
			"componentType":5126,
			"count":3482,
			"max":[
				7.258110523223877,
				0.5299999713897705,
				0.048020463436841965
			],
			"min":[
				0.06593926250934601,
				-0.5299999713897705,
				-1.4120186567306519
			],
			"type":"VEC3"
		},
		{
			"bufferView":5,
			"componentType":5126,
			"count":3482,
			"type":"VEC3"
		},
		{
			"bufferView":6,
			"componentType":5126,
			"count":3482,
			"type":"VEC2"
		},
		{
			"bufferView":7,
			"componentType":5123,
			"count":17508,
			"type":"SCALAR"
		}
	],
	"bufferViews":[
		{
			"buffer":0,
			"byteLength":288,
			"byteOffset":0,
			"target":34962
		},
		{
			"buffer":0,
			"byteLength":288,
			"byteOffset":288,
			"target":34962
		},
		{
			"buffer":0,
			"byteLength":192,
			"byteOffset":576,
			"target":34962
		},
		{
			"buffer":0,
			"byteLength":72,
			"byteOffset":768,
			"target":34963
		},
		{
			"buffer":0,
			"byteLength":41784,
			"byteOffset":840,
			"target":34962
		},
		{
			"buffer":0,
			"byteLength":41784,
			"byteOffset":42624,
			"target":34962
		},
		{
			"buffer":0,
			"byteLength":27856,
			"byteOffset":84408,
			"target":34962
		},
		{
			"buffer":0,
			"byteLength":35016,
			"byteOffset":112264,
			"target":34963
		}
	],
	"buffers":[
		{
			"byteLength":147280,
			"uri":"cells.bin"
		}
	]
}
