{
	"asset":{
		"generator":"Khronos glTF Blender I/O v3.6.27",
		"version":"2.0"
	},
	"scene":0,
	"scenes":[
		{
			"name":"Scene",
			"nodes":[
				0,
				1
			]
		}
	],
	"nodes":[
		{
			"mesh":0,
			"name":"Cube.006",
			"scale":[
				2.6572179794311523,
				0.34559234976768494,
				0.6867141723632812
			],
			"translation":[
				0.6242290139198303,
				3.9236202239990234,
				0.2603569030761719
			]
		},
		{
			"mesh":1,
			"name":"CEELS.006",
			"rotation":[
				0.70710688829422,
				0,
				0,
				0.7071066498756409
			],
			"scale":[
				0.20998598635196686,
				0.4679684340953827,
				0.2262788563966751
			],
			"translation":[
				-1.1670398712158203,
				3.7980737686157227,
				0.980546236038208
			]
		}
	],
	"materials":[
		{
			"doubleSided":true,
			"name":"Material.006",
			"pbrMetallicRoughness":{
				"baseColorFactor":[
					0.80086749792099,
					0.05058042332530022,
					0.013716593384742737,
					1
				],
				"metallicFactor":0,
				"roughnessFactor":0.5
			}
		},
		{
			"doubleSided":true,
			"name":"Material.016",
			"pbrMetallicRoughness":{
				"baseColorFactor":[
					0.6857283711433411,
					0.8039095997810364,
					0.7807922959327698,
					1
				],
				"metallicFactor":0,
				"roughnessFactor":0.5
			}
		}
	],
	"meshes":[
		{
			"name":"Cube.006",
			"primitives":[
				{
					"attributes":{
						"POSITION":0,
						"NORMAL":1,
						"TEXCOORD_0":2
					},
					"indices":3,
					"material":0
				}
			]
		},
		{
			"name":"Text.006",
			"primitives":[
				{
					"attributes":{
						"POSITION":4,
						"NORMAL":5,
						"TEXCOORD_0":6
					},
					"indices":7,
					"material":1
				}
			]
		}
	],
	"accessors":[
		{
			"bufferView":0,
			"componentType":5126,
			"count":24,
			"max":[
				1,
				1,
				1
			],
			"min":[
				-1,
				-1,
				-1
			],
			"type":"VEC3"
		},
		{
			"bufferView":1,
			"componentType":5126,
			"count":24,
			"type":"VEC3"
		},
		{
			"bufferView":2,
			"componentType":5126,
			"count":24,
			"type":"VEC2"
		},
		{
			"bufferView":3,
			"componentType":5123,
			"count":36,
			"type":"SCALAR"
		},
		{
			"bufferView":4,
			"componentType":5126,
			"count":6622,
			"max":[
				18.25411033630371,
				0.5299999713897705,
				0.048056259751319885
			],
			"min":[
				0.06593926250934601,
				-0.5299999713897705,
				-1.4120548963546753
			],
			"type":"VEC3"
		},
		{
			"bufferView":5,
			"componentType":5126,
			"count":6622,
			"type":"VEC3"
		},
		{
			"bufferView":6,
			"componentType":5126,
			"count":6622,
			"type":"VEC2"
		},
		{
			"bufferView":7,
			"componentType":5123,
			"count":33144,
			"type":"SCALAR"
		}
	],
	"bufferViews":[
		{
			"buffer":0,
			"byteLength":288,
			"byteOffset":0,
			"target":34962
		},
		{
			"buffer":0,
			"byteLength":288,
			"byteOffset":288,
			"target":34962
		},
		{
			"buffer":0,
			"byteLength":192,
			"byteOffset":576,
			"target":34962
		},
		{
			"buffer":0,
			"byteLength":72,
			"byteOffset":768,
			"target":34963
		},
		{
			"buffer":0,
			"byteLength":79464,
			"byteOffset":840,
			"target":34962
		},
		{
			"buffer":0,
			"byteLength":79464,
			"byteOffset":80304,
			"target":34962
		},
		{
			"buffer":0,
			"byteLength":52976,
			"byteOffset":159768,
			"target":34962
		},
		{
			"buffer":0,
			"byteLength":66288,
			"byteOffset":212744,
			"target":34963
		}
	],
	"buffers":[
		{
			"byteLength":279032,
			"uri":"community.bin"
		}
	]
}
