{
	"asset":{
		"generator":"Khronos glTF Blender I/O v3.6.27",
		"version":"2.0"
	},
	"scene":0,
	"scenes":[
		{
			"name":"Scene",
			"nodes":[
				0,
				1
			]
		}
	],
	"nodes":[
		{
			"mesh":0,
			"name":"Cube.007",
			"scale":[
				2.1740145683288574,
				0.30855706334114075,
				0.637220561504364
			],
			"translation":[
				0.6297256946563721,
				4.839139938354492,
				0.22176048159599304
			]
		},
		{
			"mesh":1,
			"name":"CEELS.007",
			"rotation":[
				0.70710688829422,
				0,
				0,
				0.7071066498756409
			],
			"scale":[
				0.23510931432247162,
				0.5409680604934692,
				0.20740287005901337
			],
			"translation":[
				-1.0496002435684204,
				4.715399742126465,
				0.9030199646949768
			]
		}
	],
	"materials":[
		{
			"doubleSided":true,
			"name":"Material.005",
			"pbrMetallicRoughness":{
				"baseColorFactor":[
					0,
					0.0011018570512533188,
					0.760524570941925,
					1
				],
				"metallicFactor":0,
				"roughnessFactor":0.5
			}
		},
		{
			"doubleSided":true,
			"name":"Material.017",
			"pbrMetallicRoughness":{
				"baseColorFactor":[
					0.7798664569854736,
					0.7562481760978699,
					0.8039097189903259,
					1
				],
				"metallicFactor":0,
				"roughnessFactor":0.5
			}
		}
	],
	"meshes":[
		{
			"name":"Cube.007",
			"primitives":[
				{
					"attributes":{
						"POSITION":0,
						"NORMAL":1,
						"TEXCOORD_0":2
					},
					"indices":3,
					"material":0
				}
			]
		},
		{
			"name":"Text.007",
			"primitives":[
				{
					"attributes":{
						"POSITION":4,
						"NORMAL":5,
						"TEXCOORD_0":6
					},
					"indices":7,
					"material":1
				}
			]
		}
	],
	"accessors":[
		{
			"bufferView":0,
			"componentType":5126,
			"count":24,
			"max":[
				1,
				1,
				1
			],
			"min":[
				-1,
				-1,
				-1
			],
			"type":"VEC3"
		},
		{
			"bufferView":1,
			"componentType":5126,
			"count":24,
			"type":"VEC3"
		},
		{
			"bufferView":2,
			"componentType":5126,
			"count":24,
			"type":"VEC2"
		},
		{
			"bufferView":3,
			"componentType":5123,
			"count":36,
			"type":"SCALAR"
		},
		{
			"bufferView":4,
			"componentType":5126,
			"count":7046,
			"max":[
				14.758000373840332,
				0.5299999713897705,
				0.048056259751319885
			],
			"min":[
				0.12000000476837158,
				-0.5299999713897705,
				-1.4120548963546753
			],
			"type":"VEC3"
		},
		{
			"bufferView":5,
			"componentType":5126,
			"count":7046,
			"type":"VEC3"
		},
		{
			"bufferView":6,
			"componentType":5126,
			"count":7046,
			"type":"VEC2"
		},
		{
			"bufferView":7,
			"componentType":5123,
			"count":35472,
			"type":"SCALAR"
		}
	],
	"bufferViews":[
		{
			"buffer":0,
			"byteLength":288,
			"byteOffset":0,
			"target":34962
		},
		{
			"buffer":0,
			"byteLength":288,
			"byteOffset":288,
			"target":34962
		},
		{
			"buffer":0,
			"byteLength":192,
			"byteOffset":576,
			"target":34962
		},
		{
			"buffer":0,
			"byteLength":72,
			"byteOffset":768,
			"target":34963
		},
		{
			"buffer":0,
			"byteLength":84552,
			"byteOffset":840,
			"target":34962
		},
		{
			"buffer":0,
			"byteLength":84552,
			"byteOffset":85392,
			"target":34962
		},
		{
			"buffer":0,
			"byteLength":56368,
			"byteOffset":169944,
			"target":34962
		},
		{
			"buffer":0,
			"byteLength":70944,
			"byteOffset":226312,
			"target":34963
		}
	],
	"buffers":[
		{
			"byteLength":297256,
			"uri":"ecosystem.bin"
		}
	]
}
