{
	"asset":{
		"generator":"Khronos glTF Blender I/O v3.6.27",
		"version":"2.0"
	},
	"scene":0,
	"scenes":[
		{
			"name":"Scene",
			"nodes":[
				0,
				1
			]
		}
	],
	"nodes":[
		{
			"mesh":0,
			"name":"Cube.002",
			"scale":[
				4.277289867401123,
				0.33291783928871155,
				0.6615290641784668
			],
			"translation":[
				0.6496950387954712,
				0.10124428570270538,
				0.20864173769950867
			]
		},
		{
			"mesh":1,
			"name":"CEELS.002",
			"rotation":[
				0.70710688829422,
				0,
				0,
				0.7071066498756409
			],
			"scale":[
				0.32104620337486267,
				0.6379392743110657,
				0.32104623317718506
			],
			"translation":[
				-1.1596415042877197,
				-0.1307850331068039,
				0.9580705165863037
			]
		}
	],
	"materials":[
		{
			"doubleSided":true,
			"name":"Material.003",
			"pbrMetallicRoughness":{
				"baseColorFactor":[
					0.07421333342790604,
					0.014714574441313744,
					0.8631572127342224,
					1
				],
				"metallicFactor":0,
				"roughnessFactor":0.5
			}
		},
		{
			"doubleSided":true,
			"name":"Material.012",
			"pbrMetallicRoughness":{
				"baseColorFactor":[
					0.8039095997810364,
					0.695224940776825,
					0.6313996315002441,
					1
				],
				"metallicFactor":0,
				"roughnessFactor":0.5
			}
		}
	],
	"meshes":[
		{
			"name":"Cube.002",
			"primitives":[
				{
					"attributes":{
						"POSITION":0,
						"NORMAL":1,
						"TEXCOORD_0":2
					},
					"indices":3,
					"material":0
				}
			]
		},
		{
			"name":"Text.002",
			"primitives":[
				{
					"attributes":{
						"POSITION":4,
						"NORMAL":5,
						"TEXCOORD_0":6
					},
					"indices":7,
					"material":1
				}
			]
		}
	],
	"accessors":[
		{
			"bufferView":0,
			"componentType":5126,
			"count":24,
			"max":[
				1,
				1,
				1
			],
			"min":[
				-1,
				-1,
				-1
			],
			"type":"VEC3"
		},
		{
			"bufferView":1,
			"componentType":5126,
			"count":24,
			"type":"VEC3"
		},
		{
			"bufferView":2,
			"componentType":5126,
			"count":24,
			"type":"VEC2"
		},
		{
			"bufferView":3,
			"componentType":5123,
			"count":36,
			"type":"SCALAR"
		},
		{
			"bufferView":4,
			"componentType":5126,
			"count":6217,
			"max":[
				10.61211109161377,
				0.5299999713897705,
				0.048056259751319885
			],
			"min":[
				0.05993916094303131,
				-0.5299999713897705,
				-1.4120548963546753
			],
			"type":"VEC3"
		},
		{
			"bufferView":5,
			"componentType":5126,
			"count":6217,
			"type":"VEC3"
		},
		{
			"bufferView":6,
			"componentType":5126,
			"count":6217,
			"type":"VEC2"
		},
		{
			"bufferView":7,
			"componentType":5123,
			"count":31284,
			"type":"SCALAR"
		}
	],
	"bufferViews":[
		{
			"buffer":0,
			"byteLength":288,
			"byteOffset":0,
			"target":34962
		},
		{
			"buffer":0,
			"byteLength":288,
			"byteOffset":288,
			"target":34962
		},
		{
			"buffer":0,
			"byteLength":192,
			"byteOffset":576,
			"target":34962
		},
		{
			"buffer":0,
			"byteLength":72,
			"byteOffset":768,
			"target":34963
		},
		{
			"buffer":0,
			"byteLength":74604,
			"byteOffset":840,
			"target":34962
		},
		{
			"buffer":0,
			"byteLength":74604,
			"byteOffset":75444,
			"target":34962
		},
		{
			"buffer":0,
			"byteLength":49736,
			"byteOffset":150048,
			"target":34962
		},
		{
			"buffer":0,
			"byteLength":62568,
			"byteOffset":199784,
			"target":34963
		}
	],
	"buffers":[
		{
			"byteLength":262352,
			"uri":"organs.bin"
		}
	]
}
