{
	"asset":{
		"generator":"Khronos glTF Blender I/O v3.6.27",
		"version":"2.0"
	},
	"scene":0,
	"scenes":[
		{
			"name":"Scene",
			"nodes":[
				0,
				1
			]
		}
	],
	"nodes":[
		{
			"mesh":0,
			"name":"Cube.003",
			"scale":[
				3.8652584552764893,
				0.3480922281742096,
				0.6916815638542175
			],
			"translation":[
				0.6496950387954712,
				1.0491464138031006,
				0.20864173769950867
			]
		},
		{
			"mesh":1,
			"name":"CEELS.003",
			"rotation":[
				0.70710688829422,
				0,
				0,
				0.7071066498756409
			],
			"scale":[
				0.2484132945537567,
				0.493613064289093,
				0.2484132945537567
			],
			"translation":[
				-1.7512147426605225,
				0.878599226474762,
				0.9895415306091309
			]
		}
	],
	"materials":[
		{
			"doubleSided":true,
			"name":"Material.001",
			"pbrMetallicRoughness":{
				"baseColorFactor":[
					0,
					0.2265777438879013,
					0.02089519053697586,
					1
				],
				"metallicFactor":0,
				"roughnessFactor":0.5
			}
		},
		{
			"doubleSided":true,
			"name":"Material.013",
			"pbrMetallicRoughness":{
				"baseColorFactor":[
					0.768004298210144,
					0.7330520153045654,
					0.8039095997810364,
					1
				],
				"metallicFactor":0,
				"roughnessFactor":0.5
			}
		}
	],
	"meshes":[
		{
			"name":"Cube.003",
			"primitives":[
				{
					"attributes":{
						"POSITION":0,
						"NORMAL":1,
						"TEXCOORD_0":2
					},
					"indices":3,
					"material":0
				}
			]
		},
		{
			"name":"Text.003",
			"primitives":[
				{
					"attributes":{
						"POSITION":4,
						"NORMAL":5,
						"TEXCOORD_0":6
					},
					"indices":7,
					"material":1
				}
			]
		}
	],
	"accessors":[
		{
			"bufferView":0,
			"componentType":5126,
			"count":24,
			"max":[
				1,
				1,
				1
			],
			"min":[
				-1,
				-1,
				-1
			],
			"type":"VEC3"
		},
		{
			"bufferView":1,
			"componentType":5126,
			"count":24,
			"type":"VEC3"
		},
		{
			"bufferView":2,
			"componentType":5126,
			"count":24,
			"type":"VEC2"
		},
		{
			"bufferView":3,
			"componentType":5123,
			"count":36,
			"type":"SCALAR"
		},
		{
			"bufferView":4,
			"componentType":5126,
			"count":8604,
			"max":[
				19.98200035095215,
				0.5299999713897705,
				0.048056259751319885
			],
			"min":[
				0.05993916094303131,
				-0.5299999713897705,
				-1.4120548963546753
			],
			"type":"VEC3"
		},
		{
			"bufferView":5,
			"componentType":5126,
			"count":8604,
			"type":"VEC3"
		},
		{
			"bufferView":6,
			"componentType":5126,
			"count":8604,
			"type":"VEC2"
		},
		{
			"bufferView":7,
			"componentType":5123,
			"count":43176,
			"type":"SCALAR"
		}
	],
	"bufferViews":[
		{
			"buffer":0,
			"byteLength":288,
			"byteOffset":0,
			"target":34962
		},
		{
			"buffer":0,
			"byteLength":288,
			"byteOffset":288,
			"target":34962
		},
		{
			"buffer":0,
			"byteLength":192,
			"byteOffset":576,
			"target":34962
		},
		{
			"buffer":0,
			"byteLength":72,
			"byteOffset":768,
			"target":34963
		},
		{
			"buffer":0,
			"byteLength":103248,
			"byteOffset":840,
			"target":34962
		},
		{
			"buffer":0,
			"byteLength":103248,
			"byteOffset":104088,
			"target":34962
		},
		{
			"buffer":0,
			"byteLength":68832,
			"byteOffset":207336,
			"target":34962
		},
		{
			"buffer":0,
			"byteLength":86352,
			"byteOffset":276168,
			"target":34963
		}
	],
	"buffers":[
		{
			"byteLength":362520,
			"uri":"organsystem.bin"
		}
	]
}
