{
	"asset":{
		"generator":"Khronos glTF Blender I/O v3.6.27",
		"version":"2.0"
	},
	"scene":0,
	"scenes":[
		{
			"name":"Scene",
			"nodes":[
				0,
				1
			]
		}
	],
	"nodes":[
		{
			"mesh":0,
			"name":"Cube.004",
			"scale":[
				3.4568309783935547,
				0.3480922281742096,
				0.6916815638542175
			],
			"translation":[
				0.6496950387954712,
				2.0506858825683594,
				0.20864173769950867
			]
		},
		{
			"mesh":1,
			"name":"CEELS.004",
			"rotation":[
				0.70710688829422,
				0,
				0,
				0.7071066498756409
			],
			"scale":[
				0.2796558737754822,
				0.555694043636322,
				0.28666096925735474
			],
			"translation":[
				-1.4890120029449463,
				1.8406869173049927,
				0.9300901293754578
			]
		}
	],
	"materials":[
		{
			"doubleSided":true,
			"name":"Material.004",
			"pbrMetallicRoughness":{
				"baseColorFactor":[
					0.80086749792099,
					0.08132191747426987,
					0.3409431278705597,
					1
				],
				"metallicFactor":0,
				"roughnessFactor":0.5
			}
		},
		{
			"doubleSided":true,
			"name":"Material.014",
			"pbrMetallicRoughness":{
				"baseColorFactor":[
					0.7537211179733276,
					0.8039095997810364,
					0.7507341504096985,
					1
				],
				"metallicFactor":0,
				"roughnessFactor":0.5
			}
		}
	],
	"meshes":[
		{
			"name":"Cube.004",
			"primitives":[
				{
					"attributes":{
						"POSITION":0,
						"NORMAL":1,
						"TEXCOORD_0":2
					},
					"indices":3,
					"material":0
				}
			]
		},
		{
			"name":"Text.004",
			"primitives":[
				{
					"attributes":{
						"POSITION":4,
						"NORMAL":5,
						"TEXCOORD_0":6
					},
					"indices":7,
					"material":1
				}
			]
		}
	],
	"accessors":[
		{
			"bufferView":0,
			"componentType":5126,
			"count":24,
			"max":[
				1,
				1,
				1
			],
			"min":[
				-1,
				-1,
				-1
			],
			"type":"VEC3"
		},
		{
			"bufferView":1,
			"componentType":5126,
			"count":24,
			"type":"VEC3"
		},
		{
			"bufferView":2,
			"componentType":5126,
			"count":24,
			"type":"VEC2"
		},
		{
			"bufferView":3,
			"componentType":5123,
			"count":36,
			"type":"SCALAR"
		},
		{
			"bufferView":4,
			"componentType":5126,
			"count":8227,
			"max":[
				15.09011173248291,
				0.5299999713897705,
				0.048056259751319885
			],
			"min":[
				0.05993916094303131,
				-0.5299999713897705,
				-1.4120548963546753
			],
			"type":"VEC3"
		},
		{
			"bufferView":5,
			"componentType":5126,
			"count":8227,
			"type":"VEC3"
		},
		{
			"bufferView":6,
			"componentType":5126,
			"count":8227,
			"type":"VEC2"
		},
		{
			"bufferView":7,
			"componentType":5123,
			"count":41400,
			"type":"SCALAR"
		}
	],
	"bufferViews":[
		{
			"buffer":0,
			"byteLength":288,
			"byteOffset":0,
			"target":34962
		},
		{
			"buffer":0,
			"byteLength":288,
			"byteOffset":288,
			"target":34962
		},
		{
			"buffer":0,
			"byteLength":192,
			"byteOffset":576,
			"target":34962
		},
		{
			"buffer":0,
			"byteLength":72,
			"byteOffset":768,
			"target":34963
		},
		{
			"buffer":0,
			"byteLength":98724,
			"byteOffset":840,
			"target":34962
		},
		{
			"buffer":0,
			"byteLength":98724,
			"byteOffset":99564,
			"target":34962
		},
		{
			"buffer":0,
			"byteLength":65816,
			"byteOffset":198288,
			"target":34962
		},
		{
			"buffer":0,
			"byteLength":82800,
			"byteOffset":264104,
			"target":34963
		}
	],
	"buffers":[
		{
			"byteLength":346904,
			"uri":"organisms.bin"
		}
	]
}
