{
	"asset":{
		"generator":"Khronos glTF Blender I/O v3.6.27",
		"version":"2.0"
	},
	"scene":0,
	"scenes":[
		{
			"name":"Scene",
			"nodes":[
				0,
				1
			]
		}
	],
	"nodes":[
		{
			"mesh":0,
			"name":"Cube.005",
			"scale":[
				3.118992328643799,
				0.34559234976768494,
				0.6867141723632812
			],
			"translation":[
				0.6242290139198303,
				3.016598701477051,
				0.2603569030761719
			]
		},
		{
			"mesh":1,
			"name":"CEELS.005",
			"rotation":[
				0.70710688829422,
				0,
				0,
				0.7071066498756409
			],
			"scale":[
				0.23691530525684357,
				0.6094731688499451,
				0.24284975230693817
			],
			"translation":[
				-1.370912790298462,
				2.883664131164551,
				0.994530439376831
			]
		}
	],
	"materials":[
		{
			"doubleSided":true,
			"name":"Material.042",
			"pbrMetallicRoughness":{
				"baseColorFactor":[
					0.09297717362642288,
					0.037857890129089355,
					0.80086749792099,
					1
				],
				"metallicFactor":0,
				"roughnessFactor":0.5
			}
		},
		{
			"doubleSided":true,
			"name":"Material.043",
			"pbrMetallicRoughness":{
				"baseColorFactor":[
					0.8039095997810364,
					0.6794193983078003,
					0.723243236541748,
					1
				],
				"metallicFactor":0,
				"roughnessFactor":0.5
			}
		}
	],
	"meshes":[
		{
			"name":"Cube.062",
			"primitives":[
				{
					"attributes":{
						"POSITION":0,
						"NORMAL":1,
						"TEXCOORD_0":2
					},
					"indices":3,
					"material":0
				}
			]
		},
		{
			"name":"Text.019",
			"primitives":[
				{
					"attributes":{
						"POSITION":4,
						"NORMAL":5,
						"TEXCOORD_0":6
					},
					"indices":7,
					"material":1
				}
			]
		}
	],
	"accessors":[
		{
			"bufferView":0,
			"componentType":5126,
			"count":24,
			"max":[
				1,
				1,
				1
			],
			"min":[
				-1,
				-1,
				-1
			],
			"type":"VEC3"
		},
		{
			"bufferView":1,
			"componentType":5126,
			"count":24,
			"type":"VEC3"
		},
		{
			"bufferView":2,
			"componentType":5126,
			"count":24,
			"type":"VEC2"
		},
		{
			"bufferView":3,
			"componentType":5123,
			"count":36,
			"type":"SCALAR"
		},
		{
			"bufferView":4,
			"componentType":5126,
			"count":7797,
			"max":[
				18.214109420776367,
				0.5299999713897705,
				0.048056259751319885
			],
			"min":[
				0.10999999940395355,
				-0.5299999713897705,
				-1.4120548963546753
			],
			"type":"VEC3"
		},
		{
			"bufferView":5,
			"componentType":5126,
			"count":7797,
			"type":"VEC3"
		},
		{
			"bufferView":6,
			"componentType":5126,
			"count":7797,
			"type":"VEC2"
		},
		{
			"bufferView":7,
			"componentType":5123,
			"count":39024,
			"type":"SCALAR"
		}
	],
	"bufferViews":[
		{
			"buffer":0,
			"byteLength":288,
			"byteOffset":0,
			"target":34962
		},
		{
			"buffer":0,
			"byteLength":288,
			"byteOffset":288,
			"target":34962
		},
		{
			"buffer":0,
			"byteLength":192,
			"byteOffset":576,
			"target":34962
		},
		{
			"buffer":0,
			"byteLength":72,
			"byteOffset":768,
			"target":34963
		},
		{
			"buffer":0,
			"byteLength":93564,
			"byteOffset":840,
			"target":34962
		},
		{
			"buffer":0,
			"byteLength":93564,
			"byteOffset":94404,
			"target":34962
		},
		{
			"buffer":0,
			"byteLength":62376,
			"byteOffset":187968,
			"target":34962
		},
		{
			"buffer":0,
			"byteLength":78048,
			"byteOffset":250344,
			"target":34963
		}
	],
	"buffers":[
		{
			"byteLength":328392,
			"uri":"population.bin"
		}
	]
}
