{
	"asset":{
		"generator":"Khronos glTF Blender I/O v3.6.27",
		"version":"2.0"
	},
	"scene":0,
	"scenes":[
		{
			"name":"Scene",
			"nodes":[
				8
			]
		}
	],
	"nodes":[
		{
			"mesh":0,
			"name":"Object_5"
		},
		{
			"children":[
				0
			],
			"name":"_0",
			"rotation":[
				-0.05826444923877716,
				-0.06867992132902145,
				-0.0040179588831961155,
				0.9959278106689453
			],
			"scale":[
				0.9916356801986694,
				0.7424343228340149,
				0.5019732713699341
			],
			"translation":[
				0.4019359350204468,
				0.10669533163309097,
				0.1173185333609581
			]
		},
		{
			"mesh":1,
			"name":"Object_8",
			"translation":[
				3.267824649810791e-05,
				0,
				-7.055699825286865e-06
			]
		},
		{
			"children":[
				2
			],
			"name":"_1",
			"translation":[
				-87.94073486328125,
				-3.700359344482422,
				7.500000476837158
			]
		},
		{
			"children":[
				3
			],
			"name":"node_id63_3",
			"rotation":[
				-0.057852279394865036,
				-0.00029011195874772966,
				-0.00800006091594696,
				0.9982931017875671
			],
			"scale":[
				0.0020183499436825514,
				0.0020183504093438387,
				0.0020183499436825514
			],
			"translation":[
				0.8097030520439148,
				-0.009934531524777412,
				0.13729870319366455
			]
		},
		{
			"children":[
				1,
				4
			],
			"name":"root_2"
		},
		{
			"children":[
				5
			],
			"name":"GLTF_SceneRootNode",
			"rotation":[
				0.70710688829422,
				0,
				0,
				0.7071066498756409
			]
		},
		{
			"children":[
				6
			],
			"name":"root"
		},
		{
			"children":[
				7
			],
			"name":"Sketchfab_model",
			"rotation":[
				-0.70710688829422,
				0,
				0,
				0.7071066498756409
			]
		}
	],
	"materials":[
		{
			"doubleSided":true,
			"name":"Material.001",
			"pbrMetallicRoughness":{
				"baseColorTexture":{
					"index":0
				},
				"metallicFactor":0,
				"roughnessFactor":0.5
			}
		},
		{
			"doubleSided":true,
			"name":"Material.002",
			"pbrMetallicRoughness":{
				"metallicFactor":0,
				"roughnessFactor":0.5
			}
		}
	],
	"meshes":[
		{
			"name":"Object_0",
			"primitives":[
				{
					"attributes":{
						"POSITION":0,
						"NORMAL":1,
						"TEXCOORD_0":2,
						"TEXCOORD_1":3,
						"TEXCOORD_2":4
					},
					"indices":5,
					"material":0
				}
			]
		},
		{
			"name":"Object_1",
			"primitives":[
				{
					"attributes":{
						"POSITION":6,
						"NORMAL":7,
						"TEXCOORD_0":8,
						"TEXCOORD_1":9,
						"TEXCOORD_2":10
					},
					"indices":11,
					"material":1
				}
			]
		}
	],
	"textures":[
		{
			"sampler":0,
			"source":0
		}
	],
	"images":[
		{
			"mimeType":"image/png",
			"name":"1946_diffuse",
			"uri":"1946_diffuse.png"
		}
	],
	"accessors":[
		{
			"bufferView":0,
			"componentType":5126,
			"count":19822,
			"max":[
				0.4992901682853699,
				0.49806931614875793,
				0.15848615765571594
			],
			"min":[
				-0.49912145733833313,
				-0.4977976083755493,
				-0.15848615765571594
			],
			"type":"VEC3"
		},
		{
			"bufferView":1,
			"componentType":5126,
			"count":19822,
			"type":"VEC3"
		},
		{
			"bufferView":2,
			"componentType":5126,
			"count":19822,
			"type":"VEC2"
		},
		{
			"bufferView":3,
			"componentType":5126,
			"count":19822,
			"type":"VEC2"
		},
		{
			"bufferView":4,
			"componentType":5126,
			"count":19822,
			"type":"VEC2"
		},
		{
			"bufferView":5,
			"componentType":5123,
			"count":114342,
			"type":"SCALAR"
		},
		{
			"bufferView":6,
			"componentType":5126,
			"count":9922,
			"max":[
				175.35284423828125,
				10.836772918701172,
				0
			],
			"min":[
				0.5286230444908142,
				-3.4360499382019043,
				-15
			],
			"type":"VEC3"
		},
		{
			"bufferView":7,
			"componentType":5126,
			"count":9922,
			"type":"VEC3"
		},
		{
			"bufferView":8,
			"componentType":5126,
			"count":9922,
			"type":"VEC2"
		},
		{
			"bufferView":9,
			"componentType":5126,
			"count":9922,
			"type":"VEC2"
		},
		{
			"bufferView":10,
			"componentType":5126,
			"count":9922,
			"type":"VEC2"
		},
		{
			"bufferView":11,
			"componentType":5123,
			"count":26532,
			"type":"SCALAR"
		}
	],
	"bufferViews":[
		{
			"buffer":0,
			"byteLength":237864,
			"byteOffset":0,
			"target":34962
		},
		{
			"buffer":0,
			"byteLength":237864,
			"byteOffset":237864,
			"target":34962
		},
		{
			"buffer":0,
			"byteLength":158576,
			"byteOffset":475728,
			"target":34962
		},
		{
			"buffer":0,
			"byteLength":158576,
			"byteOffset":634304,
			"target":34962
		},
		{
			"buffer":0,
			"byteLength":158576,
			"byteOffset":792880,
			"target":34962
		},
		{
			"buffer":0,
			"byteLength":228684,
			"byteOffset":951456,
			"target":34963
		},
		{
			"buffer":0,
			"byteLength":119064,
			"byteOffset":1180140,
			"target":34962
		},
		{
			"buffer":0,
			"byteLength":119064,
			"byteOffset":1299204,
			"target":34962
		},
		{
			"buffer":0,
			"byteLength":79376,
			"byteOffset":1418268,
			"target":34962
		},
		{
			"buffer":0,
			"byteLength":79376,
			"byteOffset":1497644,
			"target":34962
		},
		{
			"buffer":0,
			"byteLength":79376,
			"byteOffset":1577020,
			"target":34962
		},
		{
			"buffer":0,
			"byteLength":53064,
			"byteOffset":1656396,
			"target":34963
		}
	],
	"samplers":[
		{
			"magFilter":9729,
			"minFilter":9987
		}
	],
	"buffers":[
		{
			"byteLength":1709460,
			"uri":"tb.bin"
		}
	]
}
