{
	"asset":{
		"generator":"Khronos glTF Blender I/O v4.0.43",
		"version":"2.0"
	},
	"scene":0,
	"scenes":[
		{
			"name":"Scene",
			"nodes":[
				0,
				1
			]
		}
	],
	"nodes":[
		{
			"mesh":0,
			"name":"Cube.008",
			"scale":[
				0.8685943484306335,
				0.11960650980472565,
				0.3075847625732422
			],
			"translation":[
				0.30196690559387207,
				3.2571606636047363,
				0.3817134201526642
			]
		},
		{
			"mesh":1,
			"name":"CEELS.008",
			"rotation":[
				0.7071068286895752,
				0,
				0,
				0.7071068286895752
			],
			"scale":[
				0.07368019968271255,
				0.15840600430965424,
				0.08695439249277115
			],
			"translation":[
				-0.06291604042053223,
				3.198408603668213,
				0.7194325923919678
			]
		}
	],
	"materials":[
		{
			"doubleSided":true,
			"name":"Material.002",
			"pbrMetallicRoughness":{
				"baseColorFactor":[
					0.8008674383163452,
					0.6242580413818359,
					0.1247282326221466,
					1
				],
				"metallicFactor":0,
				"roughnessFactor":0.5
			}
		},
		{
			"doubleSided":true,
			"name":"Material.018",
			"pbrMetallicRoughness":{
				"baseColorFactor":[
					0.03500047326087952,
					0.8039093613624573,
					0.03482569754123688,
					1
				],
				"metallicFactor":0,
				"roughnessFactor":0.5
			}
		}
	],
	"meshes":[
		{
			"name":"Cube.008",
			"primitives":[
				{
					"attributes":{
						"POSITION":0,
						"NORMAL":1,
						"TEXCOORD_0":2
					},
					"indices":3,
					"material":0
				}
			]
		},
		{
			"name":"Text.008",
			"primitives":[
				{
					"attributes":{
						"POSITION":4,
						"NORMAL":5,
						"TEXCOORD_0":6
					},
					"indices":7,
					"material":1
				}
			]
		}
	],
	"accessors":[
		{
			"bufferView":0,
			"componentType":5126,
			"count":24,
			"max":[
				1,
				1,
				1
			],
			"min":[
				-1,
				-1,
				-1
			],
			"type":"VEC3"
		},
		{
			"bufferView":1,
			"componentType":5126,
			"count":24,
			"type":"VEC3"
		},
		{
			"bufferView":2,
			"componentType":5126,
			"count":24,
			"type":"VEC2"
		},
		{
			"bufferView":3,
			"componentType":5123,
			"count":36,
			"type":"SCALAR"
		},
		{
			"bufferView":4,
			"componentType":5126,
			"count":5078,
			"max":[
				9.216110229492188,
				0.5299999713897705,
				0.048056259751319885
			],
			"min":[
				0.12000000476837158,
				-0.5299999713897705,
				-1.4120548963546753
			],
			"type":"VEC3"
		},
		{
			"bufferView":5,
			"componentType":5126,
			"count":5078,
			"type":"VEC3"
		},
		{
			"bufferView":6,
			"componentType":5126,
			"count":5078,
			"type":"VEC2"
		},
		{
			"bufferView":7,
			"componentType":5123,
			"count":25524,
			"type":"SCALAR"
		}
	],
	"bufferViews":[
		{
			"buffer":0,
			"byteLength":288,
			"byteOffset":0,
			"target":34962
		},
		{
			"buffer":0,
			"byteLength":288,
			"byteOffset":288,
			"target":34962
		},
		{
			"buffer":0,
			"byteLength":192,
			"byteOffset":576,
			"target":34962
		},
		{
			"buffer":0,
			"byteLength":72,
			"byteOffset":768,
			"target":34963
		},
		{
			"buffer":0,
			"byteLength":60936,
			"byteOffset":840,
			"target":34962
		},
		{
			"buffer":0,
			"byteLength":60936,
			"byteOffset":61776,
			"target":34962
		},
		{
			"buffer":0,
			"byteLength":40624,
			"byteOffset":122712,
			"target":34962
		},
		{
			"buffer":0,
			"byteLength":51048,
			"byteOffset":163336,
			"target":34963
		}
	],
	"buffers":[
		{
			"byteLength":214384,
			"uri":"biomes.bin"
		}
	]
}
