{
	"asset":{
		"generator":"Khronos glTF Blender I/O v4.0.43",
		"version":"2.0"
	},
	"scene":0,
	"scenes":[
		{
			"name":"Scene",
			"nodes":[
				0,
				1
			]
		}
	],
	"nodes":[
		{
			"mesh":0,
			"name":"Cube.001",
			"scale":[
				2.1826212406158447,
				0.1547936052083969,
				0.3075847625732422
			],
			"translation":[
				0.30196690559387207,
				0.7376742959022522,
				0.3817134201526642
			]
		},
		{
			"mesh":1,
			"name":"CEELS.001",
			"rotation":[
				0.7071068286895752,
				0,
				0,
				0.7071068286895752
			],
			"scale":[
				0.1547936052083969,
				0.3075847625732422,
				0.1547936052083969
			],
			"translation":[
				-0.4585082530975342,
				0.6341720223426819,
				0.7301680445671082
			]
		}
	],
	"materials":[
		{
			"doubleSided":true,
			"name":"Material.002",
			"pbrMetallicRoughness":{
				"baseColorFactor":[
					0.8008674383163452,
					0.6242580413818359,
					0.1247282326221466,
					1
				],
				"metallicFactor":0,
				"roughnessFactor":0.5
			}
		},
		{
			"doubleSided":true,
			"name":"Material.011",
			"pbrMetallicRoughness":{
				"baseColorFactor":[
					0.03500047326087952,
					0.8039093613624573,
					0.03482569754123688,
					1
				],
				"metallicFactor":0,
				"roughnessFactor":0.5
			}
		}
	],
	"meshes":[
		{
			"name":"Cube.001",
			"primitives":[
				{
					"attributes":{
						"POSITION":0,
						"NORMAL":1,
						"TEXCOORD_0":2
					},
					"indices":3,
					"material":0
				}
			]
		},
		{
			"name":"Text.001",
			"primitives":[
				{
					"attributes":{
						"POSITION":4,
						"NORMAL":5,
						"TEXCOORD_0":6
					},
					"indices":7,
					"material":1
				}
			]
		}
	],
	"accessors":[
		{
			"bufferView":0,
			"componentType":5126,
			"count":24,
			"max":[
				1,
				1,
				1
			],
			"min":[
				-1,
				-1,
				-1
			],
			"type":"VEC3"
		},
		{
			"bufferView":1,
			"componentType":5126,
			"count":24,
			"type":"VEC3"
		},
		{
			"bufferView":2,
			"componentType":5126,
			"count":24,
			"type":"VEC2"
		},
		{
			"bufferView":3,
			"componentType":5123,
			"count":36,
			"type":"SCALAR"
		},
		{
			"bufferView":4,
			"componentType":5126,
			"count":6640,
			"max":[
				9.838111877441406,
				0.5299999713897705,
				0.048033103346824646
			],
			"min":[
				0.004000002518296242,
				-0.5299999713897705,
				-1.4120186567306519
			],
			"type":"VEC3"
		},
		{
			"bufferView":5,
			"componentType":5126,
			"count":6640,
			"type":"VEC3"
		},
		{
			"bufferView":6,
			"componentType":5126,
			"count":6640,
			"type":"VEC2"
		},
		{
			"bufferView":7,
			"componentType":5123,
			"count":33612,
			"type":"SCALAR"
		}
	],
	"bufferViews":[
		{
			"buffer":0,
			"byteLength":288,
			"byteOffset":0,
			"target":34962
		},
		{
			"buffer":0,
			"byteLength":288,
			"byteOffset":288,
			"target":34962
		},
		{
			"buffer":0,
			"byteLength":192,
			"byteOffset":576,
			"target":34962
		},
		{
			"buffer":0,
			"byteLength":72,
			"byteOffset":768,
			"target":34963
		},
		{
			"buffer":0,
			"byteLength":79680,
			"byteOffset":840,
			"target":34962
		},
		{
			"buffer":0,
			"byteLength":79680,
			"byteOffset":80520,
			"target":34962
		},
		{
			"buffer":0,
			"byteLength":53120,
			"byteOffset":160200,
			"target":34962
		},
		{
			"buffer":0,
			"byteLength":67224,
			"byteOffset":213320,
			"target":34963
		}
	],
	"buffers":[
		{
			"byteLength":280544,
			"uri":"tissues.bin"
		}
	]
}
