{
	"asset":{
		"generator":"Khronos glTF Blender I/O v3.6.27",
		"version":"2.0"
	},
	"extensionsUsed":[
		"KHR_materials_specular",
		"KHR_materials_ior"
	],
	"scene":0,
	"scenes":[
		{
			"name":"Scene",
			"nodes":[
				0
			]
		}
	],
	"nodes":[
		{
			"mesh":0,
			"name":"condenser",
			"translation":[
				0,
				0.13054977357387543,
				0.01805155538022518
			]
		}
	],
	"materials":[
		{
			"doubleSided":true,
			"name":"black plastic",
			"pbrMetallicRoughness":{
				"baseColorFactor":[
					0.0056046294048428535,
					0.0056046294048428535,
					0.0056046294048428535,
					1
				],
				"metallicFactor":0,
				"roughnessFactor":0.6166667342185974
			}
		},
		{
			"doubleSided":true,
			"name":"glass",
			"pbrMetallicRoughness":{
				"baseColorFactor":[
					0.38437479734420776,
					0.3731274902820587,
					0.3731274902820587,
					1
				],
				"metallicFactor":0,
				"roughnessFactor":0
			}
		},
		{
			"doubleSided":true,
			"extensions":{
				"KHR_materials_specular":{
					"specularColorFactor":[
						0.948543059910952,
						0.948543059910952,
						0.948543059910952
					]
				},
				"KHR_materials_ior":{
					"ior":1.4500000476837158
				}
			},
			"name":"metal.002",
			"pbrMetallicRoughness":{
				"baseColorFactor":[
					0.5925782918930054,
					0.5925782918930054,
					0.5925782918930054,
					1
				],
				"roughnessFactor":0.4833333194255829
			}
		}
	],
	"meshes":[
		{
			"name":"Cylinder.014",
			"primitives":[
				{
					"attributes":{
						"POSITION":0,
						"NORMAL":1,
						"TEXCOORD_0":2
					},
					"indices":3,
					"material":0
				},
				{
					"attributes":{
						"POSITION":4,
						"NORMAL":5,
						"TEXCOORD_0":6
					},
					"indices":7,
					"material":1
				},
				{
					"attributes":{
						"POSITION":8,
						"NORMAL":9,
						"TEXCOORD_0":10
					},
					"indices":11,
					"material":2
				}
			]
		}
	],
	"accessors":[
		{
			"bufferView":0,
			"componentType":5126,
			"count":2988,
			"max":[
				0.024995794519782066,
				0.02030831016600132,
				0.024995794519782066
			],
			"min":[
				-0.024995794519782066,
				-0.027060750871896744,
				-0.024995800107717514
			],
			"type":"VEC3"
		},
		{
			"bufferView":1,
			"componentType":5126,
			"count":2988,
			"type":"VEC3"
		},
		{
			"bufferView":2,
			"componentType":5126,
			"count":2988,
			"type":"VEC2"
		},
		{
			"bufferView":3,
			"componentType":5123,
			"count":10560,
			"type":"SCALAR"
		},
		{
			"bufferView":4,
			"componentType":5126,
			"count":32,
			"max":[
				0.007413782179355621,
				0.019863499328494072,
				0.007413781713694334
			],
			"min":[
				-0.007413782179355621,
				0.019863499328494072,
				-0.007413783110678196
			],
			"type":"VEC3"
		},
		{
			"bufferView":5,
			"componentType":5126,
			"count":32,
			"type":"VEC3"
		},
		{
			"bufferView":6,
			"componentType":5126,
			"count":32,
			"type":"VEC2"
		},
		{
			"bufferView":7,
			"componentType":5123,
			"count":90,
			"type":"SCALAR"
		},
		{
			"bufferView":8,
			"componentType":5126,
			"count":669,
			"max":[
				0.026141250506043434,
				-0.011744935065507889,
				0.026141250506043434
			],
			"min":[
				-0.026141250506043434,
				-0.014848029240965843,
				-0.026141252368688583
			],
			"type":"VEC3"
		},
		{
			"bufferView":9,
			"componentType":5126,
			"count":669,
			"type":"VEC3"
		},
		{
			"bufferView":10,
			"componentType":5126,
			"count":669,
			"type":"VEC2"
		},
		{
			"bufferView":11,
			"componentType":5123,
			"count":2496,
			"type":"SCALAR"
		}
	],
	"bufferViews":[
		{
			"buffer":0,
			"byteLength":35856,
			"byteOffset":0,
			"target":34962
		},
		{
			"buffer":0,
			"byteLength":35856,
			"byteOffset":35856,
			"target":34962
		},
		{
			"buffer":0,
			"byteLength":23904,
			"byteOffset":71712,
			"target":34962
		},
		{
			"buffer":0,
			"byteLength":21120,
			"byteOffset":95616,
			"target":34963
		},
		{
			"buffer":0,
			"byteLength":384,
			"byteOffset":116736,
			"target":34962
		},
		{
			"buffer":0,
			"byteLength":384,
			"byteOffset":117120,
			"target":34962
		},
		{
			"buffer":0,
			"byteLength":256,
			"byteOffset":117504,
			"target":34962
		},
		{
			"buffer":0,
			"byteLength":180,
			"byteOffset":117760,
			"target":34963
		},
		{
			"buffer":0,
			"byteLength":8028,
			"byteOffset":117940,
			"target":34962
		},
		{
			"buffer":0,
			"byteLength":8028,
			"byteOffset":125968,
			"target":34962
		},
		{
			"buffer":0,
			"byteLength":5352,
			"byteOffset":133996,
			"target":34962
		},
		{
			"buffer":0,
			"byteLength":4992,
			"byteOffset":139348,
			"target":34963
		}
	],
	"buffers":[
		{
			"byteLength":144340,
			"uri":"diaphragm.bin"
		}
	]
}
