{
	"asset":{
		"generator":"Khronos glTF Blender I/O v3.6.27",
		"version":"2.0"
	},
	"scene":0,
	"scenes":[
		{
			"name":"Scene",
			"nodes":[
				0
			]
		}
	],
	"nodes":[
		{
			"mesh":0,
			"name":"Object_2.003",
			"rotation":[
				-0.70710688829422,
				0,
				0,
				0.7071066498756409
			],
			"scale":[
				0.021388405933976173,
				0.021388405933976173,
				0.021388405933976173
			],
			"translation":[
				3.6408166885375977,
				2.5404324531555176,
				0.4124108552932739
			]
		}
	],
	"materials":[
		{
			"doubleSided":true,
			"name":"Scene_-_Root",
			"pbrMetallicRoughness":{
				"baseColorFactor":[
					1,
					0.1494908481836319,
					0,
					1
				],
				"metallicFactor":0,
				"roughnessFactor":0.6000000238418579
			}
		}
	],
	"meshes":[
		{
			"name":"Object_0.001",
			"primitives":[
				{
					"attributes":{
						"POSITION":0,
						"NORMAL":1
					},
					"indices":2,
					"material":0
				}
			]
		}
	],
	"accessors":[
		{
			"bufferView":0,
			"componentType":5126,
			"count":32514,
			"max":[
				10,
				10,
				20
			],
			"min":[
				-10,
				-10,
				0
			],
			"type":"VEC3"
		},
		{
			"bufferView":1,
			"componentType":5126,
			"count":32514,
			"type":"VEC3"
		},
		{
			"bufferView":2,
			"componentType":5123,
			"count":195072,
			"type":"SCALAR"
		}
	],
	"bufferViews":[
		{
			"buffer":0,
			"byteLength":390168,
			"byteOffset":0,
			"target":34962
		},
		{
			"buffer":0,
			"byteLength":390168,
			"byteOffset":390168,
			"target":34962
		},
		{
			"buffer":0,
			"byteLength":390144,
			"byteOffset":780336,
			"target":34963
		}
	],
	"buffers":[
		{
			"byteLength":1170480,
			"uri":"sunny.bin"
		}
	]
}
