{
	"asset":{
		"generator":"Khronos glTF Blender I/O v3.6.27",
		"version":"2.0"
	},
	"scene":0,
	"scenes":[
		{
			"name":"Scene",
			"nodes":[
				0,
				1,
				2,
				3
			]
		}
	],
	"nodes":[
		{
			"mesh":0,
			"name":"focusknob.001",
			"rotation":[
				0.5,
				0.5,
				-0.5,
				0.5
			],
			"scale":[
				1,
				1.3673673868179321,
				1
			],
			"translation":[
				0,
				0.11087734997272491,
				-0.05045735090970993
			]
		},
		{
			"mesh":1,
			"name":"Text.006",
			"rotation":[
				0.70710688829422,
				0,
				0,
				0.7071066498756409
			],
			"scale":[
				0.011089053936302662,
				0.024601411074399948,
				0.013473321683704853
			],
			"translation":[
				0.1647382527589798,
				0.09326097369194031,
				-0.042128920555114746
			]
		},
		{
			"mesh":2,
			"name":"Cube.012",
			"scale":[
				0.05250706523656845,
				0.009707197546958923,
				9.999999747378752e-05
			],
			"translation":[
				0.20403262972831726,
				0.0981823205947876,
				-0.042631424963474274
			]
		},
		{
			"mesh":3,
			"name":"Cube.001",
			"scale":[
				0.0429159514605999,
				0.0010000000474974513,
				0
			],
			"translation":[
				0.10786811262369156,
				0.09768053889274597,
				-0.042310357093811035
			]
		}
	],
	"materials":[
		{
			"doubleSided":true,
			"name":"black plastic.041",
			"pbrMetallicRoughness":{
				"baseColorFactor":[
					0.0056046294048428535,
					0.0056046294048428535,
					0.0056046294048428535,
					1
				],
				"metallicFactor":0,
				"roughnessFactor":0.6166667342185974
			}
		},
		{
			"doubleSided":true,
			"name":"metal.022",
			"pbrMetallicRoughness":{
				"baseColorFactor":[
					0.5925782918930054,
					0.5925782918930054,
					0.5925782918930054,
					1
				],
				"roughnessFactor":0.4833333194255829
			}
		},
		{
			"doubleSided":true,
			"name":"black plastic.042",
			"pbrMetallicRoughness":{
				"baseColorFactor":[
					0.0056046294048428535,
					0.0056046294048428535,
					0.0056046294048428535,
					1
				],
				"metallicFactor":0,
				"roughnessFactor":0.6166667342185974
			}
		}
	],
	"meshes":[
		{
			"name":"Cylinder.006",
			"primitives":[
				{
					"attributes":{
						"POSITION":0,
						"NORMAL":1,
						"TEXCOORD_0":2
					},
					"indices":3,
					"material":0
				},
				{
					"attributes":{
						"POSITION":4,
						"NORMAL":5,
						"TEXCOORD_0":6
					},
					"indices":7,
					"material":1
				}
			]
		},
		{
			"name":"Text.006",
			"primitives":[
				{
					"attributes":{
						"POSITION":8,
						"NORMAL":9,
						"TEXCOORD_0":10
					},
					"indices":11,
					"material":2
				}
			]
		},
		{
			"name":"Cube.020",
			"primitives":[
				{
					"attributes":{
						"POSITION":12,
						"NORMAL":13,
						"TEXCOORD_0":14
					},
					"indices":15
				}
			]
		},
		{
			"name":"Cube.022",
			"primitives":[
				{
					"attributes":{
						"POSITION":16,
						"NORMAL":17,
						"TEXCOORD_0":18
					},
					"indices":15
				}
			]
		}
	],
	"accessors":[
		{
			"bufferView":0,
			"componentType":5126,
			"count":2720,
			"max":[
				0.018264196813106537,
				0.04705600440502167,
				0.01826419308781624
			],
			"min":[
				-0.018264198675751686,
				-0.04705600440502167,
				-0.018264200538396835
			],
			"type":"VEC3"
		},
		{
			"bufferView":1,
			"componentType":5126,
			"count":2720,
			"type":"VEC3"
		},
		{
			"bufferView":2,
			"componentType":5126,
			"count":2720,
			"type":"VEC2"
		},
		{
			"bufferView":3,
			"componentType":5123,
			"count":12480,
			"type":"SCALAR"
		},
		{
			"bufferView":4,
			"componentType":5126,
			"count":2332,
			"max":[
				0.008222662843763828,
				0.04789487645030022,
				0.008222660981118679
			],
			"min":[
				-0.008222666569054127,
				-0.04789487645030022,
				-0.008222668431699276
			],
			"type":"VEC3"
		},
		{
			"bufferView":5,
			"componentType":5126,
			"count":2332,
			"type":"VEC3"
		},
		{
			"bufferView":6,
			"componentType":5126,
			"count":2332,
			"type":"VEC2"
		},
		{
			"bufferView":7,
			"componentType":5123,
			"count":9972,
			"type":"SCALAR"
		},
		{
			"bufferView":8,
			"componentType":5126,
			"count":3378,
			"max":[
				7.172000408172607,
				0.010000000707805157,
				0.009000000543892384
			],
			"min":[
				0.04800000041723251,
				-0.010000000707805157,
				-0.6910000443458557
			],
			"type":"VEC3"
		},
		{
			"bufferView":9,
			"componentType":5126,
			"count":3378,
			"type":"VEC3"
		},
		{
			"bufferView":10,
			"componentType":5126,
			"count":3378,
			"type":"VEC2"
		},
		{
			"bufferView":11,
			"componentType":5123,
			"count":9960,
			"type":"SCALAR"
		},
		{
			"bufferView":12,
			"componentType":5126,
			"count":24,
			"max":[
				1,
				1,
				1
			],
			"min":[
				-1,
				-1,
				-1
			],
			"type":"VEC3"
		},
		{
			"bufferView":13,
			"componentType":5126,
			"count":24,
			"type":"VEC3"
		},
		{
			"bufferView":14,
			"componentType":5126,
			"count":24,
			"type":"VEC2"
		},
		{
			"bufferView":15,
			"componentType":5123,
			"count":36,
			"type":"SCALAR"
		},
		{
			"bufferView":16,
			"componentType":5126,
			"count":24,
			"max":[
				1,
				1,
				1
			],
			"min":[
				-1,
				-1,
				-1
			],
			"type":"VEC3"
		},
		{
			"bufferView":17,
			"componentType":5126,
			"count":24,
			"type":"VEC3"
		},
		{
			"bufferView":18,
			"componentType":5126,
			"count":24,
			"type":"VEC2"
		}
	],
	"bufferViews":[
		{
			"buffer":0,
			"byteLength":32640,
			"byteOffset":0,
			"target":34962
		},
		{
			"buffer":0,
			"byteLength":32640,
			"byteOffset":32640,
			"target":34962
		},
		{
			"buffer":0,
			"byteLength":21760,
			"byteOffset":65280,
			"target":34962
		},
		{
			"buffer":0,
			"byteLength":24960,
			"byteOffset":87040,
			"target":34963
		},
		{
			"buffer":0,
			"byteLength":27984,
			"byteOffset":112000,
			"target":34962
		},
		{
			"buffer":0,
			"byteLength":27984,
			"byteOffset":139984,
			"target":34962
		},
		{
			"buffer":0,
			"byteLength":18656,
			"byteOffset":167968,
			"target":34962
		},
		{
			"buffer":0,
			"byteLength":19944,
			"byteOffset":186624,
			"target":34963
		},
		{
			"buffer":0,
			"byteLength":40536,
			"byteOffset":206568,
			"target":34962
		},
		{
			"buffer":0,
			"byteLength":40536,
			"byteOffset":247104,
			"target":34962
		},
		{
			"buffer":0,
			"byteLength":27024,
			"byteOffset":287640,
			"target":34962
		},
		{
			"buffer":0,
			"byteLength":19920,
			"byteOffset":314664,
			"target":34963
		},
		{
			"buffer":0,
			"byteLength":288,
			"byteOffset":334584,
			"target":34962
		},
		{
			"buffer":0,
			"byteLength":288,
			"byteOffset":334872,
			"target":34962
		},
		{
			"buffer":0,
			"byteLength":192,
			"byteOffset":335160,
			"target":34962
		},
		{
			"buffer":0,
			"byteLength":72,
			"byteOffset":335352,
			"target":34963
		},
		{
			"buffer":0,
			"byteLength":288,
			"byteOffset":335424,
			"target":34962
		},
		{
			"buffer":0,
			"byteLength":288,
			"byteOffset":335712,
			"target":34962
		},
		{
			"buffer":0,
			"byteLength":192,
			"byteOffset":336000,
			"target":34962
		}
	],
	"buffers":[
		{
			"byteLength":336192,
			"uri":"coarse4.bin"
		}
	]
}
