{
	"asset":{
		"generator":"Khronos glTF Blender I/O v3.6.27",
		"version":"2.0"
	},
	"scene":0,
	"scenes":[
		{
			"name":"Scene",
			"nodes":[
				0,
				1,
				2,
				3
			]
		}
	],
	"nodes":[
		{
			"mesh":0,
			"name":"lamp",
			"scale":[
				0.5879647135734558,
				0.3177957832813263,
				0.747387707233429
			],
			"translation":[
				0,
				0.04807617887854576,
				0.018051600083708763
			]
		},
		{
			"mesh":1,
			"name":"Text.012",
			"rotation":[
				0.7071068286895752,
				0,
				0,
				0.7071068286895752
			],
			"scale":[
				0.011089053936302662,
				0.02460140734910965,
				0.013473319821059704
			],
			"translation":[
				0.14487957954406738,
				0.04533356800675392,
				0.018356163054704666
			]
		},
		{
			"mesh":2,
			"name":"Cube.024",
			"scale":[
				0.06759928166866302,
				0.0016545412363484502,
				0
			],
			"translation":[
				0.07955682277679443,
				0.049753133207559586,
				0.018174726516008377
			]
		},
		{
			"mesh":3,
			"name":"Cube.025",
			"scale":[
				0.042796939611434937,
				0.009707197546958923,
				9.999999747378752e-05
			],
			"translation":[
				0.1780511438846588,
				0.05025491490960121,
				0.01785365864634514
			]
		}
	],
	"materials":[
		{
			"doubleSided":true,
			"name":"black plastic",
			"pbrMetallicRoughness":{
				"baseColorFactor":[
					0.0056046294048428535,
					0.0056046294048428535,
					0.0056046294048428535,
					1
				],
				"metallicFactor":0,
				"roughnessFactor":0.6166667342185974
			}
		},
		{
			"doubleSided":true,
			"name":"glass",
			"pbrMetallicRoughness":{
				"baseColorFactor":[
					0.38437479734420776,
					0.3731274902820587,
					0.3731274902820587,
					1
				],
				"metallicFactor":0,
				"roughnessFactor":0
			}
		},
		{
			"doubleSided":true,
			"name":"black plastic.012",
			"pbrMetallicRoughness":{
				"baseColorFactor":[
					0.0056046294048428535,
					0.0056046294048428535,
					0.0056046294048428535,
					1
				],
				"metallicFactor":0,
				"roughnessFactor":0.6166667342185974
			}
		}
	],
	"meshes":[
		{
			"name":"Cylinder.006",
			"primitives":[
				{
					"attributes":{
						"POSITION":0,
						"NORMAL":1,
						"TEXCOORD_0":2
					},
					"indices":3,
					"material":0
				},
				{
					"attributes":{
						"POSITION":4,
						"NORMAL":5,
						"TEXCOORD_0":6
					},
					"indices":7,
					"material":1
				}
			]
		},
		{
			"name":"Text.012",
			"primitives":[
				{
					"attributes":{
						"POSITION":8,
						"NORMAL":9,
						"TEXCOORD_0":10
					},
					"indices":11,
					"material":2
				}
			]
		},
		{
			"name":"Cube.032",
			"primitives":[
				{
					"attributes":{
						"POSITION":12,
						"NORMAL":13,
						"TEXCOORD_0":14
					},
					"indices":15
				}
			]
		},
		{
			"name":"Cube.033",
			"primitives":[
				{
					"attributes":{
						"POSITION":16,
						"NORMAL":17,
						"TEXCOORD_0":18
					},
					"indices":15
				}
			]
		}
	],
	"accessors":[
		{
			"bufferView":0,
			"componentType":5126,
			"count":1942,
			"max":[
				0.019641295075416565,
				0.04631847143173218,
				0.019641295075416565
			],
			"min":[
				-0.019641295075416565,
				-0.006713099777698517,
				-0.019641295075416565
			],
			"type":"VEC3"
		},
		{
			"bufferView":1,
			"componentType":5126,
			"count":1942,
			"type":"VEC3"
		},
		{
			"bufferView":2,
			"componentType":5126,
			"count":1942,
			"type":"VEC2"
		},
		{
			"bufferView":3,
			"componentType":5123,
			"count":6210,
			"type":"SCALAR"
		},
		{
			"bufferView":4,
			"componentType":5126,
			"count":315,
			"max":[
				0.012993721291422844,
				0.04500981792807579,
				0.012993721291422844
			],
			"min":[
				-0.01299372036010027,
				0.04377297684550285,
				-0.012993721291422844
			],
			"type":"VEC3"
		},
		{
			"bufferView":5,
			"componentType":5126,
			"count":315,
			"type":"VEC3"
		},
		{
			"bufferView":6,
			"componentType":5126,
			"count":315,
			"type":"VEC2"
		},
		{
			"bufferView":7,
			"componentType":5123,
			"count":1779,
			"type":"SCALAR"
		},
		{
			"bufferView":8,
			"componentType":5126,
			"count":1359,
			"max":[
				6.447999954223633,
				0.010000000707805157,
				0.009000000543892384
			],
			"min":[
				0.07600000500679016,
				-0.010000000707805157,
				-0.6910000443458557
			],
			"type":"VEC3"
		},
		{
			"bufferView":9,
			"componentType":5126,
			"count":1359,
			"type":"VEC3"
		},
		{
			"bufferView":10,
			"componentType":5126,
			"count":1359,
			"type":"VEC2"
		},
		{
			"bufferView":11,
			"componentType":5123,
			"count":3888,
			"type":"SCALAR"
		},
		{
			"bufferView":12,
			"componentType":5126,
			"count":24,
			"max":[
				1,
				1,
				1
			],
			"min":[
				-1,
				-1,
				-1
			],
			"type":"VEC3"
		},
		{
			"bufferView":13,
			"componentType":5126,
			"count":24,
			"type":"VEC3"
		},
		{
			"bufferView":14,
			"componentType":5126,
			"count":24,
			"type":"VEC2"
		},
		{
			"bufferView":15,
			"componentType":5123,
			"count":36,
			"type":"SCALAR"
		},
		{
			"bufferView":16,
			"componentType":5126,
			"count":24,
			"max":[
				1,
				1,
				1
			],
			"min":[
				-1,
				-1,
				-1
			],
			"type":"VEC3"
		},
		{
			"bufferView":17,
			"componentType":5126,
			"count":24,
			"type":"VEC3"
		},
		{
			"bufferView":18,
			"componentType":5126,
			"count":24,
			"type":"VEC2"
		}
	],
	"bufferViews":[
		{
			"buffer":0,
			"byteLength":23304,
			"byteOffset":0,
			"target":34962
		},
		{
			"buffer":0,
			"byteLength":23304,
			"byteOffset":23304,
			"target":34962
		},
		{
			"buffer":0,
			"byteLength":15536,
			"byteOffset":46608,
			"target":34962
		},
		{
			"buffer":0,
			"byteLength":12420,
			"byteOffset":62144,
			"target":34963
		},
		{
			"buffer":0,
			"byteLength":3780,
			"byteOffset":74564,
			"target":34962
		},
		{
			"buffer":0,
			"byteLength":3780,
			"byteOffset":78344,
			"target":34962
		},
		{
			"buffer":0,
			"byteLength":2520,
			"byteOffset":82124,
			"target":34962
		},
		{
			"buffer":0,
			"byteLength":3558,
			"byteOffset":84644,
			"target":34963
		},
		{
			"buffer":0,
			"byteLength":16308,
			"byteOffset":88204,
			"target":34962
		},
		{
			"buffer":0,
			"byteLength":16308,
			"byteOffset":104512,
			"target":34962
		},
		{
			"buffer":0,
			"byteLength":10872,
			"byteOffset":120820,
			"target":34962
		},
		{
			"buffer":0,
			"byteLength":7776,
			"byteOffset":131692,
			"target":34963
		},
		{
			"buffer":0,
			"byteLength":288,
			"byteOffset":139468,
			"target":34962
		},
		{
			"buffer":0,
			"byteLength":288,
			"byteOffset":139756,
			"target":34962
		},
		{
			"buffer":0,
			"byteLength":192,
			"byteOffset":140044,
			"target":34962
		},
		{
			"buffer":0,
			"byteLength":72,
			"byteOffset":140236,
			"target":34963
		},
		{
			"buffer":0,
			"byteLength":288,
			"byteOffset":140308,
			"target":34962
		},
		{
			"buffer":0,
			"byteLength":288,
			"byteOffset":140596,
			"target":34962
		},
		{
			"buffer":0,
			"byteLength":192,
			"byteOffset":140884,
			"target":34962
		}
	],
	"buffers":[
		{
			"byteLength":141076,
			"uri":"illuminator2.bin"
		}
	]
}
