{
	"asset":{
		"generator":"Khronos glTF Blender I/O v3.6.27",
		"version":"2.0"
	},
	"scene":0,
	"scenes":[
		{
			"name":"Scene",
			"nodes":[
				0,
				1,
				2,
				3
			]
		}
	],
	"nodes":[
		{
			"mesh":0,
			"name":"mesh_0_003-material",
			"scale":[
				4.6870856285095215,
				4.687086582183838,
				4.687086582183838
			],
			"translation":[
				26.26040267944336,
				-0.5783794522285461,
				-35.04086685180664
			]
		},
		{
			"mesh":1,
			"name":"mesh_1_003-material",
			"scale":[
				4.6870856285095215,
				4.687086582183838,
				4.687086582183838
			],
			"translation":[
				26.26040267944336,
				-0.5783794522285461,
				-35.04086685180664
			]
		},
		{
			"mesh":2,
			"name":"mesh_2_002-material",
			"scale":[
				4.6870856285095215,
				4.687086582183838,
				4.687086582183838
			],
			"translation":[
				26.26040267944336,
				-0.5783794522285461,
				-35.04086685180664
			]
		},
		{
			"mesh":3,
			"name":"mesh_3_002-material",
			"scale":[
				4.6870856285095215,
				4.687086582183838,
				4.687086582183838
			],
			"translation":[
				26.26040267944336,
				-0.5783794522285461,
				-35.04086685180664
			]
		}
	],
	"materials":[
		{
			"doubleSided":true,
			"name":"mesh_0.003",
			"pbrMetallicRoughness":{
				"baseColorTexture":{
					"index":0
				},
				"metallicFactor":0,
				"roughnessFactor":0.6000000238418579
			}
		},
		{
			"doubleSided":true,
			"name":"mesh_1.003",
			"pbrMetallicRoughness":{
				"baseColorTexture":{
					"index":1
				},
				"metallicFactor":0,
				"roughnessFactor":0.6000000238418579
			}
		},
		{
			"doubleSided":true,
			"name":"mesh_2.002",
			"pbrMetallicRoughness":{
				"baseColorTexture":{
					"index":2
				},
				"metallicFactor":0,
				"roughnessFactor":0.6000000238418579
			}
		},
		{
			"doubleSided":true,
			"name":"mesh_3.002",
			"pbrMetallicRoughness":{
				"baseColorTexture":{
					"index":3
				},
				"metallicFactor":0,
				"roughnessFactor":0.6000000238418579
			}
		}
	],
	"meshes":[
		{
			"name":"mesh_0_003-material",
			"primitives":[
				{
					"attributes":{
						"POSITION":0,
						"NORMAL":1,
						"TEXCOORD_0":2
					},
					"indices":3,
					"material":0
				}
			]
		},
		{
			"name":"mesh_1_003-material",
			"primitives":[
				{
					"attributes":{
						"POSITION":4,
						"NORMAL":5,
						"TEXCOORD_0":6
					},
					"indices":7,
					"material":1
				}
			]
		},
		{
			"name":"mesh_2_002-material",
			"primitives":[
				{
					"attributes":{
						"POSITION":8,
						"NORMAL":9,
						"TEXCOORD_0":10
					},
					"indices":11,
					"material":2
				}
			]
		},
		{
			"name":"mesh_3_002-material",
			"primitives":[
				{
					"attributes":{
						"POSITION":12,
						"NORMAL":13,
						"TEXCOORD_0":14
					},
					"indices":15,
					"material":3
				}
			]
		}
	],
	"textures":[
		{
			"sampler":0,
			"source":0
		},
		{
			"sampler":0,
			"source":1
		},
		{
			"sampler":0,
			"source":2
		},
		{
			"sampler":0,
			"source":3
		}
	],
	"images":[
		{
			"mimeType":"image/png",
			"name":"mesh_0.003_baseColor",
			"uri":"mesh_0_003_baseColor.png"
		},
		{
			"mimeType":"image/png",
			"name":"mesh_1.003_baseColor",
			"uri":"mesh_1_003_baseColor.png"
		},
		{
			"mimeType":"image/png",
			"name":"mesh_2.002_baseColor",
			"uri":"mesh_2_002_baseColor.png"
		},
		{
			"mimeType":"image/png",
			"name":"mesh_3.002_baseColor",
			"uri":"mesh_3_002_baseColor.png"
		}
	],
	"accessors":[
		{
			"bufferView":0,
			"componentType":5126,
			"count":1155,
			"max":[
				1.4310499429702759,
				2.8329501152038574,
				0.6414790153503418
			],
			"min":[
				-1.4310499429702759,
				-0.003582953941076994,
				-0.2651970088481903
			],
			"type":"VEC3"
		},
		{
			"bufferView":1,
			"componentType":5126,
			"count":1155,
			"type":"VEC3"
		},
		{
			"bufferView":2,
			"componentType":5126,
			"count":1155,
			"type":"VEC2"
		},
		{
			"bufferView":3,
			"componentType":5123,
			"count":5142,
			"type":"SCALAR"
		},
		{
			"bufferView":4,
			"componentType":5126,
			"count":1580,
			"max":[
				1.7599999904632568,
				3.037519931793213,
				0.6800879836082458
			],
			"min":[
				-1.7599999904632568,
				2.2012999057769775,
				-0.16084200143814087
			],
			"type":"VEC3"
		},
		{
			"bufferView":5,
			"componentType":5126,
			"count":1580,
			"type":"VEC3"
		},
		{
			"bufferView":6,
			"componentType":5126,
			"count":1580,
			"type":"VEC2"
		},
		{
			"bufferView":7,
			"componentType":5123,
			"count":7722,
			"type":"SCALAR"
		},
		{
			"bufferView":8,
			"componentType":5126,
			"count":162,
			"max":[
				0.1341799944639206,
				2.9053900241851807,
				0.5564330220222473
			],
			"min":[
				-0.13418200612068176,
				2.778249979019165,
				0.45400500297546387
			],
			"type":"VEC3"
		},
		{
			"bufferView":9,
			"componentType":5126,
			"count":162,
			"type":"VEC3"
		},
		{
			"bufferView":10,
			"componentType":5126,
			"count":162,
			"type":"VEC2"
		},
		{
			"bufferView":11,
			"componentType":5123,
			"count":864,
			"type":"SCALAR"
		},
		{
			"bufferView":12,
			"componentType":5126,
			"count":390,
			"max":[
				0.16501300036907196,
				3.113219976425171,
				0.5002400279045105
			],
			"min":[
				-0.1625330001115799,
				2.6389400959014893,
				0.19949500262737274
			],
			"type":"VEC3"
		},
		{
			"bufferView":13,
			"componentType":5126,
			"count":390,
			"type":"VEC3"
		},
		{
			"bufferView":14,
			"componentType":5126,
			"count":390,
			"type":"VEC2"
		},
		{
			"bufferView":15,
			"componentType":5123,
			"count":1239,
			"type":"SCALAR"
		}
	],
	"bufferViews":[
		{
			"buffer":0,
			"byteLength":13860,
			"byteOffset":0,
			"target":34962
		},
		{
			"buffer":0,
			"byteLength":13860,
			"byteOffset":13860,
			"target":34962
		},
		{
			"buffer":0,
			"byteLength":9240,
			"byteOffset":27720,
			"target":34962
		},
		{
			"buffer":0,
			"byteLength":10284,
			"byteOffset":36960,
			"target":34963
		},
		{
			"buffer":0,
			"byteLength":18960,
			"byteOffset":47244,
			"target":34962
		},
		{
			"buffer":0,
			"byteLength":18960,
			"byteOffset":66204,
			"target":34962
		},
		{
			"buffer":0,
			"byteLength":12640,
			"byteOffset":85164,
			"target":34962
		},
		{
			"buffer":0,
			"byteLength":15444,
			"byteOffset":97804,
			"target":34963
		},
		{
			"buffer":0,
			"byteLength":1944,
			"byteOffset":113248,
			"target":34962
		},
		{
			"buffer":0,
			"byteLength":1944,
			"byteOffset":115192,
			"target":34962
		},
		{
			"buffer":0,
			"byteLength":1296,
			"byteOffset":117136,
			"target":34962
		},
		{
			"buffer":0,
			"byteLength":1728,
			"byteOffset":118432,
			"target":34963
		},
		{
			"buffer":0,
			"byteLength":4680,
			"byteOffset":120160,
			"target":34962
		},
		{
			"buffer":0,
			"byteLength":4680,
			"byteOffset":124840,
			"target":34962
		},
		{
			"buffer":0,
			"byteLength":3120,
			"byteOffset":129520,
			"target":34962
		},
		{
			"buffer":0,
			"byteLength":2478,
			"byteOffset":132640,
			"target":34963
		}
	],
	"samplers":[
		{
			"magFilter":9729,
			"minFilter":9987
		}
	],
	"buffers":[
		{
			"byteLength":135120,
			"uri":"papa.bin"
		}
	]
}
