{
	"asset":{
		"generator":"Khronos glTF Blender I/O v4.0.43",
		"version":"2.0"
	},
	"scene":0,
	"scenes":[
		{
			"name":"Scene",
			"nodes":[
				0,
				1,
				2,
				3,
				4
			]
		}
	],
	"nodes":[
		{
			"mesh":0,
			"name":"Text.008",
			"rotation":[
				0.7071066498756409,
				0.0005109042976982892,
				-0.0005109043559059501,
				0.7071066498756409
			],
			"scale":[
				0.4343431890010834,
				0.9138297438621521,
				0.43434321880340576
			],
			"translation":[
				-1.4266910552978516,
				4.592312812805176,
				-2.2497689723968506
			]
		},
		{
			"mesh":1,
			"name":"Plane.013",
			"rotation":[
				-0.5003611445426941,
				0.5003611445426941,
				-0.4996386468410492,
				0.4996386766433716
			],
			"scale":[
				2.980520725250244,
				1,
				7.968738555908203
			],
			"translation":[
				-0.3181871175765991,
				2.2642641067504883,
				-2.3603708744049072
			]
		},
		{
			"mesh":2,
			"name":"Plane.028",
			"rotation":[
				-0.29051223397254944,
				0.5522546172142029,
				-0.7346470952033997,
				0.26629143953323364
			],
			"scale":[
				-0.008681997656822205,
				-0.9994477033615112,
				-0.6311651468276978
			],
			"translation":[
				-4.665094375610352,
				2.0925636291503906,
				-0.08218362927436829
			]
		},
		{
			"mesh":3,
			"name":"Plane",
			"rotation":[
				0.7071068286895752,
				0,
				0,
				0.7071068286895752
			],
			"scale":[
				3.6178157329559326,
				1,
				2.019287586212158
			],
			"translation":[
				0.2527521848678589,
				1.8708854913711548,
				-2.195199728012085
			]
		},
		{
			"mesh":4,
			"name":"Text.001",
			"rotation":[
				0.7071066498756409,
				0.0005109042976982892,
				-0.0005109043559059501,
				0.7071066498756409
			],
			"scale":[
				0.4343431890010834,
				0.9138297438621521,
				0.43434321880340576
			],
			"translation":[
				-0.7472230195999146,
				4.0544562339782715,
				-2.2497689723968506
			]
		}
	],
	"materials":[
		{
			"doubleSided":true,
			"name":"Material.038",
			"pbrMetallicRoughness":{
				"metallicFactor":0,
				"roughnessFactor":0.5
			}
		},
		{
			"doubleSided":true,
			"name":"Material.044",
			"pbrMetallicRoughness":{
				"baseColorFactor":[
					0.0064769890159368515,
					0.055540382862091064,
					0.008944455534219742,
					1
				],
				"metallicFactor":0,
				"roughnessFactor":0.5
			}
		},
		{
			"doubleSided":true,
			"name":"Material.058",
			"pbrMetallicRoughness":{
				"baseColorFactor":[
					0,
					0,
					0,
					1
				],
				"metallicFactor":0,
				"roughnessFactor":0.5
			}
		},
		{
			"doubleSided":true,
			"name":"Material.048",
			"pbrMetallicRoughness":{
				"baseColorTexture":{
					"index":0
				},
				"metallicFactor":0,
				"roughnessFactor":0.5
			}
		},
		{
			"doubleSided":true,
			"name":"Material.069",
			"pbrMetallicRoughness":{
				"metallicFactor":0,
				"roughnessFactor":0.5
			}
		}
	],
	"meshes":[
		{
			"name":"Text.022",
			"primitives":[
				{
					"attributes":{
						"POSITION":0,
						"NORMAL":1,
						"TEXCOORD_0":2
					},
					"indices":3,
					"material":0
				}
			]
		},
		{
			"name":"Plane.026",
			"primitives":[
				{
					"attributes":{
						"POSITION":4,
						"NORMAL":5,
						"TEXCOORD_0":6
					},
					"indices":7,
					"material":1
				}
			]
		},
		{
			"name":"Plane.028",
			"primitives":[
				{
					"attributes":{
						"POSITION":8,
						"NORMAL":9,
						"TEXCOORD_0":10
					},
					"indices":7,
					"material":2
				}
			]
		},
		{
			"name":"Plane.039",
			"primitives":[
				{
					"attributes":{
						"POSITION":11,
						"NORMAL":12,
						"TEXCOORD_0":13
					},
					"indices":7,
					"material":3
				}
			]
		},
		{
			"name":"Text.008",
			"primitives":[
				{
					"attributes":{
						"POSITION":14,
						"NORMAL":15,
						"TEXCOORD_0":16
					},
					"indices":17,
					"material":4
				}
			]
		}
	],
	"textures":[
		{
			"sampler":0,
			"source":0
		}
	],
	"images":[
		{
			"mimeType":"image/jpeg",
			"name":"decomposition.jpeg",
			"uri":"decomposition.jpeg"
		}
	],
	"accessors":[
		{
			"bufferView":0,
			"componentType":5126,
			"count":7453,
			"max":[
				9.170001029968262,
				0.020000001415610313,
				0.23000000417232513
			],
			"min":[
				0.07500000298023224,
				-0.020000001415610313,
				-0.6820000410079956
			],
			"type":"VEC3"
		},
		{
			"bufferView":1,
			"componentType":5126,
			"count":7453,
			"type":"VEC3"
		},
		{
			"bufferView":2,
			"componentType":5126,
			"count":7453,
			"type":"VEC2"
		},
		{
			"bufferView":3,
			"componentType":5123,
			"count":21960,
			"type":"SCALAR"
		},
		{
			"bufferView":4,
			"componentType":5126,
			"count":4,
			"max":[
				1,
				0,
				1
			],
			"min":[
				-1,
				0,
				-1
			],
			"type":"VEC3"
		},
		{
			"bufferView":5,
			"componentType":5126,
			"count":4,
			"type":"VEC3"
		},
		{
			"bufferView":6,
			"componentType":5126,
			"count":4,
			"type":"VEC2"
		},
		{
			"bufferView":7,
			"componentType":5123,
			"count":6,
			"type":"SCALAR"
		},
		{
			"bufferView":8,
			"componentType":5126,
			"count":4,
			"max":[
				1,
				0,
				1
			],
			"min":[
				-1,
				0,
				-1
			],
			"type":"VEC3"
		},
		{
			"bufferView":9,
			"componentType":5126,
			"count":4,
			"type":"VEC3"
		},
		{
			"bufferView":10,
			"componentType":5126,
			"count":4,
			"type":"VEC2"
		},
		{
			"bufferView":11,
			"componentType":5126,
			"count":4,
			"max":[
				1,
				0,
				1
			],
			"min":[
				-1,
				0,
				-1
			],
			"type":"VEC3"
		},
		{
			"bufferView":12,
			"componentType":5126,
			"count":4,
			"type":"VEC3"
		},
		{
			"bufferView":13,
			"componentType":5126,
			"count":4,
			"type":"VEC2"
		},
		{
			"bufferView":14,
			"componentType":5126,
			"count":4353,
			"max":[
				6.189000606536865,
				0.020000001415610313,
				0.23000000417232513
			],
			"min":[
				0.07600000500679016,
				-0.020000001415610313,
				-0.6820000410079956
			],
			"type":"VEC3"
		},
		{
			"bufferView":15,
			"componentType":5126,
			"count":4353,
			"type":"VEC3"
		},
		{
			"bufferView":16,
			"componentType":5126,
			"count":4353,
			"type":"VEC2"
		},
		{
			"bufferView":17,
			"componentType":5123,
			"count":12816,
			"type":"SCALAR"
		}
	],
	"bufferViews":[
		{
			"buffer":0,
			"byteLength":89436,
			"byteOffset":0,
			"target":34962
		},
		{
			"buffer":0,
			"byteLength":89436,
			"byteOffset":89436,
			"target":34962
		},
		{
			"buffer":0,
			"byteLength":59624,
			"byteOffset":178872,
			"target":34962
		},
		{
			"buffer":0,
			"byteLength":43920,
			"byteOffset":238496,
			"target":34963
		},
		{
			"buffer":0,
			"byteLength":48,
			"byteOffset":282416,
			"target":34962
		},
		{
			"buffer":0,
			"byteLength":48,
			"byteOffset":282464,
			"target":34962
		},
		{
			"buffer":0,
			"byteLength":32,
			"byteOffset":282512,
			"target":34962
		},
		{
			"buffer":0,
			"byteLength":12,
			"byteOffset":282544,
			"target":34963
		},
		{
			"buffer":0,
			"byteLength":48,
			"byteOffset":282556,
			"target":34962
		},
		{
			"buffer":0,
			"byteLength":48,
			"byteOffset":282604,
			"target":34962
		},
		{
			"buffer":0,
			"byteLength":32,
			"byteOffset":282652,
			"target":34962
		},
		{
			"buffer":0,
			"byteLength":48,
			"byteOffset":282684,
			"target":34962
		},
		{
			"buffer":0,
			"byteLength":48,
			"byteOffset":282732,
			"target":34962
		},
		{
			"buffer":0,
			"byteLength":32,
			"byteOffset":282780,
			"target":34962
		},
		{
			"buffer":0,
			"byteLength":52236,
			"byteOffset":282812,
			"target":34962
		},
		{
			"buffer":0,
			"byteLength":52236,
			"byteOffset":335048,
			"target":34962
		},
		{
			"buffer":0,
			"byteLength":34824,
			"byteOffset":387284,
			"target":34962
		},
		{
			"buffer":0,
			"byteLength":25632,
			"byteOffset":422108,
			"target":34963
		}
	],
	"samplers":[
		{
			"magFilter":9729,
			"minFilter":9987
		}
	],
	"buffers":[
		{
			"byteLength":447740,
			"uri":"decomposition.bin"
		}
	]
}
