{
	"asset":{
		"generator":"Khronos glTF Blender I/O v3.6.27",
		"version":"2.0"
	},
	"scene":0,
	"scenes":[
		{
			"name":"Scene",
			"nodes":[
				0
			]
		}
	],
	"nodes":[
		{
			"mesh":0,
			"name":"dinde_Low:ZBrush_defualt_group_lambert1_0",
			"rotation":[
				0,
				-0.6968849897384644,
				0,
				0.7171829342842102
			],
			"scale":[
				0.16180548071861267,
				0.16180551052093506,
				0.16180549561977386
			],
			"translation":[
				7.468962669372559,
				0.17531681060791016,
				8.64494800567627
			]
		}
	],
	"materials":[
		{
			"doubleSided":true,
			"emissiveFactor":[
				0.2603074014186859,
				0.2603074014186859,
				0.2603074014186859
			],
			"emissiveTexture":{
				"index":0
			},
			"name":"lambert1",
			"normalTexture":{
				"index":1
			},
			"occlusionTexture":{
				"index":2
			},
			"pbrMetallicRoughness":{
				"baseColorTexture":{
					"index":3
				},
				"metallicFactor":0,
				"metallicRoughnessTexture":{
					"index":2
				},
				"roughnessFactor":0.652288556098938
			}
		}
	],
	"meshes":[
		{
			"name":"dinde_Low:ZBrush_defualt_group_lambert1_0",
			"primitives":[
				{
					"attributes":{
						"POSITION":0,
						"NORMAL":1,
						"TEXCOORD_0":2
					},
					"indices":3,
					"material":0
				}
			]
		}
	],
	"textures":[
		{
			"sampler":0,
			"source":0
		},
		{
			"sampler":0,
			"source":1
		},
		{
			"sampler":0,
			"source":2
		},
		{
			"sampler":0,
			"source":0
		}
	],
	"images":[
		{
			"mimeType":"image/png",
			"name":"lambert1_baseColor",
			"uri":"lambert1_baseColor.png"
		},
		{
			"mimeType":"image/png",
			"name":"lambert1_normal",
			"uri":"lambert1_normal.png"
		},
		{
			"mimeType":"image/png",
			"name":"lambert1_metallicRoughness",
			"uri":"lambert1_metallicRoughness.png"
		}
	],
	"accessors":[
		{
			"bufferView":0,
			"componentType":5126,
			"count":8363,
			"max":[
				16.56537628173828,
				11.608152389526367,
				15.065430641174316
			],
			"min":[
				-16.553504943847656,
				-11.783452033996582,
				-26.365787506103516
			],
			"type":"VEC3"
		},
		{
			"bufferView":1,
			"componentType":5126,
			"count":8363,
			"type":"VEC3"
		},
		{
			"bufferView":2,
			"componentType":5126,
			"count":8363,
			"type":"VEC2"
		},
		{
			"bufferView":3,
			"componentType":5123,
			"count":47070,
			"type":"SCALAR"
		}
	],
	"bufferViews":[
		{
			"buffer":0,
			"byteLength":100356,
			"byteOffset":0,
			"target":34962
		},
		{
			"buffer":0,
			"byteLength":100356,
			"byteOffset":100356,
			"target":34962
		},
		{
			"buffer":0,
			"byteLength":66904,
			"byteOffset":200712,
			"target":34962
		},
		{
			"buffer":0,
			"byteLength":94140,
			"byteOffset":267616,
			"target":34963
		}
	],
	"samplers":[
		{
			"magFilter":9729,
			"minFilter":9987
		}
	],
	"buffers":[
		{
			"byteLength":361756,
			"uri":"rawchicken.bin"
		}
	]
}
