{
	"asset":{
		"generator":"Khronos glTF Blender I/O v3.6.27",
		"version":"2.0"
	},
	"scene":0,
	"scenes":[
		{
			"name":"Scene",
			"nodes":[
				0,
				6,
				9,
				12
			]
		}
	],
	"nodes":[
		{
			"mesh":0,
			"name":"RawMeat4_Material #46_0",
			"rotation":[
				-0.9976707100868225,
				-0.06725842505693436,
				-0.002510870574042201,
				0.011103389784693718
			],
			"scale":[
				5.006282329559326,
				5.006282806396484,
				5.006282329559326
			],
			"translation":[
				-3.7532153129577637,
				-0.15104752779006958,
				16.72136688232422
			]
		},
		{
			"mesh":1,
			"name":"defaultMaterial.001",
			"scale":[
				1,
				0.2071239948272705,
				1
			],
			"translation":[
				-0.5629620552062988,
				-0.6974385380744934,
				-0.3690471649169922
			]
		},
		{
			"mesh":2,
			"name":"defaultMaterial.002",
			"scale":[
				1,
				0.2071239948272705,
				1
			],
			"translation":[
				1.240588903427124,
				-0.7705938220024109,
				-0.5048732757568359
			]
		},
		{
			"mesh":3,
			"name":"defaultMaterial.003",
			"scale":[
				1,
				0.2071239948272705,
				1
			],
			"translation":[
				2.320244312286377,
				-0.7752941846847534,
				-0.5004138946533203
			]
		},
		{
			"children":[
				1,
				2,
				3
			],
			"name":"Ash_low.001"
		},
		{
			"children":[
				4
			],
			"name":"Collada visual scene group.001",
			"rotation":[
				0.70710688829422,
				0,
				0,
				0.7071066498756409
			],
			"translation":[
				0,
				-2.3964398678799625e-06,
				0
			]
		},
		{
			"children":[
				5
			],
			"name":"Sketchfab_model.002",
			"rotation":[
				-0.70710688829422,
				0,
				0,
				0.7071066498756409
			],
			"translation":[
				-4.1821489334106445,
				1.6144484281539917,
				17.378965377807617
			]
		},
		{
			"mesh":4,
			"name":"Object_4.002",
			"rotation":[
				0.014099000953137875,
				-0.46527794003486633,
				0.1179986521601677,
				0.8771510720252991
			]
		},
		{
			"children":[
				7
			],
			"name":"Fly.001_0.002",
			"scale":[
				1.2202608585357666,
				1.2202608585357666,
				1.2202606201171875
			],
			"translation":[
				0,
				0.005436351988464594,
				0
			]
		},
		{
			"children":[
				8
			],
			"name":"GLTF_SceneRootNode.003",
			"rotation":[
				0.16074861586093903,
				0.8849421739578247,
				-0.07811638712882996,
				0.43004104495048523
			],
			"scale":[
				42.121726989746094,
				42.121726989746094,
				42.121726989746094
			],
			"translation":[
				-4.9524993896484375,
				1.2181178331375122,
				15.362954139709473
			]
		},
		{
			"mesh":5,
			"name":"Object_4.003",
			"rotation":[
				0.014098990708589554,
				-0.46527794003486633,
				0.11799866706132889,
				0.8771510720252991
			],
			"translation":[
				-0.010490291751921177,
				0.015884146094322205,
				0.024866096675395966
			]
		},
		{
			"children":[
				10
			],
			"name":"Fly.001_0.003",
			"scale":[
				1.2202609777450562,
				1.2202610969543457,
				1.2202608585357666
			],
			"translation":[
				0,
				0.005436363629996777,
				0
			]
		},
		{
			"children":[
				11
			],
			"name":"GLTF_SceneRootNode.005",
			"rotation":[
				0.13167652487754822,
				-0.07512770593166351,
				0.12084534764289856,
				0.9810267686843872
			],
			"scale":[
				42.12171936035156,
				42.12172317504883,
				42.12172317504883
			],
			"translation":[
				-1.8494634628295898,
				0.9608612060546875,
				15.407585144042969
			]
		}
	],
	"materials":[
		{
			"name":"Material_46",
			"normalTexture":{
				"index":0
			},
			"pbrMetallicRoughness":{
				"baseColorTexture":{
					"index":1
				},
				"metallicRoughnessTexture":{
					"index":2
				}
			}
		},
		{
			"doubleSided":true,
			"name":"Blue Cheese",
			"normalTexture":{
				"index":3,
				"texCoord":2
			},
			"pbrMetallicRoughness":{
				"baseColorTexture":{
					"index":4,
					"texCoord":2
				},
				"metallicFactor":0,
				"metallicRoughnessTexture":{
					"index":5,
					"texCoord":2
				}
			}
		},
		{
			"doubleSided":true,
			"name":"material.001",
			"normalTexture":{
				"index":6
			},
			"pbrMetallicRoughness":{
				"baseColorTexture":{
					"index":7
				},
				"metallicRoughnessTexture":{
					"index":8
				}
			}
		}
	],
	"meshes":[
		{
			"name":"RawMeat4_Material #46_0",
			"primitives":[
				{
					"attributes":{
						"POSITION":0,
						"NORMAL":1,
						"TEXCOORD_0":2,
						"TEXCOORD_1":3,
						"TEXCOORD_2":4
					},
					"indices":5,
					"material":0
				}
			]
		},
		{
			"name":"defaultMaterial.001",
			"primitives":[
				{
					"attributes":{
						"POSITION":6,
						"NORMAL":7,
						"TEXCOORD_0":8,
						"TEXCOORD_1":9,
						"TEXCOORD_2":10
					},
					"indices":11,
					"material":1
				}
			]
		},
		{
			"name":"defaultMaterial.002",
			"primitives":[
				{
					"attributes":{
						"POSITION":12,
						"NORMAL":13,
						"TEXCOORD_0":14,
						"TEXCOORD_1":15,
						"TEXCOORD_2":16
					},
					"indices":11,
					"material":1
				}
			]
		},
		{
			"name":"defaultMaterial.003",
			"primitives":[
				{
					"attributes":{
						"POSITION":17,
						"NORMAL":18,
						"TEXCOORD_0":19,
						"TEXCOORD_1":20,
						"TEXCOORD_2":21
					},
					"indices":11,
					"material":1
				}
			]
		},
		{
			"name":"Object_0.016",
			"primitives":[
				{
					"attributes":{
						"POSITION":22,
						"NORMAL":23,
						"TEXCOORD_0":24
					},
					"indices":25,
					"material":2
				}
			]
		},
		{
			"name":"Object_0.017",
			"primitives":[
				{
					"attributes":{
						"POSITION":26,
						"NORMAL":27,
						"TEXCOORD_0":28
					},
					"indices":25,
					"material":2
				}
			]
		}
	],
	"textures":[
		{
			"sampler":0,
			"source":0
		},
		{
			"sampler":0,
			"source":1
		},
		{
			"sampler":0,
			"source":2
		},
		{
			"sampler":0,
			"source":3
		},
		{
			"sampler":0,
			"source":4
		},
		{
			"sampler":0,
			"source":5
		},
		{
			"sampler":0,
			"source":6
		},
		{
			"sampler":0,
			"source":7
		},
		{
			"sampler":0,
			"source":8
		}
	],
	"images":[
		{
			"mimeType":"image/png",
			"name":"Material_46_normal",
			"uri":"Material_46_normal.png"
		},
		{
			"mimeType":"image/png",
			"name":"Material_46_baseColor",
			"uri":"Material_46_baseColor.png"
		},
		{
			"mimeType":"image/png",
			"name":"Material_46_metallicRoughness",
			"uri":"Material_46_metallicRoughness.png"
		},
		{
			"mimeType":"image/jpeg",
			"name":"Blue_Cheese_Normal",
			"uri":"Blue_Cheese_Normal.jpg"
		},
		{
			"mimeType":"image/jpeg",
			"name":"Blue_Cheese_Base_Color",
			"uri":"Blue_Cheese_Base_Color.jpg"
		},
		{
			"mimeType":"image/png",
			"name":"Blue_Cheese_Roughness",
			"uri":"Blue_Cheese_Roughness.png"
		},
		{
			"mimeType":"image/png",
			"name":"material_normal",
			"uri":"material_normal.png"
		},
		{
			"mimeType":"image/png",
			"name":"material_baseColor",
			"uri":"material_baseColor.png"
		},
		{
			"mimeType":"image/png",
			"name":"material_metallicRoughness",
			"uri":"material_metallicRoughness.png"
		}
	],
	"accessors":[
		{
			"bufferView":0,
			"componentType":5126,
			"count":487,
			"max":[
				0.6012234687805176,
				0.24713589251041412,
				0.3298477530479431
			],
			"min":[
				-0.5942370891571045,
				-0.2397259771823883,
				-0.3308333158493042
			],
			"type":"VEC3"
		},
		{
			"bufferView":1,
			"componentType":5126,
			"count":487,
			"type":"VEC3"
		},
		{
			"bufferView":2,
			"componentType":5126,
			"count":487,
			"type":"VEC2"
		},
		{
			"bufferView":3,
			"componentType":5126,
			"count":487,
			"type":"VEC2"
		},
		{
			"bufferView":4,
			"componentType":5126,
			"count":487,
			"type":"VEC2"
		},
		{
			"bufferView":5,
			"componentType":5123,
			"count":1965,
			"type":"SCALAR"
		},
		{
			"bufferView":6,
			"componentType":5126,
			"count":48,
			"max":[
				0.4701249897480011,
				0.4141620099544525,
				1
			],
			"min":[
				-0.9920349717140198,
				-0.4141620099544525,
				-1
			],
			"type":"VEC3"
		},
		{
			"bufferView":7,
			"componentType":5126,
			"count":48,
			"type":"VEC3"
		},
		{
			"bufferView":8,
			"componentType":5126,
			"count":48,
			"type":"VEC2"
		},
		{
			"bufferView":9,
			"componentType":5126,
			"count":48,
			"type":"VEC2"
		},
		{
			"bufferView":10,
			"componentType":5126,
			"count":48,
			"type":"VEC2"
		},
		{
			"bufferView":11,
			"componentType":5123,
			"count":108,
			"type":"SCALAR"
		},
		{
			"bufferView":12,
			"componentType":5126,
			"count":48,
			"max":[
				0.4701249897480011,
				0.4141620099544525,
				1
			],
			"min":[
				-0.9920349717140198,
				-0.4141620099544525,
				-1
			],
			"type":"VEC3"
		},
		{
			"bufferView":13,
			"componentType":5126,
			"count":48,
			"type":"VEC3"
		},
		{
			"bufferView":14,
			"componentType":5126,
			"count":48,
			"type":"VEC2"
		},
		{
			"bufferView":15,
			"componentType":5126,
			"count":48,
			"type":"VEC2"
		},
		{
			"bufferView":16,
			"componentType":5126,
			"count":48,
			"type":"VEC2"
		},
		{
			"bufferView":17,
			"componentType":5126,
			"count":48,
			"max":[
				0.4701249897480011,
				0.4141620099544525,
				1
			],
			"min":[
				-0.9920349717140198,
				-0.4141620099544525,
				-1
			],
			"type":"VEC3"
		},
		{
			"bufferView":18,
			"componentType":5126,
			"count":48,
			"type":"VEC3"
		},
		{
			"bufferView":19,
			"componentType":5126,
			"count":48,
			"type":"VEC2"
		},
		{
			"bufferView":20,
			"componentType":5126,
			"count":48,
			"type":"VEC2"
		},
		{
			"bufferView":21,
			"componentType":5126,
			"count":48,
			"type":"VEC2"
		},
		{
			"bufferView":22,
			"componentType":5126,
			"count":533,
			"max":[
				0.005981991533190012,
				0.0011305185034871101,
				0.006314991973340511
			],
			"min":[
				-0.00598199013620615,
				-0.004646610002964735,
				-0.0065701245330274105
			],
			"type":"VEC3"
		},
		{
			"bufferView":23,
			"componentType":5126,
			"count":533,
			"type":"VEC3"
		},
		{
			"bufferView":24,
			"componentType":5126,
			"count":533,
			"type":"VEC2"
		},
		{
			"bufferView":25,
			"componentType":5123,
			"count":1068,
			"type":"SCALAR"
		},
		{
			"bufferView":26,
			"componentType":5126,
			"count":533,
			"max":[
				0.005981991533190012,
				0.0011305185034871101,
				0.006314991973340511
			],
			"min":[
				-0.00598199013620615,
				-0.004646610002964735,
				-0.0065701245330274105
			],
			"type":"VEC3"
		},
		{
			"bufferView":27,
			"componentType":5126,
			"count":533,
			"type":"VEC3"
		},
		{
			"bufferView":28,
			"componentType":5126,
			"count":533,
			"type":"VEC2"
		}
	],
	"bufferViews":[
		{
			"buffer":0,
			"byteLength":5844,
			"byteOffset":0,
			"target":34962
		},
		{
			"buffer":0,
			"byteLength":5844,
			"byteOffset":5844,
			"target":34962
		},
		{
			"buffer":0,
			"byteLength":3896,
			"byteOffset":11688,
			"target":34962
		},
		{
			"buffer":0,
			"byteLength":3896,
			"byteOffset":15584,
			"target":34962
		},
		{
			"buffer":0,
			"byteLength":3896,
			"byteOffset":19480,
			"target":34962
		},
		{
			"buffer":0,
			"byteLength":3930,
			"byteOffset":23376,
			"target":34963
		},
		{
			"buffer":0,
			"byteLength":576,
			"byteOffset":27308,
			"target":34962
		},
		{
			"buffer":0,
			"byteLength":576,
			"byteOffset":27884,
			"target":34962
		},
		{
			"buffer":0,
			"byteLength":384,
			"byteOffset":28460,
			"target":34962
		},
		{
			"buffer":0,
			"byteLength":384,
			"byteOffset":28844,
			"target":34962
		},
		{
			"buffer":0,
			"byteLength":384,
			"byteOffset":29228,
			"target":34962
		},
		{
			"buffer":0,
			"byteLength":216,
			"byteOffset":29612,
			"target":34963
		},
		{
			"buffer":0,
			"byteLength":576,
			"byteOffset":29828,
			"target":34962
		},
		{
			"buffer":0,
			"byteLength":576,
			"byteOffset":30404,
			"target":34962
		},
		{
			"buffer":0,
			"byteLength":384,
			"byteOffset":30980,
			"target":34962
		},
		{
			"buffer":0,
			"byteLength":384,
			"byteOffset":31364,
			"target":34962
		},
		{
			"buffer":0,
			"byteLength":384,
			"byteOffset":31748,
			"target":34962
		},
		{
			"buffer":0,
			"byteLength":576,
			"byteOffset":32132,
			"target":34962
		},
		{
			"buffer":0,
			"byteLength":576,
			"byteOffset":32708,
			"target":34962
		},
		{
			"buffer":0,
			"byteLength":384,
			"byteOffset":33284,
			"target":34962
		},
		{
			"buffer":0,
			"byteLength":384,
			"byteOffset":33668,
			"target":34962
		},
		{
			"buffer":0,
			"byteLength":384,
			"byteOffset":34052,
			"target":34962
		},
		{
			"buffer":0,
			"byteLength":6396,
			"byteOffset":34436,
			"target":34962
		},
		{
			"buffer":0,
			"byteLength":6396,
			"byteOffset":40832,
			"target":34962
		},
		{
			"buffer":0,
			"byteLength":4264,
			"byteOffset":47228,
			"target":34962
		},
		{
			"buffer":0,
			"byteLength":2136,
			"byteOffset":51492,
			"target":34963
		},
		{
			"buffer":0,
			"byteLength":6396,
			"byteOffset":53628,
			"target":34962
		},
		{
			"buffer":0,
			"byteLength":6396,
			"byteOffset":60024,
			"target":34962
		},
		{
			"buffer":0,
			"byteLength":4264,
			"byteOffset":66420,
			"target":34962
		}
	],
	"samplers":[
		{
			"magFilter":9729,
			"minFilter":9987
		}
	],
	"buffers":[
		{
			"byteLength":70684,
			"uri":"meat.bin"
		}
	]
}
