{
	"asset":{
		"generator":"Khronos glTF Blender I/O v3.6.27",
		"version":"2.0"
	},
	"extensionsUsed":[
		"KHR_materials_clearcoat"
	],
	"scene":0,
	"scenes":[
		{
			"name":"Scene",
			"nodes":[
				2,
				5,
				6,
				10,
				15
			]
		}
	],
	"nodes":[
		{
			"mesh":0,
			"name":"Object_6",
			"translation":[
				-7.62939453125e-06,
				0,
				2.1374223706516204e-06
			]
		},
		{
			"children":[
				0
			],
			"name":"Object_5.001",
			"translation":[
				-7.62939453125e-06,
				0,
				-0.9127919673919678
			]
		},
		{
			"children":[
				1
			],
			"name":"Eye_01",
			"rotation":[
				0,
				0.9597904682159424,
				0,
				0.2807173728942871
			],
			"scale":[
				0.02533813938498497,
				0.02533814311027527,
				0.02533814311027527
			],
			"translation":[
				3.4032771587371826,
				-0.13336661458015442,
				1.5808430910110474
			]
		},
		{
			"mesh":1,
			"name":"Object_9",
			"translation":[
				-4.291534423828125e-06,
				0,
				-1.4075041690375656e-05
			]
		},
		{
			"children":[
				3
			],
			"name":"Object_8",
			"translation":[
				-4.291534423828125e-06,
				0,
				-0.9128024578094482
			]
		},
		{
			"children":[
				4
			],
			"name":"Eye_02",
			"rotation":[
				-0.9995171427726746,
				0,
				0.031072674319148064,
				2.1845128372888212e-08
			],
			"scale":[
				-0.02533813752233982,
				-0.025338152423501015,
				-0.025338156148791313
			],
			"translation":[
				3.2819089889526367,
				-0.13336661458015442,
				2.0494320392608643
			]
		},
		{
			"mesh":2,
			"name":"Object_20",
			"rotation":[
				-0.559186577796936,
				0.43279364705085754,
				0.4327937364578247,
				0.5591866374015808
			],
			"scale":[
				0.025338146835565567,
				0.025338131934404373,
				0.02533813938498497
			],
			"translation":[
				1.6215267181396484,
				-0.882411003112793,
				1.3693170547485352
			]
		},
		{
			"mesh":3,
			"name":"Object_12",
			"translation":[
				-2.5822566840361105e-06,
				3.639872375060804e-06,
				0
			]
		},
		{
			"mesh":4,
			"name":"Object_13",
			"translation":[
				-2.5822566840361105e-06,
				3.639872375060804e-06,
				0
			]
		},
		{
			"children":[
				7,
				8
			],
			"name":"Object_11",
			"translation":[
				7.068728923797607,
				1.763431429862976,
				0.39645761251449585
			]
		},
		{
			"children":[
				9
			],
			"name":"Tooth_Bottom",
			"rotation":[
				-0.559186577796936,
				0.43279364705085754,
				0.43279361724853516,
				0.5591866374015808
			],
			"scale":[
				0.02533814124763012,
				0.025338128209114075,
				0.025338133797049522
			],
			"translation":[
				3.2688345909118652,
				-0.30170494318008423,
				1.7959465980529785
			]
		},
		{
			"mesh":5,
			"name":"Object_16",
			"translation":[
				3.2886332519410644e-06,
				-4.491053914534859e-06,
				0
			]
		},
		{
			"mesh":6,
			"name":"Object_17",
			"translation":[
				3.2886332519410644e-06,
				-4.491053914534859e-06,
				0
			]
		},
		{
			"mesh":7,
			"name":"Object_18.001",
			"translation":[
				3.2886332519410644e-06,
				-4.491053914534859e-06,
				0
			]
		},
		{
			"children":[
				11,
				12,
				13
			],
			"name":"Object_15",
			"translation":[
				6.129771709442139,
				4.214915752410889,
				0.6355218887329102
			]
		},
		{
			"children":[
				14
			],
			"name":"Tooth_Top",
			"rotation":[
				-0.5591865181922913,
				0.43279367685317993,
				0.4327937364578247,
				0.559186577796936
			],
			"scale":[
				0.025338144972920418,
				0.02533813938498497,
				0.025338146835565567
			],
			"translation":[
				3.282008171081543,
				-0.20574454963207245,
				1.7991608381271362
			]
		}
	],
	"materials":[
		{
			"doubleSided":true,
			"name":"material.002",
			"pbrMetallicRoughness":{
				"baseColorFactor":[
					0.011764699593186378,
					0.011764699593186378,
					0.011764699593186378,
					1
				],
				"metallicFactor":0,
				"roughnessFactor":0.20000000298023224
			}
		},
		{
			"doubleSided":true,
			"extensions":{
				"KHR_materials_clearcoat":{
					"clearcoatFactor":0.550495445728302,
					"clearcoatRoughnessFactor":0.03999999910593033
				}
			},
			"name":"02_-_Default",
			"pbrMetallicRoughness":{
				"baseColorTexture":{
					"index":0
				},
				"metallicFactor":0.6724466681480408,
				"roughnessFactor":0.20000000298023224
			}
		},
		{
			"doubleSided":true,
			"name":"Tooth",
			"pbrMetallicRoughness":{
				"baseColorFactor":[
					0.9019610285758972,
					0.8901960253715515,
					0.8470590114593506,
					1
				],
				"metallicFactor":0,
				"roughnessFactor":0.20000000298023224
			}
		}
	],
	"meshes":[
		{
			"name":"Object_0.003",
			"primitives":[
				{
					"attributes":{
						"POSITION":0,
						"NORMAL":1,
						"TEXCOORD_0":2
					},
					"indices":3,
					"material":0
				}
			]
		},
		{
			"name":"Object_1.003",
			"primitives":[
				{
					"attributes":{
						"POSITION":4,
						"NORMAL":5,
						"TEXCOORD_0":6
					},
					"indices":3,
					"material":0
				}
			]
		},
		{
			"name":"Object_7",
			"primitives":[
				{
					"attributes":{
						"POSITION":7,
						"NORMAL":8,
						"TEXCOORD_0":9
					},
					"indices":10,
					"material":1
				}
			]
		},
		{
			"name":"Object_2.001",
			"primitives":[
				{
					"attributes":{
						"POSITION":11,
						"NORMAL":12,
						"TEXCOORD_0":13
					},
					"indices":14,
					"material":2
				}
			]
		},
		{
			"name":"Object_3.001",
			"primitives":[
				{
					"attributes":{
						"POSITION":15,
						"NORMAL":16,
						"TEXCOORD_0":17
					},
					"indices":18,
					"material":2
				}
			]
		},
		{
			"name":"Object_4.001",
			"primitives":[
				{
					"attributes":{
						"POSITION":19,
						"NORMAL":20,
						"TEXCOORD_0":21
					},
					"indices":14,
					"material":2
				}
			]
		},
		{
			"name":"Object_5",
			"primitives":[
				{
					"attributes":{
						"POSITION":22,
						"NORMAL":23,
						"TEXCOORD_0":24
					},
					"indices":14,
					"material":2
				}
			]
		},
		{
			"name":"Object_6",
			"primitives":[
				{
					"attributes":{
						"POSITION":25,
						"NORMAL":26,
						"TEXCOORD_0":27
					},
					"indices":28,
					"material":2
				}
			]
		}
	],
	"textures":[
		{
			"sampler":0,
			"source":0
		}
	],
	"images":[
		{
			"mimeType":"image/png",
			"name":"02_-_Default_baseColor",
			"uri":"02_-_Default_baseColor.png"
		}
	],
	"accessors":[
		{
			"bufferView":0,
			"componentType":5126,
			"count":992,
			"max":[
				1.8256020545959473,
				1.624725580215454,
				1.8256020545959473
			],
			"min":[
				-1.8256020545959473,
				-1.624725580215454,
				1.1920928955078125e-07
			],
			"type":"VEC3"
		},
		{
			"bufferView":1,
			"componentType":5126,
			"count":992,
			"type":"VEC3"
		},
		{
			"bufferView":2,
			"componentType":5126,
			"count":992,
			"type":"VEC2"
		},
		{
			"bufferView":3,
			"componentType":5123,
			"count":1440,
			"type":"SCALAR"
		},
		{
			"bufferView":4,
			"componentType":5126,
			"count":992,
			"max":[
				1.8256020545959473,
				1.624725580215454,
				1.8256020545959473
			],
			"min":[
				-1.8256020545959473,
				-1.624725580215454,
				1.1920928955078125e-07
			],
			"type":"VEC3"
		},
		{
			"bufferView":5,
			"componentType":5126,
			"count":992,
			"type":"VEC3"
		},
		{
			"bufferView":6,
			"componentType":5126,
			"count":992,
			"type":"VEC2"
		},
		{
			"bufferView":7,
			"componentType":5126,
			"count":60476,
			"max":[
				26.081218719482422,
				79.26780700683594,
				52.48194122314453
			],
			"min":[
				-26.081218719482422,
				-79.45194244384766,
				5.645421981811523
			],
			"type":"VEC3"
		},
		{
			"bufferView":8,
			"componentType":5126,
			"count":60476,
			"type":"VEC3"
		},
		{
			"bufferView":9,
			"componentType":5126,
			"count":60476,
			"type":"VEC2"
		},
		{
			"bufferView":10,
			"componentType":5123,
			"count":60480,
			"type":"SCALAR"
		},
		{
			"bufferView":11,
			"componentType":5126,
			"count":65532,
			"max":[
				0.4405209720134735,
				1.335554838180542,
				1.1439707279205322
			],
			"min":[
				-13.332450866699219,
				-5.865097522735596,
				-1.9368871450424194
			],
			"type":"VEC3"
		},
		{
			"bufferView":12,
			"componentType":5126,
			"count":65532,
			"type":"VEC3"
		},
		{
			"bufferView":13,
			"componentType":5126,
			"count":65532,
			"type":"VEC2"
		},
		{
			"bufferView":14,
			"componentType":5123,
			"count":65532,
			"type":"SCALAR"
		},
		{
			"bufferView":15,
			"componentType":5126,
			"count":55428,
			"max":[
				0.015585333108901978,
				2.3382272720336914,
				1.1230452060699463
			],
			"min":[
				-14.577990531921387,
				-4.901458263397217,
				-1.9368858337402344
			],
			"type":"VEC3"
		},
		{
			"bufferView":16,
			"componentType":5126,
			"count":55428,
			"type":"VEC3"
		},
		{
			"bufferView":17,
			"componentType":5126,
			"count":55428,
			"type":"VEC2"
		},
		{
			"bufferView":18,
			"componentType":5123,
			"count":55428,
			"type":"SCALAR"
		},
		{
			"bufferView":19,
			"componentType":5126,
			"count":65532,
			"max":[
				-0.177128404378891,
				0.14719873666763306,
				1.5865144729614258
			],
			"min":[
				-12.691871643066406,
				-8.455795288085938,
				-2.41367769241333
			],
			"type":"VEC3"
		},
		{
			"bufferView":20,
			"componentType":5126,
			"count":65532,
			"type":"VEC3"
		},
		{
			"bufferView":21,
			"componentType":5126,
			"count":65532,
			"type":"VEC2"
		},
		{
			"bufferView":22,
			"componentType":5126,
			"count":65532,
			"max":[
				1.6517869234085083,
				0.16079774498939514,
				1.5865159034729004
			],
			"min":[
				-13.911321640014648,
				-8.59061336517334,
				-2.857558488845825
			],
			"type":"VEC3"
		},
		{
			"bufferView":23,
			"componentType":5126,
			"count":65532,
			"type":"VEC3"
		},
		{
			"bufferView":24,
			"componentType":5126,
			"count":65532,
			"type":"VEC2"
		},
		{
			"bufferView":25,
			"componentType":5126,
			"count":2856,
			"max":[
				-1.5193238258361816,
				-1.3922367095947266,
				1.1933695077896118
			],
			"min":[
				-2.9266536235809326,
				-2.869560956954956,
				0.34428170323371887
			],
			"type":"VEC3"
		},
		{
			"bufferView":26,
			"componentType":5126,
			"count":2856,
			"type":"VEC3"
		},
		{
			"bufferView":27,
			"componentType":5126,
			"count":2856,
			"type":"VEC2"
		},
		{
			"bufferView":28,
			"componentType":5123,
			"count":2856,
			"type":"SCALAR"
		}
	],
	"bufferViews":[
		{
			"buffer":0,
			"byteLength":11904,
			"byteOffset":0,
			"target":34962
		},
		{
			"buffer":0,
			"byteLength":11904,
			"byteOffset":11904,
			"target":34962
		},
		{
			"buffer":0,
			"byteLength":7936,
			"byteOffset":23808,
			"target":34962
		},
		{
			"buffer":0,
			"byteLength":2880,
			"byteOffset":31744,
			"target":34963
		},
		{
			"buffer":0,
			"byteLength":11904,
			"byteOffset":34624,
			"target":34962
		},
		{
			"buffer":0,
			"byteLength":11904,
			"byteOffset":46528,
			"target":34962
		},
		{
			"buffer":0,
			"byteLength":7936,
			"byteOffset":58432,
			"target":34962
		},
		{
			"buffer":0,
			"byteLength":725712,
			"byteOffset":66368,
			"target":34962
		},
		{
			"buffer":0,
			"byteLength":725712,
			"byteOffset":792080,
			"target":34962
		},
		{
			"buffer":0,
			"byteLength":483808,
			"byteOffset":1517792,
			"target":34962
		},
		{
			"buffer":0,
			"byteLength":120960,
			"byteOffset":2001600,
			"target":34963
		},
		{
			"buffer":0,
			"byteLength":786384,
			"byteOffset":2122560,
			"target":34962
		},
		{
			"buffer":0,
			"byteLength":786384,
			"byteOffset":2908944,
			"target":34962
		},
		{
			"buffer":0,
			"byteLength":524256,
			"byteOffset":3695328,
			"target":34962
		},
		{
			"buffer":0,
			"byteLength":131064,
			"byteOffset":4219584,
			"target":34963
		},
		{
			"buffer":0,
			"byteLength":665136,
			"byteOffset":4350648,
			"target":34962
		},
		{
			"buffer":0,
			"byteLength":665136,
			"byteOffset":5015784,
			"target":34962
		},
		{
			"buffer":0,
			"byteLength":443424,
			"byteOffset":5680920,
			"target":34962
		},
		{
			"buffer":0,
			"byteLength":110856,
			"byteOffset":6124344,
			"target":34963
		},
		{
			"buffer":0,
			"byteLength":786384,
			"byteOffset":6235200,
			"target":34962
		},
		{
			"buffer":0,
			"byteLength":786384,
			"byteOffset":7021584,
			"target":34962
		},
		{
			"buffer":0,
			"byteLength":524256,
			"byteOffset":7807968,
			"target":34962
		},
		{
			"buffer":0,
			"byteLength":786384,
			"byteOffset":8332224,
			"target":34962
		},
		{
			"buffer":0,
			"byteLength":786384,
			"byteOffset":9118608,
			"target":34962
		},
		{
			"buffer":0,
			"byteLength":524256,
			"byteOffset":9904992,
			"target":34962
		},
		{
			"buffer":0,
			"byteLength":34272,
			"byteOffset":10429248,
			"target":34962
		},
		{
			"buffer":0,
			"byteLength":34272,
			"byteOffset":10463520,
			"target":34962
		},
		{
			"buffer":0,
			"byteLength":22848,
			"byteOffset":10497792,
			"target":34962
		},
		{
			"buffer":0,
			"byteLength":5712,
			"byteOffset":10520640,
			"target":34963
		}
	],
	"samplers":[
		{
			"magFilter":9729,
			"minFilter":9987
		}
	],
	"buffers":[
		{
			"byteLength":10526352,
			"uri":"shark.bin"
		}
	]
}
