{
	"asset":{
		"generator":"Khronos glTF Blender I/O v3.6.27",
		"version":"2.0"
	},
	"scene":0,
	"scenes":[
		{
			"name":"Scene",
			"nodes":[
				0,
				1,
				2
			]
		}
	],
	"nodes":[
		{
			"mesh":0,
			"name":"focusknob 2",
			"rotation":[
				0,
				0,
				-0.7071068286895752,
				0.7071068286895752
			],
			"scale":[
				1,
				1.338636040687561,
				1
			],
			"translation":[
				0,
				0.057870496064424515,
				-0.028332656249403954
			]
		},
		{
			"mesh":1,
			"name":"Text.004",
			"rotation":[
				0.7071068286895752,
				0,
				0,
				0.7071068286895752
			],
			"scale":[
				0.011089053936302662,
				0.02460140734910965,
				0.013473319821059704
			],
			"translation":[
				0.17416027188301086,
				0.050945695489645004,
				-0.027282454073429108
			]
		},
		{
			"mesh":2,
			"name":"Cube.008",
			"scale":[
				0.042796939611434937,
				0.009707197546958923,
				9.999999747378752e-05
			],
			"translation":[
				0.202180415391922,
				0.05557062849402428,
				-0.028666866943240166
			]
		}
	],
	"materials":[
		{
			"doubleSided":true,
			"name":"metal.002",
			"pbrMetallicRoughness":{
				"baseColorFactor":[
					0.5925782918930054,
					0.5925782918930054,
					0.5925782918930054,
					1
				],
				"roughnessFactor":0.4833333194255829
			}
		},
		{
			"doubleSided":true,
			"name":"black plastic",
			"pbrMetallicRoughness":{
				"baseColorFactor":[
					0.0056046294048428535,
					0.0056046294048428535,
					0.0056046294048428535,
					1
				],
				"metallicFactor":0,
				"roughnessFactor":0.6166667342185974
			}
		},
		{
			"doubleSided":true,
			"name":"black plastic.006",
			"pbrMetallicRoughness":{
				"baseColorFactor":[
					0.0056046294048428535,
					0.0056046294048428535,
					0.0056046294048428535,
					1
				],
				"metallicFactor":0,
				"roughnessFactor":0.6166667342185974
			}
		}
	],
	"meshes":[
		{
			"name":"Cylinder.009",
			"primitives":[
				{
					"attributes":{
						"POSITION":0,
						"NORMAL":1,
						"TEXCOORD_0":2
					},
					"indices":3,
					"material":0
				},
				{
					"attributes":{
						"POSITION":4,
						"NORMAL":5,
						"TEXCOORD_0":6
					},
					"indices":7,
					"material":1
				}
			]
		},
		{
			"name":"Text.004",
			"primitives":[
				{
					"attributes":{
						"POSITION":8,
						"NORMAL":9,
						"TEXCOORD_0":10
					},
					"indices":11,
					"material":2
				}
			]
		},
		{
			"name":"Cube.016",
			"primitives":[
				{
					"attributes":{
						"POSITION":12,
						"NORMAL":13,
						"TEXCOORD_0":14
					},
					"indices":15
				}
			]
		}
	],
	"accessors":[
		{
			"bufferView":0,
			"componentType":5126,
			"count":1812,
			"max":[
				0.008008692413568497,
				0.055292993783950806,
				0.008008698001503944
			],
			"min":[
				-0.008008701726794243,
				-0.055292993783950806,
				-0.008008698932826519
			],
			"type":"VEC3"
		},
		{
			"bufferView":1,
			"componentType":5126,
			"count":1812,
			"type":"VEC3"
		},
		{
			"bufferView":2,
			"componentType":5126,
			"count":1812,
			"type":"VEC2"
		},
		{
			"bufferView":3,
			"componentType":5123,
			"count":5556,
			"type":"SCALAR"
		},
		{
			"bufferView":4,
			"componentType":5126,
			"count":2066,
			"max":[
				0.008038267493247986,
				0.05540139228105545,
				0.008038267493247986
			],
			"min":[
				-0.008038272149860859,
				-0.05540139228105545,
				-0.008038266561925411
			],
			"type":"VEC3"
		},
		{
			"bufferView":5,
			"componentType":5126,
			"count":2066,
			"type":"VEC3"
		},
		{
			"bufferView":6,
			"componentType":5126,
			"count":2066,
			"type":"VEC2"
		},
		{
			"bufferView":7,
			"componentType":5123,
			"count":5376,
			"type":"SCALAR"
		},
		{
			"bufferView":8,
			"componentType":5126,
			"count":1780,
			"max":[
				5.41200065612793,
				0.010000000707805157,
				0.009000000543892384
			],
			"min":[
				0.07600000500679016,
				-0.010000000707805157,
				-0.6910000443458557
			],
			"type":"VEC3"
		},
		{
			"bufferView":9,
			"componentType":5126,
			"count":1780,
			"type":"VEC3"
		},
		{
			"bufferView":10,
			"componentType":5126,
			"count":1780,
			"type":"VEC2"
		},
		{
			"bufferView":11,
			"componentType":5123,
			"count":5184,
			"type":"SCALAR"
		},
		{
			"bufferView":12,
			"componentType":5126,
			"count":24,
			"max":[
				1,
				1,
				1
			],
			"min":[
				-1,
				-1,
				-1
			],
			"type":"VEC3"
		},
		{
			"bufferView":13,
			"componentType":5126,
			"count":24,
			"type":"VEC3"
		},
		{
			"bufferView":14,
			"componentType":5126,
			"count":24,
			"type":"VEC2"
		},
		{
			"bufferView":15,
			"componentType":5123,
			"count":36,
			"type":"SCALAR"
		}
	],
	"bufferViews":[
		{
			"buffer":0,
			"byteLength":21744,
			"byteOffset":0,
			"target":34962
		},
		{
			"buffer":0,
			"byteLength":21744,
			"byteOffset":21744,
			"target":34962
		},
		{
			"buffer":0,
			"byteLength":14496,
			"byteOffset":43488,
			"target":34962
		},
		{
			"buffer":0,
			"byteLength":11112,
			"byteOffset":57984,
			"target":34963
		},
		{
			"buffer":0,
			"byteLength":24792,
			"byteOffset":69096,
			"target":34962
		},
		{
			"buffer":0,
			"byteLength":24792,
			"byteOffset":93888,
			"target":34962
		},
		{
			"buffer":0,
			"byteLength":16528,
			"byteOffset":118680,
			"target":34962
		},
		{
			"buffer":0,
			"byteLength":10752,
			"byteOffset":135208,
			"target":34963
		},
		{
			"buffer":0,
			"byteLength":21360,
			"byteOffset":145960,
			"target":34962
		},
		{
			"buffer":0,
			"byteLength":21360,
			"byteOffset":167320,
			"target":34962
		},
		{
			"buffer":0,
			"byteLength":14240,
			"byteOffset":188680,
			"target":34962
		},
		{
			"buffer":0,
			"byteLength":10368,
			"byteOffset":202920,
			"target":34963
		},
		{
			"buffer":0,
			"byteLength":288,
			"byteOffset":213288,
			"target":34962
		},
		{
			"buffer":0,
			"byteLength":288,
			"byteOffset":213576,
			"target":34962
		},
		{
			"buffer":0,
			"byteLength":192,
			"byteOffset":213864,
			"target":34962
		},
		{
			"buffer":0,
			"byteLength":72,
			"byteOffset":214056,
			"target":34963
		}
	],
	"buffers":[
		{
			"byteLength":214128,
			"uri":"fine6.bin"
		}
	]
}
