{
	"asset":{
		"generator":"Khronos glTF Blender I/O v3.6.27",
		"version":"2.0"
	},
	"scene":0,
	"scenes":[
		{
			"name":"Scene",
			"nodes":[
				0,
				1,
				2,
				3
			]
		}
	],
	"nodes":[
		{
			"mesh":0,
			"name":"focusknob 2.001",
			"rotation":[
				0,
				0,
				-0.7071068286895752,
				0.7071067094802856
			],
			"scale":[
				1,
				1.3386361598968506,
				1
			],
			"translation":[
				0,
				0.057870496064424515,
				-0.028332656249403954
			]
		},
		{
			"mesh":1,
			"name":"Text.002",
			"rotation":[
				0.70710688829422,
				0,
				0,
				0.7071066498756409
			],
			"scale":[
				0.011089053936302662,
				0.024601411074399948,
				0.013473321683704853
			],
			"translation":[
				0.17416027188301086,
				0.050945695489645004,
				-0.027282454073429108
			]
		},
		{
			"mesh":2,
			"name":"Cube.008",
			"scale":[
				0.042796939611434937,
				0.009707197546958923,
				9.999999747378752e-05
			],
			"translation":[
				0.202180415391922,
				0.05557062849402428,
				-0.028666866943240166
			]
		},
		{
			"mesh":3,
			"name":"Cube.009",
			"scale":[
				0.0429159514605999,
				0.0010000000474974513,
				0
			],
			"translation":[
				0.12255272269248962,
				0.05506881698966026,
				-0.028345799073576927
			]
		}
	],
	"materials":[
		{
			"doubleSided":true,
			"name":"metal.007",
			"pbrMetallicRoughness":{
				"baseColorFactor":[
					0.5925782918930054,
					0.5925782918930054,
					0.5925782918930054,
					1
				],
				"roughnessFactor":0.4833333194255829
			}
		},
		{
			"doubleSided":true,
			"name":"black plastic.020",
			"pbrMetallicRoughness":{
				"baseColorFactor":[
					0.0056046294048428535,
					0.0056046294048428535,
					0.0056046294048428535,
					1
				],
				"metallicFactor":0,
				"roughnessFactor":0.6166667342185974
			}
		},
		{
			"doubleSided":true,
			"name":"black plastic.021",
			"pbrMetallicRoughness":{
				"baseColorFactor":[
					0.0056046294048428535,
					0.0056046294048428535,
					0.0056046294048428535,
					1
				],
				"metallicFactor":0,
				"roughnessFactor":0.6166667342185974
			}
		}
	],
	"meshes":[
		{
			"name":"Cylinder.013",
			"primitives":[
				{
					"attributes":{
						"POSITION":0,
						"NORMAL":1,
						"TEXCOORD_0":2
					},
					"indices":3,
					"material":0
				},
				{
					"attributes":{
						"POSITION":4,
						"NORMAL":5,
						"TEXCOORD_0":6
					},
					"indices":7,
					"material":1
				}
			]
		},
		{
			"name":"Text.004",
			"primitives":[
				{
					"attributes":{
						"POSITION":8,
						"NORMAL":9,
						"TEXCOORD_0":10
					},
					"indices":11,
					"material":2
				}
			]
		},
		{
			"name":"Cube.048",
			"primitives":[
				{
					"attributes":{
						"POSITION":12,
						"NORMAL":13,
						"TEXCOORD_0":14
					},
					"indices":15
				}
			]
		},
		{
			"name":"Cube.049",
			"primitives":[
				{
					"attributes":{
						"POSITION":16,
						"NORMAL":17,
						"TEXCOORD_0":18
					},
					"indices":15
				}
			]
		}
	],
	"accessors":[
		{
			"bufferView":0,
			"componentType":5126,
			"count":282,
			"max":[
				0.008038266561925411,
				-0.019529348239302635,
				0.008038267493247986
			],
			"min":[
				-0.008038266561925411,
				-0.05540139228105545,
				-0.008038266561925411
			],
			"type":"VEC3"
		},
		{
			"bufferView":1,
			"componentType":5126,
			"count":282,
			"type":"VEC3"
		},
		{
			"bufferView":2,
			"componentType":5126,
			"count":282,
			"type":"VEC2"
		},
		{
			"bufferView":3,
			"componentType":5123,
			"count":786,
			"type":"SCALAR"
		},
		{
			"bufferView":4,
			"componentType":5126,
			"count":222,
			"max":[
				0.008038267493247986,
				-0.03027286008000374,
				0.008038267493247986
			],
			"min":[
				-0.008038266561925411,
				-0.05540139228105545,
				-0.008038266561925411
			],
			"type":"VEC3"
		},
		{
			"bufferView":5,
			"componentType":5126,
			"count":222,
			"type":"VEC3"
		},
		{
			"bufferView":6,
			"componentType":5126,
			"count":222,
			"type":"VEC2"
		},
		{
			"bufferView":7,
			"componentType":5123,
			"count":648,
			"type":"SCALAR"
		},
		{
			"bufferView":8,
			"componentType":5126,
			"count":1780,
			"max":[
				5.41200065612793,
				0.010000000707805157,
				0.009000000543892384
			],
			"min":[
				0.07600000500679016,
				-0.010000000707805157,
				-0.6910000443458557
			],
			"type":"VEC3"
		},
		{
			"bufferView":9,
			"componentType":5126,
			"count":1780,
			"type":"VEC3"
		},
		{
			"bufferView":10,
			"componentType":5126,
			"count":1780,
			"type":"VEC2"
		},
		{
			"bufferView":11,
			"componentType":5123,
			"count":5184,
			"type":"SCALAR"
		},
		{
			"bufferView":12,
			"componentType":5126,
			"count":24,
			"max":[
				1,
				1,
				1
			],
			"min":[
				-1,
				-1,
				-1
			],
			"type":"VEC3"
		},
		{
			"bufferView":13,
			"componentType":5126,
			"count":24,
			"type":"VEC3"
		},
		{
			"bufferView":14,
			"componentType":5126,
			"count":24,
			"type":"VEC2"
		},
		{
			"bufferView":15,
			"componentType":5123,
			"count":36,
			"type":"SCALAR"
		},
		{
			"bufferView":16,
			"componentType":5126,
			"count":24,
			"max":[
				1,
				1,
				1
			],
			"min":[
				-1,
				-1,
				-1
			],
			"type":"VEC3"
		},
		{
			"bufferView":17,
			"componentType":5126,
			"count":24,
			"type":"VEC3"
		},
		{
			"bufferView":18,
			"componentType":5126,
			"count":24,
			"type":"VEC2"
		}
	],
	"bufferViews":[
		{
			"buffer":0,
			"byteLength":3384,
			"byteOffset":0,
			"target":34962
		},
		{
			"buffer":0,
			"byteLength":3384,
			"byteOffset":3384,
			"target":34962
		},
		{
			"buffer":0,
			"byteLength":2256,
			"byteOffset":6768,
			"target":34962
		},
		{
			"buffer":0,
			"byteLength":1572,
			"byteOffset":9024,
			"target":34963
		},
		{
			"buffer":0,
			"byteLength":2664,
			"byteOffset":10596,
			"target":34962
		},
		{
			"buffer":0,
			"byteLength":2664,
			"byteOffset":13260,
			"target":34962
		},
		{
			"buffer":0,
			"byteLength":1776,
			"byteOffset":15924,
			"target":34962
		},
		{
			"buffer":0,
			"byteLength":1296,
			"byteOffset":17700,
			"target":34963
		},
		{
			"buffer":0,
			"byteLength":21360,
			"byteOffset":18996,
			"target":34962
		},
		{
			"buffer":0,
			"byteLength":21360,
			"byteOffset":40356,
			"target":34962
		},
		{
			"buffer":0,
			"byteLength":14240,
			"byteOffset":61716,
			"target":34962
		},
		{
			"buffer":0,
			"byteLength":10368,
			"byteOffset":75956,
			"target":34963
		},
		{
			"buffer":0,
			"byteLength":288,
			"byteOffset":86324,
			"target":34962
		},
		{
			"buffer":0,
			"byteLength":288,
			"byteOffset":86612,
			"target":34962
		},
		{
			"buffer":0,
			"byteLength":192,
			"byteOffset":86900,
			"target":34962
		},
		{
			"buffer":0,
			"byteLength":72,
			"byteOffset":87092,
			"target":34963
		},
		{
			"buffer":0,
			"byteLength":288,
			"byteOffset":87164,
			"target":34962
		},
		{
			"buffer":0,
			"byteLength":288,
			"byteOffset":87452,
			"target":34962
		},
		{
			"buffer":0,
			"byteLength":192,
			"byteOffset":87740,
			"target":34962
		}
	],
	"buffers":[
		{
			"byteLength":87932,
			"uri":"fine8.bin"
		}
	]
}
