{
	"asset":{
		"generator":"Khronos glTF Blender I/O v3.6.27",
		"version":"2.0"
	},
	"scene":0,
	"scenes":[
		{
			"name":"Scene",
			"nodes":[
				0
			]
		}
	],
	"nodes":[
		{
			"mesh":0,
			"name":"focusknob 2",
			"rotation":[
				0,
				0,
				-0.7071068286895752,
				0.7071068286895752
			],
			"translation":[
				0,
				0.05335340276360512,
				-0.028332656249403954
			]
		}
	],
	"materials":[
		{
			"alphaMode":"BLEND",
			"doubleSided":true,
			"emissiveFactor":[
				0.20863690972328186,
				0.4341537058353424,
				0.42326778173446655
			],
			"name":"Material.002",
			"pbrMetallicRoughness":{
				"baseColorFactor":[
					0,
					0.8000000715255737,
					0.6176220774650574,
					0.08454543352127075
				],
				"metallicFactor":0,
				"roughnessFactor":0.5
			}
		}
	],
	"meshes":[
		{
			"name":"Cylinder.009",
			"primitives":[
				{
					"attributes":{
						"POSITION":0,
						"NORMAL":1,
						"TEXCOORD_0":2
					},
					"indices":3,
					"material":0
				},
				{
					"attributes":{
						"POSITION":4,
						"NORMAL":5,
						"TEXCOORD_0":6
					},
					"indices":7,
					"material":0
				}
			]
		}
	],
	"accessors":[
		{
			"bufferView":0,
			"componentType":5126,
			"count":1810,
			"max":[
				0.00800869520753622,
				0.055292993783950806,
				0.008008698001503944
			],
			"min":[
				-0.008008702658116817,
				-0.055292993783950806,
				-0.008008698932826519
			],
			"type":"VEC3"
		},
		{
			"bufferView":1,
			"componentType":5126,
			"count":1810,
			"type":"VEC3"
		},
		{
			"bufferView":2,
			"componentType":5126,
			"count":1810,
			"type":"VEC2"
		},
		{
			"bufferView":3,
			"componentType":5123,
			"count":5556,
			"type":"SCALAR"
		},
		{
			"bufferView":4,
			"componentType":5126,
			"count":2073,
			"max":[
				0.008038267493247986,
				0.05540139228105545,
				0.008038267493247986
			],
			"min":[
				-0.00803827028721571,
				-0.05540139228105545,
				-0.008038266561925411
			],
			"type":"VEC3"
		},
		{
			"bufferView":5,
			"componentType":5126,
			"count":2073,
			"type":"VEC3"
		},
		{
			"bufferView":6,
			"componentType":5126,
			"count":2073,
			"type":"VEC2"
		},
		{
			"bufferView":7,
			"componentType":5123,
			"count":5376,
			"type":"SCALAR"
		}
	],
	"bufferViews":[
		{
			"buffer":0,
			"byteLength":21720,
			"byteOffset":0,
			"target":34962
		},
		{
			"buffer":0,
			"byteLength":21720,
			"byteOffset":21720,
			"target":34962
		},
		{
			"buffer":0,
			"byteLength":14480,
			"byteOffset":43440,
			"target":34962
		},
		{
			"buffer":0,
			"byteLength":11112,
			"byteOffset":57920,
			"target":34963
		},
		{
			"buffer":0,
			"byteLength":24876,
			"byteOffset":69032,
			"target":34962
		},
		{
			"buffer":0,
			"byteLength":24876,
			"byteOffset":93908,
			"target":34962
		},
		{
			"buffer":0,
			"byteLength":16584,
			"byteOffset":118784,
			"target":34962
		},
		{
			"buffer":0,
			"byteLength":10752,
			"byteOffset":135368,
			"target":34963
		}
	],
	"buffers":[
		{
			"byteLength":146120,
			"uri":"hfine.bin"
		}
	]
}
