{
	"asset":{
		"generator":"Khronos glTF Blender I/O v3.6.27",
		"version":"2.0"
	},
	"scene":0,
	"scenes":[
		{
			"name":"Scene",
			"nodes":[
				0,
				1,
				2
			]
		}
	],
	"nodes":[
		{
			"mesh":0,
			"name":"Outside.003",
			"rotation":[
				0,
				0.7076175808906555,
				0,
				0.7065955996513367
			],
			"scale":[
				1.0001842975616455,
				0.9960314035415649,
				0.953264594078064
			],
			"translation":[
				-10.292346954345703,
				3.4256043434143066,
				-1.4504337310791016
			]
		},
		{
			"mesh":1,
			"name":"Plane.034",
			"rotation":[
				-0.5003611445426941,
				0.5003611445426941,
				-0.4996385872364044,
				0.49963870644569397
			],
			"scale":[
				0.12148329615592957,
				1,
				0.6909862756729126
			],
			"translation":[
				-10.184162139892578,
				1.511913537979126,
				-0.46434688568115234
			]
		},
		{
			"mesh":2,
			"name":"Text.019",
			"rotation":[
				0.7135963439941406,
				0,
				0,
				0.7005571126937866
			],
			"scale":[
				0.19766966998577118,
				0.19766971468925476,
				0.19766971468925476
			],
			"translation":[
				-10.632694244384766,
				1.4384541511535645,
				-0.44257068634033203
			]
		}
	],
	"materials":[
		{
			"doubleSided":true,
			"name":"Material.070",
			"pbrMetallicRoughness":{
				"baseColorFactor":[
					0.032690420746803284,
					0.8000476360321045,
					0.011570742353796959,
					1
				],
				"metallicFactor":0,
				"roughnessFactor":0.5
			}
		},
		{
			"doubleSided":true,
			"name":"Material.066",
			"pbrMetallicRoughness":{
				"baseColorFactor":[
					0.800000011920929,
					0.800000011920929,
					0.800000011920929,
					1
				],
				"metallicFactor":0,
				"roughnessFactor":0.5
			}
		},
		{
			"doubleSided":true,
			"name":"Material.040",
			"pbrMetallicRoughness":{
				"baseColorFactor":[
					0,
					0,
					0,
					1
				],
				"metallicFactor":0,
				"roughnessFactor":0.5
			}
		}
	],
	"meshes":[
		{
			"name":"Cube.002",
			"primitives":[
				{
					"attributes":{
						"POSITION":0,
						"NORMAL":1
					},
					"indices":2,
					"material":0
				}
			]
		},
		{
			"name":"Plane.047",
			"primitives":[
				{
					"attributes":{
						"POSITION":3,
						"NORMAL":4,
						"TEXCOORD_0":5
					},
					"indices":6,
					"material":1
				}
			]
		},
		{
			"name":"Text.015",
			"primitives":[
				{
					"attributes":{
						"POSITION":7,
						"NORMAL":8,
						"TEXCOORD_0":9
					},
					"indices":10,
					"material":2
				}
			]
		}
	],
	"accessors":[
		{
			"bufferView":0,
			"componentType":5126,
			"count":137,
			"max":[
				1.3720015287399292,
				1.3720015287399292,
				1.3720015287399292
			],
			"min":[
				-1.3720015287399292,
				-1.3720015287399292,
				-1.3720015287399292
			],
			"type":"VEC3"
		},
		{
			"bufferView":1,
			"componentType":5126,
			"count":137,
			"type":"VEC3"
		},
		{
			"bufferView":2,
			"componentType":5123,
			"count":756,
			"type":"SCALAR"
		},
		{
			"bufferView":3,
			"componentType":5126,
			"count":4,
			"max":[
				1,
				0,
				1
			],
			"min":[
				-1,
				0,
				-1
			],
			"type":"VEC3"
		},
		{
			"bufferView":4,
			"componentType":5126,
			"count":4,
			"type":"VEC3"
		},
		{
			"bufferView":5,
			"componentType":5126,
			"count":4,
			"type":"VEC2"
		},
		{
			"bufferView":6,
			"componentType":5123,
			"count":6,
			"type":"SCALAR"
		},
		{
			"bufferView":7,
			"componentType":5126,
			"count":1626,
			"max":[
				3.7450003623962402,
				0.07999999076128006,
				0.009000000543892384
			],
			"min":[
				0.04800000041723251,
				-0.07999999076128006,
				-0.6910000443458557
			],
			"type":"VEC3"
		},
		{
			"bufferView":8,
			"componentType":5126,
			"count":1626,
			"type":"VEC3"
		},
		{
			"bufferView":9,
			"componentType":5126,
			"count":1626,
			"type":"VEC2"
		},
		{
			"bufferView":10,
			"componentType":5123,
			"count":4728,
			"type":"SCALAR"
		}
	],
	"bufferViews":[
		{
			"buffer":0,
			"byteLength":1644,
			"byteOffset":0,
			"target":34962
		},
		{
			"buffer":0,
			"byteLength":1644,
			"byteOffset":1644,
			"target":34962
		},
		{
			"buffer":0,
			"byteLength":1512,
			"byteOffset":3288,
			"target":34963
		},
		{
			"buffer":0,
			"byteLength":48,
			"byteOffset":4800,
			"target":34962
		},
		{
			"buffer":0,
			"byteLength":48,
			"byteOffset":4848,
			"target":34962
		},
		{
			"buffer":0,
			"byteLength":32,
			"byteOffset":4896,
			"target":34962
		},
		{
			"buffer":0,
			"byteLength":12,
			"byteOffset":4928,
			"target":34963
		},
		{
			"buffer":0,
			"byteLength":19512,
			"byteOffset":4940,
			"target":34962
		},
		{
			"buffer":0,
			"byteLength":19512,
			"byteOffset":24452,
			"target":34962
		},
		{
			"buffer":0,
			"byteLength":13008,
			"byteOffset":43964,
			"target":34962
		},
		{
			"buffer":0,
			"byteLength":9456,
			"byteOffset":56972,
			"target":34963
		}
	],
	"buffers":[
		{
			"byteLength":66428,
			"uri":"cellwall1.bin"
		}
	]
}
