{
	"asset":{
		"generator":"Khronos glTF Blender I/O v3.6.27",
		"version":"2.0"
	},
	"scene":0,
	"scenes":[
		{
			"name":"Scene",
			"nodes":[
				0,
				1,
				2
			]
		}
	],
	"nodes":[
		{
			"mesh":0,
			"name":"Icosphere.003",
			"rotation":[
				-0.24339112639427185,
				-0.6547110676765442,
				-0.2365187406539917,
				0.6754058003425598
			],
			"scale":[
				0.07057070732116699,
				0.2490515261888504,
				0.10055426508188248
			],
			"translation":[
				4.510765075683594,
				0.7877835035324097,
				2.0314018726348877
			]
		},
		{
			"mesh":1,
			"name":"Plane.040",
			"rotation":[
				-0.5003611445426941,
				0.5003611445426941,
				-0.4996385872364044,
				0.4996386766433716
			],
			"scale":[
				0.12148329615592957,
				1,
				0.6671497225761414
			],
			"translation":[
				4.59587287902832,
				0.29434436559677124,
				2.914457321166992
			]
		},
		{
			"mesh":2,
			"name":"Text.025",
			"rotation":[
				0.7135963439941406,
				0,
				0,
				0.7005571126937866
			],
			"scale":[
				0.19766966998577118,
				0.19766971468925476,
				0.19766971468925476
			],
			"translation":[
				4.179387092590332,
				0.22088497877120972,
				2.9362335205078125
			]
		}
	],
	"materials":[
		{
			"doubleSided":true,
			"name":"Material.010",
			"pbrMetallicRoughness":{
				"baseColorFactor":[
					0.8001260757446289,
					0.0032985713332891464,
					0.5607434511184692,
					1
				],
				"metallicFactor":0,
				"roughnessFactor":0.5
			}
		},
		{
			"doubleSided":true,
			"name":"Material.066",
			"pbrMetallicRoughness":{
				"baseColorFactor":[
					0.800000011920929,
					0.800000011920929,
					0.800000011920929,
					1
				],
				"metallicFactor":0,
				"roughnessFactor":0.5
			}
		},
		{
			"doubleSided":true,
			"name":"Material.040",
			"pbrMetallicRoughness":{
				"baseColorFactor":[
					0,
					0,
					0,
					1
				],
				"metallicFactor":0,
				"roughnessFactor":0.5
			}
		}
	],
	"meshes":[
		{
			"name":"Icosphere.012",
			"primitives":[
				{
					"attributes":{
						"POSITION":0,
						"NORMAL":1
					},
					"indices":2,
					"material":0
				}
			]
		},
		{
			"name":"Plane.052",
			"primitives":[
				{
					"attributes":{
						"POSITION":3,
						"NORMAL":4,
						"TEXCOORD_0":5
					},
					"indices":6,
					"material":1
				}
			]
		},
		{
			"name":"Text.020",
			"primitives":[
				{
					"attributes":{
						"POSITION":7,
						"NORMAL":8,
						"TEXCOORD_0":9
					},
					"indices":10,
					"material":2
				}
			]
		}
	],
	"accessors":[
		{
			"bufferView":0,
			"componentType":5126,
			"count":240,
			"max":[
				0.9510578513145447,
				1,
				0.9999999403953552
			],
			"min":[
				-0.9510578513145447,
				-1,
				-0.9999999403953552
			],
			"type":"VEC3"
		},
		{
			"bufferView":1,
			"componentType":5126,
			"count":240,
			"type":"VEC3"
		},
		{
			"bufferView":2,
			"componentType":5123,
			"count":240,
			"type":"SCALAR"
		},
		{
			"bufferView":3,
			"componentType":5126,
			"count":4,
			"max":[
				1,
				0,
				1
			],
			"min":[
				-1,
				0,
				-1
			],
			"type":"VEC3"
		},
		{
			"bufferView":4,
			"componentType":5126,
			"count":4,
			"type":"VEC3"
		},
		{
			"bufferView":5,
			"componentType":5126,
			"count":4,
			"type":"VEC2"
		},
		{
			"bufferView":6,
			"componentType":5123,
			"count":6,
			"type":"SCALAR"
		},
		{
			"bufferView":7,
			"componentType":5126,
			"count":3046,
			"max":[
				4.2300004959106445,
				0.07999999076128006,
				0.009000000543892384
			],
			"min":[
				0.04800000041723251,
				-0.07999999076128006,
				-0.6910000443458557
			],
			"type":"VEC3"
		},
		{
			"bufferView":8,
			"componentType":5126,
			"count":3046,
			"type":"VEC3"
		},
		{
			"bufferView":9,
			"componentType":5126,
			"count":3046,
			"type":"VEC2"
		},
		{
			"bufferView":10,
			"componentType":5123,
			"count":8928,
			"type":"SCALAR"
		}
	],
	"bufferViews":[
		{
			"buffer":0,
			"byteLength":2880,
			"byteOffset":0,
			"target":34962
		},
		{
			"buffer":0,
			"byteLength":2880,
			"byteOffset":2880,
			"target":34962
		},
		{
			"buffer":0,
			"byteLength":480,
			"byteOffset":5760,
			"target":34963
		},
		{
			"buffer":0,
			"byteLength":48,
			"byteOffset":6240,
			"target":34962
		},
		{
			"buffer":0,
			"byteLength":48,
			"byteOffset":6288,
			"target":34962
		},
		{
			"buffer":0,
			"byteLength":32,
			"byteOffset":6336,
			"target":34962
		},
		{
			"buffer":0,
			"byteLength":12,
			"byteOffset":6368,
			"target":34963
		},
		{
			"buffer":0,
			"byteLength":36552,
			"byteOffset":6380,
			"target":34962
		},
		{
			"buffer":0,
			"byteLength":36552,
			"byteOffset":42932,
			"target":34962
		},
		{
			"buffer":0,
			"byteLength":24368,
			"byteOffset":79484,
			"target":34962
		},
		{
			"buffer":0,
			"byteLength":17856,
			"byteOffset":103852,
			"target":34963
		}
	],
	"buffers":[
		{
			"byteLength":121708,
			"uri":"centrioles1.bin"
		}
	]
}
