{
	"asset":{
		"generator":"Khronos glTF Blender I/O v3.6.27",
		"version":"2.0"
	},
	"scene":0,
	"scenes":[
		{
			"name":"Scene",
			"nodes":[
				0,
				1,
				2
			]
		}
	],
	"nodes":[
		{
			"mesh":0,
			"name":"Verde_Interno.001",
			"rotation":[
				0.4835984408855438,
				0.4623655378818512,
				0.3363499939441681,
				0.6627362370491028
			],
			"scale":[
				0.2729351222515106,
				0.13464148342609406,
				0.27293509244918823
			],
			"translation":[
				-2.8981757164001465,
				2.001786470413208,
				2.708441734313965
			]
		},
		{
			"mesh":1,
			"name":"Plane.039",
			"rotation":[
				-0.5003611445426941,
				0.5003611445426941,
				-0.4996385872364044,
				0.49963870644569397
			],
			"scale":[
				0.12148329615592957,
				1,
				0.8153138160705566
			],
			"translation":[
				-3.5195024013519287,
				0.14149311184883118,
				4.009897708892822
			]
		},
		{
			"mesh":2,
			"name":"Text.024",
			"rotation":[
				0.7135963439941406,
				0,
				0,
				0.7005571126937866
			],
			"scale":[
				0.19766966998577118,
				0.19766971468925476,
				0.19766971468925476
			],
			"translation":[
				-4.069156646728516,
				0.06803348660469055,
				4.031673908233643
			]
		}
	],
	"materials":[
		{
			"doubleSided":true,
			"name":"Verde",
			"pbrMetallicRoughness":{
				"baseColorFactor":[
					0.006253701634705067,
					0.8000074625015259,
					0.0027622398920357227,
					1
				],
				"metallicFactor":0,
				"roughnessFactor":0
			}
		},
		{
			"doubleSided":true,
			"name":"Material.066",
			"pbrMetallicRoughness":{
				"baseColorFactor":[
					0.800000011920929,
					0.800000011920929,
					0.800000011920929,
					1
				],
				"metallicFactor":0,
				"roughnessFactor":0.5
			}
		},
		{
			"doubleSided":true,
			"name":"Material.040",
			"pbrMetallicRoughness":{
				"baseColorFactor":[
					0,
					0,
					0,
					1
				],
				"metallicFactor":0,
				"roughnessFactor":0.5
			}
		}
	],
	"meshes":[
		{
			"name":"Cylinder.005",
			"primitives":[
				{
					"attributes":{
						"POSITION":0,
						"NORMAL":1
					},
					"indices":2,
					"material":0
				}
			]
		},
		{
			"name":"Plane.051",
			"primitives":[
				{
					"attributes":{
						"POSITION":3,
						"NORMAL":4,
						"TEXCOORD_0":5
					},
					"indices":6,
					"material":1
				}
			]
		},
		{
			"name":"Text.019",
			"primitives":[
				{
					"attributes":{
						"POSITION":7,
						"NORMAL":8,
						"TEXCOORD_0":9
					},
					"indices":10,
					"material":2
				}
			]
		}
	],
	"accessors":[
		{
			"bufferView":0,
			"componentType":5126,
			"count":218,
			"max":[
				0.8313162326812744,
				6.483244895935059,
				1
			],
			"min":[
				-6.786894798278809,
				-1,
				-4.446455955505371
			],
			"type":"VEC3"
		},
		{
			"bufferView":1,
			"componentType":5126,
			"count":218,
			"type":"VEC3"
		},
		{
			"bufferView":2,
			"componentType":5123,
			"count":1308,
			"type":"SCALAR"
		},
		{
			"bufferView":3,
			"componentType":5126,
			"count":4,
			"max":[
				1,
				0,
				1
			],
			"min":[
				-1,
				0,
				-1
			],
			"type":"VEC3"
		},
		{
			"bufferView":4,
			"componentType":5126,
			"count":4,
			"type":"VEC3"
		},
		{
			"bufferView":5,
			"componentType":5126,
			"count":4,
			"type":"VEC2"
		},
		{
			"bufferView":6,
			"componentType":5123,
			"count":6,
			"type":"SCALAR"
		},
		{
			"bufferView":7,
			"componentType":5126,
			"count":3983,
			"max":[
				5.461000442504883,
				0.07999999076128006,
				0.23000000417232513
			],
			"min":[
				0.04800000041723251,
				-0.07999999076128006,
				-0.6910000443458557
			],
			"type":"VEC3"
		},
		{
			"bufferView":8,
			"componentType":5126,
			"count":3983,
			"type":"VEC3"
		},
		{
			"bufferView":9,
			"componentType":5126,
			"count":3983,
			"type":"VEC2"
		},
		{
			"bufferView":10,
			"componentType":5123,
			"count":11700,
			"type":"SCALAR"
		}
	],
	"bufferViews":[
		{
			"buffer":0,
			"byteLength":2616,
			"byteOffset":0,
			"target":34962
		},
		{
			"buffer":0,
			"byteLength":2616,
			"byteOffset":2616,
			"target":34962
		},
		{
			"buffer":0,
			"byteLength":2616,
			"byteOffset":5232,
			"target":34963
		},
		{
			"buffer":0,
			"byteLength":48,
			"byteOffset":7848,
			"target":34962
		},
		{
			"buffer":0,
			"byteLength":48,
			"byteOffset":7896,
			"target":34962
		},
		{
			"buffer":0,
			"byteLength":32,
			"byteOffset":7944,
			"target":34962
		},
		{
			"buffer":0,
			"byteLength":12,
			"byteOffset":7976,
			"target":34963
		},
		{
			"buffer":0,
			"byteLength":47796,
			"byteOffset":7988,
			"target":34962
		},
		{
			"buffer":0,
			"byteLength":47796,
			"byteOffset":55784,
			"target":34962
		},
		{
			"buffer":0,
			"byteLength":31864,
			"byteOffset":103580,
			"target":34962
		},
		{
			"buffer":0,
			"byteLength":23400,
			"byteOffset":135444,
			"target":34963
		}
	],
	"buffers":[
		{
			"byteLength":158844,
			"uri":"chloroplast1.bin"
		}
	]
}
