{
	"asset":{
		"generator":"Khronos glTF Blender I/O v3.6.27",
		"version":"2.0"
	},
	"scene":0,
	"scenes":[
		{
			"name":"Scene",
			"nodes":[
				0,
				1,
				2
			]
		}
	],
	"nodes":[
		{
			"mesh":0,
			"name":"main.001",
			"rotation":[
				0,
				0.7076175808906555,
				0,
				0.7065955996513367
			],
			"scale":[
				1.0034267902374268,
				0.9870356321334839,
				0.8948305249214172
			],
			"translation":[
				-1.777174949645996,
				7.07827091217041,
				-2.1567039489746094
			]
		},
		{
			"mesh":1,
			"name":"Plane.037",
			"rotation":[
				-0.5003611445426941,
				0.5003611445426941,
				-0.4996385872364044,
				0.49963870644569397
			],
			"scale":[
				0.12148329615592957,
				1,
				0.7542018294334412
			],
			"translation":[
				-1.7520527839660645,
				5.327547550201416,
				-1.114999532699585
			]
		},
		{
			"mesh":2,
			"name":"Text.022",
			"rotation":[
				0.7135963439941406,
				0,
				0,
				0.7005571126937866
			],
			"scale":[
				0.19766966998577118,
				0.19766971468925476,
				0.19766971468925476
			],
			"translation":[
				-2.203033447265625,
				5.254088401794434,
				-1.0932233333587646
			]
		}
	],
	"materials":[
		{
			"doubleSided":true,
			"name":"main",
			"pbrMetallicRoughness":{
				"baseColorFactor":[
					0.8000074625015259,
					0.7266815900802612,
					0.0020401799120008945,
					1
				],
				"metallicFactor":0,
				"roughnessFactor":0
			}
		},
		{
			"doubleSided":true,
			"name":"Material.066",
			"pbrMetallicRoughness":{
				"baseColorFactor":[
					0.800000011920929,
					0.800000011920929,
					0.800000011920929,
					1
				],
				"metallicFactor":0,
				"roughnessFactor":0.5
			}
		},
		{
			"doubleSided":true,
			"name":"Material.040",
			"pbrMetallicRoughness":{
				"baseColorFactor":[
					0,
					0,
					0,
					1
				],
				"metallicFactor":0,
				"roughnessFactor":0.5
			}
		}
	],
	"meshes":[
		{
			"name":"Cube.003",
			"primitives":[
				{
					"attributes":{
						"POSITION":0,
						"NORMAL":1
					},
					"indices":2,
					"material":0
				}
			]
		},
		{
			"name":"Plane.049",
			"primitives":[
				{
					"attributes":{
						"POSITION":3,
						"NORMAL":4,
						"TEXCOORD_0":5
					},
					"indices":6,
					"material":1
				}
			]
		},
		{
			"name":"Text.017",
			"primitives":[
				{
					"attributes":{
						"POSITION":7,
						"NORMAL":8,
						"TEXCOORD_0":9
					},
					"indices":10,
					"material":2
				}
			]
		}
	],
	"accessors":[
		{
			"bufferView":0,
			"componentType":5126,
			"count":144,
			"max":[
				1.3720015287399292,
				1.3720015287399292,
				1.3720015287399292
			],
			"min":[
				-1.3720015287399292,
				-1.3720015287399292,
				-1.3720015287399292
			],
			"type":"VEC3"
		},
		{
			"bufferView":1,
			"componentType":5126,
			"count":144,
			"type":"VEC3"
		},
		{
			"bufferView":2,
			"componentType":5123,
			"count":852,
			"type":"SCALAR"
		},
		{
			"bufferView":3,
			"componentType":5126,
			"count":4,
			"max":[
				1,
				0,
				1
			],
			"min":[
				-1,
				0,
				-1
			],
			"type":"VEC3"
		},
		{
			"bufferView":4,
			"componentType":5126,
			"count":4,
			"type":"VEC3"
		},
		{
			"bufferView":5,
			"componentType":5126,
			"count":4,
			"type":"VEC2"
		},
		{
			"bufferView":6,
			"componentType":5123,
			"count":6,
			"type":"SCALAR"
		},
		{
			"bufferView":7,
			"componentType":5126,
			"count":3062,
			"max":[
				4.27400016784668,
				0.07999999076128006,
				0.23000000417232513
			],
			"min":[
				0.04800000041723251,
				-0.07999999076128006,
				-0.6910000443458557
			],
			"type":"VEC3"
		},
		{
			"bufferView":8,
			"componentType":5126,
			"count":3062,
			"type":"VEC3"
		},
		{
			"bufferView":9,
			"componentType":5126,
			"count":3062,
			"type":"VEC2"
		},
		{
			"bufferView":10,
			"componentType":5123,
			"count":9012,
			"type":"SCALAR"
		}
	],
	"bufferViews":[
		{
			"buffer":0,
			"byteLength":1728,
			"byteOffset":0,
			"target":34962
		},
		{
			"buffer":0,
			"byteLength":1728,
			"byteOffset":1728,
			"target":34962
		},
		{
			"buffer":0,
			"byteLength":1704,
			"byteOffset":3456,
			"target":34963
		},
		{
			"buffer":0,
			"byteLength":48,
			"byteOffset":5160,
			"target":34962
		},
		{
			"buffer":0,
			"byteLength":48,
			"byteOffset":5208,
			"target":34962
		},
		{
			"buffer":0,
			"byteLength":32,
			"byteOffset":5256,
			"target":34962
		},
		{
			"buffer":0,
			"byteLength":12,
			"byteOffset":5288,
			"target":34963
		},
		{
			"buffer":0,
			"byteLength":36744,
			"byteOffset":5300,
			"target":34962
		},
		{
			"buffer":0,
			"byteLength":36744,
			"byteOffset":42044,
			"target":34962
		},
		{
			"buffer":0,
			"byteLength":24496,
			"byteOffset":78788,
			"target":34962
		},
		{
			"buffer":0,
			"byteLength":18024,
			"byteOffset":103284,
			"target":34963
		}
	],
	"buffers":[
		{
			"byteLength":121308,
			"uri":"cytoplasm1.bin"
		}
	]
}
