{
	"asset":{
		"generator":"Khronos glTF Blender I/O v3.6.27",
		"version":"2.0"
	},
	"scene":0,
	"scenes":[
		{
			"name":"Scene",
			"nodes":[
				5,
				6,
				7
			]
		}
	],
	"nodes":[
		{
			"mesh":0,
			"name":"Object_4.002"
		},
		{
			"mesh":1,
			"name":"Object_5.002"
		},
		{
			"mesh":2,
			"name":"Object_6.002"
		},
		{
			"children":[
				0,
				1,
				2
			],
			"name":"DNA_0.008"
		},
		{
			"children":[
				3
			],
			"name":"GLTF_SceneRootNode.008",
			"rotation":[
				0.70710688829422,
				0,
				0,
				0.7071066498756409
			],
			"translation":[
				-3.814697265625e-06,
				0,
				0
			]
		},
		{
			"children":[
				4
			],
			"name":"root.008",
			"scale":[
				0.031099123880267143,
				0.031099123880267143,
				0.031099123880267143
			],
			"translation":[
				1.7733403444290161,
				0.8582859039306641,
				1.0569682121276855
			]
		},
		{
			"mesh":3,
			"name":"Plane.045",
			"rotation":[
				-0.5003611445426941,
				0.5003611445426941,
				-0.4996385872364044,
				0.4996386766433716
			],
			"scale":[
				0.07267650216817856,
				0.598242998123169,
				0.45248034596443176
			],
			"translation":[
				1.7729631662368774,
				0.6760386824607849,
				1.3976658582687378
			]
		},
		{
			"mesh":4,
			"name":"Text.030",
			"rotation":[
				0.7135963439941406,
				0,
				0,
				0.7005571722984314
			],
			"scale":[
				0.12486957013607025,
				0.12486959248781204,
				0.12486959248781204
			],
			"translation":[
				1.3895316123962402,
				0.6391152739524841,
				1.4044127464294434
			]
		}
	],
	"materials":[
		{
			"doubleSided":true,
			"name":"Material.005",
			"pbrMetallicRoughness":{
				"baseColorFactor":[
					0.026150252670049667,
					0.04707924649119377,
					0.8000000715255737,
					1
				],
				"metallicFactor":0,
				"roughnessFactor":0.14544856548309326
			}
		},
		{
			"doubleSided":true,
			"name":"Material.012",
			"pbrMetallicRoughness":{
				"baseColorFactor":[
					0.800000011920929,
					0.800000011920929,
					0.800000011920929,
					1
				],
				"metallicFactor":0,
				"roughnessFactor":0.5
			}
		},
		{
			"doubleSided":true,
			"name":"Material.019",
			"pbrMetallicRoughness":{
				"baseColorFactor":[
					0,
					0,
					0,
					1
				],
				"metallicFactor":0,
				"roughnessFactor":0.5
			}
		}
	],
	"meshes":[
		{
			"name":"Object_0.010",
			"primitives":[
				{
					"attributes":{
						"POSITION":0,
						"NORMAL":1,
						"TEXCOORD_0":2
					},
					"indices":3,
					"material":0
				}
			]
		},
		{
			"name":"Object_1.009",
			"primitives":[
				{
					"attributes":{
						"POSITION":4,
						"NORMAL":5,
						"TEXCOORD_0":6
					},
					"indices":7,
					"material":0
				}
			]
		},
		{
			"name":"Object_2.009",
			"primitives":[
				{
					"attributes":{
						"POSITION":8,
						"NORMAL":9,
						"TEXCOORD_0":10
					},
					"indices":11,
					"material":0
				}
			]
		},
		{
			"name":"Plane.058",
			"primitives":[
				{
					"attributes":{
						"POSITION":12,
						"NORMAL":13,
						"TEXCOORD_0":14
					},
					"indices":15,
					"material":1
				}
			]
		},
		{
			"name":"Text.026",
			"primitives":[
				{
					"attributes":{
						"POSITION":16,
						"NORMAL":17,
						"TEXCOORD_0":18
					},
					"indices":19,
					"material":2
				}
			]
		}
	],
	"accessors":[
		{
			"bufferView":0,
			"componentType":5126,
			"count":65532,
			"max":[
				23.0443172454834,
				4.228568077087402,
				4.158324241638184
			],
			"min":[
				-23.005586624145508,
				-4.126410484313965,
				-4.274489402770996
			],
			"type":"VEC3"
		},
		{
			"bufferView":1,
			"componentType":5126,
			"count":65532,
			"type":"VEC3"
		},
		{
			"bufferView":2,
			"componentType":5126,
			"count":65532,
			"type":"VEC2"
		},
		{
			"bufferView":3,
			"componentType":5123,
			"count":342174,
			"type":"SCALAR"
		},
		{
			"bufferView":4,
			"componentType":5126,
			"count":65532,
			"max":[
				23.051254272460938,
				4.281656265258789,
				4.246856212615967
			],
			"min":[
				-23.009254455566406,
				-4.253169059753418,
				-4.219889163970947
			],
			"type":"VEC3"
		},
		{
			"bufferView":5,
			"componentType":5126,
			"count":65532,
			"type":"VEC3"
		},
		{
			"bufferView":6,
			"componentType":5126,
			"count":65532,
			"type":"VEC2"
		},
		{
			"bufferView":7,
			"componentType":5123,
			"count":342129,
			"type":"SCALAR"
		},
		{
			"bufferView":8,
			"componentType":5126,
			"count":30428,
			"max":[
				16.41888999938965,
				3.266132116317749,
				2.606057643890381
			],
			"min":[
				4.9410834312438965,
				-3.277599811553955,
				-1.384849190711975
			],
			"type":"VEC3"
		},
		{
			"bufferView":9,
			"componentType":5126,
			"count":30428,
			"type":"VEC3"
		},
		{
			"bufferView":10,
			"componentType":5126,
			"count":30428,
			"type":"VEC2"
		},
		{
			"bufferView":11,
			"componentType":5123,
			"count":158961,
			"type":"SCALAR"
		},
		{
			"bufferView":12,
			"componentType":5126,
			"count":4,
			"max":[
				1,
				0,
				1
			],
			"min":[
				-1,
				0,
				-1
			],
			"type":"VEC3"
		},
		{
			"bufferView":13,
			"componentType":5126,
			"count":4,
			"type":"VEC3"
		},
		{
			"bufferView":14,
			"componentType":5126,
			"count":4,
			"type":"VEC2"
		},
		{
			"bufferView":15,
			"componentType":5123,
			"count":6,
			"type":"SCALAR"
		},
		{
			"bufferView":16,
			"componentType":5126,
			"count":4352,
			"max":[
				6.011000633239746,
				0.07999999821186066,
				0.009000000543892384
			],
			"min":[
				0.04800000041723251,
				-0.07999999821186066,
				-0.6910000443458557
			],
			"type":"VEC3"
		},
		{
			"bufferView":17,
			"componentType":5126,
			"count":4352,
			"type":"VEC3"
		},
		{
			"bufferView":18,
			"componentType":5126,
			"count":4352,
			"type":"VEC2"
		},
		{
			"bufferView":19,
			"componentType":5123,
			"count":12864,
			"type":"SCALAR"
		}
	],
	"bufferViews":[
		{
			"buffer":0,
			"byteLength":786384,
			"byteOffset":0,
			"target":34962
		},
		{
			"buffer":0,
			"byteLength":786384,
			"byteOffset":786384,
			"target":34962
		},
		{
			"buffer":0,
			"byteLength":524256,
			"byteOffset":1572768,
			"target":34962
		},
		{
			"buffer":0,
			"byteLength":684348,
			"byteOffset":2097024,
			"target":34963
		},
		{
			"buffer":0,
			"byteLength":786384,
			"byteOffset":2781372,
			"target":34962
		},
		{
			"buffer":0,
			"byteLength":786384,
			"byteOffset":3567756,
			"target":34962
		},
		{
			"buffer":0,
			"byteLength":524256,
			"byteOffset":4354140,
			"target":34962
		},
		{
			"buffer":0,
			"byteLength":684258,
			"byteOffset":4878396,
			"target":34963
		},
		{
			"buffer":0,
			"byteLength":365136,
			"byteOffset":5562656,
			"target":34962
		},
		{
			"buffer":0,
			"byteLength":365136,
			"byteOffset":5927792,
			"target":34962
		},
		{
			"buffer":0,
			"byteLength":243424,
			"byteOffset":6292928,
			"target":34962
		},
		{
			"buffer":0,
			"byteLength":317922,
			"byteOffset":6536352,
			"target":34963
		},
		{
			"buffer":0,
			"byteLength":48,
			"byteOffset":6854276,
			"target":34962
		},
		{
			"buffer":0,
			"byteLength":48,
			"byteOffset":6854324,
			"target":34962
		},
		{
			"buffer":0,
			"byteLength":32,
			"byteOffset":6854372,
			"target":34962
		},
		{
			"buffer":0,
			"byteLength":12,
			"byteOffset":6854404,
			"target":34963
		},
		{
			"buffer":0,
			"byteLength":52224,
			"byteOffset":6854416,
			"target":34962
		},
		{
			"buffer":0,
			"byteLength":52224,
			"byteOffset":6906640,
			"target":34962
		},
		{
			"buffer":0,
			"byteLength":34816,
			"byteOffset":6958864,
			"target":34962
		},
		{
			"buffer":0,
			"byteLength":25728,
			"byteOffset":6993680,
			"target":34963
		}
	],
	"buffers":[
		{
			"byteLength":7019408,
			"uri":"dna2.bin"
		}
	]
}
