{
	"asset":{
		"generator":"Khronos glTF Blender I/O v3.6.27",
		"version":"2.0"
	},
	"scene":0,
	"scenes":[
		{
			"name":"Scene",
			"nodes":[
				0,
				1,
				2,
				3,
				4,
				5
			]
		}
	],
	"nodes":[
		{
			"mesh":0,
			"name":"Plane.045",
			"rotation":[
				-0.5003611445426941,
				0.5003611445426941,
				-0.4996385872364044,
				0.4996386766433716
			],
			"scale":[
				0.07267650216817856,
				0.598242998123169,
				0.45248034596443176
			],
			"translation":[
				1.7729631662368774,
				0.6760386824607849,
				1.3636189699172974
			]
		},
		{
			"mesh":1,
			"name":"Icosphere.014",
			"rotation":[
				-0.6829487681388855,
				-0.14651602506637573,
				-0.6967095136642456,
				0.16343168914318085
			],
			"scale":[
				0.025024397298693657,
				0.10235150158405304,
				0.02285650558769703
			],
			"translation":[
				1.6924936771392822,
				1.0639783143997192,
				1.337397575378418
			]
		},
		{
			"mesh":2,
			"name":"Icosphere.004",
			"rotation":[
				0.6922879219055176,
				-0.09286224097013474,
				0.7109549641609192,
				0.08159105479717255
			],
			"scale":[
				0.025024397298693657,
				0.10235149413347244,
				0.02285650558769703
			],
			"translation":[
				1.7652628421783447,
				1.069664478302002,
				1.3356127738952637
			]
		},
		{
			"mesh":3,
			"name":"Icosphere.015",
			"rotation":[
				0.042169298976659775,
				0.6704245805740356,
				-0.1703214794397354,
				0.7209322452545166
			],
			"scale":[
				0.025024397298693657,
				0.10235148668289185,
				0.02285650558769703
			],
			"translation":[
				1.6936454772949219,
				0.9083185195922852,
				1.3427900075912476
			]
		},
		{
			"mesh":4,
			"name":"Icosphere.016",
			"rotation":[
				-0.20818103849887848,
				0.6935077905654907,
				0.06048724055290222,
				0.68705815076828
			],
			"scale":[
				0.025024397298693657,
				0.10235148668289185,
				0.02285650558769703
			],
			"translation":[
				1.7662837505340576,
				0.913594126701355,
				1.3479582071304321
			]
		},
		{
			"mesh":5,
			"name":"Text.030",
			"rotation":[
				0.7135963439941406,
				0,
				0,
				0.7005571722984314
			],
			"scale":[
				0.12486957013607025,
				0.12486959248781204,
				0.12486959248781204
			],
			"translation":[
				1.3895316123962402,
				0.6391152739524841,
				1.4044127464294434
			]
		}
	],
	"materials":[
		{
			"doubleSided":true,
			"name":"Material.012",
			"pbrMetallicRoughness":{
				"baseColorFactor":[
					0.800000011920929,
					0.800000011920929,
					0.800000011920929,
					1
				],
				"metallicFactor":0,
				"roughnessFactor":0.5
			}
		},
		{
			"doubleSided":true,
			"name":"Material.001",
			"pbrMetallicRoughness":{
				"baseColorFactor":[
					0.026150252670049667,
					0.04707924649119377,
					0.8000000715255737,
					1
				],
				"metallicFactor":0,
				"roughnessFactor":0.14544856548309326
			}
		},
		{
			"doubleSided":true,
			"name":"Material.005",
			"pbrMetallicRoughness":{
				"baseColorFactor":[
					0.026150252670049667,
					0.04707924649119377,
					0.8000000715255737,
					1
				],
				"metallicFactor":0,
				"roughnessFactor":0.14544856548309326
			}
		},
		{
			"doubleSided":true,
			"name":"Material.019",
			"pbrMetallicRoughness":{
				"baseColorFactor":[
					0,
					0,
					0,
					1
				],
				"metallicFactor":0,
				"roughnessFactor":0.5
			}
		}
	],
	"meshes":[
		{
			"name":"Plane.058",
			"primitives":[
				{
					"attributes":{
						"POSITION":0,
						"NORMAL":1,
						"TEXCOORD_0":2
					},
					"indices":3,
					"material":0
				}
			]
		},
		{
			"name":"Icosphere.007",
			"primitives":[
				{
					"attributes":{
						"POSITION":4,
						"NORMAL":5
					},
					"indices":6,
					"material":1
				}
			]
		},
		{
			"name":"Icosphere.018",
			"primitives":[
				{
					"attributes":{
						"POSITION":7,
						"NORMAL":8
					},
					"indices":6,
					"material":2
				}
			]
		},
		{
			"name":"Icosphere.019",
			"primitives":[
				{
					"attributes":{
						"POSITION":9,
						"NORMAL":10
					},
					"indices":6,
					"material":2
				}
			]
		},
		{
			"name":"Icosphere.020",
			"primitives":[
				{
					"attributes":{
						"POSITION":11,
						"NORMAL":12
					},
					"indices":6,
					"material":2
				}
			]
		},
		{
			"name":"Text.026",
			"primitives":[
				{
					"attributes":{
						"POSITION":13,
						"NORMAL":14,
						"TEXCOORD_0":15
					},
					"indices":16,
					"material":3
				}
			]
		}
	],
	"accessors":[
		{
			"bufferView":0,
			"componentType":5126,
			"count":4,
			"max":[
				1,
				0,
				1
			],
			"min":[
				-1,
				0,
				-1
			],
			"type":"VEC3"
		},
		{
			"bufferView":1,
			"componentType":5126,
			"count":4,
			"type":"VEC3"
		},
		{
			"bufferView":2,
			"componentType":5126,
			"count":4,
			"type":"VEC2"
		},
		{
			"bufferView":3,
			"componentType":5123,
			"count":6,
			"type":"SCALAR"
		},
		{
			"bufferView":4,
			"componentType":5126,
			"count":240,
			"max":[
				0.9510578513145447,
				1,
				0.9999999403953552
			],
			"min":[
				-0.9510578513145447,
				-1,
				-0.9999999403953552
			],
			"type":"VEC3"
		},
		{
			"bufferView":5,
			"componentType":5126,
			"count":240,
			"type":"VEC3"
		},
		{
			"bufferView":6,
			"componentType":5123,
			"count":240,
			"type":"SCALAR"
		},
		{
			"bufferView":7,
			"componentType":5126,
			"count":240,
			"max":[
				0.9510578513145447,
				1,
				0.9999999403953552
			],
			"min":[
				-0.9510578513145447,
				-1,
				-0.9999999403953552
			],
			"type":"VEC3"
		},
		{
			"bufferView":8,
			"componentType":5126,
			"count":240,
			"type":"VEC3"
		},
		{
			"bufferView":9,
			"componentType":5126,
			"count":240,
			"max":[
				0.9510578513145447,
				1,
				0.9999999403953552
			],
			"min":[
				-0.9510578513145447,
				-1,
				-0.9999999403953552
			],
			"type":"VEC3"
		},
		{
			"bufferView":10,
			"componentType":5126,
			"count":240,
			"type":"VEC3"
		},
		{
			"bufferView":11,
			"componentType":5126,
			"count":240,
			"max":[
				0.9510578513145447,
				1,
				0.9999999403953552
			],
			"min":[
				-0.9510578513145447,
				-1,
				-0.9999999403953552
			],
			"type":"VEC3"
		},
		{
			"bufferView":12,
			"componentType":5126,
			"count":240,
			"type":"VEC3"
		},
		{
			"bufferView":13,
			"componentType":5126,
			"count":4352,
			"max":[
				6.011000633239746,
				0.07999999821186066,
				0.009000000543892384
			],
			"min":[
				0.04800000041723251,
				-0.07999999821186066,
				-0.6910000443458557
			],
			"type":"VEC3"
		},
		{
			"bufferView":14,
			"componentType":5126,
			"count":4352,
			"type":"VEC3"
		},
		{
			"bufferView":15,
			"componentType":5126,
			"count":4352,
			"type":"VEC2"
		},
		{
			"bufferView":16,
			"componentType":5123,
			"count":12864,
			"type":"SCALAR"
		}
	],
	"bufferViews":[
		{
			"buffer":0,
			"byteLength":48,
			"byteOffset":0,
			"target":34962
		},
		{
			"buffer":0,
			"byteLength":48,
			"byteOffset":48,
			"target":34962
		},
		{
			"buffer":0,
			"byteLength":32,
			"byteOffset":96,
			"target":34962
		},
		{
			"buffer":0,
			"byteLength":12,
			"byteOffset":128,
			"target":34963
		},
		{
			"buffer":0,
			"byteLength":2880,
			"byteOffset":140,
			"target":34962
		},
		{
			"buffer":0,
			"byteLength":2880,
			"byteOffset":3020,
			"target":34962
		},
		{
			"buffer":0,
			"byteLength":480,
			"byteOffset":5900,
			"target":34963
		},
		{
			"buffer":0,
			"byteLength":2880,
			"byteOffset":6380,
			"target":34962
		},
		{
			"buffer":0,
			"byteLength":2880,
			"byteOffset":9260,
			"target":34962
		},
		{
			"buffer":0,
			"byteLength":2880,
			"byteOffset":12140,
			"target":34962
		},
		{
			"buffer":0,
			"byteLength":2880,
			"byteOffset":15020,
			"target":34962
		},
		{
			"buffer":0,
			"byteLength":2880,
			"byteOffset":17900,
			"target":34962
		},
		{
			"buffer":0,
			"byteLength":2880,
			"byteOffset":20780,
			"target":34962
		},
		{
			"buffer":0,
			"byteLength":52224,
			"byteOffset":23660,
			"target":34962
		},
		{
			"buffer":0,
			"byteLength":52224,
			"byteOffset":75884,
			"target":34962
		},
		{
			"buffer":0,
			"byteLength":34816,
			"byteOffset":128108,
			"target":34962
		},
		{
			"buffer":0,
			"byteLength":25728,
			"byteOffset":162924,
			"target":34963
		}
	],
	"buffers":[
		{
			"byteLength":188652,
			"uri":"dna4.bin"
		}
	]
}
