{
	"asset":{
		"generator":"Khronos glTF Blender I/O v3.6.27",
		"version":"2.0"
	},
	"scene":0,
	"scenes":[
		{
			"name":"Scene",
			"nodes":[
				0,
				1,
				2
			]
		}
	],
	"nodes":[
		{
			"mesh":0,
			"name":"Blue_Top.001",
			"rotation":[
				0.697746992111206,
				-0.11366129666566849,
				-0.11466968804597855,
				0.6979119777679443
			],
			"scale":[
				0.03030143678188324,
				0.05002301558852196,
				0.05846875533461571
			],
			"translation":[
				0.5850033760070801,
				1.496578335762024,
				3.752556800842285
			]
		},
		{
			"mesh":1,
			"name":"Plane.038",
			"rotation":[
				-0.5003611445426941,
				0.5003611445426941,
				-0.49963855743408203,
				0.4996386766433716
			],
			"scale":[
				0.12148329615592957,
				1,
				1.1837635040283203
			],
			"translation":[
				1.1908740997314453,
				0.82899010181427,
				4.948245525360107
			]
		},
		{
			"mesh":2,
			"name":"Text.023",
			"rotation":[
				0.7135963439941406,
				0,
				0,
				0.7005571126937866
			],
			"scale":[
				0.19766966998577118,
				0.19766971468925476,
				0.19766971468925476
			],
			"translation":[
				0.31831857562065125,
				0.7555304765701294,
				4.970021724700928
			]
		}
	],
	"materials":[
		{
			"doubleSided":true,
			"name":"Azul_Top",
			"pbrMetallicRoughness":{
				"baseColorFactor":[
					0.8000156879425049,
					0.011810874566435814,
					0.4876093566417694,
					1
				],
				"metallicFactor":0,
				"roughnessFactor":0
			}
		},
		{
			"doubleSided":true,
			"name":"Material.066",
			"pbrMetallicRoughness":{
				"baseColorFactor":[
					0.800000011920929,
					0.800000011920929,
					0.800000011920929,
					1
				],
				"metallicFactor":0,
				"roughnessFactor":0.5
			}
		},
		{
			"doubleSided":true,
			"name":"Material.040",
			"pbrMetallicRoughness":{
				"baseColorFactor":[
					0,
					0,
					0,
					1
				],
				"metallicFactor":0,
				"roughnessFactor":0.5
			}
		}
	],
	"meshes":[
		{
			"name":"Cylinder.004",
			"primitives":[
				{
					"attributes":{
						"POSITION":0,
						"NORMAL":1
					},
					"indices":2,
					"material":0
				}
			]
		},
		{
			"name":"Plane.050",
			"primitives":[
				{
					"attributes":{
						"POSITION":3,
						"NORMAL":4,
						"TEXCOORD_0":5
					},
					"indices":6,
					"material":1
				}
			]
		},
		{
			"name":"Text.018",
			"primitives":[
				{
					"attributes":{
						"POSITION":7,
						"NORMAL":8,
						"TEXCOORD_0":9
					},
					"indices":10,
					"material":2
				}
			]
		}
	],
	"accessors":[
		{
			"bufferView":0,
			"componentType":5126,
			"count":4647,
			"max":[
				41.32406234741211,
				27.794872283935547,
				4.316579341888428
			],
			"min":[
				-4.031057357788086,
				0.17725539207458496,
				-13.139900207519531
			],
			"type":"VEC3"
		},
		{
			"bufferView":1,
			"componentType":5126,
			"count":4647,
			"type":"VEC3"
		},
		{
			"bufferView":2,
			"componentType":5123,
			"count":25326,
			"type":"SCALAR"
		},
		{
			"bufferView":3,
			"componentType":5126,
			"count":4,
			"max":[
				1,
				0,
				1
			],
			"min":[
				-1,
				0,
				-1
			],
			"type":"VEC3"
		},
		{
			"bufferView":4,
			"componentType":5126,
			"count":4,
			"type":"VEC3"
		},
		{
			"bufferView":5,
			"componentType":5126,
			"count":4,
			"type":"VEC2"
		},
		{
			"bufferView":6,
			"componentType":5123,
			"count":6,
			"type":"SCALAR"
		},
		{
			"bufferView":7,
			"componentType":5126,
			"count":6115,
			"max":[
				9.303000450134277,
				0.07999999076128006,
				0.23000000417232513
			],
			"min":[
				0.07500000298023224,
				-0.07999999076128006,
				-0.6820000410079956
			],
			"type":"VEC3"
		},
		{
			"bufferView":8,
			"componentType":5126,
			"count":6115,
			"type":"VEC3"
		},
		{
			"bufferView":9,
			"componentType":5126,
			"count":6115,
			"type":"VEC2"
		},
		{
			"bufferView":10,
			"componentType":5123,
			"count":17976,
			"type":"SCALAR"
		}
	],
	"bufferViews":[
		{
			"buffer":0,
			"byteLength":55764,
			"byteOffset":0,
			"target":34962
		},
		{
			"buffer":0,
			"byteLength":55764,
			"byteOffset":55764,
			"target":34962
		},
		{
			"buffer":0,
			"byteLength":50652,
			"byteOffset":111528,
			"target":34963
		},
		{
			"buffer":0,
			"byteLength":48,
			"byteOffset":162180,
			"target":34962
		},
		{
			"buffer":0,
			"byteLength":48,
			"byteOffset":162228,
			"target":34962
		},
		{
			"buffer":0,
			"byteLength":32,
			"byteOffset":162276,
			"target":34962
		},
		{
			"buffer":0,
			"byteLength":12,
			"byteOffset":162308,
			"target":34963
		},
		{
			"buffer":0,
			"byteLength":73380,
			"byteOffset":162320,
			"target":34962
		},
		{
			"buffer":0,
			"byteLength":73380,
			"byteOffset":235700,
			"target":34962
		},
		{
			"buffer":0,
			"byteLength":48920,
			"byteOffset":309080,
			"target":34962
		},
		{
			"buffer":0,
			"byteLength":35952,
			"byteOffset":358000,
			"target":34963
		}
	],
	"buffers":[
		{
			"byteLength":393952,
			"uri":"ER1.bin"
		}
	]
}
