{
	"asset":{
		"generator":"Khronos glTF Blender I/O v3.6.27",
		"version":"2.0"
	},
	"scene":0,
	"scenes":[
		{
			"name":"Scene",
			"nodes":[
				0,
				1,
				2
			]
		}
	],
	"nodes":[
		{
			"mesh":0,
			"name":"Red_Top.001",
			"rotation":[
				0.6106182336807251,
				0.17520955204963684,
				-0.3478037118911743,
				0.6895503997802734
			],
			"scale":[
				0.012648282572627068,
				0.03277014195919037,
				0.0383029505610466
			],
			"translation":[
				0.19453655183315277,
				4.721649169921875,
				-0.5481608510017395
			]
		},
		{
			"mesh":1,
			"name":"Plane.036",
			"rotation":[
				-0.5003611445426941,
				0.5003611445426941,
				-0.4996385872364044,
				0.49963870644569397
			],
			"scale":[
				0.12148329615592957,
				1,
				0.9392400979995728
			],
			"translation":[
				0.3749666213989258,
				4.2165021896362305,
				-0.6424707174301147
			]
		},
		{
			"mesh":2,
			"name":"Text.021",
			"rotation":[
				0.7135963439941406,
				0,
				0,
				0.7005571126937866
			],
			"scale":[
				0.19766966998577118,
				0.19766971468925476,
				0.19766971468925476
			],
			"translation":[
				-0.19388829171657562,
				4.14304256439209,
				-0.6206945180892944
			]
		}
	],
	"materials":[
		{
			"doubleSided":true,
			"name":"Red_Top",
			"pbrMetallicRoughness":{
				"baseColorFactor":[
					0.03932596370577812,
					0.06633059680461884,
					0.8001196980476379,
					1
				],
				"metallicFactor":0,
				"roughnessFactor":0
			}
		},
		{
			"doubleSided":true,
			"name":"Material.066",
			"pbrMetallicRoughness":{
				"baseColorFactor":[
					0.800000011920929,
					0.800000011920929,
					0.800000011920929,
					1
				],
				"metallicFactor":0,
				"roughnessFactor":0.5
			}
		},
		{
			"doubleSided":true,
			"name":"Material.040",
			"pbrMetallicRoughness":{
				"baseColorFactor":[
					0,
					0,
					0,
					1
				],
				"metallicFactor":0,
				"roughnessFactor":0.5
			}
		}
	],
	"meshes":[
		{
			"name":"Cylinder.003",
			"primitives":[
				{
					"attributes":{
						"POSITION":0,
						"NORMAL":1
					},
					"indices":2,
					"material":0
				}
			]
		},
		{
			"name":"Plane.048",
			"primitives":[
				{
					"attributes":{
						"POSITION":3,
						"NORMAL":4,
						"TEXCOORD_0":5
					},
					"indices":6,
					"material":1
				}
			]
		},
		{
			"name":"Text.016",
			"primitives":[
				{
					"attributes":{
						"POSITION":7,
						"NORMAL":8,
						"TEXCOORD_0":9
					},
					"indices":10,
					"material":2
				}
			]
		}
	],
	"accessors":[
		{
			"bufferView":0,
			"componentType":5126,
			"count":1476,
			"max":[
				16.413558959960938,
				19.46384048461914,
				1.6597117185592651
			],
			"min":[
				-13.132245063781738,
				-6.704178810119629,
				-2.5572924613952637
			],
			"type":"VEC3"
		},
		{
			"bufferView":1,
			"componentType":5126,
			"count":1476,
			"type":"VEC3"
		},
		{
			"bufferView":2,
			"componentType":5123,
			"count":8100,
			"type":"SCALAR"
		},
		{
			"bufferView":3,
			"componentType":5126,
			"count":4,
			"max":[
				1,
				0,
				1
			],
			"min":[
				-1,
				0,
				-1
			],
			"type":"VEC3"
		},
		{
			"bufferView":4,
			"componentType":5126,
			"count":4,
			"type":"VEC3"
		},
		{
			"bufferView":5,
			"componentType":5126,
			"count":4,
			"type":"VEC2"
		},
		{
			"bufferView":6,
			"componentType":5123,
			"count":6,
			"type":"SCALAR"
		},
		{
			"bufferView":7,
			"componentType":5126,
			"count":5361,
			"max":[
				6.530000686645508,
				0.07999999076128006,
				0.23000000417232513
			],
			"min":[
				0.05000000074505806,
				-0.07999999076128006,
				-0.6910000443458557
			],
			"type":"VEC3"
		},
		{
			"bufferView":8,
			"componentType":5126,
			"count":5361,
			"type":"VEC3"
		},
		{
			"bufferView":9,
			"componentType":5126,
			"count":5361,
			"type":"VEC2"
		},
		{
			"bufferView":10,
			"componentType":5123,
			"count":15852,
			"type":"SCALAR"
		}
	],
	"bufferViews":[
		{
			"buffer":0,
			"byteLength":17712,
			"byteOffset":0,
			"target":34962
		},
		{
			"buffer":0,
			"byteLength":17712,
			"byteOffset":17712,
			"target":34962
		},
		{
			"buffer":0,
			"byteLength":16200,
			"byteOffset":35424,
			"target":34963
		},
		{
			"buffer":0,
			"byteLength":48,
			"byteOffset":51624,
			"target":34962
		},
		{
			"buffer":0,
			"byteLength":48,
			"byteOffset":51672,
			"target":34962
		},
		{
			"buffer":0,
			"byteLength":32,
			"byteOffset":51720,
			"target":34962
		},
		{
			"buffer":0,
			"byteLength":12,
			"byteOffset":51752,
			"target":34963
		},
		{
			"buffer":0,
			"byteLength":64332,
			"byteOffset":51764,
			"target":34962
		},
		{
			"buffer":0,
			"byteLength":64332,
			"byteOffset":116096,
			"target":34962
		},
		{
			"buffer":0,
			"byteLength":42888,
			"byteOffset":180428,
			"target":34962
		},
		{
			"buffer":0,
			"byteLength":31704,
			"byteOffset":223316,
			"target":34963
		}
	],
	"buffers":[
		{
			"byteLength":255020,
			"uri":"golgi1.bin"
		}
	]
}
