{
	"asset":{
		"generator":"Khronos glTF Blender I/O v3.6.27",
		"version":"2.0"
	},
	"scene":0,
	"scenes":[
		{
			"name":"Scene",
			"nodes":[
				0,
				1,
				2
			]
		}
	],
	"nodes":[
		{
			"mesh":0,
			"name":"Piedra_Naranja.001",
			"rotation":[
				0.35826101899147034,
				0.6101585626602173,
				0.5945426821708679,
				0.38193538784980774
			],
			"scale":[
				0.11588163673877716,
				0.14489789307117462,
				0.1395425647497177
			],
			"translation":[
				6.8452043533325195,
				0.6033236980438232,
				1.5447399616241455
			]
		},
		{
			"mesh":1,
			"name":"Plane.041",
			"rotation":[
				-0.5003611445426941,
				0.5003611445426941,
				-0.4996385872364044,
				0.4996386766433716
			],
			"scale":[
				0.12148329615592957,
				1,
				0.6671497225761414
			],
			"translation":[
				6.852887153625488,
				-0.08659105747938156,
				1.9470856189727783
			]
		},
		{
			"mesh":2,
			"name":"Text.026",
			"rotation":[
				0.7135963439941406,
				0,
				0,
				0.7005571126937866
			],
			"scale":[
				0.19766966998577118,
				0.19766971468925476,
				0.19766971468925476
			],
			"translation":[
				6.464849948883057,
				-0.16005045175552368,
				1.9688618183135986
			]
		}
	],
	"materials":[
		{
			"doubleSided":true,
			"name":"Naranja",
			"pbrMetallicRoughness":{
				"baseColorFactor":[
					0.8001416921615601,
					0.17389583587646484,
					0.027613619342446327,
					1
				],
				"metallicFactor":0,
				"roughnessFactor":0
			}
		},
		{
			"doubleSided":true,
			"name":"Material.066",
			"pbrMetallicRoughness":{
				"baseColorFactor":[
					0.800000011920929,
					0.800000011920929,
					0.800000011920929,
					1
				],
				"metallicFactor":0,
				"roughnessFactor":0.5
			}
		},
		{
			"doubleSided":true,
			"name":"Material.040",
			"pbrMetallicRoughness":{
				"baseColorFactor":[
					0,
					0,
					0,
					1
				],
				"metallicFactor":0,
				"roughnessFactor":0.5
			}
		}
	],
	"meshes":[
		{
			"name":"Cube.005",
			"primitives":[
				{
					"attributes":{
						"POSITION":0,
						"NORMAL":1
					},
					"indices":2,
					"material":0
				}
			]
		},
		{
			"name":"Plane.053",
			"primitives":[
				{
					"attributes":{
						"POSITION":3,
						"NORMAL":4,
						"TEXCOORD_0":5
					},
					"indices":6,
					"material":1
				}
			]
		},
		{
			"name":"Text.021",
			"primitives":[
				{
					"attributes":{
						"POSITION":7,
						"NORMAL":8,
						"TEXCOORD_0":9
					},
					"indices":10,
					"material":2
				}
			]
		}
	],
	"accessors":[
		{
			"bufferView":0,
			"componentType":5126,
			"count":12,
			"max":[
				1.5733368396759033,
				1.4270062446594238,
				1.000000238418579
			],
			"min":[
				-2.491560459136963,
				-1.1351978778839111,
				-1.000000238418579
			],
			"type":"VEC3"
		},
		{
			"bufferView":1,
			"componentType":5126,
			"count":12,
			"type":"VEC3"
		},
		{
			"bufferView":2,
			"componentType":5123,
			"count":60,
			"type":"SCALAR"
		},
		{
			"bufferView":3,
			"componentType":5126,
			"count":4,
			"max":[
				1,
				0,
				1
			],
			"min":[
				-1,
				0,
				-1
			],
			"type":"VEC3"
		},
		{
			"bufferView":4,
			"componentType":5126,
			"count":4,
			"type":"VEC3"
		},
		{
			"bufferView":5,
			"componentType":5126,
			"count":4,
			"type":"VEC2"
		},
		{
			"bufferView":6,
			"componentType":5123,
			"count":6,
			"type":"SCALAR"
		},
		{
			"bufferView":7,
			"componentType":5126,
			"count":2742,
			"max":[
				4.01900053024292,
				0.07999999076128006,
				0.23000000417232513
			],
			"min":[
				0.07400000095367432,
				-0.07999999076128006,
				-0.6820000410079956
			],
			"type":"VEC3"
		},
		{
			"bufferView":8,
			"componentType":5126,
			"count":2742,
			"type":"VEC3"
		},
		{
			"bufferView":9,
			"componentType":5126,
			"count":2742,
			"type":"VEC2"
		},
		{
			"bufferView":10,
			"componentType":5123,
			"count":8100,
			"type":"SCALAR"
		}
	],
	"bufferViews":[
		{
			"buffer":0,
			"byteLength":144,
			"byteOffset":0,
			"target":34962
		},
		{
			"buffer":0,
			"byteLength":144,
			"byteOffset":144,
			"target":34962
		},
		{
			"buffer":0,
			"byteLength":120,
			"byteOffset":288,
			"target":34963
		},
		{
			"buffer":0,
			"byteLength":48,
			"byteOffset":408,
			"target":34962
		},
		{
			"buffer":0,
			"byteLength":48,
			"byteOffset":456,
			"target":34962
		},
		{
			"buffer":0,
			"byteLength":32,
			"byteOffset":504,
			"target":34962
		},
		{
			"buffer":0,
			"byteLength":12,
			"byteOffset":536,
			"target":34963
		},
		{
			"buffer":0,
			"byteLength":32904,
			"byteOffset":548,
			"target":34962
		},
		{
			"buffer":0,
			"byteLength":32904,
			"byteOffset":33452,
			"target":34962
		},
		{
			"buffer":0,
			"byteLength":21936,
			"byteOffset":66356,
			"target":34962
		},
		{
			"buffer":0,
			"byteLength":16200,
			"byteOffset":88292,
			"target":34963
		}
	],
	"buffers":[
		{
			"byteLength":104492,
			"uri":"lysosome1.bin"
		}
	]
}
