{
	"asset":{
		"generator":"Khronos glTF Blender I/O v3.6.27",
		"version":"2.0"
	},
	"scene":0,
	"scenes":[
		{
			"name":"Scene",
			"nodes":[
				0,
				1,
				2
			]
		}
	],
	"nodes":[
		{
			"mesh":0,
			"name":"Amarillo_Interno.001",
			"rotation":[
				-0.05927208438515663,
				-0.8189991116523743,
				0.043528277426958084,
				0.5690630674362183
			],
			"scale":[
				0.14162258803844452,
				0.06986378133296967,
				0.14162258803844452
			],
			"translation":[
				-4.652432918548584,
				3.302217960357666,
				0.15517783164978027
			]
		},
		{
			"mesh":1,
			"name":"Plane.012",
			"rotation":[
				-0.5003611445426941,
				0.5003611445426941,
				-0.4996385872364044,
				0.4996386766433716
			],
			"scale":[
				0.12148329615592957,
				1,
				0.6671497225761414
			],
			"translation":[
				-4.4007062911987305,
				2.706066608428955,
				-0.38350343704223633
			]
		},
		{
			"mesh":2,
			"name":"Text.017",
			"rotation":[
				0.7135963439941406,
				0,
				0,
				0.7005571126937866
			],
			"scale":[
				0.19766966998577118,
				0.19766971468925476,
				0.19766971468925476
			],
			"translation":[
				-4.915687084197998,
				2.6326072216033936,
				-0.361727237701416
			]
		}
	],
	"materials":[
		{
			"doubleSided":true,
			"name":"Amarillo",
			"pbrMetallicRoughness":{
				"baseColorFactor":[
					0.8000394701957703,
					0.0017173051601275802,
					0,
					1
				],
				"metallicFactor":0,
				"roughnessFactor":0
			}
		},
		{
			"doubleSided":true,
			"name":"Material.066",
			"pbrMetallicRoughness":{
				"baseColorFactor":[
					0.800000011920929,
					0.800000011920929,
					0.800000011920929,
					1
				],
				"metallicFactor":0,
				"roughnessFactor":0.5
			}
		},
		{
			"doubleSided":true,
			"name":"Material.040",
			"pbrMetallicRoughness":{
				"baseColorFactor":[
					0,
					0,
					0,
					1
				],
				"metallicFactor":0,
				"roughnessFactor":0.5
			}
		}
	],
	"meshes":[
		{
			"name":"Cylinder.002",
			"primitives":[
				{
					"attributes":{
						"POSITION":0,
						"NORMAL":1
					},
					"indices":2,
					"material":0
				}
			]
		},
		{
			"name":"Plane.045",
			"primitives":[
				{
					"attributes":{
						"POSITION":3,
						"NORMAL":4,
						"TEXCOORD_0":5
					},
					"indices":6,
					"material":1
				}
			]
		},
		{
			"name":"Text.013",
			"primitives":[
				{
					"attributes":{
						"POSITION":7,
						"NORMAL":8,
						"TEXCOORD_0":9
					},
					"indices":10,
					"material":2
				}
			]
		}
	],
	"accessors":[
		{
			"bufferView":0,
			"componentType":5126,
			"count":274,
			"max":[
				0.8313162326812744,
				21.278934478759766,
				2.320389747619629
			],
			"min":[
				-8.675110816955566,
				-1,
				-2.050294876098633
			],
			"type":"VEC3"
		},
		{
			"bufferView":1,
			"componentType":5126,
			"count":274,
			"type":"VEC3"
		},
		{
			"bufferView":2,
			"componentType":5123,
			"count":1668,
			"type":"SCALAR"
		},
		{
			"bufferView":3,
			"componentType":5126,
			"count":4,
			"max":[
				1,
				0,
				1
			],
			"min":[
				-1,
				0,
				-1
			],
			"type":"VEC3"
		},
		{
			"bufferView":4,
			"componentType":5126,
			"count":4,
			"type":"VEC3"
		},
		{
			"bufferView":5,
			"componentType":5126,
			"count":4,
			"type":"VEC2"
		},
		{
			"bufferView":6,
			"componentType":5123,
			"count":6,
			"type":"SCALAR"
		},
		{
			"bufferView":7,
			"componentType":5126,
			"count":3592,
			"max":[
				5.4110002517700195,
				0.07999999076128006,
				0.009000000543892384
			],
			"min":[
				0.07300000637769699,
				-0.07999999076128006,
				-0.6820000410079956
			],
			"type":"VEC3"
		},
		{
			"bufferView":8,
			"componentType":5126,
			"count":3592,
			"type":"VEC3"
		},
		{
			"bufferView":9,
			"componentType":5126,
			"count":3592,
			"type":"VEC2"
		},
		{
			"bufferView":10,
			"componentType":5123,
			"count":10536,
			"type":"SCALAR"
		}
	],
	"bufferViews":[
		{
			"buffer":0,
			"byteLength":3288,
			"byteOffset":0,
			"target":34962
		},
		{
			"buffer":0,
			"byteLength":3288,
			"byteOffset":3288,
			"target":34962
		},
		{
			"buffer":0,
			"byteLength":3336,
			"byteOffset":6576,
			"target":34963
		},
		{
			"buffer":0,
			"byteLength":48,
			"byteOffset":9912,
			"target":34962
		},
		{
			"buffer":0,
			"byteLength":48,
			"byteOffset":9960,
			"target":34962
		},
		{
			"buffer":0,
			"byteLength":32,
			"byteOffset":10008,
			"target":34962
		},
		{
			"buffer":0,
			"byteLength":12,
			"byteOffset":10040,
			"target":34963
		},
		{
			"buffer":0,
			"byteLength":43104,
			"byteOffset":10052,
			"target":34962
		},
		{
			"buffer":0,
			"byteLength":43104,
			"byteOffset":53156,
			"target":34962
		},
		{
			"buffer":0,
			"byteLength":28736,
			"byteOffset":96260,
			"target":34962
		},
		{
			"buffer":0,
			"byteLength":21072,
			"byteOffset":124996,
			"target":34963
		}
	],
	"buffers":[
		{
			"byteLength":146068,
			"uri":"mitochondria1.bin"
		}
	]
}
