{
	"asset":{
		"generator":"Khronos glTF Blender I/O v3.6.27",
		"version":"2.0"
	},
	"scene":0,
	"scenes":[
		{
			"name":"Scene",
			"nodes":[
				0,
				1,
				2
			]
		}
	],
	"nodes":[
		{
			"mesh":0,
			"name":"Plane.042",
			"rotation":[
				-0.5003611445426941,
				0.5003611445426941,
				-0.49963855743408203,
				0.4996386766433716
			],
			"scale":[
				0.07267650216817856,
				0.5982427597045898,
				0.39911752939224243
			],
			"translation":[
				0.38834142684936523,
				0.9728810787200928,
				0.9767681360244751
			]
		},
		{
			"mesh":1,
			"name":"Text.027",
			"rotation":[
				0.7135963439941406,
				0,
				0,
				0.7005571722984314
			],
			"scale":[
				0.12486957013607025,
				0.12486959248781204,
				0.12486959248781204
			],
			"translation":[
				0.13643085956573486,
				0.935957670211792,
				0.9835150241851807
			]
		},
		{
			"mesh":2,
			"name":"Object_2.002",
			"rotation":[
				-0.70710688829422,
				0,
				0,
				0.7071066498756409
			],
			"scale":[
				0.021388405933976173,
				0.021388405933976173,
				0.021388405933976173
			],
			"translation":[
				0.3672370910644531,
				1.1552289724349976,
				0.7567497491836548
			]
		}
	],
	"materials":[
		{
			"doubleSided":true,
			"name":"Material.012",
			"pbrMetallicRoughness":{
				"baseColorFactor":[
					0.800000011920929,
					0.800000011920929,
					0.800000011920929,
					1
				],
				"metallicFactor":0,
				"roughnessFactor":0.5
			}
		},
		{
			"doubleSided":true,
			"name":"Material.019",
			"pbrMetallicRoughness":{
				"baseColorFactor":[
					0,
					0,
					0,
					1
				],
				"metallicFactor":0,
				"roughnessFactor":0.5
			}
		},
		{
			"doubleSided":true,
			"name":"Scene_-_Root",
			"pbrMetallicRoughness":{
				"baseColorFactor":[
					0.8433143496513367,
					1,
					0.05314228683710098,
					1
				],
				"metallicFactor":0,
				"roughnessFactor":0.6000000238418579
			}
		}
	],
	"meshes":[
		{
			"name":"Plane.054",
			"primitives":[
				{
					"attributes":{
						"POSITION":0,
						"NORMAL":1,
						"TEXCOORD_0":2
					},
					"indices":3,
					"material":0
				}
			]
		},
		{
			"name":"Text.022",
			"primitives":[
				{
					"attributes":{
						"POSITION":4,
						"NORMAL":5,
						"TEXCOORD_0":6
					},
					"indices":7,
					"material":1
				}
			]
		},
		{
			"name":"Object_0.018",
			"primitives":[
				{
					"attributes":{
						"POSITION":8,
						"NORMAL":9
					},
					"indices":10,
					"material":2
				}
			]
		}
	],
	"accessors":[
		{
			"bufferView":0,
			"componentType":5126,
			"count":4,
			"max":[
				1,
				0,
				1
			],
			"min":[
				-1,
				0,
				-1
			],
			"type":"VEC3"
		},
		{
			"bufferView":1,
			"componentType":5126,
			"count":4,
			"type":"VEC3"
		},
		{
			"bufferView":2,
			"componentType":5126,
			"count":4,
			"type":"VEC2"
		},
		{
			"bufferView":3,
			"componentType":5123,
			"count":6,
			"type":"SCALAR"
		},
		{
			"bufferView":4,
			"componentType":5126,
			"count":2250,
			"max":[
				4.0329999923706055,
				0.07999999821186066,
				0.009000000543892384
			],
			"min":[
				0.07400000095367432,
				-0.07999999821186066,
				-0.6820000410079956
			],
			"type":"VEC3"
		},
		{
			"bufferView":5,
			"componentType":5126,
			"count":2250,
			"type":"VEC3"
		},
		{
			"bufferView":6,
			"componentType":5126,
			"count":2250,
			"type":"VEC2"
		},
		{
			"bufferView":7,
			"componentType":5123,
			"count":6600,
			"type":"SCALAR"
		},
		{
			"bufferView":8,
			"componentType":5126,
			"count":32514,
			"max":[
				10,
				10,
				20
			],
			"min":[
				-10,
				-10,
				0
			],
			"type":"VEC3"
		},
		{
			"bufferView":9,
			"componentType":5126,
			"count":32514,
			"type":"VEC3"
		},
		{
			"bufferView":10,
			"componentType":5123,
			"count":195072,
			"type":"SCALAR"
		}
	],
	"bufferViews":[
		{
			"buffer":0,
			"byteLength":48,
			"byteOffset":0,
			"target":34962
		},
		{
			"buffer":0,
			"byteLength":48,
			"byteOffset":48,
			"target":34962
		},
		{
			"buffer":0,
			"byteLength":32,
			"byteOffset":96,
			"target":34962
		},
		{
			"buffer":0,
			"byteLength":12,
			"byteOffset":128,
			"target":34963
		},
		{
			"buffer":0,
			"byteLength":27000,
			"byteOffset":140,
			"target":34962
		},
		{
			"buffer":0,
			"byteLength":27000,
			"byteOffset":27140,
			"target":34962
		},
		{
			"buffer":0,
			"byteLength":18000,
			"byteOffset":54140,
			"target":34962
		},
		{
			"buffer":0,
			"byteLength":13200,
			"byteOffset":72140,
			"target":34963
		},
		{
			"buffer":0,
			"byteLength":390168,
			"byteOffset":85340,
			"target":34962
		},
		{
			"buffer":0,
			"byteLength":390168,
			"byteOffset":475508,
			"target":34962
		},
		{
			"buffer":0,
			"byteLength":390144,
			"byteOffset":865676,
			"target":34963
		}
	],
	"buffers":[
		{
			"byteLength":1255820,
			"uri":"nucleolus1.bin"
		}
	]
}
