{
	"asset":{
		"generator":"Khronos glTF Blender I/O v3.6.27",
		"version":"2.0"
	},
	"scene":0,
	"scenes":[
		{
			"name":"Scene",
			"nodes":[
				0,
				1,
				2,
				3,
				25,
				28,
				31,
				32,
				33,
				34,
				35,
				36,
				37,
				38,
				39,
				40
			]
		}
	],
	"nodes":[
		{
			"mesh":0,
			"name":"Plane.046",
			"rotation":[
				-0.5003611445426941,
				0.5003611445426941,
				-0.4996385872364044,
				0.4996386766433716
			],
			"scale":[
				0.12148329615592957,
				1,
				0.6671497225761414
			],
			"translation":[
				-0.2461937665939331,
				-0.36768096685409546,
				0.8661131858825684
			]
		},
		{
			"mesh":1,
			"name":"Text.035",
			"rotation":[
				0.7071067690849304,
				0.0005109042976982892,
				-0.000510904414113611,
				0.7071065306663513
			],
			"scale":[
				0.25816208124160767,
				0.913830041885376,
				0.25816214084625244
			],
			"translation":[
				-0.6763838529586792,
				-0.4531406760215759,
				0.8749966621398926
			]
		},
		{
			"mesh":2,
			"name":"Icosphere.001",
			"rotation":[
				0.006070776842534542,
				-0.6961029171943665,
				0.005335947033017874,
				0.7178965210914612
			],
			"scale":[
				0.4810006618499756,
				0.40317678451538086,
				0.44698232412338257
			],
			"translation":[
				-0.3070541024208069,
				0.3262593150138855,
				1.1192152500152588
			]
		},
		{
			"mesh":3,
			"name":"Icosphere.002",
			"rotation":[
				0.006070777308195829,
				-0.6961029171943665,
				0.005335946101695299,
				0.7178965210914612
			],
			"scale":[
				0.5229857563972473,
				0.43836891651153564,
				0.4859980642795563
			],
			"translation":[
				-0.30706125497817993,
				0.3179880976676941,
				1.1098512411117554
			]
		},
		{
			"name":"DNA_0.001",
			"translation":[
				0,
				0,
				-3.0517585400957614e-05
			]
		},
		{
			"children":[
				4
			],
			"name":"GLTF_SceneRootNode.001",
			"rotation":[
				0.70710688829422,
				0,
				0,
				0.7071066498756409
			],
			"translation":[
				7.62939453125e-06,
				1.3172484614187852e-05,
				2.1491723600775003e-06
			]
		},
		{
			"children":[
				5
			],
			"name":"root.001",
			"translation":[
				7.62939453125e-06,
				1.3172484614187852e-05,
				2.1491723600775003e-06
			]
		},
		{
			"name":"DNA_0.002",
			"translation":[
				0,
				0,
				-3.051758176297881e-05
			]
		},
		{
			"children":[
				7
			],
			"name":"GLTF_SceneRootNode.002",
			"rotation":[
				0.70710688829422,
				0,
				0,
				0.7071066498756409
			],
			"translation":[
				0,
				-1.107172283809632e-05,
				-2.8372014639899135e-06
			]
		},
		{
			"children":[
				8
			],
			"name":"root.002",
			"translation":[
				-25.06175994873047,
				-16.459575653076172,
				-20.707857131958008
			]
		},
		{
			"name":"DNA_0.003",
			"translation":[
				7.62939453125e-06,
				0,
				0
			]
		},
		{
			"children":[
				10
			],
			"name":"GLTF_SceneRootNode.003",
			"rotation":[
				0.70710688829422,
				0,
				0,
				0.7071066498756409
			],
			"translation":[
				0,
				2.4173215933842584e-05,
				-8.909337338991463e-06
			]
		},
		{
			"children":[
				11
			],
			"name":"root.003",
			"translation":[
				-9.610382080078125,
				13.864800453186035,
				-36.312461853027344
			]
		},
		{
			"name":"DNA_0.006",
			"translation":[
				0,
				-1.5258776329574175e-05,
				0
			]
		},
		{
			"children":[
				13
			],
			"name":"GLTF_SceneRootNode.006",
			"rotation":[
				0.70710688829422,
				0,
				0,
				0.7071066498756409
			],
			"translation":[
				0,
				3.7967161915730685e-05,
				9.672468877397478e-06
			]
		},
		{
			"children":[
				14
			],
			"name":"root.006",
			"translation":[
				15.47662353515625,
				24.833778381347656,
				18.890832901000977
			]
		},
		{
			"name":"DNA_0.007",
			"translation":[
				7.62939453125e-06,
				0,
				-3.051758176297881e-05
			]
		},
		{
			"children":[
				16
			],
			"name":"GLTF_SceneRootNode.007",
			"rotation":[
				0.70710688829422,
				0,
				0,
				0.7071066498756409
			],
			"translation":[
				0,
				-1.0514093446545303e-05,
				-6.9849847932346165e-06
			]
		},
		{
			"children":[
				17
			],
			"name":"root.007",
			"translation":[
				-1.9595413208007812,
				20.216907501220703,
				-22.548545837402344
			]
		},
		{
			"name":"DNA_0.027",
			"translation":[
				0,
				-1.5258775420079473e-05,
				-3.051758176297881e-05
			]
		},
		{
			"children":[
				19
			],
			"name":"GLTF_SceneRootNode.027",
			"rotation":[
				0.70710688829422,
				0,
				0,
				0.7071066498756409
			],
			"translation":[
				7.62939453125e-06,
				-1.0171290341531858e-05,
				0
			]
		},
		{
			"children":[
				20
			],
			"name":"root.027",
			"translation":[
				-1.6075820922851562,
				-11.587443351745605,
				-23.680116653442383
			]
		},
		{
			"name":"DNA_0.028",
			"translation":[
				1.52587890625e-05,
				-7.629379979334772e-06,
				-6.103515625e-05
			]
		},
		{
			"children":[
				22
			],
			"name":"GLTF_SceneRootNode.028",
			"rotation":[
				0.70710688829422,
				0,
				0,
				0.7071066498756409
			],
			"translation":[
				1.52587890625e-05,
				0,
				2.864704583771527e-06
			]
		},
		{
			"children":[
				23
			],
			"name":"root.028",
			"translation":[
				-13.134727478027344,
				-22.822053909301758,
				-53.8298454284668
			]
		},
		{
			"children":[
				6,
				9,
				12,
				15,
				18,
				21,
				24
			],
			"name":"Sketchfab_model.001",
			"rotation":[
				-0.70710688829422,
				0,
				0,
				0.7071066498756409
			],
			"scale":[
				0.0032274883706122637,
				0.0032274886034429073,
				0.0032274886034429073
			],
			"translation":[
				-0.37521272897720337,
				0.5099129676818848,
				1.2775999307632446
			]
		},
		{
			"name":"DNA_0.029",
			"translation":[
				0,
				-8.963703294284642e-06,
				-6.264162948355079e-06
			]
		},
		{
			"children":[
				26
			],
			"name":"GLTF_SceneRootNode.029",
			"rotation":[
				0.70710688829422,
				0,
				0,
				0.7071066498756409
			],
			"translation":[
				-3.814697265625e-06,
				-7.62939453125e-06,
				1.52587890625e-05
			]
		},
		{
			"children":[
				27
			],
			"name":"root.029",
			"scale":[
				0.006538952700793743,
				0.006538952700793743,
				0.006538952700793743
			],
			"translation":[
				-0.30997776985168457,
				0.5228310823440552,
				1.287947177886963
			]
		},
		{
			"name":"DNA_0.030",
			"translation":[
				0,
				2.3162952857092023e-05,
				-4.585235728882253e-06
			]
		},
		{
			"children":[
				29
			],
			"name":"GLTF_SceneRootNode.030",
			"rotation":[
				0.70710688829422,
				0,
				0,
				0.7071066498756409
			]
		},
		{
			"children":[
				30
			],
			"name":"root.030",
			"scale":[
				0.0063612088561058044,
				0.0063612088561058044,
				0.0063612088561058044
			],
			"translation":[
				-0.3088049292564392,
				0.4748322069644928,
				1.3778846263885498
			]
		},
		{
			"mesh":4,
			"name":"Icosphere.017",
			"rotation":[
				-0.7015149593353271,
				-0.27526944875717163,
				-0.6565804481506348,
				0.03171231970191002
			],
			"scale":[
				0.009739921428263187,
				0.03983694314956665,
				0.008896141313016415
			],
			"translation":[
				-0.3996703624725342,
				0.5161399245262146,
				1.2969887256622314
			]
		},
		{
			"mesh":5,
			"name":"Icosphere.018",
			"rotation":[
				0.6644814014434814,
				0.042872291058301926,
				0.7157111167907715,
				0.21067553758621216
			],
			"scale":[
				0.009739922359585762,
				0.03983694687485695,
				0.00889614224433899
			],
			"translation":[
				-0.3713473677635193,
				0.5179384350776672,
				1.295523762702942
			]
		},
		{
			"mesh":6,
			"name":"Icosphere.019",
			"rotation":[
				-0.09453719109296799,
				0.6262779235839844,
				-0.29369112849235535,
				0.7159498929977417
			],
			"scale":[
				0.009739920496940613,
				0.03983694314956665,
				0.008896141313016415
			],
			"translation":[
				-0.3992220461368561,
				0.46064072847366333,
				1.3213781118392944
			]
		},
		{
			"mesh":7,
			"name":"Icosphere.020",
			"rotation":[
				-0.3340081572532654,
				0.6924718618392944,
				-0.07137636095285416,
				0.6354736685752869
			],
			"scale":[
				0.009739922359585762,
				0.03983694314956665,
				0.00889614224433899
			],
			"translation":[
				-0.37095001339912415,
				0.463293194770813,
				1.322486162185669
			]
		},
		{
			"mesh":8,
			"name":"Icosphere.021",
			"rotation":[
				-0.7015149593353271,
				-0.27526944875717163,
				-0.6565804481506348,
				0.03171231970191002
			],
			"scale":[
				0.009739921428263187,
				0.03983694314956665,
				0.008896141313016415
			],
			"translation":[
				-0.2806967794895172,
				0.4691142737865448,
				1.3253990411758423
			]
		},
		{
			"mesh":9,
			"name":"Icosphere.022",
			"rotation":[
				0.6644814014434814,
				0.042872291058301926,
				0.7157111167907715,
				0.21067553758621216
			],
			"scale":[
				0.009739922359585762,
				0.03983694687485695,
				0.00889614224433899
			],
			"translation":[
				-0.2523737847805023,
				0.47091278433799744,
				1.3239340782165527
			]
		},
		{
			"mesh":10,
			"name":"Icosphere.023",
			"rotation":[
				-0.09453719109296799,
				0.6262779235839844,
				-0.29369112849235535,
				0.7159498929977417
			],
			"scale":[
				0.009739920496940613,
				0.03983694314956665,
				0.008896141313016415
			],
			"translation":[
				-0.2802484333515167,
				0.41361504793167114,
				1.3497884273529053
			]
		},
		{
			"mesh":11,
			"name":"Icosphere.024",
			"rotation":[
				-0.3340081572532654,
				0.6924718618392944,
				-0.07137636095285416,
				0.6354736685752869
			],
			"scale":[
				0.009739922359585762,
				0.03983694314956665,
				0.00889614224433899
			],
			"translation":[
				-0.2519764006137848,
				0.4162675142288208,
				1.3508964776992798
			]
		},
		{
			"mesh":12,
			"name":"Object_2.004",
			"rotation":[
				-0.70710688829422,
				0,
				0,
				0.7071066498756409
			],
			"scale":[
				0.021388405933976173,
				0.021388405933976173,
				0.021388405933976173
			],
			"translation":[
				-0.3041806221008301,
				0.14564234018325806,
				1.1278233528137207
			]
		}
	],
	"materials":[
		{
			"doubleSided":true,
			"name":"Material.066",
			"pbrMetallicRoughness":{
				"baseColorFactor":[
					0.800000011920929,
					0.800000011920929,
					0.800000011920929,
					1
				],
				"metallicFactor":0,
				"roughnessFactor":0.5
			}
		},
		{
			"doubleSided":true,
			"name":"Material.067",
			"pbrMetallicRoughness":{
				"baseColorFactor":[
					0,
					0,
					0,
					1
				],
				"metallicFactor":0,
				"roughnessFactor":0.5
			}
		},
		{
			"doubleSided":true,
			"name":"Nucleus Shell.002",
			"pbrMetallicRoughness":{
				"baseColorFactor":[
					0.22860094904899597,
					0.045851074159145355,
					0.4487423002719879,
					1
				],
				"metallicFactor":0,
				"roughnessFactor":0
			}
		},
		{
			"doubleSided":true,
			"name":"Material.004",
			"pbrMetallicRoughness":{
				"baseColorFactor":[
					0.04036556929349899,
					0,
					0.20668628811836243,
					1
				],
				"metallicFactor":0,
				"roughnessFactor":0.5
			}
		},
		{
			"doubleSided":true,
			"name":"Material.001",
			"pbrMetallicRoughness":{
				"baseColorFactor":[
					0.026150252670049667,
					0.04707924649119377,
					0.8000000715255737,
					1
				],
				"metallicFactor":0,
				"roughnessFactor":0.14544856548309326
			}
		},
		{
			"doubleSided":true,
			"name":"Material.005",
			"pbrMetallicRoughness":{
				"baseColorFactor":[
					0.026150252670049667,
					0.04707924649119377,
					0.8000000715255737,
					1
				],
				"metallicFactor":0,
				"roughnessFactor":0.14544856548309326
			}
		},
		{
			"doubleSided":true,
			"name":"Scene_-_Root",
			"pbrMetallicRoughness":{
				"baseColorFactor":[
					0.8433143496513367,
					1,
					0.05314228683710098,
					1
				],
				"metallicFactor":0,
				"roughnessFactor":0.6000000238418579
			}
		}
	],
	"meshes":[
		{
			"name":"Plane.060",
			"primitives":[
				{
					"attributes":{
						"POSITION":0,
						"NORMAL":1,
						"TEXCOORD_0":2
					},
					"indices":3,
					"material":0
				}
			]
		},
		{
			"name":"Text.004",
			"primitives":[
				{
					"attributes":{
						"POSITION":4,
						"NORMAL":5,
						"TEXCOORD_0":6
					},
					"indices":7,
					"material":1
				}
			]
		},
		{
			"name":"Icosphere.001",
			"primitives":[
				{
					"attributes":{
						"POSITION":8,
						"NORMAL":9
					},
					"indices":10,
					"material":2
				}
			]
		},
		{
			"name":"Icosphere.004",
			"primitives":[
				{
					"attributes":{
						"POSITION":11,
						"NORMAL":12
					},
					"indices":10,
					"material":3
				}
			]
		},
		{
			"name":"Icosphere.021",
			"primitives":[
				{
					"attributes":{
						"POSITION":13,
						"NORMAL":14
					},
					"indices":15,
					"material":4
				}
			]
		},
		{
			"name":"Icosphere.022",
			"primitives":[
				{
					"attributes":{
						"POSITION":16,
						"NORMAL":17
					},
					"indices":15,
					"material":5
				}
			]
		},
		{
			"name":"Icosphere.023",
			"primitives":[
				{
					"attributes":{
						"POSITION":18,
						"NORMAL":19
					},
					"indices":15,
					"material":5
				}
			]
		},
		{
			"name":"Icosphere.024",
			"primitives":[
				{
					"attributes":{
						"POSITION":20,
						"NORMAL":21
					},
					"indices":15,
					"material":5
				}
			]
		},
		{
			"name":"Icosphere.025",
			"primitives":[
				{
					"attributes":{
						"POSITION":22,
						"NORMAL":23
					},
					"indices":15,
					"material":4
				}
			]
		},
		{
			"name":"Icosphere.026",
			"primitives":[
				{
					"attributes":{
						"POSITION":24,
						"NORMAL":25
					},
					"indices":15,
					"material":5
				}
			]
		},
		{
			"name":"Icosphere.027",
			"primitives":[
				{
					"attributes":{
						"POSITION":26,
						"NORMAL":27
					},
					"indices":15,
					"material":5
				}
			]
		},
		{
			"name":"Icosphere.028",
			"primitives":[
				{
					"attributes":{
						"POSITION":28,
						"NORMAL":29
					},
					"indices":15,
					"material":5
				}
			]
		},
		{
			"name":"Object_0.004",
			"primitives":[
				{
					"attributes":{
						"POSITION":30,
						"NORMAL":31
					},
					"indices":32,
					"material":6
				}
			]
		}
	],
	"accessors":[
		{
			"bufferView":0,
			"componentType":5126,
			"count":4,
			"max":[
				1,
				0,
				1
			],
			"min":[
				-1,
				0,
				-1
			],
			"type":"VEC3"
		},
		{
			"bufferView":1,
			"componentType":5126,
			"count":4,
			"type":"VEC3"
		},
		{
			"bufferView":2,
			"componentType":5126,
			"count":4,
			"type":"VEC2"
		},
		{
			"bufferView":3,
			"componentType":5123,
			"count":6,
			"type":"SCALAR"
		},
		{
			"bufferView":4,
			"componentType":5126,
			"count":1844,
			"max":[
				3.26200008392334,
				0.020000001415610313,
				0.009000000543892384
			],
			"min":[
				0.07400000095367432,
				-0.020000001415610313,
				-0.6820000410079956
			],
			"type":"VEC3"
		},
		{
			"bufferView":5,
			"componentType":5126,
			"count":1844,
			"type":"VEC3"
		},
		{
			"bufferView":6,
			"componentType":5126,
			"count":1844,
			"type":"VEC2"
		},
		{
			"bufferView":7,
			"componentType":5123,
			"count":5412,
			"type":"SCALAR"
		},
		{
			"bufferView":8,
			"componentType":5126,
			"count":2252,
			"max":[
				0.9510578513145447,
				1,
				0.9999999403953552
			],
			"min":[
				-1.0628103017807007,
				-1.0078006982803345,
				-0.9999999403953552
			],
			"type":"VEC3"
		},
		{
			"bufferView":9,
			"componentType":5126,
			"count":2252,
			"type":"VEC3"
		},
		{
			"bufferView":10,
			"componentType":5123,
			"count":3096,
			"type":"SCALAR"
		},
		{
			"bufferView":11,
			"componentType":5126,
			"count":2252,
			"max":[
				0.9510578513145447,
				1,
				0.9999999403953552
			],
			"min":[
				-1.0628103017807007,
				-1.0078006982803345,
				-0.9999999403953552
			],
			"type":"VEC3"
		},
		{
			"bufferView":12,
			"componentType":5126,
			"count":2252,
			"type":"VEC3"
		},
		{
			"bufferView":13,
			"componentType":5126,
			"count":240,
			"max":[
				0.9510578513145447,
				1,
				0.9999999403953552
			],
			"min":[
				-0.9510578513145447,
				-1,
				-0.9999999403953552
			],
			"type":"VEC3"
		},
		{
			"bufferView":14,
			"componentType":5126,
			"count":240,
			"type":"VEC3"
		},
		{
			"bufferView":15,
			"componentType":5123,
			"count":240,
			"type":"SCALAR"
		},
		{
			"bufferView":16,
			"componentType":5126,
			"count":240,
			"max":[
				0.9510578513145447,
				1,
				0.9999999403953552
			],
			"min":[
				-0.9510578513145447,
				-1,
				-0.9999999403953552
			],
			"type":"VEC3"
		},
		{
			"bufferView":17,
			"componentType":5126,
			"count":240,
			"type":"VEC3"
		},
		{
			"bufferView":18,
			"componentType":5126,
			"count":240,
			"max":[
				0.9510578513145447,
				1,
				0.9999999403953552
			],
			"min":[
				-0.9510578513145447,
				-1,
				-0.9999999403953552
			],
			"type":"VEC3"
		},
		{
			"bufferView":19,
			"componentType":5126,
			"count":240,
			"type":"VEC3"
		},
		{
			"bufferView":20,
			"componentType":5126,
			"count":240,
			"max":[
				0.9510578513145447,
				1,
				0.9999999403953552
			],
			"min":[
				-0.9510578513145447,
				-1,
				-0.9999999403953552
			],
			"type":"VEC3"
		},
		{
			"bufferView":21,
			"componentType":5126,
			"count":240,
			"type":"VEC3"
		},
		{
			"bufferView":22,
			"componentType":5126,
			"count":240,
			"max":[
				0.9510578513145447,
				1,
				0.9999999403953552
			],
			"min":[
				-0.9510578513145447,
				-1,
				-0.9999999403953552
			],
			"type":"VEC3"
		},
		{
			"bufferView":23,
			"componentType":5126,
			"count":240,
			"type":"VEC3"
		},
		{
			"bufferView":24,
			"componentType":5126,
			"count":240,
			"max":[
				0.9510578513145447,
				1,
				0.9999999403953552
			],
			"min":[
				-0.9510578513145447,
				-1,
				-0.9999999403953552
			],
			"type":"VEC3"
		},
		{
			"bufferView":25,
			"componentType":5126,
			"count":240,
			"type":"VEC3"
		},
		{
			"bufferView":26,
			"componentType":5126,
			"count":240,
			"max":[
				0.9510578513145447,
				1,
				0.9999999403953552
			],
			"min":[
				-0.9510578513145447,
				-1,
				-0.9999999403953552
			],
			"type":"VEC3"
		},
		{
			"bufferView":27,
			"componentType":5126,
			"count":240,
			"type":"VEC3"
		},
		{
			"bufferView":28,
			"componentType":5126,
			"count":240,
			"max":[
				0.9510578513145447,
				1,
				0.9999999403953552
			],
			"min":[
				-0.9510578513145447,
				-1,
				-0.9999999403953552
			],
			"type":"VEC3"
		},
		{
			"bufferView":29,
			"componentType":5126,
			"count":240,
			"type":"VEC3"
		},
		{
			"bufferView":30,
			"componentType":5126,
			"count":32514,
			"max":[
				10,
				10,
				20
			],
			"min":[
				-10,
				-10,
				0
			],
			"type":"VEC3"
		},
		{
			"bufferView":31,
			"componentType":5126,
			"count":32514,
			"type":"VEC3"
		},
		{
			"bufferView":32,
			"componentType":5123,
			"count":195072,
			"type":"SCALAR"
		}
	],
	"bufferViews":[
		{
			"buffer":0,
			"byteLength":48,
			"byteOffset":0,
			"target":34962
		},
		{
			"buffer":0,
			"byteLength":48,
			"byteOffset":48,
			"target":34962
		},
		{
			"buffer":0,
			"byteLength":32,
			"byteOffset":96,
			"target":34962
		},
		{
			"buffer":0,
			"byteLength":12,
			"byteOffset":128,
			"target":34963
		},
		{
			"buffer":0,
			"byteLength":22128,
			"byteOffset":140,
			"target":34962
		},
		{
			"buffer":0,
			"byteLength":22128,
			"byteOffset":22268,
			"target":34962
		},
		{
			"buffer":0,
			"byteLength":14752,
			"byteOffset":44396,
			"target":34962
		},
		{
			"buffer":0,
			"byteLength":10824,
			"byteOffset":59148,
			"target":34963
		},
		{
			"buffer":0,
			"byteLength":27024,
			"byteOffset":69972,
			"target":34962
		},
		{
			"buffer":0,
			"byteLength":27024,
			"byteOffset":96996,
			"target":34962
		},
		{
			"buffer":0,
			"byteLength":6192,
			"byteOffset":124020,
			"target":34963
		},
		{
			"buffer":0,
			"byteLength":27024,
			"byteOffset":130212,
			"target":34962
		},
		{
			"buffer":0,
			"byteLength":27024,
			"byteOffset":157236,
			"target":34962
		},
		{
			"buffer":0,
			"byteLength":2880,
			"byteOffset":184260,
			"target":34962
		},
		{
			"buffer":0,
			"byteLength":2880,
			"byteOffset":187140,
			"target":34962
		},
		{
			"buffer":0,
			"byteLength":480,
			"byteOffset":190020,
			"target":34963
		},
		{
			"buffer":0,
			"byteLength":2880,
			"byteOffset":190500,
			"target":34962
		},
		{
			"buffer":0,
			"byteLength":2880,
			"byteOffset":193380,
			"target":34962
		},
		{
			"buffer":0,
			"byteLength":2880,
			"byteOffset":196260,
			"target":34962
		},
		{
			"buffer":0,
			"byteLength":2880,
			"byteOffset":199140,
			"target":34962
		},
		{
			"buffer":0,
			"byteLength":2880,
			"byteOffset":202020,
			"target":34962
		},
		{
			"buffer":0,
			"byteLength":2880,
			"byteOffset":204900,
			"target":34962
		},
		{
			"buffer":0,
			"byteLength":2880,
			"byteOffset":207780,
			"target":34962
		},
		{
			"buffer":0,
			"byteLength":2880,
			"byteOffset":210660,
			"target":34962
		},
		{
			"buffer":0,
			"byteLength":2880,
			"byteOffset":213540,
			"target":34962
		},
		{
			"buffer":0,
			"byteLength":2880,
			"byteOffset":216420,
			"target":34962
		},
		{
			"buffer":0,
			"byteLength":2880,
			"byteOffset":219300,
			"target":34962
		},
		{
			"buffer":0,
			"byteLength":2880,
			"byteOffset":222180,
			"target":34962
		},
		{
			"buffer":0,
			"byteLength":2880,
			"byteOffset":225060,
			"target":34962
		},
		{
			"buffer":0,
			"byteLength":2880,
			"byteOffset":227940,
			"target":34962
		},
		{
			"buffer":0,
			"byteLength":390168,
			"byteOffset":230820,
			"target":34962
		},
		{
			"buffer":0,
			"byteLength":390168,
			"byteOffset":620988,
			"target":34962
		},
		{
			"buffer":0,
			"byteLength":390144,
			"byteOffset":1011156,
			"target":34963
		}
	],
	"buffers":[
		{
			"byteLength":1401300,
			"uri":"nucleus4.bin"
		}
	]
}
