{
	"asset":{
		"generator":"Khronos glTF Blender I/O v3.6.27",
		"version":"2.0"
	},
	"scene":0,
	"scenes":[
		{
			"name":"Scene",
			"nodes":[
				0,
				1,
				2
			]
		}
	],
	"nodes":[
		{
			"mesh":0,
			"name":"Plane.044",
			"rotation":[
				-0.5003611445426941,
				0.5003611445426941,
				-0.49963855743408203,
				0.4996386766433716
			],
			"scale":[
				0.07267650216817856,
				0.5982427597045898,
				0.39911752939224243
			],
			"translation":[
				1.7113025188446045,
				1.4630498886108398,
				0.9778019189834595
			]
		},
		{
			"mesh":1,
			"name":"Icosphere.010",
			"rotation":[
				0.006070777773857117,
				-0.6961029171943665,
				0.0053359465673565865,
				0.717896580696106
			],
			"scale":[
				0.42027297616004944,
				0.3522745370864868,
				0.3905494511127472
			],
			"translation":[
				1.6985101699829102,
				1.9079170227050781,
				0.6583513021469116
			]
		},
		{
			"mesh":2,
			"name":"Text.029",
			"rotation":[
				0.7135963439941406,
				0,
				0,
				0.7005571722984314
			],
			"scale":[
				0.12486957013607025,
				0.12486959248781204,
				0.12486959248781204
			],
			"translation":[
				1.397536277770996,
				1.426126480102539,
				0.984548807144165
			]
		}
	],
	"materials":[
		{
			"doubleSided":true,
			"name":"Material.012",
			"pbrMetallicRoughness":{
				"baseColorFactor":[
					0.800000011920929,
					0.800000011920929,
					0.800000011920929,
					1
				],
				"metallicFactor":0,
				"roughnessFactor":0.5
			}
		},
		{
			"doubleSided":true,
			"name":"Nucleus Shell.001",
			"pbrMetallicRoughness":{
				"baseColorFactor":[
					0.8012509942054749,
					0.2807461619377136,
					0.7377981543540955,
					1
				],
				"metallicFactor":0,
				"roughnessFactor":0
			}
		},
		{
			"doubleSided":true,
			"name":"Material.019",
			"pbrMetallicRoughness":{
				"baseColorFactor":[
					0,
					0,
					0,
					1
				],
				"metallicFactor":0,
				"roughnessFactor":0.5
			}
		}
	],
	"meshes":[
		{
			"name":"Plane.057",
			"primitives":[
				{
					"attributes":{
						"POSITION":0,
						"NORMAL":1,
						"TEXCOORD_0":2
					},
					"indices":3,
					"material":0
				}
			]
		},
		{
			"name":"Icosphere.014",
			"primitives":[
				{
					"attributes":{
						"POSITION":4,
						"NORMAL":5
					},
					"indices":6,
					"material":1
				}
			]
		},
		{
			"name":"Text.025",
			"primitives":[
				{
					"attributes":{
						"POSITION":7,
						"NORMAL":8,
						"TEXCOORD_0":9
					},
					"indices":10,
					"material":2
				}
			]
		}
	],
	"accessors":[
		{
			"bufferView":0,
			"componentType":5126,
			"count":4,
			"max":[
				1,
				0,
				1
			],
			"min":[
				-1,
				0,
				-1
			],
			"type":"VEC3"
		},
		{
			"bufferView":1,
			"componentType":5126,
			"count":4,
			"type":"VEC3"
		},
		{
			"bufferView":2,
			"componentType":5126,
			"count":4,
			"type":"VEC2"
		},
		{
			"bufferView":3,
			"componentType":5123,
			"count":6,
			"type":"SCALAR"
		},
		{
			"bufferView":4,
			"componentType":5126,
			"count":2252,
			"max":[
				0.9510578513145447,
				1,
				0.9999999403953552
			],
			"min":[
				-1.0628103017807007,
				-1.0078006982803345,
				-0.9999999403953552
			],
			"type":"VEC3"
		},
		{
			"bufferView":5,
			"componentType":5126,
			"count":2252,
			"type":"VEC3"
		},
		{
			"bufferView":6,
			"componentType":5123,
			"count":3096,
			"type":"SCALAR"
		},
		{
			"bufferView":7,
			"componentType":5126,
			"count":3470,
			"max":[
				5.212000370025635,
				0.07999999821186066,
				0.23000000417232513
			],
			"min":[
				0.07400000095367432,
				-0.07999999821186066,
				-0.6820000410079956
			],
			"type":"VEC3"
		},
		{
			"bufferView":8,
			"componentType":5126,
			"count":3470,
			"type":"VEC3"
		},
		{
			"bufferView":9,
			"componentType":5126,
			"count":3470,
			"type":"VEC2"
		},
		{
			"bufferView":10,
			"componentType":5123,
			"count":10236,
			"type":"SCALAR"
		}
	],
	"bufferViews":[
		{
			"buffer":0,
			"byteLength":48,
			"byteOffset":0,
			"target":34962
		},
		{
			"buffer":0,
			"byteLength":48,
			"byteOffset":48,
			"target":34962
		},
		{
			"buffer":0,
			"byteLength":32,
			"byteOffset":96,
			"target":34962
		},
		{
			"buffer":0,
			"byteLength":12,
			"byteOffset":128,
			"target":34963
		},
		{
			"buffer":0,
			"byteLength":27024,
			"byteOffset":140,
			"target":34962
		},
		{
			"buffer":0,
			"byteLength":27024,
			"byteOffset":27164,
			"target":34962
		},
		{
			"buffer":0,
			"byteLength":6192,
			"byteOffset":54188,
			"target":34963
		},
		{
			"buffer":0,
			"byteLength":41640,
			"byteOffset":60380,
			"target":34962
		},
		{
			"buffer":0,
			"byteLength":41640,
			"byteOffset":102020,
			"target":34962
		},
		{
			"buffer":0,
			"byteLength":27760,
			"byteOffset":143660,
			"target":34962
		},
		{
			"buffer":0,
			"byteLength":20472,
			"byteOffset":171420,
			"target":34963
		}
	],
	"buffers":[
		{
			"byteLength":191892,
			"uri":"nucleoplasm1.bin"
		}
	]
}
