{
	"asset":{
		"generator":"Khronos glTF Blender I/O v3.6.27",
		"version":"2.0"
	},
	"scene":0,
	"scenes":[
		{
			"name":"Scene",
			"nodes":[
				0,
				1,
				2
			]
		}
	],
	"nodes":[
		{
			"mesh":0,
			"name":"Icosphere.009",
			"rotation":[
				0.006070777308195829,
				-0.6961029171943665,
				0.005335946101695299,
				0.7178965210914612
			],
			"scale":[
				0.5229857563972473,
				0.43836891651153564,
				0.4859980642795563
			],
			"translation":[
				0.4202234745025635,
				2.4546597003936768,
				0.051453277468681335
			]
		},
		{
			"mesh":1,
			"name":"Plane.043",
			"rotation":[
				-0.5003611445426941,
				0.5003611445426941,
				-0.49963852763175964,
				0.4996386766433716
			],
			"scale":[
				0.07267650216817856,
				0.5982434749603271,
				0.5678131580352783
			],
			"translation":[
				0.4391111731529236,
				1.95872163772583,
				0.44578099250793457
			]
		},
		{
			"mesh":2,
			"name":"Text.028",
			"rotation":[
				0.7135963439941406,
				0,
				0,
				0.7005571722984314
			],
			"scale":[
				0.12486957013607025,
				0.12486959248781204,
				0.12486959248781204
			],
			"translation":[
				-0.028493210673332214,
				1.9217982292175293,
				0.45252788066864014
			]
		}
	],
	"materials":[
		{
			"doubleSided":true,
			"name":"Material.004",
			"pbrMetallicRoughness":{
				"baseColorFactor":[
					0.04036556929349899,
					0,
					0.20668628811836243,
					1
				],
				"metallicFactor":0,
				"roughnessFactor":0.5
			}
		},
		{
			"doubleSided":true,
			"name":"Material.012",
			"pbrMetallicRoughness":{
				"baseColorFactor":[
					0.800000011920929,
					0.800000011920929,
					0.800000011920929,
					1
				],
				"metallicFactor":0,
				"roughnessFactor":0.5
			}
		},
		{
			"doubleSided":true,
			"name":"Material.019",
			"pbrMetallicRoughness":{
				"baseColorFactor":[
					0,
					0,
					0,
					1
				],
				"metallicFactor":0,
				"roughnessFactor":0.5
			}
		}
	],
	"meshes":[
		{
			"name":"Icosphere.013",
			"primitives":[
				{
					"attributes":{
						"POSITION":0,
						"NORMAL":1
					},
					"indices":2,
					"material":0
				}
			]
		},
		{
			"name":"Plane.056",
			"primitives":[
				{
					"attributes":{
						"POSITION":3,
						"NORMAL":4,
						"TEXCOORD_0":5
					},
					"indices":6,
					"material":1
				}
			]
		},
		{
			"name":"Text.024",
			"primitives":[
				{
					"attributes":{
						"POSITION":7,
						"NORMAL":8,
						"TEXCOORD_0":9
					},
					"indices":10,
					"material":2
				}
			]
		}
	],
	"accessors":[
		{
			"bufferView":0,
			"componentType":5126,
			"count":2252,
			"max":[
				0.9510578513145447,
				1,
				0.9999999403953552
			],
			"min":[
				-1.0628103017807007,
				-1.0078006982803345,
				-0.9999999403953552
			],
			"type":"VEC3"
		},
		{
			"bufferView":1,
			"componentType":5126,
			"count":2252,
			"type":"VEC3"
		},
		{
			"bufferView":2,
			"componentType":5123,
			"count":3096,
			"type":"SCALAR"
		},
		{
			"bufferView":3,
			"componentType":5126,
			"count":4,
			"max":[
				1,
				0,
				1
			],
			"min":[
				-1,
				0,
				-1
			],
			"type":"VEC3"
		},
		{
			"bufferView":4,
			"componentType":5126,
			"count":4,
			"type":"VEC3"
		},
		{
			"bufferView":5,
			"componentType":5126,
			"count":4,
			"type":"VEC2"
		},
		{
			"bufferView":6,
			"componentType":5123,
			"count":6,
			"type":"SCALAR"
		},
		{
			"bufferView":7,
			"componentType":5126,
			"count":4850,
			"max":[
				7.818000316619873,
				0.07999999821186066,
				0.009000000543892384
			],
			"min":[
				0.07400000095367432,
				-0.07999999821186066,
				-0.6820000410079956
			],
			"type":"VEC3"
		},
		{
			"bufferView":8,
			"componentType":5126,
			"count":4850,
			"type":"VEC3"
		},
		{
			"bufferView":9,
			"componentType":5126,
			"count":4850,
			"type":"VEC2"
		},
		{
			"bufferView":10,
			"componentType":5123,
			"count":14316,
			"type":"SCALAR"
		}
	],
	"bufferViews":[
		{
			"buffer":0,
			"byteLength":27024,
			"byteOffset":0,
			"target":34962
		},
		{
			"buffer":0,
			"byteLength":27024,
			"byteOffset":27024,
			"target":34962
		},
		{
			"buffer":0,
			"byteLength":6192,
			"byteOffset":54048,
			"target":34963
		},
		{
			"buffer":0,
			"byteLength":48,
			"byteOffset":60240,
			"target":34962
		},
		{
			"buffer":0,
			"byteLength":48,
			"byteOffset":60288,
			"target":34962
		},
		{
			"buffer":0,
			"byteLength":32,
			"byteOffset":60336,
			"target":34962
		},
		{
			"buffer":0,
			"byteLength":12,
			"byteOffset":60368,
			"target":34963
		},
		{
			"buffer":0,
			"byteLength":58200,
			"byteOffset":60380,
			"target":34962
		},
		{
			"buffer":0,
			"byteLength":58200,
			"byteOffset":118580,
			"target":34962
		},
		{
			"buffer":0,
			"byteLength":38800,
			"byteOffset":176780,
			"target":34962
		},
		{
			"buffer":0,
			"byteLength":28632,
			"byteOffset":215580,
			"target":34963
		}
	],
	"buffers":[
		{
			"byteLength":244212,
			"uri":"nuclearmembrane1.bin"
		}
	]
}
