{
	"asset":{
		"generator":"Khronos glTF Blender I/O v3.6.27",
		"version":"2.0"
	},
	"scene":0,
	"scenes":[
		{
			"name":"Scene",
			"nodes":[
				0,
				1,
				2
			]
		}
	],
	"nodes":[
		{
			"mesh":0,
			"name":"Outside.002",
			"rotation":[
				0,
				0.7076175808906555,
				0,
				0.7065955996513367
			],
			"scale":[
				1.0795998573303223,
				1.0816700458526611,
				0.9806250929832458
			],
			"translation":[
				-7.031300067901611,
				3.3584060668945312,
				-1.4773600101470947
			]
		},
		{
			"mesh":1,
			"name":"Plane.033",
			"rotation":[
				-0.5003611445426941,
				0.5003611445426941,
				-0.49963855743408203,
				0.4996386766433716
			],
			"scale":[
				0.12148329615592957,
				1,
				0.9888354539871216
			],
			"translation":[
				-6.946471214294434,
				1.5154154300689697,
				-0.45491349697113037
			]
		},
		{
			"mesh":2,
			"name":"Text.018",
			"rotation":[
				0.7135963439941406,
				0,
				0,
				0.7005571126937866
			],
			"scale":[
				0.19766966998577118,
				0.19766971468925476,
				0.19766971468925476
			],
			"translation":[
				-7.700697422027588,
				1.4419560432434082,
				-0.43313729763031006
			]
		}
	],
	"materials":[
		{
			"doubleSided":true,
			"name":"Material.084",
			"pbrMetallicRoughness":{
				"baseColorFactor":[
					0.8005603551864624,
					0.10863020271062851,
					0.00776865566149354,
					1
				],
				"metallicFactor":0,
				"roughnessFactor":0.5
			}
		},
		{
			"doubleSided":true,
			"name":"Material.066",
			"pbrMetallicRoughness":{
				"baseColorFactor":[
					0.800000011920929,
					0.800000011920929,
					0.800000011920929,
					1
				],
				"metallicFactor":0,
				"roughnessFactor":0.5
			}
		},
		{
			"doubleSided":true,
			"name":"Material.040",
			"pbrMetallicRoughness":{
				"baseColorFactor":[
					0,
					0,
					0,
					1
				],
				"metallicFactor":0,
				"roughnessFactor":0.5
			}
		}
	],
	"meshes":[
		{
			"name":"Cube.001",
			"primitives":[
				{
					"attributes":{
						"POSITION":0,
						"NORMAL":1
					},
					"indices":2,
					"material":0
				}
			]
		},
		{
			"name":"Plane.046",
			"primitives":[
				{
					"attributes":{
						"POSITION":3,
						"NORMAL":4,
						"TEXCOORD_0":5
					},
					"indices":6,
					"material":1
				}
			]
		},
		{
			"name":"Text.014",
			"primitives":[
				{
					"attributes":{
						"POSITION":7,
						"NORMAL":8,
						"TEXCOORD_0":9
					},
					"indices":10,
					"material":2
				}
			]
		}
	],
	"accessors":[
		{
			"bufferView":0,
			"componentType":5126,
			"count":137,
			"max":[
				1.3720015287399292,
				1.3720015287399292,
				1.3720015287399292
			],
			"min":[
				-1.3720015287399292,
				-1.3720015287399292,
				-1.3720015287399292
			],
			"type":"VEC3"
		},
		{
			"bufferView":1,
			"componentType":5126,
			"count":137,
			"type":"VEC3"
		},
		{
			"bufferView":2,
			"componentType":5123,
			"count":756,
			"type":"SCALAR"
		},
		{
			"bufferView":3,
			"componentType":5126,
			"count":4,
			"max":[
				1,
				0,
				1
			],
			"min":[
				-1,
				0,
				-1
			],
			"type":"VEC3"
		},
		{
			"bufferView":4,
			"componentType":5126,
			"count":4,
			"type":"VEC3"
		},
		{
			"bufferView":5,
			"componentType":5126,
			"count":4,
			"type":"VEC2"
		},
		{
			"bufferView":6,
			"componentType":5123,
			"count":6,
			"type":"SCALAR"
		},
		{
			"bufferView":7,
			"componentType":5126,
			"count":5462,
			"max":[
				7.317000389099121,
				0.07999999076128006,
				0.009000000543892384
			],
			"min":[
				0.07000000029802322,
				-0.07999999076128006,
				-0.6820000410079956
			],
			"type":"VEC3"
		},
		{
			"bufferView":8,
			"componentType":5126,
			"count":5462,
			"type":"VEC3"
		},
		{
			"bufferView":9,
			"componentType":5126,
			"count":5462,
			"type":"VEC2"
		},
		{
			"bufferView":10,
			"componentType":5123,
			"count":16176,
			"type":"SCALAR"
		}
	],
	"bufferViews":[
		{
			"buffer":0,
			"byteLength":1644,
			"byteOffset":0,
			"target":34962
		},
		{
			"buffer":0,
			"byteLength":1644,
			"byteOffset":1644,
			"target":34962
		},
		{
			"buffer":0,
			"byteLength":1512,
			"byteOffset":3288,
			"target":34963
		},
		{
			"buffer":0,
			"byteLength":48,
			"byteOffset":4800,
			"target":34962
		},
		{
			"buffer":0,
			"byteLength":48,
			"byteOffset":4848,
			"target":34962
		},
		{
			"buffer":0,
			"byteLength":32,
			"byteOffset":4896,
			"target":34962
		},
		{
			"buffer":0,
			"byteLength":12,
			"byteOffset":4928,
			"target":34963
		},
		{
			"buffer":0,
			"byteLength":65544,
			"byteOffset":4940,
			"target":34962
		},
		{
			"buffer":0,
			"byteLength":65544,
			"byteOffset":70484,
			"target":34962
		},
		{
			"buffer":0,
			"byteLength":43696,
			"byteOffset":136028,
			"target":34962
		},
		{
			"buffer":0,
			"byteLength":32352,
			"byteOffset":179724,
			"target":34963
		}
	],
	"buffers":[
		{
			"byteLength":212076,
			"uri":"plasma1.bin"
		}
	]
}
