{
	"asset":{
		"generator":"Khronos glTF Blender I/O v3.6.27",
		"version":"2.0"
	},
	"scene":0,
	"scenes":[
		{
			"name":"Scene",
			"nodes":[
				0,
				1,
				2
			]
		}
	],
	"nodes":[
		{
			"mesh":0,
			"name":"Cylinder.001",
			"rotation":[
				-0.576738715171814,
				0,
				0,
				0.8169288039207458
			],
			"scale":[
				0.39290761947631836,
				0.33569782972335815,
				0.21275834739208221
			],
			"translation":[
				-1.7105659246444702,
				3.9678726196289062,
				-0.46393513679504395
			]
		},
		{
			"mesh":1,
			"name":"Plane.011",
			"rotation":[
				-0.5003611445426941,
				0.5003611445426941,
				-0.4996385872364044,
				0.4996386766433716
			],
			"scale":[
				0.12148329615592957,
				1,
				0.6671497225761414
			],
			"translation":[
				-1.7421095371246338,
				3.342350959777832,
				-0.3766074478626251
			]
		},
		{
			"mesh":2,
			"name":"Text.016",
			"rotation":[
				0.7135963439941406,
				0,
				0,
				0.7005571126937866
			],
			"scale":[
				0.19766966998577118,
				0.19766971468925476,
				0.19766971468925476
			],
			"translation":[
				-2.0674760341644287,
				3.2688915729522705,
				-0.3548312187194824
			]
		}
	],
	"materials":[
		{
			"doubleSided":true,
			"name":"Material.015",
			"pbrMetallicRoughness":{
				"baseColorFactor":[
					0.043887317180633545,
					0.4677693843841553,
					0.8000000715255737,
					1
				],
				"metallicFactor":0,
				"roughnessFactor":0.5
			}
		},
		{
			"doubleSided":true,
			"name":"Material.066",
			"pbrMetallicRoughness":{
				"baseColorFactor":[
					0.800000011920929,
					0.800000011920929,
					0.800000011920929,
					1
				],
				"metallicFactor":0,
				"roughnessFactor":0.5
			}
		},
		{
			"doubleSided":true,
			"name":"Material.040",
			"pbrMetallicRoughness":{
				"baseColorFactor":[
					0,
					0,
					0,
					1
				],
				"metallicFactor":0,
				"roughnessFactor":0.5
			}
		}
	],
	"meshes":[
		{
			"name":"Cylinder.001",
			"primitives":[
				{
					"attributes":{
						"POSITION":0,
						"NORMAL":1,
						"TEXCOORD_0":2
					},
					"indices":3,
					"material":0
				}
			]
		},
		{
			"name":"Plane.044",
			"primitives":[
				{
					"attributes":{
						"POSITION":4,
						"NORMAL":5,
						"TEXCOORD_0":6
					},
					"indices":7,
					"material":1
				}
			]
		},
		{
			"name":"Text.012",
			"primitives":[
				{
					"attributes":{
						"POSITION":8,
						"NORMAL":9,
						"TEXCOORD_0":10
					},
					"indices":11,
					"material":2
				}
			]
		}
	],
	"accessors":[
		{
			"bufferView":0,
			"componentType":5126,
			"count":192,
			"max":[
				1,
				1,
				1
			],
			"min":[
				-1,
				-1,
				-1
			],
			"type":"VEC3"
		},
		{
			"bufferView":1,
			"componentType":5126,
			"count":192,
			"type":"VEC3"
		},
		{
			"bufferView":2,
			"componentType":5126,
			"count":192,
			"type":"VEC2"
		},
		{
			"bufferView":3,
			"componentType":5123,
			"count":372,
			"type":"SCALAR"
		},
		{
			"bufferView":4,
			"componentType":5126,
			"count":4,
			"max":[
				1,
				0,
				1
			],
			"min":[
				-1,
				0,
				-1
			],
			"type":"VEC3"
		},
		{
			"bufferView":5,
			"componentType":5126,
			"count":4,
			"type":"VEC3"
		},
		{
			"bufferView":6,
			"componentType":5126,
			"count":4,
			"type":"VEC2"
		},
		{
			"bufferView":7,
			"componentType":5123,
			"count":6,
			"type":"SCALAR"
		},
		{
			"bufferView":8,
			"componentType":5126,
			"count":2156,
			"max":[
				3.186000347137451,
				0.07999999076128006,
				0.009000000543892384
			],
			"min":[
				0,
				-0.07999999076128006,
				-0.6820000410079956
			],
			"type":"VEC3"
		},
		{
			"bufferView":9,
			"componentType":5126,
			"count":2156,
			"type":"VEC3"
		},
		{
			"bufferView":10,
			"componentType":5126,
			"count":2156,
			"type":"VEC2"
		},
		{
			"bufferView":11,
			"componentType":5123,
			"count":6360,
			"type":"SCALAR"
		}
	],
	"bufferViews":[
		{
			"buffer":0,
			"byteLength":2304,
			"byteOffset":0,
			"target":34962
		},
		{
			"buffer":0,
			"byteLength":2304,
			"byteOffset":2304,
			"target":34962
		},
		{
			"buffer":0,
			"byteLength":1536,
			"byteOffset":4608,
			"target":34962
		},
		{
			"buffer":0,
			"byteLength":744,
			"byteOffset":6144,
			"target":34963
		},
		{
			"buffer":0,
			"byteLength":48,
			"byteOffset":6888,
			"target":34962
		},
		{
			"buffer":0,
			"byteLength":48,
			"byteOffset":6936,
			"target":34962
		},
		{
			"buffer":0,
			"byteLength":32,
			"byteOffset":6984,
			"target":34962
		},
		{
			"buffer":0,
			"byteLength":12,
			"byteOffset":7016,
			"target":34963
		},
		{
			"buffer":0,
			"byteLength":25872,
			"byteOffset":7028,
			"target":34962
		},
		{
			"buffer":0,
			"byteLength":25872,
			"byteOffset":32900,
			"target":34962
		},
		{
			"buffer":0,
			"byteLength":17248,
			"byteOffset":58772,
			"target":34962
		},
		{
			"buffer":0,
			"byteLength":12720,
			"byteOffset":76020,
			"target":34963
		}
	],
	"buffers":[
		{
			"byteLength":88740,
			"uri":"vacuole1.bin"
		}
	]
}
