{
	"asset":{
		"generator":"Khronos glTF Blender I/O v3.6.27",
		"version":"2.0"
	},
	"scene":0,
	"scenes":[
		{
			"name":"Scene",
			"nodes":[
				0,
				1,
				2
			]
		}
	],
	"nodes":[
		{
			"mesh":0,
			"name":"Icosphere.002",
			"rotation":[
				-0.24339112639427185,
				-0.6547110676765442,
				-0.2365187406539917,
				0.6754058003425598
			],
			"scale":[
				0.07057070732116699,
				0.2490515261888504,
				0.10055426508188248
			],
			"translation":[
				9.150166511535645,
				6.6898908615112305,
				-1.0166943073272705
			]
		},
		{
			"mesh":1,
			"name":"Text.023",
			"rotation":[
				0.7071067094802856,
				0.0005109042394906282,
				-0.000510904414113611,
				0.7071065902709961
			],
			"scale":[
				0.1952541023492813,
				0.913829505443573,
				0.25816211104393005
			],
			"translation":[
				8.739982604980469,
				6.029526710510254,
				-0.951549232006073
			]
		},
		{
			"mesh":2,
			"name":"Plane.026",
			"rotation":[
				-0.5003612041473389,
				0.5003611445426941,
				-0.4996386468410492,
				0.4996386766433716
			],
			"scale":[
				0.12148329615592957,
				1,
				0.5045812129974365
			],
			"translation":[
				9.138396263122559,
				6.114986419677734,
				-0.9605721235275269
			]
		}
	],
	"materials":[
		{
			"doubleSided":true,
			"name":"Material.105",
			"pbrMetallicRoughness":{
				"baseColorFactor":[
					0.8001260757446289,
					0.0032985713332891464,
					0.5607434511184692,
					1
				],
				"metallicFactor":0,
				"roughnessFactor":0.5
			}
		},
		{
			"doubleSided":true,
			"name":"Material.107",
			"pbrMetallicRoughness":{
				"baseColorFactor":[
					0,
					0,
					0,
					1
				],
				"metallicFactor":0,
				"roughnessFactor":0.5
			}
		},
		{
			"doubleSided":true,
			"name":"Material.108",
			"pbrMetallicRoughness":{
				"baseColorFactor":[
					0.800000011920929,
					0.800000011920929,
					0.800000011920929,
					1
				],
				"metallicFactor":0,
				"roughnessFactor":0.5
			}
		}
	],
	"meshes":[
		{
			"name":"Icosphere.005",
			"primitives":[
				{
					"attributes":{
						"POSITION":0,
						"NORMAL":1
					},
					"indices":2,
					"material":0
				}
			]
		},
		{
			"name":"Text.036",
			"primitives":[
				{
					"attributes":{
						"POSITION":3,
						"NORMAL":4,
						"TEXCOORD_0":5
					},
					"indices":6,
					"material":1
				}
			]
		},
		{
			"name":"Plane.063",
			"primitives":[
				{
					"attributes":{
						"POSITION":7,
						"NORMAL":8,
						"TEXCOORD_0":9
					},
					"indices":10,
					"material":2
				}
			]
		}
	],
	"accessors":[
		{
			"bufferView":0,
			"componentType":5126,
			"count":240,
			"max":[
				0.9510578513145447,
				1,
				0.9999999403953552
			],
			"min":[
				-0.9510578513145447,
				-1,
				-0.9999999403953552
			],
			"type":"VEC3"
		},
		{
			"bufferView":1,
			"componentType":5126,
			"count":240,
			"type":"VEC3"
		},
		{
			"bufferView":2,
			"componentType":5123,
			"count":240,
			"type":"SCALAR"
		},
		{
			"bufferView":3,
			"componentType":5126,
			"count":3040,
			"max":[
				4.2300004959106445,
				0.020000001415610313,
				0.009000000543892384
			],
			"min":[
				0.04800000041723251,
				-0.020000001415610313,
				-0.6910000443458557
			],
			"type":"VEC3"
		},
		{
			"bufferView":4,
			"componentType":5126,
			"count":3040,
			"type":"VEC3"
		},
		{
			"bufferView":5,
			"componentType":5126,
			"count":3040,
			"type":"VEC2"
		},
		{
			"bufferView":6,
			"componentType":5123,
			"count":8928,
			"type":"SCALAR"
		},
		{
			"bufferView":7,
			"componentType":5126,
			"count":4,
			"max":[
				1,
				0,
				1
			],
			"min":[
				-1,
				0,
				-1
			],
			"type":"VEC3"
		},
		{
			"bufferView":8,
			"componentType":5126,
			"count":4,
			"type":"VEC3"
		},
		{
			"bufferView":9,
			"componentType":5126,
			"count":4,
			"type":"VEC2"
		},
		{
			"bufferView":10,
			"componentType":5123,
			"count":6,
			"type":"SCALAR"
		}
	],
	"bufferViews":[
		{
			"buffer":0,
			"byteLength":2880,
			"byteOffset":0,
			"target":34962
		},
		{
			"buffer":0,
			"byteLength":2880,
			"byteOffset":2880,
			"target":34962
		},
		{
			"buffer":0,
			"byteLength":480,
			"byteOffset":5760,
			"target":34963
		},
		{
			"buffer":0,
			"byteLength":36480,
			"byteOffset":6240,
			"target":34962
		},
		{
			"buffer":0,
			"byteLength":36480,
			"byteOffset":42720,
			"target":34962
		},
		{
			"buffer":0,
			"byteLength":24320,
			"byteOffset":79200,
			"target":34962
		},
		{
			"buffer":0,
			"byteLength":17856,
			"byteOffset":103520,
			"target":34963
		},
		{
			"buffer":0,
			"byteLength":48,
			"byteOffset":121376,
			"target":34962
		},
		{
			"buffer":0,
			"byteLength":48,
			"byteOffset":121424,
			"target":34962
		},
		{
			"buffer":0,
			"byteLength":32,
			"byteOffset":121472,
			"target":34962
		},
		{
			"buffer":0,
			"byteLength":12,
			"byteOffset":121504,
			"target":34963
		}
	],
	"buffers":[
		{
			"byteLength":121516,
			"uri":"centrioles.bin"
		}
	]
}
