{
	"asset":{
		"generator":"Khronos glTF Blender I/O v3.6.27",
		"version":"2.0"
	},
	"scene":0,
	"scenes":[
		{
			"name":"Scene",
			"nodes":[
				0,
				1,
				2,
				3,
				4,
				5,
				6
			]
		}
	],
	"nodes":[
		{
			"mesh":0,
			"name":"Icosphere",
			"rotation":[
				0.006070778705179691,
				-0.6961029171943665,
				0.005335947498679161,
				0.7178965210914612
			],
			"scale":[
				0.5651779770851135,
				0.6605679988861084,
				0.5989819169044495
			],
			"translation":[
				3.399838447570801,
				3.759190082550049,
				-0.4914620518684387
			]
		},
		{
			"mesh":1,
			"name":"Text.022",
			"rotation":[
				0.7071067094802856,
				0.0005109042976982892,
				-0.000510904414113611,
				0.7071065902709961
			],
			"scale":[
				0.1881776601076126,
				0.9138298630714417,
				0.25816211104393005
			],
			"translation":[
				4.170151233673096,
				4.579501152038574,
				-0.5682398676872253
			]
		},
		{
			"mesh":2,
			"name":"Plane.024",
			"rotation":[
				-0.5003611445426941,
				0.5003612041473389,
				-0.4996385872364044,
				0.49963870644569397
			],
			"scale":[
				0.12148330360651016,
				1,
				0.6671497821807861
			],
			"translation":[
				4.738422870635986,
				4.6649603843688965,
				-0.5773229002952576
			]
		},
		{
			"mesh":3,
			"name":"Plane.033",
			"rotation":[
				-0.22127826511859894,
				-0.583453893661499,
				0.6861279010772705,
				0.37396007776260376
			],
			"scale":[
				-0.004119523335248232,
				-0.9713125228881836,
				-0.30885598063468933
			],
			"translation":[
				4.0342793464660645,
				4.371610164642334,
				-0.5224260687828064
			]
		},
		{
			"mesh":4,
			"name":"Plane.025",
			"rotation":[
				-0.5757247805595398,
				0.5331215858459473,
				-0.5668929219245911,
				0.25090813636779785
			],
			"scale":[
				-0.005150053650140762,
				-0.5973132252693176,
				-0.38671034574508667
			],
			"translation":[
				2.91343355178833,
				3.8715996742248535,
				-0.1403636336326599
			]
		},
		{
			"mesh":5,
			"name":"Text.024",
			"rotation":[
				0.7071067094802856,
				0.0005109042976982892,
				-0.000510904414113611,
				0.7071065902709961
			],
			"scale":[
				0.18597321212291718,
				0.6582991480827332,
				0.18597322702407837
			],
			"translation":[
				1.7929913997650146,
				3.9473657608032227,
				-0.05294930934906006
			]
		},
		{
			"mesh":6,
			"name":"Plane.027",
			"rotation":[
				-0.5003611445426941,
				0.5003611445426941,
				-0.4996386170387268,
				0.4996386468410492
			],
			"scale":[
				0.11234350502490997,
				0.7203738689422607,
				0.48059722781181335
			],
			"translation":[
				2.1724672317504883,
				4.008928298950195,
				-0.05944913625717163
			]
		}
	],
	"materials":[
		{
			"doubleSided":true,
			"name":"Vesicle/Shell Mat",
			"pbrMetallicRoughness":{
				"baseColorFactor":[
					0.8003851175308228,
					0.17067664861679077,
					0.003093875478953123,
					1
				],
				"metallicFactor":0,
				"roughnessFactor":0.5
			}
		},
		{
			"doubleSided":true,
			"name":"Cytoskeleton",
			"pbrMetallicRoughness":{
				"baseColorFactor":[
					0.800536572933197,
					0.4106718897819519,
					0,
					1
				],
				"metallicFactor":0,
				"roughnessFactor":0
			}
		},
		{
			"doubleSided":true,
			"name":"Material.102",
			"pbrMetallicRoughness":{
				"baseColorFactor":[
					0,
					0,
					0,
					1
				],
				"metallicFactor":0,
				"roughnessFactor":0.5
			}
		},
		{
			"doubleSided":true,
			"name":"Material.103",
			"pbrMetallicRoughness":{
				"baseColorFactor":[
					0.800000011920929,
					0.800000011920929,
					0.800000011920929,
					1
				],
				"metallicFactor":0,
				"roughnessFactor":0.5
			}
		},
		{
			"doubleSided":true,
			"name":"Material.104",
			"pbrMetallicRoughness":{
				"baseColorFactor":[
					0,
					0,
					0,
					1
				],
				"metallicFactor":0,
				"roughnessFactor":0.5
			}
		},
		{
			"doubleSided":true,
			"name":"Material.106",
			"pbrMetallicRoughness":{
				"baseColorFactor":[
					0,
					0,
					0,
					1
				],
				"metallicFactor":0,
				"roughnessFactor":0.5
			}
		},
		{
			"doubleSided":true,
			"name":"Material.109",
			"pbrMetallicRoughness":{
				"baseColorFactor":[
					0,
					0,
					0,
					1
				],
				"metallicFactor":0,
				"roughnessFactor":0.5
			}
		},
		{
			"doubleSided":true,
			"name":"Material.110",
			"pbrMetallicRoughness":{
				"baseColorFactor":[
					0.800000011920929,
					0.800000011920929,
					0.800000011920929,
					1
				],
				"metallicFactor":0,
				"roughnessFactor":0.5
			}
		}
	],
	"meshes":[
		{
			"name":"Icosphere",
			"primitives":[
				{
					"attributes":{
						"POSITION":0,
						"NORMAL":1
					},
					"indices":2,
					"material":0
				},
				{
					"attributes":{
						"POSITION":3,
						"NORMAL":4
					},
					"indices":5,
					"material":1
				}
			]
		},
		{
			"name":"Text.035",
			"primitives":[
				{
					"attributes":{
						"POSITION":6,
						"NORMAL":7,
						"TEXCOORD_0":8
					},
					"indices":9,
					"material":2
				}
			]
		},
		{
			"name":"Plane.060",
			"primitives":[
				{
					"attributes":{
						"POSITION":10,
						"NORMAL":11,
						"TEXCOORD_0":12
					},
					"indices":13,
					"material":3
				}
			]
		},
		{
			"name":"Plane.061",
			"primitives":[
				{
					"attributes":{
						"POSITION":14,
						"NORMAL":15,
						"TEXCOORD_0":16
					},
					"indices":13,
					"material":4
				}
			]
		},
		{
			"name":"Plane.062",
			"primitives":[
				{
					"attributes":{
						"POSITION":17,
						"NORMAL":18,
						"TEXCOORD_0":19
					},
					"indices":13,
					"material":5
				}
			]
		},
		{
			"name":"Text.037",
			"primitives":[
				{
					"attributes":{
						"POSITION":20,
						"NORMAL":21,
						"TEXCOORD_0":22
					},
					"indices":23,
					"material":6
				}
			]
		},
		{
			"name":"Plane.064",
			"primitives":[
				{
					"attributes":{
						"POSITION":24,
						"NORMAL":25,
						"TEXCOORD_0":26
					},
					"indices":13,
					"material":7
				}
			]
		}
	],
	"accessors":[
		{
			"bufferView":0,
			"componentType":5126,
			"count":192,
			"max":[
				0.9510578513145447,
				1,
				0.9999999403953552
			],
			"min":[
				-1.0628103017807007,
				-1.0078006982803345,
				-0.9999999403953552
			],
			"type":"VEC3"
		},
		{
			"bufferView":1,
			"componentType":5126,
			"count":192,
			"type":"VEC3"
		},
		{
			"bufferView":2,
			"componentType":5123,
			"count":192,
			"type":"SCALAR"
		},
		{
			"bufferView":3,
			"componentType":5126,
			"count":14,
			"max":[
				0.9510578513145447,
				1,
				0.9999999403953552
			],
			"min":[
				-0.14440873265266418,
				0,
				-0.8918493986129761
			],
			"type":"VEC3"
		},
		{
			"bufferView":4,
			"componentType":5126,
			"count":14,
			"type":"VEC3"
		},
		{
			"bufferView":5,
			"componentType":5123,
			"count":24,
			"type":"SCALAR"
		},
		{
			"bufferView":6,
			"componentType":5126,
			"count":3678,
			"max":[
				6.203000068664551,
				0.020000001415610313,
				0.009000000543892384
			],
			"min":[
				0.04800000041723251,
				-0.020000001415610313,
				-0.6910000443458557
			],
			"type":"VEC3"
		},
		{
			"bufferView":7,
			"componentType":5126,
			"count":3678,
			"type":"VEC3"
		},
		{
			"bufferView":8,
			"componentType":5126,
			"count":3678,
			"type":"VEC2"
		},
		{
			"bufferView":9,
			"componentType":5123,
			"count":10848,
			"type":"SCALAR"
		},
		{
			"bufferView":10,
			"componentType":5126,
			"count":4,
			"max":[
				1,
				0,
				1
			],
			"min":[
				-1,
				0,
				-1
			],
			"type":"VEC3"
		},
		{
			"bufferView":11,
			"componentType":5126,
			"count":4,
			"type":"VEC3"
		},
		{
			"bufferView":12,
			"componentType":5126,
			"count":4,
			"type":"VEC2"
		},
		{
			"bufferView":13,
			"componentType":5123,
			"count":6,
			"type":"SCALAR"
		},
		{
			"bufferView":14,
			"componentType":5126,
			"count":4,
			"max":[
				1,
				0,
				1
			],
			"min":[
				-1,
				0,
				-1
			],
			"type":"VEC3"
		},
		{
			"bufferView":15,
			"componentType":5126,
			"count":4,
			"type":"VEC3"
		},
		{
			"bufferView":16,
			"componentType":5126,
			"count":4,
			"type":"VEC2"
		},
		{
			"bufferView":17,
			"componentType":5126,
			"count":4,
			"max":[
				1,
				0,
				1
			],
			"min":[
				-1,
				0,
				-1
			],
			"type":"VEC3"
		},
		{
			"bufferView":18,
			"componentType":5126,
			"count":4,
			"type":"VEC3"
		},
		{
			"bufferView":19,
			"componentType":5126,
			"count":4,
			"type":"VEC2"
		},
		{
			"bufferView":20,
			"componentType":5126,
			"count":3056,
			"max":[
				4.27400016784668,
				0.020000001415610313,
				0.23000000417232513
			],
			"min":[
				0.04800000041723251,
				-0.020000001415610313,
				-0.6910000443458557
			],
			"type":"VEC3"
		},
		{
			"bufferView":21,
			"componentType":5126,
			"count":3056,
			"type":"VEC3"
		},
		{
			"bufferView":22,
			"componentType":5126,
			"count":3056,
			"type":"VEC2"
		},
		{
			"bufferView":23,
			"componentType":5123,
			"count":9012,
			"type":"SCALAR"
		},
		{
			"bufferView":24,
			"componentType":5126,
			"count":4,
			"max":[
				1,
				0,
				1
			],
			"min":[
				-1,
				0,
				-1
			],
			"type":"VEC3"
		},
		{
			"bufferView":25,
			"componentType":5126,
			"count":4,
			"type":"VEC3"
		},
		{
			"bufferView":26,
			"componentType":5126,
			"count":4,
			"type":"VEC2"
		}
	],
	"bufferViews":[
		{
			"buffer":0,
			"byteLength":2304,
			"byteOffset":0,
			"target":34962
		},
		{
			"buffer":0,
			"byteLength":2304,
			"byteOffset":2304,
			"target":34962
		},
		{
			"buffer":0,
			"byteLength":384,
			"byteOffset":4608,
			"target":34963
		},
		{
			"buffer":0,
			"byteLength":168,
			"byteOffset":4992,
			"target":34962
		},
		{
			"buffer":0,
			"byteLength":168,
			"byteOffset":5160,
			"target":34962
		},
		{
			"buffer":0,
			"byteLength":48,
			"byteOffset":5328,
			"target":34963
		},
		{
			"buffer":0,
			"byteLength":44136,
			"byteOffset":5376,
			"target":34962
		},
		{
			"buffer":0,
			"byteLength":44136,
			"byteOffset":49512,
			"target":34962
		},
		{
			"buffer":0,
			"byteLength":29424,
			"byteOffset":93648,
			"target":34962
		},
		{
			"buffer":0,
			"byteLength":21696,
			"byteOffset":123072,
			"target":34963
		},
		{
			"buffer":0,
			"byteLength":48,
			"byteOffset":144768,
			"target":34962
		},
		{
			"buffer":0,
			"byteLength":48,
			"byteOffset":144816,
			"target":34962
		},
		{
			"buffer":0,
			"byteLength":32,
			"byteOffset":144864,
			"target":34962
		},
		{
			"buffer":0,
			"byteLength":12,
			"byteOffset":144896,
			"target":34963
		},
		{
			"buffer":0,
			"byteLength":48,
			"byteOffset":144908,
			"target":34962
		},
		{
			"buffer":0,
			"byteLength":48,
			"byteOffset":144956,
			"target":34962
		},
		{
			"buffer":0,
			"byteLength":32,
			"byteOffset":145004,
			"target":34962
		},
		{
			"buffer":0,
			"byteLength":48,
			"byteOffset":145036,
			"target":34962
		},
		{
			"buffer":0,
			"byteLength":48,
			"byteOffset":145084,
			"target":34962
		},
		{
			"buffer":0,
			"byteLength":32,
			"byteOffset":145132,
			"target":34962
		},
		{
			"buffer":0,
			"byteLength":36672,
			"byteOffset":145164,
			"target":34962
		},
		{
			"buffer":0,
			"byteLength":36672,
			"byteOffset":181836,
			"target":34962
		},
		{
			"buffer":0,
			"byteLength":24448,
			"byteOffset":218508,
			"target":34962
		},
		{
			"buffer":0,
			"byteLength":18024,
			"byteOffset":242956,
			"target":34963
		},
		{
			"buffer":0,
			"byteLength":48,
			"byteOffset":260980,
			"target":34962
		},
		{
			"buffer":0,
			"byteLength":48,
			"byteOffset":261028,
			"target":34962
		},
		{
			"buffer":0,
			"byteLength":32,
			"byteOffset":261076,
			"target":34962
		}
	],
	"buffers":[
		{
			"byteLength":261108,
			"uri":"cytoplasm.bin"
		}
	]
}
