{
	"asset":{
		"generator":"Khronos glTF Blender I/O v3.6.27",
		"version":"2.0"
	},
	"scene":0,
	"scenes":[
		{
			"name":"Scene",
			"nodes":[
				0,
				1,
				2
			]
		}
	],
	"nodes":[
		{
			"mesh":0,
			"name":"Cube.037",
			"rotation":[
				0.5415798425674438,
				0.36000168323516846,
				0.45678508281707764,
				0.6069904565811157
			],
			"scale":[
				0.0347965806722641,
				0.21738006174564362,
				0.036480702459812164
			],
			"translation":[
				9.158313751220703,
				4.214761257171631,
				-0.6866841316223145
			]
		},
		{
			"mesh":1,
			"name":"Text.025",
			"rotation":[
				0.7071067094802856,
				0.0005109042976982892,
				-0.000510904414113611,
				0.7071065902709961
			],
			"scale":[
				0.12359397858381271,
				0.9138298630714417,
				0.25816211104393005
			],
			"translation":[
				8.514554023742676,
				3.5090062618255615,
				-0.1317121535539627
			]
		},
		{
			"mesh":2,
			"name":"Plane.028",
			"rotation":[
				-0.5003611445426941,
				0.5003612041473389,
				-0.4996385872364044,
				0.49963870644569397
			],
			"scale":[
				0.12148330360651016,
				1,
				0.6671497821807861
			],
			"translation":[
				9.082823753356934,
				3.594465970993042,
				-0.14079542458057404
			]
		}
	],
	"materials":[
		{
			"doubleSided":true,
			"name":"Material.111",
			"pbrMetallicRoughness":{
				"baseColorFactor":[
					0.8001724481582642,
					0.69029301404953,
					0,
					1
				],
				"metallicFactor":0,
				"roughnessFactor":0.5
			}
		},
		{
			"doubleSided":true,
			"name":"Material.112",
			"pbrMetallicRoughness":{
				"baseColorFactor":[
					0,
					0,
					0,
					1
				],
				"metallicFactor":0,
				"roughnessFactor":0.5
			}
		},
		{
			"doubleSided":true,
			"name":"Material.113",
			"pbrMetallicRoughness":{
				"baseColorFactor":[
					0.800000011920929,
					0.800000011920929,
					0.800000011920929,
					1
				],
				"metallicFactor":0,
				"roughnessFactor":0.5
			}
		}
	],
	"meshes":[
		{
			"name":"Cube.047",
			"primitives":[
				{
					"attributes":{
						"POSITION":0,
						"NORMAL":1
					},
					"indices":2,
					"material":0
				}
			]
		},
		{
			"name":"Text.038",
			"primitives":[
				{
					"attributes":{
						"POSITION":3,
						"NORMAL":4,
						"TEXCOORD_0":5
					},
					"indices":6,
					"material":1
				}
			]
		},
		{
			"name":"Plane.065",
			"primitives":[
				{
					"attributes":{
						"POSITION":7,
						"NORMAL":8,
						"TEXCOORD_0":9
					},
					"indices":10,
					"material":2
				}
			]
		}
	],
	"accessors":[
		{
			"bufferView":0,
			"componentType":5126,
			"count":706,
			"max":[
				13.664149284362793,
				1,
				21.451778411865234
			],
			"min":[
				-13.06393814086914,
				-1,
				-25.900630950927734
			],
			"type":"VEC3"
		},
		{
			"bufferView":1,
			"componentType":5126,
			"count":706,
			"type":"VEC3"
		},
		{
			"bufferView":2,
			"componentType":5123,
			"count":1308,
			"type":"SCALAR"
		},
		{
			"bufferView":3,
			"componentType":5126,
			"count":6115,
			"max":[
				9.303000450134277,
				0.020000001415610313,
				0.23000000417232513
			],
			"min":[
				0.07500000298023224,
				-0.020000001415610313,
				-0.6820000410079956
			],
			"type":"VEC3"
		},
		{
			"bufferView":4,
			"componentType":5126,
			"count":6115,
			"type":"VEC3"
		},
		{
			"bufferView":5,
			"componentType":5126,
			"count":6115,
			"type":"VEC2"
		},
		{
			"bufferView":6,
			"componentType":5123,
			"count":17976,
			"type":"SCALAR"
		},
		{
			"bufferView":7,
			"componentType":5126,
			"count":4,
			"max":[
				1,
				0,
				1
			],
			"min":[
				-1,
				0,
				-1
			],
			"type":"VEC3"
		},
		{
			"bufferView":8,
			"componentType":5126,
			"count":4,
			"type":"VEC3"
		},
		{
			"bufferView":9,
			"componentType":5126,
			"count":4,
			"type":"VEC2"
		},
		{
			"bufferView":10,
			"componentType":5123,
			"count":6,
			"type":"SCALAR"
		}
	],
	"bufferViews":[
		{
			"buffer":0,
			"byteLength":8472,
			"byteOffset":0,
			"target":34962
		},
		{
			"buffer":0,
			"byteLength":8472,
			"byteOffset":8472,
			"target":34962
		},
		{
			"buffer":0,
			"byteLength":2616,
			"byteOffset":16944,
			"target":34963
		},
		{
			"buffer":0,
			"byteLength":73380,
			"byteOffset":19560,
			"target":34962
		},
		{
			"buffer":0,
			"byteLength":73380,
			"byteOffset":92940,
			"target":34962
		},
		{
			"buffer":0,
			"byteLength":48920,
			"byteOffset":166320,
			"target":34962
		},
		{
			"buffer":0,
			"byteLength":35952,
			"byteOffset":215240,
			"target":34963
		},
		{
			"buffer":0,
			"byteLength":48,
			"byteOffset":251192,
			"target":34962
		},
		{
			"buffer":0,
			"byteLength":48,
			"byteOffset":251240,
			"target":34962
		},
		{
			"buffer":0,
			"byteLength":32,
			"byteOffset":251288,
			"target":34962
		},
		{
			"buffer":0,
			"byteLength":12,
			"byteOffset":251320,
			"target":34963
		}
	],
	"buffers":[
		{
			"byteLength":251332,
			"uri":"er.bin"
		}
	]
}
