{
	"asset":{
		"generator":"Khronos glTF Blender I/O v3.6.27",
		"version":"2.0"
	},
	"scene":0,
	"scenes":[
		{
			"name":"Scene",
			"nodes":[
				0,
				1,
				2
			]
		}
	],
	"nodes":[
		{
			"mesh":0,
			"name":"Cube.005",
			"rotation":[
				-0.02706456184387207,
				0.9859691858291626,
				0.023788021877408028,
				0.16299206018447876
			],
			"scale":[
				0.012697873637080193,
				0.05371050164103508,
				0.01369659136980772
			],
			"translation":[
				2.695404529571533,
				6.381275177001953,
				-0.3531458377838135
			]
		},
		{
			"mesh":1,
			"name":"Text.026",
			"rotation":[
				0.7071067094802856,
				0.0005109042976982892,
				-0.000510904414113611,
				0.7071065902709961
			],
			"scale":[
				0.1881776601076126,
				0.9138298630714417,
				0.25816211104393005
			],
			"translation":[
				2.231326103210449,
				5.88252592086792,
				-0.40395236015319824
			]
		},
		{
			"mesh":2,
			"name":"Plane.029",
			"rotation":[
				-0.5003611445426941,
				0.5003612041473389,
				-0.4996385872364044,
				0.49963870644569397
			],
			"scale":[
				0.12148330360651016,
				1,
				0.6671497821807861
			],
			"translation":[
				2.8450546264648438,
				5.9679856300354,
				-0.4131014347076416
			]
		}
	],
	"materials":[
		{
			"doubleSided":true,
			"name":"Material.115",
			"pbrMetallicRoughness":{
				"baseColorFactor":[
					0.0041086552664637566,
					0,
					0.8003232479095459,
					1
				],
				"metallicFactor":0,
				"roughnessFactor":0.5
			}
		},
		{
			"doubleSided":true,
			"name":"Material.116",
			"pbrMetallicRoughness":{
				"baseColorFactor":[
					0,
					0,
					0,
					1
				],
				"metallicFactor":0,
				"roughnessFactor":0.5
			}
		},
		{
			"doubleSided":true,
			"name":"Material.117",
			"pbrMetallicRoughness":{
				"baseColorFactor":[
					0.800000011920929,
					0.800000011920929,
					0.800000011920929,
					1
				],
				"metallicFactor":0,
				"roughnessFactor":0.5
			}
		}
	],
	"meshes":[
		{
			"name":"Cube.010",
			"primitives":[
				{
					"attributes":{
						"POSITION":0,
						"NORMAL":1
					},
					"indices":2,
					"material":0
				}
			]
		},
		{
			"name":"Text.039",
			"primitives":[
				{
					"attributes":{
						"POSITION":3,
						"NORMAL":4,
						"TEXCOORD_0":5
					},
					"indices":6,
					"material":1
				}
			]
		},
		{
			"name":"Plane.067",
			"primitives":[
				{
					"attributes":{
						"POSITION":7,
						"NORMAL":8,
						"TEXCOORD_0":9
					},
					"indices":10,
					"material":2
				}
			]
		}
	],
	"accessors":[
		{
			"bufferView":0,
			"componentType":5126,
			"count":680,
			"max":[
				16.64655876159668,
				1.6426005363464355,
				29.650390625
			],
			"min":[
				-27.751249313354492,
				-1.6425986289978027,
				-46.317649841308594
			],
			"type":"VEC3"
		},
		{
			"bufferView":1,
			"componentType":5126,
			"count":680,
			"type":"VEC3"
		},
		{
			"bufferView":2,
			"componentType":5123,
			"count":1200,
			"type":"SCALAR"
		},
		{
			"bufferView":3,
			"componentType":5126,
			"count":5361,
			"max":[
				6.530000686645508,
				0.020000001415610313,
				0.23000000417232513
			],
			"min":[
				0.05000000074505806,
				-0.020000001415610313,
				-0.6910000443458557
			],
			"type":"VEC3"
		},
		{
			"bufferView":4,
			"componentType":5126,
			"count":5361,
			"type":"VEC3"
		},
		{
			"bufferView":5,
			"componentType":5126,
			"count":5361,
			"type":"VEC2"
		},
		{
			"bufferView":6,
			"componentType":5123,
			"count":15852,
			"type":"SCALAR"
		},
		{
			"bufferView":7,
			"componentType":5126,
			"count":4,
			"max":[
				1,
				0,
				1
			],
			"min":[
				-1,
				0,
				-1
			],
			"type":"VEC3"
		},
		{
			"bufferView":8,
			"componentType":5126,
			"count":4,
			"type":"VEC3"
		},
		{
			"bufferView":9,
			"componentType":5126,
			"count":4,
			"type":"VEC2"
		},
		{
			"bufferView":10,
			"componentType":5123,
			"count":6,
			"type":"SCALAR"
		}
	],
	"bufferViews":[
		{
			"buffer":0,
			"byteLength":8160,
			"byteOffset":0,
			"target":34962
		},
		{
			"buffer":0,
			"byteLength":8160,
			"byteOffset":8160,
			"target":34962
		},
		{
			"buffer":0,
			"byteLength":2400,
			"byteOffset":16320,
			"target":34963
		},
		{
			"buffer":0,
			"byteLength":64332,
			"byteOffset":18720,
			"target":34962
		},
		{
			"buffer":0,
			"byteLength":64332,
			"byteOffset":83052,
			"target":34962
		},
		{
			"buffer":0,
			"byteLength":42888,
			"byteOffset":147384,
			"target":34962
		},
		{
			"buffer":0,
			"byteLength":31704,
			"byteOffset":190272,
			"target":34963
		},
		{
			"buffer":0,
			"byteLength":48,
			"byteOffset":221976,
			"target":34962
		},
		{
			"buffer":0,
			"byteLength":48,
			"byteOffset":222024,
			"target":34962
		},
		{
			"buffer":0,
			"byteLength":32,
			"byteOffset":222072,
			"target":34962
		},
		{
			"buffer":0,
			"byteLength":12,
			"byteOffset":222104,
			"target":34963
		}
	],
	"buffers":[
		{
			"byteLength":222116,
			"uri":"golgi.bin"
		}
	]
}
