{
	"asset":{
		"generator":"Khronos glTF Blender I/O v3.6.27",
		"version":"2.0"
	},
	"scene":0,
	"scenes":[
		{
			"name":"Scene",
			"nodes":[
				0,
				1,
				2
			]
		}
	],
	"nodes":[
		{
			"mesh":0,
			"name":"Cube.011",
			"rotation":[
				0.22147299349308014,
				0.6679372787475586,
				0.6720904111862183,
				0.23044297099113464
			],
			"scale":[
				0.06604968756437302,
				0.11526930332183838,
				0.06604727357625961
			],
			"translation":[
				5.182640075683594,
				6.533834934234619,
				-1.041243553161621
			]
		},
		{
			"mesh":1,
			"name":"Text.028",
			"rotation":[
				0.7071067094802856,
				0.0005109042976982892,
				-0.0005109043559059501,
				0.7071065902709961
			],
			"scale":[
				0.22713883221149445,
				0.9138298630714417,
				0.25816211104393005
			],
			"translation":[
				4.492658615112305,
				5.941381931304932,
				-0.9004503488540649
			]
		},
		{
			"mesh":2,
			"name":"Plane.032",
			"rotation":[
				-0.5003611445426941,
				0.5003612041473389,
				-0.4996385872364044,
				0.49963870644569397
			],
			"scale":[
				0.12148330360651016,
				1,
				0.6671497821807861
			],
			"translation":[
				5.1197404861450195,
				6.026841640472412,
				-0.9096183776855469
			]
		}
	],
	"materials":[
		{
			"doubleSided":true,
			"name":"Material.122",
			"pbrMetallicRoughness":{
				"baseColorFactor":[
					0.8001416921615601,
					0,
					0.004787137731909752,
					1
				],
				"metallicFactor":0,
				"roughnessFactor":0.5
			}
		},
		{
			"doubleSided":true,
			"name":"Material.123",
			"pbrMetallicRoughness":{
				"baseColorFactor":[
					0,
					0,
					0,
					1
				],
				"metallicFactor":0,
				"roughnessFactor":0.5
			}
		},
		{
			"doubleSided":true,
			"name":"Material.124",
			"pbrMetallicRoughness":{
				"baseColorFactor":[
					0.800000011920929,
					0.800000011920929,
					0.800000011920929,
					1
				],
				"metallicFactor":0,
				"roughnessFactor":0.5
			}
		}
	],
	"meshes":[
		{
			"name":"Cube.016",
			"primitives":[
				{
					"attributes":{
						"POSITION":0,
						"NORMAL":1
					},
					"indices":2,
					"material":0
				}
			]
		},
		{
			"name":"Text.041",
			"primitives":[
				{
					"attributes":{
						"POSITION":3,
						"NORMAL":4,
						"TEXCOORD_0":5
					},
					"indices":6,
					"material":1
				}
			]
		},
		{
			"name":"Plane.071",
			"primitives":[
				{
					"attributes":{
						"POSITION":7,
						"NORMAL":8,
						"TEXCOORD_0":9
					},
					"indices":10,
					"material":2
				}
			]
		}
	],
	"accessors":[
		{
			"bufferView":0,
			"componentType":5126,
			"count":1232,
			"max":[
				1.367305040359497,
				0.8807140588760376,
				3.3254034519195557
			],
			"min":[
				-1.3860690593719482,
				-1.0000003576278687,
				-5.723747253417969
			],
			"type":"VEC3"
		},
		{
			"bufferView":1,
			"componentType":5126,
			"count":1232,
			"type":"VEC3"
		},
		{
			"bufferView":2,
			"componentType":5123,
			"count":2388,
			"type":"SCALAR"
		},
		{
			"bufferView":3,
			"componentType":5126,
			"count":3592,
			"max":[
				5.4110002517700195,
				0.020000001415610313,
				0.009000000543892384
			],
			"min":[
				0.07300000637769699,
				-0.020000001415610313,
				-0.6820000410079956
			],
			"type":"VEC3"
		},
		{
			"bufferView":4,
			"componentType":5126,
			"count":3592,
			"type":"VEC3"
		},
		{
			"bufferView":5,
			"componentType":5126,
			"count":3592,
			"type":"VEC2"
		},
		{
			"bufferView":6,
			"componentType":5123,
			"count":10536,
			"type":"SCALAR"
		},
		{
			"bufferView":7,
			"componentType":5126,
			"count":4,
			"max":[
				1,
				0,
				1
			],
			"min":[
				-1,
				0,
				-1
			],
			"type":"VEC3"
		},
		{
			"bufferView":8,
			"componentType":5126,
			"count":4,
			"type":"VEC3"
		},
		{
			"bufferView":9,
			"componentType":5126,
			"count":4,
			"type":"VEC2"
		},
		{
			"bufferView":10,
			"componentType":5123,
			"count":6,
			"type":"SCALAR"
		}
	],
	"bufferViews":[
		{
			"buffer":0,
			"byteLength":14784,
			"byteOffset":0,
			"target":34962
		},
		{
			"buffer":0,
			"byteLength":14784,
			"byteOffset":14784,
			"target":34962
		},
		{
			"buffer":0,
			"byteLength":4776,
			"byteOffset":29568,
			"target":34963
		},
		{
			"buffer":0,
			"byteLength":43104,
			"byteOffset":34344,
			"target":34962
		},
		{
			"buffer":0,
			"byteLength":43104,
			"byteOffset":77448,
			"target":34962
		},
		{
			"buffer":0,
			"byteLength":28736,
			"byteOffset":120552,
			"target":34962
		},
		{
			"buffer":0,
			"byteLength":21072,
			"byteOffset":149288,
			"target":34963
		},
		{
			"buffer":0,
			"byteLength":48,
			"byteOffset":170360,
			"target":34962
		},
		{
			"buffer":0,
			"byteLength":48,
			"byteOffset":170408,
			"target":34962
		},
		{
			"buffer":0,
			"byteLength":32,
			"byteOffset":170456,
			"target":34962
		},
		{
			"buffer":0,
			"byteLength":12,
			"byteOffset":170488,
			"target":34963
		}
	],
	"buffers":[
		{
			"byteLength":170500,
			"uri":"mitochondria.bin"
		}
	]
}
