{
	"asset":{
		"generator":"Khronos glTF Blender I/O v3.6.27",
		"version":"2.0"
	},
	"scene":0,
	"scenes":[
		{
			"name":"Scene",
			"nodes":[
				0,
				1,
				2
			]
		}
	],
	"nodes":[
		{
			"mesh":0,
			"name":"Text.030",
			"rotation":[
				0.7071067094802856,
				0.0005109042976982892,
				-0.000510904414113611,
				0.7071065902709961
			],
			"scale":[
				0.1881776601076126,
				0.9138298630714417,
				0.25816211104393005
			],
			"translation":[
				6.781460285186768,
				5.893160343170166,
				-0.8013748526573181
			]
		},
		{
			"mesh":1,
			"name":"Plane.040",
			"rotation":[
				-0.5003611445426941,
				0.5003612041473389,
				-0.4996385872364044,
				0.49963870644569397
			],
			"scale":[
				0.12148330360651016,
				1,
				0.6671497821807861
			],
			"translation":[
				7.1477837562561035,
				5.9786200523376465,
				-0.810123860836029
			]
		},
		{
			"mesh":2,
			"name":"Piedras_Rojas.002",
			"rotation":[
				0,
				0.7076175212860107,
				0,
				0.7065957188606262
			],
			"scale":[
				0.04777604714035988,
				0.04777604714035988,
				0.04777604714035988
			],
			"translation":[
				7.059494972229004,
				6.520429611206055,
				-0.5778586864471436
			]
		}
	],
	"materials":[
		{
			"doubleSided":true,
			"name":"Material.129",
			"pbrMetallicRoughness":{
				"baseColorFactor":[
					0,
					0,
					0,
					1
				],
				"metallicFactor":0,
				"roughnessFactor":0.5
			}
		},
		{
			"doubleSided":true,
			"name":"Material.131",
			"pbrMetallicRoughness":{
				"baseColorFactor":[
					0.800000011920929,
					0.800000011920929,
					0.800000011920929,
					1
				],
				"metallicFactor":0,
				"roughnessFactor":0.5
			}
		},
		{
			"doubleSided":true,
			"name":"Rojas.003",
			"pbrMetallicRoughness":{
				"baseColorFactor":[
					0.8000074625015259,
					0.009554783813655376,
					0.0711916908621788,
					1
				],
				"metallicFactor":0,
				"roughnessFactor":0
			}
		}
	],
	"meshes":[
		{
			"name":"Text.043",
			"primitives":[
				{
					"attributes":{
						"POSITION":0,
						"NORMAL":1,
						"TEXCOORD_0":2
					},
					"indices":3,
					"material":0
				}
			]
		},
		{
			"name":"Plane.076",
			"primitives":[
				{
					"attributes":{
						"POSITION":4,
						"NORMAL":5,
						"TEXCOORD_0":6
					},
					"indices":7,
					"material":1
				}
			]
		},
		{
			"name":"Sphere.003",
			"primitives":[
				{
					"attributes":{
						"POSITION":8,
						"NORMAL":9
					},
					"indices":10,
					"material":2
				}
			]
		}
	],
	"accessors":[
		{
			"bufferView":0,
			"componentType":5126,
			"count":3678,
			"max":[
				4.407000541687012,
				0.020000001415610313,
				0.009000000543892384
			],
			"min":[
				0.07700000703334808,
				-0.020000001415610313,
				-0.6820000410079956
			],
			"type":"VEC3"
		},
		{
			"bufferView":1,
			"componentType":5126,
			"count":3678,
			"type":"VEC3"
		},
		{
			"bufferView":2,
			"componentType":5126,
			"count":3678,
			"type":"VEC2"
		},
		{
			"bufferView":3,
			"componentType":5123,
			"count":10884,
			"type":"SCALAR"
		},
		{
			"bufferView":4,
			"componentType":5126,
			"count":4,
			"max":[
				1,
				0,
				1
			],
			"min":[
				-1,
				0,
				-1
			],
			"type":"VEC3"
		},
		{
			"bufferView":5,
			"componentType":5126,
			"count":4,
			"type":"VEC3"
		},
		{
			"bufferView":6,
			"componentType":5126,
			"count":4,
			"type":"VEC2"
		},
		{
			"bufferView":7,
			"componentType":5123,
			"count":6,
			"type":"SCALAR"
		},
		{
			"bufferView":8,
			"componentType":5126,
			"count":116,
			"max":[
				8.56157112121582,
				20.43036651611328,
				7.525706768035889
			],
			"min":[
				-0.9999996423721313,
				-1,
				-0.9999998211860657
			],
			"type":"VEC3"
		},
		{
			"bufferView":9,
			"componentType":5126,
			"count":116,
			"type":"VEC3"
		},
		{
			"bufferView":10,
			"componentType":5123,
			"count":672,
			"type":"SCALAR"
		}
	],
	"bufferViews":[
		{
			"buffer":0,
			"byteLength":44136,
			"byteOffset":0,
			"target":34962
		},
		{
			"buffer":0,
			"byteLength":44136,
			"byteOffset":44136,
			"target":34962
		},
		{
			"buffer":0,
			"byteLength":29424,
			"byteOffset":88272,
			"target":34962
		},
		{
			"buffer":0,
			"byteLength":21768,
			"byteOffset":117696,
			"target":34963
		},
		{
			"buffer":0,
			"byteLength":48,
			"byteOffset":139464,
			"target":34962
		},
		{
			"buffer":0,
			"byteLength":48,
			"byteOffset":139512,
			"target":34962
		},
		{
			"buffer":0,
			"byteLength":32,
			"byteOffset":139560,
			"target":34962
		},
		{
			"buffer":0,
			"byteLength":12,
			"byteOffset":139592,
			"target":34963
		},
		{
			"buffer":0,
			"byteLength":1392,
			"byteOffset":139604,
			"target":34962
		},
		{
			"buffer":0,
			"byteLength":1392,
			"byteOffset":140996,
			"target":34962
		},
		{
			"buffer":0,
			"byteLength":1344,
			"byteOffset":142388,
			"target":34963
		}
	],
	"buffers":[
		{
			"byteLength":143732,
			"uri":"robosomes.bin"
		}
	]
}
