{
	"asset":{
		"generator":"Khronos glTF Blender I/O v3.6.27",
		"version":"2.0"
	},
	"scene":0,
	"scenes":[
		{
			"name":"Scene",
			"nodes":[
				0,
				1
			]
		}
	],
	"nodes":[
		{
			"mesh":0,
			"name":"VisualMaterial0.003",
			"scale":[
				4.279395580291748,
				4.2793965339660645,
				4.2793965339660645
			],
			"translation":[
				-30.329286575317383,
				0,
				-27.710859298706055
			]
		},
		{
			"mesh":1,
			"name":"VisualMaterial10.003",
			"scale":[
				4.279395580291748,
				4.2793965339660645,
				4.2793965339660645
			],
			"translation":[
				-30.329286575317383,
				0,
				-27.710859298706055
			]
		}
	],
	"materials":[
		{
			"doubleSided":true,
			"name":"mesh_0.006",
			"pbrMetallicRoughness":{
				"baseColorTexture":{
					"index":0
				},
				"metallicFactor":0
			}
		},
		{
			"doubleSided":true,
			"name":"mesh_1.006",
			"pbrMetallicRoughness":{
				"baseColorTexture":{
					"index":1
				},
				"metallicFactor":0
			}
		}
	],
	"meshes":[
		{
			"name":"VisualMaterial0.003",
			"primitives":[
				{
					"attributes":{
						"POSITION":0,
						"NORMAL":1,
						"TEXCOORD_0":2
					},
					"indices":3,
					"material":0
				}
			]
		},
		{
			"name":"VisualMaterial10.003",
			"primitives":[
				{
					"attributes":{
						"POSITION":4,
						"NORMAL":5,
						"TEXCOORD_0":6
					},
					"indices":7,
					"material":1
				}
			]
		}
	],
	"textures":[
		{
			"sampler":0,
			"source":0
		},
		{
			"sampler":0,
			"source":1
		}
	],
	"images":[
		{
			"mimeType":"image/png",
			"name":"mesh_0_baseColor",
			"uri":"mesh_0_baseColor.png"
		},
		{
			"mimeType":"image/png",
			"name":"mesh_1_baseColor",
			"uri":"mesh_1_baseColor.png"
		}
	],
	"accessors":[
		{
			"bufferView":0,
			"componentType":5126,
			"count":1124,
			"max":[
				1.2062699794769287,
				2.4452900886535645,
				0.2980380058288574
			],
			"min":[
				-1.2062699794769287,
				1.8172399997711182,
				-0.031237000599503517
			],
			"type":"VEC3"
		},
		{
			"bufferView":1,
			"componentType":5126,
			"count":1124,
			"type":"VEC3"
		},
		{
			"bufferView":2,
			"componentType":5126,
			"count":1124,
			"type":"VEC2"
		},
		{
			"bufferView":3,
			"componentType":5123,
			"count":5154,
			"type":"SCALAR"
		},
		{
			"bufferView":4,
			"componentType":5126,
			"count":1211,
			"max":[
				0.9204149842262268,
				2.7783100605010986,
				0.21364900469779968
			],
			"min":[
				-0.9204149842262268,
				-0.0005469999741762877,
				-0.3752639889717102
			],
			"type":"VEC3"
		},
		{
			"bufferView":5,
			"componentType":5126,
			"count":1211,
			"type":"VEC3"
		},
		{
			"bufferView":6,
			"componentType":5126,
			"count":1211,
			"type":"VEC2"
		},
		{
			"bufferView":7,
			"componentType":5123,
			"count":5904,
			"type":"SCALAR"
		}
	],
	"bufferViews":[
		{
			"buffer":0,
			"byteLength":13488,
			"byteOffset":0,
			"target":34962
		},
		{
			"buffer":0,
			"byteLength":13488,
			"byteOffset":13488,
			"target":34962
		},
		{
			"buffer":0,
			"byteLength":8992,
			"byteOffset":26976,
			"target":34962
		},
		{
			"buffer":0,
			"byteLength":10308,
			"byteOffset":35968,
			"target":34963
		},
		{
			"buffer":0,
			"byteLength":14532,
			"byteOffset":46276,
			"target":34962
		},
		{
			"buffer":0,
			"byteLength":14532,
			"byteOffset":60808,
			"target":34962
		},
		{
			"buffer":0,
			"byteLength":9688,
			"byteOffset":75340,
			"target":34962
		},
		{
			"buffer":0,
			"byteLength":11808,
			"byteOffset":85028,
			"target":34963
		}
	],
	"samplers":[
		{
			"magFilter":9729,
			"minFilter":9987
		}
	],
	"buffers":[
		{
			"byteLength":96836,
			"uri":"fake1.bin"
		}
	]
}
