{
	"asset":{
		"generator":"Khronos glTF Blender I/O v3.6.27",
		"version":"2.0"
	},
	"scene":0,
	"scenes":[
		{
			"name":"Scene",
			"nodes":[
				0,
				1,
				2,
				3
			]
		}
	],
	"nodes":[
		{
			"mesh":0,
			"name":"Text.004",
			"rotation":[
				0.7071066498756409,
				0.0005109042976982892,
				-0.0005109042976982892,
				0.7071066498756409
			],
			"scale":[
				0.1862446814775467,
				0.9138297438621521,
				0.25816208124160767
			],
			"translation":[
				-1.564298152923584,
				2.5909018516540527,
				0.190583735704422
			]
		},
		{
			"mesh":1,
			"name":"Outside.001",
			"rotation":[
				0,
				0.7076175212860107,
				0,
				0.7065957188606262
			],
			"scale":[
				0.9881657361984253,
				0.9911837577819824,
				0.9105638861656189
			],
			"translation":[
				-3.2518115043640137,
				1.5886199474334717,
				-0.9337723255157471
			]
		},
		{
			"mesh":2,
			"name":"Plane.023",
			"rotation":[
				-0.6123539209365845,
				0.1200220063328743,
				-0.2532656788825989,
				0.7392388582229614
			],
			"scale":[
				-0.008065939880907536,
				-1.014672040939331,
				-0.600662350654602
			],
			"translation":[
				-1.867092251777649,
				2.0816802978515625,
				0.03837406635284424
			]
		},
		{
			"mesh":3,
			"name":"Plane.002",
			"rotation":[
				-0.5003611445426941,
				0.5003611445426941,
				-0.4996385872364044,
				0.4996386170387268
			],
			"scale":[
				0.15316346287727356,
				1,
				0.7343308329582214
			],
			"translation":[
				-1.0054831504821777,
				2.67982816696167,
				0.17447501420974731
			]
		}
	],
	"materials":[
		{
			"doubleSided":true,
			"name":"Material.006",
			"pbrMetallicRoughness":{
				"baseColorFactor":[
					0,
					0,
					0,
					1
				],
				"metallicFactor":0,
				"roughnessFactor":0.5
			}
		},
		{
			"doubleSided":true,
			"name":"Material.046",
			"pbrMetallicRoughness":{
				"baseColorFactor":[
					0,
					0.8000473976135254,
					0.012261759489774704,
					1
				],
				"metallicFactor":0,
				"roughnessFactor":0.5
			}
		},
		{
			"doubleSided":true,
			"name":"Material.053",
			"pbrMetallicRoughness":{
				"baseColorFactor":[
					0,
					0,
					0,
					1
				],
				"metallicFactor":0,
				"roughnessFactor":0.5
			}
		},
		{
			"doubleSided":true,
			"name":"Material.048",
			"pbrMetallicRoughness":{
				"baseColorFactor":[
					0.800000011920929,
					0.800000011920929,
					0.800000011920929,
					1
				],
				"metallicFactor":0,
				"roughnessFactor":0.5
			}
		}
	],
	"meshes":[
		{
			"name":"Text.004",
			"primitives":[
				{
					"attributes":{
						"POSITION":0,
						"NORMAL":1,
						"TEXCOORD_0":2
					},
					"indices":3,
					"material":0
				}
			]
		},
		{
			"name":"Cube.003",
			"primitives":[
				{
					"attributes":{
						"POSITION":4,
						"NORMAL":5
					},
					"indices":6,
					"material":1
				}
			]
		},
		{
			"name":"Plane.011",
			"primitives":[
				{
					"attributes":{
						"POSITION":7,
						"NORMAL":8,
						"TEXCOORD_0":9
					},
					"indices":10,
					"material":2
				}
			]
		},
		{
			"name":"Plane.040",
			"primitives":[
				{
					"attributes":{
						"POSITION":11,
						"NORMAL":12,
						"TEXCOORD_0":13
					},
					"indices":10,
					"material":3
				}
			]
		}
	],
	"accessors":[
		{
			"bufferView":0,
			"componentType":5126,
			"count":3678,
			"max":[
				6.203000068664551,
				0.020000001415610313,
				0.009000000543892384
			],
			"min":[
				0.04800000041723251,
				-0.020000001415610313,
				-0.6910000443458557
			],
			"type":"VEC3"
		},
		{
			"bufferView":1,
			"componentType":5126,
			"count":3678,
			"type":"VEC3"
		},
		{
			"bufferView":2,
			"componentType":5126,
			"count":3678,
			"type":"VEC2"
		},
		{
			"bufferView":3,
			"componentType":5123,
			"count":10848,
			"type":"SCALAR"
		},
		{
			"bufferView":4,
			"componentType":5126,
			"count":137,
			"max":[
				1.3720015287399292,
				1.3720015287399292,
				1.3720015287399292
			],
			"min":[
				-1.3720015287399292,
				-1.3720015287399292,
				-1.3720015287399292
			],
			"type":"VEC3"
		},
		{
			"bufferView":5,
			"componentType":5126,
			"count":137,
			"type":"VEC3"
		},
		{
			"bufferView":6,
			"componentType":5123,
			"count":756,
			"type":"SCALAR"
		},
		{
			"bufferView":7,
			"componentType":5126,
			"count":4,
			"max":[
				1,
				0,
				1
			],
			"min":[
				-1,
				0,
				-1
			],
			"type":"VEC3"
		},
		{
			"bufferView":8,
			"componentType":5126,
			"count":4,
			"type":"VEC3"
		},
		{
			"bufferView":9,
			"componentType":5126,
			"count":4,
			"type":"VEC2"
		},
		{
			"bufferView":10,
			"componentType":5123,
			"count":6,
			"type":"SCALAR"
		},
		{
			"bufferView":11,
			"componentType":5126,
			"count":4,
			"max":[
				1,
				0,
				1
			],
			"min":[
				-1,
				0,
				-1
			],
			"type":"VEC3"
		},
		{
			"bufferView":12,
			"componentType":5126,
			"count":4,
			"type":"VEC3"
		},
		{
			"bufferView":13,
			"componentType":5126,
			"count":4,
			"type":"VEC2"
		}
	],
	"bufferViews":[
		{
			"buffer":0,
			"byteLength":44136,
			"byteOffset":0,
			"target":34962
		},
		{
			"buffer":0,
			"byteLength":44136,
			"byteOffset":44136,
			"target":34962
		},
		{
			"buffer":0,
			"byteLength":29424,
			"byteOffset":88272,
			"target":34962
		},
		{
			"buffer":0,
			"byteLength":21696,
			"byteOffset":117696,
			"target":34963
		},
		{
			"buffer":0,
			"byteLength":1644,
			"byteOffset":139392,
			"target":34962
		},
		{
			"buffer":0,
			"byteLength":1644,
			"byteOffset":141036,
			"target":34962
		},
		{
			"buffer":0,
			"byteLength":1512,
			"byteOffset":142680,
			"target":34963
		},
		{
			"buffer":0,
			"byteLength":48,
			"byteOffset":144192,
			"target":34962
		},
		{
			"buffer":0,
			"byteLength":48,
			"byteOffset":144240,
			"target":34962
		},
		{
			"buffer":0,
			"byteLength":32,
			"byteOffset":144288,
			"target":34962
		},
		{
			"buffer":0,
			"byteLength":12,
			"byteOffset":144320,
			"target":34963
		},
		{
			"buffer":0,
			"byteLength":48,
			"byteOffset":144332,
			"target":34962
		},
		{
			"buffer":0,
			"byteLength":48,
			"byteOffset":144380,
			"target":34962
		},
		{
			"buffer":0,
			"byteLength":32,
			"byteOffset":144428,
			"target":34962
		}
	],
	"buffers":[
		{
			"byteLength":144460,
			"uri":"cellmembrane.bin"
		}
	]
}
