{
	"asset":{
		"generator":"Khronos glTF Blender I/O v3.6.27",
		"version":"2.0"
	},
	"scene":0,
	"scenes":[
		{
			"name":"Scene",
			"nodes":[
				0,
				1,
				2,
				3
			]
		}
	],
	"nodes":[
		{
			"mesh":0,
			"name":"Text.007",
			"rotation":[
				0.7071066498756409,
				0.0005109042976982892,
				-0.0005109042976982892,
				0.7071066498756409
			],
			"scale":[
				0.25816208124160767,
				0.9138298034667969,
				0.25816208124160767
			],
			"translation":[
				-1.8776192665100098,
				3.724529266357422,
				-1.3183870315551758
			]
		},
		{
			"mesh":1,
			"name":"Plane.007",
			"rotation":[
				-0.5003611445426941,
				0.5003611445426941,
				-0.4996385872364044,
				0.4996386766433716
			],
			"scale":[
				0.12148328870534897,
				1,
				0.6671497225761414
			],
			"translation":[
				-1.3846635818481445,
				3.8099889755249023,
				-1.3522639274597168
			]
		},
		{
			"mesh":2,
			"name":"Plane.027",
			"rotation":[
				-0.5758693814277649,
				0.24032682180404663,
				-0.39629927277565,
				0.673471987247467
			],
			"scale":[
				-0.008681997656822205,
				-0.999447762966156,
				-0.6311651468276978
			],
			"translation":[
				-2.3298499584198,
				3.332850456237793,
				-1.4978642463684082
			]
		},
		{
			"mesh":3,
			"name":"Outside",
			"rotation":[
				0,
				0.7076175808906555,
				0,
				0.7065957188606262
			],
			"scale":[
				1.0795998573303223,
				1.0816700458526611,
				0.9806249141693115
			],
			"translation":[
				-3.2518115043640137,
				1.5886199474334717,
				-0.9337723255157471
			]
		}
	],
	"materials":[
		{
			"doubleSided":true,
			"name":"Material.037",
			"pbrMetallicRoughness":{
				"baseColorFactor":[
					0,
					0,
					0,
					1
				],
				"metallicFactor":0,
				"roughnessFactor":0.5
			}
		},
		{
			"doubleSided":true,
			"name":"Material.001",
			"pbrMetallicRoughness":{
				"baseColorFactor":[
					0.800000011920929,
					0.800000011920929,
					0.800000011920929,
					1
				],
				"metallicFactor":0,
				"roughnessFactor":0.5
			}
		},
		{
			"doubleSided":true,
			"name":"Material.057",
			"pbrMetallicRoughness":{
				"baseColorFactor":[
					0,
					0,
					0,
					1
				],
				"metallicFactor":0,
				"roughnessFactor":0.5
			}
		},
		{
			"doubleSided":true,
			"name":"Material",
			"pbrMetallicRoughness":{
				"baseColorFactor":[
					0.7723206877708435,
					0,
					0.8005601167678833,
					1
				],
				"metallicFactor":0,
				"roughnessFactor":0.5
			}
		}
	],
	"meshes":[
		{
			"name":"Text.021",
			"primitives":[
				{
					"attributes":{
						"POSITION":0,
						"NORMAL":1,
						"TEXCOORD_0":2
					},
					"indices":3,
					"material":0
				}
			]
		},
		{
			"name":"Plane.021",
			"primitives":[
				{
					"attributes":{
						"POSITION":4,
						"NORMAL":5,
						"TEXCOORD_0":6
					},
					"indices":7,
					"material":1
				}
			]
		},
		{
			"name":"Plane.027",
			"primitives":[
				{
					"attributes":{
						"POSITION":8,
						"NORMAL":9,
						"TEXCOORD_0":10
					},
					"indices":7,
					"material":2
				}
			]
		},
		{
			"name":"Cube.001",
			"primitives":[
				{
					"attributes":{
						"POSITION":11,
						"NORMAL":12
					},
					"indices":13,
					"material":3
				}
			]
		}
	],
	"accessors":[
		{
			"bufferView":0,
			"componentType":5126,
			"count":1620,
			"max":[
				3.7450003623962402,
				0.020000001415610313,
				0.009000000543892384
			],
			"min":[
				0.04800000041723251,
				-0.020000001415610313,
				-0.6910000443458557
			],
			"type":"VEC3"
		},
		{
			"bufferView":1,
			"componentType":5126,
			"count":1620,
			"type":"VEC3"
		},
		{
			"bufferView":2,
			"componentType":5126,
			"count":1620,
			"type":"VEC2"
		},
		{
			"bufferView":3,
			"componentType":5123,
			"count":4728,
			"type":"SCALAR"
		},
		{
			"bufferView":4,
			"componentType":5126,
			"count":4,
			"max":[
				1,
				0,
				1
			],
			"min":[
				-1,
				0,
				-1
			],
			"type":"VEC3"
		},
		{
			"bufferView":5,
			"componentType":5126,
			"count":4,
			"type":"VEC3"
		},
		{
			"bufferView":6,
			"componentType":5126,
			"count":4,
			"type":"VEC2"
		},
		{
			"bufferView":7,
			"componentType":5123,
			"count":6,
			"type":"SCALAR"
		},
		{
			"bufferView":8,
			"componentType":5126,
			"count":4,
			"max":[
				1,
				0,
				1
			],
			"min":[
				-1,
				0,
				-1
			],
			"type":"VEC3"
		},
		{
			"bufferView":9,
			"componentType":5126,
			"count":4,
			"type":"VEC3"
		},
		{
			"bufferView":10,
			"componentType":5126,
			"count":4,
			"type":"VEC2"
		},
		{
			"bufferView":11,
			"componentType":5126,
			"count":137,
			"max":[
				1.3720015287399292,
				1.3720015287399292,
				1.3720015287399292
			],
			"min":[
				-1.3720015287399292,
				-1.3720015287399292,
				-1.3720015287399292
			],
			"type":"VEC3"
		},
		{
			"bufferView":12,
			"componentType":5126,
			"count":137,
			"type":"VEC3"
		},
		{
			"bufferView":13,
			"componentType":5123,
			"count":756,
			"type":"SCALAR"
		}
	],
	"bufferViews":[
		{
			"buffer":0,
			"byteLength":19440,
			"byteOffset":0,
			"target":34962
		},
		{
			"buffer":0,
			"byteLength":19440,
			"byteOffset":19440,
			"target":34962
		},
		{
			"buffer":0,
			"byteLength":12960,
			"byteOffset":38880,
			"target":34962
		},
		{
			"buffer":0,
			"byteLength":9456,
			"byteOffset":51840,
			"target":34963
		},
		{
			"buffer":0,
			"byteLength":48,
			"byteOffset":61296,
			"target":34962
		},
		{
			"buffer":0,
			"byteLength":48,
			"byteOffset":61344,
			"target":34962
		},
		{
			"buffer":0,
			"byteLength":32,
			"byteOffset":61392,
			"target":34962
		},
		{
			"buffer":0,
			"byteLength":12,
			"byteOffset":61424,
			"target":34963
		},
		{
			"buffer":0,
			"byteLength":48,
			"byteOffset":61436,
			"target":34962
		},
		{
			"buffer":0,
			"byteLength":48,
			"byteOffset":61484,
			"target":34962
		},
		{
			"buffer":0,
			"byteLength":32,
			"byteOffset":61532,
			"target":34962
		},
		{
			"buffer":0,
			"byteLength":1644,
			"byteOffset":61564,
			"target":34962
		},
		{
			"buffer":0,
			"byteLength":1644,
			"byteOffset":63208,
			"target":34962
		},
		{
			"buffer":0,
			"byteLength":1512,
			"byteOffset":64852,
			"target":34963
		}
	],
	"buffers":[
		{
			"byteLength":66364,
			"uri":"cellwall1.bin"
		}
	]
}
