{
	"asset":{
		"generator":"Khronos glTF Blender I/O v3.6.27",
		"version":"2.0"
	},
	"scene":0,
	"scenes":[
		{
			"name":"Scene",
			"nodes":[
				0,
				1,
				2,
				3
			]
		}
	],
	"nodes":[
		{
			"mesh":0,
			"name":"Text.002",
			"rotation":[
				0.7071066498756409,
				0.0005109042976982892,
				-0.0005109042976982892,
				0.7071066498756409
			],
			"scale":[
				0.25816208124160767,
				0.9138298034667969,
				0.25816208124160767
			],
			"translation":[
				-5.869455337524414,
				2.4863545894622803,
				0.3081013858318329
			]
		},
		{
			"mesh":1,
			"name":"Plane.002",
			"rotation":[
				-0.5003611445426941,
				0.5003611445426941,
				-0.4996385872364044,
				0.4996386766433716
			],
			"scale":[
				0.12148328870534897,
				1,
				0.6671497225761414
			],
			"translation":[
				-5.242372989654541,
				2.5718142986297607,
				0.2989334762096405
			]
		},
		{
			"mesh":2,
			"name":"Plane.028",
			"rotation":[
				-0.409434050321579,
				0.5890493392944336,
				-0.6756237745285034,
				0.1700504571199417
			],
			"scale":[
				-0.00868199672549963,
				-0.9994477033615112,
				-0.6311651468276978
			],
			"translation":[
				-4.665094375610352,
				2.0925636291503906,
				0.2716425955295563
			]
		},
		{
			"mesh":3,
			"name":"Verde_Interno",
			"rotation":[
				0.48359841108322144,
				0.4623655378818512,
				0.3363500237464905,
				0.6627362370491028
			],
			"scale":[
				0.2729351222515106,
				0.13464149832725525,
				0.2729351222515106
			],
			"translation":[
				-2.6517584323883057,
				2.652507781982422,
				-0.9231283664703369
			]
		}
	],
	"materials":[
		{
			"doubleSided":true,
			"name":"Material.004",
			"pbrMetallicRoughness":{
				"baseColorFactor":[
					0,
					0,
					0,
					1
				],
				"metallicFactor":0,
				"roughnessFactor":0.5
			}
		},
		{
			"doubleSided":true,
			"name":"Material.001",
			"pbrMetallicRoughness":{
				"baseColorFactor":[
					0.800000011920929,
					0.800000011920929,
					0.800000011920929,
					1
				],
				"metallicFactor":0,
				"roughnessFactor":0.5
			}
		},
		{
			"doubleSided":true,
			"name":"Material.058",
			"pbrMetallicRoughness":{
				"baseColorFactor":[
					0,
					0,
					0,
					1
				],
				"metallicFactor":0,
				"roughnessFactor":0.5
			}
		},
		{
			"doubleSided":true,
			"name":"Verde",
			"pbrMetallicRoughness":{
				"baseColorFactor":[
					0.006253701634705067,
					0.8000074625015259,
					0.0027622398920357227,
					1
				],
				"metallicFactor":0,
				"roughnessFactor":0
			}
		}
	],
	"meshes":[
		{
			"name":"Text.002",
			"primitives":[
				{
					"attributes":{
						"POSITION":0,
						"NORMAL":1,
						"TEXCOORD_0":2
					},
					"indices":3,
					"material":0
				}
			]
		},
		{
			"name":"Plane.002",
			"primitives":[
				{
					"attributes":{
						"POSITION":4,
						"NORMAL":5,
						"TEXCOORD_0":6
					},
					"indices":7,
					"material":1
				}
			]
		},
		{
			"name":"Plane.028",
			"primitives":[
				{
					"attributes":{
						"POSITION":8,
						"NORMAL":9,
						"TEXCOORD_0":10
					},
					"indices":7,
					"material":2
				}
			]
		},
		{
			"name":"Cylinder.070",
			"primitives":[
				{
					"attributes":{
						"POSITION":11,
						"NORMAL":12
					},
					"indices":13,
					"material":3
				}
			]
		}
	],
	"accessors":[
		{
			"bufferView":0,
			"componentType":5126,
			"count":3449,
			"max":[
				4.789999961853027,
				0.020000001415610313,
				0.23000000417232513
			],
			"min":[
				0.04800000041723251,
				-0.020000001415610313,
				-0.6910000443458557
			],
			"type":"VEC3"
		},
		{
			"bufferView":1,
			"componentType":5126,
			"count":3449,
			"type":"VEC3"
		},
		{
			"bufferView":2,
			"componentType":5126,
			"count":3449,
			"type":"VEC2"
		},
		{
			"bufferView":3,
			"componentType":5123,
			"count":10164,
			"type":"SCALAR"
		},
		{
			"bufferView":4,
			"componentType":5126,
			"count":4,
			"max":[
				1,
				0,
				1
			],
			"min":[
				-1,
				0,
				-1
			],
			"type":"VEC3"
		},
		{
			"bufferView":5,
			"componentType":5126,
			"count":4,
			"type":"VEC3"
		},
		{
			"bufferView":6,
			"componentType":5126,
			"count":4,
			"type":"VEC2"
		},
		{
			"bufferView":7,
			"componentType":5123,
			"count":6,
			"type":"SCALAR"
		},
		{
			"bufferView":8,
			"componentType":5126,
			"count":4,
			"max":[
				1,
				0,
				1
			],
			"min":[
				-1,
				0,
				-1
			],
			"type":"VEC3"
		},
		{
			"bufferView":9,
			"componentType":5126,
			"count":4,
			"type":"VEC3"
		},
		{
			"bufferView":10,
			"componentType":5126,
			"count":4,
			"type":"VEC2"
		},
		{
			"bufferView":11,
			"componentType":5126,
			"count":218,
			"max":[
				0.8313162326812744,
				6.483244895935059,
				1
			],
			"min":[
				-6.786894798278809,
				-1,
				-4.446455955505371
			],
			"type":"VEC3"
		},
		{
			"bufferView":12,
			"componentType":5126,
			"count":218,
			"type":"VEC3"
		},
		{
			"bufferView":13,
			"componentType":5123,
			"count":1308,
			"type":"SCALAR"
		}
	],
	"bufferViews":[
		{
			"buffer":0,
			"byteLength":41388,
			"byteOffset":0,
			"target":34962
		},
		{
			"buffer":0,
			"byteLength":41388,
			"byteOffset":41388,
			"target":34962
		},
		{
			"buffer":0,
			"byteLength":27592,
			"byteOffset":82776,
			"target":34962
		},
		{
			"buffer":0,
			"byteLength":20328,
			"byteOffset":110368,
			"target":34963
		},
		{
			"buffer":0,
			"byteLength":48,
			"byteOffset":130696,
			"target":34962
		},
		{
			"buffer":0,
			"byteLength":48,
			"byteOffset":130744,
			"target":34962
		},
		{
			"buffer":0,
			"byteLength":32,
			"byteOffset":130792,
			"target":34962
		},
		{
			"buffer":0,
			"byteLength":12,
			"byteOffset":130824,
			"target":34963
		},
		{
			"buffer":0,
			"byteLength":48,
			"byteOffset":130836,
			"target":34962
		},
		{
			"buffer":0,
			"byteLength":48,
			"byteOffset":130884,
			"target":34962
		},
		{
			"buffer":0,
			"byteLength":32,
			"byteOffset":130932,
			"target":34962
		},
		{
			"buffer":0,
			"byteLength":2616,
			"byteOffset":130964,
			"target":34962
		},
		{
			"buffer":0,
			"byteLength":2616,
			"byteOffset":133580,
			"target":34962
		},
		{
			"buffer":0,
			"byteLength":2616,
			"byteOffset":136196,
			"target":34963
		}
	],
	"buffers":[
		{
			"byteLength":138812,
			"uri":"chloroplast.bin"
		}
	]
}
