{
	"asset":{
		"generator":"Khronos glTF Blender I/O v3.6.27",
		"version":"2.0"
	},
	"scene":0,
	"scenes":[
		{
			"name":"Scene",
			"nodes":[
				0,
				1,
				2,
				3,
				4
			]
		}
	],
	"nodes":[
		{
			"mesh":0,
			"name":"Text.011",
			"rotation":[
				0.7071066498756409,
				0.0005109042976982892,
				-0.0005109042976982892,
				0.7071066498756409
			],
			"scale":[
				0.25816208124160767,
				0.9138298034667969,
				0.25816208124160767
			],
			"translation":[
				-1.7021541595458984,
				3.4123215675354004,
				-0.8261051774024963
			]
		},
		{
			"mesh":1,
			"name":"Plane.009",
			"rotation":[
				-0.5003611445426941,
				0.5003611445426941,
				-0.4996385872364044,
				0.4996386766433716
			],
			"scale":[
				0.12148328870534897,
				1,
				0.6671497225761414
			],
			"translation":[
				-1.1753780841827393,
				3.497781276702881,
				-0.8351281881332397
			]
		},
		{
			"mesh":2,
			"name":"Plane.014",
			"rotation":[
				-0.7227977514266968,
				0.0682898461818695,
				-0.25013506412506104,
				0.6405718922615051
			],
			"scale":[
				-0.008681997656822205,
				-0.9994477033615112,
				-0.6311651468276978
			],
			"translation":[
				-2.093799591064453,
				2.9488842487335205,
				-0.8240839838981628
			]
		},
		{
			"mesh":3,
			"name":"Plane.001",
			"rotation":[
				-0.5003611445426941,
				0.5003611445426941,
				-0.4996385872364044,
				0.4996386766433716
			],
			"scale":[
				0.12148328870534897,
				1,
				0.6671497225761414
			],
			"translation":[
				-1.1753780841827393,
				3.497781276702881,
				-0.8351281881332397
			]
		},
		{
			"mesh":4,
			"name":"main",
			"rotation":[
				0,
				0.7076175808906555,
				0,
				0.7065957188606262
			],
			"scale":[
				0.9964144229888916,
				0.9801380038261414,
				0.8885770440101624
			],
			"translation":[
				-3.2518115043640137,
				1.5886207818984985,
				-0.9337723255157471
			]
		}
	],
	"materials":[
		{
			"doubleSided":true,
			"name":"Material.041",
			"pbrMetallicRoughness":{
				"baseColorFactor":[
					0,
					0,
					0,
					1
				],
				"metallicFactor":0,
				"roughnessFactor":0.5
			}
		},
		{
			"doubleSided":true,
			"name":"Material.013",
			"pbrMetallicRoughness":{
				"baseColorFactor":[
					0.800000011920929,
					0.800000011920929,
					0.800000011920929,
					1
				],
				"metallicFactor":0,
				"roughnessFactor":0.5
			}
		},
		{
			"doubleSided":true,
			"name":"Material.050",
			"pbrMetallicRoughness":{
				"baseColorFactor":[
					0,
					0,
					0,
					1
				],
				"metallicFactor":0,
				"roughnessFactor":0.5
			}
		},
		{
			"doubleSided":true,
			"name":"Material.048",
			"pbrMetallicRoughness":{
				"baseColorFactor":[
					0.800000011920929,
					0.800000011920929,
					0.800000011920929,
					1
				],
				"metallicFactor":0,
				"roughnessFactor":0.5
			}
		},
		{
			"doubleSided":true,
			"name":"main",
			"pbrMetallicRoughness":{
				"baseColorFactor":[
					0.8000074625015259,
					0.7266815900802612,
					0.0020401799120008945,
					1
				],
				"metallicFactor":0,
				"roughnessFactor":0
			}
		}
	],
	"meshes":[
		{
			"name":"Text.025",
			"primitives":[
				{
					"attributes":{
						"POSITION":0,
						"NORMAL":1,
						"TEXCOORD_0":2
					},
					"indices":3,
					"material":0
				}
			]
		},
		{
			"name":"Plane.023",
			"primitives":[
				{
					"attributes":{
						"POSITION":4,
						"NORMAL":5,
						"TEXCOORD_0":6
					},
					"indices":7,
					"material":1
				}
			]
		},
		{
			"name":"Plane.007",
			"primitives":[
				{
					"attributes":{
						"POSITION":8,
						"NORMAL":9,
						"TEXCOORD_0":10
					},
					"indices":7,
					"material":2
				}
			]
		},
		{
			"name":"Plane.039",
			"primitives":[
				{
					"attributes":{
						"POSITION":11,
						"NORMAL":12,
						"TEXCOORD_0":13
					},
					"indices":7,
					"material":3
				}
			]
		},
		{
			"name":"Cube",
			"primitives":[
				{
					"attributes":{
						"POSITION":14,
						"NORMAL":15
					},
					"indices":16,
					"material":4
				}
			]
		}
	],
	"accessors":[
		{
			"bufferView":0,
			"componentType":5126,
			"count":3056,
			"max":[
				4.27400016784668,
				0.020000001415610313,
				0.23000000417232513
			],
			"min":[
				0.04800000041723251,
				-0.020000001415610313,
				-0.6910000443458557
			],
			"type":"VEC3"
		},
		{
			"bufferView":1,
			"componentType":5126,
			"count":3056,
			"type":"VEC3"
		},
		{
			"bufferView":2,
			"componentType":5126,
			"count":3056,
			"type":"VEC2"
		},
		{
			"bufferView":3,
			"componentType":5123,
			"count":9012,
			"type":"SCALAR"
		},
		{
			"bufferView":4,
			"componentType":5126,
			"count":4,
			"max":[
				1,
				0,
				1
			],
			"min":[
				-1,
				0,
				-1
			],
			"type":"VEC3"
		},
		{
			"bufferView":5,
			"componentType":5126,
			"count":4,
			"type":"VEC3"
		},
		{
			"bufferView":6,
			"componentType":5126,
			"count":4,
			"type":"VEC2"
		},
		{
			"bufferView":7,
			"componentType":5123,
			"count":6,
			"type":"SCALAR"
		},
		{
			"bufferView":8,
			"componentType":5126,
			"count":4,
			"max":[
				1,
				0,
				1
			],
			"min":[
				-1,
				0,
				-1
			],
			"type":"VEC3"
		},
		{
			"bufferView":9,
			"componentType":5126,
			"count":4,
			"type":"VEC3"
		},
		{
			"bufferView":10,
			"componentType":5126,
			"count":4,
			"type":"VEC2"
		},
		{
			"bufferView":11,
			"componentType":5126,
			"count":4,
			"max":[
				1,
				0,
				1
			],
			"min":[
				-1,
				0,
				-1
			],
			"type":"VEC3"
		},
		{
			"bufferView":12,
			"componentType":5126,
			"count":4,
			"type":"VEC3"
		},
		{
			"bufferView":13,
			"componentType":5126,
			"count":4,
			"type":"VEC2"
		},
		{
			"bufferView":14,
			"componentType":5126,
			"count":144,
			"max":[
				1.3720015287399292,
				1.3720015287399292,
				1.3720015287399292
			],
			"min":[
				-1.3720015287399292,
				-1.3720015287399292,
				-1.3720015287399292
			],
			"type":"VEC3"
		},
		{
			"bufferView":15,
			"componentType":5126,
			"count":144,
			"type":"VEC3"
		},
		{
			"bufferView":16,
			"componentType":5123,
			"count":852,
			"type":"SCALAR"
		}
	],
	"bufferViews":[
		{
			"buffer":0,
			"byteLength":36672,
			"byteOffset":0,
			"target":34962
		},
		{
			"buffer":0,
			"byteLength":36672,
			"byteOffset":36672,
			"target":34962
		},
		{
			"buffer":0,
			"byteLength":24448,
			"byteOffset":73344,
			"target":34962
		},
		{
			"buffer":0,
			"byteLength":18024,
			"byteOffset":97792,
			"target":34963
		},
		{
			"buffer":0,
			"byteLength":48,
			"byteOffset":115816,
			"target":34962
		},
		{
			"buffer":0,
			"byteLength":48,
			"byteOffset":115864,
			"target":34962
		},
		{
			"buffer":0,
			"byteLength":32,
			"byteOffset":115912,
			"target":34962
		},
		{
			"buffer":0,
			"byteLength":12,
			"byteOffset":115944,
			"target":34963
		},
		{
			"buffer":0,
			"byteLength":48,
			"byteOffset":115956,
			"target":34962
		},
		{
			"buffer":0,
			"byteLength":48,
			"byteOffset":116004,
			"target":34962
		},
		{
			"buffer":0,
			"byteLength":32,
			"byteOffset":116052,
			"target":34962
		},
		{
			"buffer":0,
			"byteLength":48,
			"byteOffset":116084,
			"target":34962
		},
		{
			"buffer":0,
			"byteLength":48,
			"byteOffset":116132,
			"target":34962
		},
		{
			"buffer":0,
			"byteLength":32,
			"byteOffset":116180,
			"target":34962
		},
		{
			"buffer":0,
			"byteLength":1728,
			"byteOffset":116212,
			"target":34962
		},
		{
			"buffer":0,
			"byteLength":1728,
			"byteOffset":117940,
			"target":34962
		},
		{
			"buffer":0,
			"byteLength":1704,
			"byteOffset":119668,
			"target":34963
		}
	],
	"buffers":[
		{
			"byteLength":121372,
			"uri":"cytoplasm.bin"
		}
	]
}
