{
	"asset":{
		"generator":"Khronos glTF Blender I/O v3.6.27",
		"version":"2.0"
	},
	"scene":0,
	"scenes":[
		{
			"name":"Scene",
			"nodes":[
				0,
				1,
				2,
				3,
				4
			]
		}
	],
	"nodes":[
		{
			"mesh":0,
			"name":"Text.006",
			"rotation":[
				0.7071066498756409,
				0.0005109042976982892,
				-0.000510904414113611,
				0.7071066498756409
			],
			"scale":[
				0.19310854375362396,
				0.9138297438621521,
				0.25816208124160767
			],
			"translation":[
				1.1718897819519043,
				3.2014665603637695,
				1.153936743736267
			]
		},
		{
			"mesh":1,
			"name":"Plane.006",
			"rotation":[
				-0.5003611445426941,
				0.5003611445426941,
				-0.4996385872364044,
				0.4996386766433716
			],
			"scale":[
				0.12148328870534897,
				1,
				0.6671497225761414
			],
			"translation":[
				1.7989726066589355,
				3.28692626953125,
				1.144769549369812
			]
		},
		{
			"mesh":2,
			"name":"Plane.029",
			"rotation":[
				-0.2469252347946167,
				0.6784378886222839,
				-0.667890727519989,
				0.1807537078857422
			],
			"scale":[
				-0.010999100282788277,
				-0.9996285438537598,
				-0.9393618106842041
			],
			"translation":[
				2.4705209732055664,
				2.445225715637207,
				1.1079812049865723
			]
		},
		{
			"mesh":3,
			"name":"Red_Top",
			"rotation":[
				0.6106181144714355,
				0.17520952224731445,
				-0.34780365228652954,
				0.6895504593849182
			],
			"scale":[
				0.012648280709981918,
				0.03277013450860977,
				0.038302943110466
			],
			"translation":[
				2.8697469234466553,
				1.6572675704956055,
				0.6613553762435913
			]
		},
		{
			"mesh":4,
			"name":"Base_Red",
			"rotation":[
				0.6961362957954407,
				-0.03183654695749283,
				-0.15995265543460846,
				0.699139416217804
			],
			"scale":[
				0.014982164837419987,
				0.024733256548643112,
				0.028909137472510338
			],
			"translation":[
				2.878070116043091,
				1.650266170501709,
				0.911805272102356
			]
		}
	],
	"materials":[
		{
			"doubleSided":true,
			"name":"Material.008",
			"pbrMetallicRoughness":{
				"baseColorFactor":[
					0,
					0,
					0,
					1
				],
				"metallicFactor":0,
				"roughnessFactor":0.5
			}
		},
		{
			"doubleSided":true,
			"name":"Material.011",
			"pbrMetallicRoughness":{
				"baseColorFactor":[
					0.800000011920929,
					0.800000011920929,
					0.800000011920929,
					1
				],
				"metallicFactor":0,
				"roughnessFactor":0.5
			}
		},
		{
			"doubleSided":true,
			"name":"Material.059",
			"pbrMetallicRoughness":{
				"baseColorFactor":[
					0,
					0,
					0,
					1
				],
				"metallicFactor":0,
				"roughnessFactor":0.5
			}
		},
		{
			"doubleSided":true,
			"name":"Red_Top",
			"pbrMetallicRoughness":{
				"baseColorFactor":[
					0.8001194596290588,
					0,
					0.005252351053059101,
					1
				],
				"metallicFactor":0,
				"roughnessFactor":0
			}
		},
		{
			"doubleSided":true,
			"name":"Red_Base",
			"pbrMetallicRoughness":{
				"baseColorFactor":[
					0.8000074625015259,
					0.5974552035331726,
					0.5324981808662415,
					1
				],
				"metallicFactor":0,
				"roughnessFactor":0
			}
		}
	],
	"meshes":[
		{
			"name":"Text.006",
			"primitives":[
				{
					"attributes":{
						"POSITION":0,
						"NORMAL":1,
						"TEXCOORD_0":2
					},
					"indices":3,
					"material":0
				}
			]
		},
		{
			"name":"Plane.006",
			"primitives":[
				{
					"attributes":{
						"POSITION":4,
						"NORMAL":5,
						"TEXCOORD_0":6
					},
					"indices":7,
					"material":1
				}
			]
		},
		{
			"name":"Plane.029",
			"primitives":[
				{
					"attributes":{
						"POSITION":8,
						"NORMAL":9,
						"TEXCOORD_0":10
					},
					"indices":7,
					"material":2
				}
			]
		},
		{
			"name":"Cylinder.061",
			"primitives":[
				{
					"attributes":{
						"POSITION":11,
						"NORMAL":12
					},
					"indices":13,
					"material":3
				}
			]
		},
		{
			"name":"Cylinder.055",
			"primitives":[
				{
					"attributes":{
						"POSITION":14,
						"NORMAL":15
					},
					"indices":16,
					"material":4
				}
			]
		}
	],
	"accessors":[
		{
			"bufferView":0,
			"componentType":5126,
			"count":5361,
			"max":[
				6.530000686645508,
				0.020000001415610313,
				0.23000000417232513
			],
			"min":[
				0.05000000074505806,
				-0.020000001415610313,
				-0.6910000443458557
			],
			"type":"VEC3"
		},
		{
			"bufferView":1,
			"componentType":5126,
			"count":5361,
			"type":"VEC3"
		},
		{
			"bufferView":2,
			"componentType":5126,
			"count":5361,
			"type":"VEC2"
		},
		{
			"bufferView":3,
			"componentType":5123,
			"count":15852,
			"type":"SCALAR"
		},
		{
			"bufferView":4,
			"componentType":5126,
			"count":4,
			"max":[
				1,
				0,
				1
			],
			"min":[
				-1,
				0,
				-1
			],
			"type":"VEC3"
		},
		{
			"bufferView":5,
			"componentType":5126,
			"count":4,
			"type":"VEC3"
		},
		{
			"bufferView":6,
			"componentType":5126,
			"count":4,
			"type":"VEC2"
		},
		{
			"bufferView":7,
			"componentType":5123,
			"count":6,
			"type":"SCALAR"
		},
		{
			"bufferView":8,
			"componentType":5126,
			"count":4,
			"max":[
				1,
				0,
				1
			],
			"min":[
				-1,
				0,
				-1
			],
			"type":"VEC3"
		},
		{
			"bufferView":9,
			"componentType":5126,
			"count":4,
			"type":"VEC3"
		},
		{
			"bufferView":10,
			"componentType":5126,
			"count":4,
			"type":"VEC2"
		},
		{
			"bufferView":11,
			"componentType":5126,
			"count":1476,
			"max":[
				16.413558959960938,
				19.46384048461914,
				1.6597117185592651
			],
			"min":[
				-13.132245063781738,
				-6.704178810119629,
				-2.5572924613952637
			],
			"type":"VEC3"
		},
		{
			"bufferView":12,
			"componentType":5126,
			"count":1476,
			"type":"VEC3"
		},
		{
			"bufferView":13,
			"componentType":5123,
			"count":8100,
			"type":"SCALAR"
		},
		{
			"bufferView":14,
			"componentType":5126,
			"count":480,
			"max":[
				23.32050895690918,
				11.491207122802734,
				5.195870399475098
			],
			"min":[
				-3.1816372871398926,
				-18.583995819091797,
				-3.4830586910247803
			],
			"type":"VEC3"
		},
		{
			"bufferView":15,
			"componentType":5126,
			"count":480,
			"type":"VEC3"
		},
		{
			"bufferView":16,
			"componentType":5123,
			"count":1440,
			"type":"SCALAR"
		}
	],
	"bufferViews":[
		{
			"buffer":0,
			"byteLength":64332,
			"byteOffset":0,
			"target":34962
		},
		{
			"buffer":0,
			"byteLength":64332,
			"byteOffset":64332,
			"target":34962
		},
		{
			"buffer":0,
			"byteLength":42888,
			"byteOffset":128664,
			"target":34962
		},
		{
			"buffer":0,
			"byteLength":31704,
			"byteOffset":171552,
			"target":34963
		},
		{
			"buffer":0,
			"byteLength":48,
			"byteOffset":203256,
			"target":34962
		},
		{
			"buffer":0,
			"byteLength":48,
			"byteOffset":203304,
			"target":34962
		},
		{
			"buffer":0,
			"byteLength":32,
			"byteOffset":203352,
			"target":34962
		},
		{
			"buffer":0,
			"byteLength":12,
			"byteOffset":203384,
			"target":34963
		},
		{
			"buffer":0,
			"byteLength":48,
			"byteOffset":203396,
			"target":34962
		},
		{
			"buffer":0,
			"byteLength":48,
			"byteOffset":203444,
			"target":34962
		},
		{
			"buffer":0,
			"byteLength":32,
			"byteOffset":203492,
			"target":34962
		},
		{
			"buffer":0,
			"byteLength":17712,
			"byteOffset":203524,
			"target":34962
		},
		{
			"buffer":0,
			"byteLength":17712,
			"byteOffset":221236,
			"target":34962
		},
		{
			"buffer":0,
			"byteLength":16200,
			"byteOffset":238948,
			"target":34963
		},
		{
			"buffer":0,
			"byteLength":5760,
			"byteOffset":255148,
			"target":34962
		},
		{
			"buffer":0,
			"byteLength":5760,
			"byteOffset":260908,
			"target":34962
		},
		{
			"buffer":0,
			"byteLength":2880,
			"byteOffset":266668,
			"target":34963
		}
	],
	"buffers":[
		{
			"byteLength":269548,
			"uri":"golgi.bin"
		}
	]
}
