{
	"asset":{
		"generator":"Khronos glTF Blender I/O v3.6.27",
		"version":"2.0"
	},
	"scene":0,
	"scenes":[
		{
			"name":"Scene",
			"nodes":[
				0,
				1,
				2,
				3
			]
		}
	],
	"nodes":[
		{
			"mesh":0,
			"name":"Text.020",
			"rotation":[
				0.7071066498756409,
				0.0005109042976982892,
				-0.0005109042976982892,
				0.7071066498756409
			],
			"scale":[
				0.25816208124160767,
				0.9138298034667969,
				0.25816208124160767
			],
			"translation":[
				5.203547477722168,
				3.3397200107574463,
				0.16883224248886108
			]
		},
		{
			"mesh":1,
			"name":"Plane.020",
			"rotation":[
				-0.5003611445426941,
				0.5003611445426941,
				-0.4996385872364044,
				0.4996386766433716
			],
			"scale":[
				0.12148328870534897,
				1,
				0.6671497225761414
			],
			"translation":[
				5.7513909339904785,
				3.4251797199249268,
				0.15977871417999268
			]
		},
		{
			"mesh":2,
			"name":"Plane.021",
			"rotation":[
				-0.6971277594566345,
				0.10670548677444458,
				-0.3000577986240387,
				0.6423333883285522
			],
			"scale":[
				-0.008681997656822205,
				-0.9994477033615112,
				-0.6311651468276978
			],
			"translation":[
				4.778570175170898,
				2.8735127449035645,
				0.14716869592666626
			]
		},
		{
			"mesh":3,
			"name":"Piedra_Naranja",
			"rotation":[
				0.3582611382007599,
				0.6101585626602173,
				0.5945426225662231,
				0.3819354176521301
			],
			"scale":[
				0.11588161438703537,
				0.14489787817001343,
				0.13954254984855652
			],
			"translation":[
				4.3404741287231445,
				2.1825320720672607,
				-0.021462440490722656
			]
		}
	],
	"materials":[
		{
			"doubleSided":true,
			"name":"Material.047",
			"pbrMetallicRoughness":{
				"baseColorFactor":[
					0,
					0,
					0,
					1
				],
				"metallicFactor":0,
				"roughnessFactor":0.5
			}
		},
		{
			"doubleSided":true,
			"name":"Material.031",
			"pbrMetallicRoughness":{
				"baseColorFactor":[
					0.800000011920929,
					0.800000011920929,
					0.800000011920929,
					1
				],
				"metallicFactor":0,
				"roughnessFactor":0.5
			}
		},
		{
			"doubleSided":true,
			"name":"Material.051",
			"pbrMetallicRoughness":{
				"baseColorFactor":[
					0,
					0,
					0,
					1
				],
				"metallicFactor":0,
				"roughnessFactor":0.5
			}
		},
		{
			"doubleSided":true,
			"name":"Naranja",
			"pbrMetallicRoughness":{
				"baseColorFactor":[
					0.8001416921615601,
					0.17389583587646484,
					0.027613619342446327,
					1
				],
				"metallicFactor":0,
				"roughnessFactor":0
			}
		}
	],
	"meshes":[
		{
			"name":"Text.007",
			"primitives":[
				{
					"attributes":{
						"POSITION":0,
						"NORMAL":1,
						"TEXCOORD_0":2
					},
					"indices":3,
					"material":0
				}
			]
		},
		{
			"name":"Plane.008",
			"primitives":[
				{
					"attributes":{
						"POSITION":4,
						"NORMAL":5,
						"TEXCOORD_0":6
					},
					"indices":7,
					"material":1
				}
			]
		},
		{
			"name":"Plane.009",
			"primitives":[
				{
					"attributes":{
						"POSITION":8,
						"NORMAL":9,
						"TEXCOORD_0":10
					},
					"indices":7,
					"material":2
				}
			]
		},
		{
			"name":"Mesh",
			"primitives":[
				{
					"attributes":{
						"POSITION":11,
						"NORMAL":12
					},
					"indices":13,
					"material":3
				}
			]
		}
	],
	"accessors":[
		{
			"bufferView":0,
			"componentType":5126,
			"count":3280,
			"max":[
				4.397000312805176,
				0.020000001415610313,
				0.23000000417232513
			],
			"min":[
				0.07400000095367432,
				-0.020000001415610313,
				-0.6820000410079956
			],
			"type":"VEC3"
		},
		{
			"bufferView":1,
			"componentType":5126,
			"count":3280,
			"type":"VEC3"
		},
		{
			"bufferView":2,
			"componentType":5126,
			"count":3280,
			"type":"VEC2"
		},
		{
			"bufferView":3,
			"componentType":5123,
			"count":9696,
			"type":"SCALAR"
		},
		{
			"bufferView":4,
			"componentType":5126,
			"count":4,
			"max":[
				1,
				0,
				1
			],
			"min":[
				-1,
				0,
				-1
			],
			"type":"VEC3"
		},
		{
			"bufferView":5,
			"componentType":5126,
			"count":4,
			"type":"VEC3"
		},
		{
			"bufferView":6,
			"componentType":5126,
			"count":4,
			"type":"VEC2"
		},
		{
			"bufferView":7,
			"componentType":5123,
			"count":6,
			"type":"SCALAR"
		},
		{
			"bufferView":8,
			"componentType":5126,
			"count":4,
			"max":[
				1,
				0,
				1
			],
			"min":[
				-1,
				0,
				-1
			],
			"type":"VEC3"
		},
		{
			"bufferView":9,
			"componentType":5126,
			"count":4,
			"type":"VEC3"
		},
		{
			"bufferView":10,
			"componentType":5126,
			"count":4,
			"type":"VEC2"
		},
		{
			"bufferView":11,
			"componentType":5126,
			"count":162,
			"max":[
				1.4102394580841064,
				1.1630911827087402,
				0.9166669845581055
			],
			"min":[
				-2.328463077545166,
				-0.8532769680023193,
				-0.9166669845581055
			],
			"type":"VEC3"
		},
		{
			"bufferView":12,
			"componentType":5126,
			"count":162,
			"type":"VEC3"
		},
		{
			"bufferView":13,
			"componentType":5123,
			"count":960,
			"type":"SCALAR"
		}
	],
	"bufferViews":[
		{
			"buffer":0,
			"byteLength":39360,
			"byteOffset":0,
			"target":34962
		},
		{
			"buffer":0,
			"byteLength":39360,
			"byteOffset":39360,
			"target":34962
		},
		{
			"buffer":0,
			"byteLength":26240,
			"byteOffset":78720,
			"target":34962
		},
		{
			"buffer":0,
			"byteLength":19392,
			"byteOffset":104960,
			"target":34963
		},
		{
			"buffer":0,
			"byteLength":48,
			"byteOffset":124352,
			"target":34962
		},
		{
			"buffer":0,
			"byteLength":48,
			"byteOffset":124400,
			"target":34962
		},
		{
			"buffer":0,
			"byteLength":32,
			"byteOffset":124448,
			"target":34962
		},
		{
			"buffer":0,
			"byteLength":12,
			"byteOffset":124480,
			"target":34963
		},
		{
			"buffer":0,
			"byteLength":48,
			"byteOffset":124492,
			"target":34962
		},
		{
			"buffer":0,
			"byteLength":48,
			"byteOffset":124540,
			"target":34962
		},
		{
			"buffer":0,
			"byteLength":32,
			"byteOffset":124588,
			"target":34962
		},
		{
			"buffer":0,
			"byteLength":1944,
			"byteOffset":124620,
			"target":34962
		},
		{
			"buffer":0,
			"byteLength":1944,
			"byteOffset":126564,
			"target":34962
		},
		{
			"buffer":0,
			"byteLength":1920,
			"byteOffset":128508,
			"target":34963
		}
	],
	"buffers":[
		{
			"byteLength":130428,
			"uri":"lysosomes.bin"
		}
	]
}
