{
	"asset":{
		"generator":"Khronos glTF Blender I/O v3.6.27",
		"version":"2.0"
	},
	"scene":0,
	"scenes":[
		{
			"name":"Scene",
			"nodes":[
				0,
				1,
				2,
				3
			]
		}
	],
	"nodes":[
		{
			"mesh":0,
			"name":"Text.003",
			"rotation":[
				0.7071066498756409,
				0.0005109042976982892,
				-0.0005109042976982892,
				0.7071066498756409
			],
			"scale":[
				0.22713883221149445,
				0.9138297438621521,
				0.25816208124160767
			],
			"translation":[
				0.5990855693817139,
				1.9732156991958618,
				1.6490552425384521
			]
		},
		{
			"mesh":1,
			"name":"Plane.003",
			"rotation":[
				-0.5003611445426941,
				0.5003611445426941,
				-0.4996385872364044,
				0.4996386766433716
			],
			"scale":[
				0.12148328870534897,
				1,
				0.6671497225761414
			],
			"translation":[
				1.226167917251587,
				2.058675527572632,
				1.6398875713348389
			]
		},
		{
			"mesh":2,
			"name":"Plane.031",
			"rotation":[
				-0.5754982829093933,
				0.49085119366645813,
				-0.5959256887435913,
				0.2697025239467621
			],
			"scale":[
				-0.00868199672549963,
				-0.9994477033615112,
				-0.631165087223053
			],
			"translation":[
				2.4411585330963135,
				1.7841181755065918,
				1.4555295705795288
			]
		},
		{
			"mesh":3,
			"name":"Amarillo_Interno",
			"rotation":[
				-0.05927208811044693,
				-0.8189989924430847,
				0.04352826997637749,
				0.5690630674362183
			],
			"scale":[
				0.14162257313728333,
				0.06986378133296967,
				0.14162258803844452
			],
			"translation":[
				2.949331045150757,
				1.5709822177886963,
				1.248604416847229
			]
		}
	],
	"materials":[
		{
			"doubleSided":true,
			"name":"Material.005",
			"pbrMetallicRoughness":{
				"baseColorFactor":[
					0,
					0,
					0,
					1
				],
				"metallicFactor":0,
				"roughnessFactor":0.5
			}
		},
		{
			"doubleSided":true,
			"name":"Material.001",
			"pbrMetallicRoughness":{
				"baseColorFactor":[
					0.800000011920929,
					0.800000011920929,
					0.800000011920929,
					1
				],
				"metallicFactor":0,
				"roughnessFactor":0.5
			}
		},
		{
			"doubleSided":true,
			"name":"Material.061",
			"pbrMetallicRoughness":{
				"baseColorFactor":[
					0,
					0,
					0,
					1
				],
				"metallicFactor":0,
				"roughnessFactor":0.5
			}
		},
		{
			"doubleSided":true,
			"name":"Amarillo",
			"pbrMetallicRoughness":{
				"baseColorFactor":[
					0.800039529800415,
					0.6236816644668579,
					0.023157058283686638,
					1
				],
				"metallicFactor":0,
				"roughnessFactor":0
			}
		}
	],
	"meshes":[
		{
			"name":"Text.003",
			"primitives":[
				{
					"attributes":{
						"POSITION":0,
						"NORMAL":1,
						"TEXCOORD_0":2
					},
					"indices":3,
					"material":0
				}
			]
		},
		{
			"name":"Plane.003",
			"primitives":[
				{
					"attributes":{
						"POSITION":4,
						"NORMAL":5,
						"TEXCOORD_0":6
					},
					"indices":7,
					"material":1
				}
			]
		},
		{
			"name":"Plane.031",
			"primitives":[
				{
					"attributes":{
						"POSITION":8,
						"NORMAL":9,
						"TEXCOORD_0":10
					},
					"indices":7,
					"material":2
				}
			]
		},
		{
			"name":"Mesh",
			"primitives":[
				{
					"attributes":{
						"POSITION":11,
						"NORMAL":12
					},
					"indices":13,
					"material":3
				}
			]
		}
	],
	"accessors":[
		{
			"bufferView":0,
			"componentType":5126,
			"count":3592,
			"max":[
				5.4110002517700195,
				0.020000001415610313,
				0.009000000543892384
			],
			"min":[
				0.07300000637769699,
				-0.020000001415610313,
				-0.6820000410079956
			],
			"type":"VEC3"
		},
		{
			"bufferView":1,
			"componentType":5126,
			"count":3592,
			"type":"VEC3"
		},
		{
			"bufferView":2,
			"componentType":5126,
			"count":3592,
			"type":"VEC2"
		},
		{
			"bufferView":3,
			"componentType":5123,
			"count":10536,
			"type":"SCALAR"
		},
		{
			"bufferView":4,
			"componentType":5126,
			"count":4,
			"max":[
				1,
				0,
				1
			],
			"min":[
				-1,
				0,
				-1
			],
			"type":"VEC3"
		},
		{
			"bufferView":5,
			"componentType":5126,
			"count":4,
			"type":"VEC3"
		},
		{
			"bufferView":6,
			"componentType":5126,
			"count":4,
			"type":"VEC2"
		},
		{
			"bufferView":7,
			"componentType":5123,
			"count":6,
			"type":"SCALAR"
		},
		{
			"bufferView":8,
			"componentType":5126,
			"count":4,
			"max":[
				1,
				0,
				1
			],
			"min":[
				-1,
				0,
				-1
			],
			"type":"VEC3"
		},
		{
			"bufferView":9,
			"componentType":5126,
			"count":4,
			"type":"VEC3"
		},
		{
			"bufferView":10,
			"componentType":5126,
			"count":4,
			"type":"VEC2"
		},
		{
			"bufferView":11,
			"componentType":5126,
			"count":1120,
			"max":[
				0.8225647807121277,
				21.241456985473633,
				2.1769585609436035
			],
			"min":[
				-8.57792854309082,
				-0.9926344156265259,
				-2.0249216556549072
			],
			"type":"VEC3"
		},
		{
			"bufferView":12,
			"componentType":5126,
			"count":1120,
			"type":"VEC3"
		},
		{
			"bufferView":13,
			"componentType":5123,
			"count":6744,
			"type":"SCALAR"
		}
	],
	"bufferViews":[
		{
			"buffer":0,
			"byteLength":43104,
			"byteOffset":0,
			"target":34962
		},
		{
			"buffer":0,
			"byteLength":43104,
			"byteOffset":43104,
			"target":34962
		},
		{
			"buffer":0,
			"byteLength":28736,
			"byteOffset":86208,
			"target":34962
		},
		{
			"buffer":0,
			"byteLength":21072,
			"byteOffset":114944,
			"target":34963
		},
		{
			"buffer":0,
			"byteLength":48,
			"byteOffset":136016,
			"target":34962
		},
		{
			"buffer":0,
			"byteLength":48,
			"byteOffset":136064,
			"target":34962
		},
		{
			"buffer":0,
			"byteLength":32,
			"byteOffset":136112,
			"target":34962
		},
		{
			"buffer":0,
			"byteLength":12,
			"byteOffset":136144,
			"target":34963
		},
		{
			"buffer":0,
			"byteLength":48,
			"byteOffset":136156,
			"target":34962
		},
		{
			"buffer":0,
			"byteLength":48,
			"byteOffset":136204,
			"target":34962
		},
		{
			"buffer":0,
			"byteLength":32,
			"byteOffset":136252,
			"target":34962
		},
		{
			"buffer":0,
			"byteLength":13440,
			"byteOffset":136284,
			"target":34962
		},
		{
			"buffer":0,
			"byteLength":13440,
			"byteOffset":149724,
			"target":34962
		},
		{
			"buffer":0,
			"byteLength":13488,
			"byteOffset":163164,
			"target":34963
		}
	],
	"buffers":[
		{
			"byteLength":176652,
			"uri":"mitochondria.bin"
		}
	]
}
