{
	"asset":{
		"generator":"Khronos glTF Blender I/O v3.6.27",
		"version":"2.0"
	},
	"scene":0,
	"scenes":[
		{
			"name":"Scene",
			"nodes":[
				0,
				1,
				2,
				3
			]
		}
	],
	"nodes":[
		{
			"mesh":0,
			"name":"Plane",
			"rotation":[
				-0.5003611445426941,
				0.5003611445426941,
				-0.4996385872364044,
				0.4996386766433716
			],
			"scale":[
				0.12148328870534897,
				1,
				0.6671497225761414
			],
			"translation":[
				5.785107612609863,
				2.9535021781921387,
				0.48384231328964233
			]
		},
		{
			"mesh":1,
			"name":"Text",
			"rotation":[
				0.7071066498756409,
				0.0005109042976982892,
				-0.0005109042976982892,
				0.7071066498756409
			],
			"scale":[
				0.25816208124160767,
				0.9138298034667969,
				0.25816208124160767
			],
			"translation":[
				5.354917526245117,
				2.868042469024658,
				0.49272584915161133
			]
		},
		{
			"mesh":2,
			"name":"Icosphere.003",
			"rotation":[
				0.006070777308195829,
				-0.6961029171943665,
				0.005335946101695299,
				0.7178965210914612
			],
			"scale":[
				0.4119681417942047,
				0.3453134298324585,
				0.3828320801258087
			],
			"translation":[
				3.924278974533081,
				1.8081037998199463,
				0.2496095895767212
			]
		},
		{
			"mesh":3,
			"name":"Plane.022",
			"rotation":[
				-0.6375959515571594,
				0.2013532519340515,
				-0.4174529016017914,
				0.6153546571731567
			],
			"scale":[
				-0.015129351988434792,
				-1.0432504415512085,
				-0.9580772519111633
			],
			"translation":[
				4.594209671020508,
				2.2780916690826416,
				0.3056983947753906
			]
		}
	],
	"materials":[
		{
			"doubleSided":true,
			"name":"Material.045",
			"pbrMetallicRoughness":{
				"baseColorFactor":[
					0.800000011920929,
					0.800000011920929,
					0.800000011920929,
					1
				],
				"metallicFactor":0,
				"roughnessFactor":0.5
			}
		},
		{
			"doubleSided":true,
			"name":"Material.002",
			"pbrMetallicRoughness":{
				"baseColorFactor":[
					0,
					0,
					0,
					1
				],
				"metallicFactor":0,
				"roughnessFactor":0.5
			}
		},
		{
			"doubleSided":true,
			"name":"Nucleus Shell.001",
			"pbrMetallicRoughness":{
				"baseColorFactor":[
					0.40371501445770264,
					0.8012509942054749,
					0.38454049825668335,
					1
				],
				"metallicFactor":0,
				"roughnessFactor":0
			}
		},
		{
			"doubleSided":true,
			"name":"Material.052",
			"pbrMetallicRoughness":{
				"baseColorFactor":[
					0,
					0,
					0,
					1
				],
				"metallicFactor":0,
				"roughnessFactor":0.5
			}
		}
	],
	"meshes":[
		{
			"name":"Plane",
			"primitives":[
				{
					"attributes":{
						"POSITION":0,
						"NORMAL":1,
						"TEXCOORD_0":2
					},
					"indices":3,
					"material":0
				}
			]
		},
		{
			"name":"Text",
			"primitives":[
				{
					"attributes":{
						"POSITION":4,
						"NORMAL":5,
						"TEXCOORD_0":6
					},
					"indices":7,
					"material":1
				}
			]
		},
		{
			"name":"Icosphere.002",
			"primitives":[
				{
					"attributes":{
						"POSITION":8,
						"NORMAL":9
					},
					"indices":10,
					"material":2
				}
			]
		},
		{
			"name":"Plane.010",
			"primitives":[
				{
					"attributes":{
						"POSITION":11,
						"NORMAL":12,
						"TEXCOORD_0":13
					},
					"indices":3,
					"material":3
				}
			]
		}
	],
	"accessors":[
		{
			"bufferView":0,
			"componentType":5126,
			"count":4,
			"max":[
				1,
				0,
				1
			],
			"min":[
				-1,
				0,
				-1
			],
			"type":"VEC3"
		},
		{
			"bufferView":1,
			"componentType":5126,
			"count":4,
			"type":"VEC3"
		},
		{
			"bufferView":2,
			"componentType":5126,
			"count":4,
			"type":"VEC2"
		},
		{
			"bufferView":3,
			"componentType":5123,
			"count":6,
			"type":"SCALAR"
		},
		{
			"bufferView":4,
			"componentType":5126,
			"count":1844,
			"max":[
				3.26200008392334,
				0.020000001415610313,
				0.009000000543892384
			],
			"min":[
				0.07400000095367432,
				-0.020000001415610313,
				-0.6820000410079956
			],
			"type":"VEC3"
		},
		{
			"bufferView":5,
			"componentType":5126,
			"count":1844,
			"type":"VEC3"
		},
		{
			"bufferView":6,
			"componentType":5126,
			"count":1844,
			"type":"VEC2"
		},
		{
			"bufferView":7,
			"componentType":5123,
			"count":5412,
			"type":"SCALAR"
		},
		{
			"bufferView":8,
			"componentType":5126,
			"count":2190,
			"max":[
				0.9510578513145447,
				1,
				0.9999999403953552
			],
			"min":[
				-1.0628103017807007,
				-1.0078006982803345,
				-0.9999999403953552
			],
			"type":"VEC3"
		},
		{
			"bufferView":9,
			"componentType":5126,
			"count":2190,
			"type":"VEC3"
		},
		{
			"bufferView":10,
			"componentType":5123,
			"count":3096,
			"type":"SCALAR"
		},
		{
			"bufferView":11,
			"componentType":5126,
			"count":4,
			"max":[
				1,
				0,
				1
			],
			"min":[
				-1,
				0,
				-1
			],
			"type":"VEC3"
		},
		{
			"bufferView":12,
			"componentType":5126,
			"count":4,
			"type":"VEC3"
		},
		{
			"bufferView":13,
			"componentType":5126,
			"count":4,
			"type":"VEC2"
		}
	],
	"bufferViews":[
		{
			"buffer":0,
			"byteLength":48,
			"byteOffset":0,
			"target":34962
		},
		{
			"buffer":0,
			"byteLength":48,
			"byteOffset":48,
			"target":34962
		},
		{
			"buffer":0,
			"byteLength":32,
			"byteOffset":96,
			"target":34962
		},
		{
			"buffer":0,
			"byteLength":12,
			"byteOffset":128,
			"target":34963
		},
		{
			"buffer":0,
			"byteLength":22128,
			"byteOffset":140,
			"target":34962
		},
		{
			"buffer":0,
			"byteLength":22128,
			"byteOffset":22268,
			"target":34962
		},
		{
			"buffer":0,
			"byteLength":14752,
			"byteOffset":44396,
			"target":34962
		},
		{
			"buffer":0,
			"byteLength":10824,
			"byteOffset":59148,
			"target":34963
		},
		{
			"buffer":0,
			"byteLength":26280,
			"byteOffset":69972,
			"target":34962
		},
		{
			"buffer":0,
			"byteLength":26280,
			"byteOffset":96252,
			"target":34962
		},
		{
			"buffer":0,
			"byteLength":6192,
			"byteOffset":122532,
			"target":34963
		},
		{
			"buffer":0,
			"byteLength":48,
			"byteOffset":128724,
			"target":34962
		},
		{
			"buffer":0,
			"byteLength":48,
			"byteOffset":128772,
			"target":34962
		},
		{
			"buffer":0,
			"byteLength":32,
			"byteOffset":128820,
			"target":34962
		}
	],
	"buffers":[
		{
			"byteLength":128852,
			"uri":"nucleus.bin"
		}
	]
}
