{
	"asset":{
		"generator":"Khronos glTF Blender I/O v3.6.27",
		"version":"2.0"
	},
	"scene":0,
	"scenes":[
		{
			"name":"Scene",
			"nodes":[
				0,
				1,
				2,
				3
			]
		}
	],
	"nodes":[
		{
			"mesh":0,
			"name":"Text.001",
			"rotation":[
				0.7071066498756409,
				0.0005109042976982892,
				-0.0005109042976982892,
				0.7071066498756409
			],
			"scale":[
				0.25816208124160767,
				0.9138298034667969,
				0.25816208124160767
			],
			"translation":[
				2.348517894744873,
				3.531919002532959,
				0.6546441316604614
			]
		},
		{
			"mesh":1,
			"name":"Plane.001",
			"rotation":[
				-0.5003611445426941,
				0.5003611445426941,
				-0.4996385872364044,
				0.4996386766433716
			],
			"scale":[
				0.12148328870534897,
				1,
				0.6671497225761414
			],
			"translation":[
				2.7787082195281982,
				3.6173787117004395,
				0.6457606554031372
			]
		},
		{
			"mesh":2,
			"name":"Cylinder",
			"rotation":[
				-0.5767386555671692,
				0,
				0,
				0.8169287443161011
			],
			"scale":[
				0.39290761947631836,
				0.33569782972335815,
				0.21275833249092102
			],
			"translation":[
				2.7636823654174805,
				1.7150812149047852,
				0.3251582384109497
			]
		},
		{
			"mesh":3,
			"name":"Plane.025",
			"rotation":[
				-0.6220933794975281,
				-0.048808589577674866,
				-0.04547209292650223,
				0.780096173286438
			],
			"scale":[
				-0.009088695049285889,
				-1.0828936100006104,
				-0.9464635848999023
			],
			"translation":[
				2.9201931953430176,
				2.6110291481018066,
				0.3232384920120239
			]
		}
	],
	"materials":[
		{
			"doubleSided":true,
			"name":"Material.003",
			"pbrMetallicRoughness":{
				"baseColorFactor":[
					0,
					0,
					0,
					1
				],
				"metallicFactor":0,
				"roughnessFactor":0.5
			}
		},
		{
			"doubleSided":true,
			"name":"Material.001",
			"pbrMetallicRoughness":{
				"baseColorFactor":[
					0.800000011920929,
					0.800000011920929,
					0.800000011920929,
					1
				],
				"metallicFactor":0,
				"roughnessFactor":0.5
			}
		},
		{
			"doubleSided":true,
			"name":"Material.055",
			"pbrMetallicRoughness":{
				"baseColorFactor":[
					0,
					0,
					0,
					1
				],
				"metallicFactor":0,
				"roughnessFactor":0.5
			}
		}
	],
	"meshes":[
		{
			"name":"Text.001",
			"primitives":[
				{
					"attributes":{
						"POSITION":0,
						"NORMAL":1,
						"TEXCOORD_0":2
					},
					"indices":3,
					"material":0
				}
			]
		},
		{
			"name":"Plane.001",
			"primitives":[
				{
					"attributes":{
						"POSITION":4,
						"NORMAL":5,
						"TEXCOORD_0":6
					},
					"indices":7,
					"material":1
				}
			]
		},
		{
			"name":"Cylinder",
			"primitives":[
				{
					"attributes":{
						"POSITION":8,
						"NORMAL":9,
						"TEXCOORD_0":10
					},
					"indices":11
				}
			]
		},
		{
			"name":"Plane.013",
			"primitives":[
				{
					"attributes":{
						"POSITION":12,
						"NORMAL":13,
						"TEXCOORD_0":14
					},
					"indices":7,
					"material":2
				}
			]
		}
	],
	"accessors":[
		{
			"bufferView":0,
			"componentType":5126,
			"count":2156,
			"max":[
				3.186000347137451,
				0.020000001415610313,
				0.009000000543892384
			],
			"min":[
				0,
				-0.020000001415610313,
				-0.6820000410079956
			],
			"type":"VEC3"
		},
		{
			"bufferView":1,
			"componentType":5126,
			"count":2156,
			"type":"VEC3"
		},
		{
			"bufferView":2,
			"componentType":5126,
			"count":2156,
			"type":"VEC2"
		},
		{
			"bufferView":3,
			"componentType":5123,
			"count":6360,
			"type":"SCALAR"
		},
		{
			"bufferView":4,
			"componentType":5126,
			"count":4,
			"max":[
				1,
				0,
				1
			],
			"min":[
				-1,
				0,
				-1
			],
			"type":"VEC3"
		},
		{
			"bufferView":5,
			"componentType":5126,
			"count":4,
			"type":"VEC3"
		},
		{
			"bufferView":6,
			"componentType":5126,
			"count":4,
			"type":"VEC2"
		},
		{
			"bufferView":7,
			"componentType":5123,
			"count":6,
			"type":"SCALAR"
		},
		{
			"bufferView":8,
			"componentType":5126,
			"count":192,
			"max":[
				1,
				1,
				1
			],
			"min":[
				-1,
				-1,
				-1
			],
			"type":"VEC3"
		},
		{
			"bufferView":9,
			"componentType":5126,
			"count":192,
			"type":"VEC3"
		},
		{
			"bufferView":10,
			"componentType":5126,
			"count":192,
			"type":"VEC2"
		},
		{
			"bufferView":11,
			"componentType":5123,
			"count":372,
			"type":"SCALAR"
		},
		{
			"bufferView":12,
			"componentType":5126,
			"count":4,
			"max":[
				1,
				0,
				1
			],
			"min":[
				-1,
				0,
				-1
			],
			"type":"VEC3"
		},
		{
			"bufferView":13,
			"componentType":5126,
			"count":4,
			"type":"VEC3"
		},
		{
			"bufferView":14,
			"componentType":5126,
			"count":4,
			"type":"VEC2"
		}
	],
	"bufferViews":[
		{
			"buffer":0,
			"byteLength":25872,
			"byteOffset":0,
			"target":34962
		},
		{
			"buffer":0,
			"byteLength":25872,
			"byteOffset":25872,
			"target":34962
		},
		{
			"buffer":0,
			"byteLength":17248,
			"byteOffset":51744,
			"target":34962
		},
		{
			"buffer":0,
			"byteLength":12720,
			"byteOffset":68992,
			"target":34963
		},
		{
			"buffer":0,
			"byteLength":48,
			"byteOffset":81712,
			"target":34962
		},
		{
			"buffer":0,
			"byteLength":48,
			"byteOffset":81760,
			"target":34962
		},
		{
			"buffer":0,
			"byteLength":32,
			"byteOffset":81808,
			"target":34962
		},
		{
			"buffer":0,
			"byteLength":12,
			"byteOffset":81840,
			"target":34963
		},
		{
			"buffer":0,
			"byteLength":2304,
			"byteOffset":81852,
			"target":34962
		},
		{
			"buffer":0,
			"byteLength":2304,
			"byteOffset":84156,
			"target":34962
		},
		{
			"buffer":0,
			"byteLength":1536,
			"byteOffset":86460,
			"target":34962
		},
		{
			"buffer":0,
			"byteLength":744,
			"byteOffset":87996,
			"target":34963
		},
		{
			"buffer":0,
			"byteLength":48,
			"byteOffset":88740,
			"target":34962
		},
		{
			"buffer":0,
			"byteLength":48,
			"byteOffset":88788,
			"target":34962
		},
		{
			"buffer":0,
			"byteLength":32,
			"byteOffset":88836,
			"target":34962
		}
	],
	"buffers":[
		{
			"byteLength":88868,
			"uri":"vacuole.bin"
		}
	]
}
