{
	"asset":{
		"generator":"Khronos glTF Blender I/O v3.6.27",
		"version":"2.0"
	},
	"scene":0,
	"scenes":[
		{
			"name":"Scene",
			"nodes":[
				0,
				1,
				2,
				3,
				4,
				5,
				6,
				7
			]
		}
	],
	"nodes":[
		{
			"mesh":0,
			"name":"Text",
			"rotation":[
				0.7142830491065979,
				0,
				0,
				0.6998569369316101
			],
			"scale":[
				0.569090723991394,
				0.5690907835960388,
				0.5690907835960388
			],
			"translation":[
				0.5614448189735413,
				0.031824469566345215,
				0.03897383064031601
			]
		},
		{
			"mesh":1,
			"name":"flower.005",
			"rotation":[
				-0.09307215362787247,
				-0.7203793525695801,
				-0.3941212296485901,
				0.5630804896354675
			],
			"scale":[
				0.3055327236652374,
				0.3055327236652374,
				0.3055327236652374
			],
			"translation":[
				0.41768014430999756,
				2.554551601409912,
				0.8247202634811401
			]
		},
		{
			"mesh":2,
			"name":"flower.004",
			"rotation":[
				-0.24549809098243713,
				-0.428650438785553,
				-0.322063148021698,
				0.8076291680335999
			],
			"scale":[
				0.38310158252716064,
				0.38310158252716064,
				0.38310158252716064
			],
			"translation":[
				0.6761312484741211,
				2.4149880409240723,
				-0.12120915949344635
			]
		},
		{
			"mesh":3,
			"name":"flower.003",
			"rotation":[
				-0.3582679033279419,
				0.725502610206604,
				0.1887805163860321,
				0.556463897228241
			],
			"scale":[
				0.38310158252716064,
				0.38310158252716064,
				0.38310158252716064
			],
			"translation":[
				-0.8975909352302551,
				2.4149880409240723,
				-0.06700143218040466
			]
		},
		{
			"mesh":4,
			"name":"flower.001",
			"rotation":[
				-0.1799565553665161,
				0.9139509797096252,
				0.36278045177459717,
				0.026453187689185143
			],
			"scale":[
				0.38310158252716064,
				0.38310158252716064,
				0.38310158252716064
			],
			"translation":[
				-0.34294062852859497,
				2.4149880409240723,
				0.800649881362915
			]
		},
		{
			"mesh":5,
			"name":"flower.002",
			"rotation":[
				-0.39557114243507385,
				0.19576092064380646,
				-0.08670322597026825,
				0.89313143491745
			],
			"scale":[
				0.38310155272483826,
				0.38310158252716064,
				0.38310158252716064
			],
			"translation":[
				-0.06977243721485138,
				2.4149880409240723,
				-0.818282961845398
			]
		},
		{
			"mesh":6,
			"name":"vase",
			"scale":[
				0.569090723991394,
				0.569090723991394,
				0.569090723991394
			],
			"translation":[
				-0.035235993564128876,
				2.147927761077881,
				0.026740357279777527
			]
		},
		{
			"mesh":7,
			"name":"flower",
			"scale":[
				0.38310152292251587,
				0.38310152292251587,
				0.38310152292251587
			],
			"translation":[
				-0.03702210634946823,
				2.913694381713867,
				0.03897383064031601
			]
		}
	],
	"materials":[
		{
			"doubleSided":true,
			"name":"flower_material",
			"pbrMetallicRoughness":{
				"baseColorFactor":[
					0.800000011920929,
					0.800000011920929,
					0.800000011920929,
					1
				],
				"metallicFactor":0,
				"roughnessFactor":0.5
			}
		},
		{
			"doubleSided":true,
			"name":"vaso",
			"pbrMetallicRoughness":{
				"baseColorFactor":[
					0.800000011920929,
					0.800000011920929,
					0.800000011920929,
					1
				],
				"metallicFactor":0,
				"roughnessFactor":0.5
			}
		}
	],
	"meshes":[
		{
			"name":"Text",
			"primitives":[
				{
					"attributes":{
						"POSITION":0,
						"NORMAL":1,
						"TEXCOORD_0":2
					},
					"indices":3
				}
			]
		},
		{
			"name":"Circle.008",
			"primitives":[
				{
					"attributes":{
						"POSITION":4,
						"NORMAL":5,
						"TEXCOORD_0":6
					},
					"indices":7,
					"material":0
				}
			]
		},
		{
			"name":"Circle.007",
			"primitives":[
				{
					"attributes":{
						"POSITION":8,
						"NORMAL":9,
						"TEXCOORD_0":10
					},
					"indices":7,
					"material":0
				}
			]
		},
		{
			"name":"Circle.006",
			"primitives":[
				{
					"attributes":{
						"POSITION":11,
						"NORMAL":12,
						"TEXCOORD_0":13
					},
					"indices":7,
					"material":0
				}
			]
		},
		{
			"name":"Circle.005",
			"primitives":[
				{
					"attributes":{
						"POSITION":14,
						"NORMAL":15,
						"TEXCOORD_0":16
					},
					"indices":7,
					"material":0
				}
			]
		},
		{
			"name":"Circle.004",
			"primitives":[
				{
					"attributes":{
						"POSITION":17,
						"NORMAL":18,
						"TEXCOORD_0":19
					},
					"indices":7,
					"material":0
				}
			]
		},
		{
			"name":"Circle.001",
			"primitives":[
				{
					"attributes":{
						"POSITION":20,
						"NORMAL":21,
						"TEXCOORD_0":22
					},
					"indices":23,
					"material":1
				}
			]
		},
		{
			"name":"Circle",
			"primitives":[
				{
					"attributes":{
						"POSITION":24,
						"NORMAL":25,
						"TEXCOORD_0":26
					},
					"indices":7,
					"material":0
				}
			]
		}
	],
	"accessors":[
		{
			"bufferView":0,
			"componentType":5126,
			"count":277,
			"max":[
				2.8350002765655518,
				0,
				0.009000000543892384
			],
			"min":[
				0.07600000500679016,
				0,
				-0.6820000410079956
			],
			"type":"VEC3"
		},
		{
			"bufferView":1,
			"componentType":5126,
			"count":277,
			"type":"VEC3"
		},
		{
			"bufferView":2,
			"componentType":5126,
			"count":277,
			"type":"VEC2"
		},
		{
			"bufferView":3,
			"componentType":5123,
			"count":807,
			"type":"SCALAR"
		},
		{
			"bufferView":4,
			"componentType":5126,
			"count":667,
			"max":[
				1.995192527770996,
				0.8706351518630981,
				2.022761344909668
			],
			"min":[
				-1.990666389465332,
				-3.959798574447632,
				-1.9630979299545288
			],
			"type":"VEC3"
		},
		{
			"bufferView":5,
			"componentType":5126,
			"count":667,
			"type":"VEC3"
		},
		{
			"bufferView":6,
			"componentType":5126,
			"count":667,
			"type":"VEC2"
		},
		{
			"bufferView":7,
			"componentType":5123,
			"count":2610,
			"type":"SCALAR"
		},
		{
			"bufferView":8,
			"componentType":5126,
			"count":667,
			"max":[
				1.995192527770996,
				0.8706351518630981,
				2.022761344909668
			],
			"min":[
				-1.990666389465332,
				-2.958138942718506,
				-1.9630979299545288
			],
			"type":"VEC3"
		},
		{
			"bufferView":9,
			"componentType":5126,
			"count":667,
			"type":"VEC3"
		},
		{
			"bufferView":10,
			"componentType":5126,
			"count":667,
			"type":"VEC2"
		},
		{
			"bufferView":11,
			"componentType":5126,
			"count":667,
			"max":[
				1.995192527770996,
				0.8706351518630981,
				2.022761344909668
			],
			"min":[
				-1.990666389465332,
				-2.958138942718506,
				-1.9630979299545288
			],
			"type":"VEC3"
		},
		{
			"bufferView":12,
			"componentType":5126,
			"count":667,
			"type":"VEC3"
		},
		{
			"bufferView":13,
			"componentType":5126,
			"count":667,
			"type":"VEC2"
		},
		{
			"bufferView":14,
			"componentType":5126,
			"count":667,
			"max":[
				1.995192527770996,
				0.8706351518630981,
				2.022761344909668
			],
			"min":[
				-1.990666389465332,
				-2.958138942718506,
				-1.9630979299545288
			],
			"type":"VEC3"
		},
		{
			"bufferView":15,
			"componentType":5126,
			"count":667,
			"type":"VEC3"
		},
		{
			"bufferView":16,
			"componentType":5126,
			"count":667,
			"type":"VEC2"
		},
		{
			"bufferView":17,
			"componentType":5126,
			"count":667,
			"max":[
				1.995192527770996,
				0.8706351518630981,
				2.022761344909668
			],
			"min":[
				-1.990666389465332,
				-2.958138942718506,
				-1.9630979299545288
			],
			"type":"VEC3"
		},
		{
			"bufferView":18,
			"componentType":5126,
			"count":667,
			"type":"VEC3"
		},
		{
			"bufferView":19,
			"componentType":5126,
			"count":667,
			"type":"VEC2"
		},
		{
			"bufferView":20,
			"componentType":5126,
			"count":338,
			"max":[
				1.1868642568588257,
				-0.051239632070064545,
				1.1868643760681152
			],
			"min":[
				-1.1868644952774048,
				-3.6686267852783203,
				-1.1868643760681152
			],
			"type":"VEC3"
		},
		{
			"bufferView":21,
			"componentType":5126,
			"count":338,
			"type":"VEC3"
		},
		{
			"bufferView":22,
			"componentType":5126,
			"count":338,
			"type":"VEC2"
		},
		{
			"bufferView":23,
			"componentType":5123,
			"count":1620,
			"type":"SCALAR"
		},
		{
			"bufferView":24,
			"componentType":5126,
			"count":667,
			"max":[
				1.995192527770996,
				0.8706351518630981,
				2.022761344909668
			],
			"min":[
				-1.990666389465332,
				-2.958138942718506,
				-1.9630979299545288
			],
			"type":"VEC3"
		},
		{
			"bufferView":25,
			"componentType":5126,
			"count":667,
			"type":"VEC3"
		},
		{
			"bufferView":26,
			"componentType":5126,
			"count":667,
			"type":"VEC2"
		}
	],
	"bufferViews":[
		{
			"buffer":0,
			"byteLength":3324,
			"byteOffset":0,
			"target":34962
		},
		{
			"buffer":0,
			"byteLength":3324,
			"byteOffset":3324,
			"target":34962
		},
		{
			"buffer":0,
			"byteLength":2216,
			"byteOffset":6648,
			"target":34962
		},
		{
			"buffer":0,
			"byteLength":1614,
			"byteOffset":8864,
			"target":34963
		},
		{
			"buffer":0,
			"byteLength":8004,
			"byteOffset":10480,
			"target":34962
		},
		{
			"buffer":0,
			"byteLength":8004,
			"byteOffset":18484,
			"target":34962
		},
		{
			"buffer":0,
			"byteLength":5336,
			"byteOffset":26488,
			"target":34962
		},
		{
			"buffer":0,
			"byteLength":5220,
			"byteOffset":31824,
			"target":34963
		},
		{
			"buffer":0,
			"byteLength":8004,
			"byteOffset":37044,
			"target":34962
		},
		{
			"buffer":0,
			"byteLength":8004,
			"byteOffset":45048,
			"target":34962
		},
		{
			"buffer":0,
			"byteLength":5336,
			"byteOffset":53052,
			"target":34962
		},
		{
			"buffer":0,
			"byteLength":8004,
			"byteOffset":58388,
			"target":34962
		},
		{
			"buffer":0,
			"byteLength":8004,
			"byteOffset":66392,
			"target":34962
		},
		{
			"buffer":0,
			"byteLength":5336,
			"byteOffset":74396,
			"target":34962
		},
		{
			"buffer":0,
			"byteLength":8004,
			"byteOffset":79732,
			"target":34962
		},
		{
			"buffer":0,
			"byteLength":8004,
			"byteOffset":87736,
			"target":34962
		},
		{
			"buffer":0,
			"byteLength":5336,
			"byteOffset":95740,
			"target":34962
		},
		{
			"buffer":0,
			"byteLength":8004,
			"byteOffset":101076,
			"target":34962
		},
		{
			"buffer":0,
			"byteLength":8004,
			"byteOffset":109080,
			"target":34962
		},
		{
			"buffer":0,
			"byteLength":5336,
			"byteOffset":117084,
			"target":34962
		},
		{
			"buffer":0,
			"byteLength":4056,
			"byteOffset":122420,
			"target":34962
		},
		{
			"buffer":0,
			"byteLength":4056,
			"byteOffset":126476,
			"target":34962
		},
		{
			"buffer":0,
			"byteLength":2704,
			"byteOffset":130532,
			"target":34962
		},
		{
			"buffer":0,
			"byteLength":3240,
			"byteOffset":133236,
			"target":34963
		},
		{
			"buffer":0,
			"byteLength":8004,
			"byteOffset":136476,
			"target":34962
		},
		{
			"buffer":0,
			"byteLength":8004,
			"byteOffset":144480,
			"target":34962
		},
		{
			"buffer":0,
			"byteLength":5336,
			"byteOffset":152484,
			"target":34962
		}
	],
	"buffers":[
		{
			"byteLength":157820,
			"uri":"flower.bin"
		}
	]
}
