{
	"asset":{
		"generator":"Khronos glTF Blender I/O v3.6.27",
		"version":"2.0"
	},
	"scene":0,
	"scenes":[
		{
			"name":"Scene",
			"nodes":[
				0,
				1
			]
		}
	],
	"nodes":[
		{
			"mesh":0,
			"name":"Ceramic-frog_low-poly"
		},
		{
			"mesh":1,
			"name":"Text",
			"rotation":[
				0.7103750705718994,
				0,
				0,
				0.7038233280181885
			],
			"scale":[
				0.07519549876451492,
				0.07519550621509552,
				0.07519550621509552
			],
			"translation":[
				0.13056157529354095,
				0,
				0
			]
		}
	],
	"materials":[
		{
			"doubleSided":true,
			"name":"Material",
			"pbrMetallicRoughness":{
				"baseColorFactor":[
					0,
					0.8000000715255737,
					0.005972736049443483,
					1
				],
				"metallicFactor":0,
				"roughnessFactor":0.5
			}
		}
	],
	"meshes":[
		{
			"name":"Ceramic-frog_low-poly",
			"primitives":[
				{
					"attributes":{
						"POSITION":0,
						"NORMAL":1,
						"TEXCOORD_0":2
					},
					"indices":3,
					"material":0
				}
			]
		},
		{
			"name":"Text",
			"primitives":[
				{
					"attributes":{
						"POSITION":4,
						"NORMAL":5,
						"TEXCOORD_0":6
					},
					"indices":7
				}
			]
		}
	],
	"accessors":[
		{
			"bufferView":0,
			"componentType":5126,
			"count":1338,
			"max":[
				0.12153861671686172,
				0.1700591892004013,
				0.1397327184677124
			],
			"min":[
				-0.12814554572105408,
				0.0009901829762384295,
				-0.12295448780059814
			],
			"type":"VEC3"
		},
		{
			"bufferView":1,
			"componentType":5126,
			"count":1338,
			"type":"VEC3"
		},
		{
			"bufferView":2,
			"componentType":5126,
			"count":1338,
			"type":"VEC2"
		},
		{
			"bufferView":3,
			"componentType":5123,
			"count":6819,
			"type":"SCALAR"
		},
		{
			"bufferView":4,
			"componentType":5126,
			"count":709,
			"max":[
				4.022000312805176,
				0,
				0.23000000417232513
			],
			"min":[
				0.07300000637769699,
				0,
				-0.6820000410079956
			],
			"type":"VEC3"
		},
		{
			"bufferView":5,
			"componentType":5126,
			"count":709,
			"type":"VEC3"
		},
		{
			"bufferView":6,
			"componentType":5126,
			"count":709,
			"type":"VEC2"
		},
		{
			"bufferView":7,
			"componentType":5123,
			"count":2109,
			"type":"SCALAR"
		}
	],
	"bufferViews":[
		{
			"buffer":0,
			"byteLength":16056,
			"byteOffset":0,
			"target":34962
		},
		{
			"buffer":0,
			"byteLength":16056,
			"byteOffset":16056,
			"target":34962
		},
		{
			"buffer":0,
			"byteLength":10704,
			"byteOffset":32112,
			"target":34962
		},
		{
			"buffer":0,
			"byteLength":13638,
			"byteOffset":42816,
			"target":34963
		},
		{
			"buffer":0,
			"byteLength":8508,
			"byteOffset":56456,
			"target":34962
		},
		{
			"buffer":0,
			"byteLength":8508,
			"byteOffset":64964,
			"target":34962
		},
		{
			"buffer":0,
			"byteLength":5672,
			"byteOffset":73472,
			"target":34962
		},
		{
			"buffer":0,
			"byteLength":4218,
			"byteOffset":79144,
			"target":34963
		}
	],
	"buffers":[
		{
			"byteLength":83364,
			"uri":"malefrog.bin"
		}
	]
}
