{
	"asset":{
		"generator":"Khronos glTF Blender I/O v3.6.27",
		"version":"2.0"
	},
	"scene":0,
	"scenes":[
		{
			"name":"Scene",
			"nodes":[
				0,
				1
			]
		}
	],
	"nodes":[
		{
			"mesh":0,
			"name":"Chicken",
			"rotation":[
				0,
				-0.24605615437030792,
				0,
				0.9692555665969849
			]
		},
		{
			"mesh":1,
			"name":"Text",
			"rotation":[
				0.7173627614974976,
				-0.006833323277533054,
				0.004137813579291105,
				0.6966541409492493
			],
			"scale":[
				0.09501655399799347,
				0.09501654654741287,
				0.09501653909683228
			],
			"translation":[
				0.15600764751434326,
				0,
				0
			]
		}
	],
	"materials":[
		{
			"doubleSided":true,
			"name":"Feathers",
			"pbrMetallicRoughness":{
				"baseColorFactor":[
					0.800000011920929,
					0.800000011920929,
					0.800000011920929,
					1
				],
				"metallicFactor":0
			}
		},
		{
			"doubleSided":true,
			"name":"Beak/Legs",
			"pbrMetallicRoughness":{
				"baseColorFactor":[
					0.9386858344078064,
					0.6375970244407654,
					0.11193244159221649,
					1
				],
				"metallicFactor":0,
				"roughnessFactor":0.5
			}
		},
		{
			"doubleSided":true,
			"name":"Comb",
			"pbrMetallicRoughness":{
				"baseColorFactor":[
					0.42869052290916443,
					0.017641952261328697,
					0.016807377338409424,
					1
				],
				"metallicFactor":0,
				"roughnessFactor":0.7653061151504517
			}
		},
		{
			"doubleSided":true,
			"name":"Eyes",
			"pbrMetallicRoughness":{
				"baseColorFactor":[
					0.14731401205062866,
					0.14731401205062866,
					0.14731401205062866,
					1
				],
				"metallicFactor":0,
				"roughnessFactor":0.5
			}
		}
	],
	"meshes":[
		{
			"name":"Chicken",
			"primitives":[
				{
					"attributes":{
						"POSITION":0,
						"NORMAL":1,
						"TEXCOORD_0":2
					},
					"indices":3,
					"material":0
				},
				{
					"attributes":{
						"POSITION":4,
						"NORMAL":5,
						"TEXCOORD_0":6
					},
					"indices":7,
					"material":1
				},
				{
					"attributes":{
						"POSITION":8,
						"NORMAL":9,
						"TEXCOORD_0":10
					},
					"indices":11,
					"material":2
				},
				{
					"attributes":{
						"POSITION":12,
						"NORMAL":13,
						"TEXCOORD_0":14
					},
					"indices":15,
					"material":3
				}
			]
		},
		{
			"name":"Text",
			"primitives":[
				{
					"attributes":{
						"POSITION":16,
						"NORMAL":17,
						"TEXCOORD_0":18
					},
					"indices":19
				}
			]
		}
	],
	"accessors":[
		{
			"bufferView":0,
			"componentType":5126,
			"count":1072,
			"max":[
				0.19347357749938965,
				0.3910621404647827,
				0.11155524849891663
			],
			"min":[
				-0.1782444268465042,
				0.05661027133464813,
				-0.11256948858499527
			],
			"type":"VEC3"
		},
		{
			"bufferView":1,
			"componentType":5126,
			"count":1072,
			"type":"VEC3"
		},
		{
			"bufferView":2,
			"componentType":5126,
			"count":1072,
			"type":"VEC2"
		},
		{
			"bufferView":3,
			"componentType":5123,
			"count":1608,
			"type":"SCALAR"
		},
		{
			"bufferView":4,
			"componentType":5126,
			"count":375,
			"max":[
				0.06958173215389252,
				0.3611135184764862,
				0.027955129742622375
			],
			"min":[
				-0.1782444268465042,
				-0.0007540881633758545,
				-0.02662213146686554
			],
			"type":"VEC3"
		},
		{
			"bufferView":5,
			"componentType":5126,
			"count":375,
			"type":"VEC3"
		},
		{
			"bufferView":6,
			"componentType":5126,
			"count":375,
			"type":"VEC2"
		},
		{
			"bufferView":7,
			"componentType":5123,
			"count":576,
			"type":"SCALAR"
		},
		{
			"bufferView":8,
			"componentType":5126,
			"count":40,
			"max":[
				-0.12299802154302597,
				0.3997412323951721,
				0.004889227915555239
			],
			"min":[
				-0.15233397483825684,
				0.31237250566482544,
				-0.004835351835936308
			],
			"type":"VEC3"
		},
		{
			"bufferView":9,
			"componentType":5126,
			"count":40,
			"type":"VEC3"
		},
		{
			"bufferView":10,
			"componentType":5126,
			"count":40,
			"type":"VEC2"
		},
		{
			"bufferView":11,
			"componentType":5123,
			"count":60,
			"type":"SCALAR"
		},
		{
			"bufferView":12,
			"componentType":5126,
			"count":8,
			"max":[
				-0.1406974047422409,
				0.37181583046913147,
				0.012032047845423222
			],
			"min":[
				-0.14478375017642975,
				0.36788225173950195,
				-0.011987471953034401
			],
			"type":"VEC3"
		},
		{
			"bufferView":13,
			"componentType":5126,
			"count":8,
			"type":"VEC3"
		},
		{
			"bufferView":14,
			"componentType":5126,
			"count":8,
			"type":"VEC2"
		},
		{
			"bufferView":15,
			"componentType":5123,
			"count":12,
			"type":"SCALAR"
		},
		{
			"bufferView":16,
			"componentType":5126,
			"count":964,
			"max":[
				6.384000778198242,
				0,
				0.009000000543892384
			],
			"min":[
				0.07600000500679016,
				0,
				-0.6910000443458557
			],
			"type":"VEC3"
		},
		{
			"bufferView":17,
			"componentType":5126,
			"count":964,
			"type":"VEC3"
		},
		{
			"bufferView":18,
			"componentType":5126,
			"count":964,
			"type":"VEC2"
		},
		{
			"bufferView":19,
			"componentType":5123,
			"count":2826,
			"type":"SCALAR"
		}
	],
	"bufferViews":[
		{
			"buffer":0,
			"byteLength":12864,
			"byteOffset":0,
			"target":34962
		},
		{
			"buffer":0,
			"byteLength":12864,
			"byteOffset":12864,
			"target":34962
		},
		{
			"buffer":0,
			"byteLength":8576,
			"byteOffset":25728,
			"target":34962
		},
		{
			"buffer":0,
			"byteLength":3216,
			"byteOffset":34304,
			"target":34963
		},
		{
			"buffer":0,
			"byteLength":4500,
			"byteOffset":37520,
			"target":34962
		},
		{
			"buffer":0,
			"byteLength":4500,
			"byteOffset":42020,
			"target":34962
		},
		{
			"buffer":0,
			"byteLength":3000,
			"byteOffset":46520,
			"target":34962
		},
		{
			"buffer":0,
			"byteLength":1152,
			"byteOffset":49520,
			"target":34963
		},
		{
			"buffer":0,
			"byteLength":480,
			"byteOffset":50672,
			"target":34962
		},
		{
			"buffer":0,
			"byteLength":480,
			"byteOffset":51152,
			"target":34962
		},
		{
			"buffer":0,
			"byteLength":320,
			"byteOffset":51632,
			"target":34962
		},
		{
			"buffer":0,
			"byteLength":120,
			"byteOffset":51952,
			"target":34963
		},
		{
			"buffer":0,
			"byteLength":96,
			"byteOffset":52072,
			"target":34962
		},
		{
			"buffer":0,
			"byteLength":96,
			"byteOffset":52168,
			"target":34962
		},
		{
			"buffer":0,
			"byteLength":64,
			"byteOffset":52264,
			"target":34962
		},
		{
			"buffer":0,
			"byteLength":24,
			"byteOffset":52328,
			"target":34963
		},
		{
			"buffer":0,
			"byteLength":11568,
			"byteOffset":52352,
			"target":34962
		},
		{
			"buffer":0,
			"byteLength":11568,
			"byteOffset":63920,
			"target":34962
		},
		{
			"buffer":0,
			"byteLength":7712,
			"byteOffset":75488,
			"target":34962
		},
		{
			"buffer":0,
			"byteLength":5652,
			"byteOffset":83200,
			"target":34963
		}
	],
	"buffers":[
		{
			"byteLength":88852,
			"uri":"white.bin"
		}
	]
}
