{
	"asset":{
		"generator":"Khronos glTF Blender I/O v3.6.27",
		"version":"2.0"
	},
	"scene":0,
	"scenes":[
		{
			"name":"Scene",
			"nodes":[
				0,
				1,
				2,
				3
			]
		}
	],
	"nodes":[
		{
			"mesh":0,
			"name":"focusknob 2",
			"rotation":[
				0,
				0,
				-0.7071068286895752,
				0.7071068286895752
			],
			"translation":[
				0,
				0.057870496064424515,
				-0.028332656249403954
			]
		},
		{
			"mesh":1,
			"name":"Text.004",
			"rotation":[
				0.7071068286895752,
				0,
				0,
				0.7071068286895752
			],
			"scale":[
				0.011089053936302662,
				0.02460140734910965,
				0.013473319821059704
			],
			"translation":[
				-0.19760826230049133,
				0.05316219851374626,
				-0.027282454073429108
			]
		},
		{
			"mesh":2,
			"name":"Cube.008",
			"scale":[
				0.042796939611434937,
				0.009707197546958923,
				9.999999747378752e-05
			],
			"translation":[
				-0.1708032786846161,
				0.05808357521891594,
				-0.027784958481788635
			]
		},
		{
			"mesh":3,
			"name":"Cube.009",
			"scale":[
				0.0429159514605999,
				0.0010000000474974513,
				0
			],
			"translation":[
				-0.09110988676548004,
				0.057581763714551926,
				-0.027463890612125397
			]
		}
	],
	"materials":[
		{
			"doubleSided":true,
			"name":"metal.002",
			"pbrMetallicRoughness":{
				"baseColorFactor":[
					0.5925782918930054,
					0.5925782918930054,
					0.5925782918930054,
					1
				],
				"roughnessFactor":0.4833333194255829
			}
		},
		{
			"doubleSided":true,
			"name":"black plastic",
			"pbrMetallicRoughness":{
				"baseColorFactor":[
					0.0056046294048428535,
					0.0056046294048428535,
					0.0056046294048428535,
					1
				],
				"metallicFactor":0,
				"roughnessFactor":0.6166667342185974
			}
		},
		{
			"doubleSided":true,
			"name":"black plastic.006",
			"pbrMetallicRoughness":{
				"baseColorFactor":[
					0.0056046294048428535,
					0.0056046294048428535,
					0.0056046294048428535,
					1
				],
				"metallicFactor":0,
				"roughnessFactor":0.6166667342185974
			}
		}
	],
	"meshes":[
		{
			"name":"Cylinder.009",
			"primitives":[
				{
					"attributes":{
						"POSITION":0,
						"NORMAL":1,
						"TEXCOORD_0":2
					},
					"indices":3,
					"material":0
				},
				{
					"attributes":{
						"POSITION":4,
						"NORMAL":5,
						"TEXCOORD_0":6
					},
					"indices":7,
					"material":1
				}
			]
		},
		{
			"name":"Text.004",
			"primitives":[
				{
					"attributes":{
						"POSITION":8,
						"NORMAL":9,
						"TEXCOORD_0":10
					},
					"indices":11,
					"material":2
				}
			]
		},
		{
			"name":"Cube.016",
			"primitives":[
				{
					"attributes":{
						"POSITION":12,
						"NORMAL":13,
						"TEXCOORD_0":14
					},
					"indices":15
				}
			]
		},
		{
			"name":"Cube.017",
			"primitives":[
				{
					"attributes":{
						"POSITION":16,
						"NORMAL":17,
						"TEXCOORD_0":18
					},
					"indices":15
				}
			]
		}
	],
	"accessors":[
		{
			"bufferView":0,
			"componentType":5126,
			"count":1810,
			"max":[
				0.00800869520753622,
				0.055292993783950806,
				0.008008698001503944
			],
			"min":[
				-0.008008702658116817,
				-0.055292993783950806,
				-0.008008698932826519
			],
			"type":"VEC3"
		},
		{
			"bufferView":1,
			"componentType":5126,
			"count":1810,
			"type":"VEC3"
		},
		{
			"bufferView":2,
			"componentType":5126,
			"count":1810,
			"type":"VEC2"
		},
		{
			"bufferView":3,
			"componentType":5123,
			"count":5556,
			"type":"SCALAR"
		},
		{
			"bufferView":4,
			"componentType":5126,
			"count":2073,
			"max":[
				0.008038267493247986,
				0.05540139228105545,
				0.008038267493247986
			],
			"min":[
				-0.00803827028721571,
				-0.05540139228105545,
				-0.008038266561925411
			],
			"type":"VEC3"
		},
		{
			"bufferView":5,
			"componentType":5126,
			"count":2073,
			"type":"VEC3"
		},
		{
			"bufferView":6,
			"componentType":5126,
			"count":2073,
			"type":"VEC2"
		},
		{
			"bufferView":7,
			"componentType":5123,
			"count":5376,
			"type":"SCALAR"
		},
		{
			"bufferView":8,
			"componentType":5126,
			"count":1780,
			"max":[
				5.41200065612793,
				0.010000000707805157,
				0.009000000543892384
			],
			"min":[
				0.07600000500679016,
				-0.010000000707805157,
				-0.6910000443458557
			],
			"type":"VEC3"
		},
		{
			"bufferView":9,
			"componentType":5126,
			"count":1780,
			"type":"VEC3"
		},
		{
			"bufferView":10,
			"componentType":5126,
			"count":1780,
			"type":"VEC2"
		},
		{
			"bufferView":11,
			"componentType":5123,
			"count":5184,
			"type":"SCALAR"
		},
		{
			"bufferView":12,
			"componentType":5126,
			"count":24,
			"max":[
				1,
				1,
				1
			],
			"min":[
				-1,
				-1,
				-1
			],
			"type":"VEC3"
		},
		{
			"bufferView":13,
			"componentType":5126,
			"count":24,
			"type":"VEC3"
		},
		{
			"bufferView":14,
			"componentType":5126,
			"count":24,
			"type":"VEC2"
		},
		{
			"bufferView":15,
			"componentType":5123,
			"count":36,
			"type":"SCALAR"
		},
		{
			"bufferView":16,
			"componentType":5126,
			"count":24,
			"max":[
				1,
				1,
				1
			],
			"min":[
				-1,
				-1,
				-1
			],
			"type":"VEC3"
		},
		{
			"bufferView":17,
			"componentType":5126,
			"count":24,
			"type":"VEC3"
		},
		{
			"bufferView":18,
			"componentType":5126,
			"count":24,
			"type":"VEC2"
		}
	],
	"bufferViews":[
		{
			"buffer":0,
			"byteLength":21720,
			"byteOffset":0,
			"target":34962
		},
		{
			"buffer":0,
			"byteLength":21720,
			"byteOffset":21720,
			"target":34962
		},
		{
			"buffer":0,
			"byteLength":14480,
			"byteOffset":43440,
			"target":34962
		},
		{
			"buffer":0,
			"byteLength":11112,
			"byteOffset":57920,
			"target":34963
		},
		{
			"buffer":0,
			"byteLength":24876,
			"byteOffset":69032,
			"target":34962
		},
		{
			"buffer":0,
			"byteLength":24876,
			"byteOffset":93908,
			"target":34962
		},
		{
			"buffer":0,
			"byteLength":16584,
			"byteOffset":118784,
			"target":34962
		},
		{
			"buffer":0,
			"byteLength":10752,
			"byteOffset":135368,
			"target":34963
		},
		{
			"buffer":0,
			"byteLength":21360,
			"byteOffset":146120,
			"target":34962
		},
		{
			"buffer":0,
			"byteLength":21360,
			"byteOffset":167480,
			"target":34962
		},
		{
			"buffer":0,
			"byteLength":14240,
			"byteOffset":188840,
			"target":34962
		},
		{
			"buffer":0,
			"byteLength":10368,
			"byteOffset":203080,
			"target":34963
		},
		{
			"buffer":0,
			"byteLength":288,
			"byteOffset":213448,
			"target":34962
		},
		{
			"buffer":0,
			"byteLength":288,
			"byteOffset":213736,
			"target":34962
		},
		{
			"buffer":0,
			"byteLength":192,
			"byteOffset":214024,
			"target":34962
		},
		{
			"buffer":0,
			"byteLength":72,
			"byteOffset":214216,
			"target":34963
		},
		{
			"buffer":0,
			"byteLength":288,
			"byteOffset":214288,
			"target":34962
		},
		{
			"buffer":0,
			"byteLength":288,
			"byteOffset":214576,
			"target":34962
		},
		{
			"buffer":0,
			"byteLength":192,
			"byteOffset":214864,
			"target":34962
		}
	],
	"buffers":[
		{
			"byteLength":215056,
			"uri":"fine.bin"
		}
	]
}
