{
	"asset":{
		"generator":"Khronos glTF Blender I/O v3.6.27",
		"version":"2.0"
	},
	"scene":0,
	"scenes":[
		{
			"name":"Scene",
			"nodes":[
				0
			]
		}
	],
	"nodes":[
		{
			"mesh":0,
			"name":"Object_4.002",
			"rotation":[
				0.70710688829422,
				0,
				0,
				0.7071066498756409
			],
			"scale":[
				0.014512927271425724,
				0.014512930996716022,
				0.014512930996716022
			],
			"translation":[
				-2.4062583446502686,
				0,
				0
			]
		}
	],
	"materials":[
		{
			"doubleSided":true,
			"name":"Hyena_Mat",
			"normalTexture":{
				"index":0
			},
			"pbrMetallicRoughness":{
				"baseColorTexture":{
					"index":1
				},
				"metallicFactor":0.5,
				"roughnessFactor":0.7073320150375366
			}
		}
	],
	"meshes":[
		{
			"name":"Object_0.002",
			"primitives":[
				{
					"attributes":{
						"POSITION":0,
						"NORMAL":1,
						"TEXCOORD_0":2,
						"TEXCOORD_1":3
					},
					"indices":4,
					"material":0
				}
			]
		}
	],
	"textures":[
		{
			"sampler":0,
			"source":0
		},
		{
			"sampler":0,
			"source":1
		}
	],
	"images":[
		{
			"mimeType":"image/png",
			"name":"Hyena_Mat_normal",
			"uri":"Hyena_Mat_normal.png"
		},
		{
			"mimeType":"image/png",
			"name":"Hyena_Mat_baseColor",
			"uri":"Hyena_Mat_baseColor.png"
		}
	],
	"accessors":[
		{
			"bufferView":0,
			"componentType":5126,
			"count":2474,
			"max":[
				13.838452339172363,
				43.33621597290039,
				0.2309248298406601
			],
			"min":[
				-12.335536003112793,
				-47.18439865112305,
				-58.21686935424805
			],
			"type":"VEC3"
		},
		{
			"bufferView":1,
			"componentType":5126,
			"count":2474,
			"type":"VEC3"
		},
		{
			"bufferView":2,
			"componentType":5126,
			"count":2474,
			"type":"VEC2"
		},
		{
			"bufferView":3,
			"componentType":5126,
			"count":2474,
			"type":"VEC2"
		},
		{
			"bufferView":4,
			"componentType":5123,
			"count":9759,
			"type":"SCALAR"
		}
	],
	"bufferViews":[
		{
			"buffer":0,
			"byteLength":29688,
			"byteOffset":0,
			"target":34962
		},
		{
			"buffer":0,
			"byteLength":29688,
			"byteOffset":29688,
			"target":34962
		},
		{
			"buffer":0,
			"byteLength":19792,
			"byteOffset":59376,
			"target":34962
		},
		{
			"buffer":0,
			"byteLength":19792,
			"byteOffset":79168,
			"target":34962
		},
		{
			"buffer":0,
			"byteLength":19518,
			"byteOffset":98960,
			"target":34963
		}
	],
	"samplers":[
		{
			"magFilter":9729,
			"minFilter":9987
		}
	],
	"buffers":[
		{
			"byteLength":118480,
			"uri":"hyena.bin"
		}
	]
}
