{
	"asset":{
		"generator":"Khronos glTF Blender I/O v3.6.27",
		"version":"2.0"
	},
	"scene":0,
	"scenes":[
		{
			"name":"Scene",
			"nodes":[
				0
			]
		}
	],
	"nodes":[
		{
			"mesh":0,
			"name":"base2",
			"translation":[
				0,
				0.08991678059101105,
				-0.06159842759370804
			]
		}
	],
	"materials":[
		{
			"alphaMode":"BLEND",
			"doubleSided":true,
			"emissiveFactor":[
				0.20863690972328186,
				0.4341537058353424,
				0.42326778173446655
			],
			"name":"Material.002",
			"pbrMetallicRoughness":{
				"baseColorFactor":[
					0,
					0.8000000715255737,
					0.6176220774650574,
					0.08454543352127075
				],
				"metallicFactor":0,
				"roughnessFactor":0.5
			}
		}
	],
	"meshes":[
		{
			"name":"Cube.001",
			"primitives":[
				{
					"attributes":{
						"POSITION":0,
						"NORMAL":1,
						"TEXCOORD_0":2
					},
					"indices":3,
					"material":0
				}
			]
		}
	],
	"accessors":[
		{
			"bufferView":0,
			"componentType":5126,
			"count":2032,
			"max":[
				0.02823987789452076,
				0.15361864864826202,
				0.10772170126438141
			],
			"min":[
				-0.02823987789452076,
				-0.05507567897439003,
				-0.02047540992498398
			],
			"type":"VEC3"
		},
		{
			"bufferView":1,
			"componentType":5126,
			"count":2032,
			"type":"VEC3"
		},
		{
			"bufferView":2,
			"componentType":5126,
			"count":2032,
			"type":"VEC2"
		},
		{
			"bufferView":3,
			"componentType":5123,
			"count":6180,
			"type":"SCALAR"
		}
	],
	"bufferViews":[
		{
			"buffer":0,
			"byteLength":24384,
			"byteOffset":0,
			"target":34962
		},
		{
			"buffer":0,
			"byteLength":24384,
			"byteOffset":24384,
			"target":34962
		},
		{
			"buffer":0,
			"byteLength":16256,
			"byteOffset":48768,
			"target":34962
		},
		{
			"buffer":0,
			"byteLength":12360,
			"byteOffset":65024,
			"target":34963
		}
	],
	"buffers":[
		{
			"byteLength":77384,
			"uri":"harm.bin"
		}
	]
}
