{
	"asset":{
		"generator":"Khronos glTF Blender I/O v3.6.27",
		"version":"2.0"
	},
	"scene":0,
	"scenes":[
		{
			"name":"Scene",
			"nodes":[
				0
			]
		}
	],
	"nodes":[
		{
			"mesh":0,
			"name":"Gato",
			"rotation":[
				0.7071068286895752,
				0,
				0,
				0.7071068286895752
			]
		}
	],
	"materials":[
		{
			"doubleSided":true,
			"name":"cat",
			"pbrMetallicRoughness":{
				"baseColorFactor":[
					0,
					0,
					0,
					1
				],
				"metallicFactor":0,
				"roughnessFactor":0.5
			}
		}
	],
	"meshes":[
		{
			"name":"Gato",
			"primitives":[
				{
					"attributes":{
						"POSITION":0,
						"NORMAL":1,
						"TEXCOORD_0":2
					},
					"indices":3,
					"material":0
				}
			]
		}
	],
	"accessors":[
		{
			"bufferView":0,
			"componentType":5126,
			"count":11350,
			"max":[
				0.16730999946594238,
				0.957148015499115,
				0.20344699919223785
			],
			"min":[
				-0.16730999946594238,
				-0.3586609959602356,
				-0.7184129953384399
			],
			"type":"VEC3"
		},
		{
			"bufferView":1,
			"componentType":5126,
			"count":11350,
			"type":"VEC3"
		},
		{
			"bufferView":2,
			"componentType":5126,
			"count":11350,
			"type":"VEC2"
		},
		{
			"bufferView":3,
			"componentType":5123,
			"count":11544,
			"type":"SCALAR"
		}
	],
	"bufferViews":[
		{
			"buffer":0,
			"byteLength":136200,
			"byteOffset":0,
			"target":34962
		},
		{
			"buffer":0,
			"byteLength":136200,
			"byteOffset":136200,
			"target":34962
		},
		{
			"buffer":0,
			"byteLength":90800,
			"byteOffset":272400,
			"target":34962
		},
		{
			"buffer":0,
			"byteLength":23088,
			"byteOffset":363200,
			"target":34963
		}
	],
	"buffers":[
		{
			"byteLength":386288,
			"uri":"cat.bin"
		}
	]
}
