{
	"asset":{
		"generator":"Khronos glTF Blender I/O v3.6.27",
		"version":"2.0"
	},
	"scene":0,
	"scenes":[
		{
			"name":"Scene",
			"nodes":[
				0,
				1,
				2
			]
		}
	],
	"nodes":[
		{
			"mesh":0,
			"name":"Cube.004",
			"scale":[
				1.0191447734832764,
				0.38192975521087646,
				0.10566527396440506
			],
			"translation":[
				2.7890803813934326,
				1.5947751998901367,
				0.7200382947921753
			]
		},
		{
			"mesh":1,
			"name":"Text.004",
			"rotation":[
				0.6846910119056702,
				0.008405092172324657,
				-0.017569584771990776,
				0.7285732626914978
			],
			"scale":[
				0.2183009386062622,
				0.07647952437400818,
				0.21805429458618164
			],
			"translation":[
				2.7810208797454834,
				1.630253553390503,
				0.8756659030914307
			]
		},
		{
			"mesh":2,
			"name":"Bacillus",
			"rotation":[
				0.7070170640945435,
				-0.011262426152825356,
				0.011262426152825356,
				0.7070171236991882
			],
			"scale":[
				1.3265702724456787,
				1.3265702724456787,
				1.3265702724456787
			],
			"translation":[
				2.781036376953125,
				2.587557554244995,
				0.695941686630249
			]
		}
	],
	"materials":[
		{
			"doubleSided":true,
			"name":"Material.002",
			"pbrMetallicRoughness":{
				"baseColorFactor":[
					0,
					0,
					0,
					1
				],
				"metallicFactor":0,
				"roughnessFactor":0.5
			}
		},
		{
			"alphaMode":"BLEND",
			"doubleSided":true,
			"name":"Bacillus",
			"pbrMetallicRoughness":{
				"baseColorTexture":{
					"index":0
				},
				"metallicFactor":0,
				"roughnessFactor":0.5
			}
		}
	],
	"meshes":[
		{
			"name":"Cube.011",
			"primitives":[
				{
					"attributes":{
						"POSITION":0,
						"NORMAL":1,
						"TEXCOORD_0":2
					},
					"indices":3,
					"material":0
				}
			]
		},
		{
			"name":"Text.015",
			"primitives":[
				{
					"attributes":{
						"POSITION":4,
						"NORMAL":5,
						"TEXCOORD_0":6
					},
					"indices":7
				}
			]
		},
		{
			"name":"Bacillus",
			"primitives":[
				{
					"attributes":{
						"POSITION":8,
						"NORMAL":9,
						"TEXCOORD_0":10
					},
					"indices":11,
					"material":1
				}
			]
		}
	],
	"textures":[
		{
			"sampler":0,
			"source":0
		}
	],
	"images":[
		{
			"mimeType":"image/png",
			"name":"Bacillus",
			"uri":"Bacillus.png"
		}
	],
	"accessors":[
		{
			"bufferView":0,
			"componentType":5126,
			"count":24,
			"max":[
				1,
				1,
				1
			],
			"min":[
				-1,
				-1,
				-1
			],
			"type":"VEC3"
		},
		{
			"bufferView":1,
			"componentType":5126,
			"count":24,
			"type":"VEC3"
		},
		{
			"bufferView":2,
			"componentType":5126,
			"count":24,
			"type":"VEC2"
		},
		{
			"bufferView":3,
			"componentType":5123,
			"count":36,
			"type":"SCALAR"
		},
		{
			"bufferView":4,
			"componentType":5126,
			"count":2536,
			"max":[
				1.4450000524520874,
				0.029999999329447746,
				0.009000000543892384
			],
			"min":[
				-1.409999966621399,
				-0.029999999329447746,
				-0.6820000410079956
			],
			"type":"VEC3"
		},
		{
			"bufferView":5,
			"componentType":5126,
			"count":2536,
			"type":"VEC3"
		},
		{
			"bufferView":6,
			"componentType":5126,
			"count":2536,
			"type":"VEC2"
		},
		{
			"bufferView":7,
			"componentType":5123,
			"count":7464,
			"type":"SCALAR"
		},
		{
			"bufferView":8,
			"componentType":5126,
			"count":4,
			"max":[
				0.78125,
				0,
				0.5
			],
			"min":[
				-0.78125,
				0,
				-0.5
			],
			"type":"VEC3"
		},
		{
			"bufferView":9,
			"componentType":5126,
			"count":4,
			"type":"VEC3"
		},
		{
			"bufferView":10,
			"componentType":5126,
			"count":4,
			"type":"VEC2"
		},
		{
			"bufferView":11,
			"componentType":5123,
			"count":6,
			"type":"SCALAR"
		}
	],
	"bufferViews":[
		{
			"buffer":0,
			"byteLength":288,
			"byteOffset":0,
			"target":34962
		},
		{
			"buffer":0,
			"byteLength":288,
			"byteOffset":288,
			"target":34962
		},
		{
			"buffer":0,
			"byteLength":192,
			"byteOffset":576,
			"target":34962
		},
		{
			"buffer":0,
			"byteLength":72,
			"byteOffset":768,
			"target":34963
		},
		{
			"buffer":0,
			"byteLength":30432,
			"byteOffset":840,
			"target":34962
		},
		{
			"buffer":0,
			"byteLength":30432,
			"byteOffset":31272,
			"target":34962
		},
		{
			"buffer":0,
			"byteLength":20288,
			"byteOffset":61704,
			"target":34962
		},
		{
			"buffer":0,
			"byteLength":14928,
			"byteOffset":81992,
			"target":34963
		},
		{
			"buffer":0,
			"byteLength":48,
			"byteOffset":96920,
			"target":34962
		},
		{
			"buffer":0,
			"byteLength":48,
			"byteOffset":96968,
			"target":34962
		},
		{
			"buffer":0,
			"byteLength":32,
			"byteOffset":97016,
			"target":34962
		},
		{
			"buffer":0,
			"byteLength":12,
			"byteOffset":97048,
			"target":34963
		}
	],
	"samplers":[
		{
			"magFilter":9729,
			"minFilter":9987,
			"wrapS":33071,
			"wrapT":33071
		}
	],
	"buffers":[
		{
			"byteLength":97060,
			"uri":"bacillus.bin"
		}
	]
}
