{
	"asset":{
		"generator":"Khronos glTF Blender I/O v3.6.27",
		"version":"2.0"
	},
	"scene":0,
	"scenes":[
		{
			"name":"Scene",
			"nodes":[
				0,
				1,
				2
			]
		}
	],
	"nodes":[
		{
			"mesh":0,
			"name":"Cube.001",
			"scale":[
				1.0191447734832764,
				0.38192975521087646,
				0.10566527396440506
			],
			"translation":[
				-5.547425270080566,
				1.5180432796478271,
				0.5286133289337158
			]
		},
		{
			"mesh":1,
			"name":"Text.001",
			"rotation":[
				0.6846910119056702,
				0.008405092172324657,
				-0.017569584771990776,
				0.7285732626914978
			],
			"scale":[
				0.2183009386062622,
				0.07647952437400818,
				0.21805429458618164
			],
			"translation":[
				-5.555484294891357,
				1.6122568845748901,
				0.6842410564422607
			]
		},
		{
			"mesh":2,
			"name":"Bifidobacterium",
			"rotation":[
				0.7071042060852051,
				-0.0019110619323328137,
				0.0019110620487481356,
				0.7071042060852051
			],
			"scale":[
				1.9881069660186768,
				1.9881069660186768,
				1.6203557252883911
			],
			"translation":[
				-5.543447494506836,
				2.3816258907318115,
				0.488169401884079
			]
		}
	],
	"materials":[
		{
			"doubleSided":true,
			"name":"Material.002",
			"pbrMetallicRoughness":{
				"baseColorFactor":[
					0,
					0,
					0,
					1
				],
				"metallicFactor":0,
				"roughnessFactor":0.5
			}
		},
		{
			"alphaMode":"BLEND",
			"doubleSided":true,
			"name":"Bifidobacterium",
			"pbrMetallicRoughness":{
				"baseColorTexture":{
					"index":0
				},
				"metallicFactor":0,
				"roughnessFactor":0.5
			}
		}
	],
	"meshes":[
		{
			"name":"Cube.003",
			"primitives":[
				{
					"attributes":{
						"POSITION":0,
						"NORMAL":1,
						"TEXCOORD_0":2
					},
					"indices":3,
					"material":0
				}
			]
		},
		{
			"name":"Text.006",
			"primitives":[
				{
					"attributes":{
						"POSITION":4,
						"NORMAL":5,
						"TEXCOORD_0":6
					},
					"indices":7
				}
			]
		},
		{
			"name":"Bifidobacterium",
			"primitives":[
				{
					"attributes":{
						"POSITION":8,
						"NORMAL":9,
						"TEXCOORD_0":10
					},
					"indices":11,
					"material":1
				}
			]
		}
	],
	"textures":[
		{
			"sampler":0,
			"source":0
		}
	],
	"images":[
		{
			"mimeType":"image/png",
			"name":"Bifidobacterium",
			"uri":"Bifidobacterium.png"
		}
	],
	"accessors":[
		{
			"bufferView":0,
			"componentType":5126,
			"count":24,
			"max":[
				1,
				1,
				1
			],
			"min":[
				-1,
				-1,
				-1
			],
			"type":"VEC3"
		},
		{
			"bufferView":1,
			"componentType":5126,
			"count":24,
			"type":"VEC3"
		},
		{
			"bufferView":2,
			"componentType":5126,
			"count":24,
			"type":"VEC2"
		},
		{
			"bufferView":3,
			"componentType":5123,
			"count":36,
			"type":"SCALAR"
		},
		{
			"bufferView":4,
			"componentType":5126,
			"count":7087,
			"max":[
				2.9900002479553223,
				0.029999999329447746,
				1.0089999437332153
			],
			"min":[
				-3.251999855041504,
				-0.029999999329447746,
				-0.6914074420928955
			],
			"type":"VEC3"
		},
		{
			"bufferView":5,
			"componentType":5126,
			"count":7087,
			"type":"VEC3"
		},
		{
			"bufferView":6,
			"componentType":5126,
			"count":7087,
			"type":"VEC2"
		},
		{
			"bufferView":7,
			"componentType":5123,
			"count":20760,
			"type":"SCALAR"
		},
		{
			"bufferView":8,
			"componentType":5126,
			"count":4,
			"max":[
				0.5,
				0,
				0.5
			],
			"min":[
				-0.5,
				0,
				-0.5
			],
			"type":"VEC3"
		},
		{
			"bufferView":9,
			"componentType":5126,
			"count":4,
			"type":"VEC3"
		},
		{
			"bufferView":10,
			"componentType":5126,
			"count":4,
			"type":"VEC2"
		},
		{
			"bufferView":11,
			"componentType":5123,
			"count":6,
			"type":"SCALAR"
		}
	],
	"bufferViews":[
		{
			"buffer":0,
			"byteLength":288,
			"byteOffset":0,
			"target":34962
		},
		{
			"buffer":0,
			"byteLength":288,
			"byteOffset":288,
			"target":34962
		},
		{
			"buffer":0,
			"byteLength":192,
			"byteOffset":576,
			"target":34962
		},
		{
			"buffer":0,
			"byteLength":72,
			"byteOffset":768,
			"target":34963
		},
		{
			"buffer":0,
			"byteLength":85044,
			"byteOffset":840,
			"target":34962
		},
		{
			"buffer":0,
			"byteLength":85044,
			"byteOffset":85884,
			"target":34962
		},
		{
			"buffer":0,
			"byteLength":56696,
			"byteOffset":170928,
			"target":34962
		},
		{
			"buffer":0,
			"byteLength":41520,
			"byteOffset":227624,
			"target":34963
		},
		{
			"buffer":0,
			"byteLength":48,
			"byteOffset":269144,
			"target":34962
		},
		{
			"buffer":0,
			"byteLength":48,
			"byteOffset":269192,
			"target":34962
		},
		{
			"buffer":0,
			"byteLength":32,
			"byteOffset":269240,
			"target":34962
		},
		{
			"buffer":0,
			"byteLength":12,
			"byteOffset":269272,
			"target":34963
		}
	],
	"samplers":[
		{
			"magFilter":9729,
			"minFilter":9987,
			"wrapS":33071,
			"wrapT":33071
		}
	],
	"buffers":[
		{
			"byteLength":269284,
			"uri":"bifido.bin"
		}
	]
}
