{
	"asset":{
		"generator":"Khronos glTF Blender I/O v3.6.27",
		"version":"2.0"
	},
	"scene":0,
	"scenes":[
		{
			"name":"Scene",
			"nodes":[
				0,
				1,
				2
			]
		}
	],
	"nodes":[
		{
			"mesh":0,
			"name":"Cube.008",
			"scale":[
				1.0191447734832764,
				0.38192975521087646,
				0.10566527396440506
			],
			"translation":[
				-8.087921142578125,
				1.4700044393539429,
				0.5052127838134766
			]
		},
		{
			"mesh":1,
			"name":"Text",
			"rotation":[
				0.6846910119056702,
				0.008405092172324657,
				-0.017569584771990776,
				0.7285732626914978
			],
			"scale":[
				0.2183009386062622,
				0.07647952437400818,
				0.21805429458618164
			],
			"translation":[
				-8.095979690551758,
				1.5642180442810059,
				0.6608405113220215
			]
		},
		{
			"mesh":2,
			"name":"lactobacillus",
			"rotation":[
				0.003507668850943446,
				0.707098126411438,
				-0.707098126411438,
				0.003507668850943446
			],
			"scale":[
				1.362926721572876,
				1.362926721572876,
				1.3629266023635864
			],
			"translation":[
				-8.103374481201172,
				2.5143516063690186,
				0.4613614082336426
			]
		}
	],
	"materials":[
		{
			"doubleSided":true,
			"name":"Material.002",
			"pbrMetallicRoughness":{
				"baseColorFactor":[
					0,
					0,
					0,
					1
				],
				"metallicFactor":0,
				"roughnessFactor":0.5
			}
		},
		{
			"alphaMode":"BLEND",
			"doubleSided":true,
			"name":"lactobacillus",
			"pbrMetallicRoughness":{
				"baseColorTexture":{
					"index":0
				},
				"metallicFactor":0,
				"roughnessFactor":0.5
			}
		}
	],
	"meshes":[
		{
			"name":"Cube.008",
			"primitives":[
				{
					"attributes":{
						"POSITION":0,
						"NORMAL":1,
						"TEXCOORD_0":2
					},
					"indices":3,
					"material":0
				}
			]
		},
		{
			"name":"Text",
			"primitives":[
				{
					"attributes":{
						"POSITION":4,
						"NORMAL":5,
						"TEXCOORD_0":6
					},
					"indices":7
				}
			]
		},
		{
			"name":"lactobacillus",
			"primitives":[
				{
					"attributes":{
						"POSITION":8,
						"NORMAL":9,
						"TEXCOORD_0":10
					},
					"indices":11,
					"material":1
				}
			]
		}
	],
	"textures":[
		{
			"sampler":0,
			"source":0
		}
	],
	"images":[
		{
			"mimeType":"image/png",
			"name":"lactobacillus",
			"uri":"lactobacillus.png"
		}
	],
	"accessors":[
		{
			"bufferView":0,
			"componentType":5126,
			"count":24,
			"max":[
				1,
				1,
				1
			],
			"min":[
				-1,
				-1,
				-1
			],
			"type":"VEC3"
		},
		{
			"bufferView":1,
			"componentType":5126,
			"count":24,
			"type":"VEC3"
		},
		{
			"bufferView":2,
			"componentType":5126,
			"count":24,
			"type":"VEC2"
		},
		{
			"bufferView":3,
			"componentType":5123,
			"count":36,
			"type":"SCALAR"
		},
		{
			"bufferView":4,
			"componentType":5126,
			"count":7806,
			"max":[
				2.3945000171661377,
				0.029999999329447746,
				1.2300000190734863
			],
			"min":[
				-2.638500213623047,
				-0.029999999329447746,
				-0.6820000410079956
			],
			"type":"VEC3"
		},
		{
			"bufferView":5,
			"componentType":5126,
			"count":7806,
			"type":"VEC3"
		},
		{
			"bufferView":6,
			"componentType":5126,
			"count":7806,
			"type":"VEC2"
		},
		{
			"bufferView":7,
			"componentType":5123,
			"count":22968,
			"type":"SCALAR"
		},
		{
			"bufferView":8,
			"componentType":5126,
			"count":4,
			"max":[
				0.7063491940498352,
				0,
				0.5
			],
			"min":[
				-0.7063491940498352,
				0,
				-0.5
			],
			"type":"VEC3"
		},
		{
			"bufferView":9,
			"componentType":5126,
			"count":4,
			"type":"VEC3"
		},
		{
			"bufferView":10,
			"componentType":5126,
			"count":4,
			"type":"VEC2"
		},
		{
			"bufferView":11,
			"componentType":5123,
			"count":6,
			"type":"SCALAR"
		}
	],
	"bufferViews":[
		{
			"buffer":0,
			"byteLength":288,
			"byteOffset":0,
			"target":34962
		},
		{
			"buffer":0,
			"byteLength":288,
			"byteOffset":288,
			"target":34962
		},
		{
			"buffer":0,
			"byteLength":192,
			"byteOffset":576,
			"target":34962
		},
		{
			"buffer":0,
			"byteLength":72,
			"byteOffset":768,
			"target":34963
		},
		{
			"buffer":0,
			"byteLength":93672,
			"byteOffset":840,
			"target":34962
		},
		{
			"buffer":0,
			"byteLength":93672,
			"byteOffset":94512,
			"target":34962
		},
		{
			"buffer":0,
			"byteLength":62448,
			"byteOffset":188184,
			"target":34962
		},
		{
			"buffer":0,
			"byteLength":45936,
			"byteOffset":250632,
			"target":34963
		},
		{
			"buffer":0,
			"byteLength":48,
			"byteOffset":296568,
			"target":34962
		},
		{
			"buffer":0,
			"byteLength":48,
			"byteOffset":296616,
			"target":34962
		},
		{
			"buffer":0,
			"byteLength":32,
			"byteOffset":296664,
			"target":34962
		},
		{
			"buffer":0,
			"byteLength":12,
			"byteOffset":296696,
			"target":34963
		}
	],
	"samplers":[
		{
			"magFilter":9729,
			"minFilter":9987,
			"wrapS":33071,
			"wrapT":33071
		}
	],
	"buffers":[
		{
			"byteLength":296708,
			"uri":"lacto.bin"
		}
	]
}
