{
	"asset":{
		"generator":"Khronos glTF Blender I/O v3.6.27",
		"version":"2.0"
	},
	"scene":0,
	"scenes":[
		{
			"name":"Scene",
			"nodes":[
				0,
				1,
				2
			]
		}
	],
	"nodes":[
		{
			"mesh":0,
			"name":"Cube.003",
			"scale":[
				1.0191447734832764,
				0.38192975521087646,
				0.10566527396440506
			],
			"translation":[
				0.003978341817855835,
				1.63499116897583,
				0.6346207857131958
			]
		},
		{
			"mesh":1,
			"name":"Text.003",
			"rotation":[
				0.6846910119056702,
				0.008405092172324657,
				-0.017569584771990776,
				0.7285732626914978
			],
			"scale":[
				0.2183009386062622,
				0.07647952437400818,
				0.21805429458618164
			],
			"translation":[
				-0.004080682992935181,
				1.6294963359832764,
				0.7902485132217407
			]
		},
		{
			"mesh":2,
			"name":"Rhizobium1",
			"rotation":[
				0.7070843577384949,
				0.005630834028124809,
				-0.005630834028124809,
				0.7070843577384949
			],
			"scale":[
				1.5785375833511353,
				1.5785375833511353,
				1.5785373449325562
			],
			"translation":[
				0,
				2.4878005981445312,
				0.5776424407958984
			]
		}
	],
	"materials":[
		{
			"doubleSided":true,
			"name":"Material.002",
			"pbrMetallicRoughness":{
				"baseColorFactor":[
					0,
					0,
					0,
					1
				],
				"metallicFactor":0,
				"roughnessFactor":0.5
			}
		},
		{
			"alphaMode":"BLEND",
			"doubleSided":true,
			"name":"Rhizobium1",
			"pbrMetallicRoughness":{
				"baseColorTexture":{
					"index":0
				},
				"metallicFactor":0,
				"roughnessFactor":0.5
			}
		}
	],
	"meshes":[
		{
			"name":"Cube.010",
			"primitives":[
				{
					"attributes":{
						"POSITION":0,
						"NORMAL":1,
						"TEXCOORD_0":2
					},
					"indices":3,
					"material":0
				}
			]
		},
		{
			"name":"Text.014",
			"primitives":[
				{
					"attributes":{
						"POSITION":4,
						"NORMAL":5,
						"TEXCOORD_0":6
					},
					"indices":7
				}
			]
		},
		{
			"name":"Rhizobium1.001",
			"primitives":[
				{
					"attributes":{
						"POSITION":8,
						"NORMAL":9,
						"TEXCOORD_0":10
					},
					"indices":11,
					"material":1
				}
			]
		}
	],
	"textures":[
		{
			"sampler":0,
			"source":0
		}
	],
	"images":[
		{
			"mimeType":"image/png",
			"name":"Rhizobium1.png",
			"uri":"Rhizobium1.png"
		}
	],
	"accessors":[
		{
			"bufferView":0,
			"componentType":5126,
			"count":24,
			"max":[
				1,
				1,
				1
			],
			"min":[
				-1,
				-1,
				-1
			],
			"type":"VEC3"
		},
		{
			"bufferView":1,
			"componentType":5126,
			"count":24,
			"type":"VEC3"
		},
		{
			"bufferView":2,
			"componentType":5126,
			"count":24,
			"type":"VEC2"
		},
		{
			"bufferView":3,
			"componentType":5123,
			"count":36,
			"type":"SCALAR"
		},
		{
			"bufferView":4,
			"componentType":5126,
			"count":2516,
			"max":[
				2.082000255584717,
				0.029999999329447746,
				0.009000000543892384
			],
			"min":[
				-2.064000368118286,
				-0.029999999329447746,
				-0.6820000410079956
			],
			"type":"VEC3"
		},
		{
			"bufferView":5,
			"componentType":5126,
			"count":2516,
			"type":"VEC3"
		},
		{
			"bufferView":6,
			"componentType":5126,
			"count":2516,
			"type":"VEC2"
		},
		{
			"bufferView":7,
			"componentType":5123,
			"count":7368,
			"type":"SCALAR"
		},
		{
			"bufferView":8,
			"componentType":5126,
			"count":4,
			"max":[
				0.6506211161613464,
				0,
				0.5
			],
			"min":[
				-0.6506211161613464,
				0,
				-0.5
			],
			"type":"VEC3"
		},
		{
			"bufferView":9,
			"componentType":5126,
			"count":4,
			"type":"VEC3"
		},
		{
			"bufferView":10,
			"componentType":5126,
			"count":4,
			"type":"VEC2"
		},
		{
			"bufferView":11,
			"componentType":5123,
			"count":6,
			"type":"SCALAR"
		}
	],
	"bufferViews":[
		{
			"buffer":0,
			"byteLength":288,
			"byteOffset":0,
			"target":34962
		},
		{
			"buffer":0,
			"byteLength":288,
			"byteOffset":288,
			"target":34962
		},
		{
			"buffer":0,
			"byteLength":192,
			"byteOffset":576,
			"target":34962
		},
		{
			"buffer":0,
			"byteLength":72,
			"byteOffset":768,
			"target":34963
		},
		{
			"buffer":0,
			"byteLength":30192,
			"byteOffset":840,
			"target":34962
		},
		{
			"buffer":0,
			"byteLength":30192,
			"byteOffset":31032,
			"target":34962
		},
		{
			"buffer":0,
			"byteLength":20128,
			"byteOffset":61224,
			"target":34962
		},
		{
			"buffer":0,
			"byteLength":14736,
			"byteOffset":81352,
			"target":34963
		},
		{
			"buffer":0,
			"byteLength":48,
			"byteOffset":96088,
			"target":34962
		},
		{
			"buffer":0,
			"byteLength":48,
			"byteOffset":96136,
			"target":34962
		},
		{
			"buffer":0,
			"byteLength":32,
			"byteOffset":96184,
			"target":34962
		},
		{
			"buffer":0,
			"byteLength":12,
			"byteOffset":96216,
			"target":34963
		}
	],
	"samplers":[
		{
			"magFilter":9729,
			"minFilter":9987,
			"wrapS":33071,
			"wrapT":33071
		}
	],
	"buffers":[
		{
			"byteLength":96228,
			"uri":"rhizobium.bin"
		}
	]
}
