{
	"asset":{
		"generator":"Khronos glTF Blender I/O v3.6.27",
		"version":"2.0"
	},
	"scene":0,
	"scenes":[
		{
			"name":"Scene",
			"nodes":[
				0,
				1,
				2
			]
		}
	],
	"nodes":[
		{
			"mesh":0,
			"name":"Cube.002",
			"scale":[
				1.0191447734832764,
				0.38192975521087646,
				0.10566527396440506
			],
			"translation":[
				-2.8088490962982178,
				1.561811923980713,
				0.6137843132019043
			]
		},
		{
			"mesh":1,
			"name":"Text.002",
			"rotation":[
				0.6846910119056702,
				0.008405092172324657,
				-0.017569584771990776,
				0.7285732626914978
			],
			"scale":[
				0.2183009386062622,
				0.07647952437400818,
				0.21805429458618164
			],
			"translation":[
				-2.816908121109009,
				1.7262686491012573,
				0.7694120407104492
			]
		},
		{
			"mesh":2,
			"name":"Streptococcus-thermophilus",
			"rotation":[
				0.7071068286895752,
				3.0514322133967653e-05,
				-3.0514323952957056e-05,
				0.7071068286895752
			],
			"scale":[
				1.3562380075454712,
				1.427481770515442,
				1.5994067192077637
			],
			"translation":[
				-2.8094425201416016,
				2.4825987815856934,
				0.4884316623210907
			]
		}
	],
	"materials":[
		{
			"doubleSided":true,
			"name":"Material.002",
			"pbrMetallicRoughness":{
				"baseColorFactor":[
					0,
					0,
					0,
					1
				],
				"metallicFactor":0,
				"roughnessFactor":0.5
			}
		},
		{
			"alphaMode":"BLEND",
			"doubleSided":true,
			"name":"Streptococcus-thermophilus",
			"pbrMetallicRoughness":{
				"baseColorTexture":{
					"index":0
				},
				"metallicFactor":0,
				"roughnessFactor":0.5
			}
		}
	],
	"meshes":[
		{
			"name":"Cube.009",
			"primitives":[
				{
					"attributes":{
						"POSITION":0,
						"NORMAL":1,
						"TEXCOORD_0":2
					},
					"indices":3,
					"material":0
				}
			]
		},
		{
			"name":"Text.007",
			"primitives":[
				{
					"attributes":{
						"POSITION":4,
						"NORMAL":5,
						"TEXCOORD_0":6
					},
					"indices":7
				}
			]
		},
		{
			"name":"Streptococcus-thermophilus",
			"primitives":[
				{
					"attributes":{
						"POSITION":8,
						"NORMAL":9,
						"TEXCOORD_0":10
					},
					"indices":11,
					"material":1
				}
			]
		}
	],
	"textures":[
		{
			"sampler":0,
			"source":0
		}
	],
	"images":[
		{
			"mimeType":"image/png",
			"name":"Streptococcus-thermophilus",
			"uri":"Streptococcus-thermophilus.png"
		}
	],
	"accessors":[
		{
			"bufferView":0,
			"componentType":5126,
			"count":24,
			"max":[
				1,
				1,
				1
			],
			"min":[
				-1,
				-1,
				-1
			],
			"type":"VEC3"
		},
		{
			"bufferView":1,
			"componentType":5126,
			"count":24,
			"type":"VEC3"
		},
		{
			"bufferView":2,
			"componentType":5126,
			"count":24,
			"type":"VEC2"
		},
		{
			"bufferView":3,
			"componentType":5123,
			"count":36,
			"type":"SCALAR"
		},
		{
			"bufferView":4,
			"componentType":5126,
			"count":8076,
			"max":[
				2.7220003604888916,
				0.029999999329447746,
				1.2300000190734863
			],
			"min":[
				-3.000000476837158,
				-0.029999999329447746,
				-0.6910000443458557
			],
			"type":"VEC3"
		},
		{
			"bufferView":5,
			"componentType":5126,
			"count":8076,
			"type":"VEC3"
		},
		{
			"bufferView":6,
			"componentType":5126,
			"count":8076,
			"type":"VEC2"
		},
		{
			"bufferView":7,
			"componentType":5123,
			"count":23760,
			"type":"SCALAR"
		},
		{
			"bufferView":8,
			"componentType":5126,
			"count":4,
			"max":[
				0.7492492198944092,
				0,
				0.5
			],
			"min":[
				-0.7492492198944092,
				0,
				-0.5
			],
			"type":"VEC3"
		},
		{
			"bufferView":9,
			"componentType":5126,
			"count":4,
			"type":"VEC3"
		},
		{
			"bufferView":10,
			"componentType":5126,
			"count":4,
			"type":"VEC2"
		},
		{
			"bufferView":11,
			"componentType":5123,
			"count":6,
			"type":"SCALAR"
		}
	],
	"bufferViews":[
		{
			"buffer":0,
			"byteLength":288,
			"byteOffset":0,
			"target":34962
		},
		{
			"buffer":0,
			"byteLength":288,
			"byteOffset":288,
			"target":34962
		},
		{
			"buffer":0,
			"byteLength":192,
			"byteOffset":576,
			"target":34962
		},
		{
			"buffer":0,
			"byteLength":72,
			"byteOffset":768,
			"target":34963
		},
		{
			"buffer":0,
			"byteLength":96912,
			"byteOffset":840,
			"target":34962
		},
		{
			"buffer":0,
			"byteLength":96912,
			"byteOffset":97752,
			"target":34962
		},
		{
			"buffer":0,
			"byteLength":64608,
			"byteOffset":194664,
			"target":34962
		},
		{
			"buffer":0,
			"byteLength":47520,
			"byteOffset":259272,
			"target":34963
		},
		{
			"buffer":0,
			"byteLength":48,
			"byteOffset":306792,
			"target":34962
		},
		{
			"buffer":0,
			"byteLength":48,
			"byteOffset":306840,
			"target":34962
		},
		{
			"buffer":0,
			"byteLength":32,
			"byteOffset":306888,
			"target":34962
		},
		{
			"buffer":0,
			"byteLength":12,
			"byteOffset":306920,
			"target":34963
		}
	],
	"samplers":[
		{
			"magFilter":9729,
			"minFilter":9987,
			"wrapS":33071,
			"wrapT":33071
		}
	],
	"buffers":[
		{
			"byteLength":306932,
			"uri":"st.bin"
		}
	]
}
