{
	"asset":{
		"generator":"Khronos glTF Blender I/O v4.0.43",
		"version":"2.0"
	},
	"scene":0,
	"scenes":[
		{
			"name":"Scene",
			"nodes":[
				0,
				1
			]
		}
	],
	"nodes":[
		{
			"mesh":0,
			"name":"Cube",
			"scale":[
				3.4608957767486572,
				0.4100112020969391,
				0.10159033536911011
			],
			"translation":[
				0.2192210704088211,
				0.9465157389640808,
				-0.38675859570503235
			]
		},
		{
			"mesh":1,
			"name":"Text",
			"rotation":[
				0.7071068286895752,
				0,
				0,
				0.7071068286895752
			],
			"scale":[
				0.6498145461082458,
				1,
				0.6498145461082458
			],
			"translation":[
				-2.042405605316162,
				0.7499276995658875,
				-0.1708172708749771
			]
		}
	],
	"materials":[
		{
			"doubleSided":true,
			"name":"Material.048",
			"pbrMetallicRoughness":{
				"baseColorFactor":[
					0.04224201664328575,
					0.04224201664328575,
					0.04224201664328575,
					1
				],
				"metallicFactor":0,
				"roughnessFactor":0.5
			}
		}
	],
	"meshes":[
		{
			"name":"Cube.002",
			"primitives":[
				{
					"attributes":{
						"POSITION":0,
						"NORMAL":1,
						"TEXCOORD_0":2
					},
					"indices":3
				}
			]
		},
		{
			"name":"Text.008",
			"primitives":[
				{
					"attributes":{
						"POSITION":4,
						"NORMAL":5,
						"TEXCOORD_0":6
					},
					"indices":7,
					"material":0
				}
			]
		}
	],
	"accessors":[
		{
			"bufferView":0,
			"componentType":5126,
			"count":24,
			"max":[
				1,
				1,
				1
			],
			"min":[
				-1,
				-1,
				-1
			],
			"type":"VEC3"
		},
		{
			"bufferView":1,
			"componentType":5126,
			"count":24,
			"type":"VEC3"
		},
		{
			"bufferView":2,
			"componentType":5126,
			"count":24,
			"type":"VEC2"
		},
		{
			"bufferView":3,
			"componentType":5123,
			"count":36,
			"type":"SCALAR"
		},
		{
			"bufferView":4,
			"componentType":5126,
			"count":5831,
			"max":[
				7.998000621795654,
				0.03800000250339508,
				0.23000000417232513
			],
			"min":[
				0.04800000041723251,
				-0.03800000250339508,
				-0.6910000443458557
			],
			"type":"VEC3"
		},
		{
			"bufferView":5,
			"componentType":5126,
			"count":5831,
			"type":"VEC3"
		},
		{
			"bufferView":6,
			"componentType":5126,
			"count":5831,
			"type":"VEC2"
		},
		{
			"bufferView":7,
			"componentType":5123,
			"count":17148,
			"type":"SCALAR"
		}
	],
	"bufferViews":[
		{
			"buffer":0,
			"byteLength":288,
			"byteOffset":0,
			"target":34962
		},
		{
			"buffer":0,
			"byteLength":288,
			"byteOffset":288,
			"target":34962
		},
		{
			"buffer":0,
			"byteLength":192,
			"byteOffset":576,
			"target":34962
		},
		{
			"buffer":0,
			"byteLength":72,
			"byteOffset":768,
			"target":34963
		},
		{
			"buffer":0,
			"byteLength":69972,
			"byteOffset":840,
			"target":34962
		},
		{
			"buffer":0,
			"byteLength":69972,
			"byteOffset":70812,
			"target":34962
		},
		{
			"buffer":0,
			"byteLength":46648,
			"byteOffset":140784,
			"target":34962
		},
		{
			"buffer":0,
			"byteLength":34296,
			"byteOffset":187432,
			"target":34963
		}
	],
	"buffers":[
		{
			"byteLength":221728,
			"uri":"respo.bin"
		}
	]
}
