{
	"asset":{
		"generator":"Khronos glTF Blender I/O v3.6.27",
		"version":"2.0"
	},
	"scene":0,
	"scenes":[
		{
			"name":"Scene",
			"nodes":[
				0,
				1,
				2,
				3,
				4,
				5,
				6,
				7,
				8,
				9
			]
		}
	],
	"nodes":[
		{
			"mesh":0,
			"name":"Remesh",
			"rotation":[
				0.70710688829422,
				0,
				0,
				0.7071066498756409
			],
			"scale":[
				9.511913049209397e-06,
				1.0247435056953691e-05,
				8.060420100264309e-07
			],
			"translation":[
				0.001820240169763565,
				0.1558740735054016,
				0.018878156319260597
			]
		},
		{
			"mesh":1,
			"name":"Cube.028",
			"scale":[
				0.03995003178715706,
				8.06041953183012e-06,
				0.010247429832816124
			],
			"translation":[
				-0.0003027208149433136,
				0.15584364533424377,
				0.021290184929966927
			]
		},
		{
			"mesh":2,
			"name":"focus stop",
			"translation":[
				0,
				0.15145893394947052,
				-0.04829024896025658
			]
		},
		{
			"mesh":3,
			"name":"rail",
			"translation":[
				0.031725216656923294,
				0.15015257894992828,
				-0.01466725580394268
			]
		},
		{
			"mesh":4,
			"name":"tray",
			"translation":[
				0,
				0.1502213031053543,
				0.027300667017698288
			]
		},
		{
			"mesh":5,
			"name":"tray2",
			"translation":[
				0,
				0.13845081627368927,
				0.022499267011880875
			]
		},
		{
			"mesh":6,
			"name":"slide holder",
			"translation":[
				-0.004162479192018509,
				0.15483500063419342,
				0.03486059233546257
			]
		},
		{
			"mesh":7,
			"name":"slideholder2",
			"translation":[
				-0.048386100679636,
				0.1555287390947342,
				0.021001460030674934
			]
		},
		{
			"mesh":8,
			"name":"Cylinder.001",
			"translation":[
				-0.05216147378087044,
				0.16027678549289703,
				-0.007256210781633854
			]
		},
		{
			"mesh":9,
			"name":"condenser",
			"translation":[
				0,
				0.13506688177585602,
				0.01805155538022518
			]
		}
	],
	"materials":[
		{
			"doubleSided":true,
			"name":"Material.011",
			"pbrMetallicRoughness":{
				"baseColorFactor":[
					0.801857590675354,
					0,
					0.00041382803465239704,
					1
				],
				"metallicFactor":0,
				"roughnessFactor":0.5
			}
		},
		{
			"doubleSided":true,
			"name":"Material.010",
			"pbrMetallicRoughness":{
				"baseColorFactor":[
					0.26310232281684875,
					0.27044662833213806,
					0.24352115392684937,
					1
				],
				"metallicFactor":0,
				"roughnessFactor":0
			}
		},
		{
			"doubleSided":true,
			"name":"metal.002",
			"pbrMetallicRoughness":{
				"baseColorFactor":[
					0.5925782918930054,
					0.5925782918930054,
					0.5925782918930054,
					1
				],
				"roughnessFactor":0.4833333194255829
			}
		},
		{
			"doubleSided":true,
			"name":"black plastic",
			"pbrMetallicRoughness":{
				"baseColorFactor":[
					0.0056046294048428535,
					0.0056046294048428535,
					0.0056046294048428535,
					1
				],
				"metallicFactor":0,
				"roughnessFactor":0.6166667342185974
			}
		},
		{
			"doubleSided":true,
			"name":"metal.004",
			"pbrMetallicRoughness":{
				"baseColorFactor":[
					0.5925782918930054,
					0.5925782918930054,
					0.5925782918930054,
					1
				],
				"roughnessFactor":0.4833333194255829
			}
		},
		{
			"doubleSided":true,
			"name":"metal.003",
			"pbrMetallicRoughness":{
				"baseColorFactor":[
					0.5925782918930054,
					0.5925782918930054,
					0.5925782918930054,
					1
				],
				"roughnessFactor":0.4833333194255829
			}
		},
		{
			"doubleSided":true,
			"name":"glass",
			"pbrMetallicRoughness":{
				"baseColorFactor":[
					0.38437479734420776,
					0.3731274902820587,
					0.3731274902820587,
					1
				],
				"metallicFactor":0,
				"roughnessFactor":0
			}
		}
	],
	"meshes":[
		{
			"name":"Mesh",
			"primitives":[
				{
					"attributes":{
						"POSITION":0,
						"NORMAL":1,
						"TEXCOORD_0":2
					},
					"indices":3,
					"material":0
				}
			]
		},
		{
			"name":"Cube.022",
			"primitives":[
				{
					"attributes":{
						"POSITION":4,
						"NORMAL":5,
						"TEXCOORD_0":6
					},
					"indices":7,
					"material":1
				}
			]
		},
		{
			"name":"Cylinder.008",
			"primitives":[
				{
					"attributes":{
						"POSITION":8,
						"NORMAL":9,
						"TEXCOORD_0":10
					},
					"indices":11,
					"material":2
				}
			]
		},
		{
			"name":"Cube.008",
			"primitives":[
				{
					"attributes":{
						"POSITION":12,
						"NORMAL":13,
						"TEXCOORD_0":14
					},
					"indices":15,
					"material":3
				}
			]
		},
		{
			"name":"Cube.003",
			"primitives":[
				{
					"attributes":{
						"POSITION":16,
						"NORMAL":17,
						"TEXCOORD_0":18
					},
					"indices":19,
					"material":3
				}
			]
		},
		{
			"name":"Cube.004",
			"primitives":[
				{
					"attributes":{
						"POSITION":20,
						"NORMAL":21,
						"TEXCOORD_0":22
					},
					"indices":23,
					"material":3
				}
			]
		},
		{
			"name":"Plane",
			"primitives":[
				{
					"attributes":{
						"POSITION":24,
						"NORMAL":25,
						"TEXCOORD_0":26
					},
					"indices":27,
					"material":4
				}
			]
		},
		{
			"name":"Plane.001",
			"primitives":[
				{
					"attributes":{
						"POSITION":28,
						"NORMAL":29,
						"TEXCOORD_0":30
					},
					"indices":31,
					"material":5
				}
			]
		},
		{
			"name":"Cylinder.004",
			"primitives":[
				{
					"attributes":{
						"POSITION":32,
						"NORMAL":33,
						"TEXCOORD_0":34
					},
					"indices":35,
					"material":2
				}
			]
		},
		{
			"name":"Cylinder.014",
			"primitives":[
				{
					"attributes":{
						"POSITION":36,
						"NORMAL":37,
						"TEXCOORD_0":38
					},
					"indices":39,
					"material":3
				},
				{
					"attributes":{
						"POSITION":40,
						"NORMAL":41,
						"TEXCOORD_0":42
					},
					"indices":43,
					"material":6
				},
				{
					"attributes":{
						"POSITION":44,
						"NORMAL":45,
						"TEXCOORD_0":46
					},
					"indices":47,
					"material":2
				}
			]
		}
	],
	"accessors":[
		{
			"bufferView":0,
			"componentType":5126,
			"count":23139,
			"max":[
				387.62127685546875,
				1059.021484375,
				36.1993408203125
			],
			"min":[
				-960.9020385742188,
				-554.4155883789062,
				-73.18682861328125
			],
			"type":"VEC3"
		},
		{
			"bufferView":1,
			"componentType":5126,
			"count":23139,
			"type":"VEC3"
		},
		{
			"bufferView":2,
			"componentType":5126,
			"count":23139,
			"type":"VEC2"
		},
		{
			"bufferView":3,
			"componentType":5123,
			"count":131856,
			"type":"SCALAR"
		},
		{
			"bufferView":4,
			"componentType":5126,
			"count":24,
			"max":[
				1,
				1,
				1
			],
			"min":[
				-1,
				-1,
				-1
			],
			"type":"VEC3"
		},
		{
			"bufferView":5,
			"componentType":5126,
			"count":24,
			"type":"VEC3"
		},
		{
			"bufferView":6,
			"componentType":5126,
			"count":24,
			"type":"VEC2"
		},
		{
			"bufferView":7,
			"componentType":5123,
			"count":36,
			"type":"SCALAR"
		},
		{
			"bufferView":8,
			"componentType":5126,
			"count":386,
			"max":[
				0.004000000189989805,
				0.016716472804546356,
				0.004000000189989805
			],
			"min":[
				-0.004000000189989805,
				-0.0020000000949949026,
				-0.004000000189989805
			],
			"type":"VEC3"
		},
		{
			"bufferView":9,
			"componentType":5126,
			"count":386,
			"type":"VEC3"
		},
		{
			"bufferView":10,
			"componentType":5126,
			"count":386,
			"type":"VEC2"
		},
		{
			"bufferView":11,
			"componentType":5123,
			"count":1242,
			"type":"SCALAR"
		},
		{
			"bufferView":12,
			"componentType":5126,
			"count":96,
			"max":[
				0.07000000029802322,
				0.005001239478588104,
				0.007278012577444315
			],
			"min":[
				-0.07000000029802322,
				-0.00500122457742691,
				-0.007278005592525005
			],
			"type":"VEC3"
		},
		{
			"bufferView":13,
			"componentType":5126,
			"count":96,
			"type":"VEC3"
		},
		{
			"bufferView":14,
			"componentType":5126,
			"count":96,
			"type":"VEC2"
		},
		{
			"bufferView":15,
			"componentType":5123,
			"count":180,
			"type":"SCALAR"
		},
		{
			"bufferView":16,
			"componentType":5126,
			"count":224,
			"max":[
				0,
				0.005020428448915482,
				0.0573766827583313
			],
			"min":[
				-0.06268354505300522,
				-0.01103646494448185,
				-0.057466354221105576
			],
			"type":"VEC3"
		},
		{
			"bufferView":17,
			"componentType":5126,
			"count":224,
			"type":"VEC3"
		},
		{
			"bufferView":18,
			"componentType":5126,
			"count":224,
			"type":"VEC2"
		},
		{
			"bufferView":19,
			"componentType":5123,
			"count":681,
			"type":"SCALAR"
		},
		{
			"bufferView":20,
			"componentType":5126,
			"count":154,
			"max":[
				0.03891134262084961,
				0.0066537256352603436,
				0.05490922927856445
			],
			"min":[
				-0.03891134262084961,
				0.0005094497464597225,
				-0.05490922927856445
			],
			"type":"VEC3"
		},
		{
			"bufferView":21,
			"componentType":5126,
			"count":154,
			"type":"VEC3"
		},
		{
			"bufferView":22,
			"componentType":5126,
			"count":154,
			"type":"VEC2"
		},
		{
			"bufferView":23,
			"componentType":5123,
			"count":432,
			"type":"SCALAR"
		},
		{
			"bufferView":24,
			"componentType":5126,
			"count":1082,
			"max":[
				0.057500001043081284,
				0.002065082546323538,
				-0.018354244530200958
			],
			"min":[
				-0.031026393175125122,
				-7.723679300397635e-05,
				-0.05750000476837158
			],
			"type":"VEC3"
		},
		{
			"bufferView":25,
			"componentType":5126,
			"count":1082,
			"type":"VEC3"
		},
		{
			"bufferView":26,
			"componentType":5126,
			"count":1082,
			"type":"VEC2"
		},
		{
			"bufferView":27,
			"componentType":5123,
			"count":4824,
			"type":"SCALAR"
		},
		{
			"bufferView":28,
			"componentType":5126,
			"count":612,
			"max":[
				0.03133883699774742,
				0.002832712372764945,
				0.028710534796118736
			],
			"min":[
				-0.02539840340614319,
				-0.000424471334554255,
				-0.04037872701883316
			],
			"type":"VEC3"
		},
		{
			"bufferView":29,
			"componentType":5126,
			"count":612,
			"type":"VEC3"
		},
		{
			"bufferView":30,
			"componentType":5126,
			"count":612,
			"type":"VEC2"
		},
		{
			"bufferView":31,
			"componentType":5123,
			"count":2424,
			"type":"SCALAR"
		},
		{
			"bufferView":32,
			"componentType":5126,
			"count":560,
			"max":[
				0.008378013037145138,
				0.0027926694601774216,
				0.008378012105822563
			],
			"min":[
				-0.008378011174499989,
				-0.0027926715556532145,
				-0.008378012105822563
			],
			"type":"VEC3"
		},
		{
			"bufferView":33,
			"componentType":5126,
			"count":560,
			"type":"VEC3"
		},
		{
			"bufferView":34,
			"componentType":5126,
			"count":560,
			"type":"VEC2"
		},
		{
			"bufferView":35,
			"componentType":5123,
			"count":2394,
			"type":"SCALAR"
		},
		{
			"bufferView":36,
			"componentType":5126,
			"count":990,
			"max":[
				0.024986490607261658,
				0.02030831202864647,
				0.02498648874461651
			],
			"min":[
				-0.02498648874461651,
				-0.027060750871896744,
				-0.024986490607261658
			],
			"type":"VEC3"
		},
		{
			"bufferView":37,
			"componentType":5126,
			"count":990,
			"type":"VEC3"
		},
		{
			"bufferView":38,
			"componentType":5126,
			"count":990,
			"type":"VEC2"
		},
		{
			"bufferView":39,
			"componentType":5123,
			"count":3072,
			"type":"SCALAR"
		},
		{
			"bufferView":40,
			"componentType":5126,
			"count":32,
			"max":[
				0.007413782179355621,
				0.019863499328494072,
				0.007413781713694334
			],
			"min":[
				-0.007413782179355621,
				0.019863499328494072,
				-0.007413783110678196
			],
			"type":"VEC3"
		},
		{
			"bufferView":41,
			"componentType":5126,
			"count":32,
			"type":"VEC3"
		},
		{
			"bufferView":42,
			"componentType":5126,
			"count":32,
			"type":"VEC2"
		},
		{
			"bufferView":43,
			"componentType":5123,
			"count":90,
			"type":"SCALAR"
		},
		{
			"bufferView":44,
			"componentType":5126,
			"count":231,
			"max":[
				0.026141250506043434,
				-0.011754075065255165,
				0.026141250506043434
			],
			"min":[
				-0.026141250506043434,
				-0.01481391116976738,
				-0.026141252368688583
			],
			"type":"VEC3"
		},
		{
			"bufferView":45,
			"componentType":5126,
			"count":231,
			"type":"VEC3"
		},
		{
			"bufferView":46,
			"componentType":5126,
			"count":231,
			"type":"VEC2"
		},
		{
			"bufferView":47,
			"componentType":5123,
			"count":768,
			"type":"SCALAR"
		}
	],
	"bufferViews":[
		{
			"buffer":0,
			"byteLength":277668,
			"byteOffset":0,
			"target":34962
		},
		{
			"buffer":0,
			"byteLength":277668,
			"byteOffset":277668,
			"target":34962
		},
		{
			"buffer":0,
			"byteLength":185112,
			"byteOffset":555336,
			"target":34962
		},
		{
			"buffer":0,
			"byteLength":263712,
			"byteOffset":740448,
			"target":34963
		},
		{
			"buffer":0,
			"byteLength":288,
			"byteOffset":1004160,
			"target":34962
		},
		{
			"buffer":0,
			"byteLength":288,
			"byteOffset":1004448,
			"target":34962
		},
		{
			"buffer":0,
			"byteLength":192,
			"byteOffset":1004736,
			"target":34962
		},
		{
			"buffer":0,
			"byteLength":72,
			"byteOffset":1004928,
			"target":34963
		},
		{
			"buffer":0,
			"byteLength":4632,
			"byteOffset":1005000,
			"target":34962
		},
		{
			"buffer":0,
			"byteLength":4632,
			"byteOffset":1009632,
			"target":34962
		},
		{
			"buffer":0,
			"byteLength":3088,
			"byteOffset":1014264,
			"target":34962
		},
		{
			"buffer":0,
			"byteLength":2484,
			"byteOffset":1017352,
			"target":34963
		},
		{
			"buffer":0,
			"byteLength":1152,
			"byteOffset":1019836,
			"target":34962
		},
		{
			"buffer":0,
			"byteLength":1152,
			"byteOffset":1020988,
			"target":34962
		},
		{
			"buffer":0,
			"byteLength":768,
			"byteOffset":1022140,
			"target":34962
		},
		{
			"buffer":0,
			"byteLength":360,
			"byteOffset":1022908,
			"target":34963
		},
		{
			"buffer":0,
			"byteLength":2688,
			"byteOffset":1023268,
			"target":34962
		},
		{
			"buffer":0,
			"byteLength":2688,
			"byteOffset":1025956,
			"target":34962
		},
		{
			"buffer":0,
			"byteLength":1792,
			"byteOffset":1028644,
			"target":34962
		},
		{
			"buffer":0,
			"byteLength":1362,
			"byteOffset":1030436,
			"target":34963
		},
		{
			"buffer":0,
			"byteLength":1848,
			"byteOffset":1031800,
			"target":34962
		},
		{
			"buffer":0,
			"byteLength":1848,
			"byteOffset":1033648,
			"target":34962
		},
		{
			"buffer":0,
			"byteLength":1232,
			"byteOffset":1035496,
			"target":34962
		},
		{
			"buffer":0,
			"byteLength":864,
			"byteOffset":1036728,
			"target":34963
		},
		{
			"buffer":0,
			"byteLength":12984,
			"byteOffset":1037592,
			"target":34962
		},
		{
			"buffer":0,
			"byteLength":12984,
			"byteOffset":1050576,
			"target":34962
		},
		{
			"buffer":0,
			"byteLength":8656,
			"byteOffset":1063560,
			"target":34962
		},
		{
			"buffer":0,
			"byteLength":9648,
			"byteOffset":1072216,
			"target":34963
		},
		{
			"buffer":0,
			"byteLength":7344,
			"byteOffset":1081864,
			"target":34962
		},
		{
			"buffer":0,
			"byteLength":7344,
			"byteOffset":1089208,
			"target":34962
		},
		{
			"buffer":0,
			"byteLength":4896,
			"byteOffset":1096552,
			"target":34962
		},
		{
			"buffer":0,
			"byteLength":4848,
			"byteOffset":1101448,
			"target":34963
		},
		{
			"buffer":0,
			"byteLength":6720,
			"byteOffset":1106296,
			"target":34962
		},
		{
			"buffer":0,
			"byteLength":6720,
			"byteOffset":1113016,
			"target":34962
		},
		{
			"buffer":0,
			"byteLength":4480,
			"byteOffset":1119736,
			"target":34962
		},
		{
			"buffer":0,
			"byteLength":4788,
			"byteOffset":1124216,
			"target":34963
		},
		{
			"buffer":0,
			"byteLength":11880,
			"byteOffset":1129004,
			"target":34962
		},
		{
			"buffer":0,
			"byteLength":11880,
			"byteOffset":1140884,
			"target":34962
		},
		{
			"buffer":0,
			"byteLength":7920,
			"byteOffset":1152764,
			"target":34962
		},
		{
			"buffer":0,
			"byteLength":6144,
			"byteOffset":1160684,
			"target":34963
		},
		{
			"buffer":0,
			"byteLength":384,
			"byteOffset":1166828,
			"target":34962
		},
		{
			"buffer":0,
			"byteLength":384,
			"byteOffset":1167212,
			"target":34962
		},
		{
			"buffer":0,
			"byteLength":256,
			"byteOffset":1167596,
			"target":34962
		},
		{
			"buffer":0,
			"byteLength":180,
			"byteOffset":1167852,
			"target":34963
		},
		{
			"buffer":0,
			"byteLength":2772,
			"byteOffset":1168032,
			"target":34962
		},
		{
			"buffer":0,
			"byteLength":2772,
			"byteOffset":1170804,
			"target":34962
		},
		{
			"buffer":0,
			"byteLength":1848,
			"byteOffset":1173576,
			"target":34962
		},
		{
			"buffer":0,
			"byteLength":1536,
			"byteOffset":1175424,
			"target":34963
		}
	],
	"buffers":[
		{
			"byteLength":1176960,
			"uri":"bakit.bin"
		}
	]
}
