{
	"asset":{
		"generator":"Khronos glTF Blender I/O v3.6.27",
		"version":"2.0"
	},
	"scene":0,
	"scenes":[
		{
			"name":"Scene",
			"nodes":[
				0,
				1,
				2,
				3,
				4,
				5,
				6,
				7
			]
		}
	],
	"nodes":[
		{
			"mesh":0,
			"name":"focus stop",
			"translation":[
				0,
				0.15145893394947052,
				-0.04829024896025658
			]
		},
		{
			"mesh":1,
			"name":"rail",
			"translation":[
				0.031725216656923294,
				0.15015257894992828,
				-0.01466725580394268
			]
		},
		{
			"mesh":2,
			"name":"tray",
			"translation":[
				0,
				0.1502213031053543,
				0.027300667017698288
			]
		},
		{
			"mesh":3,
			"name":"tray2",
			"translation":[
				0,
				0.13845081627368927,
				0.022499267011880875
			]
		},
		{
			"mesh":4,
			"name":"slide holder",
			"translation":[
				-0.004162479192018509,
				0.15483500063419342,
				0.03486059233546257
			]
		},
		{
			"mesh":5,
			"name":"slideholder2",
			"translation":[
				-0.048386100679636,
				0.1555287390947342,
				0.021001460030674934
			]
		},
		{
			"mesh":6,
			"name":"Cylinder.001",
			"translation":[
				-0.05216147378087044,
				0.16027678549289703,
				-0.007256210781633854
			]
		},
		{
			"mesh":7,
			"name":"condenser",
			"translation":[
				0,
				0.13506688177585602,
				0.01805155538022518
			]
		}
	],
	"materials":[
		{
			"doubleSided":true,
			"name":"metal.002",
			"pbrMetallicRoughness":{
				"baseColorFactor":[
					0.5925782918930054,
					0.5925782918930054,
					0.5925782918930054,
					1
				],
				"roughnessFactor":0.4833333194255829
			}
		},
		{
			"doubleSided":true,
			"name":"black plastic",
			"pbrMetallicRoughness":{
				"baseColorFactor":[
					0.0056046294048428535,
					0.0056046294048428535,
					0.0056046294048428535,
					1
				],
				"metallicFactor":0,
				"roughnessFactor":0.6166667342185974
			}
		},
		{
			"doubleSided":true,
			"name":"metal.004",
			"pbrMetallicRoughness":{
				"baseColorFactor":[
					0.5925782918930054,
					0.5925782918930054,
					0.5925782918930054,
					1
				],
				"roughnessFactor":0.4833333194255829
			}
		},
		{
			"doubleSided":true,
			"name":"metal.003",
			"pbrMetallicRoughness":{
				"baseColorFactor":[
					0.5925782918930054,
					0.5925782918930054,
					0.5925782918930054,
					1
				],
				"roughnessFactor":0.4833333194255829
			}
		},
		{
			"doubleSided":true,
			"name":"glass",
			"pbrMetallicRoughness":{
				"baseColorFactor":[
					0.38437479734420776,
					0.3731274902820587,
					0.3731274902820587,
					1
				],
				"metallicFactor":0,
				"roughnessFactor":0
			}
		}
	],
	"meshes":[
		{
			"name":"Cylinder.008",
			"primitives":[
				{
					"attributes":{
						"POSITION":0,
						"NORMAL":1,
						"TEXCOORD_0":2
					},
					"indices":3,
					"material":0
				}
			]
		},
		{
			"name":"Cube.008",
			"primitives":[
				{
					"attributes":{
						"POSITION":4,
						"NORMAL":5,
						"TEXCOORD_0":6
					},
					"indices":7,
					"material":1
				}
			]
		},
		{
			"name":"Cube.003",
			"primitives":[
				{
					"attributes":{
						"POSITION":8,
						"NORMAL":9,
						"TEXCOORD_0":10
					},
					"indices":11,
					"material":1
				}
			]
		},
		{
			"name":"Cube.004",
			"primitives":[
				{
					"attributes":{
						"POSITION":12,
						"NORMAL":13,
						"TEXCOORD_0":14
					},
					"indices":15,
					"material":1
				}
			]
		},
		{
			"name":"Plane",
			"primitives":[
				{
					"attributes":{
						"POSITION":16,
						"NORMAL":17,
						"TEXCOORD_0":18
					},
					"indices":19,
					"material":2
				}
			]
		},
		{
			"name":"Plane.001",
			"primitives":[
				{
					"attributes":{
						"POSITION":20,
						"NORMAL":21,
						"TEXCOORD_0":22
					},
					"indices":23,
					"material":3
				}
			]
		},
		{
			"name":"Cylinder.004",
			"primitives":[
				{
					"attributes":{
						"POSITION":24,
						"NORMAL":25,
						"TEXCOORD_0":26
					},
					"indices":27,
					"material":0
				}
			]
		},
		{
			"name":"Cylinder.014",
			"primitives":[
				{
					"attributes":{
						"POSITION":28,
						"NORMAL":29,
						"TEXCOORD_0":30
					},
					"indices":31,
					"material":1
				},
				{
					"attributes":{
						"POSITION":32,
						"NORMAL":33,
						"TEXCOORD_0":34
					},
					"indices":35,
					"material":4
				},
				{
					"attributes":{
						"POSITION":36,
						"NORMAL":37,
						"TEXCOORD_0":38
					},
					"indices":39,
					"material":0
				}
			]
		}
	],
	"accessors":[
		{
			"bufferView":0,
			"componentType":5126,
			"count":1092,
			"max":[
				0.004000000189989805,
				0.016716472804546356,
				0.004000000189989805
			],
			"min":[
				-0.004000000189989805,
				-0.0020000000949949026,
				-0.004000000189989805
			],
			"type":"VEC3"
		},
		{
			"bufferView":1,
			"componentType":5126,
			"count":1092,
			"type":"VEC3"
		},
		{
			"bufferView":2,
			"componentType":5126,
			"count":1092,
			"type":"VEC2"
		},
		{
			"bufferView":3,
			"componentType":5123,
			"count":3162,
			"type":"SCALAR"
		},
		{
			"bufferView":4,
			"componentType":5126,
			"count":472,
			"max":[
				0.07000000029802322,
				0.005001239478588104,
				0.007278012577444315
			],
			"min":[
				-0.07000000029802322,
				-0.00500122457742691,
				-0.007278005592525005
			],
			"type":"VEC3"
		},
		{
			"bufferView":5,
			"componentType":5126,
			"count":472,
			"type":"VEC3"
		},
		{
			"bufferView":6,
			"componentType":5126,
			"count":472,
			"type":"VEC2"
		},
		{
			"bufferView":7,
			"componentType":5123,
			"count":1908,
			"type":"SCALAR"
		},
		{
			"bufferView":8,
			"componentType":5126,
			"count":4420,
			"max":[
				0.06271278858184814,
				0.005049614701420069,
				0.05740230530500412
			],
			"min":[
				-0.06271278858184814,
				-0.01103646494448185,
				-0.057466354221105576
			],
			"type":"VEC3"
		},
		{
			"bufferView":9,
			"componentType":5126,
			"count":4420,
			"type":"VEC3"
		},
		{
			"bufferView":10,
			"componentType":5126,
			"count":4420,
			"type":"VEC2"
		},
		{
			"bufferView":11,
			"componentType":5123,
			"count":13404,
			"type":"SCALAR"
		},
		{
			"bufferView":12,
			"componentType":5126,
			"count":471,
			"max":[
				0.03891134262084961,
				0.006653726100921631,
				0.05490922927856445
			],
			"min":[
				-0.03891134262084961,
				0.0005094496300444007,
				-0.05490922927856445
			],
			"type":"VEC3"
		},
		{
			"bufferView":13,
			"componentType":5126,
			"count":471,
			"type":"VEC3"
		},
		{
			"bufferView":14,
			"componentType":5126,
			"count":471,
			"type":"VEC2"
		},
		{
			"bufferView":15,
			"componentType":5123,
			"count":1488,
			"type":"SCALAR"
		},
		{
			"bufferView":16,
			"componentType":5126,
			"count":14900,
			"max":[
				0.05750001221895218,
				0.002065083244815469,
				-0.01835424266755581
			],
			"min":[
				-0.03102640062570572,
				-7.723680755589157e-05,
				-0.05750001221895218
			],
			"type":"VEC3"
		},
		{
			"bufferView":17,
			"componentType":5126,
			"count":14900,
			"type":"VEC3"
		},
		{
			"bufferView":18,
			"componentType":5126,
			"count":14900,
			"type":"VEC2"
		},
		{
			"bufferView":19,
			"componentType":5123,
			"count":77184,
			"type":"SCALAR"
		},
		{
			"bufferView":20,
			"componentType":5126,
			"count":7755,
			"max":[
				0.031267568469047546,
				0.002832713071256876,
				0.028609979897737503
			],
			"min":[
				-0.025212695822119713,
				-0.00042447145096957684,
				-0.040289100259542465
			],
			"type":"VEC3"
		},
		{
			"bufferView":21,
			"componentType":5126,
			"count":7755,
			"type":"VEC3"
		},
		{
			"bufferView":22,
			"componentType":5126,
			"count":7755,
			"type":"VEC2"
		},
		{
			"bufferView":23,
			"componentType":5123,
			"count":38784,
			"type":"SCALAR"
		},
		{
			"bufferView":24,
			"componentType":5126,
			"count":611,
			"max":[
				0.008378013037145138,
				0.0027926694601774216,
				0.008378012105822563
			],
			"min":[
				-0.008378011174499989,
				-0.0027926715556532145,
				-0.008378012105822563
			],
			"type":"VEC3"
		},
		{
			"bufferView":25,
			"componentType":5126,
			"count":611,
			"type":"VEC3"
		},
		{
			"bufferView":26,
			"componentType":5126,
			"count":611,
			"type":"VEC2"
		},
		{
			"bufferView":27,
			"componentType":5123,
			"count":2778,
			"type":"SCALAR"
		},
		{
			"bufferView":28,
			"componentType":5126,
			"count":2988,
			"max":[
				0.024995794519782066,
				0.02030831016600132,
				0.024995794519782066
			],
			"min":[
				-0.024995794519782066,
				-0.027060750871896744,
				-0.024995800107717514
			],
			"type":"VEC3"
		},
		{
			"bufferView":29,
			"componentType":5126,
			"count":2988,
			"type":"VEC3"
		},
		{
			"bufferView":30,
			"componentType":5126,
			"count":2988,
			"type":"VEC2"
		},
		{
			"bufferView":31,
			"componentType":5123,
			"count":10560,
			"type":"SCALAR"
		},
		{
			"bufferView":32,
			"componentType":5126,
			"count":32,
			"max":[
				0.007413782179355621,
				0.019863499328494072,
				0.007413781713694334
			],
			"min":[
				-0.007413782179355621,
				0.019863499328494072,
				-0.007413783110678196
			],
			"type":"VEC3"
		},
		{
			"bufferView":33,
			"componentType":5126,
			"count":32,
			"type":"VEC3"
		},
		{
			"bufferView":34,
			"componentType":5126,
			"count":32,
			"type":"VEC2"
		},
		{
			"bufferView":35,
			"componentType":5123,
			"count":90,
			"type":"SCALAR"
		},
		{
			"bufferView":36,
			"componentType":5126,
			"count":669,
			"max":[
				0.026141250506043434,
				-0.011744935065507889,
				0.026141250506043434
			],
			"min":[
				-0.026141250506043434,
				-0.014848029240965843,
				-0.026141252368688583
			],
			"type":"VEC3"
		},
		{
			"bufferView":37,
			"componentType":5126,
			"count":669,
			"type":"VEC3"
		},
		{
			"bufferView":38,
			"componentType":5126,
			"count":669,
			"type":"VEC2"
		},
		{
			"bufferView":39,
			"componentType":5123,
			"count":2496,
			"type":"SCALAR"
		}
	],
	"bufferViews":[
		{
			"buffer":0,
			"byteLength":13104,
			"byteOffset":0,
			"target":34962
		},
		{
			"buffer":0,
			"byteLength":13104,
			"byteOffset":13104,
			"target":34962
		},
		{
			"buffer":0,
			"byteLength":8736,
			"byteOffset":26208,
			"target":34962
		},
		{
			"buffer":0,
			"byteLength":6324,
			"byteOffset":34944,
			"target":34963
		},
		{
			"buffer":0,
			"byteLength":5664,
			"byteOffset":41268,
			"target":34962
		},
		{
			"buffer":0,
			"byteLength":5664,
			"byteOffset":46932,
			"target":34962
		},
		{
			"buffer":0,
			"byteLength":3776,
			"byteOffset":52596,
			"target":34962
		},
		{
			"buffer":0,
			"byteLength":3816,
			"byteOffset":56372,
			"target":34963
		},
		{
			"buffer":0,
			"byteLength":53040,
			"byteOffset":60188,
			"target":34962
		},
		{
			"buffer":0,
			"byteLength":53040,
			"byteOffset":113228,
			"target":34962
		},
		{
			"buffer":0,
			"byteLength":35360,
			"byteOffset":166268,
			"target":34962
		},
		{
			"buffer":0,
			"byteLength":26808,
			"byteOffset":201628,
			"target":34963
		},
		{
			"buffer":0,
			"byteLength":5652,
			"byteOffset":228436,
			"target":34962
		},
		{
			"buffer":0,
			"byteLength":5652,
			"byteOffset":234088,
			"target":34962
		},
		{
			"buffer":0,
			"byteLength":3768,
			"byteOffset":239740,
			"target":34962
		},
		{
			"buffer":0,
			"byteLength":2976,
			"byteOffset":243508,
			"target":34963
		},
		{
			"buffer":0,
			"byteLength":178800,
			"byteOffset":246484,
			"target":34962
		},
		{
			"buffer":0,
			"byteLength":178800,
			"byteOffset":425284,
			"target":34962
		},
		{
			"buffer":0,
			"byteLength":119200,
			"byteOffset":604084,
			"target":34962
		},
		{
			"buffer":0,
			"byteLength":154368,
			"byteOffset":723284,
			"target":34963
		},
		{
			"buffer":0,
			"byteLength":93060,
			"byteOffset":877652,
			"target":34962
		},
		{
			"buffer":0,
			"byteLength":93060,
			"byteOffset":970712,
			"target":34962
		},
		{
			"buffer":0,
			"byteLength":62040,
			"byteOffset":1063772,
			"target":34962
		},
		{
			"buffer":0,
			"byteLength":77568,
			"byteOffset":1125812,
			"target":34963
		},
		{
			"buffer":0,
			"byteLength":7332,
			"byteOffset":1203380,
			"target":34962
		},
		{
			"buffer":0,
			"byteLength":7332,
			"byteOffset":1210712,
			"target":34962
		},
		{
			"buffer":0,
			"byteLength":4888,
			"byteOffset":1218044,
			"target":34962
		},
		{
			"buffer":0,
			"byteLength":5556,
			"byteOffset":1222932,
			"target":34963
		},
		{
			"buffer":0,
			"byteLength":35856,
			"byteOffset":1228488,
			"target":34962
		},
		{
			"buffer":0,
			"byteLength":35856,
			"byteOffset":1264344,
			"target":34962
		},
		{
			"buffer":0,
			"byteLength":23904,
			"byteOffset":1300200,
			"target":34962
		},
		{
			"buffer":0,
			"byteLength":21120,
			"byteOffset":1324104,
			"target":34963
		},
		{
			"buffer":0,
			"byteLength":384,
			"byteOffset":1345224,
			"target":34962
		},
		{
			"buffer":0,
			"byteLength":384,
			"byteOffset":1345608,
			"target":34962
		},
		{
			"buffer":0,
			"byteLength":256,
			"byteOffset":1345992,
			"target":34962
		},
		{
			"buffer":0,
			"byteLength":180,
			"byteOffset":1346248,
			"target":34963
		},
		{
			"buffer":0,
			"byteLength":8028,
			"byteOffset":1346428,
			"target":34962
		},
		{
			"buffer":0,
			"byteLength":8028,
			"byteOffset":1354456,
			"target":34962
		},
		{
			"buffer":0,
			"byteLength":5352,
			"byteOffset":1362484,
			"target":34962
		},
		{
			"buffer":0,
			"byteLength":4992,
			"byteOffset":1367836,
			"target":34963
		}
	],
	"buffers":[
		{
			"byteLength":1372828,
			"uri":"specimen3.bin"
		}
	]
}
