{
	"asset":{
		"generator":"Khronos glTF Blender I/O v3.6.27",
		"version":"2.0"
	},
	"scene":0,
	"scenes":[
		{
			"name":"Scene",
			"nodes":[
				0,
				1
			]
		}
	],
	"nodes":[
		{
			"mesh":0,
			"name":"Bee",
			"rotation":[
				0.6668258905410767,
				0,
				-0.7452135682106018,
				0
			],
			"scale":[
				-0.1605152189731598,
				-0.16051523387432098,
				-0.1605152040719986
			],
			"translation":[
				-0.22728925943374634,
				-0.20097818970680237,
				-9.02861499786377
			]
		},
		{
			"mesh":1,
			"name":"Text.011",
			"rotation":[
				0.6846909523010254,
				0.008405092172324657,
				-0.017569582909345627,
				0.7285733222961426
			],
			"scale":[
				0.26361507177352905,
				0.09235487878322601,
				0.2633172273635864
			],
			"translation":[
				0.59405517578125,
				-0.18799877166748047,
				-9.337621688842773
			]
		}
	],
	"materials":[
		{
			"doubleSided":true,
			"name":"Material.015",
			"pbrMetallicRoughness":{
				"baseColorFactor":[
					0.800000011920929,
					0.800000011920929,
					0.800000011920929,
					1
				],
				"metallicFactor":0,
				"roughnessFactor":0.5
			}
		},
		{
			"doubleSided":true,
			"name":"Material.016",
			"pbrMetallicRoughness":{
				"baseColorFactor":[
					0.800000011920929,
					0.800000011920929,
					0.800000011920929,
					1
				],
				"metallicFactor":0,
				"roughnessFactor":0.5
			}
		},
		{
			"doubleSided":true,
			"name":"Material.086",
			"pbrMetallicRoughness":{
				"baseColorFactor":[
					0,
					0,
					0,
					1
				],
				"metallicFactor":0,
				"roughnessFactor":0.5
			}
		},
		{
			"doubleSided":true,
			"name":"Material.076",
			"pbrMetallicRoughness":{
				"baseColorFactor":[
					1,
					0.8534561395645142,
					0,
					1
				],
				"metallicFactor":0,
				"roughnessFactor":0.5
			}
		}
	],
	"meshes":[
		{
			"name":"Cylinder.007",
			"primitives":[
				{
					"attributes":{
						"POSITION":0,
						"NORMAL":1
					},
					"indices":2,
					"material":0
				},
				{
					"attributes":{
						"POSITION":3,
						"NORMAL":4
					},
					"indices":5,
					"material":1
				},
				{
					"attributes":{
						"POSITION":6,
						"NORMAL":7
					},
					"indices":8,
					"material":2
				},
				{
					"attributes":{
						"POSITION":9,
						"NORMAL":10
					},
					"indices":11,
					"material":3
				}
			]
		},
		{
			"name":"Text.011",
			"primitives":[
				{
					"attributes":{
						"POSITION":12,
						"NORMAL":13,
						"TEXCOORD_0":14
					},
					"indices":15
				}
			]
		}
	],
	"accessors":[
		{
			"bufferView":0,
			"componentType":5126,
			"count":109,
			"max":[
				0.5823709964752197,
				2.9243197441101074,
				1.7786153554916382
			],
			"min":[
				0.21722014248371124,
				1.1251020431518555,
				-1.3250499963760376
			],
			"type":"VEC3"
		},
		{
			"bufferView":1,
			"componentType":5126,
			"count":109,
			"type":"VEC3"
		},
		{
			"bufferView":2,
			"componentType":5123,
			"count":237,
			"type":"SCALAR"
		},
		{
			"bufferView":3,
			"componentType":5126,
			"count":107,
			"max":[
				-1.0096256732940674,
				2.9753971099853516,
				1.8900834321975708
			],
			"min":[
				-2.0318987369537354,
				1.1363831758499146,
				-1.0161837339401245
			],
			"type":"VEC3"
		},
		{
			"bufferView":4,
			"componentType":5126,
			"count":107,
			"type":"VEC3"
		},
		{
			"bufferView":5,
			"componentType":5123,
			"count":237,
			"type":"SCALAR"
		},
		{
			"bufferView":6,
			"componentType":5126,
			"count":14346,
			"max":[
				1.2376198768615723,
				2.6592886447906494,
				3.83540415763855
			],
			"min":[
				-1.4538053274154663,
				-0.9286465048789978,
				-1.6687953472137451
			],
			"type":"VEC3"
		},
		{
			"bufferView":7,
			"componentType":5126,
			"count":14346,
			"type":"VEC3"
		},
		{
			"bufferView":8,
			"componentType":5123,
			"count":82809,
			"type":"SCALAR"
		},
		{
			"bufferView":9,
			"componentType":5126,
			"count":2108,
			"max":[
				0.48290103673934937,
				1.7335288524627686,
				3.6366069316864014
			],
			"min":[
				-1.1791049242019653,
				-0.08156557381153107,
				-1.6555993556976318
			],
			"type":"VEC3"
		},
		{
			"bufferView":10,
			"componentType":5126,
			"count":2108,
			"type":"VEC3"
		},
		{
			"bufferView":11,
			"componentType":5123,
			"count":11187,
			"type":"SCALAR"
		},
		{
			"bufferView":12,
			"componentType":5126,
			"count":1230,
			"max":[
				0.8665000200271606,
				0.029999999329447746,
				0.009000000543892384
			],
			"min":[
				-0.5465001463890076,
				-0.029999999329447746,
				-0.6820000410079956
			],
			"type":"VEC3"
		},
		{
			"bufferView":13,
			"componentType":5126,
			"count":1230,
			"type":"VEC3"
		},
		{
			"bufferView":14,
			"componentType":5126,
			"count":1230,
			"type":"VEC2"
		},
		{
			"bufferView":15,
			"componentType":5123,
			"count":3660,
			"type":"SCALAR"
		}
	],
	"bufferViews":[
		{
			"buffer":0,
			"byteLength":1308,
			"byteOffset":0,
			"target":34962
		},
		{
			"buffer":0,
			"byteLength":1308,
			"byteOffset":1308,
			"target":34962
		},
		{
			"buffer":0,
			"byteLength":474,
			"byteOffset":2616,
			"target":34963
		},
		{
			"buffer":0,
			"byteLength":1284,
			"byteOffset":3092,
			"target":34962
		},
		{
			"buffer":0,
			"byteLength":1284,
			"byteOffset":4376,
			"target":34962
		},
		{
			"buffer":0,
			"byteLength":474,
			"byteOffset":5660,
			"target":34963
		},
		{
			"buffer":0,
			"byteLength":172152,
			"byteOffset":6136,
			"target":34962
		},
		{
			"buffer":0,
			"byteLength":172152,
			"byteOffset":178288,
			"target":34962
		},
		{
			"buffer":0,
			"byteLength":165618,
			"byteOffset":350440,
			"target":34963
		},
		{
			"buffer":0,
			"byteLength":25296,
			"byteOffset":516060,
			"target":34962
		},
		{
			"buffer":0,
			"byteLength":25296,
			"byteOffset":541356,
			"target":34962
		},
		{
			"buffer":0,
			"byteLength":22374,
			"byteOffset":566652,
			"target":34963
		},
		{
			"buffer":0,
			"byteLength":14760,
			"byteOffset":589028,
			"target":34962
		},
		{
			"buffer":0,
			"byteLength":14760,
			"byteOffset":603788,
			"target":34962
		},
		{
			"buffer":0,
			"byteLength":9840,
			"byteOffset":618548,
			"target":34962
		},
		{
			"buffer":0,
			"byteLength":7320,
			"byteOffset":628388,
			"target":34963
		}
	],
	"buffers":[
		{
			"byteLength":635708,
			"uri":"Bee.bin"
		}
	]
}
