{
	"asset":{
		"generator":"Khronos glTF Blender I/O v3.6.27",
		"version":"2.0"
	},
	"scene":0,
	"scenes":[
		{
			"name":"Scene",
			"nodes":[
				0,
				1,
				2
			]
		}
	],
	"nodes":[
		{
			"mesh":0,
			"name":"Cube.009",
			"scale":[
				1.6701287031173706,
				0.38192975521087646,
				0.10566527396440506
			],
			"translation":[
				-5.777926445007324,
				5.526962757110596,
				0.14718565344810486
			]
		},
		{
			"mesh":1,
			"name":"Text.007",
			"rotation":[
				0.6846909523010254,
				0.008405092172324657,
				-0.017569582909345627,
				0.7285733222961426
			],
			"scale":[
				0.26361507177352905,
				0.09235487878322601,
				0.2633172273635864
			],
			"translation":[
				-5.785984992980957,
				5.435903072357178,
				0.3028133809566498
			]
		},
		{
			"mesh":2,
			"name":"conjuju",
			"rotation":[
				0.7161305546760559,
				0,
				0,
				0.6979663372039795
			],
			"scale":[
				3.0404083728790283,
				3.0404083728790283,
				3.0404083728790283
			],
			"translation":[
				-5.801625728607178,
				7.367404937744141,
				0.18620100617408752
			]
		}
	],
	"materials":[
		{
			"doubleSided":true,
			"name":"Material.002",
			"pbrMetallicRoughness":{
				"baseColorFactor":[
					0,
					0,
					0,
					1
				],
				"metallicFactor":0,
				"roughnessFactor":0.5
			}
		},
		{
			"alphaMode":"BLEND",
			"doubleSided":true,
			"name":"conjuju",
			"pbrMetallicRoughness":{
				"baseColorTexture":{
					"index":0
				},
				"metallicFactor":0,
				"roughnessFactor":0.5
			}
		}
	],
	"meshes":[
		{
			"name":"Cube.009",
			"primitives":[
				{
					"attributes":{
						"POSITION":0,
						"NORMAL":1,
						"TEXCOORD_0":2
					},
					"indices":3,
					"material":0
				}
			]
		},
		{
			"name":"Text.007",
			"primitives":[
				{
					"attributes":{
						"POSITION":4,
						"NORMAL":5,
						"TEXCOORD_0":6
					},
					"indices":7
				}
			]
		},
		{
			"name":"conjuju",
			"primitives":[
				{
					"attributes":{
						"POSITION":8,
						"NORMAL":9,
						"TEXCOORD_0":10
					},
					"indices":11,
					"material":1
				}
			]
		}
	],
	"textures":[
		{
			"sampler":0,
			"source":0
		}
	],
	"images":[
		{
			"mimeType":"image/png",
			"name":"conjuju",
			"uri":"conjuju.png"
		}
	],
	"accessors":[
		{
			"bufferView":0,
			"componentType":5126,
			"count":24,
			"max":[
				1,
				1,
				1
			],
			"min":[
				-1,
				-1,
				-1
			],
			"type":"VEC3"
		},
		{
			"bufferView":1,
			"componentType":5126,
			"count":24,
			"type":"VEC3"
		},
		{
			"bufferView":2,
			"componentType":5126,
			"count":24,
			"type":"VEC2"
		},
		{
			"bufferView":3,
			"componentType":5123,
			"count":36,
			"type":"SCALAR"
		},
		{
			"bufferView":4,
			"componentType":5126,
			"count":4344,
			"max":[
				2.5465002059936523,
				0.029999999329447746,
				0.23000000417232513
			],
			"min":[
				-2.2814998626708984,
				-0.029999999329447746,
				-0.6910000443458557
			],
			"type":"VEC3"
		},
		{
			"bufferView":5,
			"componentType":5126,
			"count":4344,
			"type":"VEC3"
		},
		{
			"bufferView":6,
			"componentType":5126,
			"count":4344,
			"type":"VEC2"
		},
		{
			"bufferView":7,
			"componentType":5123,
			"count":12816,
			"type":"SCALAR"
		},
		{
			"bufferView":8,
			"componentType":5126,
			"count":4,
			"max":[
				0.5516666769981384,
				0,
				0.5
			],
			"min":[
				-0.5516666769981384,
				0,
				-0.5
			],
			"type":"VEC3"
		},
		{
			"bufferView":9,
			"componentType":5126,
			"count":4,
			"type":"VEC3"
		},
		{
			"bufferView":10,
			"componentType":5126,
			"count":4,
			"type":"VEC2"
		},
		{
			"bufferView":11,
			"componentType":5123,
			"count":6,
			"type":"SCALAR"
		}
	],
	"bufferViews":[
		{
			"buffer":0,
			"byteLength":288,
			"byteOffset":0,
			"target":34962
		},
		{
			"buffer":0,
			"byteLength":288,
			"byteOffset":288,
			"target":34962
		},
		{
			"buffer":0,
			"byteLength":192,
			"byteOffset":576,
			"target":34962
		},
		{
			"buffer":0,
			"byteLength":72,
			"byteOffset":768,
			"target":34963
		},
		{
			"buffer":0,
			"byteLength":52128,
			"byteOffset":840,
			"target":34962
		},
		{
			"buffer":0,
			"byteLength":52128,
			"byteOffset":52968,
			"target":34962
		},
		{
			"buffer":0,
			"byteLength":34752,
			"byteOffset":105096,
			"target":34962
		},
		{
			"buffer":0,
			"byteLength":25632,
			"byteOffset":139848,
			"target":34963
		},
		{
			"buffer":0,
			"byteLength":48,
			"byteOffset":165480,
			"target":34962
		},
		{
			"buffer":0,
			"byteLength":48,
			"byteOffset":165528,
			"target":34962
		},
		{
			"buffer":0,
			"byteLength":32,
			"byteOffset":165576,
			"target":34962
		},
		{
			"buffer":0,
			"byteLength":12,
			"byteOffset":165608,
			"target":34963
		}
	],
	"samplers":[
		{
			"magFilter":9729,
			"minFilter":9987,
			"wrapS":33071,
			"wrapT":33071
		}
	],
	"buffers":[
		{
			"byteLength":165620,
			"uri":"conjujubels.bin"
		}
	]
}
