{
	"asset":{
		"generator":"Khronos glTF Blender I/O v3.6.27",
		"version":"2.0"
	},
	"scene":0,
	"scenes":[
		{
			"name":"Scene",
			"nodes":[
				0,
				1,
				2
			]
		}
	],
	"nodes":[
		{
			"mesh":0,
			"name":"Cube.001",
			"scale":[
				1.6701287031173706,
				0.38192975521087646,
				0.10566527396440506
			],
			"translation":[
				6.734238624572754,
				5.704070568084717,
				0.2708517909049988
			]
		},
		{
			"mesh":1,
			"name":"eggy",
			"rotation":[
				0.7304842472076416,
				0,
				0,
				0.682929515838623
			],
			"scale":[
				2.6991400718688965,
				2.6991400718688965,
				2.6991400718688965
			],
			"translation":[
				6.710232734680176,
				7.140646934509277,
				0.30345308780670166
			]
		},
		{
			"mesh":2,
			"name":"Text.005",
			"rotation":[
				0.6846909523010254,
				0.008405092172324657,
				-0.017569582909345627,
				0.7285733222961426
			],
			"scale":[
				0.26361507177352905,
				0.09235487878322601,
				0.2633172273635864
			],
			"translation":[
				6.726180076599121,
				5.613011360168457,
				0.4264795184135437
			]
		}
	],
	"materials":[
		{
			"doubleSided":true,
			"name":"Material.002",
			"pbrMetallicRoughness":{
				"baseColorFactor":[
					0,
					0,
					0,
					1
				],
				"metallicFactor":0,
				"roughnessFactor":0.5
			}
		},
		{
			"alphaMode":"BLEND",
			"doubleSided":true,
			"name":"eggy",
			"pbrMetallicRoughness":{
				"baseColorTexture":{
					"index":0
				},
				"metallicFactor":0,
				"roughnessFactor":0.5
			}
		}
	],
	"meshes":[
		{
			"name":"Cube.003",
			"primitives":[
				{
					"attributes":{
						"POSITION":0,
						"NORMAL":1,
						"TEXCOORD_0":2
					},
					"indices":3,
					"material":0
				}
			]
		},
		{
			"name":"eggy",
			"primitives":[
				{
					"attributes":{
						"POSITION":4,
						"NORMAL":5,
						"TEXCOORD_0":6
					},
					"indices":7,
					"material":1
				}
			]
		},
		{
			"name":"Text.005",
			"primitives":[
				{
					"attributes":{
						"POSITION":8,
						"NORMAL":9,
						"TEXCOORD_0":10
					},
					"indices":11
				}
			]
		}
	],
	"textures":[
		{
			"sampler":0,
			"source":0
		}
	],
	"images":[
		{
			"mimeType":"image/png",
			"name":"eggy",
			"uri":"eggy.png"
		}
	],
	"accessors":[
		{
			"bufferView":0,
			"componentType":5126,
			"count":24,
			"max":[
				1,
				1,
				1
			],
			"min":[
				-1,
				-1,
				-1
			],
			"type":"VEC3"
		},
		{
			"bufferView":1,
			"componentType":5126,
			"count":24,
			"type":"VEC3"
		},
		{
			"bufferView":2,
			"componentType":5126,
			"count":24,
			"type":"VEC2"
		},
		{
			"bufferView":3,
			"componentType":5123,
			"count":36,
			"type":"SCALAR"
		},
		{
			"bufferView":4,
			"componentType":5126,
			"count":4,
			"max":[
				0.6243780851364136,
				0,
				0.5
			],
			"min":[
				-0.6243780851364136,
				0,
				-0.5
			],
			"type":"VEC3"
		},
		{
			"bufferView":5,
			"componentType":5126,
			"count":4,
			"type":"VEC3"
		},
		{
			"bufferView":6,
			"componentType":5126,
			"count":4,
			"type":"VEC2"
		},
		{
			"bufferView":7,
			"componentType":5123,
			"count":6,
			"type":"SCALAR"
		},
		{
			"bufferView":8,
			"componentType":5126,
			"count":2940,
			"max":[
				1.563500165939331,
				0.029999999329447746,
				0.23000000417232513
			],
			"min":[
				-1.5535001754760742,
				-0.029999999329447746,
				-0.6910000443458557
			],
			"type":"VEC3"
		},
		{
			"bufferView":9,
			"componentType":5126,
			"count":2940,
			"type":"VEC3"
		},
		{
			"bufferView":10,
			"componentType":5126,
			"count":2940,
			"type":"VEC2"
		},
		{
			"bufferView":11,
			"componentType":5123,
			"count":8724,
			"type":"SCALAR"
		}
	],
	"bufferViews":[
		{
			"buffer":0,
			"byteLength":288,
			"byteOffset":0,
			"target":34962
		},
		{
			"buffer":0,
			"byteLength":288,
			"byteOffset":288,
			"target":34962
		},
		{
			"buffer":0,
			"byteLength":192,
			"byteOffset":576,
			"target":34962
		},
		{
			"buffer":0,
			"byteLength":72,
			"byteOffset":768,
			"target":34963
		},
		{
			"buffer":0,
			"byteLength":48,
			"byteOffset":840,
			"target":34962
		},
		{
			"buffer":0,
			"byteLength":48,
			"byteOffset":888,
			"target":34962
		},
		{
			"buffer":0,
			"byteLength":32,
			"byteOffset":936,
			"target":34962
		},
		{
			"buffer":0,
			"byteLength":12,
			"byteOffset":968,
			"target":34963
		},
		{
			"buffer":0,
			"byteLength":35280,
			"byteOffset":980,
			"target":34962
		},
		{
			"buffer":0,
			"byteLength":35280,
			"byteOffset":36260,
			"target":34962
		},
		{
			"buffer":0,
			"byteLength":23520,
			"byteOffset":71540,
			"target":34962
		},
		{
			"buffer":0,
			"byteLength":17448,
			"byteOffset":95060,
			"target":34963
		}
	],
	"samplers":[
		{
			"magFilter":9729,
			"minFilter":9987,
			"wrapS":33071,
			"wrapT":33071
		}
	],
	"buffers":[
		{
			"byteLength":112508,
			"uri":"practice.bin"
		}
	]
}
