{
	"asset":{
		"generator":"Khronos glTF Blender I/O v3.6.27",
		"version":"2.0"
	},
	"scene":0,
	"scenes":[
		{
			"name":"Scene",
			"nodes":[
				0,
				1,
				2
			]
		}
	],
	"nodes":[
		{
			"mesh":0,
			"name":"Cube.007",
			"scale":[
				1.6701287031173706,
				0.38192975521087646,
				0.10566527396440506
			],
			"translation":[
				-1.528742790222168,
				5.567242622375488,
				0.09706157445907593
			]
		},
		{
			"mesh":1,
			"name":"Text.006",
			"rotation":[
				0.6846909523010254,
				0.008405092172324657,
				-0.017569582909345627,
				0.7285733222961426
			],
			"scale":[
				0.26361507177352905,
				0.09235487878322601,
				0.2633172273635864
			],
			"translation":[
				-1.5368013381958008,
				5.47618293762207,
				0.25268930196762085
			]
		},
		{
			"mesh":2,
			"name":"spermkkk",
			"rotation":[
				0.7160897850990295,
				0,
				0,
				0.6980081796646118
			],
			"scale":[
				3.2276899814605713,
				2.8498873710632324,
				2.8498873710632324
			],
			"translation":[
				-1.5389409065246582,
				6.903602123260498,
				0.13226982951164246
			]
		}
	],
	"materials":[
		{
			"doubleSided":true,
			"name":"Material.002",
			"pbrMetallicRoughness":{
				"baseColorFactor":[
					0,
					0,
					0,
					1
				],
				"metallicFactor":0,
				"roughnessFactor":0.5
			}
		},
		{
			"alphaMode":"BLEND",
			"doubleSided":true,
			"name":"spermkkk",
			"pbrMetallicRoughness":{
				"baseColorTexture":{
					"index":0
				},
				"metallicFactor":0,
				"roughnessFactor":0.5
			}
		}
	],
	"meshes":[
		{
			"name":"Cube.006",
			"primitives":[
				{
					"attributes":{
						"POSITION":0,
						"NORMAL":1,
						"TEXCOORD_0":2
					},
					"indices":3,
					"material":0
				}
			]
		},
		{
			"name":"Text.006",
			"primitives":[
				{
					"attributes":{
						"POSITION":4,
						"NORMAL":5,
						"TEXCOORD_0":6
					},
					"indices":7
				}
			]
		},
		{
			"name":"spermkkk",
			"primitives":[
				{
					"attributes":{
						"POSITION":8,
						"NORMAL":9,
						"TEXCOORD_0":10
					},
					"indices":11,
					"material":1
				}
			]
		}
	],
	"textures":[
		{
			"sampler":0,
			"source":0
		}
	],
	"images":[
		{
			"mimeType":"image/png",
			"name":"spermkkk",
			"uri":"spermkkk.png"
		}
	],
	"accessors":[
		{
			"bufferView":0,
			"componentType":5126,
			"count":24,
			"max":[
				1,
				1,
				1
			],
			"min":[
				-1,
				-1,
				-1
			],
			"type":"VEC3"
		},
		{
			"bufferView":1,
			"componentType":5126,
			"count":24,
			"type":"VEC3"
		},
		{
			"bufferView":2,
			"componentType":5126,
			"count":24,
			"type":"VEC2"
		},
		{
			"bufferView":3,
			"componentType":5123,
			"count":36,
			"type":"SCALAR"
		},
		{
			"bufferView":4,
			"componentType":5126,
			"count":2688,
			"max":[
				2.188500165939331,
				0.029999999329447746,
				0.23000000417232513
			],
			"min":[
				-2.2135000228881836,
				-0.029999999329447746,
				-0.6910000443458557
			],
			"type":"VEC3"
		},
		{
			"bufferView":5,
			"componentType":5126,
			"count":2688,
			"type":"VEC3"
		},
		{
			"bufferView":6,
			"componentType":5126,
			"count":2688,
			"type":"VEC2"
		},
		{
			"bufferView":7,
			"componentType":5123,
			"count":7920,
			"type":"SCALAR"
		},
		{
			"bufferView":8,
			"componentType":5126,
			"count":4,
			"max":[
				0.5,
				0,
				0.5
			],
			"min":[
				-0.5,
				0,
				-0.5
			],
			"type":"VEC3"
		},
		{
			"bufferView":9,
			"componentType":5126,
			"count":4,
			"type":"VEC3"
		},
		{
			"bufferView":10,
			"componentType":5126,
			"count":4,
			"type":"VEC2"
		},
		{
			"bufferView":11,
			"componentType":5123,
			"count":6,
			"type":"SCALAR"
		}
	],
	"bufferViews":[
		{
			"buffer":0,
			"byteLength":288,
			"byteOffset":0,
			"target":34962
		},
		{
			"buffer":0,
			"byteLength":288,
			"byteOffset":288,
			"target":34962
		},
		{
			"buffer":0,
			"byteLength":192,
			"byteOffset":576,
			"target":34962
		},
		{
			"buffer":0,
			"byteLength":72,
			"byteOffset":768,
			"target":34963
		},
		{
			"buffer":0,
			"byteLength":32256,
			"byteOffset":840,
			"target":34962
		},
		{
			"buffer":0,
			"byteLength":32256,
			"byteOffset":33096,
			"target":34962
		},
		{
			"buffer":0,
			"byteLength":21504,
			"byteOffset":65352,
			"target":34962
		},
		{
			"buffer":0,
			"byteLength":15840,
			"byteOffset":86856,
			"target":34963
		},
		{
			"buffer":0,
			"byteLength":48,
			"byteOffset":102696,
			"target":34962
		},
		{
			"buffer":0,
			"byteLength":48,
			"byteOffset":102744,
			"target":34962
		},
		{
			"buffer":0,
			"byteLength":32,
			"byteOffset":102792,
			"target":34962
		},
		{
			"buffer":0,
			"byteLength":12,
			"byteOffset":102824,
			"target":34963
		}
	],
	"samplers":[
		{
			"magFilter":9729,
			"minFilter":9987,
			"wrapS":33071,
			"wrapT":33071
		}
	],
	"buffers":[
		{
			"byteLength":102836,
			"uri":"spermmy.bin"
		}
	]
}
