{
	"asset":{
		"generator":"Khronos glTF Blender I/O v3.6.27",
		"version":"2.0"
	},
	"scene":0,
	"scenes":[
		{
			"name":"Scene",
			"nodes":[
				0,
				1,
				2
			]
		}
	],
	"nodes":[
		{
			"mesh":0,
			"name":"Cube.010",
			"scale":[
				1.6701287031173706,
				0.38192975521087646,
				0.10566527396440506
			],
			"translation":[
				-9.554311752319336,
				5.549529552459717,
				0.17438560724258423
			]
		},
		{
			"mesh":1,
			"name":"Text.008",
			"rotation":[
				0.6846909523010254,
				0.008405092172324657,
				-0.017569582909345627,
				0.7285733222961426
			],
			"scale":[
				0.26361507177352905,
				0.09235487878322601,
				0.2633172273635864
			],
			"translation":[
				-9.562370300292969,
				5.458469867706299,
				0.33001333475112915
			]
		},
		{
			"mesh":2,
			"name":"transdada",
			"rotation":[
				0.7141854763031006,
				0,
				0,
				0.6999565362930298
			],
			"scale":[
				1.994401454925537,
				1.994401454925537,
				1.994401454925537
			],
			"translation":[
				-9.542064666748047,
				6.878055095672607,
				0.18892565369606018
			]
		}
	],
	"materials":[
		{
			"doubleSided":true,
			"name":"Material.002",
			"pbrMetallicRoughness":{
				"baseColorFactor":[
					0,
					0,
					0,
					1
				],
				"metallicFactor":0,
				"roughnessFactor":0.5
			}
		},
		{
			"alphaMode":"BLEND",
			"doubleSided":true,
			"name":"transdada",
			"pbrMetallicRoughness":{
				"baseColorTexture":{
					"index":0
				},
				"metallicFactor":0,
				"roughnessFactor":0.5
			}
		}
	],
	"meshes":[
		{
			"name":"Cube.010",
			"primitives":[
				{
					"attributes":{
						"POSITION":0,
						"NORMAL":1,
						"TEXCOORD_0":2
					},
					"indices":3,
					"material":0
				}
			]
		},
		{
			"name":"Text.008",
			"primitives":[
				{
					"attributes":{
						"POSITION":4,
						"NORMAL":5,
						"TEXCOORD_0":6
					},
					"indices":7
				}
			]
		},
		{
			"name":"transdada",
			"primitives":[
				{
					"attributes":{
						"POSITION":8,
						"NORMAL":9,
						"TEXCOORD_0":10
					},
					"indices":11,
					"material":1
				}
			]
		}
	],
	"textures":[
		{
			"sampler":0,
			"source":0
		}
	],
	"images":[
		{
			"mimeType":"image/png",
			"name":"transdada",
			"uri":"transdada.png"
		}
	],
	"accessors":[
		{
			"bufferView":0,
			"componentType":5126,
			"count":24,
			"max":[
				1,
				1,
				1
			],
			"min":[
				-1,
				-1,
				-1
			],
			"type":"VEC3"
		},
		{
			"bufferView":1,
			"componentType":5126,
			"count":24,
			"type":"VEC3"
		},
		{
			"bufferView":2,
			"componentType":5126,
			"count":24,
			"type":"VEC2"
		},
		{
			"bufferView":3,
			"componentType":5123,
			"count":36,
			"type":"SCALAR"
		},
		{
			"bufferView":4,
			"componentType":5126,
			"count":3732,
			"max":[
				2.620999813079834,
				0.029999999329447746,
				0.009000000543892384
			],
			"min":[
				-2.6649999618530273,
				-0.029999999329447746,
				-0.6820000410079956
			],
			"type":"VEC3"
		},
		{
			"bufferView":5,
			"componentType":5126,
			"count":3732,
			"type":"VEC3"
		},
		{
			"bufferView":6,
			"componentType":5126,
			"count":3732,
			"type":"VEC2"
		},
		{
			"bufferView":7,
			"componentType":5123,
			"count":10956,
			"type":"SCALAR"
		},
		{
			"bufferView":8,
			"componentType":5126,
			"count":4,
			"max":[
				0.8351892828941345,
				0,
				0.5
			],
			"min":[
				-0.8351892828941345,
				0,
				-0.5
			],
			"type":"VEC3"
		},
		{
			"bufferView":9,
			"componentType":5126,
			"count":4,
			"type":"VEC3"
		},
		{
			"bufferView":10,
			"componentType":5126,
			"count":4,
			"type":"VEC2"
		},
		{
			"bufferView":11,
			"componentType":5123,
			"count":6,
			"type":"SCALAR"
		}
	],
	"bufferViews":[
		{
			"buffer":0,
			"byteLength":288,
			"byteOffset":0,
			"target":34962
		},
		{
			"buffer":0,
			"byteLength":288,
			"byteOffset":288,
			"target":34962
		},
		{
			"buffer":0,
			"byteLength":192,
			"byteOffset":576,
			"target":34962
		},
		{
			"buffer":0,
			"byteLength":72,
			"byteOffset":768,
			"target":34963
		},
		{
			"buffer":0,
			"byteLength":44784,
			"byteOffset":840,
			"target":34962
		},
		{
			"buffer":0,
			"byteLength":44784,
			"byteOffset":45624,
			"target":34962
		},
		{
			"buffer":0,
			"byteLength":29856,
			"byteOffset":90408,
			"target":34962
		},
		{
			"buffer":0,
			"byteLength":21912,
			"byteOffset":120264,
			"target":34963
		},
		{
			"buffer":0,
			"byteLength":48,
			"byteOffset":142176,
			"target":34962
		},
		{
			"buffer":0,
			"byteLength":48,
			"byteOffset":142224,
			"target":34962
		},
		{
			"buffer":0,
			"byteLength":32,
			"byteOffset":142272,
			"target":34962
		},
		{
			"buffer":0,
			"byteLength":12,
			"byteOffset":142304,
			"target":34963
		}
	],
	"samplers":[
		{
			"magFilter":9729,
			"minFilter":9987,
			"wrapS":33071,
			"wrapT":33071
		}
	],
	"buffers":[
		{
			"byteLength":142316,
			"uri":"transdududu.bin"
		}
	]
}
