{
	"asset":{
		"generator":"Khronos glTF Blender I/O v3.6.27",
		"version":"2.0"
	},
	"scene":0,
	"scenes":[
		{
			"name":"Scene",
			"nodes":[
				0,
				1,
				2
			]
		}
	],
	"nodes":[
		{
			"mesh":0,
			"name":"Cube.011",
			"scale":[
				1.6701287031173706,
				0.38192975521087646,
				0.10566527396440506
			],
			"translation":[
				-13.704080581665039,
				5.635383605957031,
				0.1861281394958496
			]
		},
		{
			"mesh":1,
			"name":"Text.009",
			"rotation":[
				0.6846909523010254,
				0.008405092172324657,
				-0.017569582909345627,
				0.7285733222961426
			],
			"scale":[
				0.26361507177352905,
				0.09235487878322601,
				0.2633172273635864
			],
			"translation":[
				-13.712139129638672,
				5.544323921203613,
				0.34175586700439453
			]
		},
		{
			"mesh":2,
			"name":"transfo",
			"rotation":[
				0.7274830937385559,
				0,
				0,
				0.686125636100769
			],
			"scale":[
				1.9337390661239624,
				1.933739185333252,
				1.933739185333252
			],
			"translation":[
				-13.699584007263184,
				7.001236438751221,
				0.3210662305355072
			]
		}
	],
	"materials":[
		{
			"doubleSided":true,
			"name":"Material.002",
			"pbrMetallicRoughness":{
				"baseColorFactor":[
					0,
					0,
					0,
					1
				],
				"metallicFactor":0,
				"roughnessFactor":0.5
			}
		},
		{
			"alphaMode":"BLEND",
			"doubleSided":true,
			"name":"transfo",
			"pbrMetallicRoughness":{
				"baseColorTexture":{
					"index":0
				},
				"metallicFactor":0,
				"roughnessFactor":0.5
			}
		}
	],
	"meshes":[
		{
			"name":"Cube.011",
			"primitives":[
				{
					"attributes":{
						"POSITION":0,
						"NORMAL":1,
						"TEXCOORD_0":2
					},
					"indices":3,
					"material":0
				}
			]
		},
		{
			"name":"Text.009",
			"primitives":[
				{
					"attributes":{
						"POSITION":4,
						"NORMAL":5,
						"TEXCOORD_0":6
					},
					"indices":7
				}
			]
		},
		{
			"name":"transfo",
			"primitives":[
				{
					"attributes":{
						"POSITION":8,
						"NORMAL":9,
						"TEXCOORD_0":10
					},
					"indices":11,
					"material":1
				}
			]
		}
	],
	"textures":[
		{
			"sampler":0,
			"source":0
		}
	],
	"images":[
		{
			"mimeType":"image/png",
			"name":"transfo",
			"uri":"transfo.png"
		}
	],
	"accessors":[
		{
			"bufferView":0,
			"componentType":5126,
			"count":24,
			"max":[
				1,
				1,
				1
			],
			"min":[
				-1,
				-1,
				-1
			],
			"type":"VEC3"
		},
		{
			"bufferView":1,
			"componentType":5126,
			"count":24,
			"type":"VEC3"
		},
		{
			"bufferView":2,
			"componentType":5126,
			"count":24,
			"type":"VEC2"
		},
		{
			"bufferView":3,
			"componentType":5123,
			"count":36,
			"type":"SCALAR"
		},
		{
			"bufferView":4,
			"componentType":5126,
			"count":4788,
			"max":[
				3.0950002670288086,
				0.029999999329447746,
				0.009000000543892384
			],
			"min":[
				-3.139000177383423,
				-0.029999999329447746,
				-0.6914074420928955
			],
			"type":"VEC3"
		},
		{
			"bufferView":5,
			"componentType":5126,
			"count":4788,
			"type":"VEC3"
		},
		{
			"bufferView":6,
			"componentType":5126,
			"count":4788,
			"type":"VEC2"
		},
		{
			"bufferView":7,
			"componentType":5123,
			"count":14064,
			"type":"SCALAR"
		},
		{
			"bufferView":8,
			"componentType":5126,
			"count":4,
			"max":[
				0.831623911857605,
				0,
				0.5
			],
			"min":[
				-0.831623911857605,
				0,
				-0.5
			],
			"type":"VEC3"
		},
		{
			"bufferView":9,
			"componentType":5126,
			"count":4,
			"type":"VEC3"
		},
		{
			"bufferView":10,
			"componentType":5126,
			"count":4,
			"type":"VEC2"
		},
		{
			"bufferView":11,
			"componentType":5123,
			"count":6,
			"type":"SCALAR"
		}
	],
	"bufferViews":[
		{
			"buffer":0,
			"byteLength":288,
			"byteOffset":0,
			"target":34962
		},
		{
			"buffer":0,
			"byteLength":288,
			"byteOffset":288,
			"target":34962
		},
		{
			"buffer":0,
			"byteLength":192,
			"byteOffset":576,
			"target":34962
		},
		{
			"buffer":0,
			"byteLength":72,
			"byteOffset":768,
			"target":34963
		},
		{
			"buffer":0,
			"byteLength":57456,
			"byteOffset":840,
			"target":34962
		},
		{
			"buffer":0,
			"byteLength":57456,
			"byteOffset":58296,
			"target":34962
		},
		{
			"buffer":0,
			"byteLength":38304,
			"byteOffset":115752,
			"target":34962
		},
		{
			"buffer":0,
			"byteLength":28128,
			"byteOffset":154056,
			"target":34963
		},
		{
			"buffer":0,
			"byteLength":48,
			"byteOffset":182184,
			"target":34962
		},
		{
			"buffer":0,
			"byteLength":48,
			"byteOffset":182232,
			"target":34962
		},
		{
			"buffer":0,
			"byteLength":32,
			"byteOffset":182280,
			"target":34962
		},
		{
			"buffer":0,
			"byteLength":12,
			"byteOffset":182312,
			"target":34963
		}
	],
	"samplers":[
		{
			"magFilter":9729,
			"minFilter":9987,
			"wrapS":33071,
			"wrapT":33071
		}
	],
	"buffers":[
		{
			"byteLength":182324,
			"uri":"transformers.bin"
		}
	]
}
