{
	"asset":{
		"generator":"Khronos glTF Blender I/O v3.6.27",
		"version":"2.0"
	},
	"scene":0,
	"scenes":[
		{
			"name":"Scene",
			"nodes":[
				0
			]
		}
	],
	"nodes":[
		{
			"mesh":0,
			"name":"Object_4.001",
			"rotation":[
				0,
				-0.17728419601917267,
				0,
				0.9841597080230713
			],
			"scale":[
				0.04212505370378494,
				0.01708105206489563,
				0.031903140246868134
			],
			"translation":[
				-6.329098224639893,
				1.0456774234771729,
				0.7547957301139832
			]
		}
	],
	"materials":[
		{
			"doubleSided":true,
			"name":"material.002",
			"pbrMetallicRoughness":{
				"baseColorFactor":[
					0.011764699593186378,
					0.011764699593186378,
					0.011764699593186378,
					1
				],
				"metallicFactor":0,
				"roughnessFactor":0.20000000298023224
			}
		}
	],
	"meshes":[
		{
			"name":"Object_0.001",
			"primitives":[
				{
					"attributes":{
						"POSITION":0,
						"NORMAL":1,
						"TEXCOORD_0":2
					},
					"indices":3,
					"material":0
				}
			]
		}
	],
	"accessors":[
		{
			"bufferView":0,
			"componentType":5126,
			"count":1883,
			"max":[
				2.1711013317108154,
				1.9430910348892212,
				4.206750869750977
			],
			"min":[
				-2.1727685928344727,
				-1.915372610092163,
				-4.340452671051025
			],
			"type":"VEC3"
		},
		{
			"bufferView":1,
			"componentType":5126,
			"count":1883,
			"type":"VEC3"
		},
		{
			"bufferView":2,
			"componentType":5126,
			"count":1883,
			"type":"VEC2"
		},
		{
			"bufferView":3,
			"componentType":5123,
			"count":4785,
			"type":"SCALAR"
		}
	],
	"bufferViews":[
		{
			"buffer":0,
			"byteLength":22596,
			"byteOffset":0,
			"target":34962
		},
		{
			"buffer":0,
			"byteLength":22596,
			"byteOffset":22596,
			"target":34962
		},
		{
			"buffer":0,
			"byteLength":15064,
			"byteOffset":45192,
			"target":34962
		},
		{
			"buffer":0,
			"byteLength":9570,
			"byteOffset":60256,
			"target":34963
		}
	],
	"buffers":[
		{
			"byteLength":69828,
			"uri":"tick.bin"
		}
	]
}
