{
	"asset":{
		"generator":"Khronos glTF Blender I/O v3.6.27",
		"version":"2.0"
	},
	"scene":0,
	"scenes":[
		{
			"name":"Scene",
			"nodes":[
				0,
				1,
				2,
				3,
				4,
				5,
				6,
				7,
				8,
				9
			]
		}
	],
	"nodes":[
		{
			"mesh":0,
			"name":"head",
			"translation":[
				0,
				0.2670132517814636,
				0.02017362415790558
			]
		},
		{
			"mesh":1,
			"name":"head.001",
			"translation":[
				0,
				0.2670132517814636,
				0.02017362415790558
			]
		},
		{
			"mesh":2,
			"name":"objective-lower",
			"rotation":[
				0.3874780237674713,
				0,
				0,
				0.9218789339065552
			],
			"scale":[
				0.9921490550041199,
				0.9921490550041199,
				0.9921490550041199
			],
			"translation":[
				-0.03165873512625694,
				0.2927283048629761,
				0.09093224257230759
			]
		},
		{
			"mesh":3,
			"name":"objective",
			"rotation":[
				0.3874780237674713,
				0,
				0,
				0.9218789339065552
			],
			"scale":[
				0.9921490550041199,
				0.9921490550041199,
				0.9921490550041199
			],
			"translation":[
				-0.03165873512625694,
				0.28095394372940063,
				0.07891062647104263
			]
		},
		{
			"mesh":4,
			"name":"Cube",
			"scale":[
				0.019554059952497482,
				0.0010000000474974513,
				0
			],
			"translation":[
				-0.05799161270260811,
				0.3307112157344818,
				0.1185346245765686
			]
		},
		{
			"mesh":5,
			"name":"Cube.001",
			"scale":[
				0.07016384601593018,
				0.009707197546958923,
				9.999999747378752e-05
			],
			"translation":[
				-0.1461462825536728,
				0.33121296763420105,
				0.11855518817901611
			]
		},
		{
			"mesh":6,
			"name":"Text",
			"rotation":[
				0.7071068286895752,
				0,
				0,
				0.7071068286895752
			],
			"scale":[
				0.011089053936302662,
				0.02460140734910965,
				0.013473319821059704
			],
			"translation":[
				-0.20399458706378937,
				0.32629165053367615,
				0.11905768513679504
			]
		},
		{
			"mesh":7,
			"name":"Cube.026",
			"scale":[
				0.019554059952497482,
				0.0010000000474974513,
				0
			],
			"translation":[
				-0.0597708486020565,
				0.30307725071907043,
				0.08595355600118637
			]
		},
		{
			"mesh":8,
			"name":"Cube.027",
			"scale":[
				0.08131556957960129,
				0.009707197546958923,
				9.999999747378752e-05
			],
			"translation":[
				-0.16116021573543549,
				0.3035790026187897,
				0.08597411960363388
			]
		},
		{
			"mesh":9,
			"name":"Text.013",
			"rotation":[
				0.7071068286895752,
				0,
				0,
				0.7071068286895752
			],
			"scale":[
				0.011089053936302662,
				0.02460140734910965,
				0.013473319821059704
			],
			"translation":[
				-0.22997063398361206,
				0.29865768551826477,
				0.08647661656141281
			]
		}
	],
	"materials":[
		{
			"doubleSided":true,
			"name":"Material",
			"pbrMetallicRoughness":{
				"baseColorFactor":[
					0.8000000715255737,
					0.7875087857246399,
					0.7507203817367554,
					1
				],
				"metallicFactor":0,
				"roughnessFactor":0.8257575631141663
			}
		},
		{
			"doubleSided":true,
			"name":"black plastic",
			"pbrMetallicRoughness":{
				"baseColorFactor":[
					0.0056046294048428535,
					0.0056046294048428535,
					0.0056046294048428535,
					1
				],
				"metallicFactor":0,
				"roughnessFactor":0.6166667342185974
			}
		},
		{
			"doubleSided":true,
			"name":"black plastic.001",
			"pbrMetallicRoughness":{
				"baseColorFactor":[
					0.0056046294048428535,
					0.0056046294048428535,
					0.0056046294048428535,
					1
				],
				"metallicFactor":0,
				"roughnessFactor":0.6166667342185974
			}
		},
		{
			"doubleSided":true,
			"name":"glass",
			"pbrMetallicRoughness":{
				"baseColorFactor":[
					0.38437479734420776,
					0.3731274902820587,
					0.3731274902820587,
					1
				],
				"metallicFactor":0,
				"roughnessFactor":0
			}
		},
		{
			"doubleSided":true,
			"name":"black plastic",
			"pbrMetallicRoughness":{
				"baseColorFactor":[
					0.0056046294048428535,
					0.0056046294048428535,
					0.0056046294048428535,
					1
				],
				"metallicFactor":0,
				"roughnessFactor":0.6166667342185974
			}
		}
	],
	"meshes":[
		{
			"name":"Cube.006",
			"primitives":[
				{
					"attributes":{
						"POSITION":0,
						"NORMAL":1,
						"TEXCOORD_0":2
					},
					"indices":3,
					"material":0
				},
				{
					"attributes":{
						"POSITION":4,
						"NORMAL":5,
						"TEXCOORD_0":6
					},
					"indices":7,
					"material":1
				}
			]
		},
		{
			"name":"Cube.007",
			"primitives":[
				{
					"attributes":{
						"POSITION":8,
						"NORMAL":9,
						"TEXCOORD_0":10
					},
					"indices":11,
					"material":0
				},
				{
					"attributes":{
						"POSITION":12,
						"NORMAL":13,
						"TEXCOORD_0":14
					},
					"indices":15,
					"material":1
				}
			]
		},
		{
			"name":"Cylinder.011",
			"primitives":[
				{
					"attributes":{
						"POSITION":16,
						"NORMAL":17,
						"TEXCOORD_0":18
					},
					"indices":19,
					"material":1
				}
			]
		},
		{
			"name":"Cylinder.012",
			"primitives":[
				{
					"attributes":{
						"POSITION":20,
						"NORMAL":21,
						"TEXCOORD_0":22,
						"TEXCOORD_1":23
					},
					"indices":24,
					"material":2
				},
				{
					"attributes":{
						"POSITION":25,
						"NORMAL":26,
						"TEXCOORD_0":27,
						"TEXCOORD_1":28
					},
					"indices":29,
					"material":3
				}
			]
		},
		{
			"name":"Cube.005",
			"primitives":[
				{
					"attributes":{
						"POSITION":30,
						"NORMAL":31,
						"TEXCOORD_0":32
					},
					"indices":33
				}
			]
		},
		{
			"name":"Cube.009",
			"primitives":[
				{
					"attributes":{
						"POSITION":34,
						"NORMAL":35,
						"TEXCOORD_0":36
					},
					"indices":33
				}
			]
		},
		{
			"name":"Text",
			"primitives":[
				{
					"attributes":{
						"POSITION":37,
						"NORMAL":38,
						"TEXCOORD_0":39
					},
					"indices":40,
					"material":4
				}
			]
		},
		{
			"name":"Cube.023",
			"primitives":[
				{
					"attributes":{
						"POSITION":41,
						"NORMAL":42,
						"TEXCOORD_0":43
					},
					"indices":33
				}
			]
		},
		{
			"name":"Cube.034",
			"primitives":[
				{
					"attributes":{
						"POSITION":44,
						"NORMAL":45,
						"TEXCOORD_0":46
					},
					"indices":33
				}
			]
		},
		{
			"name":"Text.007",
			"primitives":[
				{
					"attributes":{
						"POSITION":47,
						"NORMAL":48,
						"TEXCOORD_0":49
					},
					"indices":50,
					"material":4
				}
			]
		}
	],
	"accessors":[
		{
			"bufferView":0,
			"componentType":5126,
			"count":990,
			"max":[
				0.06050604581832886,
				0.031242594122886658,
				0.07809000462293625
			],
			"min":[
				-0.06050604581832886,
				-0.019080348312854767,
				-0.04000000283122063
			],
			"type":"VEC3"
		},
		{
			"bufferView":1,
			"componentType":5126,
			"count":990,
			"type":"VEC3"
		},
		{
			"bufferView":2,
			"componentType":5126,
			"count":990,
			"type":"VEC2"
		},
		{
			"bufferView":3,
			"componentType":5123,
			"count":2766,
			"type":"SCALAR"
		},
		{
			"bufferView":4,
			"componentType":5126,
			"count":198,
			"max":[
				0.06050604581832886,
				0.03378953039646149,
				0.08069869130849838
			],
			"min":[
				-0.06050604581832886,
				0.001592201180756092,
				0.049016594886779785
			],
			"type":"VEC3"
		},
		{
			"bufferView":5,
			"componentType":5126,
			"count":198,
			"type":"VEC3"
		},
		{
			"bufferView":6,
			"componentType":5126,
			"count":198,
			"type":"VEC2"
		},
		{
			"bufferView":7,
			"componentType":5123,
			"count":708,
			"type":"SCALAR"
		},
		{
			"bufferView":8,
			"componentType":5126,
			"count":1284,
			"max":[
				0.045682378113269806,
				0.03236565366387367,
				0.07714379578828812
			],
			"min":[
				-0.045682355761528015,
				0.010326617397367954,
				0.05545223131775856
			],
			"type":"VEC3"
		},
		{
			"bufferView":9,
			"componentType":5126,
			"count":1284,
			"type":"VEC3"
		},
		{
			"bufferView":10,
			"componentType":5126,
			"count":1284,
			"type":"VEC2"
		},
		{
			"bufferView":11,
			"componentType":5123,
			"count":3840,
			"type":"SCALAR"
		},
		{
			"bufferView":12,
			"componentType":5126,
			"count":2414,
			"max":[
				0.0674811527132988,
				0.03864534571766853,
				0.08563486486673355
			],
			"min":[
				-0.0674811527132988,
				-0.0044550057500600815,
				0.04286501184105873
			],
			"type":"VEC3"
		},
		{
			"bufferView":13,
			"componentType":5126,
			"count":2414,
			"type":"VEC3"
		},
		{
			"bufferView":14,
			"componentType":5126,
			"count":2414,
			"type":"VEC2"
		},
		{
			"bufferView":15,
			"componentType":5123,
			"count":10764,
			"type":"SCALAR"
		},
		{
			"bufferView":16,
			"componentType":5126,
			"count":6841,
			"max":[
				0.08040602505207062,
				0.02694862149655819,
				0.016587529331445694
			],
			"min":[
				-0.016587529331445694,
				-0.005016390234231949,
				-0.01658753678202629
			],
			"type":"VEC3"
		},
		{
			"bufferView":17,
			"componentType":5126,
			"count":6841,
			"type":"VEC3"
		},
		{
			"bufferView":18,
			"componentType":5126,
			"count":6841,
			"type":"VEC2"
		},
		{
			"bufferView":19,
			"componentType":5123,
			"count":25344,
			"type":"SCALAR"
		},
		{
			"bufferView":20,
			"componentType":5126,
			"count":4183,
			"max":[
				0.07505951821804047,
				0.07295966148376465,
				0.011241009458899498
			],
			"min":[
				-0.011241018772125244,
				0.02694862149655819,
				-0.011241008527576923
			],
			"type":"VEC3"
		},
		{
			"bufferView":21,
			"componentType":5126,
			"count":4183,
			"type":"VEC3"
		},
		{
			"bufferView":22,
			"componentType":5126,
			"count":4183,
			"type":"VEC2"
		},
		{
			"bufferView":23,
			"componentType":5126,
			"count":4183,
			"type":"VEC2"
		},
		{
			"bufferView":24,
			"componentType":5123,
			"count":14196,
			"type":"SCALAR"
		},
		{
			"bufferView":25,
			"componentType":5126,
			"count":258,
			"max":[
				0.06938564032316208,
				0.07195331156253815,
				0.005567130167037249
			],
			"min":[
				-0.005567140411585569,
				0.07195329666137695,
				-0.005567129701375961
			],
			"type":"VEC3"
		},
		{
			"bufferView":26,
			"componentType":5126,
			"count":258,
			"type":"VEC3"
		},
		{
			"bufferView":27,
			"componentType":5126,
			"count":258,
			"type":"VEC2"
		},
		{
			"bufferView":28,
			"componentType":5126,
			"count":258,
			"type":"VEC2"
		},
		{
			"bufferView":29,
			"componentType":5123,
			"count":1140,
			"type":"SCALAR"
		},
		{
			"bufferView":30,
			"componentType":5126,
			"count":24,
			"max":[
				1,
				1,
				1
			],
			"min":[
				-1,
				-1,
				-1
			],
			"type":"VEC3"
		},
		{
			"bufferView":31,
			"componentType":5126,
			"count":24,
			"type":"VEC3"
		},
		{
			"bufferView":32,
			"componentType":5126,
			"count":24,
			"type":"VEC2"
		},
		{
			"bufferView":33,
			"componentType":5123,
			"count":36,
			"type":"SCALAR"
		},
		{
			"bufferView":34,
			"componentType":5126,
			"count":24,
			"max":[
				1,
				1,
				1
			],
			"min":[
				-1,
				-1,
				-1
			],
			"type":"VEC3"
		},
		{
			"bufferView":35,
			"componentType":5126,
			"count":24,
			"type":"VEC3"
		},
		{
			"bufferView":36,
			"componentType":5126,
			"count":24,
			"type":"VEC2"
		},
		{
			"bufferView":37,
			"componentType":5126,
			"count":3054,
			"max":[
				10.82800006866455,
				0.010000000707805157,
				0.009000000543892384
			],
			"min":[
				0.07500000298023224,
				-0.010000000707805157,
				-0.6910000443458557
			],
			"type":"VEC3"
		},
		{
			"bufferView":38,
			"componentType":5126,
			"count":3054,
			"type":"VEC3"
		},
		{
			"bufferView":39,
			"componentType":5126,
			"count":3054,
			"type":"VEC2"
		},
		{
			"bufferView":40,
			"componentType":5123,
			"count":8844,
			"type":"SCALAR"
		},
		{
			"bufferView":41,
			"componentType":5126,
			"count":24,
			"max":[
				1,
				1,
				1
			],
			"min":[
				-1,
				-1,
				-1
			],
			"type":"VEC3"
		},
		{
			"bufferView":42,
			"componentType":5126,
			"count":24,
			"type":"VEC3"
		},
		{
			"bufferView":43,
			"componentType":5126,
			"count":24,
			"type":"VEC2"
		},
		{
			"bufferView":44,
			"componentType":5126,
			"count":24,
			"max":[
				1,
				1,
				1
			],
			"min":[
				-1,
				-1,
				-1
			],
			"type":"VEC3"
		},
		{
			"bufferView":45,
			"componentType":5126,
			"count":24,
			"type":"VEC3"
		},
		{
			"bufferView":46,
			"componentType":5126,
			"count":24,
			"type":"VEC2"
		},
		{
			"bufferView":47,
			"componentType":5126,
			"count":3635,
			"max":[
				12.370000839233398,
				0.010000000707805157,
				0.009000000543892384
			],
			"min":[
				0.07500000298023224,
				-0.010000000707805157,
				-0.6910000443458557
			],
			"type":"VEC3"
		},
		{
			"bufferView":48,
			"componentType":5126,
			"count":3635,
			"type":"VEC3"
		},
		{
			"bufferView":49,
			"componentType":5126,
			"count":3635,
			"type":"VEC2"
		},
		{
			"bufferView":50,
			"componentType":5123,
			"count":10560,
			"type":"SCALAR"
		}
	],
	"bufferViews":[
		{
			"buffer":0,
			"byteLength":11880,
			"byteOffset":0,
			"target":34962
		},
		{
			"buffer":0,
			"byteLength":11880,
			"byteOffset":11880,
			"target":34962
		},
		{
			"buffer":0,
			"byteLength":7920,
			"byteOffset":23760,
			"target":34962
		},
		{
			"buffer":0,
			"byteLength":5532,
			"byteOffset":31680,
			"target":34963
		},
		{
			"buffer":0,
			"byteLength":2376,
			"byteOffset":37212,
			"target":34962
		},
		{
			"buffer":0,
			"byteLength":2376,
			"byteOffset":39588,
			"target":34962
		},
		{
			"buffer":0,
			"byteLength":1584,
			"byteOffset":41964,
			"target":34962
		},
		{
			"buffer":0,
			"byteLength":1416,
			"byteOffset":43548,
			"target":34963
		},
		{
			"buffer":0,
			"byteLength":15408,
			"byteOffset":44964,
			"target":34962
		},
		{
			"buffer":0,
			"byteLength":15408,
			"byteOffset":60372,
			"target":34962
		},
		{
			"buffer":0,
			"byteLength":10272,
			"byteOffset":75780,
			"target":34962
		},
		{
			"buffer":0,
			"byteLength":7680,
			"byteOffset":86052,
			"target":34963
		},
		{
			"buffer":0,
			"byteLength":28968,
			"byteOffset":93732,
			"target":34962
		},
		{
			"buffer":0,
			"byteLength":28968,
			"byteOffset":122700,
			"target":34962
		},
		{
			"buffer":0,
			"byteLength":19312,
			"byteOffset":151668,
			"target":34962
		},
		{
			"buffer":0,
			"byteLength":21528,
			"byteOffset":170980,
			"target":34963
		},
		{
			"buffer":0,
			"byteLength":82092,
			"byteOffset":192508,
			"target":34962
		},
		{
			"buffer":0,
			"byteLength":82092,
			"byteOffset":274600,
			"target":34962
		},
		{
			"buffer":0,
			"byteLength":54728,
			"byteOffset":356692,
			"target":34962
		},
		{
			"buffer":0,
			"byteLength":50688,
			"byteOffset":411420,
			"target":34963
		},
		{
			"buffer":0,
			"byteLength":50196,
			"byteOffset":462108,
			"target":34962
		},
		{
			"buffer":0,
			"byteLength":50196,
			"byteOffset":512304,
			"target":34962
		},
		{
			"buffer":0,
			"byteLength":33464,
			"byteOffset":562500,
			"target":34962
		},
		{
			"buffer":0,
			"byteLength":33464,
			"byteOffset":595964,
			"target":34962
		},
		{
			"buffer":0,
			"byteLength":28392,
			"byteOffset":629428,
			"target":34963
		},
		{
			"buffer":0,
			"byteLength":3096,
			"byteOffset":657820,
			"target":34962
		},
		{
			"buffer":0,
			"byteLength":3096,
			"byteOffset":660916,
			"target":34962
		},
		{
			"buffer":0,
			"byteLength":2064,
			"byteOffset":664012,
			"target":34962
		},
		{
			"buffer":0,
			"byteLength":2064,
			"byteOffset":666076,
			"target":34962
		},
		{
			"buffer":0,
			"byteLength":2280,
			"byteOffset":668140,
			"target":34963
		},
		{
			"buffer":0,
			"byteLength":288,
			"byteOffset":670420,
			"target":34962
		},
		{
			"buffer":0,
			"byteLength":288,
			"byteOffset":670708,
			"target":34962
		},
		{
			"buffer":0,
			"byteLength":192,
			"byteOffset":670996,
			"target":34962
		},
		{
			"buffer":0,
			"byteLength":72,
			"byteOffset":671188,
			"target":34963
		},
		{
			"buffer":0,
			"byteLength":288,
			"byteOffset":671260,
			"target":34962
		},
		{
			"buffer":0,
			"byteLength":288,
			"byteOffset":671548,
			"target":34962
		},
		{
			"buffer":0,
			"byteLength":192,
			"byteOffset":671836,
			"target":34962
		},
		{
			"buffer":0,
			"byteLength":36648,
			"byteOffset":672028,
			"target":34962
		},
		{
			"buffer":0,
			"byteLength":36648,
			"byteOffset":708676,
			"target":34962
		},
		{
			"buffer":0,
			"byteLength":24432,
			"byteOffset":745324,
			"target":34962
		},
		{
			"buffer":0,
			"byteLength":17688,
			"byteOffset":769756,
			"target":34963
		},
		{
			"buffer":0,
			"byteLength":288,
			"byteOffset":787444,
			"target":34962
		},
		{
			"buffer":0,
			"byteLength":288,
			"byteOffset":787732,
			"target":34962
		},
		{
			"buffer":0,
			"byteLength":192,
			"byteOffset":788020,
			"target":34962
		},
		{
			"buffer":0,
			"byteLength":288,
			"byteOffset":788212,
			"target":34962
		},
		{
			"buffer":0,
			"byteLength":288,
			"byteOffset":788500,
			"target":34962
		},
		{
			"buffer":0,
			"byteLength":192,
			"byteOffset":788788,
			"target":34962
		},
		{
			"buffer":0,
			"byteLength":43620,
			"byteOffset":788980,
			"target":34962
		},
		{
			"buffer":0,
			"byteLength":43620,
			"byteOffset":832600,
			"target":34962
		},
		{
			"buffer":0,
			"byteLength":29080,
			"byteOffset":876220,
			"target":34962
		},
		{
			"buffer":0,
			"byteLength":21120,
			"byteOffset":905300,
			"target":34963
		}
	],
	"buffers":[
		{
			"byteLength":926420,
			"uri":"eye.bin"
		}
	]
}
