{
	"asset":{
		"generator":"Khronos glTF Blender I/O v4.0.43",
		"version":"2.0"
	},
	"scene":0,
	"scenes":[
		{
			"name":"Scene",
			"nodes":[
				0,
				1,
				2
			]
		}
	],
	"nodes":[
		{
			"mesh":0,
			"name":"Plane.013",
			"rotation":[
				-0.5003611445426941,
				0.5003611445426941,
				-0.4996386468410492,
				0.4996386766433716
			],
			"scale":[
				2.980520725250244,
				1,
				7.968738555908203
			],
			"translation":[
				-0.3181871175765991,
				2.2642641067504883,
				-2.3603708744049072
			]
		},
		{
			"mesh":1,
			"name":"Text.001",
			"rotation":[
				0.7071066498756409,
				0.0005109042976982892,
				-0.0005109043559059501,
				0.7071066498756409
			],
			"scale":[
				0.4343431890010834,
				0.9138297438621521,
				0.43434321880340576
			],
			"translation":[
				-2.6100709438323975,
				4.468120574951172,
				-2.2497689723968506
			]
		},
		{
			"mesh":2,
			"name":"Plane",
			"rotation":[
				0.7071068286895752,
				0,
				0,
				0.7071068286895752
			],
			"scale":[
				2.2483601570129395,
				1,
				1.7441481351852417
			],
			"translation":[
				-0.2195274829864502,
				2.4867961406707764,
				-1.90787672996521
			]
		}
	],
	"materials":[
		{
			"doubleSided":true,
			"name":"Material.044",
			"pbrMetallicRoughness":{
				"baseColorFactor":[
					0.006513136439025402,
					0.05612606555223465,
					0.009133409708738327,
					1
				],
				"metallicFactor":0,
				"roughnessFactor":0.5
			}
		},
		{
			"doubleSided":true,
			"name":"Material.048",
			"pbrMetallicRoughness":{
				"metallicFactor":0,
				"roughnessFactor":0.5
			}
		},
		{
			"doubleSided":true,
			"name":"Material.079",
			"pbrMetallicRoughness":{
				"baseColorTexture":{
					"index":0
				},
				"metallicFactor":0,
				"roughnessFactor":0.5
			}
		}
	],
	"meshes":[
		{
			"name":"Plane.026",
			"primitives":[
				{
					"attributes":{
						"POSITION":0,
						"NORMAL":1,
						"TEXCOORD_0":2
					},
					"indices":3,
					"material":0
				}
			]
		},
		{
			"name":"Text.008",
			"primitives":[
				{
					"attributes":{
						"POSITION":4,
						"NORMAL":5,
						"TEXCOORD_0":6
					},
					"indices":7,
					"material":1
				}
			]
		},
		{
			"name":"Plane.039",
			"primitives":[
				{
					"attributes":{
						"POSITION":8,
						"NORMAL":9,
						"TEXCOORD_0":10
					},
					"indices":3,
					"material":2
				}
			]
		}
	],
	"textures":[
		{
			"sampler":0,
			"source":0
		}
	],
	"images":[
		{
			"mimeType":"image/jpeg",
			"name":"embryo_implantation.jpg",
			"uri":"embryo_implantation.jpg"
		}
	],
	"accessors":[
		{
			"bufferView":0,
			"componentType":5126,
			"count":4,
			"max":[
				1,
				0,
				1
			],
			"min":[
				-1,
				0,
				-1
			],
			"type":"VEC3"
		},
		{
			"bufferView":1,
			"componentType":5126,
			"count":4,
			"type":"VEC3"
		},
		{
			"bufferView":2,
			"componentType":5126,
			"count":4,
			"type":"VEC2"
		},
		{
			"bufferView":3,
			"componentType":5123,
			"count":6,
			"type":"SCALAR"
		},
		{
			"bufferView":4,
			"componentType":5126,
			"count":6596,
			"max":[
				10.929000854492188,
				0.020000001415610313,
				0.23000000417232513
			],
			"min":[
				0.07600000500679016,
				-0.020000001415610313,
				-0.6820000410079956
			],
			"type":"VEC3"
		},
		{
			"bufferView":5,
			"componentType":5126,
			"count":6596,
			"type":"VEC3"
		},
		{
			"bufferView":6,
			"componentType":5126,
			"count":6596,
			"type":"VEC2"
		},
		{
			"bufferView":7,
			"componentType":5123,
			"count":19320,
			"type":"SCALAR"
		},
		{
			"bufferView":8,
			"componentType":5126,
			"count":4,
			"max":[
				1,
				0,
				1
			],
			"min":[
				-1,
				0,
				-1
			],
			"type":"VEC3"
		},
		{
			"bufferView":9,
			"componentType":5126,
			"count":4,
			"type":"VEC3"
		},
		{
			"bufferView":10,
			"componentType":5126,
			"count":4,
			"type":"VEC2"
		}
	],
	"bufferViews":[
		{
			"buffer":0,
			"byteLength":48,
			"byteOffset":0,
			"target":34962
		},
		{
			"buffer":0,
			"byteLength":48,
			"byteOffset":48,
			"target":34962
		},
		{
			"buffer":0,
			"byteLength":32,
			"byteOffset":96,
			"target":34962
		},
		{
			"buffer":0,
			"byteLength":12,
			"byteOffset":128,
			"target":34963
		},
		{
			"buffer":0,
			"byteLength":79152,
			"byteOffset":140,
			"target":34962
		},
		{
			"buffer":0,
			"byteLength":79152,
			"byteOffset":79292,
			"target":34962
		},
		{
			"buffer":0,
			"byteLength":52768,
			"byteOffset":158444,
			"target":34962
		},
		{
			"buffer":0,
			"byteLength":38640,
			"byteOffset":211212,
			"target":34963
		},
		{
			"buffer":0,
			"byteLength":48,
			"byteOffset":249852,
			"target":34962
		},
		{
			"buffer":0,
			"byteLength":48,
			"byteOffset":249900,
			"target":34962
		},
		{
			"buffer":0,
			"byteLength":32,
			"byteOffset":249948,
			"target":34962
		}
	],
	"samplers":[
		{
			"magFilter":9729,
			"minFilter":9987
		}
	],
	"buffers":[
		{
			"byteLength":249980,
			"uri":"extra.bin"
		}
	]
}
