{
	"asset":{
		"generator":"Khronos glTF Blender I/O v4.0.43",
		"version":"2.0"
	},
	"scene":0,
	"scenes":[
		{
			"name":"Scene",
			"nodes":[
				0,
				1,
				2,
				3,
				4,
				5,
				6,
				7,
				8,
				9,
				10,
				11,
				12
			]
		}
	],
	"nodes":[
		{
			"mesh":0,
			"name":"Text.008",
			"rotation":[
				0.7071066498756409,
				0.0005109042976982892,
				-0.0005109043559059501,
				0.7071066498756409
			],
			"scale":[
				0.4343431890010834,
				0.9138297438621521,
				0.43434321880340576
			],
			"translation":[
				-6.322910308837891,
				3.753901481628418,
				-2.2497689723968506
			]
		},
		{
			"mesh":1,
			"name":"Text.009",
			"rotation":[
				0.7071066498756409,
				0.0005109042976982892,
				-0.0005109042976982892,
				0.7071066498756409
			],
			"scale":[
				0.4443278908729553,
				0.9138297438621521,
				0.4443278908729553
			],
			"translation":[
				2.9163098335266113,
				3.810556411743164,
				-2.2583565711975098
			]
		},
		{
			"mesh":2,
			"name":"Plane.013",
			"rotation":[
				-0.5003611445426941,
				0.5003611445426941,
				-0.4996386468410492,
				0.4996386766433716
			],
			"scale":[
				2.980520725250244,
				1,
				7.968738555908203
			],
			"translation":[
				-0.3181871175765991,
				2.2642641067504883,
				-2.3603708744049072
			]
		},
		{
			"mesh":3,
			"name":"Text.001",
			"rotation":[
				0.7071066498756409,
				0.0005109042976982892,
				-0.0005109043559059501,
				0.7071066498756409
			],
			"scale":[
				0.4343431890010834,
				0.9138297438621521,
				0.43434321880340576
			],
			"translation":[
				-1.9205501079559326,
				4.468120574951172,
				-2.2497689723968506
			]
		},
		{
			"mesh":4,
			"name":"Sphere.001",
			"rotation":[
				-0.21615688502788544,
				0.6349791884422302,
				0.24239984154701233,
				0.7009422183036804
			],
			"scale":[
				0.11172658950090408,
				0.19440554082393646,
				0.08592966943979263
			],
			"translation":[
				-5.448110580444336,
				2.899810314178467,
				-1.333584189414978
			]
		},
		{
			"mesh":5,
			"name":"Sphere",
			"translation":[
				3.7192673683166504,
				2.3653600215911865,
				-0.8217713832855225
			]
		},
		{
			"mesh":6,
			"name":"Sphere.002",
			"rotation":[
				-0.21615688502788544,
				0.6349791884422302,
				0.24239984154701233,
				0.7009422183036804
			],
			"scale":[
				0.11172658950090408,
				0.19440554082393646,
				0.08592966943979263
			],
			"translation":[
				-5.428791522979736,
				3.082534074783325,
				-1.3927679061889648
			]
		},
		{
			"mesh":7,
			"name":"Sphere.003",
			"rotation":[
				-0.21615688502788544,
				0.6349791884422302,
				0.24239984154701233,
				0.7009422183036804
			],
			"scale":[
				0.11172658950090408,
				0.19440554082393646,
				0.08592966943979263
			],
			"translation":[
				-5.340075492858887,
				2.8062198162078857,
				-1.2188410758972168
			]
		},
		{
			"mesh":8,
			"name":"Sphere.004",
			"rotation":[
				-0.21615688502788544,
				0.6349791884422302,
				0.24239984154701233,
				0.7009422183036804
			],
			"scale":[
				0.11172658950090408,
				0.19440554082393646,
				0.08592966943979263
			],
			"translation":[
				-5.166016578674316,
				2.6500229835510254,
				-1.2409887313842773
			]
		},
		{
			"mesh":9,
			"name":"Sphere.005",
			"rotation":[
				-0.21615688502788544,
				0.6349791884422302,
				0.24239984154701233,
				0.7009422183036804
			],
			"scale":[
				0.11172658950090408,
				0.19440554082393646,
				0.08592966943979263
			],
			"translation":[
				-4.95250129699707,
				2.9864702224731445,
				-1.208906650543213
			]
		},
		{
			"mesh":10,
			"name":"Sphere.006",
			"rotation":[
				-0.21615688502788544,
				0.6349791884422302,
				0.24239984154701233,
				0.7009422183036804
			],
			"scale":[
				0.11172658950090408,
				0.19440554082393646,
				0.08592966943979263
			],
			"translation":[
				-5.103384017944336,
				3.11391282081604,
				-1.257987380027771
			]
		},
		{
			"mesh":11,
			"name":"Sphere.007",
			"rotation":[
				-0.21615688502788544,
				0.6349791884422302,
				0.24239984154701233,
				0.7009422183036804
			],
			"scale":[
				0.11172658950090408,
				0.19440554082393646,
				0.08592966943979263
			],
			"translation":[
				-4.769219398498535,
				2.736682891845703,
				-1.1424182653427124
			]
		},
		{
			"mesh":12,
			"name":"Plane",
			"rotation":[
				0.00701292185112834,
				-0.7070720791816711,
				-0.7070720195770264,
				0.0070129213854670525
			],
			"scale":[
				1.2892558574676514,
				1,
				1.000130295753479
			],
			"translation":[
				-0.5197038054466248,
				2.4867961406707764,
				-1.90787672996521
			]
		}
	],
	"materials":[
		{
			"doubleSided":true,
			"name":"Material.038",
			"pbrMetallicRoughness":{
				"metallicFactor":0,
				"roughnessFactor":0.5
			}
		},
		{
			"doubleSided":true,
			"name":"Material.039",
			"pbrMetallicRoughness":{
				"metallicFactor":0,
				"roughnessFactor":0.5
			}
		},
		{
			"doubleSided":true,
			"name":"Material.044",
			"pbrMetallicRoughness":{
				"baseColorFactor":[
					0.006513136439025402,
					0.05612606555223465,
					0.009133409708738327,
					1
				],
				"metallicFactor":0,
				"roughnessFactor":0.5
			}
		},
		{
			"doubleSided":true,
			"name":"Material.048",
			"pbrMetallicRoughness":{
				"metallicFactor":0,
				"roughnessFactor":0.5
			}
		},
		{
			"doubleSided":true,
			"name":"Material.070",
			"pbrMetallicRoughness":{
				"baseColorFactor":[
					0.6323094964027405,
					0.8002194166183472,
					0.4031204283237457,
					1
				],
				"metallicFactor":0,
				"roughnessFactor":0.5
			}
		},
		{
			"doubleSided":true,
			"name":"Material.078",
			"pbrMetallicRoughness":{
				"baseColorFactor":[
					0.800000011920929,
					0.800000011920929,
					0.800000011920929,
					1
				],
				"metallicFactor":0,
				"roughnessFactor":0.5
			}
		},
		{
			"doubleSided":true,
			"name":"Material.072",
			"pbrMetallicRoughness":{
				"baseColorFactor":[
					0.6323094964027405,
					0.8002194166183472,
					0.4031204283237457,
					1
				],
				"metallicFactor":0,
				"roughnessFactor":0.5
			}
		},
		{
			"doubleSided":true,
			"name":"Material.073",
			"pbrMetallicRoughness":{
				"baseColorFactor":[
					0.6323094964027405,
					0.8002194166183472,
					0.4031204283237457,
					1
				],
				"metallicFactor":0,
				"roughnessFactor":0.5
			}
		},
		{
			"doubleSided":true,
			"name":"Material.074",
			"pbrMetallicRoughness":{
				"baseColorFactor":[
					0.6323094964027405,
					0.8002194166183472,
					0.4031204283237457,
					1
				],
				"metallicFactor":0,
				"roughnessFactor":0.5
			}
		},
		{
			"doubleSided":true,
			"name":"Material.075",
			"pbrMetallicRoughness":{
				"baseColorFactor":[
					0.6323094964027405,
					0.8002194166183472,
					0.4031204283237457,
					1
				],
				"metallicFactor":0,
				"roughnessFactor":0.5
			}
		},
		{
			"doubleSided":true,
			"name":"Material.076",
			"pbrMetallicRoughness":{
				"baseColorFactor":[
					0.6323094964027405,
					0.8002194166183472,
					0.4031204283237457,
					1
				],
				"metallicFactor":0,
				"roughnessFactor":0.5
			}
		},
		{
			"doubleSided":true,
			"name":"Material.077",
			"pbrMetallicRoughness":{
				"baseColorFactor":[
					0.6323094964027405,
					0.8002194166183472,
					0.4031204283237457,
					1
				],
				"metallicFactor":0,
				"roughnessFactor":0.5
			}
		},
		{
			"doubleSided":true,
			"name":"Material.079",
			"pbrMetallicRoughness":{
				"baseColorTexture":{
					"index":0
				},
				"metallicFactor":0,
				"roughnessFactor":0.5
			}
		}
	],
	"meshes":[
		{
			"name":"Text.022",
			"primitives":[
				{
					"attributes":{
						"POSITION":0,
						"NORMAL":1,
						"TEXCOORD_0":2
					},
					"indices":3,
					"material":0
				}
			]
		},
		{
			"name":"Text.023",
			"primitives":[
				{
					"attributes":{
						"POSITION":4,
						"NORMAL":5,
						"TEXCOORD_0":6
					},
					"indices":7,
					"material":1
				}
			]
		},
		{
			"name":"Plane.026",
			"primitives":[
				{
					"attributes":{
						"POSITION":8,
						"NORMAL":9,
						"TEXCOORD_0":10
					},
					"indices":11,
					"material":2
				}
			]
		},
		{
			"name":"Text.008",
			"primitives":[
				{
					"attributes":{
						"POSITION":12,
						"NORMAL":13,
						"TEXCOORD_0":14
					},
					"indices":15,
					"material":3
				}
			]
		},
		{
			"name":"Sphere.001",
			"primitives":[
				{
					"attributes":{
						"POSITION":16,
						"NORMAL":17
					},
					"indices":18,
					"material":4
				}
			]
		},
		{
			"name":"Sphere.003",
			"primitives":[
				{
					"attributes":{
						"POSITION":19,
						"NORMAL":20,
						"TEXCOORD_0":21
					},
					"indices":22,
					"material":5
				}
			]
		},
		{
			"name":"Sphere.011",
			"primitives":[
				{
					"attributes":{
						"POSITION":23,
						"NORMAL":24
					},
					"indices":18,
					"material":6
				}
			]
		},
		{
			"name":"Sphere.012",
			"primitives":[
				{
					"attributes":{
						"POSITION":25,
						"NORMAL":26
					},
					"indices":18,
					"material":7
				}
			]
		},
		{
			"name":"Sphere.013",
			"primitives":[
				{
					"attributes":{
						"POSITION":27,
						"NORMAL":28
					},
					"indices":18,
					"material":8
				}
			]
		},
		{
			"name":"Sphere.014",
			"primitives":[
				{
					"attributes":{
						"POSITION":29,
						"NORMAL":30
					},
					"indices":18,
					"material":9
				}
			]
		},
		{
			"name":"Sphere.015",
			"primitives":[
				{
					"attributes":{
						"POSITION":31,
						"NORMAL":32
					},
					"indices":18,
					"material":10
				}
			]
		},
		{
			"name":"Sphere.016",
			"primitives":[
				{
					"attributes":{
						"POSITION":33,
						"NORMAL":34
					},
					"indices":18,
					"material":11
				}
			]
		},
		{
			"name":"Plane.039",
			"primitives":[
				{
					"attributes":{
						"POSITION":35,
						"NORMAL":36,
						"TEXCOORD_0":37
					},
					"indices":11,
					"material":12
				}
			]
		}
	],
	"textures":[
		{
			"sampler":0,
			"source":0
		}
	],
	"images":[
		{
			"mimeType":"image/png",
			"name":"left-arrow-png-file.png",
			"uri":"left-arrow-png-file.png"
		}
	],
	"accessors":[
		{
			"bufferView":0,
			"componentType":5126,
			"count":1706,
			"max":[
				5.309000492095947,
				0.020000001415610313,
				0.009000000543892384
			],
			"min":[
				0.04000000283122063,
				-0.020000001415610313,
				-0.6910000443458557
			],
			"type":"VEC3"
		},
		{
			"bufferView":1,
			"componentType":5126,
			"count":1706,
			"type":"VEC3"
		},
		{
			"bufferView":2,
			"componentType":5126,
			"count":1706,
			"type":"VEC2"
		},
		{
			"bufferView":3,
			"componentType":5123,
			"count":4968,
			"type":"SCALAR"
		},
		{
			"bufferView":4,
			"componentType":5126,
			"count":1366,
			"max":[
				4.435999870300293,
				0.020000001415610313,
				0.009000000543892384
			],
			"min":[
				0.07500000298023224,
				-0.020000001415610313,
				-0.6910000443458557
			],
			"type":"VEC3"
		},
		{
			"bufferView":5,
			"componentType":5126,
			"count":1366,
			"type":"VEC3"
		},
		{
			"bufferView":6,
			"componentType":5126,
			"count":1366,
			"type":"VEC2"
		},
		{
			"bufferView":7,
			"componentType":5123,
			"count":3972,
			"type":"SCALAR"
		},
		{
			"bufferView":8,
			"componentType":5126,
			"count":4,
			"max":[
				1,
				0,
				1
			],
			"min":[
				-1,
				0,
				-1
			],
			"type":"VEC3"
		},
		{
			"bufferView":9,
			"componentType":5126,
			"count":4,
			"type":"VEC3"
		},
		{
			"bufferView":10,
			"componentType":5126,
			"count":4,
			"type":"VEC2"
		},
		{
			"bufferView":11,
			"componentType":5123,
			"count":6,
			"type":"SCALAR"
		},
		{
			"bufferView":12,
			"componentType":5126,
			"count":1139,
			"max":[
				6.863000392913818,
				0.020000001415610313,
				0.009000000543892384
			],
			"min":[
				0.07600000500679016,
				-0.020000001415610313,
				-0.6910000443458557
			],
			"type":"VEC3"
		},
		{
			"bufferView":13,
			"componentType":5126,
			"count":1139,
			"type":"VEC3"
		},
		{
			"bufferView":14,
			"componentType":5126,
			"count":1139,
			"type":"VEC2"
		},
		{
			"bufferView":15,
			"componentType":5123,
			"count":3180,
			"type":"SCALAR"
		},
		{
			"bufferView":16,
			"componentType":5126,
			"count":4354,
			"max":[
				0.433712363243103,
				-1.073039174079895,
				0.6489453315734863
			],
			"min":[
				-0.43673187494277954,
				-1.946502923965454,
				-7.777820587158203
			],
			"type":"VEC3"
		},
		{
			"bufferView":17,
			"componentType":5126,
			"count":4354,
			"type":"VEC3"
		},
		{
			"bufferView":18,
			"componentType":5123,
			"count":26112,
			"type":"SCALAR"
		},
		{
			"bufferView":19,
			"componentType":5126,
			"count":1984,
			"max":[
				0.9999997019767761,
				1,
				0.9999993443489075
			],
			"min":[
				-0.9999990463256836,
				-1,
				-1
			],
			"type":"VEC3"
		},
		{
			"bufferView":20,
			"componentType":5126,
			"count":1984,
			"type":"VEC3"
		},
		{
			"bufferView":21,
			"componentType":5126,
			"count":1984,
			"type":"VEC2"
		},
		{
			"bufferView":22,
			"componentType":5123,
			"count":2880,
			"type":"SCALAR"
		},
		{
			"bufferView":23,
			"componentType":5126,
			"count":4354,
			"max":[
				0.433712363243103,
				-1.073039174079895,
				0.6489453315734863
			],
			"min":[
				-0.43673187494277954,
				-1.946502923965454,
				-7.777820587158203
			],
			"type":"VEC3"
		},
		{
			"bufferView":24,
			"componentType":5126,
			"count":4354,
			"type":"VEC3"
		},
		{
			"bufferView":25,
			"componentType":5126,
			"count":4354,
			"max":[
				0.433712363243103,
				-1.073039174079895,
				0.6489453315734863
			],
			"min":[
				-0.43673187494277954,
				-1.946502923965454,
				-7.777820587158203
			],
			"type":"VEC3"
		},
		{
			"bufferView":26,
			"componentType":5126,
			"count":4354,
			"type":"VEC3"
		},
		{
			"bufferView":27,
			"componentType":5126,
			"count":4354,
			"max":[
				0.433712363243103,
				-1.073039174079895,
				0.6489453315734863
			],
			"min":[
				-0.43673187494277954,
				-1.946502923965454,
				-7.777820587158203
			],
			"type":"VEC3"
		},
		{
			"bufferView":28,
			"componentType":5126,
			"count":4354,
			"type":"VEC3"
		},
		{
			"bufferView":29,
			"componentType":5126,
			"count":4354,
			"max":[
				0.433712363243103,
				-1.073039174079895,
				0.6489453315734863
			],
			"min":[
				-0.43673187494277954,
				-1.946502923965454,
				-7.777820587158203
			],
			"type":"VEC3"
		},
		{
			"bufferView":30,
			"componentType":5126,
			"count":4354,
			"type":"VEC3"
		},
		{
			"bufferView":31,
			"componentType":5126,
			"count":4354,
			"max":[
				0.433712363243103,
				-1.073039174079895,
				0.6489453315734863
			],
			"min":[
				-0.43673187494277954,
				-1.946502923965454,
				-7.777820587158203
			],
			"type":"VEC3"
		},
		{
			"bufferView":32,
			"componentType":5126,
			"count":4354,
			"type":"VEC3"
		},
		{
			"bufferView":33,
			"componentType":5126,
			"count":4354,
			"max":[
				0.433712363243103,
				-1.073039174079895,
				0.6489453315734863
			],
			"min":[
				-0.43673187494277954,
				-1.946502923965454,
				-7.777820587158203
			],
			"type":"VEC3"
		},
		{
			"bufferView":34,
			"componentType":5126,
			"count":4354,
			"type":"VEC3"
		},
		{
			"bufferView":35,
			"componentType":5126,
			"count":4,
			"max":[
				1,
				0,
				1
			],
			"min":[
				-1,
				0,
				-1
			],
			"type":"VEC3"
		},
		{
			"bufferView":36,
			"componentType":5126,
			"count":4,
			"type":"VEC3"
		},
		{
			"bufferView":37,
			"componentType":5126,
			"count":4,
			"type":"VEC2"
		}
	],
	"bufferViews":[
		{
			"buffer":0,
			"byteLength":20472,
			"byteOffset":0,
			"target":34962
		},
		{
			"buffer":0,
			"byteLength":20472,
			"byteOffset":20472,
			"target":34962
		},
		{
			"buffer":0,
			"byteLength":13648,
			"byteOffset":40944,
			"target":34962
		},
		{
			"buffer":0,
			"byteLength":9936,
			"byteOffset":54592,
			"target":34963
		},
		{
			"buffer":0,
			"byteLength":16392,
			"byteOffset":64528,
			"target":34962
		},
		{
			"buffer":0,
			"byteLength":16392,
			"byteOffset":80920,
			"target":34962
		},
		{
			"buffer":0,
			"byteLength":10928,
			"byteOffset":97312,
			"target":34962
		},
		{
			"buffer":0,
			"byteLength":7944,
			"byteOffset":108240,
			"target":34963
		},
		{
			"buffer":0,
			"byteLength":48,
			"byteOffset":116184,
			"target":34962
		},
		{
			"buffer":0,
			"byteLength":48,
			"byteOffset":116232,
			"target":34962
		},
		{
			"buffer":0,
			"byteLength":32,
			"byteOffset":116280,
			"target":34962
		},
		{
			"buffer":0,
			"byteLength":12,
			"byteOffset":116312,
			"target":34963
		},
		{
			"buffer":0,
			"byteLength":13668,
			"byteOffset":116324,
			"target":34962
		},
		{
			"buffer":0,
			"byteLength":13668,
			"byteOffset":129992,
			"target":34962
		},
		{
			"buffer":0,
			"byteLength":9112,
			"byteOffset":143660,
			"target":34962
		},
		{
			"buffer":0,
			"byteLength":6360,
			"byteOffset":152772,
			"target":34963
		},
		{
			"buffer":0,
			"byteLength":52248,
			"byteOffset":159132,
			"target":34962
		},
		{
			"buffer":0,
			"byteLength":52248,
			"byteOffset":211380,
			"target":34962
		},
		{
			"buffer":0,
			"byteLength":52224,
			"byteOffset":263628,
			"target":34963
		},
		{
			"buffer":0,
			"byteLength":23808,
			"byteOffset":315852,
			"target":34962
		},
		{
			"buffer":0,
			"byteLength":23808,
			"byteOffset":339660,
			"target":34962
		},
		{
			"buffer":0,
			"byteLength":15872,
			"byteOffset":363468,
			"target":34962
		},
		{
			"buffer":0,
			"byteLength":5760,
			"byteOffset":379340,
			"target":34963
		},
		{
			"buffer":0,
			"byteLength":52248,
			"byteOffset":385100,
			"target":34962
		},
		{
			"buffer":0,
			"byteLength":52248,
			"byteOffset":437348,
			"target":34962
		},
		{
			"buffer":0,
			"byteLength":52248,
			"byteOffset":489596,
			"target":34962
		},
		{
			"buffer":0,
			"byteLength":52248,
			"byteOffset":541844,
			"target":34962
		},
		{
			"buffer":0,
			"byteLength":52248,
			"byteOffset":594092,
			"target":34962
		},
		{
			"buffer":0,
			"byteLength":52248,
			"byteOffset":646340,
			"target":34962
		},
		{
			"buffer":0,
			"byteLength":52248,
			"byteOffset":698588,
			"target":34962
		},
		{
			"buffer":0,
			"byteLength":52248,
			"byteOffset":750836,
			"target":34962
		},
		{
			"buffer":0,
			"byteLength":52248,
			"byteOffset":803084,
			"target":34962
		},
		{
			"buffer":0,
			"byteLength":52248,
			"byteOffset":855332,
			"target":34962
		},
		{
			"buffer":0,
			"byteLength":52248,
			"byteOffset":907580,
			"target":34962
		},
		{
			"buffer":0,
			"byteLength":52248,
			"byteOffset":959828,
			"target":34962
		},
		{
			"buffer":0,
			"byteLength":48,
			"byteOffset":1012076,
			"target":34962
		},
		{
			"buffer":0,
			"byteLength":48,
			"byteOffset":1012124,
			"target":34962
		},
		{
			"buffer":0,
			"byteLength":32,
			"byteOffset":1012172,
			"target":34962
		}
	],
	"samplers":[
		{
			"magFilter":9729,
			"minFilter":9987
		}
	],
	"buffers":[
		{
			"byteLength":1012204,
			"uri":"spermeggarrow.bin"
		}
	]
}
