{
	"asset":{
		"generator":"Khronos glTF Blender I/O v4.0.43",
		"version":"2.0"
	},
	"scene":0,
	"scenes":[
		{
			"name":"Scene",
			"nodes":[
				0,
				1,
				2,
				3,
				4,
				5,
				6,
				7,
				8,
				9
			]
		}
	],
	"nodes":[
		{
			"mesh":0,
			"name":"Text.008",
			"rotation":[
				0.7071066498756409,
				0.0005109042976982892,
				-0.0005109043559059501,
				0.7071066498756409
			],
			"scale":[
				0.4343431890010834,
				0.9138297438621521,
				0.43434321880340576
			],
			"translation":[
				-5.414943695068359,
				2.140045166015625,
				-2.2497689723968506
			]
		},
		{
			"mesh":1,
			"name":"Text.009",
			"rotation":[
				0.7071066498756409,
				0.0005109042976982892,
				-0.0005109042976982892,
				0.7071066498756409
			],
			"scale":[
				0.4443278908729553,
				0.9138297438621521,
				0.4443278908729553
			],
			"translation":[
				-5.089515209197998,
				1.4347271919250488,
				-2.2583565711975098
			]
		},
		{
			"mesh":2,
			"name":"Plane.013",
			"rotation":[
				-0.5003611445426941,
				0.5003611445426941,
				-0.4996386468410492,
				0.4996386766433716
			],
			"scale":[
				2.980520725250244,
				1,
				7.968738555908203
			],
			"translation":[
				-0.3181871175765991,
				2.2642641067504883,
				-2.3603708744049072
			]
		},
		{
			"mesh":3,
			"name":"Text.001",
			"rotation":[
				0.7071066498756409,
				0.0005109042976982892,
				-0.0005109043559059501,
				0.7071066498756409
			],
			"scale":[
				0.4343431890010834,
				0.9138297438621521,
				0.43434321880340576
			],
			"translation":[
				-4.201380729675293,
				4.468120574951172,
				-2.2497689723968506
			]
		},
		{
			"mesh":4,
			"name":"Plane",
			"rotation":[
				0.7071068286895752,
				0,
				0,
				0.7071068286895752
			],
			"scale":[
				2.2483601570129395,
				1,
				1.7441481351852417
			],
			"translation":[
				-0.5197038054466248,
				2.4867961406707764,
				-1.90787672996521
			]
		},
		{
			"mesh":5,
			"name":"Text.002",
			"rotation":[
				0.7071066498756409,
				0.0005109042976982892,
				-0.0005109043559059501,
				0.7071066498756409
			],
			"scale":[
				0.3120047450065613,
				0.9138292670249939,
				0.3120044469833374
			],
			"translation":[
				-2.5775036811828613,
				2.1383469104766846,
				-1.8571152687072754
			]
		},
		{
			"mesh":6,
			"name":"Cube",
			"rotation":[
				0,
				0,
				-0.35983362793922424,
				0.9330164790153503
			],
			"scale":[
				0.015661079436540604,
				0.9227561354637146,
				0.009999999776482582
			],
			"translation":[
				-0.2803531289100647,
				3.0390567779541016,
				-1.7123512029647827
			]
		},
		{
			"mesh":7,
			"name":"Cube.001",
			"rotation":[
				0,
				0,
				0.4176974594593048,
				0.9085862040519714
			],
			"scale":[
				0.010282697156071663,
				0.7256269454956055,
				0.009999999776482582
			],
			"translation":[
				-1.0629498958587646,
				3.2460780143737793,
				-1.8955280780792236
			]
		},
		{
			"mesh":8,
			"name":"Cube.002",
			"rotation":[
				0,
				0,
				-0.35983362793922424,
				0.9330164790153503
			],
			"scale":[
				0.015661079436540604,
				0.9227561354637146,
				0.009999999776482582
			],
			"translation":[
				-2.639212131500244,
				3.240776777267456,
				-1.8971654176712036
			]
		},
		{
			"mesh":9,
			"name":"Cube.003",
			"rotation":[
				0,
				0,
				-0.35983362793922424,
				0.9330164790153503
			],
			"scale":[
				0.015661079436540604,
				0.9227561354637146,
				0.009999999776482582
			],
			"translation":[
				-2.639212131500244,
				2.4358134269714355,
				-1.8971654176712036
			]
		}
	],
	"materials":[
		{
			"doubleSided":true,
			"name":"Material.038",
			"pbrMetallicRoughness":{
				"metallicFactor":0,
				"roughnessFactor":0.5
			}
		},
		{
			"doubleSided":true,
			"name":"Material.039",
			"pbrMetallicRoughness":{
				"metallicFactor":0,
				"roughnessFactor":0.5
			}
		},
		{
			"doubleSided":true,
			"name":"Material.044",
			"pbrMetallicRoughness":{
				"baseColorFactor":[
					0.006513136439025402,
					0.05612606555223465,
					0.009133409708738327,
					1
				],
				"metallicFactor":0,
				"roughnessFactor":0.5
			}
		},
		{
			"doubleSided":true,
			"name":"Material.048",
			"pbrMetallicRoughness":{
				"metallicFactor":0,
				"roughnessFactor":0.5
			}
		},
		{
			"doubleSided":true,
			"name":"Material.079",
			"pbrMetallicRoughness":{
				"baseColorTexture":{
					"index":0
				},
				"metallicFactor":0,
				"roughnessFactor":0.5
			}
		},
		{
			"doubleSided":true,
			"name":"Material.080",
			"pbrMetallicRoughness":{
				"baseColorFactor":[
					0.04666468873620033,
					0.04666468873620033,
					0.04666468873620033,
					1
				],
				"metallicFactor":0,
				"roughnessFactor":0.5
			}
		},
		{
			"doubleSided":true,
			"name":"Material.082",
			"pbrMetallicRoughness":{
				"baseColorFactor":[
					0,
					0,
					0,
					1
				],
				"metallicFactor":0,
				"roughnessFactor":0.5
			}
		},
		{
			"doubleSided":true,
			"name":"Material.083",
			"pbrMetallicRoughness":{
				"baseColorFactor":[
					0,
					0,
					0,
					1
				],
				"metallicFactor":0,
				"roughnessFactor":0.5
			}
		},
		{
			"doubleSided":true,
			"name":"Material.084",
			"pbrMetallicRoughness":{
				"baseColorFactor":[
					0,
					0,
					0,
					1
				],
				"metallicFactor":0,
				"roughnessFactor":0.5
			}
		},
		{
			"doubleSided":true,
			"name":"Material.085",
			"pbrMetallicRoughness":{
				"baseColorFactor":[
					0,
					0,
					0,
					1
				],
				"metallicFactor":0,
				"roughnessFactor":0.5
			}
		}
	],
	"meshes":[
		{
			"name":"Text.022",
			"primitives":[
				{
					"attributes":{
						"POSITION":0,
						"NORMAL":1,
						"TEXCOORD_0":2
					},
					"indices":3,
					"material":0
				}
			]
		},
		{
			"name":"Text.023",
			"primitives":[
				{
					"attributes":{
						"POSITION":4,
						"NORMAL":5,
						"TEXCOORD_0":6
					},
					"indices":7,
					"material":1
				}
			]
		},
		{
			"name":"Plane.026",
			"primitives":[
				{
					"attributes":{
						"POSITION":8,
						"NORMAL":9,
						"TEXCOORD_0":10
					},
					"indices":11,
					"material":2
				}
			]
		},
		{
			"name":"Text.008",
			"primitives":[
				{
					"attributes":{
						"POSITION":12,
						"NORMAL":13,
						"TEXCOORD_0":14
					},
					"indices":15,
					"material":3
				}
			]
		},
		{
			"name":"Plane.039",
			"primitives":[
				{
					"attributes":{
						"POSITION":16,
						"NORMAL":17,
						"TEXCOORD_0":18
					},
					"indices":11,
					"material":4
				}
			]
		},
		{
			"name":"Text.009",
			"primitives":[
				{
					"attributes":{
						"POSITION":19,
						"NORMAL":20,
						"TEXCOORD_0":21
					},
					"indices":22,
					"material":5
				}
			]
		},
		{
			"name":"Cube.005",
			"primitives":[
				{
					"attributes":{
						"POSITION":23,
						"NORMAL":24,
						"TEXCOORD_0":25
					},
					"indices":26,
					"material":6
				}
			]
		},
		{
			"name":"Cube.008",
			"primitives":[
				{
					"attributes":{
						"POSITION":27,
						"NORMAL":28,
						"TEXCOORD_0":29
					},
					"indices":26,
					"material":7
				}
			]
		},
		{
			"name":"Cube.014",
			"primitives":[
				{
					"attributes":{
						"POSITION":30,
						"NORMAL":31,
						"TEXCOORD_0":32
					},
					"indices":26,
					"material":8
				}
			]
		},
		{
			"name":"Cube.015",
			"primitives":[
				{
					"attributes":{
						"POSITION":33,
						"NORMAL":34,
						"TEXCOORD_0":35
					},
					"indices":26,
					"material":9
				}
			]
		}
	],
	"textures":[
		{
			"sampler":0,
			"source":0
		}
	],
	"images":[
		{
			"mimeType":"image/jpeg",
			"name":"travel.jpg",
			"uri":"travel.jpg"
		}
	],
	"accessors":[
		{
			"bufferView":0,
			"componentType":5126,
			"count":1706,
			"max":[
				5.309000492095947,
				0.020000001415610313,
				0.009000000543892384
			],
			"min":[
				0.04000000283122063,
				-0.020000001415610313,
				-0.6910000443458557
			],
			"type":"VEC3"
		},
		{
			"bufferView":1,
			"componentType":5126,
			"count":1706,
			"type":"VEC3"
		},
		{
			"bufferView":2,
			"componentType":5126,
			"count":1706,
			"type":"VEC2"
		},
		{
			"bufferView":3,
			"componentType":5123,
			"count":4968,
			"type":"SCALAR"
		},
		{
			"bufferView":4,
			"componentType":5126,
			"count":1366,
			"max":[
				4.435999870300293,
				0.020000001415610313,
				0.009000000543892384
			],
			"min":[
				0.07500000298023224,
				-0.020000001415610313,
				-0.6910000443458557
			],
			"type":"VEC3"
		},
		{
			"bufferView":5,
			"componentType":5126,
			"count":1366,
			"type":"VEC3"
		},
		{
			"bufferView":6,
			"componentType":5126,
			"count":1366,
			"type":"VEC2"
		},
		{
			"bufferView":7,
			"componentType":5123,
			"count":3972,
			"type":"SCALAR"
		},
		{
			"bufferView":8,
			"componentType":5126,
			"count":4,
			"max":[
				1,
				0,
				1
			],
			"min":[
				-1,
				0,
				-1
			],
			"type":"VEC3"
		},
		{
			"bufferView":9,
			"componentType":5126,
			"count":4,
			"type":"VEC3"
		},
		{
			"bufferView":10,
			"componentType":5126,
			"count":4,
			"type":"VEC2"
		},
		{
			"bufferView":11,
			"componentType":5123,
			"count":6,
			"type":"SCALAR"
		},
		{
			"bufferView":12,
			"componentType":5126,
			"count":10303,
			"max":[
				16.39699935913086,
				0.020000001415610313,
				0.23000000417232513
			],
			"min":[
				0.04000000283122063,
				-0.020000001415610313,
				-0.6914074420928955
			],
			"type":"VEC3"
		},
		{
			"bufferView":13,
			"componentType":5126,
			"count":10303,
			"type":"VEC3"
		},
		{
			"bufferView":14,
			"componentType":5126,
			"count":10303,
			"type":"VEC2"
		},
		{
			"bufferView":15,
			"componentType":5123,
			"count":30288,
			"type":"SCALAR"
		},
		{
			"bufferView":16,
			"componentType":5126,
			"count":4,
			"max":[
				1,
				0,
				1
			],
			"min":[
				-1,
				0,
				-1
			],
			"type":"VEC3"
		},
		{
			"bufferView":17,
			"componentType":5126,
			"count":4,
			"type":"VEC3"
		},
		{
			"bufferView":18,
			"componentType":5126,
			"count":4,
			"type":"VEC2"
		},
		{
			"bufferView":19,
			"componentType":5126,
			"count":3694,
			"max":[
				5.8600006103515625,
				0.020000001415610313,
				0.23000000417232513
			],
			"min":[
				0.07600000500679016,
				-0.020000001415610313,
				-0.6820000410079956
			],
			"type":"VEC3"
		},
		{
			"bufferView":20,
			"componentType":5126,
			"count":3694,
			"type":"VEC3"
		},
		{
			"bufferView":21,
			"componentType":5126,
			"count":3694,
			"type":"VEC2"
		},
		{
			"bufferView":22,
			"componentType":5123,
			"count":10848,
			"type":"SCALAR"
		},
		{
			"bufferView":23,
			"componentType":5126,
			"count":24,
			"max":[
				1,
				1,
				1
			],
			"min":[
				-1,
				-1,
				-1
			],
			"type":"VEC3"
		},
		{
			"bufferView":24,
			"componentType":5126,
			"count":24,
			"type":"VEC3"
		},
		{
			"bufferView":25,
			"componentType":5126,
			"count":24,
			"type":"VEC2"
		},
		{
			"bufferView":26,
			"componentType":5123,
			"count":36,
			"type":"SCALAR"
		},
		{
			"bufferView":27,
			"componentType":5126,
			"count":24,
			"max":[
				1,
				1,
				1
			],
			"min":[
				-1,
				-1,
				-1
			],
			"type":"VEC3"
		},
		{
			"bufferView":28,
			"componentType":5126,
			"count":24,
			"type":"VEC3"
		},
		{
			"bufferView":29,
			"componentType":5126,
			"count":24,
			"type":"VEC2"
		},
		{
			"bufferView":30,
			"componentType":5126,
			"count":24,
			"max":[
				1,
				1,
				1
			],
			"min":[
				-1,
				-1,
				-1
			],
			"type":"VEC3"
		},
		{
			"bufferView":31,
			"componentType":5126,
			"count":24,
			"type":"VEC3"
		},
		{
			"bufferView":32,
			"componentType":5126,
			"count":24,
			"type":"VEC2"
		},
		{
			"bufferView":33,
			"componentType":5126,
			"count":24,
			"max":[
				1,
				1,
				1
			],
			"min":[
				-1,
				-1,
				-1
			],
			"type":"VEC3"
		},
		{
			"bufferView":34,
			"componentType":5126,
			"count":24,
			"type":"VEC3"
		},
		{
			"bufferView":35,
			"componentType":5126,
			"count":24,
			"type":"VEC2"
		}
	],
	"bufferViews":[
		{
			"buffer":0,
			"byteLength":20472,
			"byteOffset":0,
			"target":34962
		},
		{
			"buffer":0,
			"byteLength":20472,
			"byteOffset":20472,
			"target":34962
		},
		{
			"buffer":0,
			"byteLength":13648,
			"byteOffset":40944,
			"target":34962
		},
		{
			"buffer":0,
			"byteLength":9936,
			"byteOffset":54592,
			"target":34963
		},
		{
			"buffer":0,
			"byteLength":16392,
			"byteOffset":64528,
			"target":34962
		},
		{
			"buffer":0,
			"byteLength":16392,
			"byteOffset":80920,
			"target":34962
		},
		{
			"buffer":0,
			"byteLength":10928,
			"byteOffset":97312,
			"target":34962
		},
		{
			"buffer":0,
			"byteLength":7944,
			"byteOffset":108240,
			"target":34963
		},
		{
			"buffer":0,
			"byteLength":48,
			"byteOffset":116184,
			"target":34962
		},
		{
			"buffer":0,
			"byteLength":48,
			"byteOffset":116232,
			"target":34962
		},
		{
			"buffer":0,
			"byteLength":32,
			"byteOffset":116280,
			"target":34962
		},
		{
			"buffer":0,
			"byteLength":12,
			"byteOffset":116312,
			"target":34963
		},
		{
			"buffer":0,
			"byteLength":123636,
			"byteOffset":116324,
			"target":34962
		},
		{
			"buffer":0,
			"byteLength":123636,
			"byteOffset":239960,
			"target":34962
		},
		{
			"buffer":0,
			"byteLength":82424,
			"byteOffset":363596,
			"target":34962
		},
		{
			"buffer":0,
			"byteLength":60576,
			"byteOffset":446020,
			"target":34963
		},
		{
			"buffer":0,
			"byteLength":48,
			"byteOffset":506596,
			"target":34962
		},
		{
			"buffer":0,
			"byteLength":48,
			"byteOffset":506644,
			"target":34962
		},
		{
			"buffer":0,
			"byteLength":32,
			"byteOffset":506692,
			"target":34962
		},
		{
			"buffer":0,
			"byteLength":44328,
			"byteOffset":506724,
			"target":34962
		},
		{
			"buffer":0,
			"byteLength":44328,
			"byteOffset":551052,
			"target":34962
		},
		{
			"buffer":0,
			"byteLength":29552,
			"byteOffset":595380,
			"target":34962
		},
		{
			"buffer":0,
			"byteLength":21696,
			"byteOffset":624932,
			"target":34963
		},
		{
			"buffer":0,
			"byteLength":288,
			"byteOffset":646628,
			"target":34962
		},
		{
			"buffer":0,
			"byteLength":288,
			"byteOffset":646916,
			"target":34962
		},
		{
			"buffer":0,
			"byteLength":192,
			"byteOffset":647204,
			"target":34962
		},
		{
			"buffer":0,
			"byteLength":72,
			"byteOffset":647396,
			"target":34963
		},
		{
			"buffer":0,
			"byteLength":288,
			"byteOffset":647468,
			"target":34962
		},
		{
			"buffer":0,
			"byteLength":288,
			"byteOffset":647756,
			"target":34962
		},
		{
			"buffer":0,
			"byteLength":192,
			"byteOffset":648044,
			"target":34962
		},
		{
			"buffer":0,
			"byteLength":288,
			"byteOffset":648236,
			"target":34962
		},
		{
			"buffer":0,
			"byteLength":288,
			"byteOffset":648524,
			"target":34962
		},
		{
			"buffer":0,
			"byteLength":192,
			"byteOffset":648812,
			"target":34962
		},
		{
			"buffer":0,
			"byteLength":288,
			"byteOffset":649004,
			"target":34962
		},
		{
			"buffer":0,
			"byteLength":288,
			"byteOffset":649292,
			"target":34962
		},
		{
			"buffer":0,
			"byteLength":192,
			"byteOffset":649580,
			"target":34962
		}
	],
	"samplers":[
		{
			"magFilter":9729,
			"minFilter":9987
		}
	],
	"buffers":[
		{
			"byteLength":649772,
			"uri":"start.bin"
		}
	]
}
