{
	"asset":{
		"generator":"Khronos glTF Blender I/O v3.6.27",
		"version":"2.0"
	},
	"extensionsUsed":[
		"KHR_materials_specular",
		"KHR_materials_ior"
	],
	"scene":0,
	"scenes":[
		{
			"name":"Scene",
			"nodes":[
				0
			]
		}
	],
	"nodes":[
		{
			"mesh":0,
			"name":"Mountain_Alps_01",
			"translation":[
				0,
				0,
				-16.77851676940918
			]
		}
	],
	"materials":[
		{
			"doubleSided":true,
			"extensions":{
				"KHR_materials_specular":{
					"specularColorFactor":[
						2.175662988157316,
						2.175662988157316,
						2.175662988157316
					]
				},
				"KHR_materials_ior":{
					"ior":1.4500000476837158
				}
			},
			"name":"Snow",
			"pbrMetallicRoughness":{
				"baseColorFactor":[
					0.800000011920929,
					0.800000011920929,
					0.800000011920929,
					1
				],
				"metallicFactor":0,
				"roughnessFactor":0.34951454401016235
			}
		},
		{
			"doubleSided":true,
			"name":"Mountain_02",
			"pbrMetallicRoughness":{
				"baseColorFactor":[
					0.06071936711668968,
					0.06071936711668968,
					0.06071936711668968,
					1
				],
				"metallicFactor":0
			}
		}
	],
	"meshes":[
		{
			"name":"Landscape.016",
			"primitives":[
				{
					"attributes":{
						"POSITION":0,
						"NORMAL":1
					},
					"indices":2,
					"material":0
				},
				{
					"attributes":{
						"POSITION":3,
						"NORMAL":4
					},
					"indices":5,
					"material":1
				}
			]
		}
	],
	"accessors":[
		{
			"bufferView":0,
			"componentType":5126,
			"count":5777,
			"max":[
				0.9684145450592041,
				0.7784927487373352,
				1.0000011920928955
			],
			"min":[
				-0.9999995827674866,
				-2.733794644882437e-05,
				-0.9339761734008789
			],
			"type":"VEC3"
		},
		{
			"bufferView":1,
			"componentType":5126,
			"count":5777,
			"type":"VEC3"
		},
		{
			"bufferView":2,
			"componentType":5123,
			"count":6207,
			"type":"SCALAR"
		},
		{
			"bufferView":3,
			"componentType":5126,
			"count":5608,
			"max":[
				1.0000004768371582,
				0.5289925336837769,
				1.0000011920928955
			],
			"min":[
				-0.9515783190727234,
				1.114357746700989e-05,
				-1.0000011920928955
			],
			"type":"VEC3"
		},
		{
			"bufferView":4,
			"componentType":5126,
			"count":5608,
			"type":"VEC3"
		},
		{
			"bufferView":5,
			"componentType":5123,
			"count":5922,
			"type":"SCALAR"
		}
	],
	"bufferViews":[
		{
			"buffer":0,
			"byteLength":69324,
			"byteOffset":0,
			"target":34962
		},
		{
			"buffer":0,
			"byteLength":69324,
			"byteOffset":69324,
			"target":34962
		},
		{
			"buffer":0,
			"byteLength":12414,
			"byteOffset":138648,
			"target":34963
		},
		{
			"buffer":0,
			"byteLength":67296,
			"byteOffset":151064,
			"target":34962
		},
		{
			"buffer":0,
			"byteLength":67296,
			"byteOffset":218360,
			"target":34962
		},
		{
			"buffer":0,
			"byteLength":11844,
			"byteOffset":285656,
			"target":34963
		}
	],
	"buffers":[
		{
			"byteLength":297500,
			"uri":"mountainers.bin"
		}
	]
}
