{
	"asset":{
		"generator":"Khronos glTF Blender I/O v3.6.27",
		"version":"2.0"
	},
	"scene":0,
	"scenes":[
		{
			"name":"Scene",
			"nodes":[
				0,
				1,
				2,
				3,
				4,
				5,
				6,
				7,
				8
			]
		}
	],
	"nodes":[
		{
			"mesh":0,
			"name":"Bee",
			"rotation":[
				0.6668258905410767,
				0,
				-0.7452135682106018,
				0
			],
			"scale":[
				-0.0651714876294136,
				-0.0651714950799942,
				-0.06517148017883301
			],
			"translation":[
				1.2017534971237183,
				1.0005964040756226,
				0.13902759552001953
			]
		},
		{
			"mesh":1,
			"name":"flower.005",
			"rotation":[
				-0.09307216852903366,
				-0.7203793525695801,
				-0.3941212296485901,
				0.5630804896354675
			],
			"scale":[
				0.10371880978345871,
				0.10371880233287811,
				0.1037188470363617
			],
			"translation":[
				1.887330412864685,
				0.9073601961135864,
				0.3387210965156555
			]
		},
		{
			"mesh":2,
			"name":"flower.004",
			"rotation":[
				-0.24549812078475952,
				-0.42865049839019775,
				-0.3220631778240204,
				0.8076292276382446
			],
			"scale":[
				0.13005100190639496,
				0.13005100190639496,
				0.13005103170871735
			],
			"translation":[
				1.9750663042068481,
				0.8599826097488403,
				0.017607659101486206
			]
		},
		{
			"mesh":3,
			"name":"flower.003",
			"rotation":[
				-0.3582679033279419,
				0.725502610206604,
				0.1887805014848709,
				0.5564638376235962
			],
			"scale":[
				0.13005104660987854,
				0.13005103170871735,
				0.13005104660987854
			],
			"translation":[
				1.440836787223816,
				0.8599826097488403,
				0.03600950539112091
			]
		},
		{
			"mesh":4,
			"name":"flower.001",
			"rotation":[
				-0.1799565851688385,
				0.9139508605003357,
				0.36278045177459717,
				0.026453187689185143
			],
			"scale":[
				0.13005097210407257,
				0.13005101680755615,
				0.13005100190639496
			],
			"translation":[
				1.629123330116272,
				0.8599826097488403,
				0.33055004477500916
			]
		},
		{
			"mesh":5,
			"name":"flower.002",
			"rotation":[
				-0.39557114243507385,
				0.19576093554496765,
				-0.08670322597026825,
				0.89313143491745
			],
			"scale":[
				0.13005098700523376,
				0.13005103170871735,
				0.13005103170871735
			],
			"translation":[
				1.7218552827835083,
				0.8599826097488403,
				-0.2190270721912384
			]
		},
		{
			"mesh":6,
			"name":"vase",
			"scale":[
				0.19318847358226776,
				0.19318847358226776,
				0.19318847358226776
			],
			"translation":[
				1.7335792779922485,
				0.7693243622779846,
				0.06783191114664078
			]
		},
		{
			"mesh":7,
			"name":"flower",
			"scale":[
				0.13005097210407257,
				0.13005097210407257,
				0.13005097210407257
			],
			"translation":[
				1.732973337173462,
				1.029278039932251,
				0.07198479771614075
			]
		},
		{
			"mesh":8,
			"name":"Text.001",
			"rotation":[
				0.6745094060897827,
				0,
				0,
				0.7382662296295166
			],
			"scale":[
				0.5400235652923584,
				0.5400235652923584,
				0.5400235652923584
			],
			"translation":[
				0.49330371618270874,
				1.5340263843536377,
				0
			]
		}
	],
	"materials":[
		{
			"doubleSided":true,
			"name":"Material.015",
			"pbrMetallicRoughness":{
				"baseColorFactor":[
					0.800000011920929,
					0.800000011920929,
					0.800000011920929,
					1
				],
				"metallicFactor":0,
				"roughnessFactor":0.5
			}
		},
		{
			"doubleSided":true,
			"name":"Material.016",
			"pbrMetallicRoughness":{
				"baseColorFactor":[
					0.800000011920929,
					0.800000011920929,
					0.800000011920929,
					1
				],
				"metallicFactor":0,
				"roughnessFactor":0.5
			}
		},
		{
			"doubleSided":true,
			"name":"Material.086",
			"pbrMetallicRoughness":{
				"baseColorFactor":[
					0,
					0,
					0,
					1
				],
				"metallicFactor":0,
				"roughnessFactor":0.5
			}
		},
		{
			"doubleSided":true,
			"name":"Material.076",
			"pbrMetallicRoughness":{
				"baseColorFactor":[
					1,
					0.8534561395645142,
					0,
					1
				],
				"metallicFactor":0,
				"roughnessFactor":0.5
			}
		},
		{
			"doubleSided":true,
			"name":"flower_material",
			"pbrMetallicRoughness":{
				"baseColorFactor":[
					0.8000000715255737,
					0.5790948867797852,
					0.1910163313150406,
					1
				],
				"metallicFactor":0,
				"roughnessFactor":0.5
			}
		},
		{
			"doubleSided":true,
			"name":"vaso",
			"pbrMetallicRoughness":{
				"baseColorFactor":[
					0.8000000715255737,
					0.1204892247915268,
					0.04951603338122368,
					1
				],
				"metallicFactor":0,
				"roughnessFactor":0.5
			}
		}
	],
	"meshes":[
		{
			"name":"Cylinder.007",
			"primitives":[
				{
					"attributes":{
						"POSITION":0,
						"NORMAL":1
					},
					"indices":2,
					"material":0
				},
				{
					"attributes":{
						"POSITION":3,
						"NORMAL":4
					},
					"indices":5,
					"material":1
				},
				{
					"attributes":{
						"POSITION":6,
						"NORMAL":7
					},
					"indices":8,
					"material":2
				},
				{
					"attributes":{
						"POSITION":9,
						"NORMAL":10
					},
					"indices":11,
					"material":3
				}
			]
		},
		{
			"name":"Circle.008",
			"primitives":[
				{
					"attributes":{
						"POSITION":12,
						"NORMAL":13,
						"TEXCOORD_0":14
					},
					"indices":15,
					"material":4
				}
			]
		},
		{
			"name":"Circle.007",
			"primitives":[
				{
					"attributes":{
						"POSITION":16,
						"NORMAL":17,
						"TEXCOORD_0":18
					},
					"indices":15,
					"material":4
				}
			]
		},
		{
			"name":"Circle.006",
			"primitives":[
				{
					"attributes":{
						"POSITION":19,
						"NORMAL":20,
						"TEXCOORD_0":21
					},
					"indices":15,
					"material":4
				}
			]
		},
		{
			"name":"Circle.005",
			"primitives":[
				{
					"attributes":{
						"POSITION":22,
						"NORMAL":23,
						"TEXCOORD_0":24
					},
					"indices":15,
					"material":4
				}
			]
		},
		{
			"name":"Circle.004",
			"primitives":[
				{
					"attributes":{
						"POSITION":25,
						"NORMAL":26,
						"TEXCOORD_0":27
					},
					"indices":15,
					"material":4
				}
			]
		},
		{
			"name":"Circle.001",
			"primitives":[
				{
					"attributes":{
						"POSITION":28,
						"NORMAL":29,
						"TEXCOORD_0":30
					},
					"indices":31,
					"material":5
				}
			]
		},
		{
			"name":"Circle.003",
			"primitives":[
				{
					"attributes":{
						"POSITION":32,
						"NORMAL":33,
						"TEXCOORD_0":34
					},
					"indices":15,
					"material":4
				}
			]
		},
		{
			"name":"Text",
			"primitives":[
				{
					"attributes":{
						"POSITION":35,
						"NORMAL":36,
						"TEXCOORD_0":37
					},
					"indices":38
				}
			]
		}
	],
	"accessors":[
		{
			"bufferView":0,
			"componentType":5126,
			"count":110,
			"max":[
				0.5823709964752197,
				2.9243197441101074,
				1.7786153554916382
			],
			"min":[
				0.21722014248371124,
				1.1251020431518555,
				-1.3250499963760376
			],
			"type":"VEC3"
		},
		{
			"bufferView":1,
			"componentType":5126,
			"count":110,
			"type":"VEC3"
		},
		{
			"bufferView":2,
			"componentType":5123,
			"count":237,
			"type":"SCALAR"
		},
		{
			"bufferView":3,
			"componentType":5126,
			"count":107,
			"max":[
				-1.0096256732940674,
				2.9753971099853516,
				1.8900834321975708
			],
			"min":[
				-2.0318987369537354,
				1.1363831758499146,
				-1.0161837339401245
			],
			"type":"VEC3"
		},
		{
			"bufferView":4,
			"componentType":5126,
			"count":107,
			"type":"VEC3"
		},
		{
			"bufferView":5,
			"componentType":5123,
			"count":237,
			"type":"SCALAR"
		},
		{
			"bufferView":6,
			"componentType":5126,
			"count":14349,
			"max":[
				1.2376198768615723,
				2.6592886447906494,
				3.83540415763855
			],
			"min":[
				-1.4538053274154663,
				-0.9286465048789978,
				-1.6687953472137451
			],
			"type":"VEC3"
		},
		{
			"bufferView":7,
			"componentType":5126,
			"count":14349,
			"type":"VEC3"
		},
		{
			"bufferView":8,
			"componentType":5123,
			"count":82809,
			"type":"SCALAR"
		},
		{
			"bufferView":9,
			"componentType":5126,
			"count":2108,
			"max":[
				0.48290103673934937,
				1.7335288524627686,
				3.6366069316864014
			],
			"min":[
				-1.1791049242019653,
				-0.08156557381153107,
				-1.6555993556976318
			],
			"type":"VEC3"
		},
		{
			"bufferView":10,
			"componentType":5126,
			"count":2108,
			"type":"VEC3"
		},
		{
			"bufferView":11,
			"componentType":5123,
			"count":11187,
			"type":"SCALAR"
		},
		{
			"bufferView":12,
			"componentType":5126,
			"count":667,
			"max":[
				1.995192527770996,
				0.8706351518630981,
				2.022761344909668
			],
			"min":[
				-1.990666389465332,
				-3.959798574447632,
				-1.9630979299545288
			],
			"type":"VEC3"
		},
		{
			"bufferView":13,
			"componentType":5126,
			"count":667,
			"type":"VEC3"
		},
		{
			"bufferView":14,
			"componentType":5126,
			"count":667,
			"type":"VEC2"
		},
		{
			"bufferView":15,
			"componentType":5123,
			"count":2610,
			"type":"SCALAR"
		},
		{
			"bufferView":16,
			"componentType":5126,
			"count":667,
			"max":[
				1.995192527770996,
				0.8706351518630981,
				2.022761344909668
			],
			"min":[
				-1.990666389465332,
				-2.958138942718506,
				-1.9630979299545288
			],
			"type":"VEC3"
		},
		{
			"bufferView":17,
			"componentType":5126,
			"count":667,
			"type":"VEC3"
		},
		{
			"bufferView":18,
			"componentType":5126,
			"count":667,
			"type":"VEC2"
		},
		{
			"bufferView":19,
			"componentType":5126,
			"count":667,
			"max":[
				1.995192527770996,
				0.8706351518630981,
				2.022761344909668
			],
			"min":[
				-1.990666389465332,
				-2.958138942718506,
				-1.9630979299545288
			],
			"type":"VEC3"
		},
		{
			"bufferView":20,
			"componentType":5126,
			"count":667,
			"type":"VEC3"
		},
		{
			"bufferView":21,
			"componentType":5126,
			"count":667,
			"type":"VEC2"
		},
		{
			"bufferView":22,
			"componentType":5126,
			"count":667,
			"max":[
				1.995192527770996,
				0.8706351518630981,
				2.022761344909668
			],
			"min":[
				-1.990666389465332,
				-2.958138942718506,
				-1.9630979299545288
			],
			"type":"VEC3"
		},
		{
			"bufferView":23,
			"componentType":5126,
			"count":667,
			"type":"VEC3"
		},
		{
			"bufferView":24,
			"componentType":5126,
			"count":667,
			"type":"VEC2"
		},
		{
			"bufferView":25,
			"componentType":5126,
			"count":667,
			"max":[
				1.995192527770996,
				0.8706351518630981,
				2.022761344909668
			],
			"min":[
				-1.990666389465332,
				-2.958138942718506,
				-1.9630979299545288
			],
			"type":"VEC3"
		},
		{
			"bufferView":26,
			"componentType":5126,
			"count":667,
			"type":"VEC3"
		},
		{
			"bufferView":27,
			"componentType":5126,
			"count":667,
			"type":"VEC2"
		},
		{
			"bufferView":28,
			"componentType":5126,
			"count":338,
			"max":[
				1.1868642568588257,
				-0.051239632070064545,
				1.1868643760681152
			],
			"min":[
				-1.1868644952774048,
				-3.6686267852783203,
				-1.1868643760681152
			],
			"type":"VEC3"
		},
		{
			"bufferView":29,
			"componentType":5126,
			"count":338,
			"type":"VEC3"
		},
		{
			"bufferView":30,
			"componentType":5126,
			"count":338,
			"type":"VEC2"
		},
		{
			"bufferView":31,
			"componentType":5123,
			"count":1620,
			"type":"SCALAR"
		},
		{
			"bufferView":32,
			"componentType":5126,
			"count":667,
			"max":[
				1.995192527770996,
				0.8706351518630981,
				2.022761344909668
			],
			"min":[
				-1.990666389465332,
				-2.958138942718506,
				-1.9630979299545288
			],
			"type":"VEC3"
		},
		{
			"bufferView":33,
			"componentType":5126,
			"count":667,
			"type":"VEC3"
		},
		{
			"bufferView":34,
			"componentType":5126,
			"count":667,
			"type":"VEC2"
		},
		{
			"bufferView":35,
			"componentType":5126,
			"count":656,
			"max":[
				4.076000213623047,
				0,
				0.009000000543892384
			],
			"min":[
				0.07300000637769699,
				0,
				-0.6820000410079956
			],
			"type":"VEC3"
		},
		{
			"bufferView":36,
			"componentType":5126,
			"count":656,
			"type":"VEC3"
		},
		{
			"bufferView":37,
			"componentType":5126,
			"count":656,
			"type":"VEC2"
		},
		{
			"bufferView":38,
			"componentType":5123,
			"count":1914,
			"type":"SCALAR"
		}
	],
	"bufferViews":[
		{
			"buffer":0,
			"byteLength":1320,
			"byteOffset":0,
			"target":34962
		},
		{
			"buffer":0,
			"byteLength":1320,
			"byteOffset":1320,
			"target":34962
		},
		{
			"buffer":0,
			"byteLength":474,
			"byteOffset":2640,
			"target":34963
		},
		{
			"buffer":0,
			"byteLength":1284,
			"byteOffset":3116,
			"target":34962
		},
		{
			"buffer":0,
			"byteLength":1284,
			"byteOffset":4400,
			"target":34962
		},
		{
			"buffer":0,
			"byteLength":474,
			"byteOffset":5684,
			"target":34963
		},
		{
			"buffer":0,
			"byteLength":172188,
			"byteOffset":6160,
			"target":34962
		},
		{
			"buffer":0,
			"byteLength":172188,
			"byteOffset":178348,
			"target":34962
		},
		{
			"buffer":0,
			"byteLength":165618,
			"byteOffset":350536,
			"target":34963
		},
		{
			"buffer":0,
			"byteLength":25296,
			"byteOffset":516156,
			"target":34962
		},
		{
			"buffer":0,
			"byteLength":25296,
			"byteOffset":541452,
			"target":34962
		},
		{
			"buffer":0,
			"byteLength":22374,
			"byteOffset":566748,
			"target":34963
		},
		{
			"buffer":0,
			"byteLength":8004,
			"byteOffset":589124,
			"target":34962
		},
		{
			"buffer":0,
			"byteLength":8004,
			"byteOffset":597128,
			"target":34962
		},
		{
			"buffer":0,
			"byteLength":5336,
			"byteOffset":605132,
			"target":34962
		},
		{
			"buffer":0,
			"byteLength":5220,
			"byteOffset":610468,
			"target":34963
		},
		{
			"buffer":0,
			"byteLength":8004,
			"byteOffset":615688,
			"target":34962
		},
		{
			"buffer":0,
			"byteLength":8004,
			"byteOffset":623692,
			"target":34962
		},
		{
			"buffer":0,
			"byteLength":5336,
			"byteOffset":631696,
			"target":34962
		},
		{
			"buffer":0,
			"byteLength":8004,
			"byteOffset":637032,
			"target":34962
		},
		{
			"buffer":0,
			"byteLength":8004,
			"byteOffset":645036,
			"target":34962
		},
		{
			"buffer":0,
			"byteLength":5336,
			"byteOffset":653040,
			"target":34962
		},
		{
			"buffer":0,
			"byteLength":8004,
			"byteOffset":658376,
			"target":34962
		},
		{
			"buffer":0,
			"byteLength":8004,
			"byteOffset":666380,
			"target":34962
		},
		{
			"buffer":0,
			"byteLength":5336,
			"byteOffset":674384,
			"target":34962
		},
		{
			"buffer":0,
			"byteLength":8004,
			"byteOffset":679720,
			"target":34962
		},
		{
			"buffer":0,
			"byteLength":8004,
			"byteOffset":687724,
			"target":34962
		},
		{
			"buffer":0,
			"byteLength":5336,
			"byteOffset":695728,
			"target":34962
		},
		{
			"buffer":0,
			"byteLength":4056,
			"byteOffset":701064,
			"target":34962
		},
		{
			"buffer":0,
			"byteLength":4056,
			"byteOffset":705120,
			"target":34962
		},
		{
			"buffer":0,
			"byteLength":2704,
			"byteOffset":709176,
			"target":34962
		},
		{
			"buffer":0,
			"byteLength":3240,
			"byteOffset":711880,
			"target":34963
		},
		{
			"buffer":0,
			"byteLength":8004,
			"byteOffset":715120,
			"target":34962
		},
		{
			"buffer":0,
			"byteLength":8004,
			"byteOffset":723124,
			"target":34962
		},
		{
			"buffer":0,
			"byteLength":5336,
			"byteOffset":731128,
			"target":34962
		},
		{
			"buffer":0,
			"byteLength":7872,
			"byteOffset":736464,
			"target":34962
		},
		{
			"buffer":0,
			"byteLength":7872,
			"byteOffset":744336,
			"target":34962
		},
		{
			"buffer":0,
			"byteLength":5248,
			"byteOffset":752208,
			"target":34962
		},
		{
			"buffer":0,
			"byteLength":3828,
			"byteOffset":757456,
			"target":34963
		}
	],
	"buffers":[
		{
			"byteLength":761284,
			"uri":"mutualism.bin"
		}
	]
}
