{
	"asset":{
		"generator":"Khronos glTF Blender I/O v4.0.43",
		"version":"2.0"
	},
	"scene":0,
	"scenes":[
		{
			"name":"Scene",
			"nodes":[
				0,
				1,
				2,
				3,
				4,
				5
			]
		}
	],
	"nodes":[
		{
			"mesh":0,
			"name":"Text.008",
			"rotation":[
				0.7071066498756409,
				0.0005109042976982892,
				-0.0005109043559059501,
				0.7071066498756409
			],
			"scale":[
				0.4343431890010834,
				0.9138297438621521,
				0.43434321880340576
			],
			"translation":[
				-1.4019984006881714,
				4.592312812805176,
				-2.2497689723968506
			]
		},
		{
			"mesh":1,
			"name":"Plane.013",
			"rotation":[
				-0.5003611445426941,
				0.5003611445426941,
				-0.4996386468410492,
				0.4996386766433716
			],
			"scale":[
				2.980520725250244,
				1,
				7.968738555908203
			],
			"translation":[
				-0.3181871175765991,
				2.2642641067504883,
				-2.3603708744049072
			]
		},
		{
			"mesh":2,
			"name":"Plane",
			"rotation":[
				0.7071068286895752,
				0,
				0,
				0.7071068286895752
			],
			"scale":[
				2.3946056365966797,
				1,
				2.019287586212158
			],
			"translation":[
				-3.9079248905181885,
				1.8708854913711548,
				-2.195199728012085
			]
		},
		{
			"mesh":3,
			"name":"Plane.001",
			"rotation":[
				0.009561090730130672,
				0.7070420980453491,
				0.7070422172546387,
				0.009561089798808098
			],
			"scale":[
				0.6372241973876953,
				1,
				0.7695712447166443
			],
			"translation":[
				-0.5880516171455383,
				2.347034454345703,
				-2.195199728012085
			]
		},
		{
			"mesh":4,
			"name":"Plane.002",
			"rotation":[
				0.7071068286895752,
				0,
				0,
				0.7071068286895752
			],
			"scale":[
				2.3737099170684814,
				1,
				2.019287586212158
			],
			"translation":[
				3.3543741703033447,
				1.8708854913711548,
				-2.195199728012085
			]
		},
		{
			"mesh":5,
			"name":"Plane.003",
			"rotation":[
				0.7070941925048828,
				-0.004215418826788664,
				-0.0042154183611273766,
				0.7070942521095276
			],
			"scale":[
				0.6372241973876953,
				1,
				0.7695712447166443
			],
			"translation":[
				6.604234218597412,
				2.347034454345703,
				-2.195199728012085
			]
		}
	],
	"materials":[
		{
			"doubleSided":true,
			"name":"Material.038",
			"pbrMetallicRoughness":{
				"metallicFactor":0,
				"roughnessFactor":0.5
			}
		},
		{
			"doubleSided":true,
			"name":"Material.044",
			"pbrMetallicRoughness":{
				"baseColorFactor":[
					0.0064769890159368515,
					0.055540382862091064,
					0.008944455534219742,
					1
				],
				"metallicFactor":0,
				"roughnessFactor":0.5
			}
		},
		{
			"doubleSided":true,
			"name":"Material.048",
			"pbrMetallicRoughness":{
				"baseColorTexture":{
					"index":0
				},
				"metallicFactor":0,
				"roughnessFactor":0.5
			}
		},
		{
			"doubleSided":true,
			"name":"Material.070",
			"pbrMetallicRoughness":{
				"baseColorTexture":{
					"index":1
				},
				"metallicFactor":0,
				"roughnessFactor":0.5
			}
		},
		{
			"doubleSided":true,
			"name":"Material.071",
			"pbrMetallicRoughness":{
				"baseColorTexture":{
					"index":2
				},
				"metallicFactor":0,
				"roughnessFactor":0.5
			}
		},
		{
			"doubleSided":true,
			"name":"Material.072",
			"pbrMetallicRoughness":{
				"baseColorTexture":{
					"index":3
				},
				"metallicFactor":0,
				"roughnessFactor":0.5
			}
		}
	],
	"meshes":[
		{
			"name":"Text.022",
			"primitives":[
				{
					"attributes":{
						"POSITION":0,
						"NORMAL":1,
						"TEXCOORD_0":2
					},
					"indices":3,
					"material":0
				}
			]
		},
		{
			"name":"Plane.026",
			"primitives":[
				{
					"attributes":{
						"POSITION":4,
						"NORMAL":5,
						"TEXCOORD_0":6
					},
					"indices":7,
					"material":1
				}
			]
		},
		{
			"name":"Plane.039",
			"primitives":[
				{
					"attributes":{
						"POSITION":8,
						"NORMAL":9,
						"TEXCOORD_0":10
					},
					"indices":7,
					"material":2
				}
			]
		},
		{
			"name":"Plane.040",
			"primitives":[
				{
					"attributes":{
						"POSITION":11,
						"NORMAL":12,
						"TEXCOORD_0":13
					},
					"indices":7,
					"material":3
				}
			]
		},
		{
			"name":"Plane.041",
			"primitives":[
				{
					"attributes":{
						"POSITION":14,
						"NORMAL":15,
						"TEXCOORD_0":16
					},
					"indices":7,
					"material":4
				}
			]
		},
		{
			"name":"Plane.042",
			"primitives":[
				{
					"attributes":{
						"POSITION":17,
						"NORMAL":18,
						"TEXCOORD_0":19
					},
					"indices":7,
					"material":5
				}
			]
		}
	],
	"textures":[
		{
			"sampler":0,
			"source":0
		},
		{
			"sampler":0,
			"source":1
		},
		{
			"sampler":0,
			"source":2
		},
		{
			"sampler":0,
			"source":3
		}
	],
	"images":[
		{
			"mimeType":"image/jpeg",
			"name":"bats.jpg",
			"uri":"bats.jpg"
		},
		{
			"mimeType":"image/png",
			"name":"arrow.png",
			"uri":"arrow.png"
		},
		{
			"mimeType":"image/jpeg",
			"name":"insects.jpg",
			"uri":"insects.jpg"
		},
		{
			"mimeType":"image/png",
			"name":"arrow.png.001",
			"uri":"arrow.png"
		}
	],
	"accessors":[
		{
			"bufferView":0,
			"componentType":5126,
			"count":4580,
			"max":[
				6.969000339508057,
				0.020000001415610313,
				0.23000000417232513
			],
			"min":[
				0.07000000029802322,
				-0.020000001415610313,
				-0.6820000410079956
			],
			"type":"VEC3"
		},
		{
			"bufferView":1,
			"componentType":5126,
			"count":4580,
			"type":"VEC3"
		},
		{
			"bufferView":2,
			"componentType":5126,
			"count":4580,
			"type":"VEC2"
		},
		{
			"bufferView":3,
			"componentType":5123,
			"count":13512,
			"type":"SCALAR"
		},
		{
			"bufferView":4,
			"componentType":5126,
			"count":4,
			"max":[
				1,
				0,
				1
			],
			"min":[
				-1,
				0,
				-1
			],
			"type":"VEC3"
		},
		{
			"bufferView":5,
			"componentType":5126,
			"count":4,
			"type":"VEC3"
		},
		{
			"bufferView":6,
			"componentType":5126,
			"count":4,
			"type":"VEC2"
		},
		{
			"bufferView":7,
			"componentType":5123,
			"count":6,
			"type":"SCALAR"
		},
		{
			"bufferView":8,
			"componentType":5126,
			"count":4,
			"max":[
				1,
				0,
				1
			],
			"min":[
				-1,
				0,
				-1
			],
			"type":"VEC3"
		},
		{
			"bufferView":9,
			"componentType":5126,
			"count":4,
			"type":"VEC3"
		},
		{
			"bufferView":10,
			"componentType":5126,
			"count":4,
			"type":"VEC2"
		},
		{
			"bufferView":11,
			"componentType":5126,
			"count":4,
			"max":[
				1,
				0,
				1
			],
			"min":[
				-1,
				0,
				-1
			],
			"type":"VEC3"
		},
		{
			"bufferView":12,
			"componentType":5126,
			"count":4,
			"type":"VEC3"
		},
		{
			"bufferView":13,
			"componentType":5126,
			"count":4,
			"type":"VEC2"
		},
		{
			"bufferView":14,
			"componentType":5126,
			"count":4,
			"max":[
				1,
				0,
				1
			],
			"min":[
				-1,
				0,
				-1
			],
			"type":"VEC3"
		},
		{
			"bufferView":15,
			"componentType":5126,
			"count":4,
			"type":"VEC3"
		},
		{
			"bufferView":16,
			"componentType":5126,
			"count":4,
			"type":"VEC2"
		},
		{
			"bufferView":17,
			"componentType":5126,
			"count":4,
			"max":[
				1,
				0,
				1
			],
			"min":[
				-1,
				0,
				-1
			],
			"type":"VEC3"
		},
		{
			"bufferView":18,
			"componentType":5126,
			"count":4,
			"type":"VEC3"
		},
		{
			"bufferView":19,
			"componentType":5126,
			"count":4,
			"type":"VEC2"
		}
	],
	"bufferViews":[
		{
			"buffer":0,
			"byteLength":54960,
			"byteOffset":0,
			"target":34962
		},
		{
			"buffer":0,
			"byteLength":54960,
			"byteOffset":54960,
			"target":34962
		},
		{
			"buffer":0,
			"byteLength":36640,
			"byteOffset":109920,
			"target":34962
		},
		{
			"buffer":0,
			"byteLength":27024,
			"byteOffset":146560,
			"target":34963
		},
		{
			"buffer":0,
			"byteLength":48,
			"byteOffset":173584,
			"target":34962
		},
		{
			"buffer":0,
			"byteLength":48,
			"byteOffset":173632,
			"target":34962
		},
		{
			"buffer":0,
			"byteLength":32,
			"byteOffset":173680,
			"target":34962
		},
		{
			"buffer":0,
			"byteLength":12,
			"byteOffset":173712,
			"target":34963
		},
		{
			"buffer":0,
			"byteLength":48,
			"byteOffset":173724,
			"target":34962
		},
		{
			"buffer":0,
			"byteLength":48,
			"byteOffset":173772,
			"target":34962
		},
		{
			"buffer":0,
			"byteLength":32,
			"byteOffset":173820,
			"target":34962
		},
		{
			"buffer":0,
			"byteLength":48,
			"byteOffset":173852,
			"target":34962
		},
		{
			"buffer":0,
			"byteLength":48,
			"byteOffset":173900,
			"target":34962
		},
		{
			"buffer":0,
			"byteLength":32,
			"byteOffset":173948,
			"target":34962
		},
		{
			"buffer":0,
			"byteLength":48,
			"byteOffset":173980,
			"target":34962
		},
		{
			"buffer":0,
			"byteLength":48,
			"byteOffset":174028,
			"target":34962
		},
		{
			"buffer":0,
			"byteLength":32,
			"byteOffset":174076,
			"target":34962
		},
		{
			"buffer":0,
			"byteLength":48,
			"byteOffset":174108,
			"target":34962
		},
		{
			"buffer":0,
			"byteLength":48,
			"byteOffset":174156,
			"target":34962
		},
		{
			"buffer":0,
			"byteLength":32,
			"byteOffset":174204,
			"target":34962
		}
	],
	"samplers":[
		{
			"magFilter":9729,
			"minFilter":9987
		}
	],
	"buffers":[
		{
			"byteLength":174236,
			"uri":"cons3.bin"
		}
	]
}
