{
	"asset":{
		"generator":"Khronos glTF Blender I/O v3.6.27",
		"version":"2.0"
	},
	"scene":0,
	"scenes":[
		{
			"name":"Scene",
			"nodes":[
				0,
				1,
				2,
				3,
				4,
				5,
				6,
				7,
				8,
				9,
				10,
				11,
				12,
				13,
				14,
				15
			]
		}
	],
	"nodes":[
		{
			"mesh":0,
			"name":"Icosphere",
			"rotation":[
				-0.03483195975422859,
				-0.9993932843208313,
				0,
				1.628218484484023e-07
			],
			"scale":[
				0.35671406984329224,
				0.2947542369365692,
				0.35699084401130676
			],
			"translation":[
				-9.892045974731445,
				0.2750624716281891,
				-7.754133701324463
			]
		},
		{
			"mesh":1,
			"name":"Icosphere.001",
			"rotation":[
				0.03201743960380554,
				0.9186395406723022,
				0.01371672935783863,
				0.3935582935810089
			],
			"scale":[
				0.356714129447937,
				0.2947542369365692,
				0.35699090361595154
			],
			"translation":[
				-8.999856948852539,
				0.2794892489910126,
				-8.160139083862305
			]
		},
		{
			"mesh":2,
			"name":"Icosphere.002",
			"rotation":[
				0.03201743960380554,
				0.9186396598815918,
				0.013716730289161205,
				0.3935583233833313
			],
			"scale":[
				0.27689722180366516,
				0.1250627189874649,
				0.27758729457855225
			],
			"translation":[
				-8.150747299194336,
				0.09781643748283386,
				-8.126482009887695
			]
		},
		{
			"mesh":3,
			"name":"Icosphere.003",
			"rotation":[
				0.08785376697778702,
				0.9149892926216125,
				-0.01025518961250782,
				0.3936637341976166
			],
			"scale":[
				0.15392307937145233,
				0.29399263858795166,
				0.15239642560482025
			],
			"translation":[
				-10.528326034545898,
				-0.023412294685840607,
				-7.320559978485107
			]
		},
		{
			"mesh":4,
			"name":"Icosphere.006",
			"rotation":[
				0,
				0.0790887251496315,
				0,
				0.9968675971031189
			],
			"scale":[
				0.47672128677368164,
				0.47672122716903687,
				0.47672128677368164
			],
			"translation":[
				-10.243240356445312,
				-0.011393159627914429,
				-9.581307411193848
			]
		},
		{
			"mesh":5,
			"name":"Icosphere.009",
			"rotation":[
				0,
				-0.21595370769500732,
				0,
				0.9764037132263184
			],
			"scale":[
				0.38515380024909973,
				0.30703023076057434,
				0.38515380024909973
			],
			"translation":[
				-6.092602729797363,
				-0.15714994072914124,
				-7.921675205230713
			]
		},
		{
			"mesh":6,
			"name":"Cube.057",
			"rotation":[
				-0.06128320097923279,
				-0.6846582293510437,
				-0.03157538175582886,
				0.7255966067314148
			],
			"scale":[
				0.1654583215713501,
				0.1654583215713501,
				0.04917659983038902
			],
			"translation":[
				-6.593391418457031,
				-0.35036832094192505,
				-7.57473611831665
			]
		},
		{
			"mesh":7,
			"name":"Cube.058",
			"rotation":[
				-0.06128320097923279,
				-0.6846582293510437,
				-0.03157538175582886,
				0.7255966067314148
			],
			"scale":[
				0.1654583215713501,
				0.1654583215713501,
				0.04917659983038902
			],
			"translation":[
				-7.081562519073486,
				-0.141725555062294,
				-7.584352016448975
			]
		},
		{
			"mesh":8,
			"name":"Cube.059",
			"rotation":[
				-0.06128320097923279,
				-0.6846582293510437,
				-0.03157538175582886,
				0.7255966067314148
			],
			"scale":[
				0.1654583215713501,
				0.1654583215713501,
				0.04917659983038902
			],
			"translation":[
				-10.07562255859375,
				-0.07060714811086655,
				-6.741894245147705
			]
		},
		{
			"mesh":9,
			"name":"Cube.060",
			"rotation":[
				-0.06128320097923279,
				-0.6846582293510437,
				-0.03157538175582886,
				0.7255966067314148
			],
			"scale":[
				0.1654583215713501,
				0.1654583215713501,
				0.04917659983038902
			],
			"translation":[
				-9.710501670837402,
				-0.09211044013500214,
				-6.929980754852295
			]
		},
		{
			"mesh":10,
			"name":"Cube.061",
			"rotation":[
				-0.06128320097923279,
				-0.6846582293510437,
				-0.03157538175582886,
				0.7255966067314148
			],
			"scale":[
				0.1654583215713501,
				0.1654583215713501,
				0.04917659983038902
			],
			"translation":[
				-9.545830726623535,
				-0.07976807653903961,
				-7.320415019989014
			]
		},
		{
			"mesh":11,
			"name":"Cube.062",
			"rotation":[
				-0.05775558203458786,
				0.2919458746910095,
				0.03764208406209946,
				0.9539470672607422
			],
			"scale":[
				0.1654583066701889,
				0.1654583215713501,
				0.049176596105098724
			],
			"translation":[
				-11.126340866088867,
				-0.12531577050685883,
				-7.5896806716918945
			]
		},
		{
			"mesh":12,
			"name":"Icosphere.018",
			"rotation":[
				0,
				-0.21595370769500732,
				0,
				0.9764037132263184
			],
			"scale":[
				0.38515380024909973,
				0.30703023076057434,
				0.38515380024909973
			],
			"translation":[
				-7.740051746368408,
				-0.12703441083431244,
				-9.20870590209961
			]
		},
		{
			"mesh":13,
			"name":"Cube.085",
			"rotation":[
				-0.06128320097923279,
				-0.6846582293510437,
				-0.03157538175582886,
				0.7255966067314148
			],
			"scale":[
				0.1654583215713501,
				0.1654583215713501,
				0.04917659983038902
			],
			"translation":[
				-9.298382759094238,
				0.03923910856246948,
				-8.751428604125977
			]
		},
		{
			"mesh":14,
			"name":"Cube.086",
			"rotation":[
				-0.06128320097923279,
				-0.6846582293510437,
				-0.03157538175582886,
				0.7255966067314148
			],
			"scale":[
				0.1654583215713501,
				0.1654583215713501,
				0.04917659983038902
			],
			"translation":[
				-8.93326187133789,
				0.017735779285430908,
				-8.93951416015625
			]
		},
		{
			"mesh":15,
			"name":"Cube.087",
			"rotation":[
				-0.06128320097923279,
				-0.6846582293510437,
				-0.03157538175582886,
				0.7255966067314148
			],
			"scale":[
				0.1654583215713501,
				0.1654583215713501,
				0.04917659983038902
			],
			"translation":[
				-8.768590927124023,
				0.03007817268371582,
				-9.329948425292969
			]
		}
	],
	"materials":[
		{
			"doubleSided":true,
			"name":"rock",
			"pbrMetallicRoughness":{
				"baseColorFactor":[
					0.19132237136363983,
					0.19132237136363983,
					0.19132237136363983,
					1
				],
				"metallicFactor":0,
				"roughnessFactor":0.6595744490623474
			}
		},
		{
			"doubleSided":true,
			"name":"Material.005",
			"pbrMetallicRoughness":{
				"baseColorFactor":[
					0.01018111128360033,
					0.08688630908727646,
					0.007010220550000668,
					1
				],
				"metallicFactor":0,
				"roughnessFactor":0.5
			}
		}
	],
	"meshes":[
		{
			"name":"Icosphere",
			"primitives":[
				{
					"attributes":{
						"POSITION":0,
						"NORMAL":1,
						"TEXCOORD_0":2
					},
					"indices":3,
					"material":0
				}
			]
		},
		{
			"name":"Icosphere.001",
			"primitives":[
				{
					"attributes":{
						"POSITION":4,
						"NORMAL":5,
						"TEXCOORD_0":6
					},
					"indices":7,
					"material":0
				}
			]
		},
		{
			"name":"Icosphere.002",
			"primitives":[
				{
					"attributes":{
						"POSITION":8,
						"NORMAL":9,
						"TEXCOORD_0":10
					},
					"indices":11,
					"material":0
				}
			]
		},
		{
			"name":"Icosphere.003",
			"primitives":[
				{
					"attributes":{
						"POSITION":12,
						"NORMAL":13,
						"TEXCOORD_0":14
					},
					"indices":11,
					"material":0
				}
			]
		},
		{
			"name":"Icosphere.006",
			"primitives":[
				{
					"attributes":{
						"POSITION":15,
						"NORMAL":16,
						"TEXCOORD_0":17
					},
					"indices":18,
					"material":0
				}
			]
		},
		{
			"name":"Icosphere.009",
			"primitives":[
				{
					"attributes":{
						"POSITION":19,
						"NORMAL":20,
						"TEXCOORD_0":21
					},
					"indices":22,
					"material":0
				}
			]
		},
		{
			"name":"Cube.069",
			"primitives":[
				{
					"attributes":{
						"POSITION":23,
						"NORMAL":24,
						"TEXCOORD_0":25
					},
					"indices":26,
					"material":1
				}
			]
		},
		{
			"name":"Cube.070",
			"primitives":[
				{
					"attributes":{
						"POSITION":27,
						"NORMAL":28,
						"TEXCOORD_0":29
					},
					"indices":26,
					"material":1
				}
			]
		},
		{
			"name":"Cube.071",
			"primitives":[
				{
					"attributes":{
						"POSITION":30,
						"NORMAL":31,
						"TEXCOORD_0":32
					},
					"indices":26,
					"material":1
				}
			]
		},
		{
			"name":"Cube.072",
			"primitives":[
				{
					"attributes":{
						"POSITION":33,
						"NORMAL":34,
						"TEXCOORD_0":35
					},
					"indices":26,
					"material":1
				}
			]
		},
		{
			"name":"Cube.073",
			"primitives":[
				{
					"attributes":{
						"POSITION":36,
						"NORMAL":37,
						"TEXCOORD_0":38
					},
					"indices":26,
					"material":1
				}
			]
		},
		{
			"name":"Cube.074",
			"primitives":[
				{
					"attributes":{
						"POSITION":39,
						"NORMAL":40,
						"TEXCOORD_0":41
					},
					"indices":26,
					"material":1
				}
			]
		},
		{
			"name":"Icosphere.018",
			"primitives":[
				{
					"attributes":{
						"POSITION":42,
						"NORMAL":43,
						"TEXCOORD_0":44
					},
					"indices":22,
					"material":0
				}
			]
		},
		{
			"name":"Cube.101",
			"primitives":[
				{
					"attributes":{
						"POSITION":45,
						"NORMAL":46,
						"TEXCOORD_0":47
					},
					"indices":26,
					"material":1
				}
			]
		},
		{
			"name":"Cube.102",
			"primitives":[
				{
					"attributes":{
						"POSITION":48,
						"NORMAL":49,
						"TEXCOORD_0":50
					},
					"indices":26,
					"material":1
				}
			]
		},
		{
			"name":"Cube.103",
			"primitives":[
				{
					"attributes":{
						"POSITION":51,
						"NORMAL":52,
						"TEXCOORD_0":53
					},
					"indices":26,
					"material":1
				}
			]
		}
	],
	"accessors":[
		{
			"bufferView":0,
			"componentType":5126,
			"count":306,
			"max":[
				1.2160946130752563,
				0.6383602619171143,
				1.090177297592163
			],
			"min":[
				-1.2422430515289307,
				-1.1048113107681274,
				-1.2535247802734375
			],
			"type":"VEC3"
		},
		{
			"bufferView":1,
			"componentType":5126,
			"count":306,
			"type":"VEC3"
		},
		{
			"bufferView":2,
			"componentType":5126,
			"count":306,
			"type":"VEC2"
		},
		{
			"bufferView":3,
			"componentType":5123,
			"count":306,
			"type":"SCALAR"
		},
		{
			"bufferView":4,
			"componentType":5126,
			"count":306,
			"max":[
				1.1761064529418945,
				0.9751692414283752,
				1.641334891319275
			],
			"min":[
				-1.3112941980361938,
				-1.0930131673812866,
				-1.2529487609863281
			],
			"type":"VEC3"
		},
		{
			"bufferView":5,
			"componentType":5126,
			"count":306,
			"type":"VEC3"
		},
		{
			"bufferView":6,
			"componentType":5126,
			"count":306,
			"type":"VEC2"
		},
		{
			"bufferView":7,
			"componentType":5123,
			"count":306,
			"type":"SCALAR"
		},
		{
			"bufferView":8,
			"componentType":5126,
			"count":306,
			"max":[
				1.0110783576965332,
				1.0028449296951294,
				1.169235348701477
			],
			"min":[
				-1.307410717010498,
				-1.1627925634384155,
				-1.0893423557281494
			],
			"type":"VEC3"
		},
		{
			"bufferView":9,
			"componentType":5126,
			"count":306,
			"type":"VEC3"
		},
		{
			"bufferView":10,
			"componentType":5126,
			"count":306,
			"type":"VEC2"
		},
		{
			"bufferView":11,
			"componentType":5123,
			"count":306,
			"type":"SCALAR"
		},
		{
			"bufferView":12,
			"componentType":5126,
			"count":306,
			"max":[
				1.0110783576965332,
				1.0028449296951294,
				1.169235348701477
			],
			"min":[
				-1.307410717010498,
				-1.1627925634384155,
				-1.0893423557281494
			],
			"type":"VEC3"
		},
		{
			"bufferView":13,
			"componentType":5126,
			"count":306,
			"type":"VEC3"
		},
		{
			"bufferView":14,
			"componentType":5126,
			"count":306,
			"type":"VEC2"
		},
		{
			"bufferView":15,
			"componentType":5126,
			"count":720,
			"max":[
				1.2954134941101074,
				1.7774627208709717,
				2.760495185852051
			],
			"min":[
				-2.7835593223571777,
				-0.4805378317832947,
				-0.8506399989128113
			],
			"type":"VEC3"
		},
		{
			"bufferView":16,
			"componentType":5126,
			"count":720,
			"type":"VEC3"
		},
		{
			"bufferView":17,
			"componentType":5126,
			"count":720,
			"type":"VEC2"
		},
		{
			"bufferView":18,
			"componentType":5123,
			"count":720,
			"type":"SCALAR"
		},
		{
			"bufferView":19,
			"componentType":5126,
			"count":900,
			"max":[
				0.8944249749183655,
				2.3084797859191895,
				0.8946370482444763
			],
			"min":[
				-4.41342306137085,
				-0.4863438308238983,
				-3.0561611652374268
			],
			"type":"VEC3"
		},
		{
			"bufferView":20,
			"componentType":5126,
			"count":900,
			"type":"VEC3"
		},
		{
			"bufferView":21,
			"componentType":5126,
			"count":900,
			"type":"VEC2"
		},
		{
			"bufferView":22,
			"componentType":5123,
			"count":900,
			"type":"SCALAR"
		},
		{
			"bufferView":23,
			"componentType":5126,
			"count":1092,
			"max":[
				3.6805944442749023,
				4.178098201751709,
				9.460082054138184
			],
			"min":[
				-2.325538158416748,
				-0.1682041585445404,
				-8.118343353271484
			],
			"type":"VEC3"
		},
		{
			"bufferView":24,
			"componentType":5126,
			"count":1092,
			"type":"VEC3"
		},
		{
			"bufferView":25,
			"componentType":5126,
			"count":1092,
			"type":"VEC2"
		},
		{
			"bufferView":26,
			"componentType":5123,
			"count":1530,
			"type":"SCALAR"
		},
		{
			"bufferView":27,
			"componentType":5126,
			"count":1092,
			"max":[
				3.6805944442749023,
				4.178098201751709,
				9.460082054138184
			],
			"min":[
				-2.325538158416748,
				-0.1682041585445404,
				-8.118343353271484
			],
			"type":"VEC3"
		},
		{
			"bufferView":28,
			"componentType":5126,
			"count":1092,
			"type":"VEC3"
		},
		{
			"bufferView":29,
			"componentType":5126,
			"count":1092,
			"type":"VEC2"
		},
		{
			"bufferView":30,
			"componentType":5126,
			"count":1092,
			"max":[
				3.6805944442749023,
				4.178098201751709,
				9.460082054138184
			],
			"min":[
				-2.325538158416748,
				-0.1682041585445404,
				-8.118343353271484
			],
			"type":"VEC3"
		},
		{
			"bufferView":31,
			"componentType":5126,
			"count":1092,
			"type":"VEC3"
		},
		{
			"bufferView":32,
			"componentType":5126,
			"count":1092,
			"type":"VEC2"
		},
		{
			"bufferView":33,
			"componentType":5126,
			"count":1092,
			"max":[
				3.6805944442749023,
				4.178098201751709,
				9.460082054138184
			],
			"min":[
				-2.325538158416748,
				-0.1682041585445404,
				-8.118343353271484
			],
			"type":"VEC3"
		},
		{
			"bufferView":34,
			"componentType":5126,
			"count":1092,
			"type":"VEC3"
		},
		{
			"bufferView":35,
			"componentType":5126,
			"count":1092,
			"type":"VEC2"
		},
		{
			"bufferView":36,
			"componentType":5126,
			"count":1092,
			"max":[
				3.6805944442749023,
				4.178098201751709,
				9.460082054138184
			],
			"min":[
				-2.325538158416748,
				-0.1682041585445404,
				-8.118343353271484
			],
			"type":"VEC3"
		},
		{
			"bufferView":37,
			"componentType":5126,
			"count":1092,
			"type":"VEC3"
		},
		{
			"bufferView":38,
			"componentType":5126,
			"count":1092,
			"type":"VEC2"
		},
		{
			"bufferView":39,
			"componentType":5126,
			"count":1092,
			"max":[
				3.6805944442749023,
				4.178098201751709,
				9.460082054138184
			],
			"min":[
				-2.325538158416748,
				-0.1682041585445404,
				-8.118343353271484
			],
			"type":"VEC3"
		},
		{
			"bufferView":40,
			"componentType":5126,
			"count":1092,
			"type":"VEC3"
		},
		{
			"bufferView":41,
			"componentType":5126,
			"count":1092,
			"type":"VEC2"
		},
		{
			"bufferView":42,
			"componentType":5126,
			"count":900,
			"max":[
				0.8944249749183655,
				2.3084797859191895,
				0.8946370482444763
			],
			"min":[
				-4.41342306137085,
				-0.4863438308238983,
				-3.0561611652374268
			],
			"type":"VEC3"
		},
		{
			"bufferView":43,
			"componentType":5126,
			"count":900,
			"type":"VEC3"
		},
		{
			"bufferView":44,
			"componentType":5126,
			"count":900,
			"type":"VEC2"
		},
		{
			"bufferView":45,
			"componentType":5126,
			"count":1092,
			"max":[
				3.6805944442749023,
				4.178098201751709,
				9.460082054138184
			],
			"min":[
				-2.325538158416748,
				-0.1682041585445404,
				-8.118343353271484
			],
			"type":"VEC3"
		},
		{
			"bufferView":46,
			"componentType":5126,
			"count":1092,
			"type":"VEC3"
		},
		{
			"bufferView":47,
			"componentType":5126,
			"count":1092,
			"type":"VEC2"
		},
		{
			"bufferView":48,
			"componentType":5126,
			"count":1092,
			"max":[
				3.6805944442749023,
				4.178098201751709,
				9.460082054138184
			],
			"min":[
				-2.325538158416748,
				-0.1682041585445404,
				-8.118343353271484
			],
			"type":"VEC3"
		},
		{
			"bufferView":49,
			"componentType":5126,
			"count":1092,
			"type":"VEC3"
		},
		{
			"bufferView":50,
			"componentType":5126,
			"count":1092,
			"type":"VEC2"
		},
		{
			"bufferView":51,
			"componentType":5126,
			"count":1092,
			"max":[
				3.6805944442749023,
				4.178098201751709,
				9.460082054138184
			],
			"min":[
				-2.325538158416748,
				-0.1682041585445404,
				-8.118343353271484
			],
			"type":"VEC3"
		},
		{
			"bufferView":52,
			"componentType":5126,
			"count":1092,
			"type":"VEC3"
		},
		{
			"bufferView":53,
			"componentType":5126,
			"count":1092,
			"type":"VEC2"
		}
	],
	"bufferViews":[
		{
			"buffer":0,
			"byteLength":3672,
			"byteOffset":0,
			"target":34962
		},
		{
			"buffer":0,
			"byteLength":3672,
			"byteOffset":3672,
			"target":34962
		},
		{
			"buffer":0,
			"byteLength":2448,
			"byteOffset":7344,
			"target":34962
		},
		{
			"buffer":0,
			"byteLength":612,
			"byteOffset":9792,
			"target":34963
		},
		{
			"buffer":0,
			"byteLength":3672,
			"byteOffset":10404,
			"target":34962
		},
		{
			"buffer":0,
			"byteLength":3672,
			"byteOffset":14076,
			"target":34962
		},
		{
			"buffer":0,
			"byteLength":2448,
			"byteOffset":17748,
			"target":34962
		},
		{
			"buffer":0,
			"byteLength":612,
			"byteOffset":20196,
			"target":34963
		},
		{
			"buffer":0,
			"byteLength":3672,
			"byteOffset":20808,
			"target":34962
		},
		{
			"buffer":0,
			"byteLength":3672,
			"byteOffset":24480,
			"target":34962
		},
		{
			"buffer":0,
			"byteLength":2448,
			"byteOffset":28152,
			"target":34962
		},
		{
			"buffer":0,
			"byteLength":612,
			"byteOffset":30600,
			"target":34963
		},
		{
			"buffer":0,
			"byteLength":3672,
			"byteOffset":31212,
			"target":34962
		},
		{
			"buffer":0,
			"byteLength":3672,
			"byteOffset":34884,
			"target":34962
		},
		{
			"buffer":0,
			"byteLength":2448,
			"byteOffset":38556,
			"target":34962
		},
		{
			"buffer":0,
			"byteLength":8640,
			"byteOffset":41004,
			"target":34962
		},
		{
			"buffer":0,
			"byteLength":8640,
			"byteOffset":49644,
			"target":34962
		},
		{
			"buffer":0,
			"byteLength":5760,
			"byteOffset":58284,
			"target":34962
		},
		{
			"buffer":0,
			"byteLength":1440,
			"byteOffset":64044,
			"target":34963
		},
		{
			"buffer":0,
			"byteLength":10800,
			"byteOffset":65484,
			"target":34962
		},
		{
			"buffer":0,
			"byteLength":10800,
			"byteOffset":76284,
			"target":34962
		},
		{
			"buffer":0,
			"byteLength":7200,
			"byteOffset":87084,
			"target":34962
		},
		{
			"buffer":0,
			"byteLength":1800,
			"byteOffset":94284,
			"target":34963
		},
		{
			"buffer":0,
			"byteLength":13104,
			"byteOffset":96084,
			"target":34962
		},
		{
			"buffer":0,
			"byteLength":13104,
			"byteOffset":109188,
			"target":34962
		},
		{
			"buffer":0,
			"byteLength":8736,
			"byteOffset":122292,
			"target":34962
		},
		{
			"buffer":0,
			"byteLength":3060,
			"byteOffset":131028,
			"target":34963
		},
		{
			"buffer":0,
			"byteLength":13104,
			"byteOffset":134088,
			"target":34962
		},
		{
			"buffer":0,
			"byteLength":13104,
			"byteOffset":147192,
			"target":34962
		},
		{
			"buffer":0,
			"byteLength":8736,
			"byteOffset":160296,
			"target":34962
		},
		{
			"buffer":0,
			"byteLength":13104,
			"byteOffset":169032,
			"target":34962
		},
		{
			"buffer":0,
			"byteLength":13104,
			"byteOffset":182136,
			"target":34962
		},
		{
			"buffer":0,
			"byteLength":8736,
			"byteOffset":195240,
			"target":34962
		},
		{
			"buffer":0,
			"byteLength":13104,
			"byteOffset":203976,
			"target":34962
		},
		{
			"buffer":0,
			"byteLength":13104,
			"byteOffset":217080,
			"target":34962
		},
		{
			"buffer":0,
			"byteLength":8736,
			"byteOffset":230184,
			"target":34962
		},
		{
			"buffer":0,
			"byteLength":13104,
			"byteOffset":238920,
			"target":34962
		},
		{
			"buffer":0,
			"byteLength":13104,
			"byteOffset":252024,
			"target":34962
		},
		{
			"buffer":0,
			"byteLength":8736,
			"byteOffset":265128,
			"target":34962
		},
		{
			"buffer":0,
			"byteLength":13104,
			"byteOffset":273864,
			"target":34962
		},
		{
			"buffer":0,
			"byteLength":13104,
			"byteOffset":286968,
			"target":34962
		},
		{
			"buffer":0,
			"byteLength":8736,
			"byteOffset":300072,
			"target":34962
		},
		{
			"buffer":0,
			"byteLength":10800,
			"byteOffset":308808,
			"target":34962
		},
		{
			"buffer":0,
			"byteLength":10800,
			"byteOffset":319608,
			"target":34962
		},
		{
			"buffer":0,
			"byteLength":7200,
			"byteOffset":330408,
			"target":34962
		},
		{
			"buffer":0,
			"byteLength":13104,
			"byteOffset":337608,
			"target":34962
		},
		{
			"buffer":0,
			"byteLength":13104,
			"byteOffset":350712,
			"target":34962
		},
		{
			"buffer":0,
			"byteLength":8736,
			"byteOffset":363816,
			"target":34962
		},
		{
			"buffer":0,
			"byteLength":13104,
			"byteOffset":372552,
			"target":34962
		},
		{
			"buffer":0,
			"byteLength":13104,
			"byteOffset":385656,
			"target":34962
		},
		{
			"buffer":0,
			"byteLength":8736,
			"byteOffset":398760,
			"target":34962
		},
		{
			"buffer":0,
			"byteLength":13104,
			"byteOffset":407496,
			"target":34962
		},
		{
			"buffer":0,
			"byteLength":13104,
			"byteOffset":420600,
			"target":34962
		},
		{
			"buffer":0,
			"byteLength":8736,
			"byteOffset":433704,
			"target":34962
		}
	],
	"buffers":[
		{
			"byteLength":442440,
			"uri":"rockista.bin"
		}
	]
}
