{
	"asset":{
		"generator":"Khronos glTF Blender I/O v3.6.27",
		"version":"2.0"
	},
	"scene":0,
	"scenes":[
		{
			"name":"Scene",
			"nodes":[
				0,
				1
			]
		}
	],
	"nodes":[
		{
			"mesh":0,
			"name":"Stone_5_moss",
			"translation":[
				-9,
				0,
				-9
			]
		},
		{
			"mesh":1,
			"name":"Stone_5_moss_brown",
			"translation":[
				-11,
				0,
				-9
			]
		}
	],
	"materials":[
		{
			"doubleSided":true,
			"name":"Nature_Pack_Palette",
			"pbrMetallicRoughness":{
				"baseColorTexture":{
					"index":0
				},
				"metallicFactor":0
			}
		}
	],
	"meshes":[
		{
			"name":"Icosphere.348",
			"primitives":[
				{
					"attributes":{
						"POSITION":0,
						"NORMAL":1,
						"TEXCOORD_0":2
					},
					"indices":3,
					"material":0
				}
			]
		},
		{
			"name":"Icosphere.293",
			"primitives":[
				{
					"attributes":{
						"POSITION":4,
						"NORMAL":5,
						"TEXCOORD_0":6
					},
					"indices":7,
					"material":0
				}
			]
		}
	],
	"textures":[
		{
			"sampler":0,
			"source":0
		}
	],
	"images":[
		{
			"mimeType":"image/png",
			"name":"Palette_Gradient",
			"uri":"Palette_Gradient.png"
		}
	],
	"accessors":[
		{
			"bufferView":0,
			"componentType":5126,
			"count":85,
			"max":[
				0.39147940278053284,
				0.9772085547447205,
				0.3614010214805603
			],
			"min":[
				-0.4457637667655945,
				-0.043950796127319336,
				-0.34153077006340027
			],
			"type":"VEC3"
		},
		{
			"bufferView":1,
			"componentType":5126,
			"count":85,
			"type":"VEC3"
		},
		{
			"bufferView":2,
			"componentType":5126,
			"count":85,
			"type":"VEC2"
		},
		{
			"bufferView":3,
			"componentType":5123,
			"count":342,
			"type":"SCALAR"
		},
		{
			"bufferView":4,
			"componentType":5126,
			"count":71,
			"max":[
				0.39147940278053284,
				0.9772085547447205,
				0.3614010214805603
			],
			"min":[
				-0.4457637667655945,
				-0.043950796127319336,
				-0.34153077006340027
			],
			"type":"VEC3"
		},
		{
			"bufferView":5,
			"componentType":5126,
			"count":71,
			"type":"VEC3"
		},
		{
			"bufferView":6,
			"componentType":5126,
			"count":71,
			"type":"VEC2"
		},
		{
			"bufferView":7,
			"componentType":5123,
			"count":342,
			"type":"SCALAR"
		}
	],
	"bufferViews":[
		{
			"buffer":0,
			"byteLength":1020,
			"byteOffset":0,
			"target":34962
		},
		{
			"buffer":0,
			"byteLength":1020,
			"byteOffset":1020,
			"target":34962
		},
		{
			"buffer":0,
			"byteLength":680,
			"byteOffset":2040,
			"target":34962
		},
		{
			"buffer":0,
			"byteLength":684,
			"byteOffset":2720,
			"target":34963
		},
		{
			"buffer":0,
			"byteLength":852,
			"byteOffset":3404,
			"target":34962
		},
		{
			"buffer":0,
			"byteLength":852,
			"byteOffset":4256,
			"target":34962
		},
		{
			"buffer":0,
			"byteLength":568,
			"byteOffset":5108,
			"target":34962
		},
		{
			"buffer":0,
			"byteLength":684,
			"byteOffset":5676,
			"target":34963
		}
	],
	"samplers":[
		{
			"magFilter":9729,
			"minFilter":9987
		}
	],
	"buffers":[
		{
			"byteLength":6360,
			"uri":"therock.bin"
		}
	]
}
