{
	"asset":{
		"generator":"Khronos glTF Blender I/O v3.6.27",
		"version":"2.0"
	},
	"scene":0,
	"scenes":[
		{
			"name":"Scene",
			"nodes":[
				0
			]
		}
	],
	"nodes":[
		{
			"mesh":0,
			"name":"Bee",
			"rotation":[
				0.6668258905410767,
				0,
				-0.7452135682106018,
				0
			],
			"scale":[
				-0.16051523387432098,
				-0.16051524877548218,
				-0.1605152189731598
			],
			"translation":[
				-0.22728925943374634,
				-0.20097818970680237,
				-5.104710578918457
			]
		}
	],
	"materials":[
		{
			"doubleSided":true,
			"name":"Material.015",
			"pbrMetallicRoughness":{
				"baseColorFactor":[
					0.800000011920929,
					0.800000011920929,
					0.800000011920929,
					1
				],
				"metallicFactor":0,
				"roughnessFactor":0.5
			}
		},
		{
			"doubleSided":true,
			"name":"Material.016",
			"pbrMetallicRoughness":{
				"baseColorFactor":[
					0.800000011920929,
					0.800000011920929,
					0.800000011920929,
					1
				],
				"metallicFactor":0,
				"roughnessFactor":0.5
			}
		},
		{
			"doubleSided":true,
			"name":"Material.086",
			"pbrMetallicRoughness":{
				"baseColorFactor":[
					0,
					0,
					0,
					1
				],
				"metallicFactor":0,
				"roughnessFactor":0.5
			}
		},
		{
			"doubleSided":true,
			"name":"Material.076",
			"pbrMetallicRoughness":{
				"baseColorFactor":[
					1,
					0.8534561395645142,
					0,
					1
				],
				"metallicFactor":0,
				"roughnessFactor":0.5
			}
		}
	],
	"meshes":[
		{
			"name":"Cylinder.007",
			"primitives":[
				{
					"attributes":{
						"POSITION":0,
						"NORMAL":1
					},
					"indices":2,
					"material":0
				},
				{
					"attributes":{
						"POSITION":3,
						"NORMAL":4
					},
					"indices":5,
					"material":1
				},
				{
					"attributes":{
						"POSITION":6,
						"NORMAL":7
					},
					"indices":8,
					"material":2
				},
				{
					"attributes":{
						"POSITION":9,
						"NORMAL":10
					},
					"indices":11,
					"material":3
				}
			]
		}
	],
	"accessors":[
		{
			"bufferView":0,
			"componentType":5126,
			"count":110,
			"max":[
				0.5823709964752197,
				2.9243197441101074,
				1.7786153554916382
			],
			"min":[
				0.21722014248371124,
				1.1251020431518555,
				-1.3250499963760376
			],
			"type":"VEC3"
		},
		{
			"bufferView":1,
			"componentType":5126,
			"count":110,
			"type":"VEC3"
		},
		{
			"bufferView":2,
			"componentType":5123,
			"count":237,
			"type":"SCALAR"
		},
		{
			"bufferView":3,
			"componentType":5126,
			"count":107,
			"max":[
				-1.0096256732940674,
				2.9753971099853516,
				1.8900834321975708
			],
			"min":[
				-2.0318987369537354,
				1.1363831758499146,
				-1.0161837339401245
			],
			"type":"VEC3"
		},
		{
			"bufferView":4,
			"componentType":5126,
			"count":107,
			"type":"VEC3"
		},
		{
			"bufferView":5,
			"componentType":5123,
			"count":237,
			"type":"SCALAR"
		},
		{
			"bufferView":6,
			"componentType":5126,
			"count":14349,
			"max":[
				1.2376198768615723,
				2.6592886447906494,
				3.83540415763855
			],
			"min":[
				-1.4538053274154663,
				-0.9286465048789978,
				-1.6687953472137451
			],
			"type":"VEC3"
		},
		{
			"bufferView":7,
			"componentType":5126,
			"count":14349,
			"type":"VEC3"
		},
		{
			"bufferView":8,
			"componentType":5123,
			"count":82809,
			"type":"SCALAR"
		},
		{
			"bufferView":9,
			"componentType":5126,
			"count":2108,
			"max":[
				0.48290103673934937,
				1.7335288524627686,
				3.6366069316864014
			],
			"min":[
				-1.1791049242019653,
				-0.08156557381153107,
				-1.6555993556976318
			],
			"type":"VEC3"
		},
		{
			"bufferView":10,
			"componentType":5126,
			"count":2108,
			"type":"VEC3"
		},
		{
			"bufferView":11,
			"componentType":5123,
			"count":11187,
			"type":"SCALAR"
		}
	],
	"bufferViews":[
		{
			"buffer":0,
			"byteLength":1320,
			"byteOffset":0,
			"target":34962
		},
		{
			"buffer":0,
			"byteLength":1320,
			"byteOffset":1320,
			"target":34962
		},
		{
			"buffer":0,
			"byteLength":474,
			"byteOffset":2640,
			"target":34963
		},
		{
			"buffer":0,
			"byteLength":1284,
			"byteOffset":3116,
			"target":34962
		},
		{
			"buffer":0,
			"byteLength":1284,
			"byteOffset":4400,
			"target":34962
		},
		{
			"buffer":0,
			"byteLength":474,
			"byteOffset":5684,
			"target":34963
		},
		{
			"buffer":0,
			"byteLength":172188,
			"byteOffset":6160,
			"target":34962
		},
		{
			"buffer":0,
			"byteLength":172188,
			"byteOffset":178348,
			"target":34962
		},
		{
			"buffer":0,
			"byteLength":165618,
			"byteOffset":350536,
			"target":34963
		},
		{
			"buffer":0,
			"byteLength":25296,
			"byteOffset":516156,
			"target":34962
		},
		{
			"buffer":0,
			"byteLength":25296,
			"byteOffset":541452,
			"target":34962
		},
		{
			"buffer":0,
			"byteLength":22374,
			"byteOffset":566748,
			"target":34963
		}
	],
	"buffers":[
		{
			"byteLength":589124,
			"uri":"bee.bin"
		}
	]
}
