{
	"asset":{
		"generator":"Khronos glTF Blender I/O v3.6.27",
		"version":"2.0"
	},
	"scene":0,
	"scenes":[
		{
			"name":"Scene",
			"nodes":[
				0
			]
		}
	],
	"nodes":[
		{
			"mesh":0,
			"name":"lamp",
			"translation":[
				0,
				0.04055507108569145,
				0.01805155538022518
			]
		}
	],
	"materials":[
		{
			"alphaMode":"BLEND",
			"doubleSided":true,
			"emissiveFactor":[
				0.20863690972328186,
				0.4341537058353424,
				0.42326778173446655
			],
			"name":"Material.002",
			"pbrMetallicRoughness":{
				"baseColorFactor":[
					0,
					0.8000000715255737,
					0.6176220774650574,
					0.08454543352127075
				],
				"metallicFactor":0,
				"roughnessFactor":0.5
			}
		}
	],
	"meshes":[
		{
			"name":"Cylinder.006",
			"primitives":[
				{
					"attributes":{
						"POSITION":0,
						"NORMAL":1,
						"TEXCOORD_0":2
					},
					"indices":3,
					"material":0
				},
				{
					"attributes":{
						"POSITION":4,
						"NORMAL":5,
						"TEXCOORD_0":6
					},
					"indices":7,
					"material":0
				}
			]
		}
	],
	"accessors":[
		{
			"bufferView":0,
			"componentType":5126,
			"count":8434,
			"max":[
				0.019641295075416565,
				0.04631847143173218,
				0.019641295075416565
			],
			"min":[
				-0.019641295075416565,
				-0.006713099777698517,
				-0.019641295075416565
			],
			"type":"VEC3"
		},
		{
			"bufferView":1,
			"componentType":5126,
			"count":8434,
			"type":"VEC3"
		},
		{
			"bufferView":2,
			"componentType":5126,
			"count":8434,
			"type":"VEC2"
		},
		{
			"bufferView":3,
			"componentType":5123,
			"count":21084,
			"type":"SCALAR"
		},
		{
			"bufferView":4,
			"componentType":5126,
			"count":452,
			"max":[
				0.01292457152158022,
				0.04500981792807579,
				0.01292457152158022
			],
			"min":[
				-0.012924570590257645,
				0.043777622282505035,
				-0.01292457152158022
			],
			"type":"VEC3"
		},
		{
			"bufferView":5,
			"componentType":5126,
			"count":452,
			"type":"VEC3"
		},
		{
			"bufferView":6,
			"componentType":5126,
			"count":452,
			"type":"VEC2"
		},
		{
			"bufferView":7,
			"componentType":5123,
			"count":1989,
			"type":"SCALAR"
		}
	],
	"bufferViews":[
		{
			"buffer":0,
			"byteLength":101208,
			"byteOffset":0,
			"target":34962
		},
		{
			"buffer":0,
			"byteLength":101208,
			"byteOffset":101208,
			"target":34962
		},
		{
			"buffer":0,
			"byteLength":67472,
			"byteOffset":202416,
			"target":34962
		},
		{
			"buffer":0,
			"byteLength":42168,
			"byteOffset":269888,
			"target":34963
		},
		{
			"buffer":0,
			"byteLength":5424,
			"byteOffset":312056,
			"target":34962
		},
		{
			"buffer":0,
			"byteLength":5424,
			"byteOffset":317480,
			"target":34962
		},
		{
			"buffer":0,
			"byteLength":3616,
			"byteOffset":322904,
			"target":34962
		},
		{
			"buffer":0,
			"byteLength":3978,
			"byteOffset":326520,
			"target":34963
		}
	],
	"buffers":[
		{
			"byteLength":330500,
			"uri":"hilluminator.bin"
		}
	]
}
