{
	"asset":{
		"generator":"Khronos glTF Blender I/O v3.6.27",
		"version":"2.0"
	},
	"scene":0,
	"scenes":[
		{
			"name":"Scene",
			"nodes":[
				0,
				1,
				2,
				3
			]
		}
	],
	"nodes":[
		{
			"mesh":0,
			"name":"lamp",
			"translation":[
				0,
				0.045072201639413834,
				0.018051600083708763
			]
		},
		{
			"mesh":1,
			"name":"Text.012",
			"rotation":[
				0.7071068286895752,
				0,
				0,
				0.7071068286895752
			],
			"scale":[
				0.011089053936302662,
				0.02460140734910965,
				0.013473319821059704
			],
			"translation":[
				0.1095658615231514,
				0.07431434094905853,
				0.018356164917349815
			]
		},
		{
			"mesh":2,
			"name":"Cube.024",
			"scale":[
				0.0429159514605999,
				0.0010000000474974513,
				0
			],
			"translation":[
				0.05893991142511368,
				0.0787339061498642,
				0.018174728378653526
			]
		},
		{
			"mesh":3,
			"name":"Cube.025",
			"scale":[
				0.042796939611434937,
				0.009707197546958923,
				9.999999747378752e-05
			],
			"translation":[
				0.14273741841316223,
				0.07923568785190582,
				0.017853660508990288
			]
		}
	],
	"materials":[
		{
			"doubleSided":true,
			"name":"black plastic",
			"pbrMetallicRoughness":{
				"baseColorFactor":[
					0.0056046294048428535,
					0.0056046294048428535,
					0.0056046294048428535,
					1
				],
				"metallicFactor":0,
				"roughnessFactor":0.6166667342185974
			}
		},
		{
			"doubleSided":true,
			"name":"glass",
			"pbrMetallicRoughness":{
				"baseColorFactor":[
					0.38437479734420776,
					0.3731274902820587,
					0.3731274902820587,
					1
				],
				"metallicFactor":0,
				"roughnessFactor":0
			}
		},
		{
			"doubleSided":true,
			"name":"black plastic.012",
			"pbrMetallicRoughness":{
				"baseColorFactor":[
					0.0056046294048428535,
					0.0056046294048428535,
					0.0056046294048428535,
					1
				],
				"metallicFactor":0,
				"roughnessFactor":0.6166667342185974
			}
		}
	],
	"meshes":[
		{
			"name":"Cylinder.006",
			"primitives":[
				{
					"attributes":{
						"POSITION":0,
						"NORMAL":1,
						"TEXCOORD_0":2
					},
					"indices":3,
					"material":0
				},
				{
					"attributes":{
						"POSITION":4,
						"NORMAL":5,
						"TEXCOORD_0":6
					},
					"indices":7,
					"material":1
				}
			]
		},
		{
			"name":"Text.012",
			"primitives":[
				{
					"attributes":{
						"POSITION":8,
						"NORMAL":9,
						"TEXCOORD_0":10
					},
					"indices":11,
					"material":2
				}
			]
		},
		{
			"name":"Cube.032",
			"primitives":[
				{
					"attributes":{
						"POSITION":12,
						"NORMAL":13,
						"TEXCOORD_0":14
					},
					"indices":15
				}
			]
		},
		{
			"name":"Cube.033",
			"primitives":[
				{
					"attributes":{
						"POSITION":16,
						"NORMAL":17,
						"TEXCOORD_0":18
					},
					"indices":15
				}
			]
		}
	],
	"accessors":[
		{
			"bufferView":0,
			"componentType":5126,
			"count":8434,
			"max":[
				0.019641295075416565,
				0.04631847143173218,
				0.019641295075416565
			],
			"min":[
				-0.019641295075416565,
				-0.006713099777698517,
				-0.019641295075416565
			],
			"type":"VEC3"
		},
		{
			"bufferView":1,
			"componentType":5126,
			"count":8434,
			"type":"VEC3"
		},
		{
			"bufferView":2,
			"componentType":5126,
			"count":8434,
			"type":"VEC2"
		},
		{
			"bufferView":3,
			"componentType":5123,
			"count":21084,
			"type":"SCALAR"
		},
		{
			"bufferView":4,
			"componentType":5126,
			"count":452,
			"max":[
				0.01292457152158022,
				0.04500981792807579,
				0.01292457152158022
			],
			"min":[
				-0.012924570590257645,
				0.043777622282505035,
				-0.01292457152158022
			],
			"type":"VEC3"
		},
		{
			"bufferView":5,
			"componentType":5126,
			"count":452,
			"type":"VEC3"
		},
		{
			"bufferView":6,
			"componentType":5126,
			"count":452,
			"type":"VEC2"
		},
		{
			"bufferView":7,
			"componentType":5123,
			"count":1989,
			"type":"SCALAR"
		},
		{
			"bufferView":8,
			"componentType":5126,
			"count":1359,
			"max":[
				6.447999954223633,
				0.010000000707805157,
				0.009000000543892384
			],
			"min":[
				0.07600000500679016,
				-0.010000000707805157,
				-0.6910000443458557
			],
			"type":"VEC3"
		},
		{
			"bufferView":9,
			"componentType":5126,
			"count":1359,
			"type":"VEC3"
		},
		{
			"bufferView":10,
			"componentType":5126,
			"count":1359,
			"type":"VEC2"
		},
		{
			"bufferView":11,
			"componentType":5123,
			"count":3888,
			"type":"SCALAR"
		},
		{
			"bufferView":12,
			"componentType":5126,
			"count":24,
			"max":[
				1,
				1,
				1
			],
			"min":[
				-1,
				-1,
				-1
			],
			"type":"VEC3"
		},
		{
			"bufferView":13,
			"componentType":5126,
			"count":24,
			"type":"VEC3"
		},
		{
			"bufferView":14,
			"componentType":5126,
			"count":24,
			"type":"VEC2"
		},
		{
			"bufferView":15,
			"componentType":5123,
			"count":36,
			"type":"SCALAR"
		},
		{
			"bufferView":16,
			"componentType":5126,
			"count":24,
			"max":[
				1,
				1,
				1
			],
			"min":[
				-1,
				-1,
				-1
			],
			"type":"VEC3"
		},
		{
			"bufferView":17,
			"componentType":5126,
			"count":24,
			"type":"VEC3"
		},
		{
			"bufferView":18,
			"componentType":5126,
			"count":24,
			"type":"VEC2"
		}
	],
	"bufferViews":[
		{
			"buffer":0,
			"byteLength":101208,
			"byteOffset":0,
			"target":34962
		},
		{
			"buffer":0,
			"byteLength":101208,
			"byteOffset":101208,
			"target":34962
		},
		{
			"buffer":0,
			"byteLength":67472,
			"byteOffset":202416,
			"target":34962
		},
		{
			"buffer":0,
			"byteLength":42168,
			"byteOffset":269888,
			"target":34963
		},
		{
			"buffer":0,
			"byteLength":5424,
			"byteOffset":312056,
			"target":34962
		},
		{
			"buffer":0,
			"byteLength":5424,
			"byteOffset":317480,
			"target":34962
		},
		{
			"buffer":0,
			"byteLength":3616,
			"byteOffset":322904,
			"target":34962
		},
		{
			"buffer":0,
			"byteLength":3978,
			"byteOffset":326520,
			"target":34963
		},
		{
			"buffer":0,
			"byteLength":16308,
			"byteOffset":330500,
			"target":34962
		},
		{
			"buffer":0,
			"byteLength":16308,
			"byteOffset":346808,
			"target":34962
		},
		{
			"buffer":0,
			"byteLength":10872,
			"byteOffset":363116,
			"target":34962
		},
		{
			"buffer":0,
			"byteLength":7776,
			"byteOffset":373988,
			"target":34963
		},
		{
			"buffer":0,
			"byteLength":288,
			"byteOffset":381764,
			"target":34962
		},
		{
			"buffer":0,
			"byteLength":288,
			"byteOffset":382052,
			"target":34962
		},
		{
			"buffer":0,
			"byteLength":192,
			"byteOffset":382340,
			"target":34962
		},
		{
			"buffer":0,
			"byteLength":72,
			"byteOffset":382532,
			"target":34963
		},
		{
			"buffer":0,
			"byteLength":288,
			"byteOffset":382604,
			"target":34962
		},
		{
			"buffer":0,
			"byteLength":288,
			"byteOffset":382892,
			"target":34962
		},
		{
			"buffer":0,
			"byteLength":192,
			"byteOffset":383180,
			"target":34962
		}
	],
	"buffers":[
		{
			"byteLength":383372,
			"uri":"illuminator.bin"
		}
	]
}
