{
	"asset":{
		"generator":"Khronos glTF Blender I/O v3.6.27",
		"version":"2.0"
	},
	"scene":0,
	"scenes":[
		{
			"name":"Scene",
			"nodes":[
				0,
				1,
				2
			]
		}
	],
	"nodes":[
		{
			"mesh":0,
			"name":"Cube.002",
			"scale":[
				1.6701287031173706,
				0.38192975521087646,
				0.10566527396440506
			],
			"translation":[
				-4.993461608886719,
				1.4358969926834106,
				0.683268666267395
			]
		},
		{
			"mesh":1,
			"name":"Text.002",
			"rotation":[
				0.6846909523010254,
				0.008405092172324657,
				-0.017569582909345627,
				0.7285733222961426
			],
			"scale":[
				0.26361507177352905,
				0.09235487878322601,
				0.2633172273635864
			],
			"translation":[
				-5.001520156860352,
				1.3845183849334717,
				0.8518538475036621
			]
		},
		{
			"mesh":2,
			"name":"budding",
			"rotation":[
				0.7165644764900208,
				0,
				0,
				0.6975208520889282
			],
			"scale":[
				2.3470218181610107,
				2.34702205657959,
				2.34702205657959
			],
			"translation":[
				-4.977855682373047,
				2.3488352298736572,
				0.7921326756477356
			]
		}
	],
	"materials":[
		{
			"doubleSided":true,
			"name":"Material.002",
			"pbrMetallicRoughness":{
				"baseColorFactor":[
					0,
					0,
					0,
					1
				],
				"metallicFactor":0,
				"roughnessFactor":0.5
			}
		},
		{
			"alphaMode":"BLEND",
			"doubleSided":true,
			"name":"budding",
			"pbrMetallicRoughness":{
				"baseColorTexture":{
					"index":0
				},
				"metallicFactor":0,
				"roughnessFactor":0.5
			}
		}
	],
	"meshes":[
		{
			"name":"Cube.001",
			"primitives":[
				{
					"attributes":{
						"POSITION":0,
						"NORMAL":1,
						"TEXCOORD_0":2
					},
					"indices":3,
					"material":0
				}
			]
		},
		{
			"name":"Text.001",
			"primitives":[
				{
					"attributes":{
						"POSITION":4,
						"NORMAL":5,
						"TEXCOORD_0":6
					},
					"indices":7
				}
			]
		},
		{
			"name":"budding",
			"primitives":[
				{
					"attributes":{
						"POSITION":8,
						"NORMAL":9,
						"TEXCOORD_0":10
					},
					"indices":11,
					"material":1
				}
			]
		}
	],
	"textures":[
		{
			"sampler":0,
			"source":0
		}
	],
	"images":[
		{
			"mimeType":"image/png",
			"name":"budding",
			"uri":"budding.png"
		}
	],
	"accessors":[
		{
			"bufferView":0,
			"componentType":5126,
			"count":24,
			"max":[
				1,
				1,
				1
			],
			"min":[
				-1,
				-1,
				-1
			],
			"type":"VEC3"
		},
		{
			"bufferView":1,
			"componentType":5126,
			"count":24,
			"type":"VEC3"
		},
		{
			"bufferView":2,
			"componentType":5126,
			"count":24,
			"type":"VEC2"
		},
		{
			"bufferView":3,
			"componentType":5123,
			"count":36,
			"type":"SCALAR"
		},
		{
			"bufferView":4,
			"componentType":5126,
			"count":2760,
			"max":[
				1.6085000038146973,
				0.029999999329447746,
				0.23000000417232513
			],
			"min":[
				-1.5394999980926514,
				-0.029999999329447746,
				-0.6820000410079956
			],
			"type":"VEC3"
		},
		{
			"bufferView":5,
			"componentType":5126,
			"count":2760,
			"type":"VEC3"
		},
		{
			"bufferView":6,
			"componentType":5126,
			"count":2760,
			"type":"VEC2"
		},
		{
			"bufferView":7,
			"componentType":5123,
			"count":8172,
			"type":"SCALAR"
		},
		{
			"bufferView":8,
			"componentType":5126,
			"count":4,
			"max":[
				0.7075471878051758,
				0,
				0.5
			],
			"min":[
				-0.7075471878051758,
				0,
				-0.5
			],
			"type":"VEC3"
		},
		{
			"bufferView":9,
			"componentType":5126,
			"count":4,
			"type":"VEC3"
		},
		{
			"bufferView":10,
			"componentType":5126,
			"count":4,
			"type":"VEC2"
		},
		{
			"bufferView":11,
			"componentType":5123,
			"count":6,
			"type":"SCALAR"
		}
	],
	"bufferViews":[
		{
			"buffer":0,
			"byteLength":288,
			"byteOffset":0,
			"target":34962
		},
		{
			"buffer":0,
			"byteLength":288,
			"byteOffset":288,
			"target":34962
		},
		{
			"buffer":0,
			"byteLength":192,
			"byteOffset":576,
			"target":34962
		},
		{
			"buffer":0,
			"byteLength":72,
			"byteOffset":768,
			"target":34963
		},
		{
			"buffer":0,
			"byteLength":33120,
			"byteOffset":840,
			"target":34962
		},
		{
			"buffer":0,
			"byteLength":33120,
			"byteOffset":33960,
			"target":34962
		},
		{
			"buffer":0,
			"byteLength":22080,
			"byteOffset":67080,
			"target":34962
		},
		{
			"buffer":0,
			"byteLength":16344,
			"byteOffset":89160,
			"target":34963
		},
		{
			"buffer":0,
			"byteLength":48,
			"byteOffset":105504,
			"target":34962
		},
		{
			"buffer":0,
			"byteLength":48,
			"byteOffset":105552,
			"target":34962
		},
		{
			"buffer":0,
			"byteLength":32,
			"byteOffset":105600,
			"target":34962
		},
		{
			"buffer":0,
			"byteLength":12,
			"byteOffset":105632,
			"target":34963
		}
	],
	"samplers":[
		{
			"magFilter":9729,
			"minFilter":9987,
			"wrapS":33071,
			"wrapT":33071
		}
	],
	"buffers":[
		{
			"byteLength":105644,
			"uri":"budding.bin"
		}
	]
}
