{
	"asset":{
		"generator":"Khronos glTF Blender I/O v3.6.27",
		"version":"2.0"
	},
	"scene":0,
	"scenes":[
		{
			"name":"Scene",
			"nodes":[
				0,
				1,
				2
			]
		}
	],
	"nodes":[
		{
			"mesh":0,
			"name":"Cube.003",
			"scale":[
				1.6701287031173706,
				0.38192975521087646,
				0.10566527396440506
			],
			"translation":[
				-0.9789068698883057,
				1.4314652681350708,
				0.7007058262825012
			]
		},
		{
			"mesh":1,
			"name":"Text.001",
			"rotation":[
				0.6846909523010254,
				0.008405092172324657,
				-0.017569582909345627,
				0.7285733222961426
			],
			"scale":[
				0.26361507177352905,
				0.09235487878322601,
				0.2633172273635864
			],
			"translation":[
				-0.9869654178619385,
				1.4838186502456665,
				0.8563335537910461
			]
		},
		{
			"mesh":2,
			"name":"regeneration",
			"rotation":[
				0.7165644764900208,
				0,
				0,
				0.697520911693573
			],
			"scale":[
				2.2391839027404785,
				2.115441083908081,
				2.115441083908081
			],
			"translation":[
				-0.9742699861526489,
				2.555898666381836,
				0.7903806567192078
			]
		}
	],
	"materials":[
		{
			"doubleSided":true,
			"name":"Material.002",
			"pbrMetallicRoughness":{
				"baseColorFactor":[
					0,
					0,
					0,
					1
				],
				"metallicFactor":0,
				"roughnessFactor":0.5
			}
		},
		{
			"alphaMode":"BLEND",
			"doubleSided":true,
			"name":"regeneration",
			"pbrMetallicRoughness":{
				"baseColorTexture":{
					"index":0
				},
				"metallicFactor":0,
				"roughnessFactor":0.5
			}
		}
	],
	"meshes":[
		{
			"name":"Cube.002",
			"primitives":[
				{
					"attributes":{
						"POSITION":0,
						"NORMAL":1,
						"TEXCOORD_0":2
					},
					"indices":3,
					"material":0
				}
			]
		},
		{
			"name":"Text.002",
			"primitives":[
				{
					"attributes":{
						"POSITION":4,
						"NORMAL":5,
						"TEXCOORD_0":6
					},
					"indices":7
				}
			]
		},
		{
			"name":"regeneration",
			"primitives":[
				{
					"attributes":{
						"POSITION":8,
						"NORMAL":9,
						"TEXCOORD_0":10
					},
					"indices":11,
					"material":1
				}
			]
		}
	],
	"textures":[
		{
			"sampler":0,
			"source":0
		}
	],
	"images":[
		{
			"mimeType":"image/png",
			"name":"regeneration",
			"uri":"regeneration.png"
		}
	],
	"accessors":[
		{
			"bufferView":0,
			"componentType":5126,
			"count":24,
			"max":[
				1,
				1,
				1
			],
			"min":[
				-1,
				-1,
				-1
			],
			"type":"VEC3"
		},
		{
			"bufferView":1,
			"componentType":5126,
			"count":24,
			"type":"VEC3"
		},
		{
			"bufferView":2,
			"componentType":5126,
			"count":24,
			"type":"VEC2"
		},
		{
			"bufferView":3,
			"componentType":5123,
			"count":36,
			"type":"SCALAR"
		},
		{
			"bufferView":4,
			"componentType":5126,
			"count":11135,
			"max":[
				3.5759999752044678,
				0.029999999329447746,
				1.2300000190734863
			],
			"min":[
				-3.8370001316070557,
				-0.029999999329447746,
				-0.6820000410079956
			],
			"type":"VEC3"
		},
		{
			"bufferView":5,
			"componentType":5126,
			"count":11135,
			"type":"VEC3"
		},
		{
			"bufferView":6,
			"componentType":5126,
			"count":11135,
			"type":"VEC2"
		},
		{
			"bufferView":7,
			"componentType":5123,
			"count":32928,
			"type":"SCALAR"
		},
		{
			"bufferView":8,
			"componentType":5126,
			"count":4,
			"max":[
				0.722347617149353,
				0,
				0.5
			],
			"min":[
				-0.722347617149353,
				0,
				-0.5
			],
			"type":"VEC3"
		},
		{
			"bufferView":9,
			"componentType":5126,
			"count":4,
			"type":"VEC3"
		},
		{
			"bufferView":10,
			"componentType":5126,
			"count":4,
			"type":"VEC2"
		},
		{
			"bufferView":11,
			"componentType":5123,
			"count":6,
			"type":"SCALAR"
		}
	],
	"bufferViews":[
		{
			"buffer":0,
			"byteLength":288,
			"byteOffset":0,
			"target":34962
		},
		{
			"buffer":0,
			"byteLength":288,
			"byteOffset":288,
			"target":34962
		},
		{
			"buffer":0,
			"byteLength":192,
			"byteOffset":576,
			"target":34962
		},
		{
			"buffer":0,
			"byteLength":72,
			"byteOffset":768,
			"target":34963
		},
		{
			"buffer":0,
			"byteLength":133620,
			"byteOffset":840,
			"target":34962
		},
		{
			"buffer":0,
			"byteLength":133620,
			"byteOffset":134460,
			"target":34962
		},
		{
			"buffer":0,
			"byteLength":89080,
			"byteOffset":268080,
			"target":34962
		},
		{
			"buffer":0,
			"byteLength":65856,
			"byteOffset":357160,
			"target":34963
		},
		{
			"buffer":0,
			"byteLength":48,
			"byteOffset":423016,
			"target":34962
		},
		{
			"buffer":0,
			"byteLength":48,
			"byteOffset":423064,
			"target":34962
		},
		{
			"buffer":0,
			"byteLength":32,
			"byteOffset":423112,
			"target":34962
		},
		{
			"buffer":0,
			"byteLength":12,
			"byteOffset":423144,
			"target":34963
		}
	],
	"samplers":[
		{
			"magFilter":9729,
			"minFilter":9987,
			"wrapS":33071,
			"wrapT":33071
		}
	],
	"buffers":[
		{
			"byteLength":423156,
			"uri":"fragmentation.bin"
		}
	]
}
