{
	"asset":{
		"generator":"Khronos glTF Blender I/O v3.6.27",
		"version":"2.0"
	},
	"scene":0,
	"scenes":[
		{
			"name":"Scene",
			"nodes":[
				0,
				1,
				2
			]
		}
	],
	"nodes":[
		{
			"mesh":0,
			"name":"Cube.005",
			"scale":[
				1.6701287031173706,
				0.38192975521087646,
				0.10566527396440506
			],
			"translation":[
				6.88287353515625,
				1.4400877952575684,
				0.6161525249481201
			]
		},
		{
			"mesh":1,
			"name":"Text.004",
			"rotation":[
				0.6846909523010254,
				0.008405092172324657,
				-0.017569582909345627,
				0.7285733222961426
			],
			"scale":[
				0.26361507177352905,
				0.09235487878322601,
				0.2633172273635864
			],
			"translation":[
				6.874814987182617,
				1.3490285873413086,
				0.771780252456665
			]
		},
		{
			"mesh":2,
			"name":"vegetative",
			"rotation":[
				0.7165644764900208,
				0,
				0,
				0.697520911693573
			],
			"scale":[
				2.682481288909912,
				2.486980676651001,
				2.113377094268799
			],
			"translation":[
				6.896810531616211,
				2.515150308609009,
				0.63545823097229
			]
		}
	],
	"materials":[
		{
			"doubleSided":true,
			"name":"Material.002",
			"pbrMetallicRoughness":{
				"baseColorFactor":[
					0,
					0,
					0,
					1
				],
				"metallicFactor":0,
				"roughnessFactor":0.5
			}
		},
		{
			"alphaMode":"BLEND",
			"doubleSided":true,
			"name":"vegetative",
			"pbrMetallicRoughness":{
				"baseColorTexture":{
					"index":0
				},
				"metallicFactor":0,
				"roughnessFactor":0.5
			}
		}
	],
	"meshes":[
		{
			"name":"Cube.005",
			"primitives":[
				{
					"attributes":{
						"POSITION":0,
						"NORMAL":1,
						"TEXCOORD_0":2
					},
					"indices":3,
					"material":0
				}
			]
		},
		{
			"name":"Text.004",
			"primitives":[
				{
					"attributes":{
						"POSITION":4,
						"NORMAL":5,
						"TEXCOORD_0":6
					},
					"indices":7
				}
			]
		},
		{
			"name":"vegetative",
			"primitives":[
				{
					"attributes":{
						"POSITION":8,
						"NORMAL":9,
						"TEXCOORD_0":10
					},
					"indices":11,
					"material":1
				}
			]
		}
	],
	"textures":[
		{
			"sampler":0,
			"source":0
		}
	],
	"images":[
		{
			"mimeType":"image/png",
			"name":"vegetative",
			"uri":"vegetative.png"
		}
	],
	"accessors":[
		{
			"bufferView":0,
			"componentType":5126,
			"count":24,
			"max":[
				1,
				1,
				1
			],
			"min":[
				-1,
				-1,
				-1
			],
			"type":"VEC3"
		},
		{
			"bufferView":1,
			"componentType":5126,
			"count":24,
			"type":"VEC3"
		},
		{
			"bufferView":2,
			"componentType":5126,
			"count":24,
			"type":"VEC2"
		},
		{
			"bufferView":3,
			"componentType":5123,
			"count":36,
			"type":"SCALAR"
		},
		{
			"bufferView":4,
			"componentType":5126,
			"count":8330,
			"max":[
				4.608500003814697,
				0.029999999329447746,
				0.23000000417232513
			],
			"min":[
				-4.66949987411499,
				-0.029999999329447746,
				-0.6820000410079956
			],
			"type":"VEC3"
		},
		{
			"bufferView":5,
			"componentType":5126,
			"count":8330,
			"type":"VEC3"
		},
		{
			"bufferView":6,
			"componentType":5126,
			"count":8330,
			"type":"VEC2"
		},
		{
			"bufferView":7,
			"componentType":5123,
			"count":24624,
			"type":"SCALAR"
		},
		{
			"bufferView":8,
			"componentType":5126,
			"count":4,
			"max":[
				0.6117021441459656,
				0,
				0.5
			],
			"min":[
				-0.6117021441459656,
				0,
				-0.5
			],
			"type":"VEC3"
		},
		{
			"bufferView":9,
			"componentType":5126,
			"count":4,
			"type":"VEC3"
		},
		{
			"bufferView":10,
			"componentType":5126,
			"count":4,
			"type":"VEC2"
		},
		{
			"bufferView":11,
			"componentType":5123,
			"count":6,
			"type":"SCALAR"
		}
	],
	"bufferViews":[
		{
			"buffer":0,
			"byteLength":288,
			"byteOffset":0,
			"target":34962
		},
		{
			"buffer":0,
			"byteLength":288,
			"byteOffset":288,
			"target":34962
		},
		{
			"buffer":0,
			"byteLength":192,
			"byteOffset":576,
			"target":34962
		},
		{
			"buffer":0,
			"byteLength":72,
			"byteOffset":768,
			"target":34963
		},
		{
			"buffer":0,
			"byteLength":99960,
			"byteOffset":840,
			"target":34962
		},
		{
			"buffer":0,
			"byteLength":99960,
			"byteOffset":100800,
			"target":34962
		},
		{
			"buffer":0,
			"byteLength":66640,
			"byteOffset":200760,
			"target":34962
		},
		{
			"buffer":0,
			"byteLength":49248,
			"byteOffset":267400,
			"target":34963
		},
		{
			"buffer":0,
			"byteLength":48,
			"byteOffset":316648,
			"target":34962
		},
		{
			"buffer":0,
			"byteLength":48,
			"byteOffset":316696,
			"target":34962
		},
		{
			"buffer":0,
			"byteLength":32,
			"byteOffset":316744,
			"target":34962
		},
		{
			"buffer":0,
			"byteLength":12,
			"byteOffset":316776,
			"target":34963
		}
	],
	"samplers":[
		{
			"magFilter":9729,
			"minFilter":9987,
			"wrapS":33071,
			"wrapT":33071
		}
	],
	"buffers":[
		{
			"byteLength":316788,
			"uri":"vegetative.bin"
		}
	]
}
