{
	"asset":{
		"generator":"Khronos glTF Blender I/O v3.6.27",
		"version":"2.0"
	},
	"scene":0,
	"scenes":[
		{
			"name":"Scene",
			"nodes":[
				0
			]
		}
	],
	"nodes":[
		{
			"mesh":0,
			"name":"25dogFinal",
			"translation":[
				-3.025949478149414,
				-0.023535557091236115,
				-1.468168020248413
			]
		}
	],
	"materials":[
		{
			"doubleSided":true,
			"name":"Material.135",
			"pbrMetallicRoughness":{
				"baseColorFactor":[
					0.36263588070869446,
					0.36263588070869446,
					0.36263588070869446,
					1
				],
				"metallicFactor":0
			}
		}
	],
	"meshes":[
		{
			"name":"Plane.184",
			"primitives":[
				{
					"attributes":{
						"POSITION":0,
						"NORMAL":1,
						"TEXCOORD_0":2
					},
					"indices":3,
					"material":0
				}
			]
		}
	],
	"accessors":[
		{
			"bufferView":0,
			"componentType":5126,
			"count":3332,
			"max":[
				0.20452824234962463,
				1.1830987930297852,
				1.0208052396774292
			],
			"min":[
				-0.20452824234962463,
				-0.02677616849541664,
				-0.85966956615448
			],
			"type":"VEC3"
		},
		{
			"bufferView":1,
			"componentType":5126,
			"count":3332,
			"type":"VEC3"
		},
		{
			"bufferView":2,
			"componentType":5126,
			"count":3332,
			"type":"VEC2"
		},
		{
			"bufferView":3,
			"componentType":5123,
			"count":4212,
			"type":"SCALAR"
		}
	],
	"bufferViews":[
		{
			"buffer":0,
			"byteLength":39984,
			"byteOffset":0,
			"target":34962
		},
		{
			"buffer":0,
			"byteLength":39984,
			"byteOffset":39984,
			"target":34962
		},
		{
			"buffer":0,
			"byteLength":26656,
			"byteOffset":79968,
			"target":34962
		},
		{
			"buffer":0,
			"byteLength":8424,
			"byteOffset":106624,
			"target":34963
		}
	],
	"buffers":[
		{
			"byteLength":115048,
			"uri":"wolf.bin"
		}
	]
}
