{
	"asset":{
		"generator":"Khronos glTF Blender I/O v3.6.27",
		"version":"2.0"
	},
	"scene":0,
	"scenes":[
		{
			"name":"Scene",
			"nodes":[
				0,
				1,
				5,
				9,
				10,
				11,
				15,
				19,
				20,
				21
			]
		}
	],
	"nodes":[
		{
			"mesh":0,
			"name":"Object_7.002",
			"rotation":[
				0.9997564554214478,
				0,
				0,
				0.02206972800195217
			],
			"translation":[
				0.7047805786132812,
				14.524296760559082,
				-5.746325492858887
			]
		},
		{
			"name":"ikHandle6.002",
			"rotation":[
				0.38921576738357544,
				0.4589847922325134,
				0.5792214870452881,
				0.549860417842865
			],
			"translation":[
				0.4245281219482422,
				0.7901352643966675,
				-4.972153663635254
			]
		},
		{
			"name":"thumb down.001",
			"rotation":[
				0,
				0.70710688829422,
				-0.7071066498756409,
				5.394798563429504e-08
			],
			"scale":[
				99.99998474121094,
				100.00000762939453,
				99.99998474121094
			],
			"translation":[
				2.7916321414522827e-06,
				9.865645552054048e-06,
				-2.9344368158490397e-05
			]
		},
		{
			"children":[
				2
			],
			"name":"RootNode.004",
			"translation":[
				2.7916321414522827e-06,
				9.865645552054048e-06,
				-2.9344368158490397e-05
			]
		},
		{
			"children":[
				3
			],
			"name":"0b083fd985ab41a9a93810c07fe418b2.fbx.001",
			"rotation":[
				0.70710688829422,
				0,
				0,
				0.7071066498756409
			],
			"scale":[
				0.010000000707805157,
				0.010000001639127731,
				0.010000001639127731
			]
		},
		{
			"children":[
				4
			],
			"name":"Sketchfab_model.004",
			"rotation":[
				-0.5320183038711548,
				-0.465785950422287,
				0.465785950422287,
				0.53201824426651
			],
			"scale":[
				1.5767250061035156,
				1.5767251253128052,
				1.5767250061035156
			],
			"translation":[
				1.2410087585449219,
				3.548211097717285,
				-5.227845191955566
			]
		},
		{
			"name":"RootNode.005"
		},
		{
			"children":[
				6
			],
			"name":"Object_2.003"
		},
		{
			"children":[
				7
			],
			"name":"d8a2db999a694ae8840951555228c660.fbx.003",
			"rotation":[
				0.70710688829422,
				0,
				0,
				0.7071066498756409
			]
		},
		{
			"children":[
				8
			],
			"name":"Sketchfab_model.005",
			"rotation":[
				-0.26202064752578735,
				0.9602336883544922,
				0.025381848216056824,
				0.09301749616861343
			],
			"scale":[
				0.2981110215187073,
				0.2981109023094177,
				0.2981110215187073
			],
			"translation":[
				2.4353461265563965,
				2.3668806552886963,
				-2.8121228218078613
			]
		},
		{
			"mesh":1,
			"name":"Object_7.003",
			"rotation":[
				0.8680983781814575,
				-0.49590134620666504,
				-0.010947073809802532,
				0.019163358956575394
			],
			"scale":[
				0.2079661786556244,
				0.20796623826026917,
				0.20796626806259155
			],
			"translation":[
				3.4316678047180176,
				3.6703293323516846,
				-4.979952812194824
			]
		},
		{
			"name":"ikHandle6.003",
			"rotation":[
				0.5656265020370483,
				0.2054813653230667,
				0.2302006036043167,
				0.7647560238838196
			],
			"scale":[
				0.2981109619140625,
				0.29811087250709534,
				0.2981109023094177
			],
			"translation":[
				1.6029187440872192,
				2.5973029136657715,
				-4.749163627624512
			]
		},
		{
			"name":"thumb down.002",
			"rotation":[
				0,
				0.70710688829422,
				-0.7071066498756409,
				4.046098212029392e-08
			],
			"scale":[
				99.99999237060547,
				100,
				99.99999237060547
			],
			"translation":[
				-2.5428056687815115e-05,
				-1.7693613699520938e-05,
				-2.4994938030431513e-06
			]
		},
		{
			"children":[
				12
			],
			"name":"RootNode.006",
			"translation":[
				-2.5428056687815115e-05,
				-1.7693613699520938e-05,
				-2.4994938030431513e-06
			]
		},
		{
			"children":[
				13
			],
			"name":"0b083fd985ab41a9a93810c07fe418b2.fbx.002",
			"rotation":[
				0.70710688829422,
				0,
				0,
				0.7071066498756409
			],
			"scale":[
				0.009999999776482582,
				0.010000000707805157,
				0.009999999776482582
			]
		},
		{
			"children":[
				14
			],
			"name":"Sketchfab_model.006",
			"rotation":[
				-0.6929969191551208,
				-0.14055366814136505,
				0.14055365324020386,
				0.6929968595504761
			],
			"scale":[
				0.47003889083862305,
				0.4700389504432678,
				0.47003892064094543
			],
			"translation":[
				2.4348039627075195,
				2.8052573204040527,
				-4.825387954711914
			]
		},
		{
			"name":"Line109"
		},
		{
			"children":[
				16
			],
			"name":"RootNode"
		},
		{
			"children":[
				17
			],
			"name":"ce0154effc794add837cc82756aede18.fbx",
			"rotation":[
				0.70710688829422,
				0,
				0,
				0.7071066498756409
			],
			"scale":[
				0.009999999776482582,
				0.010000002570450306,
				0.010000002570450306
			]
		},
		{
			"children":[
				18
			],
			"name":"Sketchfab_model.015",
			"rotation":[
				-0.70710688829422,
				0,
				0,
				0.7071066498756409
			],
			"scale":[
				6.227387428283691,
				6.227388381958008,
				6.227388381958008
			],
			"translation":[
				0,
				0,
				-3.9298055171966553
			]
		},
		{
			"mesh":2,
			"name":"Plane.006",
			"rotation":[
				-0.5144638419151306,
				0.5144638419151306,
				-0.48510515689849854,
				0.48510509729385376
			],
			"scale":[
				0.7570790648460388,
				4.965706825256348,
				4.720320701599121
			],
			"translation":[
				1.8445637226104736,
				-1.5684369802474976,
				-3.761171817779541
			]
		},
		{
			"mesh":3,
			"name":"Text.007",
			"rotation":[
				0.6712220907211304,
				0,
				0,
				0.7412562966346741
			],
			"scale":[
				1.3427927494049072,
				1.3427925109863281,
				1.3427925109863281
			],
			"translation":[
				-3.4468612670898438,
				-1.9820035696029663,
				-3.363213062286377
			]
		}
	],
	"materials":[
		{
			"doubleSided":true,
			"name":"Material.001",
			"pbrMetallicRoughness":{
				"baseColorFactor":[
					0.002283533103764057,
					0.11557994037866592,
					0.0034863129258155823,
					1
				],
				"metallicFactor":0,
				"roughnessFactor":0.5
			}
		},
		{
			"doubleSided":true,
			"name":"Material.048",
			"pbrMetallicRoughness":{
				"baseColorFactor":[
					0.800000011920929,
					0.800000011920929,
					0.800000011920929,
					1
				],
				"metallicFactor":0,
				"roughnessFactor":0.5
			}
		},
		{
			"doubleSided":true,
			"name":"Material.006",
			"pbrMetallicRoughness":{
				"baseColorFactor":[
					0,
					0,
					0,
					1
				],
				"metallicFactor":0,
				"roughnessFactor":0.5
			}
		}
	],
	"meshes":[
		{
			"name":"pSphere3_lambert2_0.002",
			"primitives":[
				{
					"attributes":{
						"POSITION":0,
						"NORMAL":1,
						"TEXCOORD_0":2
					},
					"indices":3,
					"material":0
				}
			]
		},
		{
			"name":"pSphere3_lambert2_0.003",
			"primitives":[
				{
					"attributes":{
						"POSITION":4,
						"NORMAL":5,
						"TEXCOORD_0":6
					},
					"indices":3,
					"material":0
				}
			]
		},
		{
			"name":"Plane.009",
			"primitives":[
				{
					"attributes":{
						"POSITION":7,
						"NORMAL":8,
						"TEXCOORD_0":9
					},
					"indices":10,
					"material":1
				}
			]
		},
		{
			"name":"Text.007",
			"primitives":[
				{
					"attributes":{
						"POSITION":11,
						"NORMAL":12,
						"TEXCOORD_0":13
					},
					"indices":14,
					"material":2
				}
			]
		}
	],
	"accessors":[
		{
			"bufferView":0,
			"componentType":5126,
			"count":906,
			"max":[
				7.239368915557861,
				14.23243522644043,
				3.6193411350250244
			],
			"min":[
				-7.1458234786987305,
				-0.04672085493803024,
				-3.342668056488037
			],
			"type":"VEC3"
		},
		{
			"bufferView":1,
			"componentType":5126,
			"count":906,
			"type":"VEC3"
		},
		{
			"bufferView":2,
			"componentType":5126,
			"count":906,
			"type":"VEC2"
		},
		{
			"bufferView":3,
			"componentType":5123,
			"count":3957,
			"type":"SCALAR"
		},
		{
			"bufferView":4,
			"componentType":5126,
			"count":906,
			"max":[
				7.239368915557861,
				14.23243522644043,
				3.6193411350250244
			],
			"min":[
				-7.1458234786987305,
				-0.04672085493803024,
				-3.342668056488037
			],
			"type":"VEC3"
		},
		{
			"bufferView":5,
			"componentType":5126,
			"count":906,
			"type":"VEC3"
		},
		{
			"bufferView":6,
			"componentType":5126,
			"count":906,
			"type":"VEC2"
		},
		{
			"bufferView":7,
			"componentType":5126,
			"count":4,
			"max":[
				1,
				0,
				1
			],
			"min":[
				-1,
				0,
				-1
			],
			"type":"VEC3"
		},
		{
			"bufferView":8,
			"componentType":5126,
			"count":4,
			"type":"VEC3"
		},
		{
			"bufferView":9,
			"componentType":5126,
			"count":4,
			"type":"VEC2"
		},
		{
			"bufferView":10,
			"componentType":5123,
			"count":6,
			"type":"SCALAR"
		},
		{
			"bufferView":11,
			"componentType":5126,
			"count":4216,
			"max":[
				7.189000606536865,
				0.040000006556510925,
				0.23000000417232513
			],
			"min":[
				0.9100000858306885,
				-0.040000006556510925,
				-0.6820000410079956
			],
			"type":"VEC3"
		},
		{
			"bufferView":12,
			"componentType":5126,
			"count":4216,
			"type":"VEC3"
		},
		{
			"bufferView":13,
			"componentType":5126,
			"count":4216,
			"type":"VEC2"
		},
		{
			"bufferView":14,
			"componentType":5123,
			"count":12456,
			"type":"SCALAR"
		}
	],
	"bufferViews":[
		{
			"buffer":0,
			"byteLength":10872,
			"byteOffset":0,
			"target":34962
		},
		{
			"buffer":0,
			"byteLength":10872,
			"byteOffset":10872,
			"target":34962
		},
		{
			"buffer":0,
			"byteLength":7248,
			"byteOffset":21744,
			"target":34962
		},
		{
			"buffer":0,
			"byteLength":7914,
			"byteOffset":28992,
			"target":34963
		},
		{
			"buffer":0,
			"byteLength":10872,
			"byteOffset":36908,
			"target":34962
		},
		{
			"buffer":0,
			"byteLength":10872,
			"byteOffset":47780,
			"target":34962
		},
		{
			"buffer":0,
			"byteLength":7248,
			"byteOffset":58652,
			"target":34962
		},
		{
			"buffer":0,
			"byteLength":48,
			"byteOffset":65900,
			"target":34962
		},
		{
			"buffer":0,
			"byteLength":48,
			"byteOffset":65948,
			"target":34962
		},
		{
			"buffer":0,
			"byteLength":32,
			"byteOffset":65996,
			"target":34962
		},
		{
			"buffer":0,
			"byteLength":12,
			"byteOffset":66028,
			"target":34963
		},
		{
			"buffer":0,
			"byteLength":50592,
			"byteOffset":66040,
			"target":34962
		},
		{
			"buffer":0,
			"byteLength":50592,
			"byteOffset":116632,
			"target":34962
		},
		{
			"buffer":0,
			"byteLength":33728,
			"byteOffset":167224,
			"target":34962
		},
		{
			"buffer":0,
			"byteLength":24912,
			"byteOffset":200952,
			"target":34963
		}
	],
	"buffers":[
		{
			"byteLength":225864,
			"uri":"bud.bin"
		}
	]
}
