{
	"asset":{
		"generator":"Khronos glTF Blender I/O v3.6.27",
		"version":"2.0"
	},
	"scene":0,
	"scenes":[
		{
			"name":"Scene",
			"nodes":[
				0,
				1,
				6,
				7,
				8
			]
		}
	],
	"nodes":[
		{
			"mesh":0,
			"name":"Object_7.001",
			"rotation":[
				0.9997564554214478,
				0,
				0,
				0.02206972800195217
			],
			"translation":[
				-15.283873558044434,
				14.146883964538574,
				-8.180049896240234
			]
		},
		{
			"name":"ikHandle6.001",
			"rotation":[
				0.38921576738357544,
				0.4589847922325134,
				0.5792214870452881,
				0.549860417842865
			],
			"translation":[
				-15.564126014709473,
				0.41272276639938354,
				-7.405878067016602
			]
		},
		{
			"mesh":1,
			"name":"thumb down_Color - Skin Hand_0",
			"translation":[
				0.2932215929031372,
				0,
				0.17511232197284698
			]
		},
		{
			"children":[
				2
			],
			"name":"thumb down",
			"rotation":[
				0,
				0.70710688829422,
				-0.7071066498756409,
				5.394798563429504e-08
			],
			"scale":[
				99.99998474121094,
				100.00000762939453,
				99.99998474121094
			],
			"translation":[
				-1.5655947208870202e-05,
				-3.533065319061279e-05,
				-5.36959087185096e-05
			]
		},
		{
			"children":[
				3
			],
			"name":"RootNode.002",
			"translation":[
				-1.5655947208870202e-05,
				-3.533065319061279e-05,
				-5.36959087185096e-05
			]
		},
		{
			"children":[
				4
			],
			"name":"0b083fd985ab41a9a93810c07fe418b2.fbx",
			"rotation":[
				0.70710688829422,
				0,
				0,
				0.7071066498756409
			],
			"scale":[
				0.010000000707805157,
				0.010000001639127731,
				0.010000001639127731
			]
		},
		{
			"children":[
				5
			],
			"name":"Sketchfab_model.002",
			"rotation":[
				-0.5320183038711548,
				-0.465785950422287,
				0.465785950422287,
				0.53201824426651
			],
			"scale":[
				1.5767250061035156,
				1.5767251253128052,
				1.5767250061035156
			],
			"translation":[
				-14.747645378112793,
				3.1707985401153564,
				-7.661569595336914
			]
		},
		{
			"mesh":2,
			"name":"Plane.007",
			"rotation":[
				-0.5144638419151306,
				0.5144638419151306,
				-0.48510515689849854,
				0.48510509729385376
			],
			"scale":[
				0.7570790648460388,
				4.965706825256348,
				4.720320701599121
			],
			"translation":[
				-14.58572006225586,
				-2.1124656200408936,
				-6.280780792236328
			]
		},
		{
			"mesh":3,
			"name":"Text.006",
			"rotation":[
				0.6712220907211304,
				0,
				0,
				0.7412562966346741
			],
			"scale":[
				1.3427927494049072,
				1.3427925109863281,
				1.3427925109863281
			],
			"translation":[
				-19.496763229370117,
				-2.5260322093963623,
				-5.882822036743164
			]
		}
	],
	"materials":[
		{
			"doubleSided":true,
			"name":"Material.001",
			"pbrMetallicRoughness":{
				"baseColorFactor":[
					0.002283533103764057,
					0.11557994037866592,
					0.0034863129258155823,
					1
				],
				"metallicFactor":0,
				"roughnessFactor":0.5
			}
		},
		{
			"doubleSided":true,
			"name":"Material.048",
			"pbrMetallicRoughness":{
				"baseColorFactor":[
					0.800000011920929,
					0.800000011920929,
					0.800000011920929,
					1
				],
				"metallicFactor":0,
				"roughnessFactor":0.5
			}
		},
		{
			"doubleSided":true,
			"name":"Material.006",
			"pbrMetallicRoughness":{
				"baseColorFactor":[
					0,
					0,
					0,
					1
				],
				"metallicFactor":0,
				"roughnessFactor":0.5
			}
		}
	],
	"meshes":[
		{
			"name":"pSphere3_lambert2_0.001",
			"primitives":[
				{
					"attributes":{
						"POSITION":0,
						"NORMAL":1,
						"TEXCOORD_0":2
					},
					"indices":3,
					"material":0
				}
			]
		},
		{
			"name":"thumb down_Color - Skin Hand_0",
			"primitives":[
				{
					"attributes":{
						"POSITION":4,
						"NORMAL":5,
						"TEXCOORD_0":6
					},
					"indices":7,
					"material":0
				}
			]
		},
		{
			"name":"Plane.008",
			"primitives":[
				{
					"attributes":{
						"POSITION":8,
						"NORMAL":9,
						"TEXCOORD_0":10
					},
					"indices":11,
					"material":1
				}
			]
		},
		{
			"name":"Text.006",
			"primitives":[
				{
					"attributes":{
						"POSITION":12,
						"NORMAL":13,
						"TEXCOORD_0":14
					},
					"indices":15,
					"material":2
				}
			]
		}
	],
	"accessors":[
		{
			"bufferView":0,
			"componentType":5126,
			"count":906,
			"max":[
				7.239368915557861,
				14.23243522644043,
				3.6193411350250244
			],
			"min":[
				-7.1458234786987305,
				-0.04672085493803024,
				-3.342668056488037
			],
			"type":"VEC3"
		},
		{
			"bufferView":1,
			"componentType":5126,
			"count":906,
			"type":"VEC3"
		},
		{
			"bufferView":2,
			"componentType":5126,
			"count":906,
			"type":"VEC2"
		},
		{
			"bufferView":3,
			"componentType":5123,
			"count":3957,
			"type":"SCALAR"
		},
		{
			"bufferView":4,
			"componentType":5126,
			"count":900,
			"max":[
				1.0887000560760498,
				0.6145930290222168,
				0.9629021883010864
			],
			"min":[
				-0.5133571028709412,
				-0.5806175470352173,
				-0.9907240271568298
			],
			"type":"VEC3"
		},
		{
			"bufferView":5,
			"componentType":5126,
			"count":900,
			"type":"VEC3"
		},
		{
			"bufferView":6,
			"componentType":5126,
			"count":900,
			"type":"VEC2"
		},
		{
			"bufferView":7,
			"componentType":5123,
			"count":3759,
			"type":"SCALAR"
		},
		{
			"bufferView":8,
			"componentType":5126,
			"count":4,
			"max":[
				1,
				0,
				1
			],
			"min":[
				-1,
				0,
				-1
			],
			"type":"VEC3"
		},
		{
			"bufferView":9,
			"componentType":5126,
			"count":4,
			"type":"VEC3"
		},
		{
			"bufferView":10,
			"componentType":5126,
			"count":4,
			"type":"VEC2"
		},
		{
			"bufferView":11,
			"componentType":5123,
			"count":6,
			"type":"SCALAR"
		},
		{
			"bufferView":12,
			"componentType":5126,
			"count":3340,
			"max":[
				6.241001129150391,
				0.040000006556510925,
				0.23000000417232513
			],
			"min":[
				0.9040001034736633,
				-0.040000006556510925,
				-0.6820000410079956
			],
			"type":"VEC3"
		},
		{
			"bufferView":13,
			"componentType":5126,
			"count":3340,
			"type":"VEC3"
		},
		{
			"bufferView":14,
			"componentType":5126,
			"count":3340,
			"type":"VEC2"
		},
		{
			"bufferView":15,
			"componentType":5123,
			"count":9840,
			"type":"SCALAR"
		}
	],
	"bufferViews":[
		{
			"buffer":0,
			"byteLength":10872,
			"byteOffset":0,
			"target":34962
		},
		{
			"buffer":0,
			"byteLength":10872,
			"byteOffset":10872,
			"target":34962
		},
		{
			"buffer":0,
			"byteLength":7248,
			"byteOffset":21744,
			"target":34962
		},
		{
			"buffer":0,
			"byteLength":7914,
			"byteOffset":28992,
			"target":34963
		},
		{
			"buffer":0,
			"byteLength":10800,
			"byteOffset":36908,
			"target":34962
		},
		{
			"buffer":0,
			"byteLength":10800,
			"byteOffset":47708,
			"target":34962
		},
		{
			"buffer":0,
			"byteLength":7200,
			"byteOffset":58508,
			"target":34962
		},
		{
			"buffer":0,
			"byteLength":7518,
			"byteOffset":65708,
			"target":34963
		},
		{
			"buffer":0,
			"byteLength":48,
			"byteOffset":73228,
			"target":34962
		},
		{
			"buffer":0,
			"byteLength":48,
			"byteOffset":73276,
			"target":34962
		},
		{
			"buffer":0,
			"byteLength":32,
			"byteOffset":73324,
			"target":34962
		},
		{
			"buffer":0,
			"byteLength":12,
			"byteOffset":73356,
			"target":34963
		},
		{
			"buffer":0,
			"byteLength":40080,
			"byteOffset":73368,
			"target":34962
		},
		{
			"buffer":0,
			"byteLength":40080,
			"byteOffset":113448,
			"target":34962
		},
		{
			"buffer":0,
			"byteLength":26720,
			"byteOffset":153528,
			"target":34962
		},
		{
			"buffer":0,
			"byteLength":19680,
			"byteOffset":180248,
			"target":34963
		}
	],
	"buffers":[
		{
			"byteLength":199928,
			"uri":"hydra.bin"
		}
	]
}
