{
	"asset":{
		"generator":"Khronos glTF Blender I/O v3.6.27",
		"version":"2.0"
	},
	"scene":0,
	"scenes":[
		{
			"name":"Scene",
			"nodes":[
				0,
				1,
				5,
				9,
				10,
				11,
				15,
				16,
				17
			]
		}
	],
	"nodes":[
		{
			"mesh":0,
			"name":"Object_7.004",
			"rotation":[
				0.9997564554214478,
				0,
				0,
				0.02206972800195217
			],
			"translation":[
				15.694111824035645,
				14.915817260742188,
				-2.617724895477295
			]
		},
		{
			"name":"ikHandle6.004",
			"rotation":[
				0.38921576738357544,
				0.4589847922325134,
				0.5792214870452881,
				0.549860417842865
			],
			"translation":[
				15.413859367370605,
				1.1816554069519043,
				-1.843553066253662
			]
		},
		{
			"name":"thumb down.003",
			"rotation":[
				0,
				0.70710688829422,
				-0.7071066498756409,
				5.394798563429504e-08
			],
			"scale":[
				99.99998474121094,
				100.00000762939453,
				99.99998474121094
			],
			"translation":[
				2.9782970159430988e-05,
				1.0751113222795539e-05,
				-2.178131944674533e-05
			]
		},
		{
			"children":[
				2
			],
			"name":"RootNode.008",
			"translation":[
				2.9782970159430988e-05,
				1.0751113222795539e-05,
				-2.178131944674533e-05
			]
		},
		{
			"children":[
				3
			],
			"name":"0b083fd985ab41a9a93810c07fe418b2.fbx.003",
			"rotation":[
				0.70710688829422,
				0,
				0,
				0.7071066498756409
			],
			"scale":[
				0.010000000707805157,
				0.010000001639127731,
				0.010000001639127731
			]
		},
		{
			"children":[
				4
			],
			"name":"Sketchfab_model.008",
			"rotation":[
				-0.5320183038711548,
				-0.465785950422287,
				0.465785950422287,
				0.53201824426651
			],
			"scale":[
				1.5767250061035156,
				1.5767251253128052,
				1.5767250061035156
			],
			"translation":[
				16.23033905029297,
				3.9397311210632324,
				-2.0992445945739746
			]
		},
		{
			"name":"RootNode.009",
			"translation":[
				0,
				0,
				2.0352890715003014e-06
			]
		},
		{
			"children":[
				6
			],
			"name":"Object_2.005",
			"translation":[
				0,
				0,
				2.0352890715003014e-06
			]
		},
		{
			"children":[
				7
			],
			"name":"d8a2db999a694ae8840951555228c660.fbx.005",
			"rotation":[
				0.70710688829422,
				0,
				0,
				0.7071066498756409
			],
			"translation":[
				3.069639205932617e-06,
				0,
				0
			]
		},
		{
			"children":[
				8
			],
			"name":"Sketchfab_model.009",
			"rotation":[
				-0.26202064752578735,
				0.9602336883544922,
				0.025381848216056824,
				0.09301749616861343
			],
			"scale":[
				0.2981110215187073,
				0.2981109023094177,
				0.2981110215187073
			],
			"translation":[
				17.4246768951416,
				2.7584006786346436,
				0.31647801399230957
			]
		},
		{
			"mesh":1,
			"name":"Object_7.005",
			"rotation":[
				0.8680983781814575,
				-0.49590134620666504,
				-0.010947073809802532,
				0.019163358956575394
			],
			"scale":[
				0.2981109023094177,
				0.2981109917163849,
				0.2981109917163849
			],
			"translation":[
				20.45087432861328,
				5.4887309074401855,
				-1.8513519763946533
			]
		},
		{
			"name":"ikHandle6.005",
			"rotation":[
				0.5656265020370483,
				0.2054813653230667,
				0.2302006036043167,
				0.7647560238838196
			],
			"scale":[
				0.2981109619140625,
				0.29811087250709534,
				0.2981109023094177
			],
			"translation":[
				16.59225082397461,
				2.9888229370117188,
				-1.6205627918243408
			]
		},
		{
			"name":"thumb down.004",
			"rotation":[
				0,
				0.70710688829422,
				-0.7071066498756409,
				4.046098212029392e-08
			],
			"scale":[
				99.99999237060547,
				100,
				99.99999237060547
			],
			"translation":[
				0.00038409727858379483,
				-6.221737749001477e-06,
				-2.4640141418785788e-05
			]
		},
		{
			"children":[
				12
			],
			"name":"RootNode.010",
			"translation":[
				0.00038409727858379483,
				-6.221737749001477e-06,
				-2.4640141418785788e-05
			]
		},
		{
			"children":[
				13
			],
			"name":"0b083fd985ab41a9a93810c07fe418b2.fbx.004",
			"rotation":[
				0.70710688829422,
				0,
				0,
				0.7071066498756409
			],
			"scale":[
				0.009999999776482582,
				0.010000000707805157,
				0.009999999776482582
			],
			"translation":[
				-2.2053222892282065e-06,
				0,
				0
			]
		},
		{
			"children":[
				14
			],
			"name":"Sketchfab_model.010",
			"rotation":[
				-0.6929969191551208,
				-0.14055366814136505,
				0.14055365324020386,
				0.6929968595504761
			],
			"scale":[
				0.47003889083862305,
				0.4700389504432678,
				0.47003892064094543
			],
			"translation":[
				17.424135208129883,
				3.19677734375,
				-1.6967873573303223
			]
		},
		{
			"mesh":2,
			"name":"Plane.008",
			"rotation":[
				-0.5144638419151306,
				0.5144638419151306,
				-0.48510515689849854,
				0.48510506749153137
			],
			"scale":[
				0.7570790648460388,
				4.966681480407715,
				3.3311500549316406
			],
			"translation":[
				16.370525360107422,
				-1.304638385772705,
				-1.140807867050171
			]
		},
		{
			"mesh":3,
			"name":"Text.008",
			"rotation":[
				0.6712220907211304,
				0,
				0,
				0.7412562966346741
			],
			"scale":[
				1.3427927494049072,
				1.3427925109863281,
				1.3427925109863281
			],
			"translation":[
				12.760591506958008,
				-1.7182049751281738,
				-0.7428491115570068
			]
		}
	],
	"materials":[
		{
			"doubleSided":true,
			"name":"Material.001",
			"pbrMetallicRoughness":{
				"baseColorFactor":[
					0.002283533103764057,
					0.11557994037866592,
					0.0034863129258155823,
					1
				],
				"metallicFactor":0,
				"roughnessFactor":0.5
			}
		},
		{
			"doubleSided":true,
			"name":"Material.048",
			"pbrMetallicRoughness":{
				"baseColorFactor":[
					0.800000011920929,
					0.800000011920929,
					0.800000011920929,
					1
				],
				"metallicFactor":0,
				"roughnessFactor":0.5
			}
		},
		{
			"doubleSided":true,
			"name":"Material.006",
			"pbrMetallicRoughness":{
				"baseColorFactor":[
					0,
					0,
					0,
					1
				],
				"metallicFactor":0,
				"roughnessFactor":0.5
			}
		}
	],
	"meshes":[
		{
			"name":"pSphere3_lambert2_0.004",
			"primitives":[
				{
					"attributes":{
						"POSITION":0,
						"NORMAL":1,
						"TEXCOORD_0":2
					},
					"indices":3,
					"material":0
				}
			]
		},
		{
			"name":"pSphere3_lambert2_0.005",
			"primitives":[
				{
					"attributes":{
						"POSITION":4,
						"NORMAL":5,
						"TEXCOORD_0":6
					},
					"indices":3,
					"material":0
				}
			]
		},
		{
			"name":"Plane.010",
			"primitives":[
				{
					"attributes":{
						"POSITION":7,
						"NORMAL":8,
						"TEXCOORD_0":9
					},
					"indices":10,
					"material":1
				}
			]
		},
		{
			"name":"Text.008",
			"primitives":[
				{
					"attributes":{
						"POSITION":11,
						"NORMAL":12,
						"TEXCOORD_0":13
					},
					"indices":14,
					"material":2
				}
			]
		}
	],
	"accessors":[
		{
			"bufferView":0,
			"componentType":5126,
			"count":906,
			"max":[
				7.239368915557861,
				14.23243522644043,
				3.6193411350250244
			],
			"min":[
				-7.1458234786987305,
				-0.04672085493803024,
				-3.342668056488037
			],
			"type":"VEC3"
		},
		{
			"bufferView":1,
			"componentType":5126,
			"count":906,
			"type":"VEC3"
		},
		{
			"bufferView":2,
			"componentType":5126,
			"count":906,
			"type":"VEC2"
		},
		{
			"bufferView":3,
			"componentType":5123,
			"count":3957,
			"type":"SCALAR"
		},
		{
			"bufferView":4,
			"componentType":5126,
			"count":906,
			"max":[
				7.239368915557861,
				14.23243522644043,
				3.6193411350250244
			],
			"min":[
				-7.1458234786987305,
				-0.04672085493803024,
				-3.342668056488037
			],
			"type":"VEC3"
		},
		{
			"bufferView":5,
			"componentType":5126,
			"count":906,
			"type":"VEC3"
		},
		{
			"bufferView":6,
			"componentType":5126,
			"count":906,
			"type":"VEC2"
		},
		{
			"bufferView":7,
			"componentType":5126,
			"count":4,
			"max":[
				1,
				0,
				1
			],
			"min":[
				-1,
				0,
				-1
			],
			"type":"VEC3"
		},
		{
			"bufferView":8,
			"componentType":5126,
			"count":4,
			"type":"VEC3"
		},
		{
			"bufferView":9,
			"componentType":5126,
			"count":4,
			"type":"VEC2"
		},
		{
			"bufferView":10,
			"componentType":5123,
			"count":6,
			"type":"SCALAR"
		},
		{
			"bufferView":11,
			"componentType":5126,
			"count":1468,
			"max":[
				4.6050004959106445,
				0.040000006556510925,
				0.009000000543892384
			],
			"min":[
				0.908000111579895,
				-0.040000006556510925,
				-0.6820000410079956
			],
			"type":"VEC3"
		},
		{
			"bufferView":12,
			"componentType":5126,
			"count":1468,
			"type":"VEC3"
		},
		{
			"bufferView":13,
			"componentType":5126,
			"count":1468,
			"type":"VEC2"
		},
		{
			"bufferView":14,
			"componentType":5123,
			"count":4320,
			"type":"SCALAR"
		}
	],
	"bufferViews":[
		{
			"buffer":0,
			"byteLength":10872,
			"byteOffset":0,
			"target":34962
		},
		{
			"buffer":0,
			"byteLength":10872,
			"byteOffset":10872,
			"target":34962
		},
		{
			"buffer":0,
			"byteLength":7248,
			"byteOffset":21744,
			"target":34962
		},
		{
			"buffer":0,
			"byteLength":7914,
			"byteOffset":28992,
			"target":34963
		},
		{
			"buffer":0,
			"byteLength":10872,
			"byteOffset":36908,
			"target":34962
		},
		{
			"buffer":0,
			"byteLength":10872,
			"byteOffset":47780,
			"target":34962
		},
		{
			"buffer":0,
			"byteLength":7248,
			"byteOffset":58652,
			"target":34962
		},
		{
			"buffer":0,
			"byteLength":48,
			"byteOffset":65900,
			"target":34962
		},
		{
			"buffer":0,
			"byteLength":48,
			"byteOffset":65948,
			"target":34962
		},
		{
			"buffer":0,
			"byteLength":32,
			"byteOffset":65996,
			"target":34962
		},
		{
			"buffer":0,
			"byteLength":12,
			"byteOffset":66028,
			"target":34963
		},
		{
			"buffer":0,
			"byteLength":17616,
			"byteOffset":66040,
			"target":34962
		},
		{
			"buffer":0,
			"byteLength":17616,
			"byteOffset":83656,
			"target":34962
		},
		{
			"buffer":0,
			"byteLength":11744,
			"byteOffset":101272,
			"target":34962
		},
		{
			"buffer":0,
			"byteLength":8640,
			"byteOffset":113016,
			"target":34963
		}
	],
	"buffers":[
		{
			"byteLength":121656,
			"uri":"newbud.bin"
		}
	]
}
