{
	"asset":{
		"generator":"Khronos glTF Blender I/O v3.6.27",
		"version":"2.0"
	},
	"scene":0,
	"scenes":[
		{
			"name":"Scene",
			"nodes":[
				0,
				4,
				8,
				9,
				10,
				14,
				15,
				16
			]
		}
	],
	"nodes":[
		{
			"mesh":0,
			"name":"Object_7.006",
			"rotation":[
				0.9997564554214478,
				0,
				0,
				0.02206972800195217
			],
			"translation":[
				29.475114822387695,
				12.514352798461914,
				-1.812354326248169
			]
		},
		{
			"name":"thumb down.005",
			"rotation":[
				0,
				0.70710688829422,
				-0.7071066498756409,
				5.394798563429504e-08
			],
			"scale":[
				99.99998474121094,
				100.00000762939453,
				99.99998474121094
			],
			"translation":[
				3.946958895539865e-05,
				6.646203837590292e-05,
				-7.866014129831456e-06
			]
		},
		{
			"children":[
				1
			],
			"name":"RootNode.012",
			"translation":[
				3.946958895539865e-05,
				6.646203837590292e-05,
				-7.866014129831456e-06
			]
		},
		{
			"children":[
				2
			],
			"name":"0b083fd985ab41a9a93810c07fe418b2.fbx.005",
			"rotation":[
				0.70710688829422,
				0,
				0,
				0.7071066498756409
			],
			"scale":[
				0.010000000707805157,
				0.010000001639127731,
				0.010000001639127731
			]
		},
		{
			"children":[
				3
			],
			"name":"Sketchfab_model.012",
			"rotation":[
				-0.5320183038711548,
				-0.465785950422287,
				0.465785950422287,
				0.53201824426651
			],
			"scale":[
				1.5767250061035156,
				1.5767251253128052,
				1.5767250061035156
			],
			"translation":[
				30.011341094970703,
				1.5382661819458008,
				-1.2938740253448486
			]
		},
		{
			"name":"RootNode.013",
			"translation":[
				2.562999725341797e-06,
				0,
				2.1224518604867626e-06
			]
		},
		{
			"children":[
				5
			],
			"name":"Object_2.007",
			"translation":[
				2.562999725341797e-06,
				0,
				2.1224518604867626e-06
			]
		},
		{
			"children":[
				6
			],
			"name":"d8a2db999a694ae8840951555228c660.fbx.007",
			"rotation":[
				0.70710688829422,
				0,
				0,
				0.7071066498756409
			],
			"translation":[
				1.0192394256591797e-05,
				0,
				0
			]
		},
		{
			"children":[
				7
			],
			"name":"Sketchfab_model.013",
			"rotation":[
				-0.26202064752578735,
				0.9602336883544922,
				0.025381848216056824,
				0.09301749616861343
			],
			"scale":[
				0.2981110215187073,
				0.2981109023094177,
				0.2981110215187073
			],
			"translation":[
				31.20568084716797,
				0.3569357395172119,
				1.1218483448028564
			]
		},
		{
			"mesh":1,
			"name":"Object_7.007",
			"rotation":[
				0.8680983781814575,
				-0.49590134620666504,
				-0.010947073809802532,
				0.019163358956575394
			],
			"scale":[
				0.2981109023094177,
				0.2981109917163849,
				0.2981109917163849
			],
			"translation":[
				37.56951141357422,
				5.159977912902832,
				-1.4462428092956543
			]
		},
		{
			"name":"ikHandle6.007",
			"rotation":[
				0.5656265020370483,
				0.2054813653230667,
				0.2302006036043167,
				0.7647560238838196
			],
			"scale":[
				0.2981109619140625,
				0.29811087250709534,
				0.2981109023094177
			],
			"translation":[
				30.373252868652344,
				0.5873579978942871,
				-0.8151922225952148
			]
		},
		{
			"name":"thumb down.006",
			"rotation":[
				0,
				0.70710688829422,
				-0.7071066498756409,
				4.046098212029392e-08
			],
			"scale":[
				99.99999237060547,
				100,
				99.99999237060547
			],
			"translation":[
				0.0002230197424069047,
				0.0002866483700927347,
				-2.8309250410529785e-05
			]
		},
		{
			"children":[
				11
			],
			"name":"RootNode.014",
			"translation":[
				0.0002230197424069047,
				0.0002866483700927347,
				-2.8309250410529785e-05
			]
		},
		{
			"children":[
				12
			],
			"name":"0b083fd985ab41a9a93810c07fe418b2.fbx.006",
			"rotation":[
				0.70710688829422,
				0,
				0,
				0.7071066498756409
			],
			"scale":[
				0.009999999776482582,
				0.010000000707805157,
				0.009999999776482582
			],
			"translation":[
				-2.4094281343423063e-06,
				0,
				0
			]
		},
		{
			"children":[
				13
			],
			"name":"Sketchfab_model.014",
			"rotation":[
				-0.6929969191551208,
				-0.14055366814136505,
				0.14055365324020386,
				0.6929968595504761
			],
			"scale":[
				0.47003889083862305,
				0.4700389504432678,
				0.47003892064094543
			],
			"translation":[
				31.20513916015625,
				0.7953124046325684,
				-0.8914167881011963
			]
		},
		{
			"mesh":2,
			"name":"Plane.009",
			"rotation":[
				-0.5144638419151306,
				0.5144638419151306,
				-0.48510512709617615,
				0.48510506749153137
			],
			"scale":[
				0.7570790648460388,
				4.970727443695068,
				4.040958404541016
			],
			"translation":[
				31.075057983398438,
				-4.081879615783691,
				-2.30666446685791
			]
		},
		{
			"mesh":3,
			"name":"Text.009",
			"rotation":[
				0.6712220907211304,
				0,
				0,
				0.7412562966346741
			],
			"scale":[
				1.3427927494049072,
				1.3427925109863281,
				1.3427925109863281
			],
			"translation":[
				26.797338485717773,
				-4.49544620513916,
				-1.908705711364746
			]
		}
	],
	"materials":[
		{
			"doubleSided":true,
			"name":"Material.001",
			"pbrMetallicRoughness":{
				"baseColorFactor":[
					0.002283533103764057,
					0.11557994037866592,
					0.0034863129258155823,
					1
				],
				"metallicFactor":0,
				"roughnessFactor":0.5
			}
		},
		{
			"doubleSided":true,
			"name":"Material.048",
			"pbrMetallicRoughness":{
				"baseColorFactor":[
					0.800000011920929,
					0.800000011920929,
					0.800000011920929,
					1
				],
				"metallicFactor":0,
				"roughnessFactor":0.5
			}
		},
		{
			"doubleSided":true,
			"name":"Material.006",
			"pbrMetallicRoughness":{
				"baseColorFactor":[
					0,
					0,
					0,
					1
				],
				"metallicFactor":0,
				"roughnessFactor":0.5
			}
		}
	],
	"meshes":[
		{
			"name":"pSphere3_lambert2_0.006",
			"primitives":[
				{
					"attributes":{
						"POSITION":0,
						"NORMAL":1,
						"TEXCOORD_0":2
					},
					"indices":3,
					"material":0
				}
			]
		},
		{
			"name":"pSphere3_lambert2_0.007",
			"primitives":[
				{
					"attributes":{
						"POSITION":4,
						"NORMAL":5,
						"TEXCOORD_0":6
					},
					"indices":3,
					"material":0
				}
			]
		},
		{
			"name":"Plane.011",
			"primitives":[
				{
					"attributes":{
						"POSITION":7,
						"NORMAL":8,
						"TEXCOORD_0":9
					},
					"indices":10,
					"material":1
				}
			]
		},
		{
			"name":"Text.009",
			"primitives":[
				{
					"attributes":{
						"POSITION":11,
						"NORMAL":12,
						"TEXCOORD_0":13
					},
					"indices":14,
					"material":2
				}
			]
		}
	],
	"accessors":[
		{
			"bufferView":0,
			"componentType":5126,
			"count":906,
			"max":[
				7.239368915557861,
				14.23243522644043,
				3.6193411350250244
			],
			"min":[
				-7.1458234786987305,
				-0.04672085493803024,
				-3.342668056488037
			],
			"type":"VEC3"
		},
		{
			"bufferView":1,
			"componentType":5126,
			"count":906,
			"type":"VEC3"
		},
		{
			"bufferView":2,
			"componentType":5126,
			"count":906,
			"type":"VEC2"
		},
		{
			"bufferView":3,
			"componentType":5123,
			"count":3957,
			"type":"SCALAR"
		},
		{
			"bufferView":4,
			"componentType":5126,
			"count":906,
			"max":[
				7.239368915557861,
				14.23243522644043,
				3.6193411350250244
			],
			"min":[
				-7.1458234786987305,
				-0.04672085493803024,
				-3.342668056488037
			],
			"type":"VEC3"
		},
		{
			"bufferView":5,
			"componentType":5126,
			"count":906,
			"type":"VEC3"
		},
		{
			"bufferView":6,
			"componentType":5126,
			"count":906,
			"type":"VEC2"
		},
		{
			"bufferView":7,
			"componentType":5126,
			"count":4,
			"max":[
				1,
				0,
				1
			],
			"min":[
				-1,
				0,
				-1
			],
			"type":"VEC3"
		},
		{
			"bufferView":8,
			"componentType":5126,
			"count":4,
			"type":"VEC3"
		},
		{
			"bufferView":9,
			"componentType":5126,
			"count":4,
			"type":"VEC2"
		},
		{
			"bufferView":10,
			"componentType":5123,
			"count":6,
			"type":"SCALAR"
		},
		{
			"bufferView":11,
			"componentType":5126,
			"count":1818,
			"max":[
				5.575000762939453,
				0.040000006556510925,
				0.23000000417232513
			],
			"min":[
				0.908000111579895,
				-0.040000006556510925,
				-0.6820000410079956
			],
			"type":"VEC3"
		},
		{
			"bufferView":12,
			"componentType":5126,
			"count":1818,
			"type":"VEC3"
		},
		{
			"bufferView":13,
			"componentType":5126,
			"count":1818,
			"type":"VEC2"
		},
		{
			"bufferView":14,
			"componentType":5123,
			"count":5328,
			"type":"SCALAR"
		}
	],
	"bufferViews":[
		{
			"buffer":0,
			"byteLength":10872,
			"byteOffset":0,
			"target":34962
		},
		{
			"buffer":0,
			"byteLength":10872,
			"byteOffset":10872,
			"target":34962
		},
		{
			"buffer":0,
			"byteLength":7248,
			"byteOffset":21744,
			"target":34962
		},
		{
			"buffer":0,
			"byteLength":7914,
			"byteOffset":28992,
			"target":34963
		},
		{
			"buffer":0,
			"byteLength":10872,
			"byteOffset":36908,
			"target":34962
		},
		{
			"buffer":0,
			"byteLength":10872,
			"byteOffset":47780,
			"target":34962
		},
		{
			"buffer":0,
			"byteLength":7248,
			"byteOffset":58652,
			"target":34962
		},
		{
			"buffer":0,
			"byteLength":48,
			"byteOffset":65900,
			"target":34962
		},
		{
			"buffer":0,
			"byteLength":48,
			"byteOffset":65948,
			"target":34962
		},
		{
			"buffer":0,
			"byteLength":32,
			"byteOffset":65996,
			"target":34962
		},
		{
			"buffer":0,
			"byteLength":12,
			"byteOffset":66028,
			"target":34963
		},
		{
			"buffer":0,
			"byteLength":21816,
			"byteOffset":66040,
			"target":34962
		},
		{
			"buffer":0,
			"byteLength":21816,
			"byteOffset":87856,
			"target":34962
		},
		{
			"buffer":0,
			"byteLength":14544,
			"byteOffset":109672,
			"target":34962
		},
		{
			"buffer":0,
			"byteLength":10656,
			"byteOffset":124216,
			"target":34963
		}
	],
	"buffers":[
		{
			"byteLength":134872,
			"uri":"newhydra.bin"
		}
	]
}
