{
	"asset":{
		"generator":"Khronos glTF Blender I/O v3.6.27",
		"version":"2.0"
	},
	"scene":0,
	"scenes":[
		{
			"name":"Scene",
			"nodes":[
				0,
				1,
				2
			]
		}
	],
	"nodes":[
		{
			"mesh":0,
			"name":"VisualMaterial0.001",
			"scale":[
				2.8063673973083496,
				2.806368112564087,
				2.806368112564087
			],
			"translation":[
				24.352046966552734,
				0,
				-22.61260414123535
			]
		},
		{
			"mesh":1,
			"name":"VisualMaterial10.001",
			"scale":[
				2.8063673973083496,
				2.806368112564087,
				2.806368112564087
			],
			"translation":[
				24.352046966552734,
				0,
				-22.61260414123535
			]
		},
		{
			"mesh":2,
			"name":"VisualMaterial20",
			"scale":[
				2.8063673973083496,
				2.806368112564087,
				2.806368112564087
			],
			"translation":[
				24.352046966552734,
				0,
				-22.61260414123535
			]
		}
	],
	"materials":[
		{
			"doubleSided":true,
			"name":"mesh_0.004",
			"pbrMetallicRoughness":{
				"baseColorTexture":{
					"index":0
				},
				"metallicFactor":0
			}
		},
		{
			"doubleSided":true,
			"name":"mesh_1.004",
			"pbrMetallicRoughness":{
				"baseColorTexture":{
					"index":1
				},
				"metallicFactor":0
			}
		},
		{
			"doubleSided":true,
			"name":"mesh_2.003",
			"pbrMetallicRoughness":{
				"baseColorTexture":{
					"index":2
				},
				"metallicFactor":0
			}
		}
	],
	"meshes":[
		{
			"name":"VisualMaterial0.001",
			"primitives":[
				{
					"attributes":{
						"POSITION":0,
						"NORMAL":1,
						"TEXCOORD_0":2
					},
					"indices":3,
					"material":0
				}
			]
		},
		{
			"name":"VisualMaterial10.001",
			"primitives":[
				{
					"attributes":{
						"POSITION":4,
						"NORMAL":5,
						"TEXCOORD_0":6
					},
					"indices":7,
					"material":1
				}
			]
		},
		{
			"name":"VisualMaterial20",
			"primitives":[
				{
					"attributes":{
						"POSITION":8,
						"NORMAL":9,
						"TEXCOORD_0":10
					},
					"indices":11,
					"material":2
				}
			]
		}
	],
	"textures":[
		{
			"sampler":0,
			"source":0
		},
		{
			"sampler":0,
			"source":1
		},
		{
			"sampler":0,
			"source":2
		}
	],
	"images":[
		{
			"mimeType":"image/png",
			"name":"mesh_0_baseColor",
			"uri":"mesh_0_baseColor.png"
		},
		{
			"mimeType":"image/png",
			"name":"mesh_1_baseColor",
			"uri":"mesh_1_baseColor.png"
		},
		{
			"mimeType":"image/png",
			"name":"mesh_2_baseColor",
			"uri":"mesh_2_baseColor.png"
		}
	],
	"accessors":[
		{
			"bufferView":0,
			"componentType":5126,
			"count":1807,
			"max":[
				2.478830099105835,
				5.219850063323975,
				0.4382840096950531
			],
			"min":[
				-2.478830099105835,
				0.004526000004261732,
				-1.6116900444030762
			],
			"type":"VEC3"
		},
		{
			"bufferView":1,
			"componentType":5126,
			"count":1807,
			"type":"VEC3"
		},
		{
			"bufferView":2,
			"componentType":5126,
			"count":1807,
			"type":"VEC2"
		},
		{
			"bufferView":3,
			"componentType":5123,
			"count":7662,
			"type":"SCALAR"
		},
		{
			"bufferView":4,
			"componentType":5126,
			"count":1363,
			"max":[
				2.9562299251556396,
				4.448180198669434,
				0.24912099540233612
			],
			"min":[
				-2.9562299251556396,
				3.414289951324463,
				-0.19064100086688995
			],
			"type":"VEC3"
		},
		{
			"bufferView":5,
			"componentType":5126,
			"count":1363,
			"type":"VEC3"
		},
		{
			"bufferView":6,
			"componentType":5126,
			"count":1363,
			"type":"VEC2"
		},
		{
			"bufferView":7,
			"componentType":5123,
			"count":6114,
			"type":"SCALAR"
		},
		{
			"bufferView":8,
			"componentType":5126,
			"count":21,
			"max":[
				0.36727800965309143,
				3.6232199668884277,
				0.4429199993610382
			],
			"min":[
				-0.8531439900398254,
				3.1503100395202637,
				0.025676000863313675
			],
			"type":"VEC3"
		},
		{
			"bufferView":9,
			"componentType":5126,
			"count":21,
			"type":"VEC3"
		},
		{
			"bufferView":10,
			"componentType":5126,
			"count":21,
			"type":"VEC2"
		},
		{
			"bufferView":11,
			"componentType":5123,
			"count":60,
			"type":"SCALAR"
		}
	],
	"bufferViews":[
		{
			"buffer":0,
			"byteLength":21684,
			"byteOffset":0,
			"target":34962
		},
		{
			"buffer":0,
			"byteLength":21684,
			"byteOffset":21684,
			"target":34962
		},
		{
			"buffer":0,
			"byteLength":14456,
			"byteOffset":43368,
			"target":34962
		},
		{
			"buffer":0,
			"byteLength":15324,
			"byteOffset":57824,
			"target":34963
		},
		{
			"buffer":0,
			"byteLength":16356,
			"byteOffset":73148,
			"target":34962
		},
		{
			"buffer":0,
			"byteLength":16356,
			"byteOffset":89504,
			"target":34962
		},
		{
			"buffer":0,
			"byteLength":10904,
			"byteOffset":105860,
			"target":34962
		},
		{
			"buffer":0,
			"byteLength":12228,
			"byteOffset":116764,
			"target":34963
		},
		{
			"buffer":0,
			"byteLength":252,
			"byteOffset":128992,
			"target":34962
		},
		{
			"buffer":0,
			"byteLength":252,
			"byteOffset":129244,
			"target":34962
		},
		{
			"buffer":0,
			"byteLength":168,
			"byteOffset":129496,
			"target":34962
		},
		{
			"buffer":0,
			"byteLength":120,
			"byteOffset":129664,
			"target":34963
		}
	],
	"samplers":[
		{
			"magFilter":9729,
			"minFilter":9987
		}
	],
	"buffers":[
		{
			"byteLength":129784,
			"uri":"ratman.bin"
		}
	]
}
