{
	"asset":{
		"generator":"Khronos glTF Blender I/O v3.6.27",
		"version":"2.0"
	},
	"scene":0,
	"scenes":[
		{
			"name":"Scene",
			"nodes":[
				0
			]
		}
	],
	"nodes":[
		{
			"mesh":0,
			"name":"Text.010",
			"rotation":[
				0.7071068286895752,
				0,
				0,
				0.7071068286895752
			],
			"scale":[
				0.011089053936302662,
				0.02460140734910965,
				0.013473319821059704
			],
			"translation":[
				0.12549760937690735,
				0.012845414690673351,
				0.04534444212913513
			]
		}
	],
	"materials":[
		{
			"doubleSided":true,
			"name":"black plastic.012",
			"pbrMetallicRoughness":{
				"baseColorFactor":[
					0.0056046294048428535,
					0.0056046294048428535,
					0.0056046294048428535,
					1
				],
				"metallicFactor":0,
				"roughnessFactor":0.6166667342185974
			}
		}
	],
	"meshes":[
		{
			"name":"Text.010",
			"primitives":[
				{
					"attributes":{
						"POSITION":0,
						"NORMAL":1,
						"TEXCOORD_0":2
					},
					"indices":3,
					"material":0
				}
			]
		}
	],
	"accessors":[
		{
			"bufferView":0,
			"componentType":5126,
			"count":1018,
			"max":[
				2.1590001583099365,
				0.010000000707805157,
				0.009000000543892384
			],
			"min":[
				0.07500000298023224,
				-0.010000000707805157,
				-0.6910000443458557
			],
			"type":"VEC3"
		},
		{
			"bufferView":1,
			"componentType":5126,
			"count":1018,
			"type":"VEC3"
		},
		{
			"bufferView":2,
			"componentType":5126,
			"count":1018,
			"type":"VEC2"
		},
		{
			"bufferView":3,
			"componentType":5123,
			"count":3000,
			"type":"SCALAR"
		}
	],
	"bufferViews":[
		{
			"buffer":0,
			"byteLength":12216,
			"byteOffset":0,
			"target":34962
		},
		{
			"buffer":0,
			"byteLength":12216,
			"byteOffset":12216,
			"target":34962
		},
		{
			"buffer":0,
			"byteLength":8144,
			"byteOffset":24432,
			"target":34962
		},
		{
			"buffer":0,
			"byteLength":6000,
			"byteOffset":32576,
			"target":34963
		}
	],
	"buffers":[
		{
			"byteLength":38576,
			"uri":"text.bin"
		}
	]
}
