{
	"asset":{
		"generator":"Khronos glTF Blender I/O v3.6.27",
		"version":"2.0"
	},
	"scene":0,
	"scenes":[
		{
			"name":"Scene",
			"nodes":[
				0,
				1,
				2
			]
		}
	],
	"nodes":[
		{
			"mesh":0,
			"name":"Cube.003",
			"scale":[
				1.6701287031173706,
				0.38192975521087646,
				0.10566527396440506
			],
			"translation":[
				2.5324363708496094,
				1.4314652681350708,
				0.7007058262825012
			]
		},
		{
			"mesh":1,
			"name":"Text.001",
			"rotation":[
				0.6848162412643433,
				0.002169007435441017,
				-0.011708746664226055,
				0.7286186218261719
			],
			"scale":[
				0.26361504197120667,
				0.09235488623380661,
				0.2633172273635864
			],
			"translation":[
				2.5243778228759766,
				1.5032684803009033,
				0.8519190549850464
			]
		},
		{
			"mesh":2,
			"name":"fertilization",
			"rotation":[
				0.7123896479606628,
				0,
				0,
				0.7017841339111328
			],
			"scale":[
				1.8807382583618164,
				1.880738615989685,
				1.880738615989685
			],
			"translation":[
				2.52242374420166,
				2.676727294921875,
				0.8074386119842529
			]
		}
	],
	"materials":[
		{
			"doubleSided":true,
			"name":"Material.002",
			"pbrMetallicRoughness":{
				"baseColorFactor":[
					0,
					0,
					0,
					1
				],
				"metallicFactor":0,
				"roughnessFactor":0.5
			}
		},
		{
			"alphaMode":"BLEND",
			"doubleSided":true,
			"name":"fertilization",
			"pbrMetallicRoughness":{
				"baseColorTexture":{
					"index":0
				},
				"metallicFactor":0,
				"roughnessFactor":0.5
			}
		}
	],
	"meshes":[
		{
			"name":"Cube.002",
			"primitives":[
				{
					"attributes":{
						"POSITION":0,
						"NORMAL":1,
						"TEXCOORD_0":2
					},
					"indices":3,
					"material":0
				}
			]
		},
		{
			"name":"Text.002",
			"primitives":[
				{
					"attributes":{
						"POSITION":4,
						"NORMAL":5,
						"TEXCOORD_0":6
					},
					"indices":7
				}
			]
		},
		{
			"name":"fertilization",
			"primitives":[
				{
					"attributes":{
						"POSITION":8,
						"NORMAL":9,
						"TEXCOORD_0":10
					},
					"indices":11,
					"material":1
				}
			]
		}
	],
	"textures":[
		{
			"sampler":0,
			"source":0
		}
	],
	"images":[
		{
			"mimeType":"image/png",
			"name":"fertilization",
			"uri":"fertilization.png"
		}
	],
	"accessors":[
		{
			"bufferView":0,
			"componentType":5126,
			"count":24,
			"max":[
				1,
				1,
				1
			],
			"min":[
				-1,
				-1,
				-1
			],
			"type":"VEC3"
		},
		{
			"bufferView":1,
			"componentType":5126,
			"count":24,
			"type":"VEC3"
		},
		{
			"bufferView":2,
			"componentType":5126,
			"count":24,
			"type":"VEC2"
		},
		{
			"bufferView":3,
			"componentType":5123,
			"count":36,
			"type":"SCALAR"
		},
		{
			"bufferView":4,
			"componentType":5126,
			"count":12207,
			"max":[
				5.2920002937316895,
				0.029999999329447746,
				1.2300000190734863
			],
			"min":[
				-5.554999828338623,
				-0.029999999329447746,
				-0.6940000057220459
			],
			"type":"VEC3"
		},
		{
			"bufferView":5,
			"componentType":5126,
			"count":12207,
			"type":"VEC3"
		},
		{
			"bufferView":6,
			"componentType":5126,
			"count":12207,
			"type":"VEC2"
		},
		{
			"bufferView":7,
			"componentType":5123,
			"count":35688,
			"type":"SCALAR"
		},
		{
			"bufferView":8,
			"componentType":5126,
			"count":4,
			"max":[
				0.8893035054206848,
				0,
				0.5
			],
			"min":[
				-0.8893035054206848,
				0,
				-0.5
			],
			"type":"VEC3"
		},
		{
			"bufferView":9,
			"componentType":5126,
			"count":4,
			"type":"VEC3"
		},
		{
			"bufferView":10,
			"componentType":5126,
			"count":4,
			"type":"VEC2"
		},
		{
			"bufferView":11,
			"componentType":5123,
			"count":6,
			"type":"SCALAR"
		}
	],
	"bufferViews":[
		{
			"buffer":0,
			"byteLength":288,
			"byteOffset":0,
			"target":34962
		},
		{
			"buffer":0,
			"byteLength":288,
			"byteOffset":288,
			"target":34962
		},
		{
			"buffer":0,
			"byteLength":192,
			"byteOffset":576,
			"target":34962
		},
		{
			"buffer":0,
			"byteLength":72,
			"byteOffset":768,
			"target":34963
		},
		{
			"buffer":0,
			"byteLength":146484,
			"byteOffset":840,
			"target":34962
		},
		{
			"buffer":0,
			"byteLength":146484,
			"byteOffset":147324,
			"target":34962
		},
		{
			"buffer":0,
			"byteLength":97656,
			"byteOffset":293808,
			"target":34962
		},
		{
			"buffer":0,
			"byteLength":71376,
			"byteOffset":391464,
			"target":34963
		},
		{
			"buffer":0,
			"byteLength":48,
			"byteOffset":462840,
			"target":34962
		},
		{
			"buffer":0,
			"byteLength":48,
			"byteOffset":462888,
			"target":34962
		},
		{
			"buffer":0,
			"byteLength":32,
			"byteOffset":462936,
			"target":34962
		},
		{
			"buffer":0,
			"byteLength":12,
			"byteOffset":462968,
			"target":34963
		}
	],
	"samplers":[
		{
			"magFilter":9729,
			"minFilter":9987,
			"wrapS":33071,
			"wrapT":33071
		}
	],
	"buffers":[
		{
			"byteLength":462980,
			"uri":"fertilization.bin"
		}
	]
}
