{
	"asset":{
		"generator":"Khronos glTF Blender I/O v3.6.27",
		"version":"2.0"
	},
	"scene":0,
	"scenes":[
		{
			"name":"Scene",
			"nodes":[
				0,
				1,
				2
			]
		}
	],
	"nodes":[
		{
			"mesh":0,
			"name":"Cube.008",
			"scale":[
				1.6701287031173706,
				0.38192975521087646,
				0.10566527396440506
			],
			"translation":[
				-5.372760772705078,
				1.4700044393539429,
				0.6689158082008362
			]
		},
		{
			"mesh":1,
			"name":"Text",
			"rotation":[
				0.6846909523010254,
				0.008405092172324657,
				-0.017569582909345627,
				0.7285733222961426
			],
			"scale":[
				0.26361507177352905,
				0.09235487878322601,
				0.2633172273635864
			],
			"translation":[
				-5.380819320678711,
				1.3789448738098145,
				0.8245435357093811
			]
		},
		{
			"mesh":2,
			"name":"Pollination2",
			"rotation":[
				0.7123896479606628,
				0,
				0,
				0.7017841935157776
			],
			"scale":[
				2.3474223613739014,
				2.3474225997924805,
				2.3474225997924805
			],
			"translation":[
				-5.3990325927734375,
				2.712264060974121,
				0.7256113290786743
			]
		}
	],
	"materials":[
		{
			"doubleSided":true,
			"name":"Material.002",
			"pbrMetallicRoughness":{
				"baseColorFactor":[
					0,
					0,
					0,
					1
				],
				"metallicFactor":0,
				"roughnessFactor":0.5
			}
		},
		{
			"alphaMode":"BLEND",
			"doubleSided":true,
			"name":"Pollination2",
			"pbrMetallicRoughness":{
				"baseColorTexture":{
					"index":0
				},
				"metallicFactor":0,
				"roughnessFactor":0.5
			}
		}
	],
	"meshes":[
		{
			"name":"Cube.008",
			"primitives":[
				{
					"attributes":{
						"POSITION":0,
						"NORMAL":1,
						"TEXCOORD_0":2
					},
					"indices":3,
					"material":0
				}
			]
		},
		{
			"name":"Text",
			"primitives":[
				{
					"attributes":{
						"POSITION":4,
						"NORMAL":5,
						"TEXCOORD_0":6
					},
					"indices":7
				}
			]
		},
		{
			"name":"Pollination2",
			"primitives":[
				{
					"attributes":{
						"POSITION":8,
						"NORMAL":9,
						"TEXCOORD_0":10
					},
					"indices":11,
					"material":1
				}
			]
		}
	],
	"textures":[
		{
			"sampler":0,
			"source":0
		}
	],
	"images":[
		{
			"mimeType":"image/png",
			"name":"Pollination2",
			"uri":"Pollination2.png"
		}
	],
	"accessors":[
		{
			"bufferView":0,
			"componentType":5126,
			"count":24,
			"max":[
				1,
				1,
				1
			],
			"min":[
				-1,
				-1,
				-1
			],
			"type":"VEC3"
		},
		{
			"bufferView":1,
			"componentType":5126,
			"count":24,
			"type":"VEC3"
		},
		{
			"bufferView":2,
			"componentType":5126,
			"count":24,
			"type":"VEC2"
		},
		{
			"bufferView":3,
			"componentType":5123,
			"count":36,
			"type":"SCALAR"
		},
		{
			"bufferView":4,
			"componentType":5126,
			"count":2862,
			"max":[
				2.064000129699707,
				0.029999999329447746,
				0.009000000543892384
			],
			"min":[
				-2.055000066757202,
				-0.029999999329447746,
				-0.6820000410079956
			],
			"type":"VEC3"
		},
		{
			"bufferView":5,
			"componentType":5126,
			"count":2862,
			"type":"VEC3"
		},
		{
			"bufferView":6,
			"componentType":5126,
			"count":2862,
			"type":"VEC2"
		},
		{
			"bufferView":7,
			"componentType":5123,
			"count":8364,
			"type":"SCALAR"
		},
		{
			"bufferView":8,
			"componentType":5126,
			"count":4,
			"max":[
				0.6555944085121155,
				0,
				0.5
			],
			"min":[
				-0.6555944085121155,
				0,
				-0.5
			],
			"type":"VEC3"
		},
		{
			"bufferView":9,
			"componentType":5126,
			"count":4,
			"type":"VEC3"
		},
		{
			"bufferView":10,
			"componentType":5126,
			"count":4,
			"type":"VEC2"
		},
		{
			"bufferView":11,
			"componentType":5123,
			"count":6,
			"type":"SCALAR"
		}
	],
	"bufferViews":[
		{
			"buffer":0,
			"byteLength":288,
			"byteOffset":0,
			"target":34962
		},
		{
			"buffer":0,
			"byteLength":288,
			"byteOffset":288,
			"target":34962
		},
		{
			"buffer":0,
			"byteLength":192,
			"byteOffset":576,
			"target":34962
		},
		{
			"buffer":0,
			"byteLength":72,
			"byteOffset":768,
			"target":34963
		},
		{
			"buffer":0,
			"byteLength":34344,
			"byteOffset":840,
			"target":34962
		},
		{
			"buffer":0,
			"byteLength":34344,
			"byteOffset":35184,
			"target":34962
		},
		{
			"buffer":0,
			"byteLength":22896,
			"byteOffset":69528,
			"target":34962
		},
		{
			"buffer":0,
			"byteLength":16728,
			"byteOffset":92424,
			"target":34963
		},
		{
			"buffer":0,
			"byteLength":48,
			"byteOffset":109152,
			"target":34962
		},
		{
			"buffer":0,
			"byteLength":48,
			"byteOffset":109200,
			"target":34962
		},
		{
			"buffer":0,
			"byteLength":32,
			"byteOffset":109248,
			"target":34962
		},
		{
			"buffer":0,
			"byteLength":12,
			"byteOffset":109280,
			"target":34963
		}
	],
	"samplers":[
		{
			"magFilter":9729,
			"minFilter":9987,
			"wrapS":33071,
			"wrapT":33071
		}
	],
	"buffers":[
		{
			"byteLength":109292,
			"uri":"pollination.bin"
		}
	]
}
