{
	"asset":{
		"generator":"Khronos glTF Blender I/O v3.6.27",
		"version":"2.0"
	},
	"scene":0,
	"scenes":[
		{
			"name":"Scene",
			"nodes":[
				0,
				1,
				2
			]
		}
	],
	"nodes":[
		{
			"mesh":0,
			"name":"Cube.002",
			"scale":[
				1.6701287031173706,
				0.38192975521087646,
				0.10566527396440506
			],
			"translation":[
				-1.4821183681488037,
				1.4358969926834106,
				0.683268666267395
			]
		},
		{
			"mesh":1,
			"name":"Text.002",
			"rotation":[
				0.6846909523010254,
				0.008405092172324657,
				-0.017569582909345627,
				0.7285733222961426
			],
			"scale":[
				0.26361507177352905,
				0.09235487878322601,
				0.2633172273635864
			],
			"translation":[
				-1.48875892162323,
				1.3683077096939087,
				0.8518538475036621
			]
		},
		{
			"mesh":2,
			"name":"pollen",
			"rotation":[
				0.7123896479606628,
				0,
				0,
				0.7017841935157776
			],
			"scale":[
				1.7396849393844604,
				1.7396849393844604,
				1.7396849393844604
			],
			"translation":[
				-1.4787002801895142,
				2.6921470165252686,
				0.7454531192779541
			]
		}
	],
	"materials":[
		{
			"doubleSided":true,
			"name":"Material.002",
			"pbrMetallicRoughness":{
				"baseColorFactor":[
					0,
					0,
					0,
					1
				],
				"metallicFactor":0,
				"roughnessFactor":0.5
			}
		},
		{
			"alphaMode":"BLEND",
			"doubleSided":true,
			"name":"pollen",
			"pbrMetallicRoughness":{
				"baseColorTexture":{
					"index":0
				},
				"metallicFactor":0,
				"roughnessFactor":0.5
			}
		}
	],
	"meshes":[
		{
			"name":"Cube.001",
			"primitives":[
				{
					"attributes":{
						"POSITION":0,
						"NORMAL":1,
						"TEXCOORD_0":2
					},
					"indices":3,
					"material":0
				}
			]
		},
		{
			"name":"Text.001",
			"primitives":[
				{
					"attributes":{
						"POSITION":4,
						"NORMAL":5,
						"TEXCOORD_0":6
					},
					"indices":7
				}
			]
		},
		{
			"name":"pollen",
			"primitives":[
				{
					"attributes":{
						"POSITION":8,
						"NORMAL":9,
						"TEXCOORD_0":10
					},
					"indices":11,
					"material":1
				}
			]
		}
	],
	"textures":[
		{
			"sampler":0,
			"source":0
		}
	],
	"images":[
		{
			"mimeType":"image/png",
			"name":"pollen",
			"uri":"pollen.png"
		}
	],
	"accessors":[
		{
			"bufferView":0,
			"componentType":5126,
			"count":24,
			"max":[
				1,
				1,
				1
			],
			"min":[
				-1,
				-1,
				-1
			],
			"type":"VEC3"
		},
		{
			"bufferView":1,
			"componentType":5126,
			"count":24,
			"type":"VEC3"
		},
		{
			"bufferView":2,
			"componentType":5126,
			"count":24,
			"type":"VEC2"
		},
		{
			"bufferView":3,
			"componentType":5123,
			"count":36,
			"type":"SCALAR"
		},
		{
			"bufferView":4,
			"componentType":5126,
			"count":4954,
			"max":[
				3.885499954223633,
				0.029999999329447746,
				0.009000000543892384
			],
			"min":[
				-3.876500129699707,
				-0.029999999329447746,
				-0.6910000443458557
			],
			"type":"VEC3"
		},
		{
			"bufferView":5,
			"componentType":5126,
			"count":4954,
			"type":"VEC3"
		},
		{
			"bufferView":6,
			"componentType":5126,
			"count":4954,
			"type":"VEC2"
		},
		{
			"bufferView":7,
			"componentType":5123,
			"count":14544,
			"type":"SCALAR"
		},
		{
			"bufferView":8,
			"componentType":5126,
			"count":4,
			"max":[
				0.9404255151748657,
				0,
				0.5
			],
			"min":[
				-0.9404255151748657,
				0,
				-0.5
			],
			"type":"VEC3"
		},
		{
			"bufferView":9,
			"componentType":5126,
			"count":4,
			"type":"VEC3"
		},
		{
			"bufferView":10,
			"componentType":5126,
			"count":4,
			"type":"VEC2"
		},
		{
			"bufferView":11,
			"componentType":5123,
			"count":6,
			"type":"SCALAR"
		}
	],
	"bufferViews":[
		{
			"buffer":0,
			"byteLength":288,
			"byteOffset":0,
			"target":34962
		},
		{
			"buffer":0,
			"byteLength":288,
			"byteOffset":288,
			"target":34962
		},
		{
			"buffer":0,
			"byteLength":192,
			"byteOffset":576,
			"target":34962
		},
		{
			"buffer":0,
			"byteLength":72,
			"byteOffset":768,
			"target":34963
		},
		{
			"buffer":0,
			"byteLength":59448,
			"byteOffset":840,
			"target":34962
		},
		{
			"buffer":0,
			"byteLength":59448,
			"byteOffset":60288,
			"target":34962
		},
		{
			"buffer":0,
			"byteLength":39632,
			"byteOffset":119736,
			"target":34962
		},
		{
			"buffer":0,
			"byteLength":29088,
			"byteOffset":159368,
			"target":34963
		},
		{
			"buffer":0,
			"byteLength":48,
			"byteOffset":188456,
			"target":34962
		},
		{
			"buffer":0,
			"byteLength":48,
			"byteOffset":188504,
			"target":34962
		},
		{
			"buffer":0,
			"byteLength":32,
			"byteOffset":188552,
			"target":34962
		},
		{
			"buffer":0,
			"byteLength":12,
			"byteOffset":188584,
			"target":34963
		}
	],
	"samplers":[
		{
			"magFilter":9729,
			"minFilter":9987,
			"wrapS":33071,
			"wrapT":33071
		}
	],
	"buffers":[
		{
			"byteLength":188596,
			"uri":"pollen.bin"
		}
	]
}
