{
	"asset":{
		"generator":"Khronos glTF Blender I/O v4.0.43",
		"version":"2.0"
	},
	"scene":0,
	"scenes":[
		{
			"name":"Scene",
			"nodes":[
				0,
				1
			]
		}
	],
	"nodes":[
		{
			"mesh":0,
			"name":"Cube",
			"scale":[
				2.4230082035064697,
				0.1547936052083969,
				0.3075847625732422
			],
			"translation":[
				0.30196690559387207,
				0.34662681818008423,
				0.3817134201526642
			]
		},
		{
			"mesh":1,
			"name":"CEELS",
			"rotation":[
				0.7071068286895752,
				0,
				0,
				0.7071068286895752
			],
			"scale":[
				0.1547936052083969,
				0.3075847625732422,
				0.1547936052083969
			],
			"translation":[
				-0.25327467918395996,
				0.23926597833633423,
				0.7301680445671082
			]
		}
	],
	"materials":[
		{
			"doubleSided":true,
			"name":"Material.002",
			"pbrMetallicRoughness":{
				"baseColorFactor":[
					0.8008674383163452,
					0.6242580413818359,
					0.1247282326221466,
					1
				],
				"metallicFactor":0,
				"roughnessFactor":0.5
			}
		},
		{
			"doubleSided":true,
			"name":"Material.001",
			"pbrMetallicRoughness":{
				"baseColorFactor":[
					0.03500047326087952,
					0.8039093613624573,
					0.03482569754123688,
					1
				],
				"metallicFactor":0,
				"roughnessFactor":0.5
			}
		}
	],
	"meshes":[
		{
			"name":"Cube",
			"primitives":[
				{
					"attributes":{
						"POSITION":0,
						"NORMAL":1,
						"TEXCOORD_0":2
					},
					"indices":3,
					"material":0
				}
			]
		},
		{
			"name":"Text",
			"primitives":[
				{
					"attributes":{
						"POSITION":4,
						"NORMAL":5,
						"TEXCOORD_0":6
					},
					"indices":7,
					"material":1
				}
			]
		}
	],
	"accessors":[
		{
			"bufferView":0,
			"componentType":5126,
			"count":24,
			"max":[
				1,
				1,
				1
			],
			"min":[
				-1,
				-1,
				-1
			],
			"type":"VEC3"
		},
		{
			"bufferView":1,
			"componentType":5126,
			"count":24,
			"type":"VEC3"
		},
		{
			"bufferView":2,
			"componentType":5126,
			"count":24,
			"type":"VEC2"
		},
		{
			"bufferView":3,
			"componentType":5123,
			"count":36,
			"type":"SCALAR"
		},
		{
			"bufferView":4,
			"componentType":5126,
			"count":3482,
			"max":[
				7.258110523223877,
				0.5299999713897705,
				0.048020463436841965
			],
			"min":[
				0.06593926250934601,
				-0.5299999713897705,
				-1.4120186567306519
			],
			"type":"VEC3"
		},
		{
			"bufferView":5,
			"componentType":5126,
			"count":3482,
			"type":"VEC3"
		},
		{
			"bufferView":6,
			"componentType":5126,
			"count":3482,
			"type":"VEC2"
		},
		{
			"bufferView":7,
			"componentType":5123,
			"count":17508,
			"type":"SCALAR"
		}
	],
	"bufferViews":[
		{
			"buffer":0,
			"byteLength":288,
			"byteOffset":0,
			"target":34962
		},
		{
			"buffer":0,
			"byteLength":288,
			"byteOffset":288,
			"target":34962
		},
		{
			"buffer":0,
			"byteLength":192,
			"byteOffset":576,
			"target":34962
		},
		{
			"buffer":0,
			"byteLength":72,
			"byteOffset":768,
			"target":34963
		},
		{
			"buffer":0,
			"byteLength":41784,
			"byteOffset":840,
			"target":34962
		},
		{
			"buffer":0,
			"byteLength":41784,
			"byteOffset":42624,
			"target":34962
		},
		{
			"buffer":0,
			"byteLength":27856,
			"byteOffset":84408,
			"target":34962
		},
		{
			"buffer":0,
			"byteLength":35016,
			"byteOffset":112264,
			"target":34963
		}
	],
	"buffers":[
		{
			"byteLength":147280,
			"uri":"cells.bin"
		}
	]
}
