{
	"asset":{
		"generator":"Khronos glTF Blender I/O v3.6.27",
		"version":"2.0"
	},
	"scene":0,
	"scenes":[
		{
			"name":"Scene",
			"nodes":[
				0
			]
		}
	],
	"nodes":[
		{
			"mesh":0,
			"name":"defaultMaterial",
			"rotation":[
				0,
				-0.5773299932479858,
				0,
				0.8165109157562256
			],
			"translation":[
				11.582134246826172,
				0,
				0
			]
		}
	],
	"materials":[
		{
			"doubleSided":true,
			"name":"Cheese",
			"normalTexture":{
				"index":0
			},
			"occlusionTexture":{
				"index":1
			},
			"pbrMetallicRoughness":{
				"baseColorTexture":{
					"index":2
				},
				"metallicRoughnessTexture":{
					"index":1
				}
			}
		}
	],
	"meshes":[
		{
			"name":"defaultMaterial",
			"primitives":[
				{
					"attributes":{
						"POSITION":0,
						"NORMAL":1,
						"TEXCOORD_0":2
					},
					"indices":3,
					"material":0
				}
			]
		}
	],
	"textures":[
		{
			"sampler":0,
			"source":0
		},
		{
			"sampler":0,
			"source":1
		},
		{
			"sampler":0,
			"source":2
		}
	],
	"images":[
		{
			"mimeType":"image/png",
			"name":"Cheese_normal",
			"uri":"Cheese_normal.png"
		},
		{
			"mimeType":"image/png",
			"name":"Cheese_metallicRoughness",
			"uri":"Cheese_metallicRoughness.png"
		},
		{
			"mimeType":"image/jpeg",
			"name":"Cheese_baseColor",
			"uri":"Cheese_baseColor.jpg"
		}
	],
	"accessors":[
		{
			"bufferView":0,
			"componentType":5126,
			"count":14920,
			"max":[
				5.049170017242432,
				3.4732890129089355,
				0.10566599667072296
			],
			"min":[
				-0.7966939806938171,
				0.00023999999393709004,
				-7.774857997894287
			],
			"type":"VEC3"
		},
		{
			"bufferView":1,
			"componentType":5126,
			"count":14920,
			"type":"VEC3"
		},
		{
			"bufferView":2,
			"componentType":5126,
			"count":14920,
			"type":"VEC2"
		},
		{
			"bufferView":3,
			"componentType":5123,
			"count":67914,
			"type":"SCALAR"
		}
	],
	"bufferViews":[
		{
			"buffer":0,
			"byteLength":179040,
			"byteOffset":0,
			"target":34962
		},
		{
			"buffer":0,
			"byteLength":179040,
			"byteOffset":179040,
			"target":34962
		},
		{
			"buffer":0,
			"byteLength":119360,
			"byteOffset":358080,
			"target":34962
		},
		{
			"buffer":0,
			"byteLength":135828,
			"byteOffset":477440,
			"target":34963
		}
	],
	"samplers":[
		{
			"magFilter":9729,
			"minFilter":9987
		}
	],
	"buffers":[
		{
			"byteLength":613268,
			"uri":"cheese.bin"
		}
	]
}
