{
	"asset":{
		"generator":"Khronos glTF Blender I/O v4.0.43",
		"version":"2.0"
	},
	"scene":0,
	"scenes":[
		{
			"name":"Scene",
			"nodes":[
				0,
				1,
				2,
				3
			]
		}
	],
	"nodes":[
		{
			"mesh":0,
			"name":"Text.008",
			"rotation":[
				0.7071066498756409,
				0.0005109042976982892,
				-0.0005109043559059501,
				0.7071066498756409
			],
			"scale":[
				0.4343431890010834,
				0.9138297438621521,
				0.43434321880340576
			],
			"translation":[
				-2.4437801837921143,
				4.594264507293701,
				-2.2497689723968506
			]
		},
		{
			"mesh":1,
			"name":"Plane.013",
			"rotation":[
				-0.5003611445426941,
				0.5003611445426941,
				-0.4996386468410492,
				0.4996386766433716
			],
			"scale":[
				2.980520725250244,
				1,
				7.968738555908203
			],
			"translation":[
				-0.3181871175765991,
				2.2642641067504883,
				-2.3603708744049072
			]
		},
		{
			"mesh":2,
			"name":"Plane",
			"rotation":[
				0.7071068286895752,
				0,
				0,
				0.7071068286895752
			],
			"scale":[
				2.1392693519592285,
				1,
				2.1392693519592285
			],
			"translation":[
				-4.4800920486450195,
				2.0797979831695557,
				-2.266747236251831
			]
		},
		{
			"mesh":3,
			"name":"Plane.001",
			"rotation":[
				0.7071068286895752,
				0,
				0,
				0.7071068286895752
			],
			"scale":[
				2.1392693519592285,
				1,
				2.1392693519592285
			],
			"translation":[
				2.9273083209991455,
				2.0797979831695557,
				-2.266747236251831
			]
		}
	],
	"materials":[
		{
			"doubleSided":true,
			"name":"Material.038",
			"pbrMetallicRoughness":{
				"metallicFactor":0,
				"roughnessFactor":0.5
			}
		},
		{
			"doubleSided":true,
			"name":"Material.044",
			"pbrMetallicRoughness":{
				"baseColorFactor":[
					0.0064769890159368515,
					0.055540382862091064,
					0.008944455534219742,
					1
				],
				"metallicFactor":0,
				"roughnessFactor":0.5
			}
		},
		{
			"doubleSided":true,
			"name":"Material.048",
			"pbrMetallicRoughness":{
				"baseColorTexture":{
					"index":0
				},
				"metallicFactor":0,
				"roughnessFactor":0.5
			}
		},
		{
			"doubleSided":true,
			"name":"Material.069",
			"pbrMetallicRoughness":{
				"baseColorTexture":{
					"index":1
				},
				"metallicFactor":0,
				"roughnessFactor":0.5
			}
		}
	],
	"meshes":[
		{
			"name":"Text.022",
			"primitives":[
				{
					"attributes":{
						"POSITION":0,
						"NORMAL":1,
						"TEXCOORD_0":2
					},
					"indices":3,
					"material":0
				}
			]
		},
		{
			"name":"Plane.026",
			"primitives":[
				{
					"attributes":{
						"POSITION":4,
						"NORMAL":5,
						"TEXCOORD_0":6
					},
					"indices":7,
					"material":1
				}
			]
		},
		{
			"name":"Plane.039",
			"primitives":[
				{
					"attributes":{
						"POSITION":8,
						"NORMAL":9,
						"TEXCOORD_0":10
					},
					"indices":7,
					"material":2
				}
			]
		},
		{
			"name":"Plane.040",
			"primitives":[
				{
					"attributes":{
						"POSITION":11,
						"NORMAL":12,
						"TEXCOORD_0":13
					},
					"indices":7,
					"material":3
				}
			]
		}
	],
	"textures":[
		{
			"sampler":0,
			"source":0
		},
		{
			"sampler":0,
			"source":1
		}
	],
	"images":[
		{
			"mimeType":"image/jpeg",
			"name":"soil.jpg",
			"uri":"soil.jpg"
		},
		{
			"mimeType":"image/jpeg",
			"name":"badwaterpond.jpg",
			"uri":"badwaterpond.jpg"
		}
	],
	"accessors":[
		{
			"bufferView":0,
			"componentType":5126,
			"count":4818,
			"max":[
				7.641000270843506,
				0.020000001415610313,
				0.23000000417232513
			],
			"min":[
				0.07000000029802322,
				-0.020000001415610313,
				-0.6820000410079956
			],
			"type":"VEC3"
		},
		{
			"bufferView":1,
			"componentType":5126,
			"count":4818,
			"type":"VEC3"
		},
		{
			"bufferView":2,
			"componentType":5126,
			"count":4818,
			"type":"VEC2"
		},
		{
			"bufferView":3,
			"componentType":5123,
			"count":14148,
			"type":"SCALAR"
		},
		{
			"bufferView":4,
			"componentType":5126,
			"count":4,
			"max":[
				1,
				0,
				1
			],
			"min":[
				-1,
				0,
				-1
			],
			"type":"VEC3"
		},
		{
			"bufferView":5,
			"componentType":5126,
			"count":4,
			"type":"VEC3"
		},
		{
			"bufferView":6,
			"componentType":5126,
			"count":4,
			"type":"VEC2"
		},
		{
			"bufferView":7,
			"componentType":5123,
			"count":6,
			"type":"SCALAR"
		},
		{
			"bufferView":8,
			"componentType":5126,
			"count":4,
			"max":[
				1,
				0,
				1
			],
			"min":[
				-1,
				0,
				-1
			],
			"type":"VEC3"
		},
		{
			"bufferView":9,
			"componentType":5126,
			"count":4,
			"type":"VEC3"
		},
		{
			"bufferView":10,
			"componentType":5126,
			"count":4,
			"type":"VEC2"
		},
		{
			"bufferView":11,
			"componentType":5126,
			"count":4,
			"max":[
				1,
				0,
				1
			],
			"min":[
				-1,
				0,
				-1
			],
			"type":"VEC3"
		},
		{
			"bufferView":12,
			"componentType":5126,
			"count":4,
			"type":"VEC3"
		},
		{
			"bufferView":13,
			"componentType":5126,
			"count":4,
			"type":"VEC2"
		}
	],
	"bufferViews":[
		{
			"buffer":0,
			"byteLength":57816,
			"byteOffset":0,
			"target":34962
		},
		{
			"buffer":0,
			"byteLength":57816,
			"byteOffset":57816,
			"target":34962
		},
		{
			"buffer":0,
			"byteLength":38544,
			"byteOffset":115632,
			"target":34962
		},
		{
			"buffer":0,
			"byteLength":28296,
			"byteOffset":154176,
			"target":34963
		},
		{
			"buffer":0,
			"byteLength":48,
			"byteOffset":182472,
			"target":34962
		},
		{
			"buffer":0,
			"byteLength":48,
			"byteOffset":182520,
			"target":34962
		},
		{
			"buffer":0,
			"byteLength":32,
			"byteOffset":182568,
			"target":34962
		},
		{
			"buffer":0,
			"byteLength":12,
			"byteOffset":182600,
			"target":34963
		},
		{
			"buffer":0,
			"byteLength":48,
			"byteOffset":182612,
			"target":34962
		},
		{
			"buffer":0,
			"byteLength":48,
			"byteOffset":182660,
			"target":34962
		},
		{
			"buffer":0,
			"byteLength":32,
			"byteOffset":182708,
			"target":34962
		},
		{
			"buffer":0,
			"byteLength":48,
			"byteOffset":182740,
			"target":34962
		},
		{
			"buffer":0,
			"byteLength":48,
			"byteOffset":182788,
			"target":34962
		},
		{
			"buffer":0,
			"byteLength":32,
			"byteOffset":182836,
			"target":34962
		}
	],
	"samplers":[
		{
			"magFilter":9729,
			"minFilter":9987
		}
	],
	"buffers":[
		{
			"byteLength":182868,
			"uri":"const5.bin"
		}
	]
}
