{
	"asset":{
		"generator":"Khronos glTF Blender I/O v3.6.27",
		"version":"2.0"
	},
	"scene":0,
	"scenes":[
		{
			"name":"Scene",
			"nodes":[
				12
			]
		}
	],
	"nodes":[
		{
			"mesh":0,
			"name":"sphere body_black matte_0"
		},
		{
			"mesh":1,
			"name":"sphere body_black matter blender_0"
		},
		{
			"mesh":2,
			"name":"sphere body_blender glass_0"
		},
		{
			"mesh":3,
			"name":"sphere body_dark glass_0"
		},
		{
			"mesh":4,
			"name":"sphere body_eyes light_0"
		},
		{
			"mesh":5,
			"name":"sphere body_glossy paint white_0"
		},
		{
			"mesh":6,
			"name":"sphere body_metal_0"
		},
		{
			"mesh":7,
			"name":"sphere body_thruster light_0"
		},
		{
			"children":[
				0,
				1,
				2,
				3,
				4,
				5,
				6,
				7
			],
			"name":"sphere body",
			"rotation":[
				-0.70710688829422,
				0,
				0,
				0.7071066498756409
			],
			"scale":[
				100,
				99.99998474121094,
				99.99998474121094
			]
		},
		{
			"children":[
				8
			],
			"name":"RootNode"
		},
		{
			"children":[
				9
			],
			"name":"Object_2"
		},
		{
			"children":[
				10
			],
			"name":"8cfcbf279e5145b29fef01b31cc1d658.fbx",
			"rotation":[
				0.70710688829422,
				0,
				0,
				0.7071066498756409
			]
		},
		{
			"children":[
				11
			],
			"name":"Sketchfab_model",
			"rotation":[
				-0.70710688829422,
				0,
				0,
				0.7071066498756409
			],
			"scale":[
				0.017419012263417244,
				0.017419014126062393,
				0.017419014126062393
			]
		}
	],
	"animations":[
		{
			"channels":[
				{
					"sampler":0,
					"target":{
						"node":8,
						"path":"translation"
					}
				}
			],
			"name":"sphere body|sphere bodyAction",
			"samplers":[
				{
					"input":32,
					"interpolation":"LINEAR",
					"output":33
				}
			]
		}
	],
	"materials":[
		{
			"doubleSided":true,
			"name":"black_matte",
			"pbrMetallicRoughness":{
				"baseColorFactor":[
					0.01444379985332489,
					0.01444379985332489,
					0.01444379985332489,
					1
				],
				"metallicFactor":0,
				"roughnessFactor":0.5793265104293823
			}
		},
		{
			"doubleSided":true,
			"name":"black_matter_blender",
			"pbrMetallicRoughness":{
				"baseColorFactor":[
					0.009947230108082294,
					0.009947230108082294,
					0.009947230108082294,
					1
				],
				"metallicFactor":0,
				"roughnessFactor":0.02603074163198471
			}
		},
		{
			"alphaMode":"BLEND",
			"doubleSided":true,
			"name":"blender_glass",
			"pbrMetallicRoughness":{
				"baseColorFactor":[
					0.008959033526480198,
					0.008959033526480198,
					0.008959033526480198,
					0.08683247119188309
				],
				"metallicFactor":0,
				"roughnessFactor":0.0564316064119339
			}
		},
		{
			"alphaMode":"BLEND",
			"doubleSided":true,
			"name":"dark_glass",
			"pbrMetallicRoughness":{
				"baseColorFactor":[
					0.042861901223659515,
					0.042861901223659515,
					0.042861901223659515,
					0.5671661496162415
				],
				"metallicFactor":0,
				"roughnessFactor":0.01332108210772276
			}
		},
		{
			"doubleSided":true,
			"emissiveFactor":[
				0.015544559806585312,
				0.6080700755119324,
				0.9022800922393799
			],
			"name":"eyes_light",
			"pbrMetallicRoughness":{
				"baseColorFactor":[
					0,
					0,
					0,
					1
				],
				"metallicFactor":0,
				"roughnessFactor":0.8211145401000977
			}
		},
		{
			"doubleSided":true,
			"name":"glossy_paint_white",
			"pbrMetallicRoughness":{
				"baseColorFactor":[
					0.800000011920929,
					0.7526519894599915,
					0.6732180118560791,
					1
				],
				"metallicFactor":0,
				"roughnessFactor":0.06859195232391357
			}
		},
		{
			"doubleSided":true,
			"name":"metal.016",
			"pbrMetallicRoughness":{
				"baseColorFactor":[
					0.43415364623069763,
					0.3967552185058594,
					0.37123769521713257,
					1
				],
				"roughnessFactor":0.21451610326766968
			}
		},
		{
			"doubleSided":true,
			"emissiveFactor":[
				0.026561051607131958,
				0.9563207030296326,
				1
			],
			"name":"thruster_light",
			"pbrMetallicRoughness":{
				"baseColorFactor":[
					0.800000011920929,
					0.800000011920929,
					0.800000011920929,
					1
				],
				"metallicFactor":0,
				"roughnessFactor":0
			}
		}
	],
	"meshes":[
		{
			"name":"sphere body_black matte_0",
			"primitives":[
				{
					"attributes":{
						"POSITION":0,
						"NORMAL":1,
						"TEXCOORD_0":2
					},
					"indices":3,
					"material":0
				}
			]
		},
		{
			"name":"sphere body_black matter blender_0",
			"primitives":[
				{
					"attributes":{
						"POSITION":4,
						"NORMAL":5,
						"TEXCOORD_0":6
					},
					"indices":7,
					"material":1
				}
			]
		},
		{
			"name":"sphere body_blender glass_0",
			"primitives":[
				{
					"attributes":{
						"POSITION":8,
						"NORMAL":9,
						"TEXCOORD_0":10
					},
					"indices":11,
					"material":2
				}
			]
		},
		{
			"name":"sphere body_dark glass_0",
			"primitives":[
				{
					"attributes":{
						"POSITION":12,
						"NORMAL":13,
						"TEXCOORD_0":14
					},
					"indices":15,
					"material":3
				}
			]
		},
		{
			"name":"sphere body_eyes light_0",
			"primitives":[
				{
					"attributes":{
						"POSITION":16,
						"NORMAL":17,
						"TEXCOORD_0":18
					},
					"indices":19,
					"material":4
				}
			]
		},
		{
			"name":"sphere body_glossy paint white_0",
			"primitives":[
				{
					"attributes":{
						"POSITION":20,
						"NORMAL":21,
						"TEXCOORD_0":22
					},
					"indices":23,
					"material":5
				}
			]
		},
		{
			"name":"sphere body_metal_0",
			"primitives":[
				{
					"attributes":{
						"POSITION":24,
						"NORMAL":25,
						"TEXCOORD_0":26
					},
					"indices":27,
					"material":6
				}
			]
		},
		{
			"name":"sphere body_thruster light_0",
			"primitives":[
				{
					"attributes":{
						"POSITION":28,
						"NORMAL":29,
						"TEXCOORD_0":30
					},
					"indices":31,
					"material":7
				}
			]
		}
	],
	"accessors":[
		{
			"bufferView":0,
			"componentType":5126,
			"count":7093,
			"max":[
				0.11000000685453415,
				0.1692289561033249,
				0.15000000596046448
			],
			"min":[
				-0.11000000685453415,
				-0.14521974325180054,
				-0.14058320224285126
			],
			"type":"VEC3"
		},
		{
			"bufferView":1,
			"componentType":5126,
			"count":7093,
			"type":"VEC3"
		},
		{
			"bufferView":2,
			"componentType":5126,
			"count":7093,
			"type":"VEC2"
		},
		{
			"bufferView":3,
			"componentType":5123,
			"count":30210,
			"type":"SCALAR"
		},
		{
			"bufferView":4,
			"componentType":5126,
			"count":208,
			"max":[
				0.10000000149011612,
				-0.07499998807907104,
				0.07784122228622437
			],
			"min":[
				-0.10000000149011612,
				-0.08500001579523087,
				-0.07784125208854675
			],
			"type":"VEC3"
		},
		{
			"bufferView":5,
			"componentType":5126,
			"count":208,
			"type":"VEC3"
		},
		{
			"bufferView":6,
			"componentType":5126,
			"count":208,
			"type":"VEC2"
		},
		{
			"bufferView":7,
			"componentType":5123,
			"count":588,
			"type":"SCALAR"
		},
		{
			"bufferView":8,
			"componentType":5126,
			"count":976,
			"max":[
				0.10199999809265137,
				-0.0896454006433487,
				0.07987246662378311
			],
			"min":[
				-0.10199999809265137,
				-0.15000000596046448,
				-0.0798724964261055
			],
			"type":"VEC3"
		},
		{
			"bufferView":9,
			"componentType":5126,
			"count":976,
			"type":"VEC3"
		},
		{
			"bufferView":10,
			"componentType":5126,
			"count":976,
			"type":"VEC2"
		},
		{
			"bufferView":11,
			"componentType":5123,
			"count":4656,
			"type":"SCALAR"
		},
		{
			"bufferView":12,
			"componentType":5126,
			"count":3003,
			"max":[
				0.15443949401378632,
				-0.010999994352459908,
				0.14999999105930328
			],
			"min":[
				-0.15443949401378632,
				-0.1033259704709053,
				-0.040000006556510925
			],
			"type":"VEC3"
		},
		{
			"bufferView":13,
			"componentType":5126,
			"count":3003,
			"type":"VEC3"
		},
		{
			"bufferView":14,
			"componentType":5126,
			"count":3003,
			"type":"VEC2"
		},
		{
			"bufferView":15,
			"componentType":5123,
			"count":13428,
			"type":"SCALAR"
		},
		{
			"bufferView":16,
			"componentType":5126,
			"count":30,
			"max":[
				0.06136591359972954,
				-0.08580213040113449,
				0.019696354866027832
			],
			"min":[
				-0.06136591359972954,
				-0.08580213785171509,
				-0.012669905088841915
			],
			"type":"VEC3"
		},
		{
			"bufferView":17,
			"componentType":5126,
			"count":30,
			"type":"VEC3"
		},
		{
			"bufferView":18,
			"componentType":5126,
			"count":30,
			"type":"VEC2"
		},
		{
			"bufferView":19,
			"componentType":5123,
			"count":96,
			"type":"SCALAR"
		},
		{
			"bufferView":20,
			"componentType":5126,
			"count":5415,
			"max":[
				0.14959613978862762,
				0.11897940933704376,
				0.14744260907173157
			],
			"min":[
				-0.14959613978862762,
				-0.13174426555633545,
				-0.12000001966953278
			],
			"type":"VEC3"
		},
		{
			"bufferView":21,
			"componentType":5126,
			"count":5415,
			"type":"VEC3"
		},
		{
			"bufferView":22,
			"componentType":5126,
			"count":5415,
			"type":"VEC2"
		},
		{
			"bufferView":23,
			"componentType":5123,
			"count":25830,
			"type":"SCALAR"
		},
		{
			"bufferView":24,
			"componentType":5126,
			"count":4052,
			"max":[
				0.15486444532871246,
				0.1535872519016266,
				0.06000002846121788
			],
			"min":[
				-0.15486444532871246,
				-0.010000007227063179,
				-0.0599999874830246
			],
			"type":"VEC3"
		},
		{
			"bufferView":25,
			"componentType":5126,
			"count":4052,
			"type":"VEC3"
		},
		{
			"bufferView":26,
			"componentType":5126,
			"count":4052,
			"type":"VEC2"
		},
		{
			"bufferView":27,
			"componentType":5123,
			"count":15744,
			"type":"SCALAR"
		},
		{
			"bufferView":28,
			"componentType":5126,
			"count":8,
			"max":[
				0.07320743054151535,
				0.10854753106832504,
				0.05437597259879112
			],
			"min":[
				-0.07320743054151535,
				0.10854579508304596,
				-0.05146365240216255
			],
			"type":"VEC3"
		},
		{
			"bufferView":29,
			"componentType":5126,
			"count":8,
			"type":"VEC3"
		},
		{
			"bufferView":30,
			"componentType":5126,
			"count":8,
			"type":"VEC2"
		},
		{
			"bufferView":31,
			"componentType":5123,
			"count":12,
			"type":"SCALAR"
		},
		{
			"bufferView":32,
			"componentType":5126,
			"count":101,
			"max":[
				3.3333333333333335
			],
			"min":[
				0
			],
			"type":"SCALAR"
		},
		{
			"bufferView":33,
			"componentType":5126,
			"count":101,
			"type":"VEC3"
		}
	],
	"bufferViews":[
		{
			"buffer":0,
			"byteLength":85116,
			"byteOffset":0,
			"target":34962
		},
		{
			"buffer":0,
			"byteLength":85116,
			"byteOffset":85116,
			"target":34962
		},
		{
			"buffer":0,
			"byteLength":56744,
			"byteOffset":170232,
			"target":34962
		},
		{
			"buffer":0,
			"byteLength":60420,
			"byteOffset":226976,
			"target":34963
		},
		{
			"buffer":0,
			"byteLength":2496,
			"byteOffset":287396,
			"target":34962
		},
		{
			"buffer":0,
			"byteLength":2496,
			"byteOffset":289892,
			"target":34962
		},
		{
			"buffer":0,
			"byteLength":1664,
			"byteOffset":292388,
			"target":34962
		},
		{
			"buffer":0,
			"byteLength":1176,
			"byteOffset":294052,
			"target":34963
		},
		{
			"buffer":0,
			"byteLength":11712,
			"byteOffset":295228,
			"target":34962
		},
		{
			"buffer":0,
			"byteLength":11712,
			"byteOffset":306940,
			"target":34962
		},
		{
			"buffer":0,
			"byteLength":7808,
			"byteOffset":318652,
			"target":34962
		},
		{
			"buffer":0,
			"byteLength":9312,
			"byteOffset":326460,
			"target":34963
		},
		{
			"buffer":0,
			"byteLength":36036,
			"byteOffset":335772,
			"target":34962
		},
		{
			"buffer":0,
			"byteLength":36036,
			"byteOffset":371808,
			"target":34962
		},
		{
			"buffer":0,
			"byteLength":24024,
			"byteOffset":407844,
			"target":34962
		},
		{
			"buffer":0,
			"byteLength":26856,
			"byteOffset":431868,
			"target":34963
		},
		{
			"buffer":0,
			"byteLength":360,
			"byteOffset":458724,
			"target":34962
		},
		{
			"buffer":0,
			"byteLength":360,
			"byteOffset":459084,
			"target":34962
		},
		{
			"buffer":0,
			"byteLength":240,
			"byteOffset":459444,
			"target":34962
		},
		{
			"buffer":0,
			"byteLength":192,
			"byteOffset":459684,
			"target":34963
		},
		{
			"buffer":0,
			"byteLength":64980,
			"byteOffset":459876,
			"target":34962
		},
		{
			"buffer":0,
			"byteLength":64980,
			"byteOffset":524856,
			"target":34962
		},
		{
			"buffer":0,
			"byteLength":43320,
			"byteOffset":589836,
			"target":34962
		},
		{
			"buffer":0,
			"byteLength":51660,
			"byteOffset":633156,
			"target":34963
		},
		{
			"buffer":0,
			"byteLength":48624,
			"byteOffset":684816,
			"target":34962
		},
		{
			"buffer":0,
			"byteLength":48624,
			"byteOffset":733440,
			"target":34962
		},
		{
			"buffer":0,
			"byteLength":32416,
			"byteOffset":782064,
			"target":34962
		},
		{
			"buffer":0,
			"byteLength":31488,
			"byteOffset":814480,
			"target":34963
		},
		{
			"buffer":0,
			"byteLength":96,
			"byteOffset":845968,
			"target":34962
		},
		{
			"buffer":0,
			"byteLength":96,
			"byteOffset":846064,
			"target":34962
		},
		{
			"buffer":0,
			"byteLength":64,
			"byteOffset":846160,
			"target":34962
		},
		{
			"buffer":0,
			"byteLength":24,
			"byteOffset":846224,
			"target":34963
		},
		{
			"buffer":0,
			"byteLength":404,
			"byteOffset":846248
		},
		{
			"buffer":0,
			"byteLength":1212,
			"byteOffset":846652
		}
	],
	"buffers":[
		{
			"byteLength":847864,
			"uri":"robot.bin"
		}
	]
}
