{
	"asset":{
		"generator":"Khronos glTF Blender I/O v3.6.27",
		"version":"2.0"
	},
	"scene":0,
	"scenes":[
		{
			"name":"Scene",
			"nodes":[
				0
			]
		}
	],
	"nodes":[
		{
			"mesh":0,
			"name":"04bizonFinal",
			"translation":[
				2.4263978004455566,
				-0.06988797336816788,
				-1.9401679039001465
			]
		}
	],
	"materials":[
		{
			"doubleSided":true,
			"name":"Material.119",
			"pbrMetallicRoughness":{
				"baseColorTexture":{
					"index":0
				},
				"metallicFactor":0
			}
		}
	],
	"meshes":[
		{
			"name":"Plane.171",
			"primitives":[
				{
					"attributes":{
						"POSITION":0,
						"NORMAL":1,
						"TEXCOORD_0":2
					},
					"indices":3,
					"material":0
				}
			]
		}
	],
	"textures":[
		{
			"sampler":0,
			"source":0
		}
	],
	"images":[
		{
			"mimeType":"image/png",
			"name":"04bizontexture.png",
			"uri":"04bizontexture_png.png"
		}
	],
	"accessors":[
		{
			"bufferView":0,
			"componentType":5126,
			"count":2206,
			"max":[
				0.5779046416282654,
				2.4061686992645264,
				2.009573221206665
			],
			"min":[
				-0.5779044032096863,
				-0.012556334026157856,
				-1.7279032468795776
			],
			"type":"VEC3"
		},
		{
			"bufferView":1,
			"componentType":5126,
			"count":2206,
			"type":"VEC3"
		},
		{
			"bufferView":2,
			"componentType":5126,
			"count":2206,
			"type":"VEC2"
		},
		{
			"bufferView":3,
			"componentType":5123,
			"count":3378,
			"type":"SCALAR"
		}
	],
	"bufferViews":[
		{
			"buffer":0,
			"byteLength":26472,
			"byteOffset":0,
			"target":34962
		},
		{
			"buffer":0,
			"byteLength":26472,
			"byteOffset":26472,
			"target":34962
		},
		{
			"buffer":0,
			"byteLength":17648,
			"byteOffset":52944,
			"target":34962
		},
		{
			"buffer":0,
			"byteLength":6756,
			"byteOffset":70592,
			"target":34963
		}
	],
	"samplers":[
		{
			"magFilter":9729,
			"minFilter":9987
		}
	],
	"buffers":[
		{
			"byteLength":77348,
			"uri":"bison.bin"
		}
	]
}
