{
	"asset":{
		"generator":"Khronos glTF Blender I/O v3.6.27",
		"version":"2.0"
	},
	"scene":0,
	"scenes":[
		{
			"name":"Scene",
			"nodes":[
				0,
				1,
				2
			]
		}
	],
	"nodes":[
		{
			"mesh":0,
			"name":"Cube.003",
			"scale":[
				1.6701287031173706,
				0.38192975521087646,
				0.10566527396440506
			],
			"translation":[
				2.5324363708496094,
				1.4314652681350708,
				0.7007058262825012
			]
		},
		{
			"mesh":1,
			"name":"Text.001",
			"rotation":[
				0.6846909523010254,
				0.008405092172324657,
				-0.017569582909345627,
				0.7285733222961426
			],
			"scale":[
				0.26361507177352905,
				0.09235487878322601,
				0.2633172273635864
			],
			"translation":[
				2.5243778228759766,
				1.340405821800232,
				0.8563335537910461
			]
		},
		{
			"mesh":2,
			"name":"fertilization",
			"rotation":[
				0.7468486428260803,
				0,
				0,
				0.6649940609931946
			],
			"scale":[
				2.3808481693267822,
				2.2728495597839355,
				2.2728495597839355
			],
			"translation":[
				2.5715432167053223,
				2.7868847846984863,
				0.6352670788764954
			]
		}
	],
	"materials":[
		{
			"doubleSided":true,
			"name":"Material.002",
			"pbrMetallicRoughness":{
				"baseColorFactor":[
					0,
					0,
					0,
					1
				],
				"metallicFactor":0,
				"roughnessFactor":0.5
			}
		},
		{
			"alphaMode":"BLEND",
			"doubleSided":true,
			"name":"fertilization",
			"pbrMetallicRoughness":{
				"baseColorTexture":{
					"index":0
				},
				"metallicFactor":0,
				"roughnessFactor":0.5
			}
		}
	],
	"meshes":[
		{
			"name":"Cube.002",
			"primitives":[
				{
					"attributes":{
						"POSITION":0,
						"NORMAL":1,
						"TEXCOORD_0":2
					},
					"indices":3,
					"material":0
				}
			]
		},
		{
			"name":"Text.002",
			"primitives":[
				{
					"attributes":{
						"POSITION":4,
						"NORMAL":5,
						"TEXCOORD_0":6
					},
					"indices":7
				}
			]
		},
		{
			"name":"fertilization",
			"primitives":[
				{
					"attributes":{
						"POSITION":8,
						"NORMAL":9,
						"TEXCOORD_0":10
					},
					"indices":11,
					"material":1
				}
			]
		}
	],
	"textures":[
		{
			"sampler":0,
			"source":0
		}
	],
	"images":[
		{
			"mimeType":"image/png",
			"name":"fertilization",
			"uri":"fertilization.png"
		}
	],
	"accessors":[
		{
			"bufferView":0,
			"componentType":5126,
			"count":24,
			"max":[
				1,
				1,
				1
			],
			"min":[
				-1,
				-1,
				-1
			],
			"type":"VEC3"
		},
		{
			"bufferView":1,
			"componentType":5126,
			"count":24,
			"type":"VEC3"
		},
		{
			"bufferView":2,
			"componentType":5126,
			"count":24,
			"type":"VEC2"
		},
		{
			"bufferView":3,
			"componentType":5123,
			"count":36,
			"type":"SCALAR"
		},
		{
			"bufferView":4,
			"componentType":5126,
			"count":3146,
			"max":[
				2.191000461578369,
				0.029999999329447746,
				0.009000000543892384
			],
			"min":[
				-2.454000234603882,
				-0.029999999329447746,
				-0.6820000410079956
			],
			"type":"VEC3"
		},
		{
			"bufferView":5,
			"componentType":5126,
			"count":3146,
			"type":"VEC3"
		},
		{
			"bufferView":6,
			"componentType":5126,
			"count":3146,
			"type":"VEC2"
		},
		{
			"bufferView":7,
			"componentType":5123,
			"count":9144,
			"type":"SCALAR"
		},
		{
			"bufferView":8,
			"componentType":5126,
			"count":4,
			"max":[
				0.7075471878051758,
				0,
				0.5
			],
			"min":[
				-0.7075471878051758,
				0,
				-0.5
			],
			"type":"VEC3"
		},
		{
			"bufferView":9,
			"componentType":5126,
			"count":4,
			"type":"VEC3"
		},
		{
			"bufferView":10,
			"componentType":5126,
			"count":4,
			"type":"VEC2"
		},
		{
			"bufferView":11,
			"componentType":5123,
			"count":6,
			"type":"SCALAR"
		}
	],
	"bufferViews":[
		{
			"buffer":0,
			"byteLength":288,
			"byteOffset":0,
			"target":34962
		},
		{
			"buffer":0,
			"byteLength":288,
			"byteOffset":288,
			"target":34962
		},
		{
			"buffer":0,
			"byteLength":192,
			"byteOffset":576,
			"target":34962
		},
		{
			"buffer":0,
			"byteLength":72,
			"byteOffset":768,
			"target":34963
		},
		{
			"buffer":0,
			"byteLength":37752,
			"byteOffset":840,
			"target":34962
		},
		{
			"buffer":0,
			"byteLength":37752,
			"byteOffset":38592,
			"target":34962
		},
		{
			"buffer":0,
			"byteLength":25168,
			"byteOffset":76344,
			"target":34962
		},
		{
			"buffer":0,
			"byteLength":18288,
			"byteOffset":101512,
			"target":34963
		},
		{
			"buffer":0,
			"byteLength":48,
			"byteOffset":119800,
			"target":34962
		},
		{
			"buffer":0,
			"byteLength":48,
			"byteOffset":119848,
			"target":34962
		},
		{
			"buffer":0,
			"byteLength":32,
			"byteOffset":119896,
			"target":34962
		},
		{
			"buffer":0,
			"byteLength":12,
			"byteOffset":119928,
			"target":34963
		}
	],
	"samplers":[
		{
			"magFilter":9729,
			"minFilter":9987,
			"wrapS":33071,
			"wrapT":33071
		}
	],
	"buffers":[
		{
			"byteLength":119940,
			"uri":"fertilization.bin"
		}
	]
}
