{
	"asset":{
		"generator":"Khronos glTF Blender I/O v3.6.27",
		"version":"2.0"
	},
	"scene":0,
	"scenes":[
		{
			"name":"Scene",
			"nodes":[
				0,
				1,
				2
			]
		}
	],
	"nodes":[
		{
			"mesh":0,
			"name":"Cube.004",
			"scale":[
				1.6701287031173706,
				0.38192975521087646,
				0.10566527396440506
			],
			"translation":[
				6.3834733963012695,
				1.470022201538086,
				0.6596369743347168
			]
		},
		{
			"mesh":1,
			"name":"Text.003",
			"rotation":[
				0.6846909523010254,
				0.008405092172324657,
				-0.017569582909345627,
				0.7285733222961426
			],
			"scale":[
				0.26361507177352905,
				0.09235487878322601,
				0.2633172273635864
			],
			"translation":[
				6.375414848327637,
				1.3789629936218262,
				0.8152647018432617
			]
		},
		{
			"mesh":2,
			"name":"zygote",
			"rotation":[
				0.7468486428260803,
				0,
				0,
				0.6649940609931946
			],
			"scale":[
				2.3547675609588623,
				2.3547675609588623,
				2.3547675609588623
			],
			"translation":[
				6.439298152923584,
				2.762369394302368,
				0.6479464173316956
			]
		}
	],
	"materials":[
		{
			"doubleSided":true,
			"name":"Material.002",
			"pbrMetallicRoughness":{
				"baseColorFactor":[
					0,
					0,
					0,
					1
				],
				"metallicFactor":0,
				"roughnessFactor":0.5
			}
		},
		{
			"alphaMode":"BLEND",
			"doubleSided":true,
			"name":"zygote",
			"pbrMetallicRoughness":{
				"baseColorTexture":{
					"index":0
				},
				"metallicFactor":0,
				"roughnessFactor":0.5
			}
		}
	],
	"meshes":[
		{
			"name":"Cube.004",
			"primitives":[
				{
					"attributes":{
						"POSITION":0,
						"NORMAL":1,
						"TEXCOORD_0":2
					},
					"indices":3,
					"material":0
				}
			]
		},
		{
			"name":"Text.003",
			"primitives":[
				{
					"attributes":{
						"POSITION":4,
						"NORMAL":5,
						"TEXCOORD_0":6
					},
					"indices":7
				}
			]
		},
		{
			"name":"zygote",
			"primitives":[
				{
					"attributes":{
						"POSITION":8,
						"NORMAL":9,
						"TEXCOORD_0":10
					},
					"indices":11,
					"material":1
				}
			]
		}
	],
	"textures":[
		{
			"sampler":0,
			"source":0
		}
	],
	"images":[
		{
			"mimeType":"image/png",
			"name":"zygote",
			"uri":"zygote.png"
		}
	],
	"accessors":[
		{
			"bufferView":0,
			"componentType":5126,
			"count":24,
			"max":[
				1,
				1,
				1
			],
			"min":[
				-1,
				-1,
				-1
			],
			"type":"VEC3"
		},
		{
			"bufferView":1,
			"componentType":5126,
			"count":24,
			"type":"VEC3"
		},
		{
			"bufferView":2,
			"componentType":5126,
			"count":24,
			"type":"VEC2"
		},
		{
			"bufferView":3,
			"componentType":5123,
			"count":36,
			"type":"SCALAR"
		},
		{
			"bufferView":4,
			"componentType":5126,
			"count":5193,
			"max":[
				4.32550048828125,
				0.029999999329447746,
				0.23000000417232513
			],
			"min":[
				-4.310500621795654,
				-0.029999999329447746,
				-0.6820000410079956
			],
			"type":"VEC3"
		},
		{
			"bufferView":5,
			"componentType":5126,
			"count":5193,
			"type":"VEC3"
		},
		{
			"bufferView":6,
			"componentType":5126,
			"count":5193,
			"type":"VEC2"
		},
		{
			"bufferView":7,
			"componentType":5123,
			"count":15312,
			"type":"SCALAR"
		},
		{
			"bufferView":8,
			"componentType":5126,
			"count":4,
			"max":[
				0.6906077265739441,
				0,
				0.5
			],
			"min":[
				-0.6906077265739441,
				0,
				-0.5
			],
			"type":"VEC3"
		},
		{
			"bufferView":9,
			"componentType":5126,
			"count":4,
			"type":"VEC3"
		},
		{
			"bufferView":10,
			"componentType":5126,
			"count":4,
			"type":"VEC2"
		},
		{
			"bufferView":11,
			"componentType":5123,
			"count":6,
			"type":"SCALAR"
		}
	],
	"bufferViews":[
		{
			"buffer":0,
			"byteLength":288,
			"byteOffset":0,
			"target":34962
		},
		{
			"buffer":0,
			"byteLength":288,
			"byteOffset":288,
			"target":34962
		},
		{
			"buffer":0,
			"byteLength":192,
			"byteOffset":576,
			"target":34962
		},
		{
			"buffer":0,
			"byteLength":72,
			"byteOffset":768,
			"target":34963
		},
		{
			"buffer":0,
			"byteLength":62316,
			"byteOffset":840,
			"target":34962
		},
		{
			"buffer":0,
			"byteLength":62316,
			"byteOffset":63156,
			"target":34962
		},
		{
			"buffer":0,
			"byteLength":41544,
			"byteOffset":125472,
			"target":34962
		},
		{
			"buffer":0,
			"byteLength":30624,
			"byteOffset":167016,
			"target":34963
		},
		{
			"buffer":0,
			"byteLength":48,
			"byteOffset":197640,
			"target":34962
		},
		{
			"buffer":0,
			"byteLength":48,
			"byteOffset":197688,
			"target":34962
		},
		{
			"buffer":0,
			"byteLength":32,
			"byteOffset":197736,
			"target":34962
		},
		{
			"buffer":0,
			"byteLength":12,
			"byteOffset":197768,
			"target":34963
		}
	],
	"samplers":[
		{
			"magFilter":9729,
			"minFilter":9987,
			"wrapS":33071,
			"wrapT":33071
		}
	],
	"buffers":[
		{
			"byteLength":197780,
			"uri":"zygote.bin"
		}
	]
}
