{
	"asset":{
		"generator":"Khronos glTF Blender I/O v3.6.27",
		"version":"2.0"
	},
	"scene":0,
	"scenes":[
		{
			"name":"Scene",
			"nodes":[
				0,
				1,
				2,
				3
			]
		}
	],
	"nodes":[
		{
			"mesh":0,
			"name":"10x",
			"rotation":[
				-0.059936270117759705,
				0.010082121938467026,
				-0.09488498419523239,
				0.99363112449646
			],
			"translation":[
				-0.0196746364235878,
				0.20124287903308868,
				0.03376791626214981
			]
		},
		{
			"mesh":1,
			"name":"Text.003",
			"rotation":[
				0.7071068286895752,
				0,
				0,
				0.7071068286895752
			],
			"scale":[
				0.011089053936302662,
				0.02460140734910965,
				0.013473319821059704
			],
			"translation":[
				0.1042805165052414,
				0.21437129378318787,
				0.03357785940170288
			]
		},
		{
			"mesh":2,
			"name":"Cube.006",
			"scale":[
				0.01871500164270401,
				0.009707197546958923,
				9.999999747378752e-05
			],
			"translation":[
				0.11392063647508621,
				0.21929261088371277,
				0.033075347542762756
			]
		},
		{
			"mesh":3,
			"name":"Cube.007",
			"scale":[
				0.05344505235552788,
				0.001245342311449349,
				0
			],
			"translation":[
				0.04462626576423645,
				0.21651828289031982,
				0.03386278823018074
			]
		}
	],
	"materials":[
		{
			"doubleSided":true,
			"name":"metal",
			"pbrMetallicRoughness":{
				"roughnessFactor":0.4833333194255829
			}
		},
		{
			"doubleSided":true,
			"name":"Material.004",
			"pbrMetallicRoughness":{
				"baseColorFactor":[
					0.8000000715255737,
					0.23028378188610077,
					0,
					1
				],
				"metallicFactor":0,
				"roughnessFactor":0.2083333432674408
			}
		},
		{
			"doubleSided":true,
			"name":"glass",
			"pbrMetallicRoughness":{
				"baseColorFactor":[
					0.38437479734420776,
					0.3731274902820587,
					0.3731274902820587,
					1
				],
				"metallicFactor":0,
				"roughnessFactor":0
			}
		},
		{
			"doubleSided":true,
			"name":"black plastic.010",
			"pbrMetallicRoughness":{
				"baseColorFactor":[
					0.0056046294048428535,
					0.0056046294048428535,
					0.0056046294048428535,
					1
				],
				"metallicFactor":0,
				"roughnessFactor":0.6166667342185974
			}
		}
	],
	"meshes":[
		{
			"name":"Cylinder.021",
			"primitives":[
				{
					"attributes":{
						"POSITION":0,
						"NORMAL":1,
						"TEXCOORD_0":2
					},
					"indices":3,
					"material":0
				},
				{
					"attributes":{
						"POSITION":4,
						"NORMAL":5,
						"TEXCOORD_0":6
					},
					"indices":7,
					"material":1
				},
				{
					"attributes":{
						"POSITION":8,
						"NORMAL":9,
						"TEXCOORD_0":10
					},
					"indices":11,
					"material":2
				}
			]
		},
		{
			"name":"Text.002",
			"primitives":[
				{
					"attributes":{
						"POSITION":12,
						"NORMAL":13,
						"TEXCOORD_0":14
					},
					"indices":15,
					"material":3
				}
			]
		},
		{
			"name":"Cube.012",
			"primitives":[
				{
					"attributes":{
						"POSITION":16,
						"NORMAL":17,
						"TEXCOORD_0":18
					},
					"indices":19
				}
			]
		},
		{
			"name":"Cube.013",
			"primitives":[
				{
					"attributes":{
						"POSITION":20,
						"NORMAL":21,
						"TEXCOORD_0":22
					},
					"indices":19
				}
			]
		}
	],
	"accessors":[
		{
			"bufferView":0,
			"componentType":5126,
			"count":6016,
			"max":[
				0.010291293263435364,
				0.01850000023841858,
				0.010291293263435364
			],
			"min":[
				-0.010291293263435364,
				-0.020071683451533318,
				-0.010291293263435364
			],
			"type":"VEC3"
		},
		{
			"bufferView":1,
			"componentType":5126,
			"count":6016,
			"type":"VEC3"
		},
		{
			"bufferView":2,
			"componentType":5126,
			"count":6016,
			"type":"VEC2"
		},
		{
			"bufferView":3,
			"componentType":5123,
			"count":16698,
			"type":"SCALAR"
		},
		{
			"bufferView":4,
			"componentType":5126,
			"count":132,
			"max":[
				0.009527250193059444,
				0.003973281942307949,
				0.009527250193059444
			],
			"min":[
				-0.009527250193059444,
				0.003006430109962821,
				-0.009527250193059444
			],
			"type":"VEC3"
		},
		{
			"bufferView":5,
			"componentType":5126,
			"count":132,
			"type":"VEC3"
		},
		{
			"bufferView":6,
			"componentType":5126,
			"count":132,
			"type":"VEC2"
		},
		{
			"bufferView":7,
			"componentType":5123,
			"count":384,
			"type":"SCALAR"
		},
		{
			"bufferView":8,
			"componentType":5126,
			"count":64,
			"max":[
				0.003487830050289631,
				-0.018871862441301346,
				0.0034878288861364126
			],
			"min":[
				-0.003487827954813838,
				-0.018871866166591644,
				-0.0034878288861364126
			],
			"type":"VEC3"
		},
		{
			"bufferView":9,
			"componentType":5126,
			"count":64,
			"type":"VEC3"
		},
		{
			"bufferView":10,
			"componentType":5126,
			"count":64,
			"type":"VEC2"
		},
		{
			"bufferView":11,
			"componentType":5123,
			"count":186,
			"type":"SCALAR"
		},
		{
			"bufferView":12,
			"componentType":5126,
			"count":456,
			"max":[
				1.5,
				0.010000000707805157,
				0.009000000543892384
			],
			"min":[
				0.20200000703334808,
				-0.010000000707805157,
				-0.6910000443458557
			],
			"type":"VEC3"
		},
		{
			"bufferView":13,
			"componentType":5126,
			"count":456,
			"type":"VEC3"
		},
		{
			"bufferView":14,
			"componentType":5126,
			"count":456,
			"type":"VEC2"
		},
		{
			"bufferView":15,
			"componentType":5123,
			"count":1320,
			"type":"SCALAR"
		},
		{
			"bufferView":16,
			"componentType":5126,
			"count":24,
			"max":[
				1,
				1,
				1
			],
			"min":[
				-1,
				-1,
				-1
			],
			"type":"VEC3"
		},
		{
			"bufferView":17,
			"componentType":5126,
			"count":24,
			"type":"VEC3"
		},
		{
			"bufferView":18,
			"componentType":5126,
			"count":24,
			"type":"VEC2"
		},
		{
			"bufferView":19,
			"componentType":5123,
			"count":36,
			"type":"SCALAR"
		},
		{
			"bufferView":20,
			"componentType":5126,
			"count":24,
			"max":[
				1,
				1,
				1
			],
			"min":[
				-1,
				-1,
				-1
			],
			"type":"VEC3"
		},
		{
			"bufferView":21,
			"componentType":5126,
			"count":24,
			"type":"VEC3"
		},
		{
			"bufferView":22,
			"componentType":5126,
			"count":24,
			"type":"VEC2"
		}
	],
	"bufferViews":[
		{
			"buffer":0,
			"byteLength":72192,
			"byteOffset":0,
			"target":34962
		},
		{
			"buffer":0,
			"byteLength":72192,
			"byteOffset":72192,
			"target":34962
		},
		{
			"buffer":0,
			"byteLength":48128,
			"byteOffset":144384,
			"target":34962
		},
		{
			"buffer":0,
			"byteLength":33396,
			"byteOffset":192512,
			"target":34963
		},
		{
			"buffer":0,
			"byteLength":1584,
			"byteOffset":225908,
			"target":34962
		},
		{
			"buffer":0,
			"byteLength":1584,
			"byteOffset":227492,
			"target":34962
		},
		{
			"buffer":0,
			"byteLength":1056,
			"byteOffset":229076,
			"target":34962
		},
		{
			"buffer":0,
			"byteLength":768,
			"byteOffset":230132,
			"target":34963
		},
		{
			"buffer":0,
			"byteLength":768,
			"byteOffset":230900,
			"target":34962
		},
		{
			"buffer":0,
			"byteLength":768,
			"byteOffset":231668,
			"target":34962
		},
		{
			"buffer":0,
			"byteLength":512,
			"byteOffset":232436,
			"target":34962
		},
		{
			"buffer":0,
			"byteLength":372,
			"byteOffset":232948,
			"target":34963
		},
		{
			"buffer":0,
			"byteLength":5472,
			"byteOffset":233320,
			"target":34962
		},
		{
			"buffer":0,
			"byteLength":5472,
			"byteOffset":238792,
			"target":34962
		},
		{
			"buffer":0,
			"byteLength":3648,
			"byteOffset":244264,
			"target":34962
		},
		{
			"buffer":0,
			"byteLength":2640,
			"byteOffset":247912,
			"target":34963
		},
		{
			"buffer":0,
			"byteLength":288,
			"byteOffset":250552,
			"target":34962
		},
		{
			"buffer":0,
			"byteLength":288,
			"byteOffset":250840,
			"target":34962
		},
		{
			"buffer":0,
			"byteLength":192,
			"byteOffset":251128,
			"target":34962
		},
		{
			"buffer":0,
			"byteLength":72,
			"byteOffset":251320,
			"target":34963
		},
		{
			"buffer":0,
			"byteLength":288,
			"byteOffset":251392,
			"target":34962
		},
		{
			"buffer":0,
			"byteLength":288,
			"byteOffset":251680,
			"target":34962
		},
		{
			"buffer":0,
			"byteLength":192,
			"byteOffset":251968,
			"target":34962
		}
	],
	"buffers":[
		{
			"byteLength":252160,
			"uri":"10x1.bin"
		}
	]
}
