{
	"asset":{
		"generator":"Khronos glTF Blender I/O v3.6.27",
		"version":"2.0"
	},
	"scene":0,
	"scenes":[
		{
			"name":"Scene",
			"nodes":[
				0,
				1,
				2
			]
		}
	],
	"nodes":[
		{
			"mesh":0,
			"name":"Cube.015",
			"scale":[
				2.2828903198242188,
				0.38192975521087646,
				0.10566527396440506
			],
			"translation":[
				1.5616395473480225,
				0.9471849203109741,
				12.925445556640625
			]
		},
		{
			"mesh":1,
			"name":"parasitism",
			"rotation":[
				0.6853200197219849,
				0,
				0,
				0.7282420992851257
			],
			"scale":[
				2.55229115486145,
				2.5522913932800293,
				2.5522913932800293
			],
			"translation":[
				1.5262997150421143,
				2.4680182933807373,
				12.823081016540527
			]
		},
		{
			"mesh":2,
			"name":"Text.015",
			"rotation":[
				0.6846909523010254,
				0.008405092172324657,
				-0.017569582909345627,
				0.7285733222961426
			],
			"scale":[
				0.26361507177352905,
				0.09235487878322601,
				0.2633172273635864
			],
			"translation":[
				1.643319845199585,
				0.8561252355575562,
				13.081073760986328
			]
		}
	],
	"materials":[
		{
			"doubleSided":true,
			"name":"Material.002",
			"pbrMetallicRoughness":{
				"baseColorFactor":[
					0,
					0,
					0,
					1
				],
				"metallicFactor":0,
				"roughnessFactor":0.5
			}
		},
		{
			"alphaMode":"BLEND",
			"doubleSided":true,
			"name":"parasitism",
			"pbrMetallicRoughness":{
				"baseColorTexture":{
					"index":0
				},
				"metallicFactor":0,
				"roughnessFactor":0.5
			}
		}
	],
	"meshes":[
		{
			"name":"Cube.026",
			"primitives":[
				{
					"attributes":{
						"POSITION":0,
						"NORMAL":1,
						"TEXCOORD_0":2
					},
					"indices":3,
					"material":0
				}
			]
		},
		{
			"name":"parasitism",
			"primitives":[
				{
					"attributes":{
						"POSITION":4,
						"NORMAL":5,
						"TEXCOORD_0":6
					},
					"indices":7,
					"material":1
				}
			]
		},
		{
			"name":"Text.014",
			"primitives":[
				{
					"attributes":{
						"POSITION":8,
						"NORMAL":9,
						"TEXCOORD_0":10
					},
					"indices":11
				}
			]
		}
	],
	"textures":[
		{
			"sampler":0,
			"source":0
		}
	],
	"images":[
		{
			"mimeType":"image/png",
			"name":"parasitism",
			"uri":"parasitism.png"
		}
	],
	"accessors":[
		{
			"bufferView":0,
			"componentType":5126,
			"count":24,
			"max":[
				1,
				1,
				1
			],
			"min":[
				-1,
				-1,
				-1
			],
			"type":"VEC3"
		},
		{
			"bufferView":1,
			"componentType":5126,
			"count":24,
			"type":"VEC3"
		},
		{
			"bufferView":2,
			"componentType":5126,
			"count":24,
			"type":"VEC2"
		},
		{
			"bufferView":3,
			"componentType":5123,
			"count":36,
			"type":"SCALAR"
		},
		{
			"bufferView":4,
			"componentType":5126,
			"count":4,
			"max":[
				0.88165682554245,
				0,
				0.5
			],
			"min":[
				-0.88165682554245,
				0,
				-0.5
			],
			"type":"VEC3"
		},
		{
			"bufferView":5,
			"componentType":5126,
			"count":4,
			"type":"VEC3"
		},
		{
			"bufferView":6,
			"componentType":5126,
			"count":4,
			"type":"VEC2"
		},
		{
			"bufferView":7,
			"componentType":5123,
			"count":6,
			"type":"SCALAR"
		},
		{
			"bufferView":8,
			"componentType":5126,
			"count":4018,
			"max":[
				1.977000117301941,
				0.029999999329447746,
				0.009000000543892384
			],
			"min":[
				-1.9660001993179321,
				-0.029999999329447746,
				-0.6820000410079956
			],
			"type":"VEC3"
		},
		{
			"bufferView":9,
			"componentType":5126,
			"count":4018,
			"type":"VEC3"
		},
		{
			"bufferView":10,
			"componentType":5126,
			"count":4018,
			"type":"VEC2"
		},
		{
			"bufferView":11,
			"componentType":5123,
			"count":11844,
			"type":"SCALAR"
		}
	],
	"bufferViews":[
		{
			"buffer":0,
			"byteLength":288,
			"byteOffset":0,
			"target":34962
		},
		{
			"buffer":0,
			"byteLength":288,
			"byteOffset":288,
			"target":34962
		},
		{
			"buffer":0,
			"byteLength":192,
			"byteOffset":576,
			"target":34962
		},
		{
			"buffer":0,
			"byteLength":72,
			"byteOffset":768,
			"target":34963
		},
		{
			"buffer":0,
			"byteLength":48,
			"byteOffset":840,
			"target":34962
		},
		{
			"buffer":0,
			"byteLength":48,
			"byteOffset":888,
			"target":34962
		},
		{
			"buffer":0,
			"byteLength":32,
			"byteOffset":936,
			"target":34962
		},
		{
			"buffer":0,
			"byteLength":12,
			"byteOffset":968,
			"target":34963
		},
		{
			"buffer":0,
			"byteLength":48216,
			"byteOffset":980,
			"target":34962
		},
		{
			"buffer":0,
			"byteLength":48216,
			"byteOffset":49196,
			"target":34962
		},
		{
			"buffer":0,
			"byteLength":32144,
			"byteOffset":97412,
			"target":34962
		},
		{
			"buffer":0,
			"byteLength":23688,
			"byteOffset":129556,
			"target":34963
		}
	],
	"samplers":[
		{
			"magFilter":9729,
			"minFilter":9987,
			"wrapS":33071,
			"wrapT":33071
		}
	],
	"buffers":[
		{
			"byteLength":153244,
			"uri":"parasitism.bin"
		}
	]
}
