{
	"asset":{
		"generator":"Khronos glTF Blender I/O v3.6.27",
		"version":"2.0"
	},
	"scene":0,
	"scenes":[
		{
			"name":"Scene",
			"nodes":[
				0,
				1,
				2
			]
		}
	],
	"nodes":[
		{
			"mesh":0,
			"name":"Cube.012",
			"scale":[
				2.593858242034912,
				0.38192975521087646,
				0.10566527396440506
			],
			"translation":[
				-8.378355026245117,
				1.0419178009033203,
				12.915618896484375
			]
		},
		{
			"mesh":1,
			"name":"Text.010",
			"rotation":[
				0.6846909523010254,
				0.008405092172324657,
				-0.017569582909345627,
				0.7285733222961426
			],
			"scale":[
				0.26361507177352905,
				0.09235487878322601,
				0.2633172273635864
			],
			"translation":[
				-8.427745819091797,
				0.9508581161499023,
				13.071247100830078
			]
		},
		{
			"mesh":2,
			"name":"predation",
			"rotation":[
				0.6897647380828857,
				0,
				0,
				0.724033534526825
			],
			"scale":[
				2.4925618171691895,
				2.4925620555877686,
				2.4925620555877686
			],
			"translation":[
				-8.360614776611328,
				2.4680182933807373,
				12.823081016540527
			]
		}
	],
	"materials":[
		{
			"doubleSided":true,
			"name":"Material.002",
			"pbrMetallicRoughness":{
				"baseColorFactor":[
					0,
					0,
					0,
					1
				],
				"metallicFactor":0,
				"roughnessFactor":0.5
			}
		},
		{
			"alphaMode":"BLEND",
			"doubleSided":true,
			"name":"predation",
			"pbrMetallicRoughness":{
				"baseColorTexture":{
					"index":0
				},
				"metallicFactor":0,
				"roughnessFactor":0.5
			}
		}
	],
	"meshes":[
		{
			"name":"Cube.012",
			"primitives":[
				{
					"attributes":{
						"POSITION":0,
						"NORMAL":1,
						"TEXCOORD_0":2
					},
					"indices":3,
					"material":0
				}
			]
		},
		{
			"name":"Text.010",
			"primitives":[
				{
					"attributes":{
						"POSITION":4,
						"NORMAL":5,
						"TEXCOORD_0":6
					},
					"indices":7
				}
			]
		},
		{
			"name":"predation",
			"primitives":[
				{
					"attributes":{
						"POSITION":8,
						"NORMAL":9,
						"TEXCOORD_0":10
					},
					"indices":11,
					"material":1
				}
			]
		}
	],
	"textures":[
		{
			"sampler":0,
			"source":0
		}
	],
	"images":[
		{
			"mimeType":"image/png",
			"name":"predation",
			"uri":"predation.png"
		}
	],
	"accessors":[
		{
			"bufferView":0,
			"componentType":5126,
			"count":24,
			"max":[
				1,
				1,
				1
			],
			"min":[
				-1,
				-1,
				-1
			],
			"type":"VEC3"
		},
		{
			"bufferView":1,
			"componentType":5126,
			"count":24,
			"type":"VEC3"
		},
		{
			"bufferView":2,
			"componentType":5126,
			"count":24,
			"type":"VEC2"
		},
		{
			"bufferView":3,
			"componentType":5123,
			"count":36,
			"type":"SCALAR"
		},
		{
			"bufferView":4,
			"componentType":5126,
			"count":2934,
			"max":[
				1.9020001888275146,
				0.029999999329447746,
				0.009000000543892384
			],
			"min":[
				-1.8930001258850098,
				-0.029999999329447746,
				-0.6820000410079956
			],
			"type":"VEC3"
		},
		{
			"bufferView":5,
			"componentType":5126,
			"count":2934,
			"type":"VEC3"
		},
		{
			"bufferView":6,
			"componentType":5126,
			"count":2934,
			"type":"VEC2"
		},
		{
			"bufferView":7,
			"componentType":5123,
			"count":8640,
			"type":"SCALAR"
		},
		{
			"bufferView":8,
			"componentType":5126,
			"count":4,
			"max":[
				1,
				0,
				0.5
			],
			"min":[
				-1,
				0,
				-0.5
			],
			"type":"VEC3"
		},
		{
			"bufferView":9,
			"componentType":5126,
			"count":4,
			"type":"VEC3"
		},
		{
			"bufferView":10,
			"componentType":5126,
			"count":4,
			"type":"VEC2"
		},
		{
			"bufferView":11,
			"componentType":5123,
			"count":6,
			"type":"SCALAR"
		}
	],
	"bufferViews":[
		{
			"buffer":0,
			"byteLength":288,
			"byteOffset":0,
			"target":34962
		},
		{
			"buffer":0,
			"byteLength":288,
			"byteOffset":288,
			"target":34962
		},
		{
			"buffer":0,
			"byteLength":192,
			"byteOffset":576,
			"target":34962
		},
		{
			"buffer":0,
			"byteLength":72,
			"byteOffset":768,
			"target":34963
		},
		{
			"buffer":0,
			"byteLength":35208,
			"byteOffset":840,
			"target":34962
		},
		{
			"buffer":0,
			"byteLength":35208,
			"byteOffset":36048,
			"target":34962
		},
		{
			"buffer":0,
			"byteLength":23472,
			"byteOffset":71256,
			"target":34962
		},
		{
			"buffer":0,
			"byteLength":17280,
			"byteOffset":94728,
			"target":34963
		},
		{
			"buffer":0,
			"byteLength":48,
			"byteOffset":112008,
			"target":34962
		},
		{
			"buffer":0,
			"byteLength":48,
			"byteOffset":112056,
			"target":34962
		},
		{
			"buffer":0,
			"byteLength":32,
			"byteOffset":112104,
			"target":34962
		},
		{
			"buffer":0,
			"byteLength":12,
			"byteOffset":112136,
			"target":34963
		}
	],
	"samplers":[
		{
			"magFilter":9729,
			"minFilter":9987,
			"wrapS":33071,
			"wrapT":33071
		}
	],
	"buffers":[
		{
			"byteLength":112148,
			"uri":"predation.bin"
		}
	]
}
