{
	"asset":{
		"generator":"Khronos glTF Blender I/O v3.6.27",
		"version":"2.0"
	},
	"extensionsUsed":[
		"KHR_materials_specular"
	],
	"scene":0,
	"scenes":[
		{
			"name":"Scene",
			"nodes":[
				0,
				1,
				2,
				3,
				4
			]
		}
	],
	"nodes":[
		{
			"mesh":0,
			"name":"mesh_0",
			"rotation":[
				0,
				-0.16270634531974792,
				0,
				0.9866745471954346
			],
			"scale":[
				0.5611790418624878,
				0.5611790418624878,
				0.5611790418624878
			],
			"translation":[
				-6.01574182510376,
				-0.49474501609802246,
				-0.21695414185523987
			]
		},
		{
			"mesh":1,
			"name":"Text.004",
			"rotation":[
				0.6745094060897827,
				0,
				0,
				0.7382662296295166
			],
			"scale":[
				0.5400235652923584,
				0.5400235652923584,
				0.5400235652923584
			],
			"translation":[
				-7.097503185272217,
				1.4375276565551758,
				-0.024341344833374023
			]
		},
		{
			"mesh":2,
			"name":"Object_4.001",
			"rotation":[
				0,
				-0.17728419601917267,
				0,
				0.9841597080230713
			],
			"scale":[
				0.04212505370378494,
				0.01708105206489563,
				0.031903140246868134
			],
			"translation":[
				-6.329098224639893,
				1.0456774234771729,
				0.7547957301139832
			]
		},
		{
			"mesh":3,
			"name":"Object_4.004",
			"rotation":[
				0,
				-0.17728419601917267,
				0,
				0.9841597080230713
			],
			"scale":[
				0.04212505370378494,
				0.01708105206489563,
				0.031903140246868134
			],
			"translation":[
				-5.940835475921631,
				0.8545228838920593,
				-0.5574043393135071
			]
		},
		{
			"mesh":4,
			"name":"Object_4.005",
			"rotation":[
				0,
				-0.17728419601917267,
				0,
				0.9841597080230713
			],
			"scale":[
				0.04212505370378494,
				0.01708105206489563,
				0.031903140246868134
			],
			"translation":[
				-5.840219020843506,
				0.7797858715057373,
				-0.3963947594165802
			]
		}
	],
	"animations":[
		{
			"channels":[
				{
					"sampler":0,
					"target":{
						"node":0,
						"path":"weights"
					}
				}
			],
			"name":"Animation",
			"samplers":[
				{
					"input":29,
					"interpolation":"LINEAR",
					"output":30
				}
			]
		}
	],
	"materials":[
		{
			"doubleSided":true,
			"extensions":{
				"KHR_materials_specular":{
					"specularColorTexture":{
						"index":0
					}
				}
			},
			"name":"material",
			"normalTexture":{
				"index":1,
				"scale":0.20000000298023224,
				"texCoord":2
			},
			"pbrMetallicRoughness":{
				"baseColorTexture":{
					"index":2
				},
				"metallicFactor":0.09090910106897354,
				"metallicRoughnessTexture":{
					"index":3,
					"texCoord":1
				}
			}
		},
		{
			"doubleSided":true,
			"name":"material.002",
			"pbrMetallicRoughness":{
				"baseColorFactor":[
					0.011764699593186378,
					0.011764699593186378,
					0.011764699593186378,
					1
				],
				"metallicFactor":0,
				"roughnessFactor":0.20000000298023224
			}
		}
	],
	"meshes":[
		{
			"extras":{
				"targetNames":[
					"target_0",
					"target_1",
					"target_2"
				]
			},
			"name":"mesh_0",
			"primitives":[
				{
					"attributes":{
						"POSITION":0,
						"NORMAL":1,
						"TEXCOORD_0":2,
						"TEXCOORD_1":3,
						"TEXCOORD_2":4,
						"TEXCOORD_3":5,
						"TEXCOORD_4":6,
						"TEXCOORD_5":7
					},
					"indices":8,
					"material":0,
					"targets":[
						{
							"POSITION":9,
							"NORMAL":10
						},
						{
							"POSITION":11,
							"NORMAL":12
						},
						{
							"POSITION":13,
							"NORMAL":14
						}
					]
				}
			],
			"weights":[
				0,
				0,
				0
			]
		},
		{
			"name":"Text.003",
			"primitives":[
				{
					"attributes":{
						"POSITION":15,
						"NORMAL":16,
						"TEXCOORD_0":17
					},
					"indices":18
				}
			]
		},
		{
			"name":"Object_0.001",
			"primitives":[
				{
					"attributes":{
						"POSITION":19,
						"NORMAL":20,
						"TEXCOORD_0":21
					},
					"indices":22,
					"material":1
				}
			]
		},
		{
			"name":"Object_0.004",
			"primitives":[
				{
					"attributes":{
						"POSITION":23,
						"NORMAL":24,
						"TEXCOORD_0":25
					},
					"indices":22,
					"material":1
				}
			]
		},
		{
			"name":"Object_0.006",
			"primitives":[
				{
					"attributes":{
						"POSITION":26,
						"NORMAL":27,
						"TEXCOORD_0":28
					},
					"indices":22,
					"material":1
				}
			]
		}
	],
	"textures":[
		{
			"sampler":0,
			"source":0
		},
		{
			"sampler":0,
			"source":1
		},
		{
			"sampler":0,
			"source":2
		},
		{
			"sampler":0,
			"source":3
		}
	],
	"images":[
		{
			"mimeType":"image/png",
			"name":"Image",
			"uri":"Image.png"
		},
		{
			"mimeType":"image/png",
			"name":"material_normal",
			"uri":"material_normal.png"
		},
		{
			"mimeType":"image/png",
			"name":"material_baseColor",
			"uri":"material_baseColor.png"
		},
		{
			"mimeType":"image/png",
			"name":"material_metallicRoughness",
			"uri":"material_metallicRoughness.png"
		}
	],
	"accessors":[
		{
			"bufferView":0,
			"componentType":5126,
			"count":26115,
			"max":[
				0.6726844906806946,
				2.7592947483062744,
				2.561612844467163
			],
			"min":[
				-0.6727713942527771,
				-0.019485045224428177,
				-2.877188205718994
			],
			"type":"VEC3"
		},
		{
			"bufferView":1,
			"componentType":5126,
			"count":26115,
			"type":"VEC3"
		},
		{
			"bufferView":2,
			"componentType":5126,
			"count":26115,
			"type":"VEC2"
		},
		{
			"bufferView":3,
			"componentType":5126,
			"count":26115,
			"type":"VEC2"
		},
		{
			"bufferView":4,
			"componentType":5126,
			"count":26115,
			"type":"VEC2"
		},
		{
			"bufferView":5,
			"componentType":5126,
			"count":26115,
			"type":"VEC2"
		},
		{
			"bufferView":6,
			"componentType":5126,
			"count":26115,
			"type":"VEC2"
		},
		{
			"bufferView":7,
			"componentType":5126,
			"count":26115,
			"type":"VEC2"
		},
		{
			"bufferView":8,
			"componentType":5123,
			"count":141546,
			"type":"SCALAR"
		},
		{
			"bufferView":9,
			"componentType":5126,
			"count":26115,
			"max":[
				0.08553671836853027,
				0.007444620132446289,
				0.020353078842163086
			],
			"min":[
				-0.08553624153137207,
				-0.01770949363708496,
				-0.011723495088517666
			],
			"type":"VEC3"
		},
		{
			"bufferView":10,
			"componentType":5126,
			"count":26115,
			"type":"VEC3"
		},
		{
			"bufferView":11,
			"componentType":5126,
			"count":26115,
			"max":[
				0.01329512894153595,
				0.0315096378326416,
				0.02136516571044922
			],
			"min":[
				-0.013121917843818665,
				-0.029011249542236328,
				-0.01108860969543457
			],
			"type":"VEC3"
		},
		{
			"bufferView":12,
			"componentType":5126,
			"count":26115,
			"type":"VEC3"
		},
		{
			"bufferView":13,
			"componentType":5126,
			"count":26115,
			"max":[
				0.00014960765838623047,
				0.0044972896575927734,
				0.0035581588745117188
			],
			"min":[
				-6.620585918426514e-05,
				-0.002001047134399414,
				-0.002658843994140625
			],
			"type":"VEC3"
		},
		{
			"bufferView":14,
			"componentType":5126,
			"count":26115,
			"type":"VEC3"
		},
		{
			"bufferView":15,
			"componentType":5126,
			"count":996,
			"max":[
				4.01300048828125,
				0,
				0.009000000543892384
			],
			"min":[
				0.07000000029802322,
				0,
				-0.6820000410079956
			],
			"type":"VEC3"
		},
		{
			"bufferView":16,
			"componentType":5126,
			"count":996,
			"type":"VEC3"
		},
		{
			"bufferView":17,
			"componentType":5126,
			"count":996,
			"type":"VEC2"
		},
		{
			"bufferView":18,
			"componentType":5123,
			"count":2934,
			"type":"SCALAR"
		},
		{
			"bufferView":19,
			"componentType":5126,
			"count":1883,
			"max":[
				2.1711013317108154,
				1.9430910348892212,
				4.206750869750977
			],
			"min":[
				-2.1727685928344727,
				-1.915372610092163,
				-4.340452671051025
			],
			"type":"VEC3"
		},
		{
			"bufferView":20,
			"componentType":5126,
			"count":1883,
			"type":"VEC3"
		},
		{
			"bufferView":21,
			"componentType":5126,
			"count":1883,
			"type":"VEC2"
		},
		{
			"bufferView":22,
			"componentType":5123,
			"count":4785,
			"type":"SCALAR"
		},
		{
			"bufferView":23,
			"componentType":5126,
			"count":1883,
			"max":[
				2.1711013317108154,
				1.9430910348892212,
				4.206750869750977
			],
			"min":[
				-2.1727685928344727,
				-1.915372610092163,
				-4.340452671051025
			],
			"type":"VEC3"
		},
		{
			"bufferView":24,
			"componentType":5126,
			"count":1883,
			"type":"VEC3"
		},
		{
			"bufferView":25,
			"componentType":5126,
			"count":1883,
			"type":"VEC2"
		},
		{
			"bufferView":26,
			"componentType":5126,
			"count":1883,
			"max":[
				2.1711013317108154,
				1.9430910348892212,
				4.206750869750977
			],
			"min":[
				-2.1727685928344727,
				-1.915372610092163,
				-4.340452671051025
			],
			"type":"VEC3"
		},
		{
			"bufferView":27,
			"componentType":5126,
			"count":1883,
			"type":"VEC3"
		},
		{
			"bufferView":28,
			"componentType":5126,
			"count":1883,
			"type":"VEC2"
		},
		{
			"bufferView":29,
			"componentType":5126,
			"count":314,
			"max":[
				13.083333333333334
			],
			"min":[
				0.041666666666666664
			],
			"type":"SCALAR"
		},
		{
			"bufferView":30,
			"componentType":5126,
			"count":942,
			"type":"SCALAR"
		}
	],
	"bufferViews":[
		{
			"buffer":0,
			"byteLength":313380,
			"byteOffset":0,
			"target":34962
		},
		{
			"buffer":0,
			"byteLength":313380,
			"byteOffset":313380,
			"target":34962
		},
		{
			"buffer":0,
			"byteLength":208920,
			"byteOffset":626760,
			"target":34962
		},
		{
			"buffer":0,
			"byteLength":208920,
			"byteOffset":835680,
			"target":34962
		},
		{
			"buffer":0,
			"byteLength":208920,
			"byteOffset":1044600,
			"target":34962
		},
		{
			"buffer":0,
			"byteLength":208920,
			"byteOffset":1253520,
			"target":34962
		},
		{
			"buffer":0,
			"byteLength":208920,
			"byteOffset":1462440,
			"target":34962
		},
		{
			"buffer":0,
			"byteLength":208920,
			"byteOffset":1671360,
			"target":34962
		},
		{
			"buffer":0,
			"byteLength":283092,
			"byteOffset":1880280,
			"target":34963
		},
		{
			"buffer":0,
			"byteLength":313380,
			"byteOffset":2163372,
			"target":34962
		},
		{
			"buffer":0,
			"byteLength":313380,
			"byteOffset":2476752,
			"target":34962
		},
		{
			"buffer":0,
			"byteLength":313380,
			"byteOffset":2790132,
			"target":34962
		},
		{
			"buffer":0,
			"byteLength":313380,
			"byteOffset":3103512,
			"target":34962
		},
		{
			"buffer":0,
			"byteLength":313380,
			"byteOffset":3416892,
			"target":34962
		},
		{
			"buffer":0,
			"byteLength":313380,
			"byteOffset":3730272,
			"target":34962
		},
		{
			"buffer":0,
			"byteLength":11952,
			"byteOffset":4043652,
			"target":34962
		},
		{
			"buffer":0,
			"byteLength":11952,
			"byteOffset":4055604,
			"target":34962
		},
		{
			"buffer":0,
			"byteLength":7968,
			"byteOffset":4067556,
			"target":34962
		},
		{
			"buffer":0,
			"byteLength":5868,
			"byteOffset":4075524,
			"target":34963
		},
		{
			"buffer":0,
			"byteLength":22596,
			"byteOffset":4081392,
			"target":34962
		},
		{
			"buffer":0,
			"byteLength":22596,
			"byteOffset":4103988,
			"target":34962
		},
		{
			"buffer":0,
			"byteLength":15064,
			"byteOffset":4126584,
			"target":34962
		},
		{
			"buffer":0,
			"byteLength":9570,
			"byteOffset":4141648,
			"target":34963
		},
		{
			"buffer":0,
			"byteLength":22596,
			"byteOffset":4151220,
			"target":34962
		},
		{
			"buffer":0,
			"byteLength":22596,
			"byteOffset":4173816,
			"target":34962
		},
		{
			"buffer":0,
			"byteLength":15064,
			"byteOffset":4196412,
			"target":34962
		},
		{
			"buffer":0,
			"byteLength":22596,
			"byteOffset":4211476,
			"target":34962
		},
		{
			"buffer":0,
			"byteLength":22596,
			"byteOffset":4234072,
			"target":34962
		},
		{
			"buffer":0,
			"byteLength":15064,
			"byteOffset":4256668,
			"target":34962
		},
		{
			"buffer":0,
			"byteLength":1256,
			"byteOffset":4271732
		},
		{
			"buffer":0,
			"byteLength":3768,
			"byteOffset":4272988
		}
	],
	"samplers":[
		{
			"magFilter":9729,
			"minFilter":9987
		}
	],
	"buffers":[
		{
			"byteLength":4276756,
			"uri":"parasitism.bin"
		}
	]
}
