{
	"asset":{
		"generator":"Khronos glTF Blender I/O v3.6.27",
		"version":"2.0"
	},
	"scene":0,
	"scenes":[
		{
			"name":"Scene",
			"nodes":[
				0,
				1,
				2,
				3,
				4,
				5
			]
		}
	],
	"nodes":[
		{
			"mesh":0,
			"name":"Plane.046",
			"rotation":[
				-0.5003611445426941,
				0.5003611445426941,
				-0.4996385872364044,
				0.4996386766433716
			],
			"scale":[
				0.12148329615592957,
				1,
				0.6671497225761414
			],
			"translation":[
				-0.2461937665939331,
				-0.36768096685409546,
				0.8661131858825684
			]
		},
		{
			"mesh":1,
			"name":"Text.035",
			"rotation":[
				0.7071067690849304,
				0.0005109042976982892,
				-0.000510904414113611,
				0.7071065306663513
			],
			"scale":[
				0.25816208124160767,
				0.913830041885376,
				0.25816214084625244
			],
			"translation":[
				-0.6763838529586792,
				-0.4531406760215759,
				0.8749966621398926
			]
		},
		{
			"mesh":2,
			"name":"fish low poly",
			"scale":[
				0.2825908660888672,
				0.2825908660888672,
				0.2825908660888672
			]
		},
		{
			"mesh":3,
			"name":"fish low poly.001",
			"scale":[
				0.2825908660888672,
				0.2825908660888672,
				0.2825908660888672
			]
		},
		{
			"mesh":4,
			"name":"fish low poly.002",
			"scale":[
				0.2825908660888672,
				0.2825908660888672,
				0.2825908660888672
			]
		},
		{
			"mesh":5,
			"name":"Plane.047",
			"scale":[
				1.7542619705200195,
				1.3016948699951172,
				1.601948618888855
			],
			"translation":[
				0.2183588743209839,
				-0.17596793174743652,
				0.1005939245223999
			]
		}
	],
	"materials":[
		{
			"doubleSided":true,
			"name":"Material.066",
			"pbrMetallicRoughness":{
				"baseColorFactor":[
					0.800000011920929,
					0.800000011920929,
					0.800000011920929,
					1
				],
				"metallicFactor":0,
				"roughnessFactor":0.5
			}
		},
		{
			"doubleSided":true,
			"name":"Material.067",
			"pbrMetallicRoughness":{
				"baseColorFactor":[
					0,
					0,
					0,
					1
				],
				"metallicFactor":0,
				"roughnessFactor":0.5
			}
		},
		{
			"doubleSided":true,
			"name":"Material.017",
			"pbrMetallicRoughness":{
				"baseColorFactor":[
					0.8000000715255737,
					0.18747730553150177,
					0.007980799302458763,
					1
				],
				"metallicFactor":0,
				"roughnessFactor":0.5
			}
		},
		{
			"doubleSided":true,
			"name":"Material.018",
			"pbrMetallicRoughness":{
				"baseColorFactor":[
					0.8000000715255737,
					0.18747730553150177,
					0.007980799302458763,
					1
				],
				"metallicFactor":0,
				"roughnessFactor":0.5
			}
		},
		{
			"doubleSided":true,
			"name":"Material.020",
			"pbrMetallicRoughness":{
				"baseColorFactor":[
					0.8000000715255737,
					0.18747730553150177,
					0.007980799302458763,
					1
				],
				"metallicFactor":0,
				"roughnessFactor":0.5
			}
		},
		{
			"doubleSided":true,
			"name":"Material.001",
			"pbrMetallicRoughness":{
				"baseColorFactor":[
					0.0025405278429389,
					0.23061290383338928,
					0.8000000715255737,
					1
				],
				"metallicFactor":0,
				"roughnessFactor":0.14544856548309326
			}
		}
	],
	"meshes":[
		{
			"name":"Plane.060",
			"primitives":[
				{
					"attributes":{
						"POSITION":0,
						"NORMAL":1,
						"TEXCOORD_0":2
					},
					"indices":3,
					"material":0
				}
			]
		},
		{
			"name":"Text.004",
			"primitives":[
				{
					"attributes":{
						"POSITION":4,
						"NORMAL":5,
						"TEXCOORD_0":6
					},
					"indices":7,
					"material":1
				}
			]
		},
		{
			"name":"Sphere.009",
			"primitives":[
				{
					"attributes":{
						"POSITION":8,
						"NORMAL":9,
						"TEXCOORD_0":10
					},
					"indices":11,
					"material":2
				}
			]
		},
		{
			"name":"Sphere.010",
			"primitives":[
				{
					"attributes":{
						"POSITION":12,
						"NORMAL":13,
						"TEXCOORD_0":14
					},
					"indices":11,
					"material":3
				}
			]
		},
		{
			"name":"Sphere.011",
			"primitives":[
				{
					"attributes":{
						"POSITION":15,
						"NORMAL":16,
						"TEXCOORD_0":17
					},
					"indices":11,
					"material":4
				}
			]
		},
		{
			"name":"Plane",
			"primitives":[
				{
					"attributes":{
						"POSITION":18,
						"NORMAL":19,
						"TEXCOORD_0":20
					},
					"indices":3,
					"material":5
				}
			]
		}
	],
	"accessors":[
		{
			"bufferView":0,
			"componentType":5126,
			"count":4,
			"max":[
				1,
				0,
				1
			],
			"min":[
				-1,
				0,
				-1
			],
			"type":"VEC3"
		},
		{
			"bufferView":1,
			"componentType":5126,
			"count":4,
			"type":"VEC3"
		},
		{
			"bufferView":2,
			"componentType":5126,
			"count":4,
			"type":"VEC2"
		},
		{
			"bufferView":3,
			"componentType":5123,
			"count":6,
			"type":"SCALAR"
		},
		{
			"bufferView":4,
			"componentType":5126,
			"count":1844,
			"max":[
				3.26200008392334,
				0.020000001415610313,
				0.009000000543892384
			],
			"min":[
				0.07400000095367432,
				-0.020000001415610313,
				-0.6820000410079956
			],
			"type":"VEC3"
		},
		{
			"bufferView":5,
			"componentType":5126,
			"count":1844,
			"type":"VEC3"
		},
		{
			"bufferView":6,
			"componentType":5126,
			"count":1844,
			"type":"VEC2"
		},
		{
			"bufferView":7,
			"componentType":5123,
			"count":5412,
			"type":"SCALAR"
		},
		{
			"bufferView":8,
			"componentType":5126,
			"count":768,
			"max":[
				1.644895076751709,
				0.8670812249183655,
				0.8610337376594543
			],
			"min":[
				-1.6527554988861084,
				-0.617250382900238,
				-0.5857453942298889
			],
			"type":"VEC3"
		},
		{
			"bufferView":9,
			"componentType":5126,
			"count":768,
			"type":"VEC3"
		},
		{
			"bufferView":10,
			"componentType":5126,
			"count":768,
			"type":"VEC2"
		},
		{
			"bufferView":11,
			"componentType":5123,
			"count":2874,
			"type":"SCALAR"
		},
		{
			"bufferView":12,
			"componentType":5126,
			"count":768,
			"max":[
				1.644895076751709,
				0.8670812249183655,
				0.8610337376594543
			],
			"min":[
				-1.6527554988861084,
				-0.617250382900238,
				-0.5857453942298889
			],
			"type":"VEC3"
		},
		{
			"bufferView":13,
			"componentType":5126,
			"count":768,
			"type":"VEC3"
		},
		{
			"bufferView":14,
			"componentType":5126,
			"count":768,
			"type":"VEC2"
		},
		{
			"bufferView":15,
			"componentType":5126,
			"count":768,
			"max":[
				1.644895076751709,
				0.8670812249183655,
				0.8610337376594543
			],
			"min":[
				-1.6527554988861084,
				-0.617250382900238,
				-0.5857453942298889
			],
			"type":"VEC3"
		},
		{
			"bufferView":16,
			"componentType":5126,
			"count":768,
			"type":"VEC3"
		},
		{
			"bufferView":17,
			"componentType":5126,
			"count":768,
			"type":"VEC2"
		},
		{
			"bufferView":18,
			"componentType":5126,
			"count":4,
			"max":[
				1,
				0,
				1
			],
			"min":[
				-1,
				0,
				-1
			],
			"type":"VEC3"
		},
		{
			"bufferView":19,
			"componentType":5126,
			"count":4,
			"type":"VEC3"
		},
		{
			"bufferView":20,
			"componentType":5126,
			"count":4,
			"type":"VEC2"
		}
	],
	"bufferViews":[
		{
			"buffer":0,
			"byteLength":48,
			"byteOffset":0,
			"target":34962
		},
		{
			"buffer":0,
			"byteLength":48,
			"byteOffset":48,
			"target":34962
		},
		{
			"buffer":0,
			"byteLength":32,
			"byteOffset":96,
			"target":34962
		},
		{
			"buffer":0,
			"byteLength":12,
			"byteOffset":128,
			"target":34963
		},
		{
			"buffer":0,
			"byteLength":22128,
			"byteOffset":140,
			"target":34962
		},
		{
			"buffer":0,
			"byteLength":22128,
			"byteOffset":22268,
			"target":34962
		},
		{
			"buffer":0,
			"byteLength":14752,
			"byteOffset":44396,
			"target":34962
		},
		{
			"buffer":0,
			"byteLength":10824,
			"byteOffset":59148,
			"target":34963
		},
		{
			"buffer":0,
			"byteLength":9216,
			"byteOffset":69972,
			"target":34962
		},
		{
			"buffer":0,
			"byteLength":9216,
			"byteOffset":79188,
			"target":34962
		},
		{
			"buffer":0,
			"byteLength":6144,
			"byteOffset":88404,
			"target":34962
		},
		{
			"buffer":0,
			"byteLength":5748,
			"byteOffset":94548,
			"target":34963
		},
		{
			"buffer":0,
			"byteLength":9216,
			"byteOffset":100296,
			"target":34962
		},
		{
			"buffer":0,
			"byteLength":9216,
			"byteOffset":109512,
			"target":34962
		},
		{
			"buffer":0,
			"byteLength":6144,
			"byteOffset":118728,
			"target":34962
		},
		{
			"buffer":0,
			"byteLength":9216,
			"byteOffset":124872,
			"target":34962
		},
		{
			"buffer":0,
			"byteLength":9216,
			"byteOffset":134088,
			"target":34962
		},
		{
			"buffer":0,
			"byteLength":6144,
			"byteOffset":143304,
			"target":34962
		},
		{
			"buffer":0,
			"byteLength":48,
			"byteOffset":149448,
			"target":34962
		},
		{
			"buffer":0,
			"byteLength":48,
			"byteOffset":149496,
			"target":34962
		},
		{
			"buffer":0,
			"byteLength":32,
			"byteOffset":149544,
			"target":34962
		}
	],
	"buffers":[
		{
			"byteLength":149576,
			"uri":"cutiefishes.bin"
		}
	]
}
