{
	"asset":{
		"generator":"Khronos glTF Blender I/O v3.6.27",
		"version":"2.0"
	},
	"scene":0,
	"scenes":[
		{
			"name":"Scene",
			"nodes":[
				2,
				3,
				4
			]
		}
	],
	"nodes":[
		{
			"mesh":0,
			"name":"Object_2"
		},
		{
			"children":[
				0
			],
			"name":"dziecko.obj.cleaner.materialmerger.gles"
		},
		{
			"children":[
				1
			],
			"name":"Sketchfab_model",
			"rotation":[
				-0.7071061134338379,
				0.0010430364636704326,
				0.0010430365800857544,
				0.7071059942245483
			],
			"scale":[
				1.375577449798584,
				1.3755775690078735,
				1.3755775690078735
			],
			"translation":[
				-22.869937896728516,
				0,
				9.751697540283203
			]
		},
		{
			"mesh":1,
			"name":"Plane.005",
			"rotation":[
				-0.5144638419151306,
				0.5144638419151306,
				-0.48510512709617615,
				0.48510506749153137
			],
			"scale":[
				0.7570790648460388,
				4.951536655426025,
				2.082977294921875
			],
			"translation":[
				-21.406667709350586,
				-2.085207223892212,
				13.660913467407227
			]
		},
		{
			"mesh":2,
			"name":"Text.004",
			"rotation":[
				0.6712220907211304,
				0,
				0,
				0.7412562966346741
			],
			"scale":[
				1.3427927494049072,
				1.3427925109863281,
				1.3427925109863281
			],
			"translation":[
				-24.561614990234375,
				-2.4987738132476807,
				14.058870315551758
			]
		}
	],
	"materials":[
		{
			"doubleSided":true,
			"name":"baby.001",
			"pbrMetallicRoughness":{
				"baseColorTexture":{
					"index":0
				},
				"metallicFactor":0,
				"roughnessFactor":0.5009304881095886
			}
		},
		{
			"doubleSided":true,
			"name":"Material.048",
			"pbrMetallicRoughness":{
				"baseColorFactor":[
					0.800000011920929,
					0.800000011920929,
					0.800000011920929,
					1
				],
				"metallicFactor":0,
				"roughnessFactor":0.5
			}
		},
		{
			"doubleSided":true,
			"name":"Material.006",
			"pbrMetallicRoughness":{
				"baseColorFactor":[
					0,
					0,
					0,
					1
				],
				"metallicFactor":0,
				"roughnessFactor":0.5
			}
		}
	],
	"meshes":[
		{
			"name":"Object_0.001",
			"primitives":[
				{
					"attributes":{
						"POSITION":0,
						"NORMAL":1,
						"TEXCOORD_0":2
					},
					"indices":3,
					"material":0
				}
			]
		},
		{
			"name":"Plane.005",
			"primitives":[
				{
					"attributes":{
						"POSITION":4,
						"NORMAL":5,
						"TEXCOORD_0":6
					},
					"indices":7,
					"material":1
				}
			]
		},
		{
			"name":"Text.004",
			"primitives":[
				{
					"attributes":{
						"POSITION":8,
						"NORMAL":9,
						"TEXCOORD_0":10
					},
					"indices":11,
					"material":2
				}
			]
		}
	],
	"textures":[
		{
			"sampler":0,
			"source":0
		}
	],
	"images":[
		{
			"mimeType":"image/png",
			"name":"baby.001_baseColor",
			"uri":"baby_001_baseColor.png"
		}
	],
	"accessors":[
		{
			"bufferView":0,
			"componentType":5126,
			"count":7015,
			"max":[
				3.3764336109161377,
				0.3483887016773224,
				2.4311134815216064
			],
			"min":[
				-2.5882391929626465,
				-3.3227319717407227,
				-0.09283426403999329
			],
			"type":"VEC3"
		},
		{
			"bufferView":1,
			"componentType":5126,
			"count":7015,
			"type":"VEC3"
		},
		{
			"bufferView":2,
			"componentType":5126,
			"count":7015,
			"type":"VEC2"
		},
		{
			"bufferView":3,
			"componentType":5123,
			"count":22194,
			"type":"SCALAR"
		},
		{
			"bufferView":4,
			"componentType":5126,
			"count":4,
			"max":[
				1,
				0,
				1
			],
			"min":[
				-1,
				0,
				-1
			],
			"type":"VEC3"
		},
		{
			"bufferView":5,
			"componentType":5126,
			"count":4,
			"type":"VEC3"
		},
		{
			"bufferView":6,
			"componentType":5126,
			"count":4,
			"type":"VEC2"
		},
		{
			"bufferView":7,
			"componentType":5123,
			"count":6,
			"type":"SCALAR"
		},
		{
			"bufferView":8,
			"componentType":5126,
			"count":1568,
			"max":[
				3.318000078201294,
				0.040000006556510925,
				0.23000000417232513
			],
			"min":[
				1.4650001525878906,
				-0.040000006556510925,
				-0.6820000410079956
			],
			"type":"VEC3"
		},
		{
			"bufferView":9,
			"componentType":5126,
			"count":1568,
			"type":"VEC3"
		},
		{
			"bufferView":10,
			"componentType":5126,
			"count":1568,
			"type":"VEC2"
		},
		{
			"bufferView":11,
			"componentType":5123,
			"count":4656,
			"type":"SCALAR"
		}
	],
	"bufferViews":[
		{
			"buffer":0,
			"byteLength":84180,
			"byteOffset":0,
			"target":34962
		},
		{
			"buffer":0,
			"byteLength":84180,
			"byteOffset":84180,
			"target":34962
		},
		{
			"buffer":0,
			"byteLength":56120,
			"byteOffset":168360,
			"target":34962
		},
		{
			"buffer":0,
			"byteLength":44388,
			"byteOffset":224480,
			"target":34963
		},
		{
			"buffer":0,
			"byteLength":48,
			"byteOffset":268868,
			"target":34962
		},
		{
			"buffer":0,
			"byteLength":48,
			"byteOffset":268916,
			"target":34962
		},
		{
			"buffer":0,
			"byteLength":32,
			"byteOffset":268964,
			"target":34962
		},
		{
			"buffer":0,
			"byteLength":12,
			"byteOffset":268996,
			"target":34963
		},
		{
			"buffer":0,
			"byteLength":18816,
			"byteOffset":269008,
			"target":34962
		},
		{
			"buffer":0,
			"byteLength":18816,
			"byteOffset":287824,
			"target":34962
		},
		{
			"buffer":0,
			"byteLength":12544,
			"byteOffset":306640,
			"target":34962
		},
		{
			"buffer":0,
			"byteLength":9312,
			"byteOffset":319184,
			"target":34963
		}
	],
	"samplers":[
		{
			"magFilter":9729,
			"minFilter":9987
		}
	],
	"buffers":[
		{
			"byteLength":328496,
			"uri":"baby.bin"
		}
	]
}
