{
	"asset":{
		"generator":"Khronos glTF Blender I/O v3.6.27",
		"version":"2.0"
	},
	"scene":0,
	"scenes":[
		{
			"name":"Scene",
			"nodes":[
				0,
				1,
				2,
				3
			]
		}
	],
	"nodes":[
		{
			"mesh":0,
			"name":"mesh_0-material",
			"scale":[
				4.8487138748168945,
				4.848714828491211,
				4.848714828491211
			],
			"translation":[
				6.59207010269165,
				0,
				-32.37084197998047
			]
		},
		{
			"mesh":1,
			"name":"mesh_1-material",
			"scale":[
				4.8487138748168945,
				4.848714828491211,
				4.848714828491211
			],
			"translation":[
				6.59207010269165,
				0,
				-32.37084197998047
			]
		},
		{
			"mesh":2,
			"name":"mesh_2-material",
			"scale":[
				4.8487138748168945,
				4.848714828491211,
				4.848714828491211
			],
			"translation":[
				6.59207010269165,
				0,
				-32.37084197998047
			]
		},
		{
			"mesh":3,
			"name":"mesh_3-material",
			"scale":[
				4.8487138748168945,
				4.848714828491211,
				4.848714828491211
			],
			"translation":[
				6.59207010269165,
				0,
				-32.37084197998047
			]
		}
	],
	"materials":[
		{
			"doubleSided":true,
			"name":"mesh_0",
			"pbrMetallicRoughness":{
				"baseColorTexture":{
					"index":0
				},
				"metallicFactor":0,
				"roughnessFactor":0.6000000238418579
			}
		},
		{
			"doubleSided":true,
			"name":"mesh_1",
			"pbrMetallicRoughness":{
				"baseColorTexture":{
					"index":1
				},
				"metallicFactor":0,
				"roughnessFactor":0.6000000238418579
			}
		},
		{
			"doubleSided":true,
			"name":"mesh_2",
			"pbrMetallicRoughness":{
				"baseColorTexture":{
					"index":2
				},
				"metallicFactor":0,
				"roughnessFactor":0.6000000238418579
			}
		},
		{
			"doubleSided":true,
			"name":"mesh_3",
			"pbrMetallicRoughness":{
				"baseColorTexture":{
					"index":3
				},
				"metallicFactor":0,
				"roughnessFactor":0.6000000238418579
			}
		}
	],
	"meshes":[
		{
			"name":"mesh_0-material",
			"primitives":[
				{
					"attributes":{
						"POSITION":0,
						"NORMAL":1,
						"TEXCOORD_0":2
					},
					"indices":3,
					"material":0
				}
			]
		},
		{
			"name":"mesh_1-material",
			"primitives":[
				{
					"attributes":{
						"POSITION":4,
						"NORMAL":5,
						"TEXCOORD_0":6
					},
					"indices":7,
					"material":1
				}
			]
		},
		{
			"name":"mesh_2-material",
			"primitives":[
				{
					"attributes":{
						"POSITION":8,
						"NORMAL":9,
						"TEXCOORD_0":10
					},
					"indices":11,
					"material":2
				}
			]
		},
		{
			"name":"mesh_3-material",
			"primitives":[
				{
					"attributes":{
						"POSITION":12,
						"NORMAL":13,
						"TEXCOORD_0":14
					},
					"indices":15,
					"material":3
				}
			]
		}
	],
	"textures":[
		{
			"sampler":0,
			"source":0
		},
		{
			"sampler":0,
			"source":1
		},
		{
			"sampler":0,
			"source":2
		},
		{
			"sampler":0,
			"source":3
		}
	],
	"images":[
		{
			"mimeType":"image/png",
			"name":"mesh_0_baseColor",
			"uri":"mesh_0_baseColor.png"
		},
		{
			"mimeType":"image/png",
			"name":"mesh_1_baseColor",
			"uri":"mesh_1_baseColor.png"
		},
		{
			"mimeType":"image/png",
			"name":"mesh_2_baseColor",
			"uri":"mesh_2_baseColor.png"
		},
		{
			"mimeType":"image/png",
			"name":"mesh_3_baseColor",
			"uri":"mesh_3_baseColor.png"
		}
	],
	"accessors":[
		{
			"bufferView":0,
			"componentType":5126,
			"count":1486,
			"max":[
				1.1632200479507446,
				2.4347400665283203,
				0.3016740083694458
			],
			"min":[
				-1.1632200479507446,
				0.10559599846601486,
				-0.28460198640823364
			],
			"type":"VEC3"
		},
		{
			"bufferView":1,
			"componentType":5126,
			"count":1486,
			"type":"VEC3"
		},
		{
			"bufferView":2,
			"componentType":5126,
			"count":1486,
			"type":"VEC2"
		},
		{
			"bufferView":3,
			"componentType":5123,
			"count":6963,
			"type":"SCALAR"
		},
		{
			"bufferView":4,
			"componentType":5126,
			"count":1006,
			"max":[
				0.8930789828300476,
				2.063960075378418,
				0.18835900723934174
			],
			"min":[
				-0.8930789828300476,
				0.008495986461639404,
				-0.24670299887657166
			],
			"type":"VEC3"
		},
		{
			"bufferView":5,
			"componentType":5126,
			"count":1006,
			"type":"VEC3"
		},
		{
			"bufferView":6,
			"componentType":5126,
			"count":1006,
			"type":"VEC2"
		},
		{
			"bufferView":7,
			"componentType":5123,
			"count":4992,
			"type":"SCALAR"
		},
		{
			"bufferView":8,
			"componentType":5126,
			"count":414,
			"max":[
				0.3049890100955963,
				2.5472300052642822,
				0.210875004529953
			],
			"min":[
				-0.30527499318122864,
				0.065311960875988,
				-0.3750250041484833
			],
			"type":"VEC3"
		},
		{
			"bufferView":9,
			"componentType":5126,
			"count":414,
			"type":"VEC3"
		},
		{
			"bufferView":10,
			"componentType":5126,
			"count":414,
			"type":"VEC2"
		},
		{
			"bufferView":11,
			"componentType":5123,
			"count":1470,
			"type":"SCALAR"
		},
		{
			"bufferView":12,
			"componentType":5126,
			"count":194,
			"max":[
				0.14587189257144928,
				2.340820074081421,
				0.1668979972600937
			],
			"min":[
				-0.14587099850177765,
				2.1880900859832764,
				0.09412597864866257
			],
			"type":"VEC3"
		},
		{
			"bufferView":13,
			"componentType":5126,
			"count":194,
			"type":"VEC3"
		},
		{
			"bufferView":14,
			"componentType":5126,
			"count":194,
			"type":"VEC2"
		},
		{
			"bufferView":15,
			"componentType":5123,
			"count":1056,
			"type":"SCALAR"
		}
	],
	"bufferViews":[
		{
			"buffer":0,
			"byteLength":17832,
			"byteOffset":0,
			"target":34962
		},
		{
			"buffer":0,
			"byteLength":17832,
			"byteOffset":17832,
			"target":34962
		},
		{
			"buffer":0,
			"byteLength":11888,
			"byteOffset":35664,
			"target":34962
		},
		{
			"buffer":0,
			"byteLength":13926,
			"byteOffset":47552,
			"target":34963
		},
		{
			"buffer":0,
			"byteLength":12072,
			"byteOffset":61480,
			"target":34962
		},
		{
			"buffer":0,
			"byteLength":12072,
			"byteOffset":73552,
			"target":34962
		},
		{
			"buffer":0,
			"byteLength":8048,
			"byteOffset":85624,
			"target":34962
		},
		{
			"buffer":0,
			"byteLength":9984,
			"byteOffset":93672,
			"target":34963
		},
		{
			"buffer":0,
			"byteLength":4968,
			"byteOffset":103656,
			"target":34962
		},
		{
			"buffer":0,
			"byteLength":4968,
			"byteOffset":108624,
			"target":34962
		},
		{
			"buffer":0,
			"byteLength":3312,
			"byteOffset":113592,
			"target":34962
		},
		{
			"buffer":0,
			"byteLength":2940,
			"byteOffset":116904,
			"target":34963
		},
		{
			"buffer":0,
			"byteLength":2328,
			"byteOffset":119844,
			"target":34962
		},
		{
			"buffer":0,
			"byteLength":2328,
			"byteOffset":122172,
			"target":34962
		},
		{
			"buffer":0,
			"byteLength":1552,
			"byteOffset":124500,
			"target":34962
		},
		{
			"buffer":0,
			"byteLength":2112,
			"byteOffset":126052,
			"target":34963
		}
	],
	"samplers":[
		{
			"magFilter":9729,
			"minFilter":9987
		}
	],
	"buffers":[
		{
			"byteLength":128164,
			"uri":"realmama.bin"
		}
	]
}
