{
	"asset":{
		"generator":"Khronos glTF Blender I/O v3.6.27",
		"version":"2.0"
	},
	"scene":0,
	"scenes":[
		{
			"name":"Scene",
			"nodes":[
				0,
				1,
				2,
				3
			]
		}
	],
	"nodes":[
		{
			"mesh":0,
			"name":"Object_6.001",
			"rotation":[
				0.8524765968322754,
				-0.06586349010467529,
				0.5183019042015076,
				0.017573652788996696
			],
			"scale":[
				-0.09418359398841858,
				-0.09418360143899918,
				-0.09418359398841858
			],
			"translation":[
				1.6185122728347778,
				-0.45796436071395874,
				1.6206841468811035
			]
		},
		{
			"mesh":1,
			"name":"Object_6.002",
			"rotation":[
				0.8524765968322754,
				-0.06586349010467529,
				0.5183019042015076,
				0.017573652788996696
			],
			"scale":[
				-0.09418359398841858,
				-0.09418360143899918,
				-0.09418359398841858
			],
			"translation":[
				2.018267869949341,
				-0.7154890298843384,
				1.559262990951538
			]
		},
		{
			"mesh":2,
			"name":"Object_6.003",
			"rotation":[
				0.8524765968322754,
				-0.06586349010467529,
				0.5183019042015076,
				0.017573652788996696
			],
			"scale":[
				-0.09418359398841858,
				-0.09418360143899918,
				-0.09418359398841858
			],
			"translation":[
				2.241908311843872,
				-0.3837171196937561,
				1.8570153713226318
			]
		},
		{
			"mesh":3,
			"name":"Object_6.004",
			"rotation":[
				0.8524765968322754,
				-0.06586349010467529,
				0.5183019042015076,
				0.017573652788996696
			],
			"scale":[
				-0.09418359398841858,
				-0.09418360143899918,
				-0.09418359398841858
			],
			"translation":[
				2.3666610717773438,
				0.0074384212493896484,
				2.1829752922058105
			]
		}
	],
	"materials":[
		{
			"doubleSided":true,
			"name":"Scene_-_Root",
			"pbrMetallicRoughness":{
				"baseColorFactor":[
					0.04718559607863426,
					0.0845467671751976,
					0.08984075486660004,
					1
				],
				"metallicFactor":0,
				"roughnessFactor":0.6000000238418579
			}
		}
	],
	"meshes":[
		{
			"name":"Object_1.005",
			"primitives":[
				{
					"attributes":{
						"POSITION":0,
						"NORMAL":1,
						"TEXCOORD_0":2
					},
					"indices":3,
					"material":0
				}
			]
		},
		{
			"name":"Object_1.001",
			"primitives":[
				{
					"attributes":{
						"POSITION":4,
						"NORMAL":5,
						"TEXCOORD_0":6
					},
					"indices":3,
					"material":0
				}
			]
		},
		{
			"name":"Object_1.004",
			"primitives":[
				{
					"attributes":{
						"POSITION":7,
						"NORMAL":8,
						"TEXCOORD_0":9
					},
					"indices":3,
					"material":0
				}
			]
		},
		{
			"name":"Object_1.006",
			"primitives":[
				{
					"attributes":{
						"POSITION":10,
						"NORMAL":11,
						"TEXCOORD_0":12
					},
					"indices":3,
					"material":0
				}
			]
		}
	],
	"accessors":[
		{
			"bufferView":0,
			"componentType":5126,
			"count":932,
			"max":[
				0.5901481509208679,
				1.1351577043533325,
				4.211832523345947
			],
			"min":[
				-0.5901481509208679,
				-0.9074327945709229,
				-0.33727824687957764
			],
			"type":"VEC3"
		},
		{
			"bufferView":1,
			"componentType":5126,
			"count":932,
			"type":"VEC3"
		},
		{
			"bufferView":2,
			"componentType":5126,
			"count":932,
			"type":"VEC2"
		},
		{
			"bufferView":3,
			"componentType":5123,
			"count":3960,
			"type":"SCALAR"
		},
		{
			"bufferView":4,
			"componentType":5126,
			"count":932,
			"max":[
				0.5901481509208679,
				1.1351577043533325,
				4.211832523345947
			],
			"min":[
				-0.5901481509208679,
				-0.9074327945709229,
				-0.33727824687957764
			],
			"type":"VEC3"
		},
		{
			"bufferView":5,
			"componentType":5126,
			"count":932,
			"type":"VEC3"
		},
		{
			"bufferView":6,
			"componentType":5126,
			"count":932,
			"type":"VEC2"
		},
		{
			"bufferView":7,
			"componentType":5126,
			"count":932,
			"max":[
				0.5901481509208679,
				1.1351577043533325,
				4.211832523345947
			],
			"min":[
				-0.5901481509208679,
				-0.9074327945709229,
				-0.33727824687957764
			],
			"type":"VEC3"
		},
		{
			"bufferView":8,
			"componentType":5126,
			"count":932,
			"type":"VEC3"
		},
		{
			"bufferView":9,
			"componentType":5126,
			"count":932,
			"type":"VEC2"
		},
		{
			"bufferView":10,
			"componentType":5126,
			"count":932,
			"max":[
				0.5901481509208679,
				1.1351577043533325,
				4.211832523345947
			],
			"min":[
				-0.5901481509208679,
				-0.9074327945709229,
				-0.33727824687957764
			],
			"type":"VEC3"
		},
		{
			"bufferView":11,
			"componentType":5126,
			"count":932,
			"type":"VEC3"
		},
		{
			"bufferView":12,
			"componentType":5126,
			"count":932,
			"type":"VEC2"
		}
	],
	"bufferViews":[
		{
			"buffer":0,
			"byteLength":11184,
			"byteOffset":0,
			"target":34962
		},
		{
			"buffer":0,
			"byteLength":11184,
			"byteOffset":11184,
			"target":34962
		},
		{
			"buffer":0,
			"byteLength":7456,
			"byteOffset":22368,
			"target":34962
		},
		{
			"buffer":0,
			"byteLength":7920,
			"byteOffset":29824,
			"target":34963
		},
		{
			"buffer":0,
			"byteLength":11184,
			"byteOffset":37744,
			"target":34962
		},
		{
			"buffer":0,
			"byteLength":11184,
			"byteOffset":48928,
			"target":34962
		},
		{
			"buffer":0,
			"byteLength":7456,
			"byteOffset":60112,
			"target":34962
		},
		{
			"buffer":0,
			"byteLength":11184,
			"byteOffset":67568,
			"target":34962
		},
		{
			"buffer":0,
			"byteLength":11184,
			"byteOffset":78752,
			"target":34962
		},
		{
			"buffer":0,
			"byteLength":7456,
			"byteOffset":89936,
			"target":34962
		},
		{
			"buffer":0,
			"byteLength":11184,
			"byteOffset":97392,
			"target":34962
		},
		{
			"buffer":0,
			"byteLength":11184,
			"byteOffset":108576,
			"target":34962
		},
		{
			"buffer":0,
			"byteLength":7456,
			"byteOffset":119760,
			"target":34962
		}
	],
	"buffers":[
		{
			"byteLength":127216,
			"uri":"fish.bin"
		}
	]
}
