{
	"asset":{
		"generator":"Khronos glTF Blender I/O v4.0.43",
		"version":"2.0"
	},
	"scene":0,
	"scenes":[
		{
			"name":"Scene",
			"nodes":[
				0,
				1
			]
		}
	],
	"nodes":[
		{
			"mesh":0,
			"name":"Cube",
			"rotation":[
				0,
				0,
				-0.7071068286895752,
				0.7071068286895752
			],
			"scale":[
				0.4000000059604645,
				2,
				0.20000000298023224
			],
			"translation":[
				0,
				1.3587809801101685,
				0
			]
		},
		{
			"mesh":1,
			"name":"Text.002",
			"rotation":[
				0.7071066498756409,
				0.0005109042394906282,
				-0.0005109043559059501,
				0.7071066498756409
			],
			"scale":[
				0.22008764743804932,
				0.9138287305831909,
				0.43434321880340576
			],
			"translation":[
				-1.930968165397644,
				1.3137527704238892,
				0.4529099464416504
			]
		}
	],
	"materials":[
		{
			"doubleSided":true,
			"name":"Material.086",
			"pbrMetallicRoughness":{
				"baseColorFactor":[
					0,
					0,
					0,
					1
				],
				"metallicFactor":0,
				"roughnessFactor":0.5
			}
		}
	],
	"meshes":[
		{
			"name":"Cube.017",
			"primitives":[
				{
					"attributes":{
						"POSITION":0,
						"NORMAL":1,
						"TEXCOORD_0":2
					},
					"indices":3
				}
			]
		},
		{
			"name":"Text.011",
			"primitives":[
				{
					"attributes":{
						"POSITION":4,
						"NORMAL":5,
						"TEXCOORD_0":6
					},
					"indices":7,
					"material":0
				}
			]
		}
	],
	"accessors":[
		{
			"bufferView":0,
			"componentType":5126,
			"count":24,
			"max":[
				1,
				1,
				1
			],
			"min":[
				-1,
				-1,
				-1
			],
			"type":"VEC3"
		},
		{
			"bufferView":1,
			"componentType":5126,
			"count":24,
			"type":"VEC3"
		},
		{
			"bufferView":2,
			"componentType":5126,
			"count":24,
			"type":"VEC2"
		},
		{
			"bufferView":3,
			"componentType":5123,
			"count":36,
			"type":"SCALAR"
		},
		{
			"bufferView":4,
			"componentType":5126,
			"count":11930,
			"max":[
				16.568998336791992,
				0.020000001415610313,
				0.23000000417232513
			],
			"min":[
				0.04000000283122063,
				-0.020000001415610313,
				-0.6914074420928955
			],
			"type":"VEC3"
		},
		{
			"bufferView":5,
			"componentType":5126,
			"count":11930,
			"type":"VEC3"
		},
		{
			"bufferView":6,
			"componentType":5126,
			"count":11930,
			"type":"VEC2"
		},
		{
			"bufferView":7,
			"componentType":5123,
			"count":35196,
			"type":"SCALAR"
		}
	],
	"bufferViews":[
		{
			"buffer":0,
			"byteLength":288,
			"byteOffset":0,
			"target":34962
		},
		{
			"buffer":0,
			"byteLength":288,
			"byteOffset":288,
			"target":34962
		},
		{
			"buffer":0,
			"byteLength":192,
			"byteOffset":576,
			"target":34962
		},
		{
			"buffer":0,
			"byteLength":72,
			"byteOffset":768,
			"target":34963
		},
		{
			"buffer":0,
			"byteLength":143160,
			"byteOffset":840,
			"target":34962
		},
		{
			"buffer":0,
			"byteLength":143160,
			"byteOffset":144000,
			"target":34962
		},
		{
			"buffer":0,
			"byteLength":95440,
			"byteOffset":287160,
			"target":34962
		},
		{
			"buffer":0,
			"byteLength":70392,
			"byteOffset":382600,
			"target":34963
		}
	],
	"buffers":[
		{
			"byteLength":452992,
			"uri":"blocklast.bin"
		}
	]
}
