{
	"asset":{
		"generator":"Khronos glTF Blender I/O v4.0.43",
		"version":"2.0"
	},
	"scene":0,
	"scenes":[
		{
			"name":"Scene",
			"nodes":[
				0,
				1
			]
		}
	],
	"nodes":[
		{
			"mesh":0,
			"name":"Text.005",
			"rotation":[
				0.7071066498756409,
				0.0005109042976982892,
				-0.0005109043559059501,
				0.7071066498756409
			],
			"scale":[
				0.21791353821754456,
				0.9138286113739014,
				0.43434321880340576
			],
			"translation":[
				-1.8990377187728882,
				3.1457173824310303,
				0.4529099464416504
			]
		},
		{
			"mesh":1,
			"name":"Cube.002",
			"rotation":[
				0,
				0,
				-0.7071068286895752,
				0.7071068286895752
			],
			"scale":[
				0.4000000059604645,
				2,
				0.20000000298023224
			],
			"translation":[
				0,
				3.3021857738494873,
				0
			]
		}
	],
	"materials":[
		{
			"doubleSided":true,
			"name":"Material.088",
			"pbrMetallicRoughness":{
				"baseColorFactor":[
					0,
					0,
					0,
					1
				],
				"metallicFactor":0,
				"roughnessFactor":0.5
			}
		}
	],
	"meshes":[
		{
			"name":"Text.013",
			"primitives":[
				{
					"attributes":{
						"POSITION":0,
						"NORMAL":1,
						"TEXCOORD_0":2
					},
					"indices":3,
					"material":0
				}
			]
		},
		{
			"name":"Cube.019",
			"primitives":[
				{
					"attributes":{
						"POSITION":4,
						"NORMAL":5,
						"TEXCOORD_0":6
					},
					"indices":7
				}
			]
		}
	],
	"accessors":[
		{
			"bufferView":0,
			"componentType":5126,
			"count":10792,
			"max":[
				16.979999542236328,
				0.020000001415610313,
				0.23000000417232513
			],
			"min":[
				0.04000000283122063,
				-0.020000001415610313,
				-0.6914074420928955
			],
			"type":"VEC3"
		},
		{
			"bufferView":1,
			"componentType":5126,
			"count":10792,
			"type":"VEC3"
		},
		{
			"bufferView":2,
			"componentType":5126,
			"count":10792,
			"type":"VEC2"
		},
		{
			"bufferView":3,
			"componentType":5123,
			"count":31680,
			"type":"SCALAR"
		},
		{
			"bufferView":4,
			"componentType":5126,
			"count":24,
			"max":[
				1,
				1,
				1
			],
			"min":[
				-1,
				-1,
				-1
			],
			"type":"VEC3"
		},
		{
			"bufferView":5,
			"componentType":5126,
			"count":24,
			"type":"VEC3"
		},
		{
			"bufferView":6,
			"componentType":5126,
			"count":24,
			"type":"VEC2"
		},
		{
			"bufferView":7,
			"componentType":5123,
			"count":36,
			"type":"SCALAR"
		}
	],
	"bufferViews":[
		{
			"buffer":0,
			"byteLength":129504,
			"byteOffset":0,
			"target":34962
		},
		{
			"buffer":0,
			"byteLength":129504,
			"byteOffset":129504,
			"target":34962
		},
		{
			"buffer":0,
			"byteLength":86336,
			"byteOffset":259008,
			"target":34962
		},
		{
			"buffer":0,
			"byteLength":63360,
			"byteOffset":345344,
			"target":34963
		},
		{
			"buffer":0,
			"byteLength":288,
			"byteOffset":408704,
			"target":34962
		},
		{
			"buffer":0,
			"byteLength":288,
			"byteOffset":408992,
			"target":34962
		},
		{
			"buffer":0,
			"byteLength":192,
			"byteOffset":409280,
			"target":34962
		},
		{
			"buffer":0,
			"byteLength":72,
			"byteOffset":409472,
			"target":34963
		}
	],
	"buffers":[
		{
			"byteLength":409544,
			"uri":"blockfirst.bin"
		}
	]
}
