{
	"asset":{
		"generator":"Khronos glTF Blender I/O v4.0.43",
		"version":"2.0"
	},
	"scene":0,
	"scenes":[
		{
			"name":"Scene",
			"nodes":[
				0,
				1
			]
		}
	],
	"nodes":[
		{
			"mesh":0,
			"name":"Text.003",
			"rotation":[
				0.7071066498756409,
				0.0005109042976982892,
				-0.0005109043559059501,
				0.7071066498756409
			],
			"scale":[
				0.3594917953014374,
				0.9138296842575073,
				0.43434321880340576
			],
			"translation":[
				-1.6119177341461182,
				2.229656219482422,
				0.4529099464416504
			]
		},
		{
			"mesh":1,
			"name":"Cube.001",
			"rotation":[
				0,
				0,
				-0.7071068286895752,
				0.7071068286895752
			],
			"scale":[
				0.4000000059604645,
				2,
				0.20000000298023224
			],
			"translation":[
				0,
				2.3400537967681885,
				0
			]
		}
	],
	"materials":[
		{
			"doubleSided":true,
			"name":"Material.087",
			"pbrMetallicRoughness":{
				"baseColorFactor":[
					0,
					0,
					0,
					1
				],
				"metallicFactor":0,
				"roughnessFactor":0.5
			}
		}
	],
	"meshes":[
		{
			"name":"Text.012",
			"primitives":[
				{
					"attributes":{
						"POSITION":0,
						"NORMAL":1,
						"TEXCOORD_0":2
					},
					"indices":3,
					"material":0
				}
			]
		},
		{
			"name":"Cube.018",
			"primitives":[
				{
					"attributes":{
						"POSITION":4,
						"NORMAL":5,
						"TEXCOORD_0":6
					},
					"indices":7
				}
			]
		}
	],
	"accessors":[
		{
			"bufferView":0,
			"componentType":5126,
			"count":6067,
			"max":[
				8.176000595092773,
				0.020000001415610313,
				0.009000000543892384
			],
			"min":[
				0,
				-0.020000001415610313,
				-0.6860000491142273
			],
			"type":"VEC3"
		},
		{
			"bufferView":1,
			"componentType":5126,
			"count":6067,
			"type":"VEC3"
		},
		{
			"bufferView":2,
			"componentType":5126,
			"count":6067,
			"type":"VEC2"
		},
		{
			"bufferView":3,
			"componentType":5123,
			"count":17916,
			"type":"SCALAR"
		},
		{
			"bufferView":4,
			"componentType":5126,
			"count":24,
			"max":[
				1,
				1,
				1
			],
			"min":[
				-1,
				-1,
				-1
			],
			"type":"VEC3"
		},
		{
			"bufferView":5,
			"componentType":5126,
			"count":24,
			"type":"VEC3"
		},
		{
			"bufferView":6,
			"componentType":5126,
			"count":24,
			"type":"VEC2"
		},
		{
			"bufferView":7,
			"componentType":5123,
			"count":36,
			"type":"SCALAR"
		}
	],
	"bufferViews":[
		{
			"buffer":0,
			"byteLength":72804,
			"byteOffset":0,
			"target":34962
		},
		{
			"buffer":0,
			"byteLength":72804,
			"byteOffset":72804,
			"target":34962
		},
		{
			"buffer":0,
			"byteLength":48536,
			"byteOffset":145608,
			"target":34962
		},
		{
			"buffer":0,
			"byteLength":35832,
			"byteOffset":194144,
			"target":34963
		},
		{
			"buffer":0,
			"byteLength":288,
			"byteOffset":229976,
			"target":34962
		},
		{
			"buffer":0,
			"byteLength":288,
			"byteOffset":230264,
			"target":34962
		},
		{
			"buffer":0,
			"byteLength":192,
			"byteOffset":230552,
			"target":34962
		},
		{
			"buffer":0,
			"byteLength":72,
			"byteOffset":230744,
			"target":34963
		}
	],
	"buffers":[
		{
			"byteLength":230816,
			"uri":"blockmid.bin"
		}
	]
}
