{
	"asset":{
		"generator":"Khronos glTF Blender I/O v3.6.27",
		"version":"2.0"
	},
	"extensionsUsed":[
		"KHR_materials_specular",
		"KHR_materials_ior"
	],
	"scene":0,
	"scenes":[
		{
			"name":"Scene",
			"nodes":[
				0
			]
		}
	],
	"nodes":[
		{
			"mesh":0,
			"name":"focusknob",
			"rotation":[
				0.5,
				0.5,
				-0.5,
				0.5
			],
			"translation":[
				0,
				0.10636024177074432,
				-0.05045735090970993
			]
		}
	],
	"materials":[
		{
			"doubleSided":true,
			"name":"black plastic",
			"pbrMetallicRoughness":{
				"baseColorFactor":[
					0.0056046294048428535,
					0.0056046294048428535,
					0.0056046294048428535,
					1
				],
				"metallicFactor":0,
				"roughnessFactor":0.6166667342185974
			}
		},
		{
			"doubleSided":true,
			"extensions":{
				"KHR_materials_specular":{
					"specularColorFactor":[
						0.948543059910952,
						0.948543059910952,
						0.948543059910952
					]
				},
				"KHR_materials_ior":{
					"ior":1.4500000476837158
				}
			},
			"name":"metal.002",
			"pbrMetallicRoughness":{
				"baseColorFactor":[
					0.5925782918930054,
					0.5925782918930054,
					0.5925782918930054,
					1
				],
				"roughnessFactor":0.4833333194255829
			}
		}
	],
	"meshes":[
		{
			"name":"Cylinder.001",
			"primitives":[
				{
					"attributes":{
						"POSITION":0,
						"NORMAL":1,
						"TEXCOORD_0":2
					},
					"indices":3,
					"material":0
				},
				{
					"attributes":{
						"POSITION":4,
						"NORMAL":5,
						"TEXCOORD_0":6
					},
					"indices":7,
					"material":1
				}
			]
		}
	],
	"accessors":[
		{
			"bufferView":0,
			"componentType":5126,
			"count":2638,
			"max":[
				0.018264196813106537,
				0.04705600440502167,
				0.01826419308781624
			],
			"min":[
				-0.018264196813106537,
				-0.04705600440502167,
				-0.018264198675751686
			],
			"type":"VEC3"
		},
		{
			"bufferView":1,
			"componentType":5126,
			"count":2638,
			"type":"VEC3"
		},
		{
			"bufferView":2,
			"componentType":5126,
			"count":2638,
			"type":"VEC2"
		},
		{
			"bufferView":3,
			"componentType":5123,
			"count":12480,
			"type":"SCALAR"
		},
		{
			"bufferView":4,
			"componentType":5126,
			"count":2219,
			"max":[
				0.008222662843763828,
				0.04789487645030022,
				0.008222660981118679
			],
			"min":[
				-0.008222664706408978,
				-0.04789487645030022,
				-0.008222666569054127
			],
			"type":"VEC3"
		},
		{
			"bufferView":5,
			"componentType":5126,
			"count":2219,
			"type":"VEC3"
		},
		{
			"bufferView":6,
			"componentType":5126,
			"count":2219,
			"type":"VEC2"
		},
		{
			"bufferView":7,
			"componentType":5123,
			"count":9972,
			"type":"SCALAR"
		}
	],
	"bufferViews":[
		{
			"buffer":0,
			"byteLength":31656,
			"byteOffset":0,
			"target":34962
		},
		{
			"buffer":0,
			"byteLength":31656,
			"byteOffset":31656,
			"target":34962
		},
		{
			"buffer":0,
			"byteLength":21104,
			"byteOffset":63312,
			"target":34962
		},
		{
			"buffer":0,
			"byteLength":24960,
			"byteOffset":84416,
			"target":34963
		},
		{
			"buffer":0,
			"byteLength":26628,
			"byteOffset":109376,
			"target":34962
		},
		{
			"buffer":0,
			"byteLength":26628,
			"byteOffset":136004,
			"target":34962
		},
		{
			"buffer":0,
			"byteLength":17752,
			"byteOffset":162632,
			"target":34962
		},
		{
			"buffer":0,
			"byteLength":19944,
			"byteOffset":180384,
			"target":34963
		}
	],
	"buffers":[
		{
			"byteLength":200328,
			"uri":"coarse.bin"
		}
	]
}
