{
	"asset":{
		"generator":"Khronos glTF Blender I/O v4.0.43",
		"version":"2.0"
	},
	"scene":0,
	"scenes":[
		{
			"name":"Scene",
			"nodes":[
				0,
				1,
				2,
				3
			]
		}
	],
	"nodes":[
		{
			"mesh":0,
			"name":"Text.008",
			"rotation":[
				0.7071066498756409,
				0.0005109042976982892,
				-0.0005109043559059501,
				0.7071066498756409
			],
			"scale":[
				0.4343431890010834,
				0.9138297438621521,
				0.43434321880340576
			],
			"translation":[
				-1.8895572423934937,
				4.592312812805176,
				-2.2497689723968506
			]
		},
		{
			"mesh":1,
			"name":"Plane.013",
			"rotation":[
				-0.5003611445426941,
				0.5003611445426941,
				-0.4996386468410492,
				0.4996386766433716
			],
			"scale":[
				2.980520725250244,
				1,
				7.968738555908203
			],
			"translation":[
				-0.3181871175765991,
				2.2642641067504883,
				-2.3603708744049072
			]
		},
		{
			"mesh":2,
			"name":"Plane",
			"rotation":[
				0.7071068286895752,
				0,
				0,
				0.7071068286895752
			],
			"scale":[
				2.394601821899414,
				1,
				2.019287586212158
			],
			"translation":[
				-3.721303939819336,
				1.8708854913711548,
				-2.195199728012085
			]
		},
		{
			"mesh":3,
			"name":"Plane.001",
			"rotation":[
				0.7071068286895752,
				0,
				0,
				0.7071068286895752
			],
			"scale":[
				2.3059325218200684,
				1,
				2.019287586212158
			],
			"translation":[
				3.4907031059265137,
				1.8708854913711548,
				-2.195199728012085
			]
		}
	],
	"materials":[
		{
			"doubleSided":true,
			"name":"Material.038",
			"pbrMetallicRoughness":{
				"metallicFactor":0,
				"roughnessFactor":0.5
			}
		},
		{
			"doubleSided":true,
			"name":"Material.044",
			"pbrMetallicRoughness":{
				"baseColorFactor":[
					0.0064769890159368515,
					0.055540382862091064,
					0.008944455534219742,
					1
				],
				"metallicFactor":0,
				"roughnessFactor":0.5
			}
		},
		{
			"doubleSided":true,
			"name":"Material.048",
			"pbrMetallicRoughness":{
				"baseColorTexture":{
					"index":0
				},
				"metallicFactor":0,
				"roughnessFactor":0.5
			}
		},
		{
			"doubleSided":true,
			"name":"Material.074",
			"pbrMetallicRoughness":{
				"baseColorTexture":{
					"index":1
				},
				"metallicFactor":0,
				"roughnessFactor":0.5
			}
		}
	],
	"meshes":[
		{
			"name":"Text.022",
			"primitives":[
				{
					"attributes":{
						"POSITION":0,
						"NORMAL":1,
						"TEXCOORD_0":2
					},
					"indices":3,
					"material":0
				}
			]
		},
		{
			"name":"Plane.026",
			"primitives":[
				{
					"attributes":{
						"POSITION":4,
						"NORMAL":5,
						"TEXCOORD_0":6
					},
					"indices":7,
					"material":1
				}
			]
		},
		{
			"name":"Plane.039",
			"primitives":[
				{
					"attributes":{
						"POSITION":8,
						"NORMAL":9,
						"TEXCOORD_0":10
					},
					"indices":7,
					"material":2
				}
			]
		},
		{
			"name":"Plane.044",
			"primitives":[
				{
					"attributes":{
						"POSITION":11,
						"NORMAL":12,
						"TEXCOORD_0":13
					},
					"indices":7,
					"material":3
				}
			]
		}
	],
	"textures":[
		{
			"sampler":0,
			"source":0
		},
		{
			"sampler":0,
			"source":1
		}
	],
	"images":[
		{
			"mimeType":"image/jpeg",
			"name":"temp.jpg",
			"uri":"temp.jpg"
		},
		{
			"mimeType":"image/jpeg",
			"name":"migrate.jpg",
			"uri":"migrate.jpg"
		}
	],
	"accessors":[
		{
			"bufferView":0,
			"componentType":5126,
			"count":6607,
			"max":[
				10.2160005569458,
				0.020000001415610313,
				0.23000000417232513
			],
			"min":[
				0.017000000923871994,
				-0.020000001415610313,
				-0.6820000410079956
			],
			"type":"VEC3"
		},
		{
			"bufferView":1,
			"componentType":5126,
			"count":6607,
			"type":"VEC3"
		},
		{
			"bufferView":2,
			"componentType":5126,
			"count":6607,
			"type":"VEC2"
		},
		{
			"bufferView":3,
			"componentType":5123,
			"count":19464,
			"type":"SCALAR"
		},
		{
			"bufferView":4,
			"componentType":5126,
			"count":4,
			"max":[
				1,
				0,
				1
			],
			"min":[
				-1,
				0,
				-1
			],
			"type":"VEC3"
		},
		{
			"bufferView":5,
			"componentType":5126,
			"count":4,
			"type":"VEC3"
		},
		{
			"bufferView":6,
			"componentType":5126,
			"count":4,
			"type":"VEC2"
		},
		{
			"bufferView":7,
			"componentType":5123,
			"count":6,
			"type":"SCALAR"
		},
		{
			"bufferView":8,
			"componentType":5126,
			"count":4,
			"max":[
				1,
				0,
				1
			],
			"min":[
				-1,
				0,
				-1
			],
			"type":"VEC3"
		},
		{
			"bufferView":9,
			"componentType":5126,
			"count":4,
			"type":"VEC3"
		},
		{
			"bufferView":10,
			"componentType":5126,
			"count":4,
			"type":"VEC2"
		},
		{
			"bufferView":11,
			"componentType":5126,
			"count":4,
			"max":[
				1,
				0,
				1
			],
			"min":[
				-1,
				0,
				-1
			],
			"type":"VEC3"
		},
		{
			"bufferView":12,
			"componentType":5126,
			"count":4,
			"type":"VEC3"
		},
		{
			"bufferView":13,
			"componentType":5126,
			"count":4,
			"type":"VEC2"
		}
	],
	"bufferViews":[
		{
			"buffer":0,
			"byteLength":79284,
			"byteOffset":0,
			"target":34962
		},
		{
			"buffer":0,
			"byteLength":79284,
			"byteOffset":79284,
			"target":34962
		},
		{
			"buffer":0,
			"byteLength":52856,
			"byteOffset":158568,
			"target":34962
		},
		{
			"buffer":0,
			"byteLength":38928,
			"byteOffset":211424,
			"target":34963
		},
		{
			"buffer":0,
			"byteLength":48,
			"byteOffset":250352,
			"target":34962
		},
		{
			"buffer":0,
			"byteLength":48,
			"byteOffset":250400,
			"target":34962
		},
		{
			"buffer":0,
			"byteLength":32,
			"byteOffset":250448,
			"target":34962
		},
		{
			"buffer":0,
			"byteLength":12,
			"byteOffset":250480,
			"target":34963
		},
		{
			"buffer":0,
			"byteLength":48,
			"byteOffset":250492,
			"target":34962
		},
		{
			"buffer":0,
			"byteLength":48,
			"byteOffset":250540,
			"target":34962
		},
		{
			"buffer":0,
			"byteLength":32,
			"byteOffset":250588,
			"target":34962
		},
		{
			"buffer":0,
			"byteLength":48,
			"byteOffset":250620,
			"target":34962
		},
		{
			"buffer":0,
			"byteLength":48,
			"byteOffset":250668,
			"target":34962
		},
		{
			"buffer":0,
			"byteLength":32,
			"byteOffset":250716,
			"target":34962
		}
	],
	"samplers":[
		{
			"magFilter":9729,
			"minFilter":9987
		}
	],
	"buffers":[
		{
			"byteLength":250748,
			"uri":"cons2.bin"
		}
	]
}
