{
	"asset":{
		"generator":"Khronos glTF Blender I/O v3.6.27",
		"version":"2.0"
	},
	"scene":0,
	"scenes":[
		{
			"name":"Scene",
			"nodes":[
				0,
				1,
				2,
				3
			]
		}
	],
	"nodes":[
		{
			"mesh":0,
			"name":"base3",
			"translation":[
				0,
				0.0917411595582962,
				-0.023662367835640907
			]
		},
		{
			"mesh":1,
			"name":"Text.010",
			"rotation":[
				0.7071068286895752,
				0,
				0,
				0.7071068286895752
			],
			"scale":[
				0.011089053936302662,
				0.02460140734910965,
				0.013473319821059704
			],
			"translation":[
				-0.21106430888175964,
				0.012279774062335491,
				0.04534444212913513
			]
		},
		{
			"mesh":2,
			"name":"Cube.020",
			"scale":[
				0.0429159514605999,
				0.0010000000474974513,
				0
			],
			"translation":[
				-0.11292211711406708,
				0.01669934019446373,
				0.04516300559043884
			]
		},
		{
			"mesh":3,
			"name":"Cube.021",
			"scale":[
				0.042796939611434937,
				0.009707197546958923,
				9.999999747378752e-05
			],
			"translation":[
				-0.1972493827342987,
				0.017201121896505356,
				0.044841937720775604
			]
		}
	],
	"materials":[
		{
			"doubleSided":true,
			"name":"Material",
			"pbrMetallicRoughness":{
				"baseColorFactor":[
					0.8000000715255737,
					0.7875087857246399,
					0.7507203817367554,
					1
				],
				"metallicFactor":0,
				"roughnessFactor":0.8257575631141663
			}
		},
		{
			"doubleSided":true,
			"name":"black plastic.012",
			"pbrMetallicRoughness":{
				"baseColorFactor":[
					0.0056046294048428535,
					0.0056046294048428535,
					0.0056046294048428535,
					1
				],
				"metallicFactor":0,
				"roughnessFactor":0.6166667342185974
			}
		}
	],
	"meshes":[
		{
			"name":"Cube.002",
			"primitives":[
				{
					"attributes":{
						"POSITION":0,
						"NORMAL":1,
						"TEXCOORD_0":2
					},
					"indices":3,
					"material":0
				}
			]
		},
		{
			"name":"Text.010",
			"primitives":[
				{
					"attributes":{
						"POSITION":4,
						"NORMAL":5,
						"TEXCOORD_0":6
					},
					"indices":7,
					"material":1
				}
			]
		},
		{
			"name":"Cube.028",
			"primitives":[
				{
					"attributes":{
						"POSITION":8,
						"NORMAL":9,
						"TEXCOORD_0":10
					},
					"indices":11
				}
			]
		},
		{
			"name":"Cube.029",
			"primitives":[
				{
					"attributes":{
						"POSITION":12,
						"NORMAL":13,
						"TEXCOORD_0":14
					},
					"indices":11
				}
			]
		}
	],
	"accessors":[
		{
			"bufferView":0,
			"componentType":5126,
			"count":329,
			"max":[
				0.03253453969955444,
				0.04722046107053757,
				0.03552424535155296
			],
			"min":[
				-0.03253453969955444,
				-0.0465247668325901,
				-0.017477385699748993
			],
			"type":"VEC3"
		},
		{
			"bufferView":1,
			"componentType":5126,
			"count":329,
			"type":"VEC3"
		},
		{
			"bufferView":2,
			"componentType":5126,
			"count":329,
			"type":"VEC2"
		},
		{
			"bufferView":3,
			"componentType":5123,
			"count":909,
			"type":"SCALAR"
		},
		{
			"bufferView":4,
			"componentType":5126,
			"count":1018,
			"max":[
				2.1590001583099365,
				0.010000000707805157,
				0.009000000543892384
			],
			"min":[
				0.07500000298023224,
				-0.010000000707805157,
				-0.6910000443458557
			],
			"type":"VEC3"
		},
		{
			"bufferView":5,
			"componentType":5126,
			"count":1018,
			"type":"VEC3"
		},
		{
			"bufferView":6,
			"componentType":5126,
			"count":1018,
			"type":"VEC2"
		},
		{
			"bufferView":7,
			"componentType":5123,
			"count":3000,
			"type":"SCALAR"
		},
		{
			"bufferView":8,
			"componentType":5126,
			"count":24,
			"max":[
				1,
				1,
				1
			],
			"min":[
				-1,
				-1,
				-1
			],
			"type":"VEC3"
		},
		{
			"bufferView":9,
			"componentType":5126,
			"count":24,
			"type":"VEC3"
		},
		{
			"bufferView":10,
			"componentType":5126,
			"count":24,
			"type":"VEC2"
		},
		{
			"bufferView":11,
			"componentType":5123,
			"count":36,
			"type":"SCALAR"
		},
		{
			"bufferView":12,
			"componentType":5126,
			"count":24,
			"max":[
				1,
				1,
				1
			],
			"min":[
				-1,
				-1,
				-1
			],
			"type":"VEC3"
		},
		{
			"bufferView":13,
			"componentType":5126,
			"count":24,
			"type":"VEC3"
		},
		{
			"bufferView":14,
			"componentType":5126,
			"count":24,
			"type":"VEC2"
		}
	],
	"bufferViews":[
		{
			"buffer":0,
			"byteLength":3948,
			"byteOffset":0,
			"target":34962
		},
		{
			"buffer":0,
			"byteLength":3948,
			"byteOffset":3948,
			"target":34962
		},
		{
			"buffer":0,
			"byteLength":2632,
			"byteOffset":7896,
			"target":34962
		},
		{
			"buffer":0,
			"byteLength":1818,
			"byteOffset":10528,
			"target":34963
		},
		{
			"buffer":0,
			"byteLength":12216,
			"byteOffset":12348,
			"target":34962
		},
		{
			"buffer":0,
			"byteLength":12216,
			"byteOffset":24564,
			"target":34962
		},
		{
			"buffer":0,
			"byteLength":8144,
			"byteOffset":36780,
			"target":34962
		},
		{
			"buffer":0,
			"byteLength":6000,
			"byteOffset":44924,
			"target":34963
		},
		{
			"buffer":0,
			"byteLength":288,
			"byteOffset":50924,
			"target":34962
		},
		{
			"buffer":0,
			"byteLength":288,
			"byteOffset":51212,
			"target":34962
		},
		{
			"buffer":0,
			"byteLength":192,
			"byteOffset":51500,
			"target":34962
		},
		{
			"buffer":0,
			"byteLength":72,
			"byteOffset":51692,
			"target":34963
		},
		{
			"buffer":0,
			"byteLength":288,
			"byteOffset":51764,
			"target":34962
		},
		{
			"buffer":0,
			"byteLength":288,
			"byteOffset":52052,
			"target":34962
		},
		{
			"buffer":0,
			"byteLength":192,
			"byteOffset":52340,
			"target":34962
		}
	],
	"buffers":[
		{
			"byteLength":52532,
			"uri":"base2.bin"
		}
	]
}
