{
	"asset":{
		"generator":"Khronos glTF Blender I/O v3.6.27",
		"version":"2.0"
	},
	"scene":0,
	"scenes":[
		{
			"name":"Scene",
			"nodes":[
				0,
				1,
				2,
				3,
				4
			]
		}
	],
	"nodes":[
		{
			"mesh":0,
			"name":"base1",
			"translation":[
				0,
				0.021216001361608505,
				0
			]
		},
		{
			"mesh":1,
			"name":"base3",
			"translation":[
				0,
				0.0917411595582962,
				-0.023662367835640907
			]
		},
		{
			"mesh":2,
			"name":"Text.010",
			"rotation":[
				0.7071068286895752,
				0,
				0,
				0.7071068286895752
			],
			"scale":[
				0.011089053936302662,
				0.02460140734910965,
				0.013473319821059704
			],
			"translation":[
				-0.21106430888175964,
				0.012279774062335491,
				0.04534444212913513
			]
		},
		{
			"mesh":3,
			"name":"Cube.020",
			"scale":[
				0.0429159514605999,
				0.0010000000474974513,
				0
			],
			"translation":[
				-0.11292211711406708,
				0.01669934019446373,
				0.04516300559043884
			]
		},
		{
			"mesh":4,
			"name":"Cube.021",
			"scale":[
				0.042796939611434937,
				0.009707197546958923,
				9.999999747378752e-05
			],
			"translation":[
				-0.1972493827342987,
				0.017201121896505356,
				0.044841937720775604
			]
		}
	],
	"materials":[
		{
			"doubleSided":true,
			"name":"Material.006",
			"pbrMetallicRoughness":{
				"metallicFactor":0,
				"roughnessFactor":0.8257575631141663
			}
		},
		{
			"doubleSided":true,
			"name":"Material",
			"pbrMetallicRoughness":{
				"baseColorFactor":[
					0.8000000715255737,
					0.7875087857246399,
					0.7507203817367554,
					1
				],
				"metallicFactor":0,
				"roughnessFactor":0.8257575631141663
			}
		},
		{
			"doubleSided":true,
			"name":"black plastic.012",
			"pbrMetallicRoughness":{
				"baseColorFactor":[
					0.0056046294048428535,
					0.0056046294048428535,
					0.0056046294048428535,
					1
				],
				"metallicFactor":0,
				"roughnessFactor":0.6166667342185974
			}
		}
	],
	"meshes":[
		{
			"name":"Cube",
			"primitives":[
				{
					"attributes":{
						"POSITION":0,
						"NORMAL":1,
						"TEXCOORD_0":2,
						"TEXCOORD_1":3
					},
					"indices":4,
					"material":0
				}
			]
		},
		{
			"name":"Cube.002",
			"primitives":[
				{
					"attributes":{
						"POSITION":5,
						"NORMAL":6,
						"TEXCOORD_0":7
					},
					"indices":8,
					"material":1
				}
			]
		},
		{
			"name":"Text.010",
			"primitives":[
				{
					"attributes":{
						"POSITION":9,
						"NORMAL":10,
						"TEXCOORD_0":11
					},
					"indices":12,
					"material":2
				}
			]
		},
		{
			"name":"Cube.028",
			"primitives":[
				{
					"attributes":{
						"POSITION":13,
						"NORMAL":14,
						"TEXCOORD_0":15
					},
					"indices":16
				}
			]
		},
		{
			"name":"Cube.029",
			"primitives":[
				{
					"attributes":{
						"POSITION":17,
						"NORMAL":18,
						"TEXCOORD_0":19
					},
					"indices":16
				}
			]
		}
	],
	"accessors":[
		{
			"bufferView":0,
			"componentType":5126,
			"count":228,
			"max":[
				0.06495427340269089,
				0.01823599264025688,
				0.08862750977277756
			],
			"min":[
				-0.06495427340269089,
				-0.017475713044404984,
				-0.08353542536497116
			],
			"type":"VEC3"
		},
		{
			"bufferView":1,
			"componentType":5126,
			"count":228,
			"type":"VEC3"
		},
		{
			"bufferView":2,
			"componentType":5126,
			"count":228,
			"type":"VEC2"
		},
		{
			"bufferView":3,
			"componentType":5126,
			"count":228,
			"type":"VEC2"
		},
		{
			"bufferView":4,
			"componentType":5123,
			"count":588,
			"type":"SCALAR"
		},
		{
			"bufferView":5,
			"componentType":5126,
			"count":329,
			"max":[
				0.03253453969955444,
				0.04722046107053757,
				0.03552424535155296
			],
			"min":[
				-0.03253453969955444,
				-0.0465247668325901,
				-0.017477385699748993
			],
			"type":"VEC3"
		},
		{
			"bufferView":6,
			"componentType":5126,
			"count":329,
			"type":"VEC3"
		},
		{
			"bufferView":7,
			"componentType":5126,
			"count":329,
			"type":"VEC2"
		},
		{
			"bufferView":8,
			"componentType":5123,
			"count":909,
			"type":"SCALAR"
		},
		{
			"bufferView":9,
			"componentType":5126,
			"count":1018,
			"max":[
				2.1590001583099365,
				0.010000000707805157,
				0.009000000543892384
			],
			"min":[
				0.07500000298023224,
				-0.010000000707805157,
				-0.6910000443458557
			],
			"type":"VEC3"
		},
		{
			"bufferView":10,
			"componentType":5126,
			"count":1018,
			"type":"VEC3"
		},
		{
			"bufferView":11,
			"componentType":5126,
			"count":1018,
			"type":"VEC2"
		},
		{
			"bufferView":12,
			"componentType":5123,
			"count":3000,
			"type":"SCALAR"
		},
		{
			"bufferView":13,
			"componentType":5126,
			"count":24,
			"max":[
				1,
				1,
				1
			],
			"min":[
				-1,
				-1,
				-1
			],
			"type":"VEC3"
		},
		{
			"bufferView":14,
			"componentType":5126,
			"count":24,
			"type":"VEC3"
		},
		{
			"bufferView":15,
			"componentType":5126,
			"count":24,
			"type":"VEC2"
		},
		{
			"bufferView":16,
			"componentType":5123,
			"count":36,
			"type":"SCALAR"
		},
		{
			"bufferView":17,
			"componentType":5126,
			"count":24,
			"max":[
				1,
				1,
				1
			],
			"min":[
				-1,
				-1,
				-1
			],
			"type":"VEC3"
		},
		{
			"bufferView":18,
			"componentType":5126,
			"count":24,
			"type":"VEC3"
		},
		{
			"bufferView":19,
			"componentType":5126,
			"count":24,
			"type":"VEC2"
		}
	],
	"bufferViews":[
		{
			"buffer":0,
			"byteLength":2736,
			"byteOffset":0,
			"target":34962
		},
		{
			"buffer":0,
			"byteLength":2736,
			"byteOffset":2736,
			"target":34962
		},
		{
			"buffer":0,
			"byteLength":1824,
			"byteOffset":5472,
			"target":34962
		},
		{
			"buffer":0,
			"byteLength":1824,
			"byteOffset":7296,
			"target":34962
		},
		{
			"buffer":0,
			"byteLength":1176,
			"byteOffset":9120,
			"target":34963
		},
		{
			"buffer":0,
			"byteLength":3948,
			"byteOffset":10296,
			"target":34962
		},
		{
			"buffer":0,
			"byteLength":3948,
			"byteOffset":14244,
			"target":34962
		},
		{
			"buffer":0,
			"byteLength":2632,
			"byteOffset":18192,
			"target":34962
		},
		{
			"buffer":0,
			"byteLength":1818,
			"byteOffset":20824,
			"target":34963
		},
		{
			"buffer":0,
			"byteLength":12216,
			"byteOffset":22644,
			"target":34962
		},
		{
			"buffer":0,
			"byteLength":12216,
			"byteOffset":34860,
			"target":34962
		},
		{
			"buffer":0,
			"byteLength":8144,
			"byteOffset":47076,
			"target":34962
		},
		{
			"buffer":0,
			"byteLength":6000,
			"byteOffset":55220,
			"target":34963
		},
		{
			"buffer":0,
			"byteLength":288,
			"byteOffset":61220,
			"target":34962
		},
		{
			"buffer":0,
			"byteLength":288,
			"byteOffset":61508,
			"target":34962
		},
		{
			"buffer":0,
			"byteLength":192,
			"byteOffset":61796,
			"target":34962
		},
		{
			"buffer":0,
			"byteLength":72,
			"byteOffset":61988,
			"target":34963
		},
		{
			"buffer":0,
			"byteLength":288,
			"byteOffset":62060,
			"target":34962
		},
		{
			"buffer":0,
			"byteLength":288,
			"byteOffset":62348,
			"target":34962
		},
		{
			"buffer":0,
			"byteLength":192,
			"byteOffset":62636,
			"target":34962
		}
	],
	"buffers":[
		{
			"byteLength":62828,
			"uri":"base3.bin"
		}
	]
}
