{
	"asset":{
		"generator":"Khronos glTF Blender I/O v3.6.27",
		"version":"2.0"
	},
	"scene":0,
	"scenes":[
		{
			"name":"Scene",
			"nodes":[
				0,
				1
			]
		}
	],
	"nodes":[
		{
			"mesh":0,
			"name":"base1",
			"translation":[
				0,
				0.0166989266872406,
				0
			]
		},
		{
			"mesh":1,
			"name":"base3",
			"translation":[
				0,
				0.0872240737080574,
				-0.023662367835640907
			]
		}
	],
	"materials":[
		{
			"alphaMode":"BLEND",
			"doubleSided":true,
			"emissiveFactor":[
				0.20863690972328186,
				0.4341537058353424,
				0.42326778173446655
			],
			"name":"Material.002",
			"pbrMetallicRoughness":{
				"baseColorFactor":[
					0,
					0.8000000715255737,
					0.6176220774650574,
					0.08454543352127075
				],
				"metallicFactor":0,
				"roughnessFactor":0.5
			}
		}
	],
	"meshes":[
		{
			"name":"Cube",
			"primitives":[
				{
					"attributes":{
						"POSITION":0,
						"NORMAL":1,
						"TEXCOORD_0":2,
						"TEXCOORD_1":3
					},
					"indices":4,
					"material":0
				}
			]
		},
		{
			"name":"Cube.002",
			"primitives":[
				{
					"attributes":{
						"POSITION":5,
						"NORMAL":6,
						"TEXCOORD_0":7
					},
					"indices":8,
					"material":0
				}
			]
		}
	],
	"accessors":[
		{
			"bufferView":0,
			"componentType":5126,
			"count":1284,
			"max":[
				0.06495493650436401,
				0.01823573000729084,
				0.08862126618623734
			],
			"min":[
				-0.06495493650436401,
				-0.017514055594801903,
				-0.08357375860214233
			],
			"type":"VEC3"
		},
		{
			"bufferView":1,
			"componentType":5126,
			"count":1284,
			"type":"VEC3"
		},
		{
			"bufferView":2,
			"componentType":5126,
			"count":1284,
			"type":"VEC2"
		},
		{
			"bufferView":3,
			"componentType":5126,
			"count":1284,
			"type":"VEC2"
		},
		{
			"bufferView":4,
			"componentType":5123,
			"count":3456,
			"type":"SCALAR"
		},
		{
			"bufferView":5,
			"componentType":5126,
			"count":1325,
			"max":[
				0.03253453969955444,
				0.04722046107053757,
				0.03552424535155296
			],
			"min":[
				-0.03253453969955444,
				-0.0465247668325901,
				-0.017477385699748993
			],
			"type":"VEC3"
		},
		{
			"bufferView":6,
			"componentType":5126,
			"count":1325,
			"type":"VEC3"
		},
		{
			"bufferView":7,
			"componentType":5126,
			"count":1325,
			"type":"VEC2"
		},
		{
			"bufferView":8,
			"componentType":5123,
			"count":4593,
			"type":"SCALAR"
		}
	],
	"bufferViews":[
		{
			"buffer":0,
			"byteLength":15408,
			"byteOffset":0,
			"target":34962
		},
		{
			"buffer":0,
			"byteLength":15408,
			"byteOffset":15408,
			"target":34962
		},
		{
			"buffer":0,
			"byteLength":10272,
			"byteOffset":30816,
			"target":34962
		},
		{
			"buffer":0,
			"byteLength":10272,
			"byteOffset":41088,
			"target":34962
		},
		{
			"buffer":0,
			"byteLength":6912,
			"byteOffset":51360,
			"target":34963
		},
		{
			"buffer":0,
			"byteLength":15900,
			"byteOffset":58272,
			"target":34962
		},
		{
			"buffer":0,
			"byteLength":15900,
			"byteOffset":74172,
			"target":34962
		},
		{
			"buffer":0,
			"byteLength":10600,
			"byteOffset":90072,
			"target":34962
		},
		{
			"buffer":0,
			"byteLength":9186,
			"byteOffset":100672,
			"target":34963
		}
	],
	"buffers":[
		{
			"byteLength":109860,
			"uri":"hbase.bin"
		}
	]
}
