{
	"asset":{
		"generator":"Khronos glTF Blender I/O v4.0.43",
		"version":"2.0"
	},
	"scene":0,
	"scenes":[
		{
			"name":"Scene",
			"nodes":[
				0,
				1,
				2,
				3,
				4,
				5,
				6,
				7,
				8
			]
		}
	],
	"nodes":[
		{
			"mesh":0,
			"name":"Plane.013",
			"rotation":[
				-0.5003611445426941,
				0.5003611445426941,
				-0.4996386468410492,
				0.4996386766433716
			],
			"scale":[
				2.980520725250244,
				1,
				7.968738555908203
			],
			"translation":[
				-0.3181871175765991,
				2.2642641067504883,
				-2.3603708744049072
			]
		},
		{
			"mesh":1,
			"name":"Text.001",
			"rotation":[
				0.7071066498756409,
				0.0005109042976982892,
				-0.0005109043559059501,
				0.7071066498756409
			],
			"scale":[
				0.4343431890010834,
				0.9138297438621521,
				0.43434321880340576
			],
			"translation":[
				-3.3515734672546387,
				4.468120574951172,
				-2.2497689723968506
			]
		},
		{
			"mesh":2,
			"name":"Text.003",
			"rotation":[
				0.7071066498756409,
				0.0005109042976982892,
				-0.0005109043559059501,
				0.7071066498756409
			],
			"scale":[
				0.4343431890010834,
				0.9138297438621521,
				0.43434321880340576
			],
			"translation":[
				-1.047776222229004,
				3.8347153663635254,
				-2.2497689723968506
			]
		},
		{
			"mesh":3,
			"name":"Plane.001",
			"rotation":[
				0.7071068286895752,
				0,
				0,
				0.7071068286895752
			],
			"scale":[
				1.6765480041503906,
				1,
				1.6765480041503906
			],
			"translation":[
				-4.293700695037842,
				1.4014973640441895,
				-2.288938045501709
			]
		},
		{
			"mesh":4,
			"name":"Plane.002",
			"rotation":[
				0.7071068286895752,
				0,
				0,
				0.7071068286895752
			],
			"scale":[
				1.6765480041503906,
				1,
				1.6765480041503906
			],
			"translation":[
				-0.5278968811035156,
				1.4014973640441895,
				-2.288938045501709
			]
		},
		{
			"mesh":5,
			"name":"Plane.003",
			"rotation":[
				0.7071068286895752,
				0,
				0,
				0.7071068286895752
			],
			"scale":[
				1.6765480041503906,
				1,
				1.6765480041503906
			],
			"translation":[
				3.352396011352539,
				1.4014973640441895,
				-2.288938045501709
			]
		},
		{
			"mesh":6,
			"name":"Text.002",
			"rotation":[
				0.7071066498756409,
				0.0005109042976982892,
				-0.0005109043559059501,
				0.7071066498756409
			],
			"scale":[
				0.4343431890010834,
				0.9138297438621521,
				0.43434321880340576
			],
			"translation":[
				-5.2481160163879395,
				3.2867398262023926,
				-2.2497689723968506
			]
		},
		{
			"mesh":7,
			"name":"Text.005",
			"rotation":[
				0.7071066498756409,
				0.0005109042976982892,
				-0.0005109043559059501,
				0.7071066498756409
			],
			"scale":[
				0.4343431890010834,
				0.9138297438621521,
				0.43434321880340576
			],
			"translation":[
				-1.516340732574463,
				3.2867398262023926,
				-2.2497689723968506
			]
		},
		{
			"mesh":8,
			"name":"Text.006",
			"rotation":[
				0.7071066498756409,
				0.0005109042976982892,
				-0.0005109043559059501,
				0.7071066498756409
			],
			"scale":[
				0.4343431890010834,
				0.9138297438621521,
				0.43434321880340576
			],
			"translation":[
				2.254915237426758,
				3.2867398262023926,
				-2.2497689723968506
			]
		}
	],
	"materials":[
		{
			"doubleSided":true,
			"name":"Material.044",
			"pbrMetallicRoughness":{
				"baseColorFactor":[
					0.006513136439025402,
					0.05612606555223465,
					0.009133409708738327,
					1
				],
				"metallicFactor":0,
				"roughnessFactor":0.5
			}
		},
		{
			"doubleSided":true,
			"name":"Material.048",
			"pbrMetallicRoughness":{
				"metallicFactor":0,
				"roughnessFactor":0.5
			}
		},
		{
			"doubleSided":true,
			"name":"Material.091",
			"pbrMetallicRoughness":{
				"metallicFactor":0,
				"roughnessFactor":0.5
			}
		},
		{
			"doubleSided":true,
			"name":"Material.092",
			"pbrMetallicRoughness":{
				"baseColorTexture":{
					"index":0
				},
				"metallicFactor":0,
				"roughnessFactor":0.5
			}
		},
		{
			"doubleSided":true,
			"name":"Material.093",
			"pbrMetallicRoughness":{
				"baseColorTexture":{
					"index":1
				},
				"metallicFactor":0,
				"roughnessFactor":0.5
			}
		},
		{
			"doubleSided":true,
			"name":"Material.094",
			"pbrMetallicRoughness":{
				"baseColorTexture":{
					"index":2
				},
				"metallicFactor":0,
				"roughnessFactor":0.5
			}
		},
		{
			"doubleSided":true,
			"name":"Material.095",
			"pbrMetallicRoughness":{
				"metallicFactor":0,
				"roughnessFactor":0.5
			}
		},
		{
			"doubleSided":true,
			"name":"Material.096",
			"pbrMetallicRoughness":{
				"metallicFactor":0,
				"roughnessFactor":0.5
			}
		},
		{
			"doubleSided":true,
			"name":"Material.097",
			"pbrMetallicRoughness":{
				"metallicFactor":0,
				"roughnessFactor":0.5
			}
		}
	],
	"meshes":[
		{
			"name":"Plane.026",
			"primitives":[
				{
					"attributes":{
						"POSITION":0,
						"NORMAL":1,
						"TEXCOORD_0":2
					},
					"indices":3,
					"material":0
				}
			]
		},
		{
			"name":"Text.008",
			"primitives":[
				{
					"attributes":{
						"POSITION":4,
						"NORMAL":5,
						"TEXCOORD_0":6
					},
					"indices":7,
					"material":1
				}
			]
		},
		{
			"name":"Text.028",
			"primitives":[
				{
					"attributes":{
						"POSITION":8,
						"NORMAL":9,
						"TEXCOORD_0":10
					},
					"indices":11,
					"material":2
				}
			]
		},
		{
			"name":"Plane.041",
			"primitives":[
				{
					"attributes":{
						"POSITION":12,
						"NORMAL":13,
						"TEXCOORD_0":14
					},
					"indices":3,
					"material":3
				}
			]
		},
		{
			"name":"Plane.042",
			"primitives":[
				{
					"attributes":{
						"POSITION":15,
						"NORMAL":16,
						"TEXCOORD_0":17
					},
					"indices":3,
					"material":4
				}
			]
		},
		{
			"name":"Plane.043",
			"primitives":[
				{
					"attributes":{
						"POSITION":18,
						"NORMAL":19,
						"TEXCOORD_0":20
					},
					"indices":3,
					"material":5
				}
			]
		},
		{
			"name":"Text.029",
			"primitives":[
				{
					"attributes":{
						"POSITION":21,
						"NORMAL":22,
						"TEXCOORD_0":23
					},
					"indices":24,
					"material":6
				}
			]
		},
		{
			"name":"Text.030",
			"primitives":[
				{
					"attributes":{
						"POSITION":25,
						"NORMAL":26,
						"TEXCOORD_0":27
					},
					"indices":28,
					"material":7
				}
			]
		},
		{
			"name":"Text.031",
			"primitives":[
				{
					"attributes":{
						"POSITION":29,
						"NORMAL":30,
						"TEXCOORD_0":31
					},
					"indices":32,
					"material":8
				}
			]
		}
	],
	"textures":[
		{
			"sampler":0,
			"source":0
		},
		{
			"sampler":0,
			"source":1
		},
		{
			"sampler":0,
			"source":2
		}
	],
	"images":[
		{
			"mimeType":"image/jpeg",
			"name":"herbivores.jpg",
			"uri":"herbivores.jpg"
		},
		{
			"mimeType":"image/jpeg",
			"name":"carnivores.jpg",
			"uri":"carnivores.jpg"
		},
		{
			"mimeType":"image/jpeg",
			"name":"omni.jpg",
			"uri":"omni.jpg"
		}
	],
	"accessors":[
		{
			"bufferView":0,
			"componentType":5126,
			"count":4,
			"max":[
				1,
				0,
				1
			],
			"min":[
				-1,
				0,
				-1
			],
			"type":"VEC3"
		},
		{
			"bufferView":1,
			"componentType":5126,
			"count":4,
			"type":"VEC3"
		},
		{
			"bufferView":2,
			"componentType":5126,
			"count":4,
			"type":"VEC2"
		},
		{
			"bufferView":3,
			"componentType":5123,
			"count":6,
			"type":"SCALAR"
		},
		{
			"bufferView":4,
			"componentType":5126,
			"count":11560,
			"max":[
				16.112001419067383,
				0.020000001415610313,
				0.23000000417232513
			],
			"min":[
				0.07500000298023224,
				-0.020000001415610313,
				-0.6940000057220459
			],
			"type":"VEC3"
		},
		{
			"bufferView":5,
			"componentType":5126,
			"count":11560,
			"type":"VEC3"
		},
		{
			"bufferView":6,
			"componentType":5126,
			"count":11560,
			"type":"VEC2"
		},
		{
			"bufferView":7,
			"componentType":5123,
			"count":33996,
			"type":"SCALAR"
		},
		{
			"bufferView":8,
			"componentType":5126,
			"count":3366,
			"max":[
				4.63599967956543,
				0.020000001415610313,
				0.009000000543892384
			],
			"min":[
				0.04800000041723251,
				-0.020000001415610313,
				-0.6910000443458557
			],
			"type":"VEC3"
		},
		{
			"bufferView":9,
			"componentType":5126,
			"count":3366,
			"type":"VEC3"
		},
		{
			"bufferView":10,
			"componentType":5126,
			"count":3366,
			"type":"VEC2"
		},
		{
			"bufferView":11,
			"componentType":5123,
			"count":9948,
			"type":"SCALAR"
		},
		{
			"bufferView":12,
			"componentType":5126,
			"count":4,
			"max":[
				1,
				0,
				1
			],
			"min":[
				-1,
				0,
				-1
			],
			"type":"VEC3"
		},
		{
			"bufferView":13,
			"componentType":5126,
			"count":4,
			"type":"VEC3"
		},
		{
			"bufferView":14,
			"componentType":5126,
			"count":4,
			"type":"VEC2"
		},
		{
			"bufferView":15,
			"componentType":5126,
			"count":4,
			"max":[
				1,
				0,
				1
			],
			"min":[
				-1,
				0,
				-1
			],
			"type":"VEC3"
		},
		{
			"bufferView":16,
			"componentType":5126,
			"count":4,
			"type":"VEC3"
		},
		{
			"bufferView":17,
			"componentType":5126,
			"count":4,
			"type":"VEC2"
		},
		{
			"bufferView":18,
			"componentType":5126,
			"count":4,
			"max":[
				1,
				0,
				1
			],
			"min":[
				-1,
				0,
				-1
			],
			"type":"VEC3"
		},
		{
			"bufferView":19,
			"componentType":5126,
			"count":4,
			"type":"VEC3"
		},
		{
			"bufferView":20,
			"componentType":5126,
			"count":4,
			"type":"VEC2"
		},
		{
			"bufferView":21,
			"componentType":5126,
			"count":2866,
			"max":[
				4.5329999923706055,
				0.020000001415610313,
				0.009000000543892384
			],
			"min":[
				0.07500000298023224,
				-0.020000001415610313,
				-0.6820000410079956
			],
			"type":"VEC3"
		},
		{
			"bufferView":22,
			"componentType":5126,
			"count":2866,
			"type":"VEC3"
		},
		{
			"bufferView":23,
			"componentType":5126,
			"count":2866,
			"type":"VEC2"
		},
		{
			"bufferView":24,
			"componentType":5123,
			"count":8424,
			"type":"SCALAR"
		},
		{
			"bufferView":25,
			"componentType":5126,
			"count":3336,
			"max":[
				4.460000038146973,
				0.020000001415610313,
				0.009000000543892384
			],
			"min":[
				0.04800000041723251,
				-0.020000001415610313,
				-0.6910000443458557
			],
			"type":"VEC3"
		},
		{
			"bufferView":26,
			"componentType":5126,
			"count":3336,
			"type":"VEC3"
		},
		{
			"bufferView":27,
			"componentType":5126,
			"count":3336,
			"type":"VEC2"
		},
		{
			"bufferView":28,
			"componentType":5123,
			"count":9828,
			"type":"SCALAR"
		},
		{
			"bufferView":29,
			"componentType":5126,
			"count":2838,
			"max":[
				4.523000717163086,
				0.020000001415610313,
				0.009000000543892384
			],
			"min":[
				0.04500000178813934,
				-0.020000001415610313,
				-0.6910000443458557
			],
			"type":"VEC3"
		},
		{
			"bufferView":30,
			"componentType":5126,
			"count":2838,
			"type":"VEC3"
		},
		{
			"bufferView":31,
			"componentType":5126,
			"count":2838,
			"type":"VEC2"
		},
		{
			"bufferView":32,
			"componentType":5123,
			"count":8352,
			"type":"SCALAR"
		}
	],
	"bufferViews":[
		{
			"buffer":0,
			"byteLength":48,
			"byteOffset":0,
			"target":34962
		},
		{
			"buffer":0,
			"byteLength":48,
			"byteOffset":48,
			"target":34962
		},
		{
			"buffer":0,
			"byteLength":32,
			"byteOffset":96,
			"target":34962
		},
		{
			"buffer":0,
			"byteLength":12,
			"byteOffset":128,
			"target":34963
		},
		{
			"buffer":0,
			"byteLength":138720,
			"byteOffset":140,
			"target":34962
		},
		{
			"buffer":0,
			"byteLength":138720,
			"byteOffset":138860,
			"target":34962
		},
		{
			"buffer":0,
			"byteLength":92480,
			"byteOffset":277580,
			"target":34962
		},
		{
			"buffer":0,
			"byteLength":67992,
			"byteOffset":370060,
			"target":34963
		},
		{
			"buffer":0,
			"byteLength":40392,
			"byteOffset":438052,
			"target":34962
		},
		{
			"buffer":0,
			"byteLength":40392,
			"byteOffset":478444,
			"target":34962
		},
		{
			"buffer":0,
			"byteLength":26928,
			"byteOffset":518836,
			"target":34962
		},
		{
			"buffer":0,
			"byteLength":19896,
			"byteOffset":545764,
			"target":34963
		},
		{
			"buffer":0,
			"byteLength":48,
			"byteOffset":565660,
			"target":34962
		},
		{
			"buffer":0,
			"byteLength":48,
			"byteOffset":565708,
			"target":34962
		},
		{
			"buffer":0,
			"byteLength":32,
			"byteOffset":565756,
			"target":34962
		},
		{
			"buffer":0,
			"byteLength":48,
			"byteOffset":565788,
			"target":34962
		},
		{
			"buffer":0,
			"byteLength":48,
			"byteOffset":565836,
			"target":34962
		},
		{
			"buffer":0,
			"byteLength":32,
			"byteOffset":565884,
			"target":34962
		},
		{
			"buffer":0,
			"byteLength":48,
			"byteOffset":565916,
			"target":34962
		},
		{
			"buffer":0,
			"byteLength":48,
			"byteOffset":565964,
			"target":34962
		},
		{
			"buffer":0,
			"byteLength":32,
			"byteOffset":566012,
			"target":34962
		},
		{
			"buffer":0,
			"byteLength":34392,
			"byteOffset":566044,
			"target":34962
		},
		{
			"buffer":0,
			"byteLength":34392,
			"byteOffset":600436,
			"target":34962
		},
		{
			"buffer":0,
			"byteLength":22928,
			"byteOffset":634828,
			"target":34962
		},
		{
			"buffer":0,
			"byteLength":16848,
			"byteOffset":657756,
			"target":34963
		},
		{
			"buffer":0,
			"byteLength":40032,
			"byteOffset":674604,
			"target":34962
		},
		{
			"buffer":0,
			"byteLength":40032,
			"byteOffset":714636,
			"target":34962
		},
		{
			"buffer":0,
			"byteLength":26688,
			"byteOffset":754668,
			"target":34962
		},
		{
			"buffer":0,
			"byteLength":19656,
			"byteOffset":781356,
			"target":34963
		},
		{
			"buffer":0,
			"byteLength":34056,
			"byteOffset":801012,
			"target":34962
		},
		{
			"buffer":0,
			"byteLength":34056,
			"byteOffset":835068,
			"target":34962
		},
		{
			"buffer":0,
			"byteLength":22704,
			"byteOffset":869124,
			"target":34962
		},
		{
			"buffer":0,
			"byteLength":16704,
			"byteOffset":891828,
			"target":34963
		}
	],
	"samplers":[
		{
			"magFilter":9729,
			"minFilter":9987
		}
	],
	"buffers":[
		{
			"byteLength":908532,
			"uri":"consumers.bin"
		}
	]
}
