{
	"asset":{
		"generator":"Khronos glTF Blender I/O v3.6.27",
		"version":"2.0"
	},
	"scene":0,
	"scenes":[
		{
			"name":"Scene",
			"nodes":[
				0,
				1,
				2,
				3
			]
		}
	],
	"nodes":[
		{
			"mesh":0,
			"name":"base2.001",
			"translation":[
				0,
				0.09443385899066925,
				-0.06159842759370804
			]
		},
		{
			"mesh":1,
			"name":"Text.002",
			"rotation":[
				0.70710688829422,
				0,
				0,
				0.7071066498756409
			],
			"scale":[
				0.011089053936302662,
				0.024601411074399948,
				0.013473321683704853
			],
			"translation":[
				0.12052856385707855,
				0.21893496811389923,
				-0.029881378635764122
			]
		},
		{
			"mesh":2,
			"name":"Cube.001",
			"scale":[
				0.042796939611434937,
				0.009707197546958923,
				9.999999747378752e-05
			],
			"translation":[
				0.1305457353591919,
				0.22385628521442413,
				-0.03038388304412365
			]
		},
		{
			"mesh":3,
			"name":"Cube.004",
			"scale":[
				0.0429159514605999,
				0.0010000000474974513,
				0
			],
			"translation":[
				0.04674823582172394,
				0.2233545333147049,
				-0.03006281517446041
			]
		}
	],
	"materials":[
		{
			"doubleSided":true,
			"name":"Material.019",
			"pbrMetallicRoughness":{
				"baseColorFactor":[
					0.8000000715255737,
					0.7875087857246399,
					0.7507203817367554,
					1
				],
				"metallicFactor":0,
				"roughnessFactor":0.8257575631141663
			}
		},
		{
			"doubleSided":true,
			"name":"black plastic.032",
			"pbrMetallicRoughness":{
				"baseColorFactor":[
					0.0056046294048428535,
					0.0056046294048428535,
					0.0056046294048428535,
					1
				],
				"metallicFactor":0,
				"roughnessFactor":0.6166667342185974
			}
		}
	],
	"meshes":[
		{
			"name":"Cube.005",
			"primitives":[
				{
					"attributes":{
						"POSITION":0,
						"NORMAL":1,
						"TEXCOORD_0":2
					},
					"indices":3,
					"material":0
				}
			]
		},
		{
			"name":"Text.011",
			"primitives":[
				{
					"attributes":{
						"POSITION":4,
						"NORMAL":5,
						"TEXCOORD_0":6
					},
					"indices":7,
					"material":1
				}
			]
		},
		{
			"name":"Cube.006",
			"primitives":[
				{
					"attributes":{
						"POSITION":8,
						"NORMAL":9,
						"TEXCOORD_0":10
					},
					"indices":11
				}
			]
		},
		{
			"name":"Cube.007",
			"primitives":[
				{
					"attributes":{
						"POSITION":12,
						"NORMAL":13,
						"TEXCOORD_0":14
					},
					"indices":11
				}
			]
		}
	],
	"accessors":[
		{
			"bufferView":0,
			"componentType":5126,
			"count":2076,
			"max":[
				0.02823987789452076,
				0.15361864864826202,
				0.10772170126438141
			],
			"min":[
				-0.02823987789452076,
				-0.05507567897439003,
				-0.02047540992498398
			],
			"type":"VEC3"
		},
		{
			"bufferView":1,
			"componentType":5126,
			"count":2076,
			"type":"VEC3"
		},
		{
			"bufferView":2,
			"componentType":5126,
			"count":2076,
			"type":"VEC2"
		},
		{
			"bufferView":3,
			"componentType":5123,
			"count":6180,
			"type":"SCALAR"
		},
		{
			"bufferView":4,
			"componentType":5126,
			"count":490,
			"max":[
				1.9800002574920654,
				0.010000000707805157,
				0
			],
			"min":[
				0,
				-0.010000000707805157,
				-0.6860000491142273
			],
			"type":"VEC3"
		},
		{
			"bufferView":5,
			"componentType":5126,
			"count":490,
			"type":"VEC3"
		},
		{
			"bufferView":6,
			"componentType":5126,
			"count":490,
			"type":"VEC2"
		},
		{
			"bufferView":7,
			"componentType":5123,
			"count":1428,
			"type":"SCALAR"
		},
		{
			"bufferView":8,
			"componentType":5126,
			"count":24,
			"max":[
				1,
				1,
				1
			],
			"min":[
				-1,
				-1,
				-1
			],
			"type":"VEC3"
		},
		{
			"bufferView":9,
			"componentType":5126,
			"count":24,
			"type":"VEC3"
		},
		{
			"bufferView":10,
			"componentType":5126,
			"count":24,
			"type":"VEC2"
		},
		{
			"bufferView":11,
			"componentType":5123,
			"count":36,
			"type":"SCALAR"
		},
		{
			"bufferView":12,
			"componentType":5126,
			"count":24,
			"max":[
				1,
				1,
				1
			],
			"min":[
				-1,
				-1,
				-1
			],
			"type":"VEC3"
		},
		{
			"bufferView":13,
			"componentType":5126,
			"count":24,
			"type":"VEC3"
		},
		{
			"bufferView":14,
			"componentType":5126,
			"count":24,
			"type":"VEC2"
		}
	],
	"bufferViews":[
		{
			"buffer":0,
			"byteLength":24912,
			"byteOffset":0,
			"target":34962
		},
		{
			"buffer":0,
			"byteLength":24912,
			"byteOffset":24912,
			"target":34962
		},
		{
			"buffer":0,
			"byteLength":16608,
			"byteOffset":49824,
			"target":34962
		},
		{
			"buffer":0,
			"byteLength":12360,
			"byteOffset":66432,
			"target":34963
		},
		{
			"buffer":0,
			"byteLength":5880,
			"byteOffset":78792,
			"target":34962
		},
		{
			"buffer":0,
			"byteLength":5880,
			"byteOffset":84672,
			"target":34962
		},
		{
			"buffer":0,
			"byteLength":3920,
			"byteOffset":90552,
			"target":34962
		},
		{
			"buffer":0,
			"byteLength":2856,
			"byteOffset":94472,
			"target":34963
		},
		{
			"buffer":0,
			"byteLength":288,
			"byteOffset":97328,
			"target":34962
		},
		{
			"buffer":0,
			"byteLength":288,
			"byteOffset":97616,
			"target":34962
		},
		{
			"buffer":0,
			"byteLength":192,
			"byteOffset":97904,
			"target":34962
		},
		{
			"buffer":0,
			"byteLength":72,
			"byteOffset":98096,
			"target":34963
		},
		{
			"buffer":0,
			"byteLength":288,
			"byteOffset":98168,
			"target":34962
		},
		{
			"buffer":0,
			"byteLength":288,
			"byteOffset":98456,
			"target":34962
		},
		{
			"buffer":0,
			"byteLength":192,
			"byteOffset":98744,
			"target":34962
		}
	],
	"buffers":[
		{
			"byteLength":98936,
			"uri":"arm3.bin"
		}
	]
}
