{
	"asset":{
		"generator":"Khronos glTF Blender I/O v3.6.27",
		"version":"2.0"
	},
	"scene":0,
	"scenes":[
		{
			"name":"Scene",
			"nodes":[
				0,
				1,
				2,
				3
			]
		}
	],
	"nodes":[
		{
			"mesh":0,
			"name":"condenser",
			"translation":[
				0,
				0.13506688177585602,
				0.01805155538022518
			]
		},
		{
			"mesh":1,
			"name":"Text.002",
			"rotation":[
				0.70710688829422,
				0,
				0,
				0.7071066498756409
			],
			"scale":[
				0.011089053936302662,
				0.024601411074399948,
				0.013473321683704853
			],
			"translation":[
				-0.16922208666801453,
				0.11585037410259247,
				0.019954398274421692
			]
		},
		{
			"mesh":2,
			"name":"Cube.001",
			"scale":[
				0.0429159514605999,
				0.0010000000474974513,
				0
			],
			"translation":[
				-0.05699526518583298,
				0.12026993930339813,
				0.019772961735725403
			]
		},
		{
			"mesh":3,
			"name":"Cube.004",
			"scale":[
				0.042796939611434937,
				0.009707197546958923,
				9.999999747378752e-05
			],
			"translation":[
				-0.13668866455554962,
				0.12077172100543976,
				0.019451893866062164
			]
		}
	],
	"materials":[
		{
			"doubleSided":true,
			"name":"black plastic.047",
			"pbrMetallicRoughness":{
				"baseColorFactor":[
					0.0056046294048428535,
					0.0056046294048428535,
					0.0056046294048428535,
					1
				],
				"metallicFactor":0,
				"roughnessFactor":0.6166667342185974
			}
		},
		{
			"doubleSided":true,
			"name":"glass.011",
			"pbrMetallicRoughness":{
				"baseColorFactor":[
					0.38437479734420776,
					0.3731274902820587,
					0.3731274902820587,
					1
				],
				"metallicFactor":0,
				"roughnessFactor":0
			}
		},
		{
			"doubleSided":true,
			"name":"metal.026",
			"pbrMetallicRoughness":{
				"baseColorFactor":[
					0.5925782918930054,
					0.5925782918930054,
					0.5925782918930054,
					1
				],
				"roughnessFactor":0.4833333194255829
			}
		},
		{
			"doubleSided":true,
			"name":"black plastic.048",
			"pbrMetallicRoughness":{
				"baseColorFactor":[
					0.0056046294048428535,
					0.0056046294048428535,
					0.0056046294048428535,
					1
				],
				"metallicFactor":0,
				"roughnessFactor":0.6166667342185974
			}
		}
	],
	"meshes":[
		{
			"name":"Cylinder.014",
			"primitives":[
				{
					"attributes":{
						"POSITION":0,
						"NORMAL":1,
						"TEXCOORD_0":2
					},
					"indices":3,
					"material":0
				},
				{
					"attributes":{
						"POSITION":4,
						"NORMAL":5,
						"TEXCOORD_0":6
					},
					"indices":7,
					"material":1
				},
				{
					"attributes":{
						"POSITION":8,
						"NORMAL":9,
						"TEXCOORD_0":10
					},
					"indices":11,
					"material":2
				}
			]
		},
		{
			"name":"Text.005",
			"primitives":[
				{
					"attributes":{
						"POSITION":12,
						"NORMAL":13,
						"TEXCOORD_0":14
					},
					"indices":15,
					"material":3
				}
			]
		},
		{
			"name":"Cube.040",
			"primitives":[
				{
					"attributes":{
						"POSITION":16,
						"NORMAL":17,
						"TEXCOORD_0":18
					},
					"indices":19
				}
			]
		},
		{
			"name":"Cube.041",
			"primitives":[
				{
					"attributes":{
						"POSITION":20,
						"NORMAL":21,
						"TEXCOORD_0":22
					},
					"indices":19
				}
			]
		}
	],
	"accessors":[
		{
			"bufferView":0,
			"componentType":5126,
			"count":3002,
			"max":[
				0.024995794519782066,
				0.02030831016600132,
				0.024995794519782066
			],
			"min":[
				-0.024995794519782066,
				-0.027060750871896744,
				-0.024995800107717514
			],
			"type":"VEC3"
		},
		{
			"bufferView":1,
			"componentType":5126,
			"count":3002,
			"type":"VEC3"
		},
		{
			"bufferView":2,
			"componentType":5126,
			"count":3002,
			"type":"VEC2"
		},
		{
			"bufferView":3,
			"componentType":5123,
			"count":10560,
			"type":"SCALAR"
		},
		{
			"bufferView":4,
			"componentType":5126,
			"count":32,
			"max":[
				0.007413782179355621,
				0.019863499328494072,
				0.007413781713694334
			],
			"min":[
				-0.007413782179355621,
				0.019863499328494072,
				-0.007413783110678196
			],
			"type":"VEC3"
		},
		{
			"bufferView":5,
			"componentType":5126,
			"count":32,
			"type":"VEC3"
		},
		{
			"bufferView":6,
			"componentType":5126,
			"count":32,
			"type":"VEC2"
		},
		{
			"bufferView":7,
			"componentType":5123,
			"count":90,
			"type":"SCALAR"
		},
		{
			"bufferView":8,
			"componentType":5126,
			"count":672,
			"max":[
				0.026141250506043434,
				-0.011744935065507889,
				0.026141250506043434
			],
			"min":[
				-0.026141250506043434,
				-0.014848029240965843,
				-0.026141252368688583
			],
			"type":"VEC3"
		},
		{
			"bufferView":9,
			"componentType":5126,
			"count":672,
			"type":"VEC3"
		},
		{
			"bufferView":10,
			"componentType":5126,
			"count":672,
			"type":"VEC2"
		},
		{
			"bufferView":11,
			"componentType":5123,
			"count":2496,
			"type":"SCALAR"
		},
		{
			"bufferView":12,
			"componentType":5126,
			"count":2056,
			"max":[
				5.90500020980835,
				0.010000000707805157,
				0.009000000543892384
			],
			"min":[
				0.04800000041723251,
				-0.010000000707805157,
				-0.6910000443458557
			],
			"type":"VEC3"
		},
		{
			"bufferView":13,
			"componentType":5126,
			"count":2056,
			"type":"VEC3"
		},
		{
			"bufferView":14,
			"componentType":5126,
			"count":2056,
			"type":"VEC2"
		},
		{
			"bufferView":15,
			"componentType":5123,
			"count":6024,
			"type":"SCALAR"
		},
		{
			"bufferView":16,
			"componentType":5126,
			"count":24,
			"max":[
				1,
				1,
				1
			],
			"min":[
				-1,
				-1,
				-1
			],
			"type":"VEC3"
		},
		{
			"bufferView":17,
			"componentType":5126,
			"count":24,
			"type":"VEC3"
		},
		{
			"bufferView":18,
			"componentType":5126,
			"count":24,
			"type":"VEC2"
		},
		{
			"bufferView":19,
			"componentType":5123,
			"count":36,
			"type":"SCALAR"
		},
		{
			"bufferView":20,
			"componentType":5126,
			"count":24,
			"max":[
				1,
				1,
				1
			],
			"min":[
				-1,
				-1,
				-1
			],
			"type":"VEC3"
		},
		{
			"bufferView":21,
			"componentType":5126,
			"count":24,
			"type":"VEC3"
		},
		{
			"bufferView":22,
			"componentType":5126,
			"count":24,
			"type":"VEC2"
		}
	],
	"bufferViews":[
		{
			"buffer":0,
			"byteLength":36024,
			"byteOffset":0,
			"target":34962
		},
		{
			"buffer":0,
			"byteLength":36024,
			"byteOffset":36024,
			"target":34962
		},
		{
			"buffer":0,
			"byteLength":24016,
			"byteOffset":72048,
			"target":34962
		},
		{
			"buffer":0,
			"byteLength":21120,
			"byteOffset":96064,
			"target":34963
		},
		{
			"buffer":0,
			"byteLength":384,
			"byteOffset":117184,
			"target":34962
		},
		{
			"buffer":0,
			"byteLength":384,
			"byteOffset":117568,
			"target":34962
		},
		{
			"buffer":0,
			"byteLength":256,
			"byteOffset":117952,
			"target":34962
		},
		{
			"buffer":0,
			"byteLength":180,
			"byteOffset":118208,
			"target":34963
		},
		{
			"buffer":0,
			"byteLength":8064,
			"byteOffset":118388,
			"target":34962
		},
		{
			"buffer":0,
			"byteLength":8064,
			"byteOffset":126452,
			"target":34962
		},
		{
			"buffer":0,
			"byteLength":5376,
			"byteOffset":134516,
			"target":34962
		},
		{
			"buffer":0,
			"byteLength":4992,
			"byteOffset":139892,
			"target":34963
		},
		{
			"buffer":0,
			"byteLength":24672,
			"byteOffset":144884,
			"target":34962
		},
		{
			"buffer":0,
			"byteLength":24672,
			"byteOffset":169556,
			"target":34962
		},
		{
			"buffer":0,
			"byteLength":16448,
			"byteOffset":194228,
			"target":34962
		},
		{
			"buffer":0,
			"byteLength":12048,
			"byteOffset":210676,
			"target":34963
		},
		{
			"buffer":0,
			"byteLength":288,
			"byteOffset":222724,
			"target":34962
		},
		{
			"buffer":0,
			"byteLength":288,
			"byteOffset":223012,
			"target":34962
		},
		{
			"buffer":0,
			"byteLength":192,
			"byteOffset":223300,
			"target":34962
		},
		{
			"buffer":0,
			"byteLength":72,
			"byteOffset":223492,
			"target":34963
		},
		{
			"buffer":0,
			"byteLength":288,
			"byteOffset":223564,
			"target":34962
		},
		{
			"buffer":0,
			"byteLength":288,
			"byteOffset":223852,
			"target":34962
		},
		{
			"buffer":0,
			"byteLength":192,
			"byteOffset":224140,
			"target":34962
		}
	],
	"buffers":[
		{
			"byteLength":224332,
			"uri":"condenser5.bin"
		}
	]
}
