{
	"asset":{
		"generator":"Khronos glTF Blender I/O v3.6.27",
		"version":"2.0"
	},
	"scene":0,
	"scenes":[
		{
			"name":"Scene",
			"nodes":[
				0,
				1,
				2,
				3
			]
		}
	],
	"nodes":[
		{
			"mesh":0,
			"name":"focusknob",
			"rotation":[
				0.5,
				0.5,
				-0.5,
				0.5
			],
			"scale":[
				1,
				1.582393765449524,
				1
			],
			"translation":[
				0,
				0.11087734997272491,
				-0.05045735090970993
			]
		},
		{
			"mesh":1,
			"name":"Text.006",
			"rotation":[
				0.7071068286895752,
				0,
				0,
				0.7071068286895752
			],
			"scale":[
				0.011089053936302662,
				0.02460140734910965,
				0.013473319821059704
			],
			"translation":[
				-0.24414190649986267,
				0.09605532139539719,
				-0.04929196462035179
			]
		},
		{
			"mesh":2,
			"name":"Cube.012",
			"scale":[
				0.05250706523656845,
				0.009707197546958923,
				9.999999747378752e-05
			],
			"translation":[
				-0.2048475295305252,
				0.10097666829824448,
				-0.04979446902871132
			]
		},
		{
			"mesh":3,
			"name":"Cube.013",
			"scale":[
				0.03901400789618492,
				0.0010000000474974513,
				0
			],
			"translation":[
				-0.11699026823043823,
				0.10047488659620285,
				-0.04947340115904808
			]
		}
	],
	"materials":[
		{
			"doubleSided":true,
			"name":"black plastic",
			"pbrMetallicRoughness":{
				"baseColorFactor":[
					0.0056046294048428535,
					0.0056046294048428535,
					0.0056046294048428535,
					1
				],
				"metallicFactor":0,
				"roughnessFactor":0.6166667342185974
			}
		},
		{
			"doubleSided":true,
			"name":"metal.002",
			"pbrMetallicRoughness":{
				"baseColorFactor":[
					0.5925782918930054,
					0.5925782918930054,
					0.5925782918930054,
					1
				],
				"roughnessFactor":0.4833333194255829
			}
		},
		{
			"doubleSided":true,
			"name":"black plastic.008",
			"pbrMetallicRoughness":{
				"baseColorFactor":[
					0.0056046294048428535,
					0.0056046294048428535,
					0.0056046294048428535,
					1
				],
				"metallicFactor":0,
				"roughnessFactor":0.6166667342185974
			}
		}
	],
	"meshes":[
		{
			"name":"Cylinder.001",
			"primitives":[
				{
					"attributes":{
						"POSITION":0,
						"NORMAL":1,
						"TEXCOORD_0":2
					},
					"indices":3,
					"material":0
				},
				{
					"attributes":{
						"POSITION":4,
						"NORMAL":5,
						"TEXCOORD_0":6
					},
					"indices":7,
					"material":1
				}
			]
		},
		{
			"name":"Text.006",
			"primitives":[
				{
					"attributes":{
						"POSITION":8,
						"NORMAL":9,
						"TEXCOORD_0":10
					},
					"indices":11,
					"material":2
				}
			]
		},
		{
			"name":"Cube.020",
			"primitives":[
				{
					"attributes":{
						"POSITION":12,
						"NORMAL":13,
						"TEXCOORD_0":14
					},
					"indices":15
				}
			]
		},
		{
			"name":"Cube.021",
			"primitives":[
				{
					"attributes":{
						"POSITION":16,
						"NORMAL":17,
						"TEXCOORD_0":18
					},
					"indices":15
				}
			]
		}
	],
	"accessors":[
		{
			"bufferView":0,
			"componentType":5126,
			"count":2649,
			"max":[
				0.018264196813106537,
				0.04705600440502167,
				0.01826419308781624
			],
			"min":[
				-0.018264200538396835,
				-0.04705600440502167,
				-0.018264200538396835
			],
			"type":"VEC3"
		},
		{
			"bufferView":1,
			"componentType":5126,
			"count":2649,
			"type":"VEC3"
		},
		{
			"bufferView":2,
			"componentType":5126,
			"count":2649,
			"type":"VEC2"
		},
		{
			"bufferView":3,
			"componentType":5123,
			"count":12480,
			"type":"SCALAR"
		},
		{
			"bufferView":4,
			"componentType":5126,
			"count":2214,
			"max":[
				0.008222662843763828,
				0.04789487645030022,
				0.008222660981118679
			],
			"min":[
				-0.008222668431699276,
				-0.04789487645030022,
				-0.00822266936302185
			],
			"type":"VEC3"
		},
		{
			"bufferView":5,
			"componentType":5126,
			"count":2214,
			"type":"VEC3"
		},
		{
			"bufferView":6,
			"componentType":5126,
			"count":2214,
			"type":"VEC2"
		},
		{
			"bufferView":7,
			"componentType":5123,
			"count":9972,
			"type":"SCALAR"
		},
		{
			"bufferView":8,
			"componentType":5126,
			"count":3378,
			"max":[
				7.172000408172607,
				0.010000000707805157,
				0.009000000543892384
			],
			"min":[
				0.04800000041723251,
				-0.010000000707805157,
				-0.6910000443458557
			],
			"type":"VEC3"
		},
		{
			"bufferView":9,
			"componentType":5126,
			"count":3378,
			"type":"VEC3"
		},
		{
			"bufferView":10,
			"componentType":5126,
			"count":3378,
			"type":"VEC2"
		},
		{
			"bufferView":11,
			"componentType":5123,
			"count":9960,
			"type":"SCALAR"
		},
		{
			"bufferView":12,
			"componentType":5126,
			"count":24,
			"max":[
				1,
				1,
				1
			],
			"min":[
				-1,
				-1,
				-1
			],
			"type":"VEC3"
		},
		{
			"bufferView":13,
			"componentType":5126,
			"count":24,
			"type":"VEC3"
		},
		{
			"bufferView":14,
			"componentType":5126,
			"count":24,
			"type":"VEC2"
		},
		{
			"bufferView":15,
			"componentType":5123,
			"count":36,
			"type":"SCALAR"
		},
		{
			"bufferView":16,
			"componentType":5126,
			"count":24,
			"max":[
				1,
				1,
				1
			],
			"min":[
				-1,
				-1,
				-1
			],
			"type":"VEC3"
		},
		{
			"bufferView":17,
			"componentType":5126,
			"count":24,
			"type":"VEC3"
		},
		{
			"bufferView":18,
			"componentType":5126,
			"count":24,
			"type":"VEC2"
		}
	],
	"bufferViews":[
		{
			"buffer":0,
			"byteLength":31788,
			"byteOffset":0,
			"target":34962
		},
		{
			"buffer":0,
			"byteLength":31788,
			"byteOffset":31788,
			"target":34962
		},
		{
			"buffer":0,
			"byteLength":21192,
			"byteOffset":63576,
			"target":34962
		},
		{
			"buffer":0,
			"byteLength":24960,
			"byteOffset":84768,
			"target":34963
		},
		{
			"buffer":0,
			"byteLength":26568,
			"byteOffset":109728,
			"target":34962
		},
		{
			"buffer":0,
			"byteLength":26568,
			"byteOffset":136296,
			"target":34962
		},
		{
			"buffer":0,
			"byteLength":17712,
			"byteOffset":162864,
			"target":34962
		},
		{
			"buffer":0,
			"byteLength":19944,
			"byteOffset":180576,
			"target":34963
		},
		{
			"buffer":0,
			"byteLength":40536,
			"byteOffset":200520,
			"target":34962
		},
		{
			"buffer":0,
			"byteLength":40536,
			"byteOffset":241056,
			"target":34962
		},
		{
			"buffer":0,
			"byteLength":27024,
			"byteOffset":281592,
			"target":34962
		},
		{
			"buffer":0,
			"byteLength":19920,
			"byteOffset":308616,
			"target":34963
		},
		{
			"buffer":0,
			"byteLength":288,
			"byteOffset":328536,
			"target":34962
		},
		{
			"buffer":0,
			"byteLength":288,
			"byteOffset":328824,
			"target":34962
		},
		{
			"buffer":0,
			"byteLength":192,
			"byteOffset":329112,
			"target":34962
		},
		{
			"buffer":0,
			"byteLength":72,
			"byteOffset":329304,
			"target":34963
		},
		{
			"buffer":0,
			"byteLength":288,
			"byteOffset":329376,
			"target":34962
		},
		{
			"buffer":0,
			"byteLength":288,
			"byteOffset":329664,
			"target":34962
		},
		{
			"buffer":0,
			"byteLength":192,
			"byteOffset":329952,
			"target":34962
		}
	],
	"buffers":[
		{
			"byteLength":330144,
			"uri":"coarse2.bin"
		}
	]
}
