{
	"asset":{
		"generator":"Khronos glTF Blender I/O v4.0.43",
		"version":"2.0"
	},
	"scene":0,
	"scenes":[
		{
			"name":"Scene",
			"nodes":[
				0,
				1,
				2,
				3,
				4
			]
		}
	],
	"nodes":[
		{
			"mesh":0,
			"name":"Text.008",
			"rotation":[
				0.7071066498756409,
				0.0005109042976982892,
				-0.0005109043559059501,
				0.7071066498756409
			],
			"scale":[
				0.4343431890010834,
				0.9138297438621521,
				0.43434321880340576
			],
			"translation":[
				-2.869088649749756,
				4.302573204040527,
				-2.2497689723968506
			]
		},
		{
			"mesh":1,
			"name":"Text.009",
			"rotation":[
				0.7071066498756409,
				0.0005109042976982892,
				-0.0005109042976982892,
				0.7071066498756409
			],
			"scale":[
				0.4443278908729553,
				0.9138297438621521,
				0.4443278908729553
			],
			"translation":[
				0.22914564609527588,
				4.336650371551514,
				-2.2583565711975098
			]
		},
		{
			"mesh":2,
			"name":"Plane.013",
			"rotation":[
				-0.5003611445426941,
				0.5003611445426941,
				-0.4996386468410492,
				0.4996386766433716
			],
			"scale":[
				2.980520725250244,
				1,
				7.968738555908203
			],
			"translation":[
				-0.3181871175765991,
				2.2642641067504883,
				-2.3603708744049072
			]
		},
		{
			"mesh":3,
			"name":"Plane.039",
			"rotation":[
				0.7071068286895752,
				0,
				0,
				0.7071068286895752
			],
			"scale":[
				5.308655261993408,
				1,
				2.909515619277954
			],
			"translation":[
				-0.21611669659614563,
				2.286062240600586,
				-2.314723253250122
			]
		},
		{
			"mesh":4,
			"name":"Blue_Top",
			"rotation":[
				0.8753979206085205,
				-0.07389409095048904,
				-0.14355377852916718,
				0.45564284920692444
			],
			"scale":[
				0.03030143491923809,
				0.05002301186323166,
				0.05846874415874481
			],
			"translation":[
				-0.7590005397796631,
				3.0447652339935303,
				-2.27101993560791
			]
		}
	],
	"materials":[
		{
			"doubleSided":true,
			"name":"Material.038",
			"pbrMetallicRoughness":{
				"metallicFactor":0,
				"roughnessFactor":0.5
			}
		},
		{
			"doubleSided":true,
			"name":"Material.039",
			"pbrMetallicRoughness":{
				"metallicFactor":0,
				"roughnessFactor":0.5
			}
		},
		{
			"doubleSided":true,
			"name":"Material.044",
			"pbrMetallicRoughness":{
				"baseColorFactor":[
					0.0064769890159368515,
					0.055540382862091064,
					0.008944455534219742,
					1
				],
				"metallicFactor":0,
				"roughnessFactor":0.5
			}
		},
		{
			"doubleSided":true,
			"name":"Material.048",
			"pbrMetallicRoughness":{
				"baseColorTexture":{
					"index":0
				},
				"metallicFactor":0,
				"roughnessFactor":0.5
			}
		},
		{
			"doubleSided":true,
			"name":"Azul_Top.001",
			"pbrMetallicRoughness":{
				"baseColorFactor":[
					0.5596118569374084,
					0.06412407755851746,
					0.8000156879425049,
					1
				],
				"metallicFactor":0,
				"roughnessFactor":0
			}
		}
	],
	"meshes":[
		{
			"name":"Text.022",
			"primitives":[
				{
					"attributes":{
						"POSITION":0,
						"NORMAL":1,
						"TEXCOORD_0":2
					},
					"indices":3,
					"material":0
				}
			]
		},
		{
			"name":"Text.023",
			"primitives":[
				{
					"attributes":{
						"POSITION":4,
						"NORMAL":5,
						"TEXCOORD_0":6
					},
					"indices":7,
					"material":1
				}
			]
		},
		{
			"name":"Plane.026",
			"primitives":[
				{
					"attributes":{
						"POSITION":8,
						"NORMAL":9,
						"TEXCOORD_0":10
					},
					"indices":11,
					"material":2
				}
			]
		},
		{
			"name":"Plane.039",
			"primitives":[
				{
					"attributes":{
						"POSITION":12,
						"NORMAL":13,
						"TEXCOORD_0":14
					},
					"indices":11,
					"material":3
				}
			]
		},
		{
			"name":"Cylinder.001",
			"primitives":[
				{
					"attributes":{
						"POSITION":15,
						"NORMAL":16
					},
					"indices":17,
					"material":4
				}
			]
		}
	],
	"textures":[
		{
			"sampler":0,
			"source":0
		}
	],
	"images":[
		{
			"mimeType":"image/png",
			"name":"venn.png",
			"uri":"venn.png"
		}
	],
	"accessors":[
		{
			"bufferView":0,
			"componentType":5126,
			"count":878,
			"max":[
				5.507999897003174,
				0.020000001415610313,
				0.009000000543892384
			],
			"min":[
				0.07000000029802322,
				-0.020000001415610313,
				-0.6910000443458557
			],
			"type":"VEC3"
		},
		{
			"bufferView":1,
			"componentType":5126,
			"count":878,
			"type":"VEC3"
		},
		{
			"bufferView":2,
			"componentType":5126,
			"count":878,
			"type":"VEC2"
		},
		{
			"bufferView":3,
			"componentType":5123,
			"count":2472,
			"type":"SCALAR"
		},
		{
			"bufferView":4,
			"componentType":5126,
			"count":740,
			"max":[
				6.092000484466553,
				0.020000001415610313,
				0.009000000543892384
			],
			"min":[
				0,
				-0.020000001415610313,
				-0.6910000443458557
			],
			"type":"VEC3"
		},
		{
			"bufferView":5,
			"componentType":5126,
			"count":740,
			"type":"VEC3"
		},
		{
			"bufferView":6,
			"componentType":5126,
			"count":740,
			"type":"VEC2"
		},
		{
			"bufferView":7,
			"componentType":5123,
			"count":2052,
			"type":"SCALAR"
		},
		{
			"bufferView":8,
			"componentType":5126,
			"count":4,
			"max":[
				1,
				0,
				1
			],
			"min":[
				-1,
				0,
				-1
			],
			"type":"VEC3"
		},
		{
			"bufferView":9,
			"componentType":5126,
			"count":4,
			"type":"VEC3"
		},
		{
			"bufferView":10,
			"componentType":5126,
			"count":4,
			"type":"VEC2"
		},
		{
			"bufferView":11,
			"componentType":5123,
			"count":6,
			"type":"SCALAR"
		},
		{
			"bufferView":12,
			"componentType":5126,
			"count":4,
			"max":[
				1,
				0,
				1
			],
			"min":[
				-1,
				0,
				-1
			],
			"type":"VEC3"
		},
		{
			"bufferView":13,
			"componentType":5126,
			"count":4,
			"type":"VEC3"
		},
		{
			"bufferView":14,
			"componentType":5126,
			"count":4,
			"type":"VEC2"
		},
		{
			"bufferView":15,
			"componentType":5126,
			"count":4647,
			"max":[
				41.32406234741211,
				27.794872283935547,
				4.316579341888428
			],
			"min":[
				-4.031057357788086,
				0.17725539207458496,
				-13.139900207519531
			],
			"type":"VEC3"
		},
		{
			"bufferView":16,
			"componentType":5126,
			"count":4647,
			"type":"VEC3"
		},
		{
			"bufferView":17,
			"componentType":5123,
			"count":25326,
			"type":"SCALAR"
		}
	],
	"bufferViews":[
		{
			"buffer":0,
			"byteLength":10536,
			"byteOffset":0,
			"target":34962
		},
		{
			"buffer":0,
			"byteLength":10536,
			"byteOffset":10536,
			"target":34962
		},
		{
			"buffer":0,
			"byteLength":7024,
			"byteOffset":21072,
			"target":34962
		},
		{
			"buffer":0,
			"byteLength":4944,
			"byteOffset":28096,
			"target":34963
		},
		{
			"buffer":0,
			"byteLength":8880,
			"byteOffset":33040,
			"target":34962
		},
		{
			"buffer":0,
			"byteLength":8880,
			"byteOffset":41920,
			"target":34962
		},
		{
			"buffer":0,
			"byteLength":5920,
			"byteOffset":50800,
			"target":34962
		},
		{
			"buffer":0,
			"byteLength":4104,
			"byteOffset":56720,
			"target":34963
		},
		{
			"buffer":0,
			"byteLength":48,
			"byteOffset":60824,
			"target":34962
		},
		{
			"buffer":0,
			"byteLength":48,
			"byteOffset":60872,
			"target":34962
		},
		{
			"buffer":0,
			"byteLength":32,
			"byteOffset":60920,
			"target":34962
		},
		{
			"buffer":0,
			"byteLength":12,
			"byteOffset":60952,
			"target":34963
		},
		{
			"buffer":0,
			"byteLength":48,
			"byteOffset":60964,
			"target":34962
		},
		{
			"buffer":0,
			"byteLength":48,
			"byteOffset":61012,
			"target":34962
		},
		{
			"buffer":0,
			"byteLength":32,
			"byteOffset":61060,
			"target":34962
		},
		{
			"buffer":0,
			"byteLength":55764,
			"byteOffset":61092,
			"target":34962
		},
		{
			"buffer":0,
			"byteLength":55764,
			"byteOffset":116856,
			"target":34962
		},
		{
			"buffer":0,
			"byteLength":50652,
			"byteOffset":172620,
			"target":34963
		}
	],
	"samplers":[
		{
			"magFilter":9729,
			"minFilter":9987
		}
	],
	"buffers":[
		{
			"byteLength":223272,
			"uri":"intestine.bin"
		}
	]
}
