{
	"asset":{
		"generator":"Khronos glTF Blender I/O v4.0.43",
		"version":"2.0"
	},
	"scene":0,
	"scenes":[
		{
			"name":"Scene",
			"nodes":[
				0,
				1,
				2,
				3,
				4,
				5,
				6,
				7,
				8,
				9
			]
		}
	],
	"nodes":[
		{
			"mesh":0,
			"name":"Text.008",
			"rotation":[
				0.7071066498756409,
				0.0005109042976982892,
				-0.0005109043559059501,
				0.7071066498756409
			],
			"scale":[
				0.4343431890010834,
				0.9138297438621521,
				0.43434321880340576
			],
			"translation":[
				-2.869088649749756,
				4.302573204040527,
				-2.2497689723968506
			]
		},
		{
			"mesh":1,
			"name":"Text.009",
			"rotation":[
				0.7071066498756409,
				0.0005109042976982892,
				-0.0005109042976982892,
				0.7071066498756409
			],
			"scale":[
				0.4443278908729553,
				0.9138297438621521,
				0.4443278908729553
			],
			"translation":[
				0.22914564609527588,
				4.336650371551514,
				-2.2583565711975098
			]
		},
		{
			"mesh":2,
			"name":"Plane.013",
			"rotation":[
				-0.5003611445426941,
				0.5003611445426941,
				-0.4996386468410492,
				0.4996386766433716
			],
			"scale":[
				2.980520725250244,
				1,
				7.968738555908203
			],
			"translation":[
				-0.3181871175765991,
				2.2642641067504883,
				-2.3603708744049072
			]
		},
		{
			"mesh":3,
			"name":"Outside.001",
			"rotation":[
				0,
				0.7076175808906555,
				0,
				0.7065957188606262
			],
			"scale":[
				0.28000858426094055,
				0.297625333070755,
				0.29336002469062805
			],
			"translation":[
				-0.24999898672103882,
				2.117377758026123,
				-1.6869652271270752
			]
		},
		{
			"mesh":4,
			"name":"Plane.039",
			"rotation":[
				0.7071068286895752,
				0,
				0,
				0.7071068286895752
			],
			"scale":[
				5.308655261993408,
				1,
				2.909515619277954
			],
			"translation":[
				-0.21611669659614563,
				2.286062240600586,
				-2.314723253250122
			]
		},
		{
			"mesh":5,
			"name":"Text",
			"rotation":[
				0.7071068286895752,
				0,
				0,
				0.7071068286895752
			],
			"scale":[
				0.21631862223148346,
				1,
				0.21631862223148346
			],
			"translation":[
				-0.6928894519805908,
				3.203035354614258,
				-1.8264329433441162
			]
		},
		{
			"mesh":6,
			"name":"Text.001",
			"rotation":[
				0.7071068286895752,
				0,
				0,
				0.7071068286895752
			],
			"scale":[
				0.21631862223148346,
				1,
				0.21631862223148346
			],
			"translation":[
				-0.9090546369552612,
				2.163933277130127,
				-1.6503028869628906
			]
		},
		{
			"mesh":7,
			"name":"Text.002",
			"rotation":[
				0.7071068286895752,
				0,
				0,
				0.7071068286895752
			],
			"scale":[
				0.21631862223148346,
				1,
				0.21631862223148346
			],
			"translation":[
				-2.6644985675811768,
				2.163933277130127,
				-1.2243142127990723
			]
		},
		{
			"mesh":8,
			"name":"Outside",
			"rotation":[
				0,
				0.7076175808906555,
				0,
				0.7065957188606262
			],
			"scale":[
				0.3691762089729309,
				0.45556196570396423,
				0.4445672929286957
			],
			"translation":[
				-2.308763027191162,
				2.5308873653411865,
				-1.796128749847412
			]
		},
		{
			"mesh":9,
			"name":"main",
			"rotation":[
				0,
				0.7076175808906555,
				0,
				0.7065957188606262
			],
			"scale":[
				0.32275986671447754,
				0.3126819133758545,
				0.3575277030467987
			],
			"translation":[
				-0.2120230793952942,
				3.162816047668457,
				-1.860156536102295
			]
		}
	],
	"materials":[
		{
			"doubleSided":true,
			"name":"Material.038",
			"pbrMetallicRoughness":{
				"metallicFactor":0,
				"roughnessFactor":0.5
			}
		},
		{
			"doubleSided":true,
			"name":"Material.039",
			"pbrMetallicRoughness":{
				"metallicFactor":0,
				"roughnessFactor":0.5
			}
		},
		{
			"doubleSided":true,
			"name":"Material.044",
			"pbrMetallicRoughness":{
				"baseColorFactor":[
					0.0064769890159368515,
					0.055540382862091064,
					0.008944455534219742,
					1
				],
				"metallicFactor":0,
				"roughnessFactor":0.5
			}
		},
		{
			"doubleSided":true,
			"name":"Material.046",
			"pbrMetallicRoughness":{
				"baseColorFactor":[
					0,
					0.8000473976135254,
					0.012261759489774704,
					1
				],
				"metallicFactor":0,
				"roughnessFactor":0.5
			}
		},
		{
			"doubleSided":true,
			"name":"Material.048",
			"pbrMetallicRoughness":{
				"baseColorTexture":{
					"index":0
				},
				"metallicFactor":0,
				"roughnessFactor":0.5
			}
		},
		{
			"doubleSided":true,
			"name":"Material.069",
			"pbrMetallicRoughness":{
				"baseColorFactor":[
					0,
					0,
					0,
					1
				],
				"metallicFactor":0,
				"roughnessFactor":0.5
			}
		},
		{
			"doubleSided":true,
			"name":"Material.070",
			"pbrMetallicRoughness":{
				"baseColorFactor":[
					0,
					0,
					0,
					1
				],
				"metallicFactor":0,
				"roughnessFactor":0.5
			}
		},
		{
			"doubleSided":true,
			"name":"Material.071",
			"pbrMetallicRoughness":{
				"baseColorFactor":[
					0,
					0,
					0,
					1
				],
				"metallicFactor":0,
				"roughnessFactor":0.5
			}
		},
		{
			"doubleSided":true,
			"name":"Material",
			"pbrMetallicRoughness":{
				"baseColorFactor":[
					0.7723206877708435,
					0,
					0.8005601167678833,
					1
				],
				"metallicFactor":0,
				"roughnessFactor":0.5
			}
		},
		{
			"doubleSided":true,
			"name":"main",
			"pbrMetallicRoughness":{
				"baseColorFactor":[
					0.8000074625015259,
					0.7266815900802612,
					0.0020401799120008945,
					1
				],
				"metallicFactor":0,
				"roughnessFactor":0
			}
		}
	],
	"meshes":[
		{
			"name":"Text.022",
			"primitives":[
				{
					"attributes":{
						"POSITION":0,
						"NORMAL":1,
						"TEXCOORD_0":2
					},
					"indices":3,
					"material":0
				}
			]
		},
		{
			"name":"Text.023",
			"primitives":[
				{
					"attributes":{
						"POSITION":4,
						"NORMAL":5,
						"TEXCOORD_0":6
					},
					"indices":7,
					"material":1
				}
			]
		},
		{
			"name":"Plane.026",
			"primitives":[
				{
					"attributes":{
						"POSITION":8,
						"NORMAL":9,
						"TEXCOORD_0":10
					},
					"indices":11,
					"material":2
				}
			]
		},
		{
			"name":"Cube.003",
			"primitives":[
				{
					"attributes":{
						"POSITION":12,
						"NORMAL":13
					},
					"indices":14,
					"material":3
				}
			]
		},
		{
			"name":"Plane.039",
			"primitives":[
				{
					"attributes":{
						"POSITION":15,
						"NORMAL":16,
						"TEXCOORD_0":17
					},
					"indices":11,
					"material":4
				}
			]
		},
		{
			"name":"Text.008",
			"primitives":[
				{
					"attributes":{
						"POSITION":18,
						"NORMAL":19,
						"TEXCOORD_0":20
					},
					"indices":21,
					"material":5
				}
			]
		},
		{
			"name":"Text.009",
			"primitives":[
				{
					"attributes":{
						"POSITION":22,
						"NORMAL":23,
						"TEXCOORD_0":24
					},
					"indices":25,
					"material":6
				}
			]
		},
		{
			"name":"Text.010",
			"primitives":[
				{
					"attributes":{
						"POSITION":26,
						"NORMAL":27,
						"TEXCOORD_0":28
					},
					"indices":29,
					"material":7
				}
			]
		},
		{
			"name":"Cube.001",
			"primitives":[
				{
					"attributes":{
						"POSITION":30,
						"NORMAL":31
					},
					"indices":14,
					"material":8
				}
			]
		},
		{
			"name":"Cube",
			"primitives":[
				{
					"attributes":{
						"POSITION":32,
						"NORMAL":33
					},
					"indices":34,
					"material":9
				}
			]
		}
	],
	"textures":[
		{
			"sampler":0,
			"source":0
		}
	],
	"images":[
		{
			"mimeType":"image/png",
			"name":"venn.png",
			"uri":"venn.png"
		}
	],
	"accessors":[
		{
			"bufferView":0,
			"componentType":5126,
			"count":878,
			"max":[
				5.507999897003174,
				0.020000001415610313,
				0.009000000543892384
			],
			"min":[
				0.07000000029802322,
				-0.020000001415610313,
				-0.6910000443458557
			],
			"type":"VEC3"
		},
		{
			"bufferView":1,
			"componentType":5126,
			"count":878,
			"type":"VEC3"
		},
		{
			"bufferView":2,
			"componentType":5126,
			"count":878,
			"type":"VEC2"
		},
		{
			"bufferView":3,
			"componentType":5123,
			"count":2472,
			"type":"SCALAR"
		},
		{
			"bufferView":4,
			"componentType":5126,
			"count":740,
			"max":[
				6.092000484466553,
				0.020000001415610313,
				0.009000000543892384
			],
			"min":[
				0,
				-0.020000001415610313,
				-0.6910000443458557
			],
			"type":"VEC3"
		},
		{
			"bufferView":5,
			"componentType":5126,
			"count":740,
			"type":"VEC3"
		},
		{
			"bufferView":6,
			"componentType":5126,
			"count":740,
			"type":"VEC2"
		},
		{
			"bufferView":7,
			"componentType":5123,
			"count":2052,
			"type":"SCALAR"
		},
		{
			"bufferView":8,
			"componentType":5126,
			"count":4,
			"max":[
				1,
				0,
				1
			],
			"min":[
				-1,
				0,
				-1
			],
			"type":"VEC3"
		},
		{
			"bufferView":9,
			"componentType":5126,
			"count":4,
			"type":"VEC3"
		},
		{
			"bufferView":10,
			"componentType":5126,
			"count":4,
			"type":"VEC2"
		},
		{
			"bufferView":11,
			"componentType":5123,
			"count":6,
			"type":"SCALAR"
		},
		{
			"bufferView":12,
			"componentType":5126,
			"count":137,
			"max":[
				1.3720015287399292,
				1.3720015287399292,
				1.3720015287399292
			],
			"min":[
				-1.3720015287399292,
				-1.3720015287399292,
				-1.3720015287399292
			],
			"type":"VEC3"
		},
		{
			"bufferView":13,
			"componentType":5126,
			"count":137,
			"type":"VEC3"
		},
		{
			"bufferView":14,
			"componentType":5123,
			"count":756,
			"type":"SCALAR"
		},
		{
			"bufferView":15,
			"componentType":5126,
			"count":4,
			"max":[
				1,
				0,
				1
			],
			"min":[
				-1,
				0,
				-1
			],
			"type":"VEC3"
		},
		{
			"bufferView":16,
			"componentType":5126,
			"count":4,
			"type":"VEC3"
		},
		{
			"bufferView":17,
			"componentType":5126,
			"count":4,
			"type":"VEC2"
		},
		{
			"bufferView":18,
			"componentType":5126,
			"count":757,
			"max":[
				4.27400016784668,
				0,
				0.23000000417232513
			],
			"min":[
				0.04800000041723251,
				0,
				-0.6910000443458557
			],
			"type":"VEC3"
		},
		{
			"bufferView":19,
			"componentType":5126,
			"count":757,
			"type":"VEC3"
		},
		{
			"bufferView":20,
			"componentType":5126,
			"count":757,
			"type":"VEC2"
		},
		{
			"bufferView":21,
			"componentType":5123,
			"count":2235,
			"type":"SCALAR"
		},
		{
			"bufferView":22,
			"componentType":5126,
			"count":911,
			"max":[
				6.203000068664551,
				0,
				0.009000000543892384
			],
			"min":[
				0.04800000041723251,
				0,
				-0.6910000443458557
			],
			"type":"VEC3"
		},
		{
			"bufferView":23,
			"componentType":5126,
			"count":911,
			"type":"VEC3"
		},
		{
			"bufferView":24,
			"componentType":5126,
			"count":911,
			"type":"VEC2"
		},
		{
			"bufferView":25,
			"componentType":5123,
			"count":2691,
			"type":"SCALAR"
		},
		{
			"bufferView":26,
			"componentType":5126,
			"count":400,
			"max":[
				3.7450003623962402,
				0,
				0.009000000543892384
			],
			"min":[
				0.04800000041723251,
				0,
				-0.6910000443458557
			],
			"type":"VEC3"
		},
		{
			"bufferView":27,
			"componentType":5126,
			"count":400,
			"type":"VEC3"
		},
		{
			"bufferView":28,
			"componentType":5126,
			"count":400,
			"type":"VEC2"
		},
		{
			"bufferView":29,
			"componentType":5123,
			"count":1164,
			"type":"SCALAR"
		},
		{
			"bufferView":30,
			"componentType":5126,
			"count":137,
			"max":[
				1.3720015287399292,
				1.3720015287399292,
				1.3720015287399292
			],
			"min":[
				-1.3720015287399292,
				-1.3720015287399292,
				-1.3720015287399292
			],
			"type":"VEC3"
		},
		{
			"bufferView":31,
			"componentType":5126,
			"count":137,
			"type":"VEC3"
		},
		{
			"bufferView":32,
			"componentType":5126,
			"count":144,
			"max":[
				1.3720015287399292,
				1.3720015287399292,
				1.3720015287399292
			],
			"min":[
				-1.3720015287399292,
				-1.3720015287399292,
				-1.3720015287399292
			],
			"type":"VEC3"
		},
		{
			"bufferView":33,
			"componentType":5126,
			"count":144,
			"type":"VEC3"
		},
		{
			"bufferView":34,
			"componentType":5123,
			"count":852,
			"type":"SCALAR"
		}
	],
	"bufferViews":[
		{
			"buffer":0,
			"byteLength":10536,
			"byteOffset":0,
			"target":34962
		},
		{
			"buffer":0,
			"byteLength":10536,
			"byteOffset":10536,
			"target":34962
		},
		{
			"buffer":0,
			"byteLength":7024,
			"byteOffset":21072,
			"target":34962
		},
		{
			"buffer":0,
			"byteLength":4944,
			"byteOffset":28096,
			"target":34963
		},
		{
			"buffer":0,
			"byteLength":8880,
			"byteOffset":33040,
			"target":34962
		},
		{
			"buffer":0,
			"byteLength":8880,
			"byteOffset":41920,
			"target":34962
		},
		{
			"buffer":0,
			"byteLength":5920,
			"byteOffset":50800,
			"target":34962
		},
		{
			"buffer":0,
			"byteLength":4104,
			"byteOffset":56720,
			"target":34963
		},
		{
			"buffer":0,
			"byteLength":48,
			"byteOffset":60824,
			"target":34962
		},
		{
			"buffer":0,
			"byteLength":48,
			"byteOffset":60872,
			"target":34962
		},
		{
			"buffer":0,
			"byteLength":32,
			"byteOffset":60920,
			"target":34962
		},
		{
			"buffer":0,
			"byteLength":12,
			"byteOffset":60952,
			"target":34963
		},
		{
			"buffer":0,
			"byteLength":1644,
			"byteOffset":60964,
			"target":34962
		},
		{
			"buffer":0,
			"byteLength":1644,
			"byteOffset":62608,
			"target":34962
		},
		{
			"buffer":0,
			"byteLength":1512,
			"byteOffset":64252,
			"target":34963
		},
		{
			"buffer":0,
			"byteLength":48,
			"byteOffset":65764,
			"target":34962
		},
		{
			"buffer":0,
			"byteLength":48,
			"byteOffset":65812,
			"target":34962
		},
		{
			"buffer":0,
			"byteLength":32,
			"byteOffset":65860,
			"target":34962
		},
		{
			"buffer":0,
			"byteLength":9084,
			"byteOffset":65892,
			"target":34962
		},
		{
			"buffer":0,
			"byteLength":9084,
			"byteOffset":74976,
			"target":34962
		},
		{
			"buffer":0,
			"byteLength":6056,
			"byteOffset":84060,
			"target":34962
		},
		{
			"buffer":0,
			"byteLength":4470,
			"byteOffset":90116,
			"target":34963
		},
		{
			"buffer":0,
			"byteLength":10932,
			"byteOffset":94588,
			"target":34962
		},
		{
			"buffer":0,
			"byteLength":10932,
			"byteOffset":105520,
			"target":34962
		},
		{
			"buffer":0,
			"byteLength":7288,
			"byteOffset":116452,
			"target":34962
		},
		{
			"buffer":0,
			"byteLength":5382,
			"byteOffset":123740,
			"target":34963
		},
		{
			"buffer":0,
			"byteLength":4800,
			"byteOffset":129124,
			"target":34962
		},
		{
			"buffer":0,
			"byteLength":4800,
			"byteOffset":133924,
			"target":34962
		},
		{
			"buffer":0,
			"byteLength":3200,
			"byteOffset":138724,
			"target":34962
		},
		{
			"buffer":0,
			"byteLength":2328,
			"byteOffset":141924,
			"target":34963
		},
		{
			"buffer":0,
			"byteLength":1644,
			"byteOffset":144252,
			"target":34962
		},
		{
			"buffer":0,
			"byteLength":1644,
			"byteOffset":145896,
			"target":34962
		},
		{
			"buffer":0,
			"byteLength":1728,
			"byteOffset":147540,
			"target":34962
		},
		{
			"buffer":0,
			"byteLength":1728,
			"byteOffset":149268,
			"target":34962
		},
		{
			"buffer":0,
			"byteLength":1704,
			"byteOffset":150996,
			"target":34963
		}
	],
	"samplers":[
		{
			"magFilter":9729,
			"minFilter":9987
		}
	],
	"buffers":[
		{
			"byteLength":152700,
			"uri":"walls.bin"
		}
	]
}
