{
	"asset":{
		"generator":"Khronos glTF Blender I/O v3.6.27",
		"version":"2.0"
	},
	"scene":0,
	"scenes":[
		{
			"name":"Scene",
			"nodes":[
				0,
				1,
				2,
				3,
				4
			]
		}
	],
	"nodes":[
		{
			"mesh":0,
			"name":"disk.001",
			"rotation":[
				-0.08126089721918106,
				0,
				0,
				0.996692955493927
			],
			"translation":[
				0,
				0.22877033054828644,
				0.03279659152030945
			]
		},
		{
			"mesh":1,
			"name":"disk2.001",
			"translation":[
				0,
				0.2297811061143875,
				0.01805155538022518
			]
		},
		{
			"mesh":2,
			"name":"Cube.001",
			"scale":[
				0.019554059952497482,
				0.0010000000474974513,
				0
			],
			"translation":[
				-0.04567715898156166,
				0.23099136352539062,
				0.03204602748155594
			]
		},
		{
			"mesh":3,
			"name":"Cube.004",
			"scale":[
				0.044820502400398254,
				0.009707197546958923,
				9.999999747378752e-05
			],
			"translation":[
				-0.10927325487136841,
				0.23149311542510986,
				0.03206659108400345
			]
		},
		{
			"mesh":4,
			"name":"Text.002",
			"rotation":[
				0.70710688829422,
				0,
				0,
				0.7071066498756409
			],
			"scale":[
				0.011089053936302662,
				0.024601411074399948,
				0.013473321683704853
			],
			"translation":[
				-0.13836602866649628,
				0.22657179832458496,
				0.03256908804178238
			]
		}
	],
	"materials":[
		{
			"doubleSided":true,
			"name":"black plastic.038",
			"pbrMetallicRoughness":{
				"baseColorFactor":[
					0.0056046294048428535,
					0.0056046294048428535,
					0.0056046294048428535,
					1
				],
				"metallicFactor":0,
				"roughnessFactor":0.6166667342185974
			}
		},
		{
			"doubleSided":true,
			"name":"black plastic.039",
			"pbrMetallicRoughness":{
				"baseColorFactor":[
					0.0056046294048428535,
					0.0056046294048428535,
					0.0056046294048428535,
					1
				],
				"metallicFactor":0,
				"roughnessFactor":0.6166667342185974
			}
		}
	],
	"meshes":[
		{
			"name":"Cylinder.004",
			"primitives":[
				{
					"attributes":{
						"POSITION":0,
						"NORMAL":1,
						"TEXCOORD_0":2
					},
					"indices":3,
					"material":0
				}
			]
		},
		{
			"name":"Cylinder.005",
			"primitives":[
				{
					"attributes":{
						"POSITION":4,
						"NORMAL":5,
						"TEXCOORD_0":6
					},
					"indices":7,
					"material":1
				}
			]
		},
		{
			"name":"Cube.012",
			"primitives":[
				{
					"attributes":{
						"POSITION":8,
						"NORMAL":9,
						"TEXCOORD_0":10
					},
					"indices":11
				}
			]
		},
		{
			"name":"Cube.013",
			"primitives":[
				{
					"attributes":{
						"POSITION":12,
						"NORMAL":13,
						"TEXCOORD_0":14
					},
					"indices":11
				}
			]
		},
		{
			"name":"Text.014",
			"primitives":[
				{
					"attributes":{
						"POSITION":15,
						"NORMAL":16,
						"TEXCOORD_0":17
					},
					"indices":18,
					"material":1
				}
			]
		}
	],
	"accessors":[
		{
			"bufferView":0,
			"componentType":5126,
			"count":1805,
			"max":[
				0.031550001353025436,
				0.00411773007363081,
				0.031550001353025436
			],
			"min":[
				-0.031550001353025436,
				-0.011147791519761086,
				-0.031550001353025436
			],
			"type":"VEC3"
		},
		{
			"bufferView":1,
			"componentType":5126,
			"count":1805,
			"type":"VEC3"
		},
		{
			"bufferView":2,
			"componentType":5126,
			"count":1805,
			"type":"VEC2"
		},
		{
			"bufferView":3,
			"componentType":5123,
			"count":5748,
			"type":"SCALAR"
		},
		{
			"bufferView":4,
			"componentType":5126,
			"count":130,
			"max":[
				0.014998591504991055,
				0.003164248075336218,
				0.01499859243631363
			],
			"min":[
				-0.01499859243631363,
				-0.0031642718240618706,
				-0.01499859057366848
			],
			"type":"VEC3"
		},
		{
			"bufferView":5,
			"componentType":5126,
			"count":130,
			"type":"VEC3"
		},
		{
			"bufferView":6,
			"componentType":5126,
			"count":130,
			"type":"VEC2"
		},
		{
			"bufferView":7,
			"componentType":5123,
			"count":372,
			"type":"SCALAR"
		},
		{
			"bufferView":8,
			"componentType":5126,
			"count":24,
			"max":[
				1,
				1,
				1
			],
			"min":[
				-1,
				-1,
				-1
			],
			"type":"VEC3"
		},
		{
			"bufferView":9,
			"componentType":5126,
			"count":24,
			"type":"VEC3"
		},
		{
			"bufferView":10,
			"componentType":5126,
			"count":24,
			"type":"VEC2"
		},
		{
			"bufferView":11,
			"componentType":5123,
			"count":36,
			"type":"SCALAR"
		},
		{
			"bufferView":12,
			"componentType":5126,
			"count":24,
			"max":[
				1,
				1,
				1
			],
			"min":[
				-1,
				-1,
				-1
			],
			"type":"VEC3"
		},
		{
			"bufferView":13,
			"componentType":5126,
			"count":24,
			"type":"VEC3"
		},
		{
			"bufferView":14,
			"componentType":5126,
			"count":24,
			"type":"VEC2"
		},
		{
			"bufferView":15,
			"componentType":5126,
			"count":1710,
			"max":[
				5.00100040435791,
				0.010000000707805157,
				0.009000000543892384
			],
			"min":[
				0.07400000095367432,
				-0.010000000707805157,
				-0.6910000443458557
			],
			"type":"VEC3"
		},
		{
			"bufferView":16,
			"componentType":5126,
			"count":1710,
			"type":"VEC3"
		},
		{
			"bufferView":17,
			"componentType":5126,
			"count":1710,
			"type":"VEC2"
		},
		{
			"bufferView":18,
			"componentType":5123,
			"count":4980,
			"type":"SCALAR"
		}
	],
	"bufferViews":[
		{
			"buffer":0,
			"byteLength":21660,
			"byteOffset":0,
			"target":34962
		},
		{
			"buffer":0,
			"byteLength":21660,
			"byteOffset":21660,
			"target":34962
		},
		{
			"buffer":0,
			"byteLength":14440,
			"byteOffset":43320,
			"target":34962
		},
		{
			"buffer":0,
			"byteLength":11496,
			"byteOffset":57760,
			"target":34963
		},
		{
			"buffer":0,
			"byteLength":1560,
			"byteOffset":69256,
			"target":34962
		},
		{
			"buffer":0,
			"byteLength":1560,
			"byteOffset":70816,
			"target":34962
		},
		{
			"buffer":0,
			"byteLength":1040,
			"byteOffset":72376,
			"target":34962
		},
		{
			"buffer":0,
			"byteLength":744,
			"byteOffset":73416,
			"target":34963
		},
		{
			"buffer":0,
			"byteLength":288,
			"byteOffset":74160,
			"target":34962
		},
		{
			"buffer":0,
			"byteLength":288,
			"byteOffset":74448,
			"target":34962
		},
		{
			"buffer":0,
			"byteLength":192,
			"byteOffset":74736,
			"target":34962
		},
		{
			"buffer":0,
			"byteLength":72,
			"byteOffset":74928,
			"target":34963
		},
		{
			"buffer":0,
			"byteLength":288,
			"byteOffset":75000,
			"target":34962
		},
		{
			"buffer":0,
			"byteLength":288,
			"byteOffset":75288,
			"target":34962
		},
		{
			"buffer":0,
			"byteLength":192,
			"byteOffset":75576,
			"target":34962
		},
		{
			"buffer":0,
			"byteLength":20520,
			"byteOffset":75768,
			"target":34962
		},
		{
			"buffer":0,
			"byteLength":20520,
			"byteOffset":96288,
			"target":34962
		},
		{
			"buffer":0,
			"byteLength":13680,
			"byteOffset":116808,
			"target":34962
		},
		{
			"buffer":0,
			"byteLength":9960,
			"byteOffset":130488,
			"target":34963
		}
	],
	"buffers":[
		{
			"byteLength":140448,
			"uri":"nose2.bin"
		}
	]
}
