{
	"asset":{
		"generator":"Khronos glTF Blender I/O v3.6.27",
		"version":"2.0"
	},
	"scene":0,
	"scenes":[
		{
			"name":"Scene",
			"nodes":[
				0,
				1,
				2,
				3,
				4
			]
		}
	],
	"nodes":[
		{
			"mesh":0,
			"name":"Table",
			"rotation":[
				0,
				-0.9999997019767761,
				0,
				0.00075845344690606
			],
			"scale":[
				0.11246735602617264,
				0.12241192907094955,
				0.2865877151489258
			],
			"translation":[
				-0.25545743107795715,
				0.1908874213695526,
				-0.028363633900880814
			]
		},
		{
			"mesh":1,
			"name":"Text.021",
			"rotation":[
				0.4085140526294708,
				-0.5818684101104736,
				0.42233380675315857,
				0.5622986555099487
			],
			"scale":[
				0.00844038836658001,
				0.023312347009778023,
				0.008728734217584133
			],
			"translation":[
				-0.43925899267196655,
				0.20537719130516052,
				-0.08377020061016083
			]
		},
		{
			"mesh":2,
			"name":"Plane.001",
			"rotation":[
				0.013837674632668495,
				-0.009771987795829773,
				-0.8090482950210571,
				0.5874980092048645
			],
			"scale":[
				0.011492322199046612,
				0.11385921388864517,
				0.0830669179558754
			],
			"translation":[
				-0.4041876196861267,
				0.20686116814613342,
				0.6863110065460205
			]
		},
		{
			"mesh":3,
			"name":"Text",
			"rotation":[
				0.44218894839286804,
				-0.5489322543144226,
				0.4573095142841339,
				0.5422272086143494
			],
			"scale":[
				0.007239446043968201,
				0.00905569363385439,
				0.007315462455153465
			],
			"translation":[
				-0.4068003296852112,
				0.2050521969795227,
				0.6373947858810425
			]
		},
		{
			"mesh":4,
			"name":"Table.001",
			"rotation":[
				0,
				-0.9999997019767761,
				0,
				0.00075845344690606
			],
			"scale":[
				0.11271006613969803,
				0.13104233145713806,
				0.2737347483634949
			],
			"translation":[
				-0.2541196942329407,
				0.18954655528068542,
				0.6892795562744141
			]
		}
	],
	"materials":[
		{
			"doubleSided":true,
			"name":"Material.078",
			"pbrMetallicRoughness":{
				"baseColorFactor":[
					0,
					0,
					0,
					1
				],
				"metallicFactor":0,
				"roughnessFactor":0.5
			}
		},
		{
			"doubleSided":true,
			"name":"Material.001",
			"pbrMetallicRoughness":{
				"baseColorFactor":[
					0.800000011920929,
					0.800000011920929,
					0.800000011920929,
					1
				],
				"metallicFactor":0,
				"roughnessFactor":0.5
			}
		},
		{
			"doubleSided":true,
			"name":"Material.002",
			"pbrMetallicRoughness":{
				"metallicFactor":0
			}
		}
	],
	"meshes":[
		{
			"name":"Cube.001",
			"primitives":[
				{
					"attributes":{
						"POSITION":0,
						"NORMAL":1,
						"TEXCOORD_0":2
					},
					"indices":3,
					"material":0
				}
			]
		},
		{
			"name":"Text.008",
			"primitives":[
				{
					"attributes":{
						"POSITION":4,
						"NORMAL":5,
						"TEXCOORD_0":6
					},
					"indices":7,
					"material":1
				}
			]
		},
		{
			"name":"Plane.001",
			"primitives":[
				{
					"attributes":{
						"POSITION":8,
						"NORMAL":9,
						"TEXCOORD_0":10
					},
					"indices":11,
					"material":0
				}
			]
		},
		{
			"name":"Text",
			"primitives":[
				{
					"attributes":{
						"POSITION":12,
						"NORMAL":13,
						"TEXCOORD_0":14
					},
					"indices":15,
					"material":2
				}
			]
		},
		{
			"name":"Cube.003",
			"primitives":[
				{
					"attributes":{
						"POSITION":16,
						"NORMAL":17,
						"TEXCOORD_0":18
					},
					"indices":3,
					"material":0
				}
			]
		}
	],
	"accessors":[
		{
			"bufferView":0,
			"componentType":5126,
			"count":400,
			"max":[
				1.818281888961792,
				0.030987635254859924,
				1
			],
			"min":[
				-1.818281888961792,
				-1.4156986474990845,
				-1
			],
			"type":"VEC3"
		},
		{
			"bufferView":1,
			"componentType":5126,
			"count":400,
			"type":"VEC3"
		},
		{
			"bufferView":2,
			"componentType":5126,
			"count":400,
			"type":"VEC2"
		},
		{
			"bufferView":3,
			"componentType":5123,
			"count":882,
			"type":"SCALAR"
		},
		{
			"bufferView":4,
			"componentType":5126,
			"count":2709,
			"max":[
				14.038000106811523,
				0.020000001415610313,
				0.009000000543892384
			],
			"min":[
				0.07000000029802322,
				-0.020000001415610313,
				-0.6910000443458557
			],
			"type":"VEC3"
		},
		{
			"bufferView":5,
			"componentType":5126,
			"count":2709,
			"type":"VEC3"
		},
		{
			"bufferView":6,
			"componentType":5126,
			"count":2709,
			"type":"VEC2"
		},
		{
			"bufferView":7,
			"componentType":5123,
			"count":7740,
			"type":"SCALAR"
		},
		{
			"bufferView":8,
			"componentType":5126,
			"count":4,
			"max":[
				1,
				0,
				1
			],
			"min":[
				-1,
				0,
				-1
			],
			"type":"VEC3"
		},
		{
			"bufferView":9,
			"componentType":5126,
			"count":4,
			"type":"VEC3"
		},
		{
			"bufferView":10,
			"componentType":5126,
			"count":4,
			"type":"VEC2"
		},
		{
			"bufferView":11,
			"componentType":5123,
			"count":6,
			"type":"SCALAR"
		},
		{
			"bufferView":12,
			"componentType":5126,
			"count":628,
			"max":[
				14.621999740600586,
				0,
				0.009000000543892384
			],
			"min":[
				0.07000000029802322,
				0,
				-0.6910000443458557
			],
			"type":"VEC3"
		},
		{
			"bufferView":13,
			"componentType":5126,
			"count":628,
			"type":"VEC3"
		},
		{
			"bufferView":14,
			"componentType":5126,
			"count":628,
			"type":"VEC2"
		},
		{
			"bufferView":15,
			"componentType":5123,
			"count":1776,
			"type":"SCALAR"
		},
		{
			"bufferView":16,
			"componentType":5126,
			"count":400,
			"max":[
				1.818281888961792,
				0.030987635254859924,
				1
			],
			"min":[
				-1.818281888961792,
				-1.4156986474990845,
				-1
			],
			"type":"VEC3"
		},
		{
			"bufferView":17,
			"componentType":5126,
			"count":400,
			"type":"VEC3"
		},
		{
			"bufferView":18,
			"componentType":5126,
			"count":400,
			"type":"VEC2"
		}
	],
	"bufferViews":[
		{
			"buffer":0,
			"byteLength":4800,
			"byteOffset":0,
			"target":34962
		},
		{
			"buffer":0,
			"byteLength":4800,
			"byteOffset":4800,
			"target":34962
		},
		{
			"buffer":0,
			"byteLength":3200,
			"byteOffset":9600,
			"target":34962
		},
		{
			"buffer":0,
			"byteLength":1764,
			"byteOffset":12800,
			"target":34963
		},
		{
			"buffer":0,
			"byteLength":32508,
			"byteOffset":14564,
			"target":34962
		},
		{
			"buffer":0,
			"byteLength":32508,
			"byteOffset":47072,
			"target":34962
		},
		{
			"buffer":0,
			"byteLength":21672,
			"byteOffset":79580,
			"target":34962
		},
		{
			"buffer":0,
			"byteLength":15480,
			"byteOffset":101252,
			"target":34963
		},
		{
			"buffer":0,
			"byteLength":48,
			"byteOffset":116732,
			"target":34962
		},
		{
			"buffer":0,
			"byteLength":48,
			"byteOffset":116780,
			"target":34962
		},
		{
			"buffer":0,
			"byteLength":32,
			"byteOffset":116828,
			"target":34962
		},
		{
			"buffer":0,
			"byteLength":12,
			"byteOffset":116860,
			"target":34963
		},
		{
			"buffer":0,
			"byteLength":7536,
			"byteOffset":116872,
			"target":34962
		},
		{
			"buffer":0,
			"byteLength":7536,
			"byteOffset":124408,
			"target":34962
		},
		{
			"buffer":0,
			"byteLength":5024,
			"byteOffset":131944,
			"target":34962
		},
		{
			"buffer":0,
			"byteLength":3552,
			"byteOffset":136968,
			"target":34963
		},
		{
			"buffer":0,
			"byteLength":4800,
			"byteOffset":140520,
			"target":34962
		},
		{
			"buffer":0,
			"byteLength":4800,
			"byteOffset":145320,
			"target":34962
		},
		{
			"buffer":0,
			"byteLength":3200,
			"byteOffset":150120,
			"target":34962
		}
	],
	"buffers":[
		{
			"byteLength":153320,
			"uri":"table.bin"
		}
	]
}
