{
	"asset":{
		"generator":"Khronos glTF Blender I/O v3.6.27",
		"version":"2.0"
	},
	"scene":0,
	"scenes":[
		{
			"name":"Scene",
			"nodes":[
				0,
				1,
				2,
				3
			]
		}
	],
	"nodes":[
		{
			"mesh":0,
			"name":"head",
			"translation":[
				0,
				0.2624962031841278,
				0.02017362415790558
			]
		},
		{
			"mesh":1,
			"name":"head.001",
			"translation":[
				0,
				0.2624962031841278,
				0.02017362415790558
			]
		},
		{
			"mesh":2,
			"name":"objective-lower",
			"rotation":[
				0.3874780237674713,
				0,
				0,
				0.9218789339065552
			],
			"scale":[
				0.9921490550041199,
				0.9921490550041199,
				0.9921490550041199
			],
			"translation":[
				-0.03165873512625694,
				0.28821122646331787,
				0.09093224257230759
			]
		},
		{
			"mesh":3,
			"name":"objective",
			"rotation":[
				0.3874780237674713,
				0,
				0,
				0.9218789339065552
			],
			"scale":[
				0.9921490550041199,
				0.9921490550041199,
				0.9921490550041199
			],
			"translation":[
				-0.03165873512625694,
				0.27643686532974243,
				0.07891062647104263
			]
		}
	],
	"materials":[
		{
			"doubleSided":true,
			"name":"Material",
			"pbrMetallicRoughness":{
				"baseColorFactor":[
					0.8000000715255737,
					0.7875087857246399,
					0.7507203817367554,
					1
				],
				"metallicFactor":0,
				"roughnessFactor":0.8257575631141663
			}
		},
		{
			"doubleSided":true,
			"name":"black plastic",
			"pbrMetallicRoughness":{
				"baseColorFactor":[
					0.0056046294048428535,
					0.0056046294048428535,
					0.0056046294048428535,
					1
				],
				"metallicFactor":0,
				"roughnessFactor":0.6166667342185974
			}
		},
		{
			"doubleSided":true,
			"name":"black plastic.001",
			"pbrMetallicRoughness":{
				"baseColorFactor":[
					0.0056046294048428535,
					0.0056046294048428535,
					0.0056046294048428535,
					1
				],
				"metallicFactor":0,
				"roughnessFactor":0.6166667342185974
			}
		},
		{
			"doubleSided":true,
			"name":"glass",
			"pbrMetallicRoughness":{
				"baseColorFactor":[
					0.38437479734420776,
					0.3731274902820587,
					0.3731274902820587,
					1
				],
				"metallicFactor":0,
				"roughnessFactor":0
			}
		}
	],
	"meshes":[
		{
			"name":"Cube.006",
			"primitives":[
				{
					"attributes":{
						"POSITION":0,
						"NORMAL":1,
						"TEXCOORD_0":2
					},
					"indices":3,
					"material":0
				},
				{
					"attributes":{
						"POSITION":4,
						"NORMAL":5,
						"TEXCOORD_0":6
					},
					"indices":7,
					"material":1
				}
			]
		},
		{
			"name":"Cube.007",
			"primitives":[
				{
					"attributes":{
						"POSITION":8,
						"NORMAL":9,
						"TEXCOORD_0":10
					},
					"indices":11,
					"material":0
				},
				{
					"attributes":{
						"POSITION":12,
						"NORMAL":13,
						"TEXCOORD_0":14
					},
					"indices":15,
					"material":1
				}
			]
		},
		{
			"name":"Cylinder.011",
			"primitives":[
				{
					"attributes":{
						"POSITION":16,
						"NORMAL":17,
						"TEXCOORD_0":18
					},
					"indices":19,
					"material":1
				}
			]
		},
		{
			"name":"Cylinder.012",
			"primitives":[
				{
					"attributes":{
						"POSITION":20,
						"NORMAL":21,
						"TEXCOORD_0":22,
						"TEXCOORD_1":23
					},
					"indices":24,
					"material":2
				},
				{
					"attributes":{
						"POSITION":25,
						"NORMAL":26,
						"TEXCOORD_0":27,
						"TEXCOORD_1":28
					},
					"indices":29,
					"material":3
				}
			]
		}
	],
	"accessors":[
		{
			"bufferView":0,
			"componentType":5126,
			"count":990,
			"max":[
				0.06050604581832886,
				0.031242594122886658,
				0.07809000462293625
			],
			"min":[
				-0.06050604581832886,
				-0.019080348312854767,
				-0.04000000283122063
			],
			"type":"VEC3"
		},
		{
			"bufferView":1,
			"componentType":5126,
			"count":990,
			"type":"VEC3"
		},
		{
			"bufferView":2,
			"componentType":5126,
			"count":990,
			"type":"VEC2"
		},
		{
			"bufferView":3,
			"componentType":5123,
			"count":2766,
			"type":"SCALAR"
		},
		{
			"bufferView":4,
			"componentType":5126,
			"count":198,
			"max":[
				0.06050604581832886,
				0.03378953039646149,
				0.08069869130849838
			],
			"min":[
				-0.06050604581832886,
				0.001592201180756092,
				0.049016594886779785
			],
			"type":"VEC3"
		},
		{
			"bufferView":5,
			"componentType":5126,
			"count":198,
			"type":"VEC3"
		},
		{
			"bufferView":6,
			"componentType":5126,
			"count":198,
			"type":"VEC2"
		},
		{
			"bufferView":7,
			"componentType":5123,
			"count":708,
			"type":"SCALAR"
		},
		{
			"bufferView":8,
			"componentType":5126,
			"count":1284,
			"max":[
				0.045682378113269806,
				0.03236565366387367,
				0.07714379578828812
			],
			"min":[
				-0.045682355761528015,
				0.010326617397367954,
				0.05545223131775856
			],
			"type":"VEC3"
		},
		{
			"bufferView":9,
			"componentType":5126,
			"count":1284,
			"type":"VEC3"
		},
		{
			"bufferView":10,
			"componentType":5126,
			"count":1284,
			"type":"VEC2"
		},
		{
			"bufferView":11,
			"componentType":5123,
			"count":3840,
			"type":"SCALAR"
		},
		{
			"bufferView":12,
			"componentType":5126,
			"count":2414,
			"max":[
				0.0674811527132988,
				0.03864534571766853,
				0.08563486486673355
			],
			"min":[
				-0.0674811527132988,
				-0.0044550057500600815,
				0.04286501184105873
			],
			"type":"VEC3"
		},
		{
			"bufferView":13,
			"componentType":5126,
			"count":2414,
			"type":"VEC3"
		},
		{
			"bufferView":14,
			"componentType":5126,
			"count":2414,
			"type":"VEC2"
		},
		{
			"bufferView":15,
			"componentType":5123,
			"count":10764,
			"type":"SCALAR"
		},
		{
			"bufferView":16,
			"componentType":5126,
			"count":6841,
			"max":[
				0.08040602505207062,
				0.02694862149655819,
				0.016587529331445694
			],
			"min":[
				-0.016587529331445694,
				-0.005016390234231949,
				-0.01658753678202629
			],
			"type":"VEC3"
		},
		{
			"bufferView":17,
			"componentType":5126,
			"count":6841,
			"type":"VEC3"
		},
		{
			"bufferView":18,
			"componentType":5126,
			"count":6841,
			"type":"VEC2"
		},
		{
			"bufferView":19,
			"componentType":5123,
			"count":25344,
			"type":"SCALAR"
		},
		{
			"bufferView":20,
			"componentType":5126,
			"count":4183,
			"max":[
				0.07505951821804047,
				0.07295966148376465,
				0.011241009458899498
			],
			"min":[
				-0.011241018772125244,
				0.02694862149655819,
				-0.011241008527576923
			],
			"type":"VEC3"
		},
		{
			"bufferView":21,
			"componentType":5126,
			"count":4183,
			"type":"VEC3"
		},
		{
			"bufferView":22,
			"componentType":5126,
			"count":4183,
			"type":"VEC2"
		},
		{
			"bufferView":23,
			"componentType":5126,
			"count":4183,
			"type":"VEC2"
		},
		{
			"bufferView":24,
			"componentType":5123,
			"count":14196,
			"type":"SCALAR"
		},
		{
			"bufferView":25,
			"componentType":5126,
			"count":258,
			"max":[
				0.06938564032316208,
				0.07195331156253815,
				0.005567130167037249
			],
			"min":[
				-0.005567140411585569,
				0.07195329666137695,
				-0.005567129701375961
			],
			"type":"VEC3"
		},
		{
			"bufferView":26,
			"componentType":5126,
			"count":258,
			"type":"VEC3"
		},
		{
			"bufferView":27,
			"componentType":5126,
			"count":258,
			"type":"VEC2"
		},
		{
			"bufferView":28,
			"componentType":5126,
			"count":258,
			"type":"VEC2"
		},
		{
			"bufferView":29,
			"componentType":5123,
			"count":1140,
			"type":"SCALAR"
		}
	],
	"bufferViews":[
		{
			"buffer":0,
			"byteLength":11880,
			"byteOffset":0,
			"target":34962
		},
		{
			"buffer":0,
			"byteLength":11880,
			"byteOffset":11880,
			"target":34962
		},
		{
			"buffer":0,
			"byteLength":7920,
			"byteOffset":23760,
			"target":34962
		},
		{
			"buffer":0,
			"byteLength":5532,
			"byteOffset":31680,
			"target":34963
		},
		{
			"buffer":0,
			"byteLength":2376,
			"byteOffset":37212,
			"target":34962
		},
		{
			"buffer":0,
			"byteLength":2376,
			"byteOffset":39588,
			"target":34962
		},
		{
			"buffer":0,
			"byteLength":1584,
			"byteOffset":41964,
			"target":34962
		},
		{
			"buffer":0,
			"byteLength":1416,
			"byteOffset":43548,
			"target":34963
		},
		{
			"buffer":0,
			"byteLength":15408,
			"byteOffset":44964,
			"target":34962
		},
		{
			"buffer":0,
			"byteLength":15408,
			"byteOffset":60372,
			"target":34962
		},
		{
			"buffer":0,
			"byteLength":10272,
			"byteOffset":75780,
			"target":34962
		},
		{
			"buffer":0,
			"byteLength":7680,
			"byteOffset":86052,
			"target":34963
		},
		{
			"buffer":0,
			"byteLength":28968,
			"byteOffset":93732,
			"target":34962
		},
		{
			"buffer":0,
			"byteLength":28968,
			"byteOffset":122700,
			"target":34962
		},
		{
			"buffer":0,
			"byteLength":19312,
			"byteOffset":151668,
			"target":34962
		},
		{
			"buffer":0,
			"byteLength":21528,
			"byteOffset":170980,
			"target":34963
		},
		{
			"buffer":0,
			"byteLength":82092,
			"byteOffset":192508,
			"target":34962
		},
		{
			"buffer":0,
			"byteLength":82092,
			"byteOffset":274600,
			"target":34962
		},
		{
			"buffer":0,
			"byteLength":54728,
			"byteOffset":356692,
			"target":34962
		},
		{
			"buffer":0,
			"byteLength":50688,
			"byteOffset":411420,
			"target":34963
		},
		{
			"buffer":0,
			"byteLength":50196,
			"byteOffset":462108,
			"target":34962
		},
		{
			"buffer":0,
			"byteLength":50196,
			"byteOffset":512304,
			"target":34962
		},
		{
			"buffer":0,
			"byteLength":33464,
			"byteOffset":562500,
			"target":34962
		},
		{
			"buffer":0,
			"byteLength":33464,
			"byteOffset":595964,
			"target":34962
		},
		{
			"buffer":0,
			"byteLength":28392,
			"byteOffset":629428,
			"target":34963
		},
		{
			"buffer":0,
			"byteLength":3096,
			"byteOffset":657820,
			"target":34962
		},
		{
			"buffer":0,
			"byteLength":3096,
			"byteOffset":660916,
			"target":34962
		},
		{
			"buffer":0,
			"byteLength":2064,
			"byteOffset":664012,
			"target":34962
		},
		{
			"buffer":0,
			"byteLength":2064,
			"byteOffset":666076,
			"target":34962
		},
		{
			"buffer":0,
			"byteLength":2280,
			"byteOffset":668140,
			"target":34963
		}
	],
	"buffers":[
		{
			"byteLength":670420,
			"uri":"eye1.bin"
		}
	]
}
