{
	"asset":{
		"generator":"Khronos glTF Blender I/O v3.6.27",
		"version":"2.0"
	},
	"scene":0,
	"scenes":[
		{
			"name":"Scene",
			"nodes":[
				6
			]
		}
	],
	"nodes":[
		{
			"mesh":0,
			"name":"Object_2.008"
		},
		{
			"mesh":1,
			"name":"Object_3"
		},
		{
			"mesh":2,
			"name":"Object_4"
		},
		{
			"mesh":3,
			"name":"Object_5"
		},
		{
			"mesh":4,
			"name":"Object_6"
		},
		{
			"children":[
				0,
				1,
				2,
				3,
				4
			],
			"name":"Coraline.obj.cleaner.materialmerger.gles"
		},
		{
			"children":[
				5
			],
			"name":"Sketchfab_model.017",
			"rotation":[
				-0.70710688829422,
				0,
				0,
				0.7071066498756409
			],
			"scale":[
				4.820639610290527,
				4.8206400871276855,
				4.8206400871276855
			],
			"translation":[
				-10.422163963317871,
				0,
				-31.528247833251953
			]
		}
	],
	"materials":[
		{
			"doubleSided":true,
			"name":"mesh_4.004",
			"pbrMetallicRoughness":{
				"baseColorTexture":{
					"index":0
				},
				"metallicFactor":0,
				"roughnessFactor":0.6000000238418579
			}
		},
		{
			"doubleSided":true,
			"name":"mesh_2.001",
			"pbrMetallicRoughness":{
				"baseColorTexture":{
					"index":1
				},
				"metallicFactor":0,
				"roughnessFactor":0.6000000238418579
			}
		},
		{
			"doubleSided":true,
			"name":"mesh_1.002",
			"pbrMetallicRoughness":{
				"baseColorTexture":{
					"index":2
				},
				"metallicFactor":0,
				"roughnessFactor":0.6000000238418579
			}
		},
		{
			"doubleSided":true,
			"name":"mesh_3.001",
			"pbrMetallicRoughness":{
				"baseColorTexture":{
					"index":3
				},
				"metallicFactor":0,
				"roughnessFactor":0.6000000238418579
			}
		},
		{
			"doubleSided":true,
			"name":"mesh_0.002",
			"pbrMetallicRoughness":{
				"baseColorTexture":{
					"index":4
				},
				"metallicFactor":0,
				"roughnessFactor":0.6000000238418579
			}
		}
	],
	"meshes":[
		{
			"name":"Object_0",
			"primitives":[
				{
					"attributes":{
						"POSITION":0,
						"NORMAL":1,
						"TEXCOORD_0":2
					},
					"indices":3,
					"material":0
				}
			]
		},
		{
			"name":"Object_1",
			"primitives":[
				{
					"attributes":{
						"POSITION":4,
						"NORMAL":5,
						"TEXCOORD_0":6
					},
					"indices":7,
					"material":1
				}
			]
		},
		{
			"name":"Object_2",
			"primitives":[
				{
					"attributes":{
						"POSITION":8,
						"NORMAL":9,
						"TEXCOORD_0":10
					},
					"indices":11,
					"material":2
				}
			]
		},
		{
			"name":"Object_3",
			"primitives":[
				{
					"attributes":{
						"POSITION":12,
						"NORMAL":13,
						"TEXCOORD_0":14
					},
					"indices":15,
					"material":3
				}
			]
		},
		{
			"name":"Object_4",
			"primitives":[
				{
					"attributes":{
						"POSITION":16,
						"NORMAL":17,
						"TEXCOORD_0":18
					},
					"indices":19,
					"material":4
				}
			]
		}
	],
	"textures":[
		{
			"sampler":0,
			"source":0
		},
		{
			"sampler":0,
			"source":1
		},
		{
			"sampler":0,
			"source":2
		},
		{
			"sampler":0,
			"source":3
		},
		{
			"sampler":0,
			"source":4
		}
	],
	"images":[
		{
			"mimeType":"image/png",
			"name":"mesh_4.004_baseColor",
			"uri":"mesh_4_004_baseColor.png"
		},
		{
			"mimeType":"image/png",
			"name":"mesh_2.001_baseColor",
			"uri":"mesh_2_001_baseColor.png"
		},
		{
			"mimeType":"image/png",
			"name":"mesh_1.002_baseColor",
			"uri":"mesh_1_002_baseColor.png"
		},
		{
			"mimeType":"image/png",
			"name":"mesh_3.001_baseColor",
			"uri":"mesh_3_001_baseColor.png"
		},
		{
			"mimeType":"image/png",
			"name":"mesh_0.002_baseColor",
			"uri":"mesh_0_002_baseColor.png"
		}
	],
	"accessors":[
		{
			"bufferView":0,
			"componentType":5126,
			"count":226,
			"max":[
				0.15466099977493286,
				-0.06408099830150604,
				1.937019944190979
			],
			"min":[
				-0.15624000132083893,
				-0.12077800184488297,
				1.7718499898910522
			],
			"type":"VEC3"
		},
		{
			"bufferView":1,
			"componentType":5126,
			"count":226,
			"type":"VEC3"
		},
		{
			"bufferView":2,
			"componentType":5126,
			"count":226,
			"type":"VEC2"
		},
		{
			"bufferView":3,
			"componentType":5123,
			"count":1248,
			"type":"SCALAR"
		},
		{
			"bufferView":4,
			"componentType":5126,
			"count":503,
			"max":[
				0.2714007496833801,
				0.3238651156425476,
				2.074389696121216
			],
			"min":[
				-0.2744213044643402,
				-0.15713483095169067,
				1.599769949913025
			],
			"type":"VEC3"
		},
		{
			"bufferView":5,
			"componentType":5126,
			"count":503,
			"type":"VEC3"
		},
		{
			"bufferView":6,
			"componentType":5126,
			"count":503,
			"type":"VEC2"
		},
		{
			"bufferView":7,
			"componentType":5123,
			"count":1503,
			"type":"SCALAR"
		},
		{
			"bufferView":8,
			"componentType":5126,
			"count":1638,
			"max":[
				0.907039999961853,
				0.24060100317001343,
				2.013319969177246
			],
			"min":[
				-0.907039999961853,
				-0.20223499834537506,
				1.4630299806594849
			],
			"type":"VEC3"
		},
		{
			"bufferView":9,
			"componentType":5126,
			"count":1638,
			"type":"VEC3"
		},
		{
			"bufferView":10,
			"componentType":5126,
			"count":1638,
			"type":"VEC2"
		},
		{
			"bufferView":11,
			"componentType":5123,
			"count":7602,
			"type":"SCALAR"
		},
		{
			"bufferView":12,
			"componentType":5126,
			"count":4,
			"max":[
				-0.20524300634860992,
				0.02109299972653389,
				1.9916499853134155
			],
			"min":[
				-0.29291900992393494,
				-0.0804079994559288,
				1.8571399450302124
			],
			"type":"VEC3"
		},
		{
			"bufferView":13,
			"componentType":5126,
			"count":4,
			"type":"VEC3"
		},
		{
			"bufferView":14,
			"componentType":5126,
			"count":4,
			"type":"VEC2"
		},
		{
			"bufferView":15,
			"componentType":5123,
			"count":6,
			"type":"SCALAR"
		},
		{
			"bufferView":16,
			"componentType":5126,
			"count":517,
			"max":[
				0.7174084186553955,
				0.3232346773147583,
				1.5977039337158203
			],
			"min":[
				-0.7213883996009827,
				-0.20468156039714813,
				-0.015162131749093533
			],
			"type":"VEC3"
		},
		{
			"bufferView":17,
			"componentType":5126,
			"count":517,
			"type":"VEC3"
		},
		{
			"bufferView":18,
			"componentType":5126,
			"count":517,
			"type":"VEC2"
		},
		{
			"bufferView":19,
			"componentType":5123,
			"count":1896,
			"type":"SCALAR"
		}
	],
	"bufferViews":[
		{
			"buffer":0,
			"byteLength":2712,
			"byteOffset":0,
			"target":34962
		},
		{
			"buffer":0,
			"byteLength":2712,
			"byteOffset":2712,
			"target":34962
		},
		{
			"buffer":0,
			"byteLength":1808,
			"byteOffset":5424,
			"target":34962
		},
		{
			"buffer":0,
			"byteLength":2496,
			"byteOffset":7232,
			"target":34963
		},
		{
			"buffer":0,
			"byteLength":6036,
			"byteOffset":9728,
			"target":34962
		},
		{
			"buffer":0,
			"byteLength":6036,
			"byteOffset":15764,
			"target":34962
		},
		{
			"buffer":0,
			"byteLength":4024,
			"byteOffset":21800,
			"target":34962
		},
		{
			"buffer":0,
			"byteLength":3006,
			"byteOffset":25824,
			"target":34963
		},
		{
			"buffer":0,
			"byteLength":19656,
			"byteOffset":28832,
			"target":34962
		},
		{
			"buffer":0,
			"byteLength":19656,
			"byteOffset":48488,
			"target":34962
		},
		{
			"buffer":0,
			"byteLength":13104,
			"byteOffset":68144,
			"target":34962
		},
		{
			"buffer":0,
			"byteLength":15204,
			"byteOffset":81248,
			"target":34963
		},
		{
			"buffer":0,
			"byteLength":48,
			"byteOffset":96452,
			"target":34962
		},
		{
			"buffer":0,
			"byteLength":48,
			"byteOffset":96500,
			"target":34962
		},
		{
			"buffer":0,
			"byteLength":32,
			"byteOffset":96548,
			"target":34962
		},
		{
			"buffer":0,
			"byteLength":12,
			"byteOffset":96580,
			"target":34963
		},
		{
			"buffer":0,
			"byteLength":6204,
			"byteOffset":96592,
			"target":34962
		},
		{
			"buffer":0,
			"byteLength":6204,
			"byteOffset":102796,
			"target":34962
		},
		{
			"buffer":0,
			"byteLength":4136,
			"byteOffset":109000,
			"target":34962
		},
		{
			"buffer":0,
			"byteLength":3792,
			"byteOffset":113136,
			"target":34963
		}
	],
	"samplers":[
		{
			"magFilter":9729,
			"minFilter":9987
		}
	],
	"buffers":[
		{
			"byteLength":116928,
			"uri":"coraline.bin"
		}
	]
}
