{
	"asset":{
		"generator":"Khronos glTF Blender I/O v3.6.27",
		"version":"2.0"
	},
	"scene":0,
	"scenes":[
		{
			"name":"Scene",
			"nodes":[
				4,
				5,
				9,
				10,
				11
			]
		}
	],
	"nodes":[
		{
			"mesh":0,
			"name":"Object_4.002",
			"rotation":[
				0,
				0,
				0.6275495290756226,
				0.778576672077179
			]
		},
		{
			"children":[
				0
			],
			"name":"Hiena_HP_0",
			"rotation":[
				0.70710688829422,
				0,
				0,
				0.7071066498756409
			],
			"scale":[
				0.004999999888241291,
				0.005000000819563866,
				0.005000000819563866
			]
		},
		{
			"children":[
				1
			],
			"name":"GLTF_SceneRootNode.002",
			"rotation":[
				0.70710688829422,
				0,
				0,
				0.7071066498756409
			]
		},
		{
			"children":[
				2
			],
			"name":"root.002"
		},
		{
			"children":[
				3
			],
			"name":"Sketchfab_model.003",
			"rotation":[
				-0.70710688829422,
				0,
				0,
				0.7071066498756409
			],
			"scale":[
				2.902585506439209,
				2.902585744857788,
				2.902585744857788
			],
			"translation":[
				-2.4062583446502686,
				0,
				0
			]
		},
		{
			"mesh":1,
			"name":"05deerFinal.001",
			"rotation":[
				0,
				0,
				-0.6830360293388367,
				0.7303847074508667
			],
			"scale":[
				0.6959840655326843,
				0.6959840655326843,
				0.6959839463233948
			],
			"translation":[
				-3.3731741905212402,
				-0.07632305473089218,
				0.5393272638320923
			]
		},
		{
			"name":"Hiena_HP_0.001",
			"rotation":[
				0.70710688829422,
				0,
				0,
				0.7071066498756409
			],
			"scale":[
				0.004999999888241291,
				0.005000000353902578,
				0.005000000353902578
			]
		},
		{
			"children":[
				6
			],
			"name":"GLTF_SceneRootNode.004",
			"rotation":[
				0.70710688829422,
				0,
				0,
				0.7071066498756409
			]
		},
		{
			"children":[
				7
			],
			"name":"root.004"
		},
		{
			"children":[
				8
			],
			"name":"Sketchfab_model.006",
			"rotation":[
				-0.70710688829422,
				0,
				0,
				0.7071066498756409
			],
			"scale":[
				2.902585506439209,
				2.902585506439209,
				2.902585506439209
			],
			"translation":[
				-2.4062583446502686,
				0,
				0
			]
		},
		{
			"mesh":2,
			"name":"Mesh_0_Material_0_0.001",
			"rotation":[
				-0.6982321739196777,
				-0.11167754232883453,
				-0.11167746037244797,
				0.6982321739196777
			],
			"translation":[
				-3.7338979244232178,
				0.4762283265590668,
				0
			]
		},
		{
			"mesh":3,
			"name":"Text.002",
			"rotation":[
				0.6745094060897827,
				0,
				0,
				0.7382662296295166
			],
			"scale":[
				0.5400235652923584,
				0.5400235652923584,
				0.5400235652923584
			],
			"translation":[
				-4.372265338897705,
				1.2951432466506958,
				-0.4314461648464203
			]
		}
	],
	"materials":[
		{
			"doubleSided":true,
			"name":"Hyena_Mat",
			"normalTexture":{
				"index":0
			},
			"pbrMetallicRoughness":{
				"baseColorTexture":{
					"index":1
				},
				"metallicFactor":0.5,
				"roughnessFactor":0.7073320150375366
			}
		},
		{
			"doubleSided":true,
			"name":"Material.004",
			"pbrMetallicRoughness":{
				"baseColorTexture":{
					"index":2
				},
				"metallicFactor":0
			}
		},
		{
			"doubleSided":true,
			"name":"Material_0.001",
			"pbrMetallicRoughness":{
				"baseColorTexture":{
					"index":3
				},
				"metallicFactor":0,
				"roughnessFactor":0.8868629336357117
			}
		}
	],
	"meshes":[
		{
			"name":"Object_0.002",
			"primitives":[
				{
					"attributes":{
						"POSITION":0,
						"NORMAL":1,
						"TEXCOORD_0":2,
						"TEXCOORD_1":3
					},
					"indices":4,
					"material":0
				}
			]
		},
		{
			"name":"Plane.001",
			"primitives":[
				{
					"attributes":{
						"POSITION":5,
						"NORMAL":6,
						"TEXCOORD_0":7
					},
					"indices":8,
					"material":1
				}
			]
		},
		{
			"name":"Mesh_0_Material_0_0.001",
			"primitives":[
				{
					"attributes":{
						"POSITION":9,
						"NORMAL":10,
						"TEXCOORD_0":11
					},
					"indices":12,
					"material":2
				}
			]
		},
		{
			"name":"Text.001",
			"primitives":[
				{
					"attributes":{
						"POSITION":13,
						"NORMAL":14,
						"TEXCOORD_0":15
					},
					"indices":16
				}
			]
		}
	],
	"textures":[
		{
			"sampler":0,
			"source":0
		},
		{
			"sampler":0,
			"source":1
		},
		{
			"sampler":0,
			"source":2
		},
		{
			"sampler":0,
			"source":3
		}
	],
	"images":[
		{
			"mimeType":"image/png",
			"name":"Hyena_Mat_normal",
			"uri":"Hyena_Mat_normal.png"
		},
		{
			"mimeType":"image/png",
			"name":"Hyena_Mat_baseColor",
			"uri":"Hyena_Mat_baseColor.png"
		},
		{
			"mimeType":"image/png",
			"name":"05deertexture",
			"uri":"05deertexture.png"
		},
		{
			"mimeType":"image/jpeg",
			"name":"Material_0_baseColor",
			"uri":"Material_0_baseColor.jpg"
		}
	],
	"accessors":[
		{
			"bufferView":0,
			"componentType":5126,
			"count":2474,
			"max":[
				13.838452339172363,
				43.33621597290039,
				0.2309248298406601
			],
			"min":[
				-12.335536003112793,
				-47.18439865112305,
				-58.21686935424805
			],
			"type":"VEC3"
		},
		{
			"bufferView":1,
			"componentType":5126,
			"count":2474,
			"type":"VEC3"
		},
		{
			"bufferView":2,
			"componentType":5126,
			"count":2474,
			"type":"VEC2"
		},
		{
			"bufferView":3,
			"componentType":5126,
			"count":2474,
			"type":"VEC2"
		},
		{
			"bufferView":4,
			"componentType":5123,
			"count":9759,
			"type":"SCALAR"
		},
		{
			"bufferView":5,
			"componentType":5126,
			"count":2317,
			"max":[
				0.3571834862232208,
				2.0505783557891846,
				1.074887752532959
			],
			"min":[
				-0.35718271136283875,
				0.015686960890889168,
				-0.7527769804000854
			],
			"type":"VEC3"
		},
		{
			"bufferView":6,
			"componentType":5126,
			"count":2317,
			"type":"VEC3"
		},
		{
			"bufferView":7,
			"componentType":5126,
			"count":2317,
			"type":"VEC2"
		},
		{
			"bufferView":8,
			"componentType":5123,
			"count":3420,
			"type":"SCALAR"
		},
		{
			"bufferView":9,
			"componentType":5126,
			"count":3766,
			"max":[
				0.6013109683990479,
				0.20932400226593018,
				0.4273374080657959
			],
			"min":[
				-0.5994899868965149,
				-0.20771467685699463,
				-0.4271017611026764
			],
			"type":"VEC3"
		},
		{
			"bufferView":10,
			"componentType":5126,
			"count":3766,
			"type":"VEC3"
		},
		{
			"bufferView":11,
			"componentType":5126,
			"count":3766,
			"type":"VEC2"
		},
		{
			"bufferView":12,
			"componentType":5123,
			"count":11901,
			"type":"SCALAR"
		},
		{
			"bufferView":13,
			"componentType":5126,
			"count":851,
			"max":[
				5.1050004959106445,
				0,
				0.23000000417232513
			],
			"min":[
				0.04800000041723251,
				0,
				-0.6910000443458557
			],
			"type":"VEC3"
		},
		{
			"bufferView":14,
			"componentType":5126,
			"count":851,
			"type":"VEC3"
		},
		{
			"bufferView":15,
			"componentType":5126,
			"count":851,
			"type":"VEC2"
		},
		{
			"bufferView":16,
			"componentType":5123,
			"count":2499,
			"type":"SCALAR"
		}
	],
	"bufferViews":[
		{
			"buffer":0,
			"byteLength":29688,
			"byteOffset":0,
			"target":34962
		},
		{
			"buffer":0,
			"byteLength":29688,
			"byteOffset":29688,
			"target":34962
		},
		{
			"buffer":0,
			"byteLength":19792,
			"byteOffset":59376,
			"target":34962
		},
		{
			"buffer":0,
			"byteLength":19792,
			"byteOffset":79168,
			"target":34962
		},
		{
			"buffer":0,
			"byteLength":19518,
			"byteOffset":98960,
			"target":34963
		},
		{
			"buffer":0,
			"byteLength":27804,
			"byteOffset":118480,
			"target":34962
		},
		{
			"buffer":0,
			"byteLength":27804,
			"byteOffset":146284,
			"target":34962
		},
		{
			"buffer":0,
			"byteLength":18536,
			"byteOffset":174088,
			"target":34962
		},
		{
			"buffer":0,
			"byteLength":6840,
			"byteOffset":192624,
			"target":34963
		},
		{
			"buffer":0,
			"byteLength":45192,
			"byteOffset":199464,
			"target":34962
		},
		{
			"buffer":0,
			"byteLength":45192,
			"byteOffset":244656,
			"target":34962
		},
		{
			"buffer":0,
			"byteLength":30128,
			"byteOffset":289848,
			"target":34962
		},
		{
			"buffer":0,
			"byteLength":23802,
			"byteOffset":319976,
			"target":34963
		},
		{
			"buffer":0,
			"byteLength":10212,
			"byteOffset":343780,
			"target":34962
		},
		{
			"buffer":0,
			"byteLength":10212,
			"byteOffset":353992,
			"target":34962
		},
		{
			"buffer":0,
			"byteLength":6808,
			"byteOffset":364204,
			"target":34962
		},
		{
			"buffer":0,
			"byteLength":4998,
			"byteOffset":371012,
			"target":34963
		}
	],
	"samplers":[
		{
			"magFilter":9729,
			"minFilter":9987
		}
	],
	"buffers":[
		{
			"byteLength":376012,
			"uri":"competition.bin"
		}
	]
}
