{
	"asset":{
		"generator":"Khronos glTF Blender I/O v3.6.27",
		"version":"2.0"
	},
	"scene":0,
	"scenes":[
		{
			"name":"Scene",
			"nodes":[
				0
			]
		}
	],
	"nodes":[
		{
			"mesh":0,
			"name":"Text.009",
			"rotation":[
				0.7071066498756409,
				0.0005109042976982892,
				-0.0005109042976982892,
				0.7071066498756409
			],
			"scale":[
				0.4443278908729553,
				0.9138297438621521,
				0.4443278908729553
			],
			"translation":[
				1.5069591999053955,
				4.336650371551514,
				-2.2583565711975098
			]
		}
	],
	"materials":[
		{
			"doubleSided":true,
			"name":"Material.039",
			"pbrMetallicRoughness":{
				"metallicFactor":0,
				"roughnessFactor":0.5
			}
		}
	],
	"meshes":[
		{
			"name":"Text.023",
			"primitives":[
				{
					"attributes":{
						"POSITION":0,
						"NORMAL":1,
						"TEXCOORD_0":2
					},
					"indices":3,
					"material":0
				}
			]
		}
	],
	"accessors":[
		{
			"bufferView":0,
			"componentType":5126,
			"count":740,
			"max":[
				6.092000484466553,
				0.020000001415610313,
				0.009000000543892384
			],
			"min":[
				0,
				-0.020000001415610313,
				-0.6910000443458557
			],
			"type":"VEC3"
		},
		{
			"bufferView":1,
			"componentType":5126,
			"count":740,
			"type":"VEC3"
		},
		{
			"bufferView":2,
			"componentType":5126,
			"count":740,
			"type":"VEC2"
		},
		{
			"bufferView":3,
			"componentType":5123,
			"count":2052,
			"type":"SCALAR"
		}
	],
	"bufferViews":[
		{
			"buffer":0,
			"byteLength":8880,
			"byteOffset":0,
			"target":34962
		},
		{
			"buffer":0,
			"byteLength":8880,
			"byteOffset":8880,
			"target":34962
		},
		{
			"buffer":0,
			"byteLength":5920,
			"byteOffset":17760,
			"target":34962
		},
		{
			"buffer":0,
			"byteLength":4104,
			"byteOffset":23680,
			"target":34963
		}
	],
	"buffers":[
		{
			"byteLength":27784,
			"uri":"animaltext.bin"
		}
	]
}
