{
	"asset":{
		"generator":"Khronos glTF Blender I/O v3.6.27",
		"version":"2.0"
	},
	"scene":0,
	"scenes":[
		{
			"name":"Scene",
			"nodes":[
				0,
				1,
				2,
				3
			]
		}
	],
	"nodes":[
		{
			"mesh":0,
			"name":"Icosphere",
			"rotation":[
				0.006070778239518404,
				-0.6961029171943665,
				0.005335947498679161,
				0.717896580696106
			],
			"scale":[
				1.5753602981567383,
				1.8412476778030396,
				1.66958487033844
			],
			"translation":[
				2.93035626411438,
				1.5886199474334717,
				-0.9427061080932617
			]
		},
		{
			"mesh":1,
			"name":"Text.012",
			"rotation":[
				0.7071066498756409,
				0.0005109042976982892,
				-0.0005109042976982892,
				0.7071066498756409
			],
			"scale":[
				0.1881776750087738,
				0.9138297438621521,
				0.25816208124160767
			],
			"translation":[
				4.678403854370117,
				3.9229209423065186,
				-1.2785437107086182
			]
		},
		{
			"mesh":2,
			"name":"Plane.012",
			"rotation":[
				-0.5003611445426941,
				0.5003611445426941,
				-0.4996385872364044,
				0.4996386766433716
			],
			"scale":[
				0.12148328870534897,
				1,
				0.6671497225761414
			],
			"translation":[
				5.246675491333008,
				4.00838041305542,
				-1.2876267433166504
			]
		},
		{
			"mesh":3,
			"name":"Plane.033",
			"rotation":[
				-0.22127825021743774,
				-0.583453893661499,
				0.6861278414726257,
				0.373960018157959
			],
			"scale":[
				-0.010036786086857319,
				-0.9998879432678223,
				-0.6994550824165344
			],
			"translation":[
				4.442389488220215,
				3.4491970539093018,
				-1.1952908039093018
			]
		}
	],
	"materials":[
		{
			"doubleSided":true,
			"name":"Vesicle/Shell Mat",
			"pbrMetallicRoughness":{
				"baseColorFactor":[
					0.8003851175308228,
					0.17067664861679077,
					0.003093875478953123,
					1
				],
				"metallicFactor":0,
				"roughnessFactor":0.5
			}
		},
		{
			"doubleSided":true,
			"name":"Cytoskeleton",
			"pbrMetallicRoughness":{
				"baseColorFactor":[
					0.800536572933197,
					0.4106718897819519,
					0,
					1
				],
				"metallicFactor":0,
				"roughnessFactor":0
			}
		},
		{
			"doubleSided":true,
			"name":"Material.030",
			"pbrMetallicRoughness":{
				"baseColorFactor":[
					0,
					0,
					0,
					1
				],
				"metallicFactor":0,
				"roughnessFactor":0.5
			}
		},
		{
			"doubleSided":true,
			"name":"Material.016",
			"pbrMetallicRoughness":{
				"baseColorFactor":[
					0.800000011920929,
					0.800000011920929,
					0.800000011920929,
					1
				],
				"metallicFactor":0,
				"roughnessFactor":0.5
			}
		},
		{
			"doubleSided":true,
			"name":"Material.063",
			"pbrMetallicRoughness":{
				"baseColorFactor":[
					0,
					0,
					0,
					1
				],
				"metallicFactor":0,
				"roughnessFactor":0.5
			}
		}
	],
	"meshes":[
		{
			"name":"Icosphere",
			"primitives":[
				{
					"attributes":{
						"POSITION":0,
						"NORMAL":1
					},
					"indices":2,
					"material":0
				},
				{
					"attributes":{
						"POSITION":3,
						"NORMAL":4
					},
					"indices":5,
					"material":1
				}
			]
		},
		{
			"name":"Text.015",
			"primitives":[
				{
					"attributes":{
						"POSITION":6,
						"NORMAL":7,
						"TEXCOORD_0":8
					},
					"indices":9,
					"material":2
				}
			]
		},
		{
			"name":"Plane.015",
			"primitives":[
				{
					"attributes":{
						"POSITION":10,
						"NORMAL":11,
						"TEXCOORD_0":12
					},
					"indices":13,
					"material":3
				}
			]
		},
		{
			"name":"Plane.033",
			"primitives":[
				{
					"attributes":{
						"POSITION":14,
						"NORMAL":15,
						"TEXCOORD_0":16
					},
					"indices":13,
					"material":4
				}
			]
		}
	],
	"accessors":[
		{
			"bufferView":0,
			"componentType":5126,
			"count":192,
			"max":[
				0.9510578513145447,
				1,
				0.9999999403953552
			],
			"min":[
				-1.0628103017807007,
				-1.0078006982803345,
				-0.9999999403953552
			],
			"type":"VEC3"
		},
		{
			"bufferView":1,
			"componentType":5126,
			"count":192,
			"type":"VEC3"
		},
		{
			"bufferView":2,
			"componentType":5123,
			"count":192,
			"type":"SCALAR"
		},
		{
			"bufferView":3,
			"componentType":5126,
			"count":14,
			"max":[
				0.9510578513145447,
				1,
				0.9999999403953552
			],
			"min":[
				-0.14440873265266418,
				0,
				-0.8918493986129761
			],
			"type":"VEC3"
		},
		{
			"bufferView":4,
			"componentType":5126,
			"count":14,
			"type":"VEC3"
		},
		{
			"bufferView":5,
			"componentType":5123,
			"count":24,
			"type":"SCALAR"
		},
		{
			"bufferView":6,
			"componentType":5126,
			"count":3678,
			"max":[
				6.203000068664551,
				0.020000001415610313,
				0.009000000543892384
			],
			"min":[
				0.04800000041723251,
				-0.020000001415610313,
				-0.6910000443458557
			],
			"type":"VEC3"
		},
		{
			"bufferView":7,
			"componentType":5126,
			"count":3678,
			"type":"VEC3"
		},
		{
			"bufferView":8,
			"componentType":5126,
			"count":3678,
			"type":"VEC2"
		},
		{
			"bufferView":9,
			"componentType":5123,
			"count":10848,
			"type":"SCALAR"
		},
		{
			"bufferView":10,
			"componentType":5126,
			"count":4,
			"max":[
				1,
				0,
				1
			],
			"min":[
				-1,
				0,
				-1
			],
			"type":"VEC3"
		},
		{
			"bufferView":11,
			"componentType":5126,
			"count":4,
			"type":"VEC3"
		},
		{
			"bufferView":12,
			"componentType":5126,
			"count":4,
			"type":"VEC2"
		},
		{
			"bufferView":13,
			"componentType":5123,
			"count":6,
			"type":"SCALAR"
		},
		{
			"bufferView":14,
			"componentType":5126,
			"count":4,
			"max":[
				1,
				0,
				1
			],
			"min":[
				-1,
				0,
				-1
			],
			"type":"VEC3"
		},
		{
			"bufferView":15,
			"componentType":5126,
			"count":4,
			"type":"VEC3"
		},
		{
			"bufferView":16,
			"componentType":5126,
			"count":4,
			"type":"VEC2"
		}
	],
	"bufferViews":[
		{
			"buffer":0,
			"byteLength":2304,
			"byteOffset":0,
			"target":34962
		},
		{
			"buffer":0,
			"byteLength":2304,
			"byteOffset":2304,
			"target":34962
		},
		{
			"buffer":0,
			"byteLength":384,
			"byteOffset":4608,
			"target":34963
		},
		{
			"buffer":0,
			"byteLength":168,
			"byteOffset":4992,
			"target":34962
		},
		{
			"buffer":0,
			"byteLength":168,
			"byteOffset":5160,
			"target":34962
		},
		{
			"buffer":0,
			"byteLength":48,
			"byteOffset":5328,
			"target":34963
		},
		{
			"buffer":0,
			"byteLength":44136,
			"byteOffset":5376,
			"target":34962
		},
		{
			"buffer":0,
			"byteLength":44136,
			"byteOffset":49512,
			"target":34962
		},
		{
			"buffer":0,
			"byteLength":29424,
			"byteOffset":93648,
			"target":34962
		},
		{
			"buffer":0,
			"byteLength":21696,
			"byteOffset":123072,
			"target":34963
		},
		{
			"buffer":0,
			"byteLength":48,
			"byteOffset":144768,
			"target":34962
		},
		{
			"buffer":0,
			"byteLength":48,
			"byteOffset":144816,
			"target":34962
		},
		{
			"buffer":0,
			"byteLength":32,
			"byteOffset":144864,
			"target":34962
		},
		{
			"buffer":0,
			"byteLength":12,
			"byteOffset":144896,
			"target":34963
		},
		{
			"buffer":0,
			"byteLength":48,
			"byteOffset":144908,
			"target":34962
		},
		{
			"buffer":0,
			"byteLength":48,
			"byteOffset":144956,
			"target":34962
		},
		{
			"buffer":0,
			"byteLength":32,
			"byteOffset":145004,
			"target":34962
		}
	],
	"buffers":[
		{
			"byteLength":145036,
			"uri":"cellmembrane.bin"
		}
	]
}
