{
	"asset":{
		"generator":"Khronos glTF Blender I/O v3.6.27",
		"version":"2.0"
	},
	"scene":0,
	"scenes":[
		{
			"name":"Scene",
			"nodes":[
				0,
				1,
				2,
				3
			]
		}
	],
	"nodes":[
		{
			"mesh":0,
			"name":"Icosphere.002",
			"rotation":[
				-0.24339112639427185,
				-0.654711127281189,
				-0.2365187257528305,
				0.6754058003425598
			],
			"scale":[
				0.07057070732116699,
				0.2490515261888504,
				0.10055426508188248
			],
			"translation":[
				2.0070743560791016,
				2.0034914016723633,
				-1.0166943073272705
			]
		},
		{
			"mesh":1,
			"name":"Plane.007",
			"rotation":[
				-0.644136369228363,
				0.5637196898460388,
				-0.38585734367370605,
				0.34412574768066406
			],
			"scale":[
				-0.005150053184479475,
				-0.5973131656646729,
				-0.3867103159427643
			],
			"translation":[
				1.554057002067566,
				1.8600462675094604,
				-0.6506697535514832
			]
		},
		{
			"mesh":2,
			"name":"Text.005",
			"rotation":[
				0.7071066498756409,
				0.0005109042976982892,
				-0.0005109043559059501,
				0.7071066498756409
			],
			"scale":[
				0.1952541023492813,
				0.9138293862342834,
				0.25816208124160767
			],
			"translation":[
				0.35411423444747925,
				1.7778202295303345,
				-0.46340715885162354
			]
		},
		{
			"mesh":3,
			"name":"Plane.009",
			"rotation":[
				-0.5003611445426941,
				0.5003611445426941,
				-0.4996386170387268,
				0.4996386766433716
			],
			"scale":[
				0.12148328125476837,
				1,
				0.5045811533927917
			],
			"translation":[
				0.7525273561477661,
				1.863279938697815,
				-0.4724300503730774
			]
		}
	],
	"materials":[
		{
			"doubleSided":true,
			"name":"Material.020",
			"pbrMetallicRoughness":{
				"baseColorFactor":[
					0.8001260757446289,
					0.0032985713332891464,
					0.5607434511184692,
					1
				],
				"metallicFactor":0,
				"roughnessFactor":0.5
			}
		},
		{
			"doubleSided":true,
			"name":"Material.069",
			"pbrMetallicRoughness":{
				"baseColorFactor":[
					0,
					0,
					0,
					1
				],
				"metallicFactor":0,
				"roughnessFactor":0.5
			}
		},
		{
			"doubleSided":true,
			"name":"Material.070",
			"pbrMetallicRoughness":{
				"baseColorFactor":[
					0,
					0,
					0,
					1
				],
				"metallicFactor":0,
				"roughnessFactor":0.5
			}
		},
		{
			"doubleSided":true,
			"name":"Material.071",
			"pbrMetallicRoughness":{
				"baseColorFactor":[
					0.800000011920929,
					0.800000011920929,
					0.800000011920929,
					1
				],
				"metallicFactor":0,
				"roughnessFactor":0.5
			}
		}
	],
	"meshes":[
		{
			"name":"Icosphere.005",
			"primitives":[
				{
					"attributes":{
						"POSITION":0,
						"NORMAL":1
					},
					"indices":2,
					"material":0
				}
			]
		},
		{
			"name":"Plane.040",
			"primitives":[
				{
					"attributes":{
						"POSITION":3,
						"NORMAL":4,
						"TEXCOORD_0":5
					},
					"indices":6,
					"material":1
				}
			]
		},
		{
			"name":"Text.008",
			"primitives":[
				{
					"attributes":{
						"POSITION":7,
						"NORMAL":8,
						"TEXCOORD_0":9
					},
					"indices":10,
					"material":2
				}
			]
		},
		{
			"name":"Plane.041",
			"primitives":[
				{
					"attributes":{
						"POSITION":11,
						"NORMAL":12,
						"TEXCOORD_0":13
					},
					"indices":6,
					"material":3
				}
			]
		}
	],
	"accessors":[
		{
			"bufferView":0,
			"componentType":5126,
			"count":240,
			"max":[
				0.9510578513145447,
				1,
				0.9999999403953552
			],
			"min":[
				-0.9510578513145447,
				-1,
				-0.9999999403953552
			],
			"type":"VEC3"
		},
		{
			"bufferView":1,
			"componentType":5126,
			"count":240,
			"type":"VEC3"
		},
		{
			"bufferView":2,
			"componentType":5123,
			"count":240,
			"type":"SCALAR"
		},
		{
			"bufferView":3,
			"componentType":5126,
			"count":4,
			"max":[
				1,
				0,
				1
			],
			"min":[
				-1,
				0,
				-1
			],
			"type":"VEC3"
		},
		{
			"bufferView":4,
			"componentType":5126,
			"count":4,
			"type":"VEC3"
		},
		{
			"bufferView":5,
			"componentType":5126,
			"count":4,
			"type":"VEC2"
		},
		{
			"bufferView":6,
			"componentType":5123,
			"count":6,
			"type":"SCALAR"
		},
		{
			"bufferView":7,
			"componentType":5126,
			"count":3040,
			"max":[
				4.2300004959106445,
				0.020000001415610313,
				0.009000000543892384
			],
			"min":[
				0.04800000041723251,
				-0.020000001415610313,
				-0.6910000443458557
			],
			"type":"VEC3"
		},
		{
			"bufferView":8,
			"componentType":5126,
			"count":3040,
			"type":"VEC3"
		},
		{
			"bufferView":9,
			"componentType":5126,
			"count":3040,
			"type":"VEC2"
		},
		{
			"bufferView":10,
			"componentType":5123,
			"count":8928,
			"type":"SCALAR"
		},
		{
			"bufferView":11,
			"componentType":5126,
			"count":4,
			"max":[
				1,
				0,
				1
			],
			"min":[
				-1,
				0,
				-1
			],
			"type":"VEC3"
		},
		{
			"bufferView":12,
			"componentType":5126,
			"count":4,
			"type":"VEC3"
		},
		{
			"bufferView":13,
			"componentType":5126,
			"count":4,
			"type":"VEC2"
		}
	],
	"bufferViews":[
		{
			"buffer":0,
			"byteLength":2880,
			"byteOffset":0,
			"target":34962
		},
		{
			"buffer":0,
			"byteLength":2880,
			"byteOffset":2880,
			"target":34962
		},
		{
			"buffer":0,
			"byteLength":480,
			"byteOffset":5760,
			"target":34963
		},
		{
			"buffer":0,
			"byteLength":48,
			"byteOffset":6240,
			"target":34962
		},
		{
			"buffer":0,
			"byteLength":48,
			"byteOffset":6288,
			"target":34962
		},
		{
			"buffer":0,
			"byteLength":32,
			"byteOffset":6336,
			"target":34962
		},
		{
			"buffer":0,
			"byteLength":12,
			"byteOffset":6368,
			"target":34963
		},
		{
			"buffer":0,
			"byteLength":36480,
			"byteOffset":6380,
			"target":34962
		},
		{
			"buffer":0,
			"byteLength":36480,
			"byteOffset":42860,
			"target":34962
		},
		{
			"buffer":0,
			"byteLength":24320,
			"byteOffset":79340,
			"target":34962
		},
		{
			"buffer":0,
			"byteLength":17856,
			"byteOffset":103660,
			"target":34963
		},
		{
			"buffer":0,
			"byteLength":48,
			"byteOffset":121516,
			"target":34962
		},
		{
			"buffer":0,
			"byteLength":48,
			"byteOffset":121564,
			"target":34962
		},
		{
			"buffer":0,
			"byteLength":32,
			"byteOffset":121612,
			"target":34962
		}
	],
	"buffers":[
		{
			"byteLength":121644,
			"uri":"centrioles.bin"
		}
	]
}
