{
	"asset":{
		"generator":"Khronos glTF Blender I/O v3.6.27",
		"version":"2.0"
	},
	"scene":0,
	"scenes":[
		{
			"name":"Scene",
			"nodes":[
				0,
				1,
				2,
				3,
				4
			]
		}
	],
	"nodes":[
		{
			"mesh":0,
			"name":"Cube.037",
			"rotation":[
				0.5415798425674438,
				0.36000168323516846,
				0.45678508281707764,
				0.6069904565811157
			],
			"scale":[
				0.0347965806722641,
				0.2173800766468048,
				0.036480702459812164
			],
			"translation":[
				3.1522867679595947,
				2.1713955402374268,
				-0.9626309871673584
			]
		},
		{
			"mesh":1,
			"name":"Cube.007",
			"rotation":[
				0.22778140008449554,
				-0.6601249575614929,
				0.20195512473583221,
				0.6867057681083679
			],
			"scale":[
				0.0731310024857521,
				0.051066264510154724,
				0.06295046210289001
			],
			"translation":[
				3.340491533279419,
				2.6822237968444824,
				-1.0012874603271484
			]
		},
		{
			"mesh":2,
			"name":"Text.018",
			"rotation":[
				0.7071066498756409,
				0.0005109042976982892,
				-0.0005109042976982892,
				0.7071066498756409
			],
			"scale":[
				0.12359398603439331,
				0.9138297438621521,
				0.25816208124160767
			],
			"translation":[
				2.7261054515838623,
				3.0866620540618896,
				-0.5069370865821838
			]
		},
		{
			"mesh":3,
			"name":"Plane.018",
			"rotation":[
				-0.5003611445426941,
				0.5003611445426941,
				-0.4996385872364044,
				0.4996386766433716
			],
			"scale":[
				0.12148328870534897,
				1,
				0.6671497225761414
			],
			"translation":[
				3.2943756580352783,
				3.17212176322937,
				-0.5160203576087952
			]
		},
		{
			"mesh":4,
			"name":"Plane.036",
			"rotation":[
				-0.06465467065572739,
				-0.9182500839233398,
				0.38263827562332153,
				0.07889707386493683
			],
			"scale":[
				-0.009893097914755344,
				-0.7402136921882629,
				-0.28307655453681946
			],
			"translation":[
				2.960766315460205,
				2.92142653465271,
				-0.652814507484436
			]
		}
	],
	"materials":[
		{
			"doubleSided":true,
			"name":"Material.017",
			"pbrMetallicRoughness":{
				"baseColorFactor":[
					0.8001724481582642,
					0.69029301404953,
					0,
					1
				],
				"metallicFactor":0,
				"roughnessFactor":0.5
			}
		},
		{
			"doubleSided":true,
			"name":"asd.002",
			"pbrMetallicRoughness":{
				"baseColorFactor":[
					0.8001724481582642,
					0.5409272313117981,
					0,
					1
				],
				"metallicFactor":0,
				"roughnessFactor":0.5
			}
		},
		{
			"doubleSided":true,
			"name":"Material.035",
			"pbrMetallicRoughness":{
				"baseColorFactor":[
					0,
					0,
					0,
					1
				],
				"metallicFactor":0,
				"roughnessFactor":0.5
			}
		},
		{
			"doubleSided":true,
			"name":"Material.025",
			"pbrMetallicRoughness":{
				"baseColorFactor":[
					0.800000011920929,
					0.800000011920929,
					0.800000011920929,
					1
				],
				"metallicFactor":0,
				"roughnessFactor":0.5
			}
		},
		{
			"doubleSided":true,
			"name":"Material.066",
			"pbrMetallicRoughness":{
				"baseColorFactor":[
					0,
					0,
					0,
					1
				],
				"metallicFactor":0,
				"roughnessFactor":0.5
			}
		}
	],
	"meshes":[
		{
			"name":"Cube.047",
			"primitives":[
				{
					"attributes":{
						"POSITION":0,
						"NORMAL":1
					},
					"indices":2,
					"material":0
				}
			]
		},
		{
			"name":"Cube.011",
			"primitives":[
				{
					"attributes":{
						"POSITION":3,
						"NORMAL":4
					},
					"indices":5,
					"material":1
				}
			]
		},
		{
			"name":"Text.019",
			"primitives":[
				{
					"attributes":{
						"POSITION":6,
						"NORMAL":7,
						"TEXCOORD_0":8
					},
					"indices":9,
					"material":2
				}
			]
		},
		{
			"name":"Plane.019",
			"primitives":[
				{
					"attributes":{
						"POSITION":10,
						"NORMAL":11,
						"TEXCOORD_0":12
					},
					"indices":13,
					"material":3
				}
			]
		},
		{
			"name":"Plane.036",
			"primitives":[
				{
					"attributes":{
						"POSITION":14,
						"NORMAL":15,
						"TEXCOORD_0":16
					},
					"indices":13,
					"material":4
				}
			]
		}
	],
	"accessors":[
		{
			"bufferView":0,
			"componentType":5126,
			"count":706,
			"max":[
				13.664149284362793,
				1,
				21.451778411865234
			],
			"min":[
				-13.06393814086914,
				-1,
				-25.900630950927734
			],
			"type":"VEC3"
		},
		{
			"bufferView":1,
			"componentType":5126,
			"count":706,
			"type":"VEC3"
		},
		{
			"bufferView":2,
			"componentType":5123,
			"count":1308,
			"type":"SCALAR"
		},
		{
			"bufferView":3,
			"componentType":5126,
			"count":56,
			"max":[
				1,
				1.5455303192138672,
				1
			],
			"min":[
				-1,
				-1.4133038520812988,
				-1
			],
			"type":"VEC3"
		},
		{
			"bufferView":4,
			"componentType":5126,
			"count":56,
			"type":"VEC3"
		},
		{
			"bufferView":5,
			"componentType":5123,
			"count":84,
			"type":"SCALAR"
		},
		{
			"bufferView":6,
			"componentType":5126,
			"count":6115,
			"max":[
				9.303000450134277,
				0.020000001415610313,
				0.23000000417232513
			],
			"min":[
				0.07500000298023224,
				-0.020000001415610313,
				-0.6820000410079956
			],
			"type":"VEC3"
		},
		{
			"bufferView":7,
			"componentType":5126,
			"count":6115,
			"type":"VEC3"
		},
		{
			"bufferView":8,
			"componentType":5126,
			"count":6115,
			"type":"VEC2"
		},
		{
			"bufferView":9,
			"componentType":5123,
			"count":17976,
			"type":"SCALAR"
		},
		{
			"bufferView":10,
			"componentType":5126,
			"count":4,
			"max":[
				1,
				0,
				1
			],
			"min":[
				-1,
				0,
				-1
			],
			"type":"VEC3"
		},
		{
			"bufferView":11,
			"componentType":5126,
			"count":4,
			"type":"VEC3"
		},
		{
			"bufferView":12,
			"componentType":5126,
			"count":4,
			"type":"VEC2"
		},
		{
			"bufferView":13,
			"componentType":5123,
			"count":6,
			"type":"SCALAR"
		},
		{
			"bufferView":14,
			"componentType":5126,
			"count":4,
			"max":[
				1,
				0,
				1
			],
			"min":[
				-1,
				0,
				-1
			],
			"type":"VEC3"
		},
		{
			"bufferView":15,
			"componentType":5126,
			"count":4,
			"type":"VEC3"
		},
		{
			"bufferView":16,
			"componentType":5126,
			"count":4,
			"type":"VEC2"
		}
	],
	"bufferViews":[
		{
			"buffer":0,
			"byteLength":8472,
			"byteOffset":0,
			"target":34962
		},
		{
			"buffer":0,
			"byteLength":8472,
			"byteOffset":8472,
			"target":34962
		},
		{
			"buffer":0,
			"byteLength":2616,
			"byteOffset":16944,
			"target":34963
		},
		{
			"buffer":0,
			"byteLength":672,
			"byteOffset":19560,
			"target":34962
		},
		{
			"buffer":0,
			"byteLength":672,
			"byteOffset":20232,
			"target":34962
		},
		{
			"buffer":0,
			"byteLength":168,
			"byteOffset":20904,
			"target":34963
		},
		{
			"buffer":0,
			"byteLength":73380,
			"byteOffset":21072,
			"target":34962
		},
		{
			"buffer":0,
			"byteLength":73380,
			"byteOffset":94452,
			"target":34962
		},
		{
			"buffer":0,
			"byteLength":48920,
			"byteOffset":167832,
			"target":34962
		},
		{
			"buffer":0,
			"byteLength":35952,
			"byteOffset":216752,
			"target":34963
		},
		{
			"buffer":0,
			"byteLength":48,
			"byteOffset":252704,
			"target":34962
		},
		{
			"buffer":0,
			"byteLength":48,
			"byteOffset":252752,
			"target":34962
		},
		{
			"buffer":0,
			"byteLength":32,
			"byteOffset":252800,
			"target":34962
		},
		{
			"buffer":0,
			"byteLength":12,
			"byteOffset":252832,
			"target":34963
		},
		{
			"buffer":0,
			"byteLength":48,
			"byteOffset":252844,
			"target":34962
		},
		{
			"buffer":0,
			"byteLength":48,
			"byteOffset":252892,
			"target":34962
		},
		{
			"buffer":0,
			"byteLength":32,
			"byteOffset":252940,
			"target":34962
		}
	],
	"buffers":[
		{
			"byteLength":252972,
			"uri":"ER.bin"
		}
	]
}
