{
	"asset":{
		"generator":"Khronos glTF Blender I/O v3.6.27",
		"version":"2.0"
	},
	"scene":0,
	"scenes":[
		{
			"name":"Scene",
			"nodes":[
				0,
				1,
				2,
				3
			]
		}
	],
	"nodes":[
		{
			"mesh":0,
			"name":"Cube.005",
			"rotation":[
				-0.02706456556916237,
				0.9859691858291626,
				0.023788021877408028,
				0.16299206018447876
			],
			"scale":[
				0.012697872705757618,
				0.05371050164103508,
				0.01369659136980772
			],
			"translation":[
				3.622966766357422,
				1.6589722633361816,
				-0.3531458377838135
			]
		},
		{
			"mesh":1,
			"name":"Text.017",
			"rotation":[
				0.7071066498756409,
				0.0005109042976982892,
				-0.0005109042976982892,
				0.7071066498756409
			],
			"scale":[
				0.1881776750087738,
				0.9138297438621521,
				0.25816208124160767
			],
			"translation":[
				4.495771408081055,
				2.637186050415039,
				-0.40395236015319824
			]
		},
		{
			"mesh":2,
			"name":"Plane.017",
			"rotation":[
				-0.5003611445426941,
				0.5003611445426941,
				-0.4996385872364044,
				0.4996386766433716
			],
			"scale":[
				0.12148328870534897,
				1,
				0.6671497225761414
			],
			"translation":[
				5.109499931335449,
				2.7226457595825195,
				-0.4131014347076416
			]
		},
		{
			"mesh":3,
			"name":"Plane.037",
			"rotation":[
				-0.22127825021743774,
				-0.583453893661499,
				0.6861278414726257,
				0.373960018157959
			],
			"scale":[
				-0.010036786086857319,
				-0.9998879432678223,
				-0.6994550824165344
			],
			"translation":[
				4.356172561645508,
				2.1177380084991455,
				-0.2592964470386505
			]
		}
	],
	"materials":[
		{
			"doubleSided":true,
			"name":"Material.024",
			"pbrMetallicRoughness":{
				"baseColorFactor":[
					0.0041086552664637566,
					0,
					0.8003232479095459,
					1
				],
				"metallicFactor":0,
				"roughnessFactor":0.5
			}
		},
		{
			"doubleSided":true,
			"name":"Material.034",
			"pbrMetallicRoughness":{
				"baseColorFactor":[
					0,
					0,
					0,
					1
				],
				"metallicFactor":0,
				"roughnessFactor":0.5
			}
		},
		{
			"doubleSided":true,
			"name":"Material.022",
			"pbrMetallicRoughness":{
				"baseColorFactor":[
					0.800000011920929,
					0.800000011920929,
					0.800000011920929,
					1
				],
				"metallicFactor":0,
				"roughnessFactor":0.5
			}
		},
		{
			"doubleSided":true,
			"name":"Material.067",
			"pbrMetallicRoughness":{
				"baseColorFactor":[
					0,
					0,
					0,
					1
				],
				"metallicFactor":0,
				"roughnessFactor":0.5
			}
		}
	],
	"meshes":[
		{
			"name":"Cube.007",
			"primitives":[
				{
					"attributes":{
						"POSITION":0,
						"NORMAL":1
					},
					"indices":2,
					"material":0
				}
			]
		},
		{
			"name":"Text.018",
			"primitives":[
				{
					"attributes":{
						"POSITION":3,
						"NORMAL":4,
						"TEXCOORD_0":5
					},
					"indices":6,
					"material":1
				}
			]
		},
		{
			"name":"Plane.018",
			"primitives":[
				{
					"attributes":{
						"POSITION":7,
						"NORMAL":8,
						"TEXCOORD_0":9
					},
					"indices":10,
					"material":2
				}
			]
		},
		{
			"name":"Plane.037",
			"primitives":[
				{
					"attributes":{
						"POSITION":11,
						"NORMAL":12,
						"TEXCOORD_0":13
					},
					"indices":10,
					"material":3
				}
			]
		}
	],
	"accessors":[
		{
			"bufferView":0,
			"componentType":5126,
			"count":672,
			"max":[
				16.64655876159668,
				1.6426005363464355,
				29.650390625
			],
			"min":[
				-27.751249313354492,
				-1.6425986289978027,
				-46.317649841308594
			],
			"type":"VEC3"
		},
		{
			"bufferView":1,
			"componentType":5126,
			"count":672,
			"type":"VEC3"
		},
		{
			"bufferView":2,
			"componentType":5123,
			"count":1200,
			"type":"SCALAR"
		},
		{
			"bufferView":3,
			"componentType":5126,
			"count":5361,
			"max":[
				6.530000686645508,
				0.020000001415610313,
				0.23000000417232513
			],
			"min":[
				0.05000000074505806,
				-0.020000001415610313,
				-0.6910000443458557
			],
			"type":"VEC3"
		},
		{
			"bufferView":4,
			"componentType":5126,
			"count":5361,
			"type":"VEC3"
		},
		{
			"bufferView":5,
			"componentType":5126,
			"count":5361,
			"type":"VEC2"
		},
		{
			"bufferView":6,
			"componentType":5123,
			"count":15852,
			"type":"SCALAR"
		},
		{
			"bufferView":7,
			"componentType":5126,
			"count":4,
			"max":[
				1,
				0,
				1
			],
			"min":[
				-1,
				0,
				-1
			],
			"type":"VEC3"
		},
		{
			"bufferView":8,
			"componentType":5126,
			"count":4,
			"type":"VEC3"
		},
		{
			"bufferView":9,
			"componentType":5126,
			"count":4,
			"type":"VEC2"
		},
		{
			"bufferView":10,
			"componentType":5123,
			"count":6,
			"type":"SCALAR"
		},
		{
			"bufferView":11,
			"componentType":5126,
			"count":4,
			"max":[
				1,
				0,
				1
			],
			"min":[
				-1,
				0,
				-1
			],
			"type":"VEC3"
		},
		{
			"bufferView":12,
			"componentType":5126,
			"count":4,
			"type":"VEC3"
		},
		{
			"bufferView":13,
			"componentType":5126,
			"count":4,
			"type":"VEC2"
		}
	],
	"bufferViews":[
		{
			"buffer":0,
			"byteLength":8064,
			"byteOffset":0,
			"target":34962
		},
		{
			"buffer":0,
			"byteLength":8064,
			"byteOffset":8064,
			"target":34962
		},
		{
			"buffer":0,
			"byteLength":2400,
			"byteOffset":16128,
			"target":34963
		},
		{
			"buffer":0,
			"byteLength":64332,
			"byteOffset":18528,
			"target":34962
		},
		{
			"buffer":0,
			"byteLength":64332,
			"byteOffset":82860,
			"target":34962
		},
		{
			"buffer":0,
			"byteLength":42888,
			"byteOffset":147192,
			"target":34962
		},
		{
			"buffer":0,
			"byteLength":31704,
			"byteOffset":190080,
			"target":34963
		},
		{
			"buffer":0,
			"byteLength":48,
			"byteOffset":221784,
			"target":34962
		},
		{
			"buffer":0,
			"byteLength":48,
			"byteOffset":221832,
			"target":34962
		},
		{
			"buffer":0,
			"byteLength":32,
			"byteOffset":221880,
			"target":34962
		},
		{
			"buffer":0,
			"byteLength":12,
			"byteOffset":221912,
			"target":34963
		},
		{
			"buffer":0,
			"byteLength":48,
			"byteOffset":221924,
			"target":34962
		},
		{
			"buffer":0,
			"byteLength":48,
			"byteOffset":221972,
			"target":34962
		},
		{
			"buffer":0,
			"byteLength":32,
			"byteOffset":222020,
			"target":34962
		}
	],
	"buffers":[
		{
			"byteLength":222052,
			"uri":"golgi.bin"
		}
	]
}
