{
	"asset":{
		"generator":"Khronos glTF Blender I/O v3.6.27",
		"version":"2.0"
	},
	"scene":0,
	"scenes":[
		{
			"name":"Scene",
			"nodes":[
				0,
				1,
				2,
				3
			]
		}
	],
	"nodes":[
		{
			"mesh":0,
			"name":"Cube.008",
			"rotation":[
				0.22778140008449554,
				-0.6601249575614929,
				0.20195512473583221,
				0.6867057681083679
			],
			"scale":[
				0.0731310024857521,
				0.051066264510154724,
				0.06295046210289001
			],
			"translation":[
				2.4553682804107666,
				2.834648370742798,
				-0.997333288192749
			]
		},
		{
			"mesh":1,
			"name":"Text.019",
			"rotation":[
				0.7071066498756409,
				0.0005109042976982892,
				-0.0005109042976982892,
				0.7071066498756409
			],
			"scale":[
				0.1881776750087738,
				0.9138297438621521,
				0.25816208124160767
			],
			"translation":[
				1.9719297885894775,
				3.6141717433929443,
				-0.9114314913749695
			]
		},
		{
			"mesh":2,
			"name":"Plane.019",
			"rotation":[
				-0.5003611445426941,
				0.5003611445426941,
				-0.4996385872364044,
				0.4996386766433716
			],
			"scale":[
				0.12148328870534897,
				1,
				0.6671497225761414
			],
			"translation":[
				2.36539363861084,
				3.699631452560425,
				-0.9201803207397461
			]
		},
		{
			"mesh":3,
			"name":"Plane.026",
			"rotation":[
				0.048046473413705826,
				-0.6221528053283691,
				0.7800397276878357,
				0.04642762988805771
			],
			"scale":[
				-0.010036180727183819,
				-0.981234073638916,
				-0.37272337079048157
			],
			"translation":[
				2.453132390975952,
				3.270204544067383,
				-0.9729578495025635
			]
		}
	],
	"materials":[
		{
			"doubleSided":true,
			"name":"asd.003",
			"pbrMetallicRoughness":{
				"baseColorFactor":[
					0.8001724481582642,
					0.5409272313117981,
					0,
					1
				],
				"metallicFactor":0,
				"roughnessFactor":0.5
			}
		},
		{
			"doubleSided":true,
			"name":"Material.036",
			"pbrMetallicRoughness":{
				"baseColorFactor":[
					0,
					0,
					0,
					1
				],
				"metallicFactor":0,
				"roughnessFactor":0.5
			}
		},
		{
			"doubleSided":true,
			"name":"Material.026",
			"pbrMetallicRoughness":{
				"baseColorFactor":[
					0.800000011920929,
					0.800000011920929,
					0.800000011920929,
					1
				],
				"metallicFactor":0,
				"roughnessFactor":0.5
			}
		},
		{
			"doubleSided":true,
			"name":"Material.056",
			"pbrMetallicRoughness":{
				"baseColorFactor":[
					0,
					0,
					0,
					1
				],
				"metallicFactor":0,
				"roughnessFactor":0.5
			}
		}
	],
	"meshes":[
		{
			"name":"Cube.012",
			"primitives":[
				{
					"attributes":{
						"POSITION":0,
						"NORMAL":1
					},
					"indices":2,
					"material":0
				}
			]
		},
		{
			"name":"Text.020",
			"primitives":[
				{
					"attributes":{
						"POSITION":3,
						"NORMAL":4,
						"TEXCOORD_0":5
					},
					"indices":6,
					"material":1
				}
			]
		},
		{
			"name":"Plane.020",
			"primitives":[
				{
					"attributes":{
						"POSITION":7,
						"NORMAL":8,
						"TEXCOORD_0":9
					},
					"indices":10,
					"material":2
				}
			]
		},
		{
			"name":"Plane.014",
			"primitives":[
				{
					"attributes":{
						"POSITION":11,
						"NORMAL":12,
						"TEXCOORD_0":13
					},
					"indices":10,
					"material":3
				}
			]
		}
	],
	"accessors":[
		{
			"bufferView":0,
			"componentType":5126,
			"count":56,
			"max":[
				1,
				1.5455303192138672,
				1
			],
			"min":[
				-1,
				-1.4133038520812988,
				-1
			],
			"type":"VEC3"
		},
		{
			"bufferView":1,
			"componentType":5126,
			"count":56,
			"type":"VEC3"
		},
		{
			"bufferView":2,
			"componentType":5123,
			"count":84,
			"type":"SCALAR"
		},
		{
			"bufferView":3,
			"componentType":5126,
			"count":3280,
			"max":[
				4.397000312805176,
				0.020000001415610313,
				0.23000000417232513
			],
			"min":[
				0.07400000095367432,
				-0.020000001415610313,
				-0.6820000410079956
			],
			"type":"VEC3"
		},
		{
			"bufferView":4,
			"componentType":5126,
			"count":3280,
			"type":"VEC3"
		},
		{
			"bufferView":5,
			"componentType":5126,
			"count":3280,
			"type":"VEC2"
		},
		{
			"bufferView":6,
			"componentType":5123,
			"count":9696,
			"type":"SCALAR"
		},
		{
			"bufferView":7,
			"componentType":5126,
			"count":4,
			"max":[
				1,
				0,
				1
			],
			"min":[
				-1,
				0,
				-1
			],
			"type":"VEC3"
		},
		{
			"bufferView":8,
			"componentType":5126,
			"count":4,
			"type":"VEC3"
		},
		{
			"bufferView":9,
			"componentType":5126,
			"count":4,
			"type":"VEC2"
		},
		{
			"bufferView":10,
			"componentType":5123,
			"count":6,
			"type":"SCALAR"
		},
		{
			"bufferView":11,
			"componentType":5126,
			"count":4,
			"max":[
				1,
				0,
				1
			],
			"min":[
				-1,
				0,
				-1
			],
			"type":"VEC3"
		},
		{
			"bufferView":12,
			"componentType":5126,
			"count":4,
			"type":"VEC3"
		},
		{
			"bufferView":13,
			"componentType":5126,
			"count":4,
			"type":"VEC2"
		}
	],
	"bufferViews":[
		{
			"buffer":0,
			"byteLength":672,
			"byteOffset":0,
			"target":34962
		},
		{
			"buffer":0,
			"byteLength":672,
			"byteOffset":672,
			"target":34962
		},
		{
			"buffer":0,
			"byteLength":168,
			"byteOffset":1344,
			"target":34963
		},
		{
			"buffer":0,
			"byteLength":39360,
			"byteOffset":1512,
			"target":34962
		},
		{
			"buffer":0,
			"byteLength":39360,
			"byteOffset":40872,
			"target":34962
		},
		{
			"buffer":0,
			"byteLength":26240,
			"byteOffset":80232,
			"target":34962
		},
		{
			"buffer":0,
			"byteLength":19392,
			"byteOffset":106472,
			"target":34963
		},
		{
			"buffer":0,
			"byteLength":48,
			"byteOffset":125864,
			"target":34962
		},
		{
			"buffer":0,
			"byteLength":48,
			"byteOffset":125912,
			"target":34962
		},
		{
			"buffer":0,
			"byteLength":32,
			"byteOffset":125960,
			"target":34962
		},
		{
			"buffer":0,
			"byteLength":12,
			"byteOffset":125992,
			"target":34963
		},
		{
			"buffer":0,
			"byteLength":48,
			"byteOffset":126004,
			"target":34962
		},
		{
			"buffer":0,
			"byteLength":48,
			"byteOffset":126052,
			"target":34962
		},
		{
			"buffer":0,
			"byteLength":32,
			"byteOffset":126100,
			"target":34962
		}
	],
	"buffers":[
		{
			"byteLength":126132,
			"uri":"lysosomes.bin"
		}
	]
}
