{
	"asset":{
		"generator":"Khronos glTF Blender I/O v3.6.27",
		"version":"2.0"
	},
	"scene":0,
	"scenes":[
		{
			"name":"Scene",
			"nodes":[
				0,
				1,
				2,
				3
			]
		}
	],
	"nodes":[
		{
			"mesh":0,
			"name":"Cube.011",
			"rotation":[
				0.22147299349308014,
				0.6679372787475586,
				0.6720904111862183,
				0.23044297099113464
			],
			"scale":[
				0.06604968756437302,
				0.11526930332183838,
				0.06604727357625961
			],
			"translation":[
				2.0268948078155518,
				2.5366714000701904,
				-1.041243553161621
			]
		},
		{
			"mesh":1,
			"name":"Text.015",
			"rotation":[
				0.7071066498756409,
				0.0005109042976982892,
				-0.0005109042976982892,
				0.7071066498756409
			],
			"scale":[
				0.22713883221149445,
				0.9138297438621521,
				0.25816208124160767
			],
			"translation":[
				1.1344714164733887,
				3.86873197555542,
				-0.6333009600639343
			]
		},
		{
			"mesh":2,
			"name":"Plane.015",
			"rotation":[
				-0.5003611445426941,
				0.5003611445426941,
				-0.4996385872364044,
				0.4996386766433716
			],
			"scale":[
				0.12148328870534897,
				1,
				0.6671497225761414
			],
			"translation":[
				1.7615535259246826,
				3.9541916847229004,
				-0.6424689888954163
			]
		},
		{
			"mesh":3,
			"name":"Plane.034",
			"rotation":[
				0.061151597648859024,
				-0.8537869453430176,
				0.5163176655769348,
				0.02691606804728508
			],
			"scale":[
				-0.010041824541985989,
				-1.1341733932495117,
				-0.685807466506958
			],
			"translation":[
				1.947631597518921,
				3.2184839248657227,
				-0.8601625561714172
			]
		}
	],
	"materials":[
		{
			"doubleSided":true,
			"name":"Material.023",
			"pbrMetallicRoughness":{
				"baseColorFactor":[
					0.8001416921615601,
					0,
					0.004787137731909752,
					1
				],
				"metallicFactor":0,
				"roughnessFactor":0.5
			}
		},
		{
			"doubleSided":true,
			"name":"Material.032",
			"pbrMetallicRoughness":{
				"baseColorFactor":[
					0,
					0,
					0,
					1
				],
				"metallicFactor":0,
				"roughnessFactor":0.5
			}
		},
		{
			"doubleSided":true,
			"name":"Material.018",
			"pbrMetallicRoughness":{
				"baseColorFactor":[
					0.800000011920929,
					0.800000011920929,
					0.800000011920929,
					1
				],
				"metallicFactor":0,
				"roughnessFactor":0.5
			}
		},
		{
			"doubleSided":true,
			"name":"Material.064",
			"pbrMetallicRoughness":{
				"baseColorFactor":[
					0,
					0,
					0,
					1
				],
				"metallicFactor":0,
				"roughnessFactor":0.5
			}
		}
	],
	"meshes":[
		{
			"name":"Cube.016",
			"primitives":[
				{
					"attributes":{
						"POSITION":0,
						"NORMAL":1
					},
					"indices":2,
					"material":0
				}
			]
		},
		{
			"name":"Text.016",
			"primitives":[
				{
					"attributes":{
						"POSITION":3,
						"NORMAL":4,
						"TEXCOORD_0":5
					},
					"indices":6,
					"material":1
				}
			]
		},
		{
			"name":"Plane.016",
			"primitives":[
				{
					"attributes":{
						"POSITION":7,
						"NORMAL":8,
						"TEXCOORD_0":9
					},
					"indices":10,
					"material":2
				}
			]
		},
		{
			"name":"Plane.034",
			"primitives":[
				{
					"attributes":{
						"POSITION":11,
						"NORMAL":12,
						"TEXCOORD_0":13
					},
					"indices":10,
					"material":3
				}
			]
		}
	],
	"accessors":[
		{
			"bufferView":0,
			"componentType":5126,
			"count":1222,
			"max":[
				1.367305040359497,
				0.8807140588760376,
				3.3254034519195557
			],
			"min":[
				-1.3860690593719482,
				-1.0000003576278687,
				-5.723747253417969
			],
			"type":"VEC3"
		},
		{
			"bufferView":1,
			"componentType":5126,
			"count":1222,
			"type":"VEC3"
		},
		{
			"bufferView":2,
			"componentType":5123,
			"count":2388,
			"type":"SCALAR"
		},
		{
			"bufferView":3,
			"componentType":5126,
			"count":3592,
			"max":[
				5.4110002517700195,
				0.020000001415610313,
				0.009000000543892384
			],
			"min":[
				0.07300000637769699,
				-0.020000001415610313,
				-0.6820000410079956
			],
			"type":"VEC3"
		},
		{
			"bufferView":4,
			"componentType":5126,
			"count":3592,
			"type":"VEC3"
		},
		{
			"bufferView":5,
			"componentType":5126,
			"count":3592,
			"type":"VEC2"
		},
		{
			"bufferView":6,
			"componentType":5123,
			"count":10536,
			"type":"SCALAR"
		},
		{
			"bufferView":7,
			"componentType":5126,
			"count":4,
			"max":[
				1,
				0,
				1
			],
			"min":[
				-1,
				0,
				-1
			],
			"type":"VEC3"
		},
		{
			"bufferView":8,
			"componentType":5126,
			"count":4,
			"type":"VEC3"
		},
		{
			"bufferView":9,
			"componentType":5126,
			"count":4,
			"type":"VEC2"
		},
		{
			"bufferView":10,
			"componentType":5123,
			"count":6,
			"type":"SCALAR"
		},
		{
			"bufferView":11,
			"componentType":5126,
			"count":4,
			"max":[
				1,
				0,
				1
			],
			"min":[
				-1,
				0,
				-1
			],
			"type":"VEC3"
		},
		{
			"bufferView":12,
			"componentType":5126,
			"count":4,
			"type":"VEC3"
		},
		{
			"bufferView":13,
			"componentType":5126,
			"count":4,
			"type":"VEC2"
		}
	],
	"bufferViews":[
		{
			"buffer":0,
			"byteLength":14664,
			"byteOffset":0,
			"target":34962
		},
		{
			"buffer":0,
			"byteLength":14664,
			"byteOffset":14664,
			"target":34962
		},
		{
			"buffer":0,
			"byteLength":4776,
			"byteOffset":29328,
			"target":34963
		},
		{
			"buffer":0,
			"byteLength":43104,
			"byteOffset":34104,
			"target":34962
		},
		{
			"buffer":0,
			"byteLength":43104,
			"byteOffset":77208,
			"target":34962
		},
		{
			"buffer":0,
			"byteLength":28736,
			"byteOffset":120312,
			"target":34962
		},
		{
			"buffer":0,
			"byteLength":21072,
			"byteOffset":149048,
			"target":34963
		},
		{
			"buffer":0,
			"byteLength":48,
			"byteOffset":170120,
			"target":34962
		},
		{
			"buffer":0,
			"byteLength":48,
			"byteOffset":170168,
			"target":34962
		},
		{
			"buffer":0,
			"byteLength":32,
			"byteOffset":170216,
			"target":34962
		},
		{
			"buffer":0,
			"byteLength":12,
			"byteOffset":170248,
			"target":34963
		},
		{
			"buffer":0,
			"byteLength":48,
			"byteOffset":170260,
			"target":34962
		},
		{
			"buffer":0,
			"byteLength":48,
			"byteOffset":170308,
			"target":34962
		},
		{
			"buffer":0,
			"byteLength":32,
			"byteOffset":170356,
			"target":34962
		}
	],
	"buffers":[
		{
			"byteLength":170388,
			"uri":"mitochondria.bin"
		}
	]
}
