{
	"asset":{
		"generator":"Khronos glTF Blender I/O v3.6.27",
		"version":"2.0"
	},
	"scene":0,
	"scenes":[
		{
			"name":"Scene",
			"nodes":[
				0,
				1,
				2,
				3
			]
		}
	],
	"nodes":[
		{
			"mesh":0,
			"name":"Icosphere.001",
			"rotation":[
				0.006070777308195829,
				-0.6961029171943665,
				0.005335946101695299,
				0.7178965210914612
			],
			"scale":[
				0.4119681417942047,
				0.3453134298324585,
				0.3828320801258087
			],
			"translation":[
				2.884033441543579,
				1.8081037998199463,
				-0.7454531192779541
			]
		},
		{
			"mesh":1,
			"name":"Text.010",
			"rotation":[
				0.7071066498756409,
				0.0005109042976982892,
				-0.0005109042976982892,
				0.7071066498756409
			],
			"scale":[
				0.23909412324428558,
				0.9138297438621521,
				0.25816208124160767
			],
			"translation":[
				2.9127230644226074,
				2.4324724674224854,
				-0.3146234154701233
			]
		},
		{
			"mesh":2,
			"name":"Plane.008",
			"rotation":[
				-0.5003611445426941,
				0.5003611445426941,
				-0.4996385872364044,
				0.4996386766433716
			],
			"scale":[
				0.12148328870534897,
				1,
				0.6671497225761414
			],
			"translation":[
				3.303093433380127,
				2.517932176589966,
				-0.32344919443130493
			]
		},
		{
			"mesh":3,
			"name":"Plane.035",
			"rotation":[
				-0.06465466320514679,
				-0.9182500243186951,
				0.38263818621635437,
				0.07889705896377563
			],
			"scale":[
				-0.010036180727183819,
				-0.9812341332435608,
				-0.37272337079048157
			],
			"translation":[
				3.1392273902893066,
				2.219216823577881,
				-0.5247000455856323
			]
		}
	],
	"materials":[
		{
			"doubleSided":true,
			"name":"Nucleus Shell",
			"pbrMetallicRoughness":{
				"baseColorFactor":[
					0.40371501445770264,
					0.8012509942054749,
					0.38454049825668335,
					1
				],
				"metallicFactor":0,
				"roughnessFactor":0
			}
		},
		{
			"doubleSided":true,
			"name":"Material.040",
			"pbrMetallicRoughness":{
				"baseColorFactor":[
					0,
					0,
					0,
					1
				],
				"metallicFactor":0,
				"roughnessFactor":0.5
			}
		},
		{
			"doubleSided":true,
			"name":"Material.012",
			"pbrMetallicRoughness":{
				"baseColorFactor":[
					0.800000011920929,
					0.800000011920929,
					0.800000011920929,
					1
				],
				"metallicFactor":0,
				"roughnessFactor":0.5
			}
		},
		{
			"doubleSided":true,
			"name":"Material.065",
			"pbrMetallicRoughness":{
				"baseColorFactor":[
					0,
					0,
					0,
					1
				],
				"metallicFactor":0,
				"roughnessFactor":0.5
			}
		}
	],
	"meshes":[
		{
			"name":"Icosphere.001",
			"primitives":[
				{
					"attributes":{
						"POSITION":0,
						"NORMAL":1
					},
					"indices":2,
					"material":0
				}
			]
		},
		{
			"name":"Text.024",
			"primitives":[
				{
					"attributes":{
						"POSITION":3,
						"NORMAL":4,
						"TEXCOORD_0":5
					},
					"indices":6,
					"material":1
				}
			]
		},
		{
			"name":"Plane.022",
			"primitives":[
				{
					"attributes":{
						"POSITION":7,
						"NORMAL":8,
						"TEXCOORD_0":9
					},
					"indices":10,
					"material":2
				}
			]
		},
		{
			"name":"Plane.035",
			"primitives":[
				{
					"attributes":{
						"POSITION":11,
						"NORMAL":12,
						"TEXCOORD_0":13
					},
					"indices":10,
					"material":3
				}
			]
		}
	],
	"accessors":[
		{
			"bufferView":0,
			"componentType":5126,
			"count":2190,
			"max":[
				0.9510578513145447,
				1,
				0.9999999403953552
			],
			"min":[
				-1.0628103017807007,
				-1.0078006982803345,
				-0.9999999403953552
			],
			"type":"VEC3"
		},
		{
			"bufferView":1,
			"componentType":5126,
			"count":2190,
			"type":"VEC3"
		},
		{
			"bufferView":2,
			"componentType":5123,
			"count":3096,
			"type":"SCALAR"
		},
		{
			"bufferView":3,
			"componentType":5126,
			"count":1844,
			"max":[
				3.26200008392334,
				0.020000001415610313,
				0.009000000543892384
			],
			"min":[
				0.07400000095367432,
				-0.020000001415610313,
				-0.6820000410079956
			],
			"type":"VEC3"
		},
		{
			"bufferView":4,
			"componentType":5126,
			"count":1844,
			"type":"VEC3"
		},
		{
			"bufferView":5,
			"componentType":5126,
			"count":1844,
			"type":"VEC2"
		},
		{
			"bufferView":6,
			"componentType":5123,
			"count":5412,
			"type":"SCALAR"
		},
		{
			"bufferView":7,
			"componentType":5126,
			"count":4,
			"max":[
				1,
				0,
				1
			],
			"min":[
				-1,
				0,
				-1
			],
			"type":"VEC3"
		},
		{
			"bufferView":8,
			"componentType":5126,
			"count":4,
			"type":"VEC3"
		},
		{
			"bufferView":9,
			"componentType":5126,
			"count":4,
			"type":"VEC2"
		},
		{
			"bufferView":10,
			"componentType":5123,
			"count":6,
			"type":"SCALAR"
		},
		{
			"bufferView":11,
			"componentType":5126,
			"count":4,
			"max":[
				1,
				0,
				1
			],
			"min":[
				-1,
				0,
				-1
			],
			"type":"VEC3"
		},
		{
			"bufferView":12,
			"componentType":5126,
			"count":4,
			"type":"VEC3"
		},
		{
			"bufferView":13,
			"componentType":5126,
			"count":4,
			"type":"VEC2"
		}
	],
	"bufferViews":[
		{
			"buffer":0,
			"byteLength":26280,
			"byteOffset":0,
			"target":34962
		},
		{
			"buffer":0,
			"byteLength":26280,
			"byteOffset":26280,
			"target":34962
		},
		{
			"buffer":0,
			"byteLength":6192,
			"byteOffset":52560,
			"target":34963
		},
		{
			"buffer":0,
			"byteLength":22128,
			"byteOffset":58752,
			"target":34962
		},
		{
			"buffer":0,
			"byteLength":22128,
			"byteOffset":80880,
			"target":34962
		},
		{
			"buffer":0,
			"byteLength":14752,
			"byteOffset":103008,
			"target":34962
		},
		{
			"buffer":0,
			"byteLength":10824,
			"byteOffset":117760,
			"target":34963
		},
		{
			"buffer":0,
			"byteLength":48,
			"byteOffset":128584,
			"target":34962
		},
		{
			"buffer":0,
			"byteLength":48,
			"byteOffset":128632,
			"target":34962
		},
		{
			"buffer":0,
			"byteLength":32,
			"byteOffset":128680,
			"target":34962
		},
		{
			"buffer":0,
			"byteLength":12,
			"byteOffset":128712,
			"target":34963
		},
		{
			"buffer":0,
			"byteLength":48,
			"byteOffset":128724,
			"target":34962
		},
		{
			"buffer":0,
			"byteLength":48,
			"byteOffset":128772,
			"target":34962
		},
		{
			"buffer":0,
			"byteLength":32,
			"byteOffset":128820,
			"target":34962
		}
	],
	"buffers":[
		{
			"byteLength":128852,
			"uri":"nucleus.bin"
		}
	]
}
