{
	"asset":{
		"generator":"Khronos glTF Blender I/O v3.6.27",
		"version":"2.0"
	},
	"scene":0,
	"scenes":[
		{
			"name":"Scene",
			"nodes":[
				0,
				1,
				2,
				3
			]
		}
	],
	"nodes":[
		{
			"mesh":0,
			"name":"Text.021",
			"rotation":[
				0.7071066498756409,
				0.0005109042976982892,
				-0.0005109042976982892,
				0.7071066498756409
			],
			"scale":[
				0.1881776750087738,
				0.9138297438621521,
				0.25816208124160767
			],
			"translation":[
				2.4149651527404785,
				3.410229206085205,
				-0.902045726776123
			]
		},
		{
			"mesh":1,
			"name":"Plane.013",
			"rotation":[
				0.05257381498813629,
				-0.8143039345741272,
				0.5761504769325256,
				0.04685860127210617
			],
			"scale":[
				-0.008671725168824196,
				-1.0154986381530762,
				-0.20190441608428955
			],
			"translation":[
				2.834502696990967,
				3.2188549041748047,
				-0.9088332056999207
			]
		},
		{
			"mesh":2,
			"name":"Plane.039",
			"rotation":[
				-0.5003611445426941,
				0.5003611445426941,
				-0.4996385872364044,
				0.4996386766433716
			],
			"scale":[
				0.12148328870534897,
				1,
				0.6671497225761414
			],
			"translation":[
				2.7812891006469727,
				3.4956889152526855,
				-0.910794734954834
			]
		},
		{
			"mesh":3,
			"name":"Piedras_Rojas.001",
			"rotation":[
				0,
				0.7076175212860107,
				0,
				0.7065957188606262
			],
			"scale":[
				0.04777604341506958,
				0.04777604714035988,
				0.04777604341506958
			],
			"translation":[
				2.530825138092041,
				2.1519603729248047,
				-0.5778586864471436
			]
		}
	],
	"materials":[
		{
			"doubleSided":true,
			"name":"Material.048",
			"pbrMetallicRoughness":{
				"baseColorFactor":[
					0,
					0,
					0,
					1
				],
				"metallicFactor":0,
				"roughnessFactor":0.5
			}
		},
		{
			"doubleSided":true,
			"name":"Material.069",
			"pbrMetallicRoughness":{
				"baseColorFactor":[
					0,
					0,
					0,
					1
				],
				"metallicFactor":0,
				"roughnessFactor":0.5
			}
		},
		{
			"doubleSided":true,
			"name":"Material.070",
			"pbrMetallicRoughness":{
				"baseColorFactor":[
					0.800000011920929,
					0.800000011920929,
					0.800000011920929,
					1
				],
				"metallicFactor":0,
				"roughnessFactor":0.5
			}
		},
		{
			"doubleSided":true,
			"name":"Rojas.001",
			"pbrMetallicRoughness":{
				"baseColorFactor":[
					0.8000074625015259,
					0.009554783813655376,
					0.0711916908621788,
					1
				],
				"metallicFactor":0,
				"roughnessFactor":0
			}
		}
	],
	"meshes":[
		{
			"name":"Text.008",
			"primitives":[
				{
					"attributes":{
						"POSITION":0,
						"NORMAL":1,
						"TEXCOORD_0":2
					},
					"indices":3,
					"material":0
				}
			]
		},
		{
			"name":"Plane.039",
			"primitives":[
				{
					"attributes":{
						"POSITION":4,
						"NORMAL":5,
						"TEXCOORD_0":6
					},
					"indices":7,
					"material":1
				}
			]
		},
		{
			"name":"Plane.040",
			"primitives":[
				{
					"attributes":{
						"POSITION":8,
						"NORMAL":9,
						"TEXCOORD_0":10
					},
					"indices":7,
					"material":2
				}
			]
		},
		{
			"name":"Sphere.001",
			"primitives":[
				{
					"attributes":{
						"POSITION":11,
						"NORMAL":12
					},
					"indices":13,
					"material":3
				}
			]
		}
	],
	"accessors":[
		{
			"bufferView":0,
			"componentType":5126,
			"count":3678,
			"max":[
				4.407000541687012,
				0.020000001415610313,
				0.009000000543892384
			],
			"min":[
				0.07700000703334808,
				-0.020000001415610313,
				-0.6820000410079956
			],
			"type":"VEC3"
		},
		{
			"bufferView":1,
			"componentType":5126,
			"count":3678,
			"type":"VEC3"
		},
		{
			"bufferView":2,
			"componentType":5126,
			"count":3678,
			"type":"VEC2"
		},
		{
			"bufferView":3,
			"componentType":5123,
			"count":10884,
			"type":"SCALAR"
		},
		{
			"bufferView":4,
			"componentType":5126,
			"count":4,
			"max":[
				1,
				0,
				1
			],
			"min":[
				-1,
				0,
				-1
			],
			"type":"VEC3"
		},
		{
			"bufferView":5,
			"componentType":5126,
			"count":4,
			"type":"VEC3"
		},
		{
			"bufferView":6,
			"componentType":5126,
			"count":4,
			"type":"VEC2"
		},
		{
			"bufferView":7,
			"componentType":5123,
			"count":6,
			"type":"SCALAR"
		},
		{
			"bufferView":8,
			"componentType":5126,
			"count":4,
			"max":[
				1,
				0,
				1
			],
			"min":[
				-1,
				0,
				-1
			],
			"type":"VEC3"
		},
		{
			"bufferView":9,
			"componentType":5126,
			"count":4,
			"type":"VEC3"
		},
		{
			"bufferView":10,
			"componentType":5126,
			"count":4,
			"type":"VEC2"
		},
		{
			"bufferView":11,
			"componentType":5126,
			"count":116,
			"max":[
				8.56157112121582,
				20.43036651611328,
				7.525706768035889
			],
			"min":[
				-0.9999996423721313,
				-1,
				-0.9999998211860657
			],
			"type":"VEC3"
		},
		{
			"bufferView":12,
			"componentType":5126,
			"count":116,
			"type":"VEC3"
		},
		{
			"bufferView":13,
			"componentType":5123,
			"count":672,
			"type":"SCALAR"
		}
	],
	"bufferViews":[
		{
			"buffer":0,
			"byteLength":44136,
			"byteOffset":0,
			"target":34962
		},
		{
			"buffer":0,
			"byteLength":44136,
			"byteOffset":44136,
			"target":34962
		},
		{
			"buffer":0,
			"byteLength":29424,
			"byteOffset":88272,
			"target":34962
		},
		{
			"buffer":0,
			"byteLength":21768,
			"byteOffset":117696,
			"target":34963
		},
		{
			"buffer":0,
			"byteLength":48,
			"byteOffset":139464,
			"target":34962
		},
		{
			"buffer":0,
			"byteLength":48,
			"byteOffset":139512,
			"target":34962
		},
		{
			"buffer":0,
			"byteLength":32,
			"byteOffset":139560,
			"target":34962
		},
		{
			"buffer":0,
			"byteLength":12,
			"byteOffset":139592,
			"target":34963
		},
		{
			"buffer":0,
			"byteLength":48,
			"byteOffset":139604,
			"target":34962
		},
		{
			"buffer":0,
			"byteLength":48,
			"byteOffset":139652,
			"target":34962
		},
		{
			"buffer":0,
			"byteLength":32,
			"byteOffset":139700,
			"target":34962
		},
		{
			"buffer":0,
			"byteLength":1392,
			"byteOffset":139732,
			"target":34962
		},
		{
			"buffer":0,
			"byteLength":1392,
			"byteOffset":141124,
			"target":34962
		},
		{
			"buffer":0,
			"byteLength":1344,
			"byteOffset":142516,
			"target":34963
		}
	],
	"buffers":[
		{
			"byteLength":143860,
			"uri":"ribosomes.bin"
		}
	]
}
