{
	"asset":{
		"generator":"Khronos glTF Blender I/O v3.6.27",
		"version":"2.0"
	},
	"scene":0,
	"scenes":[
		{
			"name":"Scene",
			"nodes":[
				0,
				1,
				2,
				3
			]
		}
	],
	"nodes":[
		{
			"mesh":0,
			"name":"Icosphere.008",
			"rotation":[
				0.006070778239518404,
				-0.6961029171943665,
				0.005335946101695299,
				0.7178965210914612
			],
			"scale":[
				0.30515944957733154,
				0.27810654044151306,
				0.23392514884471893
			],
			"translation":[
				3.7123568058013916,
				2.738162040710449,
				-1.11208176612854
			]
		},
		{
			"mesh":1,
			"name":"Text.016",
			"rotation":[
				0.7071066498756409,
				0.0005109042976982892,
				-0.0005109042976982892,
				0.7071066498756409
			],
			"scale":[
				0.1881776750087738,
				0.9138297438621521,
				0.25816208124160767
			],
			"translation":[
				3.2902910709381104,
				3.991455078125,
				-0.870020866394043
			]
		},
		{
			"mesh":2,
			"name":"Plane.016",
			"rotation":[
				-0.5003611445426941,
				0.5003611445426941,
				-0.4996385872364044,
				0.4996386766433716
			],
			"scale":[
				0.12148328870534897,
				1,
				0.6671497225761414
			],
			"translation":[
				3.6273391246795654,
				4.0769147872924805,
				-0.8787698745727539
			]
		},
		{
			"mesh":3,
			"name":"Plane.032",
			"rotation":[
				0.03908979520201683,
				-0.6227796673774719,
				0.7792909741401672,
				0.05764635279774666
			],
			"scale":[
				-0.010036786086857319,
				-0.9998879432678223,
				-0.6994550824165344
			],
			"translation":[
				3.6967391967773438,
				3.331660747528076,
				-1.0890905857086182
			]
		}
	],
	"materials":[
		{
			"doubleSided":true,
			"name":"Material.029",
			"pbrMetallicRoughness":{
				"baseColorFactor":[
					0,
					0.8001017570495605,
					0.00047406007070094347,
					1
				],
				"metallicFactor":0,
				"roughnessFactor":0.5
			}
		},
		{
			"doubleSided":true,
			"name":"Material.033",
			"pbrMetallicRoughness":{
				"baseColorFactor":[
					0,
					0,
					0,
					1
				],
				"metallicFactor":0,
				"roughnessFactor":0.5
			}
		},
		{
			"doubleSided":true,
			"name":"Material.021",
			"pbrMetallicRoughness":{
				"baseColorFactor":[
					0.800000011920929,
					0.800000011920929,
					0.800000011920929,
					1
				],
				"metallicFactor":0,
				"roughnessFactor":0.5
			}
		},
		{
			"doubleSided":true,
			"name":"Material.062",
			"pbrMetallicRoughness":{
				"baseColorFactor":[
					0,
					0,
					0,
					1
				],
				"metallicFactor":0,
				"roughnessFactor":0.5
			}
		}
	],
	"meshes":[
		{
			"name":"Icosphere.009",
			"primitives":[
				{
					"attributes":{
						"POSITION":0,
						"NORMAL":1
					},
					"indices":2,
					"material":0
				}
			]
		},
		{
			"name":"Text.017",
			"primitives":[
				{
					"attributes":{
						"POSITION":3,
						"NORMAL":4,
						"TEXCOORD_0":5
					},
					"indices":6,
					"material":1
				}
			]
		},
		{
			"name":"Plane.017",
			"primitives":[
				{
					"attributes":{
						"POSITION":7,
						"NORMAL":8,
						"TEXCOORD_0":9
					},
					"indices":10,
					"material":2
				}
			]
		},
		{
			"name":"Plane.032",
			"primitives":[
				{
					"attributes":{
						"POSITION":11,
						"NORMAL":12,
						"TEXCOORD_0":13
					},
					"indices":10,
					"material":3
				}
			]
		}
	],
	"accessors":[
		{
			"bufferView":0,
			"componentType":5126,
			"count":240,
			"max":[
				0.9510578513145447,
				1,
				0.9999999403953552
			],
			"min":[
				-0.9510578513145447,
				-1,
				-0.9999999403953552
			],
			"type":"VEC3"
		},
		{
			"bufferView":1,
			"componentType":5126,
			"count":240,
			"type":"VEC3"
		},
		{
			"bufferView":2,
			"componentType":5123,
			"count":240,
			"type":"SCALAR"
		},
		{
			"bufferView":3,
			"componentType":5126,
			"count":2156,
			"max":[
				3.186000347137451,
				0.020000001415610313,
				0.009000000543892384
			],
			"min":[
				0,
				-0.020000001415610313,
				-0.6820000410079956
			],
			"type":"VEC3"
		},
		{
			"bufferView":4,
			"componentType":5126,
			"count":2156,
			"type":"VEC3"
		},
		{
			"bufferView":5,
			"componentType":5126,
			"count":2156,
			"type":"VEC2"
		},
		{
			"bufferView":6,
			"componentType":5123,
			"count":6360,
			"type":"SCALAR"
		},
		{
			"bufferView":7,
			"componentType":5126,
			"count":4,
			"max":[
				1,
				0,
				1
			],
			"min":[
				-1,
				0,
				-1
			],
			"type":"VEC3"
		},
		{
			"bufferView":8,
			"componentType":5126,
			"count":4,
			"type":"VEC3"
		},
		{
			"bufferView":9,
			"componentType":5126,
			"count":4,
			"type":"VEC2"
		},
		{
			"bufferView":10,
			"componentType":5123,
			"count":6,
			"type":"SCALAR"
		},
		{
			"bufferView":11,
			"componentType":5126,
			"count":4,
			"max":[
				1,
				0,
				1
			],
			"min":[
				-1,
				0,
				-1
			],
			"type":"VEC3"
		},
		{
			"bufferView":12,
			"componentType":5126,
			"count":4,
			"type":"VEC3"
		},
		{
			"bufferView":13,
			"componentType":5126,
			"count":4,
			"type":"VEC2"
		}
	],
	"bufferViews":[
		{
			"buffer":0,
			"byteLength":2880,
			"byteOffset":0,
			"target":34962
		},
		{
			"buffer":0,
			"byteLength":2880,
			"byteOffset":2880,
			"target":34962
		},
		{
			"buffer":0,
			"byteLength":480,
			"byteOffset":5760,
			"target":34963
		},
		{
			"buffer":0,
			"byteLength":25872,
			"byteOffset":6240,
			"target":34962
		},
		{
			"buffer":0,
			"byteLength":25872,
			"byteOffset":32112,
			"target":34962
		},
		{
			"buffer":0,
			"byteLength":17248,
			"byteOffset":57984,
			"target":34962
		},
		{
			"buffer":0,
			"byteLength":12720,
			"byteOffset":75232,
			"target":34963
		},
		{
			"buffer":0,
			"byteLength":48,
			"byteOffset":87952,
			"target":34962
		},
		{
			"buffer":0,
			"byteLength":48,
			"byteOffset":88000,
			"target":34962
		},
		{
			"buffer":0,
			"byteLength":32,
			"byteOffset":88048,
			"target":34962
		},
		{
			"buffer":0,
			"byteLength":12,
			"byteOffset":88080,
			"target":34963
		},
		{
			"buffer":0,
			"byteLength":48,
			"byteOffset":88092,
			"target":34962
		},
		{
			"buffer":0,
			"byteLength":48,
			"byteOffset":88140,
			"target":34962
		},
		{
			"buffer":0,
			"byteLength":32,
			"byteOffset":88188,
			"target":34962
		}
	],
	"buffers":[
		{
			"byteLength":88220,
			"uri":"vacuole.bin"
		}
	]
}
