{
	"asset":{
		"generator":"Khronos glTF Blender I/O v3.6.27",
		"version":"2.0"
	},
	"scene":0,
	"scenes":[
		{
			"name":"Scene",
			"nodes":[
				0,
				1,
				2
			]
		}
	],
	"nodes":[
		{
			"mesh":0,
			"name":"Text.021",
			"rotation":[
				0.7071066498756409,
				0.0005109042976982892,
				-0.0005109043559059501,
				0.7071066498756409
			],
			"scale":[
				0.4343431890010834,
				0.9138297438621521,
				0.43434321880340576
			],
			"translation":[
				-11.922831535339355,
				12.27486801147461,
				-2.2497689723968506
			]
		},
		{
			"mesh":1,
			"name":"Text.022",
			"rotation":[
				0.7071066498756409,
				0.0005109042976982892,
				-0.0005109043559059501,
				0.7071066498756409
			],
			"scale":[
				0.4343431890010834,
				0.9138297438621521,
				0.43434321880340576
			],
			"translation":[
				7.549258232116699,
				12.543218612670898,
				-2.2497689723968506
			]
		},
		{
			"mesh":2,
			"name":"Text.023",
			"rotation":[
				0.7071066498756409,
				0.0005109042976982892,
				-0.0005109043559059501,
				0.7071066498756409
			],
			"scale":[
				0.4343431890010834,
				0.9138297438621521,
				0.43434321880340576
			],
			"translation":[
				-0.615732729434967,
				12.393013954162598,
				-2.2497689723968506
			]
		}
	],
	"materials":[
		{
			"doubleSided":true,
			"name":"Material.069",
			"pbrMetallicRoughness":{
				"metallicFactor":0,
				"roughnessFactor":0.5
			}
		},
		{
			"doubleSided":true,
			"name":"Material.070",
			"pbrMetallicRoughness":{
				"metallicFactor":0,
				"roughnessFactor":0.5
			}
		},
		{
			"doubleSided":true,
			"name":"Material.071",
			"pbrMetallicRoughness":{
				"metallicFactor":0,
				"roughnessFactor":0.5
			}
		}
	],
	"meshes":[
		{
			"name":"Text.008",
			"primitives":[
				{
					"attributes":{
						"POSITION":0,
						"NORMAL":1,
						"TEXCOORD_0":2
					},
					"indices":3,
					"material":0
				}
			]
		},
		{
			"name":"Text.009",
			"primitives":[
				{
					"attributes":{
						"POSITION":4,
						"NORMAL":5,
						"TEXCOORD_0":6
					},
					"indices":7,
					"material":1
				}
			]
		},
		{
			"name":"Text.010",
			"primitives":[
				{
					"attributes":{
						"POSITION":8,
						"NORMAL":9,
						"TEXCOORD_0":10
					},
					"indices":11,
					"material":2
				}
			]
		}
	],
	"accessors":[
		{
			"bufferView":0,
			"componentType":5126,
			"count":2709,
			"max":[
				14.038000106811523,
				0.020000001415610313,
				0.009000000543892384
			],
			"min":[
				0.07000000029802322,
				-0.020000001415610313,
				-0.6910000443458557
			],
			"type":"VEC3"
		},
		{
			"bufferView":1,
			"componentType":5126,
			"count":2709,
			"type":"VEC3"
		},
		{
			"bufferView":2,
			"componentType":5126,
			"count":2709,
			"type":"VEC2"
		},
		{
			"bufferView":3,
			"componentType":5123,
			"count":7740,
			"type":"SCALAR"
		},
		{
			"bufferView":4,
			"componentType":5126,
			"count":2572,
			"max":[
				14.621999740600586,
				0.020000001415610313,
				0.009000000543892384
			],
			"min":[
				0.07000000029802322,
				-0.020000001415610313,
				-0.6910000443458557
			],
			"type":"VEC3"
		},
		{
			"bufferView":5,
			"componentType":5126,
			"count":2572,
			"type":"VEC3"
		},
		{
			"bufferView":6,
			"componentType":5126,
			"count":2572,
			"type":"VEC2"
		},
		{
			"bufferView":7,
			"componentType":5123,
			"count":7320,
			"type":"SCALAR"
		},
		{
			"bufferView":8,
			"componentType":5126,
			"count":1656,
			"max":[
				5.53000020980835,
				0.020000001415610313,
				0.009000000543892384
			],
			"min":[
				0.04000000283122063,
				-0.020000001415610313,
				-0.6910000443458557
			],
			"type":"VEC3"
		},
		{
			"bufferView":9,
			"componentType":5126,
			"count":1656,
			"type":"VEC3"
		},
		{
			"bufferView":10,
			"componentType":5126,
			"count":1656,
			"type":"VEC2"
		},
		{
			"bufferView":11,
			"componentType":5123,
			"count":4752,
			"type":"SCALAR"
		}
	],
	"bufferViews":[
		{
			"buffer":0,
			"byteLength":32508,
			"byteOffset":0,
			"target":34962
		},
		{
			"buffer":0,
			"byteLength":32508,
			"byteOffset":32508,
			"target":34962
		},
		{
			"buffer":0,
			"byteLength":21672,
			"byteOffset":65016,
			"target":34962
		},
		{
			"buffer":0,
			"byteLength":15480,
			"byteOffset":86688,
			"target":34963
		},
		{
			"buffer":0,
			"byteLength":30864,
			"byteOffset":102168,
			"target":34962
		},
		{
			"buffer":0,
			"byteLength":30864,
			"byteOffset":133032,
			"target":34962
		},
		{
			"buffer":0,
			"byteLength":20576,
			"byteOffset":163896,
			"target":34962
		},
		{
			"buffer":0,
			"byteLength":14640,
			"byteOffset":184472,
			"target":34963
		},
		{
			"buffer":0,
			"byteLength":19872,
			"byteOffset":199112,
			"target":34962
		},
		{
			"buffer":0,
			"byteLength":19872,
			"byteOffset":218984,
			"target":34962
		},
		{
			"buffer":0,
			"byteLength":13248,
			"byteOffset":238856,
			"target":34962
		},
		{
			"buffer":0,
			"byteLength":9504,
			"byteOffset":252104,
			"target":34963
		}
	],
	"buffers":[
		{
			"byteLength":261608,
			"uri":"venn%20diagram%20text.bin"
		}
	]
}
