{
	"asset":{
		"generator":"Khronos glTF Blender I/O v3.6.27",
		"version":"2.0"
	},
	"scene":0,
	"scenes":[
		{
			"name":"Scene",
			"nodes":[
				0,
				1,
				2
			]
		}
	],
	"nodes":[
		{
			"mesh":0,
			"name":"Cube.005",
			"scale":[
				1.5545059442520142,
				0.38192975521087646,
				0.10566527396440506
			],
			"translation":[
				3.912264347076416,
				1.5189495086669922,
				8.32217788696289
			]
		},
		{
			"mesh":1,
			"name":"Text.005",
			"rotation":[
				0.6846909523010254,
				0.008405092172324657,
				-0.017569582909345627,
				0.7285733222961426
			],
			"scale":[
				0.26361507177352905,
				0.09235487878322601,
				0.2633172273635864
			],
			"translation":[
				3.9975380897521973,
				1.4278903007507324,
				8.562432289123535
			]
		},
		{
			"mesh":2,
			"name":"spermmy",
			"rotation":[
				0.6830007433891296,
				0,
				0,
				0.7304176688194275
			],
			"scale":[
				2.215426445007324,
				2.2154266834259033,
				2.2154266834259033
			],
			"translation":[
				3.904231548309326,
				2.803354263305664,
				8.315553665161133
			]
		}
	],
	"materials":[
		{
			"doubleSided":true,
			"name":"Material.002",
			"pbrMetallicRoughness":{
				"baseColorFactor":[
					0,
					0,
					0,
					1
				],
				"metallicFactor":0,
				"roughnessFactor":0.5
			}
		},
		{
			"alphaMode":"BLEND",
			"doubleSided":true,
			"name":"spermmy",
			"pbrMetallicRoughness":{
				"baseColorTexture":{
					"index":0
				},
				"metallicFactor":0,
				"roughnessFactor":0.5
			}
		}
	],
	"meshes":[
		{
			"name":"Cube.005",
			"primitives":[
				{
					"attributes":{
						"POSITION":0,
						"NORMAL":1,
						"TEXCOORD_0":2
					},
					"indices":3,
					"material":0
				}
			]
		},
		{
			"name":"Text.005",
			"primitives":[
				{
					"attributes":{
						"POSITION":4,
						"NORMAL":5,
						"TEXCOORD_0":6
					},
					"indices":7
				}
			]
		},
		{
			"name":"spermmy",
			"primitives":[
				{
					"attributes":{
						"POSITION":8,
						"NORMAL":9,
						"TEXCOORD_0":10
					},
					"indices":11,
					"material":1
				}
			]
		}
	],
	"textures":[
		{
			"sampler":0,
			"source":0
		}
	],
	"images":[
		{
			"mimeType":"image/png",
			"name":"spermmy",
			"uri":"spermmy.png"
		}
	],
	"accessors":[
		{
			"bufferView":0,
			"componentType":5126,
			"count":24,
			"max":[
				1,
				1,
				1
			],
			"min":[
				-1,
				-1,
				-1
			],
			"type":"VEC3"
		},
		{
			"bufferView":1,
			"componentType":5126,
			"count":24,
			"type":"VEC3"
		},
		{
			"bufferView":2,
			"componentType":5126,
			"count":24,
			"type":"VEC2"
		},
		{
			"bufferView":3,
			"componentType":5123,
			"count":36,
			"type":"SCALAR"
		},
		{
			"bufferView":4,
			"componentType":5126,
			"count":3226,
			"max":[
				2.4059998989105225,
				0.029999999329447746,
				0.23000000417232513
			],
			"min":[
				-2.4060001373291016,
				-0.029999999329447746,
				-0.6910000443458557
			],
			"type":"VEC3"
		},
		{
			"bufferView":5,
			"componentType":5126,
			"count":3226,
			"type":"VEC3"
		},
		{
			"bufferView":6,
			"componentType":5126,
			"count":3226,
			"type":"VEC2"
		},
		{
			"bufferView":7,
			"componentType":5123,
			"count":9516,
			"type":"SCALAR"
		},
		{
			"bufferView":8,
			"componentType":5126,
			"count":4,
			"max":[
				0.7142857313156128,
				0,
				0.5
			],
			"min":[
				-0.7142857313156128,
				0,
				-0.5
			],
			"type":"VEC3"
		},
		{
			"bufferView":9,
			"componentType":5126,
			"count":4,
			"type":"VEC3"
		},
		{
			"bufferView":10,
			"componentType":5126,
			"count":4,
			"type":"VEC2"
		},
		{
			"bufferView":11,
			"componentType":5123,
			"count":6,
			"type":"SCALAR"
		}
	],
	"bufferViews":[
		{
			"buffer":0,
			"byteLength":288,
			"byteOffset":0,
			"target":34962
		},
		{
			"buffer":0,
			"byteLength":288,
			"byteOffset":288,
			"target":34962
		},
		{
			"buffer":0,
			"byteLength":192,
			"byteOffset":576,
			"target":34962
		},
		{
			"buffer":0,
			"byteLength":72,
			"byteOffset":768,
			"target":34963
		},
		{
			"buffer":0,
			"byteLength":38712,
			"byteOffset":840,
			"target":34962
		},
		{
			"buffer":0,
			"byteLength":38712,
			"byteOffset":39552,
			"target":34962
		},
		{
			"buffer":0,
			"byteLength":25808,
			"byteOffset":78264,
			"target":34962
		},
		{
			"buffer":0,
			"byteLength":19032,
			"byteOffset":104072,
			"target":34963
		},
		{
			"buffer":0,
			"byteLength":48,
			"byteOffset":123104,
			"target":34962
		},
		{
			"buffer":0,
			"byteLength":48,
			"byteOffset":123152,
			"target":34962
		},
		{
			"buffer":0,
			"byteLength":32,
			"byteOffset":123200,
			"target":34962
		},
		{
			"buffer":0,
			"byteLength":12,
			"byteOffset":123232,
			"target":34963
		}
	],
	"samplers":[
		{
			"magFilter":9729,
			"minFilter":9987,
			"wrapS":33071,
			"wrapT":33071
		}
	],
	"buffers":[
		{
			"byteLength":123244,
			"uri":"spermssss.bin"
		}
	]
}
