{
	"asset":{
		"generator":"Khronos glTF Blender I/O v3.6.27",
		"version":"2.0"
	},
	"extensionsUsed":[
		"KHR_materials_clearcoat"
	],
	"scene":0,
	"scenes":[
		{
			"name":"Scene",
			"nodes":[
				0,
				1,
				2,
				6,
				7,
				8,
				9,
				10
			]
		}
	],
	"nodes":[
		{
			"name":"mouth hair_0",
			"rotation":[
				0,
				0.9839672446250916,
				0.17834918200969696,
				1.4103160594913788e-07
			],
			"scale":[
				0.5291360020637512,
				0.529136061668396,
				0.5291362404823303
			],
			"translation":[
				-4.810969585378189e-06,
				-3.042390823364258,
				1.137300968170166
			]
		},
		{
			"mesh":0,
			"name":"Text.003",
			"rotation":[
				0.6745094060897827,
				0,
				0,
				0.7382662296295166
			],
			"scale":[
				0.5400235652923584,
				0.5400235652923584,
				0.5400235652923584
			],
			"translation":[
				0.8412903547286987,
				0.6942124962806702,
				1.3897278308868408
			]
		},
		{
			"mesh":1,
			"name":"Object_20",
			"rotation":[
				-0.559186577796936,
				0.43279364705085754,
				0.4327937364578247,
				0.5591866374015808
			],
			"scale":[
				0.025338146835565567,
				0.025338131934404373,
				0.02533813938498497
			],
			"translation":[
				1.6215267181396484,
				-0.882411003112793,
				1.3693170547485352
			]
		},
		{
			"mesh":2,
			"name":"Object_16",
			"translation":[
				3.2886332519410644e-06,
				-4.491053914534859e-06,
				0
			]
		},
		{
			"mesh":3,
			"name":"Object_17",
			"translation":[
				3.2886332519410644e-06,
				-4.491053914534859e-06,
				0
			]
		},
		{
			"mesh":4,
			"name":"Object_18.001",
			"translation":[
				3.2886332519410644e-06,
				-4.491053914534859e-06,
				0
			]
		},
		{
			"children":[
				3,
				4,
				5
			],
			"name":"Object_15",
			"rotation":[
				-0.5591865181922913,
				0.43279367685317993,
				0.4327937364578247,
				0.559186577796936
			],
			"scale":[
				0.025338144972920418,
				0.02533813938498497,
				0.025338146835565567
			],
			"translation":[
				3.217569589614868,
				-0.1896415799856186,
				1.6220258474349976
			]
		},
		{
			"mesh":5,
			"name":"Object_6.001",
			"rotation":[
				0.8524765968322754,
				-0.06586349010467529,
				0.5183019042015076,
				0.017573652788996696
			],
			"scale":[
				-0.09418359398841858,
				-0.09418360143899918,
				-0.09418359398841858
			],
			"translation":[
				1.6185122728347778,
				-0.45796436071395874,
				1.6206841468811035
			]
		},
		{
			"mesh":6,
			"name":"Object_6.002",
			"rotation":[
				0.8524765968322754,
				-0.06586349010467529,
				0.5183019042015076,
				0.017573652788996696
			],
			"scale":[
				-0.09418359398841858,
				-0.09418360143899918,
				-0.09418359398841858
			],
			"translation":[
				2.018267869949341,
				-0.7154890298843384,
				1.559262990951538
			]
		},
		{
			"mesh":7,
			"name":"Object_6.003",
			"rotation":[
				0.8524765968322754,
				-0.06586349010467529,
				0.5183019042015076,
				0.017573652788996696
			],
			"scale":[
				-0.09418359398841858,
				-0.09418360143899918,
				-0.09418359398841858
			],
			"translation":[
				2.241908311843872,
				-0.3837171196937561,
				1.8570153713226318
			]
		},
		{
			"mesh":8,
			"name":"Object_6.004",
			"rotation":[
				0.8524765968322754,
				-0.06586349010467529,
				0.5183019042015076,
				0.017573652788996696
			],
			"scale":[
				-0.09418359398841858,
				-0.09418360143899918,
				-0.09418359398841858
			],
			"translation":[
				2.3666610717773438,
				0.0074384212493896484,
				2.1829752922058105
			]
		}
	],
	"materials":[
		{
			"doubleSided":true,
			"extensions":{
				"KHR_materials_clearcoat":{
					"clearcoatFactor":0.550495445728302,
					"clearcoatRoughnessFactor":0.03999999910593033
				}
			},
			"name":"02_-_Default",
			"pbrMetallicRoughness":{
				"baseColorTexture":{
					"index":0
				},
				"metallicFactor":0.6724466681480408,
				"roughnessFactor":0.20000000298023224
			}
		},
		{
			"doubleSided":true,
			"name":"Tooth",
			"pbrMetallicRoughness":{
				"baseColorFactor":[
					0.9019610285758972,
					0.8901960253715515,
					0.8470590114593506,
					1
				],
				"metallicFactor":0,
				"roughnessFactor":0.20000000298023224
			}
		},
		{
			"doubleSided":true,
			"name":"Scene_-_Root",
			"pbrMetallicRoughness":{
				"baseColorFactor":[
					0.04718559607863426,
					0.0845467671751976,
					0.08984075486660004,
					1
				],
				"metallicFactor":0,
				"roughnessFactor":0.6000000238418579
			}
		}
	],
	"meshes":[
		{
			"name":"Text.002",
			"primitives":[
				{
					"attributes":{
						"POSITION":0,
						"NORMAL":1,
						"TEXCOORD_0":2
					},
					"indices":3
				}
			]
		},
		{
			"name":"Object_7",
			"primitives":[
				{
					"attributes":{
						"POSITION":4,
						"NORMAL":5,
						"TEXCOORD_0":6
					},
					"indices":7,
					"material":0
				}
			]
		},
		{
			"name":"Object_4.001",
			"primitives":[
				{
					"attributes":{
						"POSITION":8,
						"NORMAL":9,
						"TEXCOORD_0":10
					},
					"indices":11,
					"material":1
				}
			]
		},
		{
			"name":"Object_5",
			"primitives":[
				{
					"attributes":{
						"POSITION":12,
						"NORMAL":13,
						"TEXCOORD_0":14
					},
					"indices":11,
					"material":1
				}
			]
		},
		{
			"name":"Object_6",
			"primitives":[
				{
					"attributes":{
						"POSITION":15,
						"NORMAL":16,
						"TEXCOORD_0":17
					},
					"indices":18,
					"material":1
				}
			]
		},
		{
			"name":"Object_1.005",
			"primitives":[
				{
					"attributes":{
						"POSITION":19,
						"NORMAL":20,
						"TEXCOORD_0":21
					},
					"indices":22,
					"material":2
				}
			]
		},
		{
			"name":"Object_1.001",
			"primitives":[
				{
					"attributes":{
						"POSITION":23,
						"NORMAL":24,
						"TEXCOORD_0":25
					},
					"indices":22,
					"material":2
				}
			]
		},
		{
			"name":"Object_1.004",
			"primitives":[
				{
					"attributes":{
						"POSITION":26,
						"NORMAL":27,
						"TEXCOORD_0":28
					},
					"indices":22,
					"material":2
				}
			]
		},
		{
			"name":"Object_1.006",
			"primitives":[
				{
					"attributes":{
						"POSITION":29,
						"NORMAL":30,
						"TEXCOORD_0":31
					},
					"indices":22,
					"material":2
				}
			]
		}
	],
	"textures":[
		{
			"sampler":0,
			"source":0
		}
	],
	"images":[
		{
			"mimeType":"image/png",
			"name":"02_-_Default_baseColor",
			"uri":"02_-_Default_baseColor.png"
		}
	],
	"accessors":[
		{
			"bufferView":0,
			"componentType":5126,
			"count":1169,
			"max":[
				6.128000259399414,
				0,
				0.009000000543892384
			],
			"min":[
				0.04800000041723251,
				0,
				-0.6910000443458557
			],
			"type":"VEC3"
		},
		{
			"bufferView":1,
			"componentType":5126,
			"count":1169,
			"type":"VEC3"
		},
		{
			"bufferView":2,
			"componentType":5126,
			"count":1169,
			"type":"VEC2"
		},
		{
			"bufferView":3,
			"componentType":5123,
			"count":3447,
			"type":"SCALAR"
		},
		{
			"bufferView":4,
			"componentType":5126,
			"count":60476,
			"max":[
				26.081218719482422,
				79.26780700683594,
				52.48194122314453
			],
			"min":[
				-26.081218719482422,
				-79.45194244384766,
				5.645421981811523
			],
			"type":"VEC3"
		},
		{
			"bufferView":5,
			"componentType":5126,
			"count":60476,
			"type":"VEC3"
		},
		{
			"bufferView":6,
			"componentType":5126,
			"count":60476,
			"type":"VEC2"
		},
		{
			"bufferView":7,
			"componentType":5123,
			"count":60480,
			"type":"SCALAR"
		},
		{
			"bufferView":8,
			"componentType":5126,
			"count":65532,
			"max":[
				-0.177128404378891,
				0.14719873666763306,
				1.5865144729614258
			],
			"min":[
				-12.691871643066406,
				-8.455795288085938,
				-2.41367769241333
			],
			"type":"VEC3"
		},
		{
			"bufferView":9,
			"componentType":5126,
			"count":65532,
			"type":"VEC3"
		},
		{
			"bufferView":10,
			"componentType":5126,
			"count":65532,
			"type":"VEC2"
		},
		{
			"bufferView":11,
			"componentType":5123,
			"count":65532,
			"type":"SCALAR"
		},
		{
			"bufferView":12,
			"componentType":5126,
			"count":65532,
			"max":[
				1.6517869234085083,
				0.16079774498939514,
				1.5865159034729004
			],
			"min":[
				-13.911321640014648,
				-8.59061336517334,
				-2.857558488845825
			],
			"type":"VEC3"
		},
		{
			"bufferView":13,
			"componentType":5126,
			"count":65532,
			"type":"VEC3"
		},
		{
			"bufferView":14,
			"componentType":5126,
			"count":65532,
			"type":"VEC2"
		},
		{
			"bufferView":15,
			"componentType":5126,
			"count":2856,
			"max":[
				-1.5193238258361816,
				-1.3922367095947266,
				1.1933695077896118
			],
			"min":[
				-2.9266536235809326,
				-2.869560956954956,
				0.34428170323371887
			],
			"type":"VEC3"
		},
		{
			"bufferView":16,
			"componentType":5126,
			"count":2856,
			"type":"VEC3"
		},
		{
			"bufferView":17,
			"componentType":5126,
			"count":2856,
			"type":"VEC2"
		},
		{
			"bufferView":18,
			"componentType":5123,
			"count":2856,
			"type":"SCALAR"
		},
		{
			"bufferView":19,
			"componentType":5126,
			"count":932,
			"max":[
				0.5901481509208679,
				1.1351577043533325,
				4.211832523345947
			],
			"min":[
				-0.5901481509208679,
				-0.9074327945709229,
				-0.33727824687957764
			],
			"type":"VEC3"
		},
		{
			"bufferView":20,
			"componentType":5126,
			"count":932,
			"type":"VEC3"
		},
		{
			"bufferView":21,
			"componentType":5126,
			"count":932,
			"type":"VEC2"
		},
		{
			"bufferView":22,
			"componentType":5123,
			"count":3960,
			"type":"SCALAR"
		},
		{
			"bufferView":23,
			"componentType":5126,
			"count":932,
			"max":[
				0.5901481509208679,
				1.1351577043533325,
				4.211832523345947
			],
			"min":[
				-0.5901481509208679,
				-0.9074327945709229,
				-0.33727824687957764
			],
			"type":"VEC3"
		},
		{
			"bufferView":24,
			"componentType":5126,
			"count":932,
			"type":"VEC3"
		},
		{
			"bufferView":25,
			"componentType":5126,
			"count":932,
			"type":"VEC2"
		},
		{
			"bufferView":26,
			"componentType":5126,
			"count":932,
			"max":[
				0.5901481509208679,
				1.1351577043533325,
				4.211832523345947
			],
			"min":[
				-0.5901481509208679,
				-0.9074327945709229,
				-0.33727824687957764
			],
			"type":"VEC3"
		},
		{
			"bufferView":27,
			"componentType":5126,
			"count":932,
			"type":"VEC3"
		},
		{
			"bufferView":28,
			"componentType":5126,
			"count":932,
			"type":"VEC2"
		},
		{
			"bufferView":29,
			"componentType":5126,
			"count":932,
			"max":[
				0.5901481509208679,
				1.1351577043533325,
				4.211832523345947
			],
			"min":[
				-0.5901481509208679,
				-0.9074327945709229,
				-0.33727824687957764
			],
			"type":"VEC3"
		},
		{
			"bufferView":30,
			"componentType":5126,
			"count":932,
			"type":"VEC3"
		},
		{
			"bufferView":31,
			"componentType":5126,
			"count":932,
			"type":"VEC2"
		}
	],
	"bufferViews":[
		{
			"buffer":0,
			"byteLength":14028,
			"byteOffset":0,
			"target":34962
		},
		{
			"buffer":0,
			"byteLength":14028,
			"byteOffset":14028,
			"target":34962
		},
		{
			"buffer":0,
			"byteLength":9352,
			"byteOffset":28056,
			"target":34962
		},
		{
			"buffer":0,
			"byteLength":6894,
			"byteOffset":37408,
			"target":34963
		},
		{
			"buffer":0,
			"byteLength":725712,
			"byteOffset":44304,
			"target":34962
		},
		{
			"buffer":0,
			"byteLength":725712,
			"byteOffset":770016,
			"target":34962
		},
		{
			"buffer":0,
			"byteLength":483808,
			"byteOffset":1495728,
			"target":34962
		},
		{
			"buffer":0,
			"byteLength":120960,
			"byteOffset":1979536,
			"target":34963
		},
		{
			"buffer":0,
			"byteLength":786384,
			"byteOffset":2100496,
			"target":34962
		},
		{
			"buffer":0,
			"byteLength":786384,
			"byteOffset":2886880,
			"target":34962
		},
		{
			"buffer":0,
			"byteLength":524256,
			"byteOffset":3673264,
			"target":34962
		},
		{
			"buffer":0,
			"byteLength":131064,
			"byteOffset":4197520,
			"target":34963
		},
		{
			"buffer":0,
			"byteLength":786384,
			"byteOffset":4328584,
			"target":34962
		},
		{
			"buffer":0,
			"byteLength":786384,
			"byteOffset":5114968,
			"target":34962
		},
		{
			"buffer":0,
			"byteLength":524256,
			"byteOffset":5901352,
			"target":34962
		},
		{
			"buffer":0,
			"byteLength":34272,
			"byteOffset":6425608,
			"target":34962
		},
		{
			"buffer":0,
			"byteLength":34272,
			"byteOffset":6459880,
			"target":34962
		},
		{
			"buffer":0,
			"byteLength":22848,
			"byteOffset":6494152,
			"target":34962
		},
		{
			"buffer":0,
			"byteLength":5712,
			"byteOffset":6517000,
			"target":34963
		},
		{
			"buffer":0,
			"byteLength":11184,
			"byteOffset":6522712,
			"target":34962
		},
		{
			"buffer":0,
			"byteLength":11184,
			"byteOffset":6533896,
			"target":34962
		},
		{
			"buffer":0,
			"byteLength":7456,
			"byteOffset":6545080,
			"target":34962
		},
		{
			"buffer":0,
			"byteLength":7920,
			"byteOffset":6552536,
			"target":34963
		},
		{
			"buffer":0,
			"byteLength":11184,
			"byteOffset":6560456,
			"target":34962
		},
		{
			"buffer":0,
			"byteLength":11184,
			"byteOffset":6571640,
			"target":34962
		},
		{
			"buffer":0,
			"byteLength":7456,
			"byteOffset":6582824,
			"target":34962
		},
		{
			"buffer":0,
			"byteLength":11184,
			"byteOffset":6590280,
			"target":34962
		},
		{
			"buffer":0,
			"byteLength":11184,
			"byteOffset":6601464,
			"target":34962
		},
		{
			"buffer":0,
			"byteLength":7456,
			"byteOffset":6612648,
			"target":34962
		},
		{
			"buffer":0,
			"byteLength":11184,
			"byteOffset":6620104,
			"target":34962
		},
		{
			"buffer":0,
			"byteLength":11184,
			"byteOffset":6631288,
			"target":34962
		},
		{
			"buffer":0,
			"byteLength":7456,
			"byteOffset":6642472,
			"target":34962
		}
	],
	"samplers":[
		{
			"magFilter":9729,
			"minFilter":9987
		}
	],
	"buffers":[
		{
			"byteLength":6649928,
			"uri":"commesalism.bin"
		}
	]
}
