{
	"asset":{
		"generator":"Khronos glTF Blender I/O v3.6.27",
		"version":"2.0"
	},
	"extensionsUsed":[
		"KHR_materials_specular",
		"KHR_materials_ior"
	],
	"scene":0,
	"scenes":[
		{
			"name":"Scene",
			"nodes":[
				0
			]
		}
	],
	"nodes":[
		{
			"mesh":0,
			"name":"mushroom",
			"scale":[
				1.0595191717147827,
				1.0595191717147827,
				1.0595191717147827
			],
			"translation":[
				0,
				-1.7282609939575195,
				-0.4635303020477295
			]
		}
	],
	"materials":[
		{
			"doubleSided":true,
			"extensions":{
				"KHR_materials_specular":{
					"specularColorFactor":[
						0.711407312601205,
						0.711407312601205,
						0.711407312601205
					]
				},
				"KHR_materials_ior":{
					"ior":1.4500000476837158
				}
			},
			"name":"mushroom_material_1",
			"pbrMetallicRoughness":{
				"metallicFactor":0,
				"roughnessFactor":0.4000000059604645
			}
		},
		{
			"doubleSided":true,
			"extensions":{
				"KHR_materials_specular":{
					"specularColorFactor":[
						0.711407312601205,
						0.711407312601205,
						0.711407312601205
					]
				},
				"KHR_materials_ior":{
					"ior":1.4500000476837158
				}
			},
			"name":"mushroom_material_2",
			"pbrMetallicRoughness":{
				"metallicFactor":0,
				"roughnessFactor":0.6000000238418579
			}
		},
		{
			"doubleSided":true,
			"extensions":{
				"KHR_materials_specular":{
					"specularColorFactor":[
						0.711407312601205,
						0.711407312601205,
						0.711407312601205
					]
				},
				"KHR_materials_ior":{
					"ior":1.4500000476837158
				}
			},
			"name":"mushroom_material_3",
			"pbrMetallicRoughness":{
				"metallicFactor":0,
				"roughnessFactor":0.5
			}
		}
	],
	"meshes":[
		{
			"name":"Cube.001",
			"primitives":[
				{
					"attributes":{
						"POSITION":0,
						"NORMAL":1,
						"TEXCOORD_0":2
					},
					"indices":3,
					"material":0
				},
				{
					"attributes":{
						"POSITION":4,
						"NORMAL":5,
						"TEXCOORD_0":6
					},
					"indices":7,
					"material":1
				},
				{
					"attributes":{
						"POSITION":8,
						"NORMAL":9,
						"TEXCOORD_0":10
					},
					"indices":11,
					"material":2
				}
			]
		}
	],
	"accessors":[
		{
			"bufferView":0,
			"componentType":5126,
			"count":247,
			"max":[
				1.0342694520950317,
				2.2920472621917725,
				1.4608980417251587
			],
			"min":[
				-1.0342694520950317,
				-2.116678237915039,
				-1.1977227926254272
			],
			"type":"VEC3"
		},
		{
			"bufferView":1,
			"componentType":5126,
			"count":247,
			"type":"VEC3"
		},
		{
			"bufferView":2,
			"componentType":5126,
			"count":247,
			"type":"VEC2"
		},
		{
			"bufferView":3,
			"componentType":5123,
			"count":1176,
			"type":"SCALAR"
		},
		{
			"bufferView":4,
			"componentType":5126,
			"count":318,
			"max":[
				2.7310075759887695,
				4.679701805114746,
				3.398250102996826
			],
			"min":[
				-2.6996326446533203,
				2.1452059745788574,
				-2.7286434173583984
			],
			"type":"VEC3"
		},
		{
			"bufferView":5,
			"componentType":5126,
			"count":318,
			"type":"VEC3"
		},
		{
			"bufferView":6,
			"componentType":5126,
			"count":318,
			"type":"VEC2"
		},
		{
			"bufferView":7,
			"componentType":5123,
			"count":1224,
			"type":"SCALAR"
		},
		{
			"bufferView":8,
			"componentType":5126,
			"count":335,
			"max":[
				2.7310075759887695,
				3.0486044883728027,
				3.398250102996826
			],
			"min":[
				-2.6996326446533203,
				1.9028027057647705,
				-2.7286434173583984
			],
			"type":"VEC3"
		},
		{
			"bufferView":9,
			"componentType":5126,
			"count":335,
			"type":"VEC3"
		},
		{
			"bufferView":10,
			"componentType":5126,
			"count":335,
			"type":"VEC2"
		},
		{
			"bufferView":11,
			"componentType":5123,
			"count":1260,
			"type":"SCALAR"
		}
	],
	"bufferViews":[
		{
			"buffer":0,
			"byteLength":2964,
			"byteOffset":0,
			"target":34962
		},
		{
			"buffer":0,
			"byteLength":2964,
			"byteOffset":2964,
			"target":34962
		},
		{
			"buffer":0,
			"byteLength":1976,
			"byteOffset":5928,
			"target":34962
		},
		{
			"buffer":0,
			"byteLength":2352,
			"byteOffset":7904,
			"target":34963
		},
		{
			"buffer":0,
			"byteLength":3816,
			"byteOffset":10256,
			"target":34962
		},
		{
			"buffer":0,
			"byteLength":3816,
			"byteOffset":14072,
			"target":34962
		},
		{
			"buffer":0,
			"byteLength":2544,
			"byteOffset":17888,
			"target":34962
		},
		{
			"buffer":0,
			"byteLength":2448,
			"byteOffset":20432,
			"target":34963
		},
		{
			"buffer":0,
			"byteLength":4020,
			"byteOffset":22880,
			"target":34962
		},
		{
			"buffer":0,
			"byteLength":4020,
			"byteOffset":26900,
			"target":34962
		},
		{
			"buffer":0,
			"byteLength":2680,
			"byteOffset":30920,
			"target":34962
		},
		{
			"buffer":0,
			"byteLength":2520,
			"byteOffset":33600,
			"target":34963
		}
	],
	"buffers":[
		{
			"byteLength":36120,
			"uri":"mushroomyy.bin"
		}
	]
}
