{
	"asset":{
		"generator":"Khronos glTF Blender I/O v3.6.27",
		"version":"2.0"
	},
	"scene":0,
	"scenes":[
		{
			"name":"Scene",
			"nodes":[
				0,
				1,
				2,
				3,
				4,
				5,
				6,
				7,
				8,
				9,
				10,
				11,
				12,
				13
			]
		}
	],
	"nodes":[
		{
			"mesh":0,
			"name":"Object_2.003",
			"rotation":[
				-0.70710688829422,
				0,
				0,
				0.7071066498756409
			],
			"scale":[
				0.021388405933976173,
				0.021388405933976173,
				0.021388405933976173
			],
			"translation":[
				3.6408166885375977,
				2.5404324531555176,
				0.4124108552932739
			]
		},
		{
			"mesh":1,
			"name":"Object_2.006",
			"rotation":[
				-0.70710688829422,
				0,
				0,
				0.7071066498756409
			],
			"scale":[
				0.021388405933976173,
				0.021388405933976173,
				0.021388405933976173
			],
			"translation":[
				3.822694778442383,
				2.388930320739746,
				0.4524860084056854
			]
		},
		{
			"mesh":2,
			"name":"Object_2.007",
			"rotation":[
				-0.70710688829422,
				0,
				0,
				0.7071066498756409
			],
			"scale":[
				0.021388405933976173,
				0.021388405933976173,
				0.021388405933976173
			],
			"translation":[
				3.500767707824707,
				2.3765883445739746,
				0.4937269985675812
			]
		},
		{
			"mesh":3,
			"name":"Object_2.008",
			"rotation":[
				-0.70710688829422,
				0,
				0,
				0.7071066498756409
			],
			"scale":[
				0.021388405933976173,
				0.021388405933976173,
				0.021388405933976173
			],
			"translation":[
				3.2543439865112305,
				2.3516480922698975,
				0.3837604224681854
			]
		},
		{
			"mesh":4,
			"name":"Object_2.009",
			"rotation":[
				-0.70710688829422,
				0,
				0,
				0.7071066498756409
			],
			"scale":[
				0.021388405933976173,
				0.021388405933976173,
				0.021388405933976173
			],
			"translation":[
				4.7837910652160645,
				1.9903508424758911,
				0.24744556844234467
			]
		},
		{
			"mesh":5,
			"name":"Object_2.010",
			"rotation":[
				-0.70710688829422,
				0,
				0,
				0.7071066498756409
			],
			"scale":[
				0.021388405933976173,
				0.021388405933976173,
				0.021388405933976173
			],
			"translation":[
				3.8594040870666504,
				2.205780029296875,
				0.3704761564731598
			]
		},
		{
			"mesh":6,
			"name":"Object_2.011",
			"rotation":[
				-0.70710688829422,
				0,
				0,
				0.7071066498756409
			],
			"scale":[
				0.021388405933976173,
				0.021388405933976173,
				0.021388405933976173
			],
			"translation":[
				4.069378852844238,
				2.35434889793396,
				0.2879026234149933
			]
		},
		{
			"mesh":7,
			"name":"Object_2.012",
			"rotation":[
				-0.70710688829422,
				0,
				0,
				0.7071066498756409
			],
			"scale":[
				0.021388405933976173,
				0.021388405933976173,
				0.021388405933976173
			],
			"translation":[
				3.4682488441467285,
				2.1947927474975586,
				0.43524298071861267
			]
		},
		{
			"mesh":8,
			"name":"Object_2.021",
			"rotation":[
				-0.70710688829422,
				0,
				0,
				0.7071066498756409
			],
			"scale":[
				0.021388405933976173,
				0.021388405933976173,
				0.021388405933976173
			],
			"translation":[
				4.965668678283691,
				1.838848352432251,
				0.28752076625823975
			]
		},
		{
			"mesh":9,
			"name":"Object_2.022",
			"rotation":[
				-0.70710688829422,
				0,
				0,
				0.7071066498756409
			],
			"scale":[
				0.021388405933976173,
				0.021388405933976173,
				0.021388405933976173
			],
			"translation":[
				4.643742084503174,
				1.8265066146850586,
				0.3287617564201355
			]
		},
		{
			"mesh":10,
			"name":"Object_2.023",
			"rotation":[
				-0.70710688829422,
				0,
				0,
				0.7071066498756409
			],
			"scale":[
				0.021388405933976173,
				0.021388405933976173,
				0.021388405933976173
			],
			"translation":[
				4.397317886352539,
				1.8015663623809814,
				0.21879518032073975
			]
		},
		{
			"mesh":11,
			"name":"Object_2.024",
			"rotation":[
				-0.70710688829422,
				0,
				0,
				0.7071066498756409
			],
			"scale":[
				0.021388405933976173,
				0.021388405933976173,
				0.021388405933976173
			],
			"translation":[
				5.002378463745117,
				1.6556980609893799,
				0.20551088452339172
			]
		},
		{
			"mesh":12,
			"name":"Object_2.025",
			"rotation":[
				-0.70710688829422,
				0,
				0,
				0.7071066498756409
			],
			"scale":[
				0.021388405933976173,
				0.021388405933976173,
				0.021388405933976173
			],
			"translation":[
				5.212353229522705,
				1.8042669296264648,
				0.12293738126754761
			]
		},
		{
			"mesh":13,
			"name":"Object_2.026",
			"rotation":[
				-0.70710688829422,
				0,
				0,
				0.7071066498756409
			],
			"scale":[
				0.021388405933976173,
				0.021388405933976173,
				0.021388405933976173
			],
			"translation":[
				4.611223220825195,
				1.6447110176086426,
				0.2702777087688446
			]
		}
	],
	"materials":[
		{
			"doubleSided":true,
			"name":"Scene_-_Root",
			"pbrMetallicRoughness":{
				"baseColorFactor":[
					0.949162483215332,
					1,
					0.96172696352005,
					1
				],
				"metallicFactor":0,
				"roughnessFactor":0.6000000238418579
			}
		},
		{
			"doubleSided":true,
			"name":"Material.002",
			"pbrMetallicRoughness":{
				"baseColorFactor":[
					0.800000011920929,
					0.800000011920929,
					0.800000011920929,
					1
				],
				"metallicFactor":0,
				"roughnessFactor":0.5
			}
		}
	],
	"meshes":[
		{
			"name":"Object_0.001",
			"primitives":[
				{
					"attributes":{
						"POSITION":0,
						"NORMAL":1
					},
					"indices":2,
					"material":0
				}
			]
		},
		{
			"name":"Object_0.002",
			"primitives":[
				{
					"attributes":{
						"POSITION":3,
						"NORMAL":4
					},
					"indices":2,
					"material":0
				}
			]
		},
		{
			"name":"Object_0.003",
			"primitives":[
				{
					"attributes":{
						"POSITION":5,
						"NORMAL":6
					},
					"indices":2,
					"material":0
				}
			]
		},
		{
			"name":"Object_0.005",
			"primitives":[
				{
					"attributes":{
						"POSITION":7,
						"NORMAL":8
					},
					"indices":2,
					"material":0
				}
			]
		},
		{
			"name":"Object_0.020",
			"primitives":[
				{
					"attributes":{
						"POSITION":9,
						"NORMAL":10
					},
					"indices":2,
					"material":0
				}
			]
		},
		{
			"name":"Object_0.007",
			"primitives":[
				{
					"attributes":{
						"POSITION":11,
						"NORMAL":12
					},
					"indices":2,
					"material":0
				}
			]
		},
		{
			"name":"Object_0.008",
			"primitives":[
				{
					"attributes":{
						"POSITION":13,
						"NORMAL":14
					},
					"indices":2,
					"material":1
				}
			]
		},
		{
			"name":"Object_0.009",
			"primitives":[
				{
					"attributes":{
						"POSITION":15,
						"NORMAL":16
					},
					"indices":2,
					"material":0
				}
			]
		},
		{
			"name":"Object_0.021",
			"primitives":[
				{
					"attributes":{
						"POSITION":17,
						"NORMAL":18
					},
					"indices":2,
					"material":0
				}
			]
		},
		{
			"name":"Object_0.022",
			"primitives":[
				{
					"attributes":{
						"POSITION":19,
						"NORMAL":20
					},
					"indices":2,
					"material":0
				}
			]
		},
		{
			"name":"Object_0.023",
			"primitives":[
				{
					"attributes":{
						"POSITION":21,
						"NORMAL":22
					},
					"indices":2,
					"material":0
				}
			]
		},
		{
			"name":"Object_0.024",
			"primitives":[
				{
					"attributes":{
						"POSITION":23,
						"NORMAL":24
					},
					"indices":2,
					"material":0
				}
			]
		},
		{
			"name":"Object_0.025",
			"primitives":[
				{
					"attributes":{
						"POSITION":25,
						"NORMAL":26
					},
					"indices":2,
					"material":1
				}
			]
		},
		{
			"name":"Object_0.026",
			"primitives":[
				{
					"attributes":{
						"POSITION":27,
						"NORMAL":28
					},
					"indices":2,
					"material":0
				}
			]
		}
	],
	"accessors":[
		{
			"bufferView":0,
			"componentType":5126,
			"count":2440,
			"max":[
				10.001334190368652,
				10.003618240356445,
				20.002788543701172
			],
			"min":[
				-9.999836921691895,
				-10.003618240356445,
				-0.0021104945335537195
			],
			"type":"VEC3"
		},
		{
			"bufferView":1,
			"componentType":5126,
			"count":2440,
			"type":"VEC3"
		},
		{
			"bufferView":2,
			"componentType":5123,
			"count":14628,
			"type":"SCALAR"
		},
		{
			"bufferView":3,
			"componentType":5126,
			"count":2440,
			"max":[
				10.001334190368652,
				10.003618240356445,
				20.002788543701172
			],
			"min":[
				-9.999836921691895,
				-10.003618240356445,
				-0.0021104945335537195
			],
			"type":"VEC3"
		},
		{
			"bufferView":4,
			"componentType":5126,
			"count":2440,
			"type":"VEC3"
		},
		{
			"bufferView":5,
			"componentType":5126,
			"count":2440,
			"max":[
				10.001334190368652,
				10.003618240356445,
				20.002788543701172
			],
			"min":[
				-9.999836921691895,
				-10.003618240356445,
				-0.0021104945335537195
			],
			"type":"VEC3"
		},
		{
			"bufferView":6,
			"componentType":5126,
			"count":2440,
			"type":"VEC3"
		},
		{
			"bufferView":7,
			"componentType":5126,
			"count":2440,
			"max":[
				10.001334190368652,
				10.003618240356445,
				20.002788543701172
			],
			"min":[
				-9.999836921691895,
				-10.003618240356445,
				-0.0021104945335537195
			],
			"type":"VEC3"
		},
		{
			"bufferView":8,
			"componentType":5126,
			"count":2440,
			"type":"VEC3"
		},
		{
			"bufferView":9,
			"componentType":5126,
			"count":2440,
			"max":[
				10.001334190368652,
				10.003618240356445,
				20.002788543701172
			],
			"min":[
				-9.999836921691895,
				-10.003618240356445,
				-0.0021104945335537195
			],
			"type":"VEC3"
		},
		{
			"bufferView":10,
			"componentType":5126,
			"count":2440,
			"type":"VEC3"
		},
		{
			"bufferView":11,
			"componentType":5126,
			"count":2440,
			"max":[
				10.001334190368652,
				10.003618240356445,
				20.002788543701172
			],
			"min":[
				-9.999836921691895,
				-10.003618240356445,
				-0.0021104945335537195
			],
			"type":"VEC3"
		},
		{
			"bufferView":12,
			"componentType":5126,
			"count":2440,
			"type":"VEC3"
		},
		{
			"bufferView":13,
			"componentType":5126,
			"count":2440,
			"max":[
				10.001334190368652,
				10.003618240356445,
				20.002788543701172
			],
			"min":[
				-9.999836921691895,
				-10.003618240356445,
				-0.0021104945335537195
			],
			"type":"VEC3"
		},
		{
			"bufferView":14,
			"componentType":5126,
			"count":2440,
			"type":"VEC3"
		},
		{
			"bufferView":15,
			"componentType":5126,
			"count":2440,
			"max":[
				10.001334190368652,
				10.003618240356445,
				20.002788543701172
			],
			"min":[
				-9.999836921691895,
				-10.003618240356445,
				-0.0021104945335537195
			],
			"type":"VEC3"
		},
		{
			"bufferView":16,
			"componentType":5126,
			"count":2440,
			"type":"VEC3"
		},
		{
			"bufferView":17,
			"componentType":5126,
			"count":2440,
			"max":[
				10.001334190368652,
				10.003618240356445,
				20.002788543701172
			],
			"min":[
				-9.999836921691895,
				-10.003618240356445,
				-0.0021104945335537195
			],
			"type":"VEC3"
		},
		{
			"bufferView":18,
			"componentType":5126,
			"count":2440,
			"type":"VEC3"
		},
		{
			"bufferView":19,
			"componentType":5126,
			"count":2440,
			"max":[
				10.001334190368652,
				10.003618240356445,
				20.002788543701172
			],
			"min":[
				-9.999836921691895,
				-10.003618240356445,
				-0.0021104945335537195
			],
			"type":"VEC3"
		},
		{
			"bufferView":20,
			"componentType":5126,
			"count":2440,
			"type":"VEC3"
		},
		{
			"bufferView":21,
			"componentType":5126,
			"count":2440,
			"max":[
				10.001334190368652,
				10.003618240356445,
				20.002788543701172
			],
			"min":[
				-9.999836921691895,
				-10.003618240356445,
				-0.0021104945335537195
			],
			"type":"VEC3"
		},
		{
			"bufferView":22,
			"componentType":5126,
			"count":2440,
			"type":"VEC3"
		},
		{
			"bufferView":23,
			"componentType":5126,
			"count":2440,
			"max":[
				10.001334190368652,
				10.003618240356445,
				20.002788543701172
			],
			"min":[
				-9.999836921691895,
				-10.003618240356445,
				-0.0021104945335537195
			],
			"type":"VEC3"
		},
		{
			"bufferView":24,
			"componentType":5126,
			"count":2440,
			"type":"VEC3"
		},
		{
			"bufferView":25,
			"componentType":5126,
			"count":2440,
			"max":[
				10.001334190368652,
				10.003618240356445,
				20.002788543701172
			],
			"min":[
				-9.999836921691895,
				-10.003618240356445,
				-0.0021104945335537195
			],
			"type":"VEC3"
		},
		{
			"bufferView":26,
			"componentType":5126,
			"count":2440,
			"type":"VEC3"
		},
		{
			"bufferView":27,
			"componentType":5126,
			"count":2440,
			"max":[
				10.001334190368652,
				10.003618240356445,
				20.002788543701172
			],
			"min":[
				-9.999836921691895,
				-10.003618240356445,
				-0.0021104945335537195
			],
			"type":"VEC3"
		},
		{
			"bufferView":28,
			"componentType":5126,
			"count":2440,
			"type":"VEC3"
		}
	],
	"bufferViews":[
		{
			"buffer":0,
			"byteLength":29280,
			"byteOffset":0,
			"target":34962
		},
		{
			"buffer":0,
			"byteLength":29280,
			"byteOffset":29280,
			"target":34962
		},
		{
			"buffer":0,
			"byteLength":29256,
			"byteOffset":58560,
			"target":34963
		},
		{
			"buffer":0,
			"byteLength":29280,
			"byteOffset":87816,
			"target":34962
		},
		{
			"buffer":0,
			"byteLength":29280,
			"byteOffset":117096,
			"target":34962
		},
		{
			"buffer":0,
			"byteLength":29280,
			"byteOffset":146376,
			"target":34962
		},
		{
			"buffer":0,
			"byteLength":29280,
			"byteOffset":175656,
			"target":34962
		},
		{
			"buffer":0,
			"byteLength":29280,
			"byteOffset":204936,
			"target":34962
		},
		{
			"buffer":0,
			"byteLength":29280,
			"byteOffset":234216,
			"target":34962
		},
		{
			"buffer":0,
			"byteLength":29280,
			"byteOffset":263496,
			"target":34962
		},
		{
			"buffer":0,
			"byteLength":29280,
			"byteOffset":292776,
			"target":34962
		},
		{
			"buffer":0,
			"byteLength":29280,
			"byteOffset":322056,
			"target":34962
		},
		{
			"buffer":0,
			"byteLength":29280,
			"byteOffset":351336,
			"target":34962
		},
		{
			"buffer":0,
			"byteLength":29280,
			"byteOffset":380616,
			"target":34962
		},
		{
			"buffer":0,
			"byteLength":29280,
			"byteOffset":409896,
			"target":34962
		},
		{
			"buffer":0,
			"byteLength":29280,
			"byteOffset":439176,
			"target":34962
		},
		{
			"buffer":0,
			"byteLength":29280,
			"byteOffset":468456,
			"target":34962
		},
		{
			"buffer":0,
			"byteLength":29280,
			"byteOffset":497736,
			"target":34962
		},
		{
			"buffer":0,
			"byteLength":29280,
			"byteOffset":527016,
			"target":34962
		},
		{
			"buffer":0,
			"byteLength":29280,
			"byteOffset":556296,
			"target":34962
		},
		{
			"buffer":0,
			"byteLength":29280,
			"byteOffset":585576,
			"target":34962
		},
		{
			"buffer":0,
			"byteLength":29280,
			"byteOffset":614856,
			"target":34962
		},
		{
			"buffer":0,
			"byteLength":29280,
			"byteOffset":644136,
			"target":34962
		},
		{
			"buffer":0,
			"byteLength":29280,
			"byteOffset":673416,
			"target":34962
		},
		{
			"buffer":0,
			"byteLength":29280,
			"byteOffset":702696,
			"target":34962
		},
		{
			"buffer":0,
			"byteLength":29280,
			"byteOffset":731976,
			"target":34962
		},
		{
			"buffer":0,
			"byteLength":29280,
			"byteOffset":761256,
			"target":34962
		},
		{
			"buffer":0,
			"byteLength":29280,
			"byteOffset":790536,
			"target":34962
		},
		{
			"buffer":0,
			"byteLength":29280,
			"byteOffset":819816,
			"target":34962
		}
	],
	"buffers":[
		{
			"byteLength":849096,
			"uri":"clouderistss.bin"
		}
	]
}
