{
	"asset":{
		"generator":"Khronos glTF Blender I/O v3.6.27",
		"version":"2.0"
	},
	"scene":0,
	"scenes":[
		{
			"name":"Scene",
			"nodes":[
				0,
				1,
				2,
				3,
				4,
				5,
				6,
				7
			]
		}
	],
	"nodes":[
		{
			"mesh":0,
			"name":"Object_2.003",
			"rotation":[
				-0.70710688829422,
				0,
				0,
				0.7071066498756409
			],
			"scale":[
				0.021388405933976173,
				0.021388405933976173,
				0.021388405933976173
			],
			"translation":[
				3.6408166885375977,
				2.5404324531555176,
				0.4124108552932739
			]
		},
		{
			"mesh":1,
			"name":"Object_2.006",
			"rotation":[
				-0.70710688829422,
				0,
				0,
				0.7071066498756409
			],
			"scale":[
				0.021388405933976173,
				0.021388405933976173,
				0.021388405933976173
			],
			"translation":[
				3.822694778442383,
				2.388930320739746,
				0.4524860084056854
			]
		},
		{
			"mesh":2,
			"name":"Object_2.007",
			"rotation":[
				-0.70710688829422,
				0,
				0,
				0.7071066498756409
			],
			"scale":[
				0.021388405933976173,
				0.021388405933976173,
				0.021388405933976173
			],
			"translation":[
				3.500767707824707,
				2.3765883445739746,
				0.4937269985675812
			]
		},
		{
			"mesh":3,
			"name":"Object_2.008",
			"rotation":[
				-0.70710688829422,
				0,
				0,
				0.7071066498756409
			],
			"scale":[
				0.021388405933976173,
				0.021388405933976173,
				0.021388405933976173
			],
			"translation":[
				3.2543439865112305,
				2.3516480922698975,
				0.3837604224681854
			]
		},
		{
			"mesh":4,
			"name":"Object_2.009",
			"rotation":[
				-0.70710688829422,
				0,
				0,
				0.7071066498756409
			],
			"scale":[
				0.021388405933976173,
				0.021388405933976173,
				0.021388405933976173
			],
			"translation":[
				3.737354278564453,
				2.1462111473083496,
				0.43174487352371216
			]
		},
		{
			"mesh":5,
			"name":"Object_2.010",
			"rotation":[
				-0.70710688829422,
				0,
				0,
				0.7071066498756409
			],
			"scale":[
				0.021388405933976173,
				0.021388405933976173,
				0.021388405933976173
			],
			"translation":[
				4.091358184814453,
				2.205780029296875,
				0.3704761564731598
			]
		},
		{
			"mesh":6,
			"name":"Object_2.011",
			"rotation":[
				-0.70710688829422,
				0,
				0,
				0.7071066498756409
			],
			"scale":[
				0.021388405933976173,
				0.021388405933976173,
				0.021388405933976173
			],
			"translation":[
				4.241501808166504,
				2.35434889793396,
				0.2879026234149933
			]
		},
		{
			"mesh":7,
			"name":"Object_2.012",
			"rotation":[
				-0.70710688829422,
				0,
				0,
				0.7071066498756409
			],
			"scale":[
				0.021388405933976173,
				0.021388405933976173,
				0.021388405933976173
			],
			"translation":[
				3.4682488441467285,
				2.1947927474975586,
				0.43524298071861267
			]
		}
	],
	"materials":[
		{
			"doubleSided":true,
			"name":"Scene_-_Root",
			"pbrMetallicRoughness":{
				"baseColorFactor":[
					0.949162483215332,
					1,
					0.96172696352005,
					1
				],
				"metallicFactor":0,
				"roughnessFactor":0.6000000238418579
			}
		}
	],
	"meshes":[
		{
			"name":"Object_0.001",
			"primitives":[
				{
					"attributes":{
						"POSITION":0,
						"NORMAL":1
					},
					"indices":2,
					"material":0
				}
			]
		},
		{
			"name":"Object_0.002",
			"primitives":[
				{
					"attributes":{
						"POSITION":3,
						"NORMAL":4
					},
					"indices":2,
					"material":0
				}
			]
		},
		{
			"name":"Object_0.003",
			"primitives":[
				{
					"attributes":{
						"POSITION":5,
						"NORMAL":6
					},
					"indices":2,
					"material":0
				}
			]
		},
		{
			"name":"Object_0.005",
			"primitives":[
				{
					"attributes":{
						"POSITION":7,
						"NORMAL":8
					},
					"indices":2,
					"material":0
				}
			]
		},
		{
			"name":"Object_0.006",
			"primitives":[
				{
					"attributes":{
						"POSITION":9,
						"NORMAL":10
					},
					"indices":2,
					"material":0
				}
			]
		},
		{
			"name":"Object_0.007",
			"primitives":[
				{
					"attributes":{
						"POSITION":11,
						"NORMAL":12
					},
					"indices":2,
					"material":0
				}
			]
		},
		{
			"name":"Object_0.008",
			"primitives":[
				{
					"attributes":{
						"POSITION":13,
						"NORMAL":14
					},
					"indices":2,
					"material":0
				}
			]
		},
		{
			"name":"Object_0.009",
			"primitives":[
				{
					"attributes":{
						"POSITION":15,
						"NORMAL":16
					},
					"indices":2,
					"material":0
				}
			]
		}
	],
	"accessors":[
		{
			"bufferView":0,
			"componentType":5126,
			"count":32514,
			"max":[
				10,
				10,
				20
			],
			"min":[
				-10,
				-10,
				0
			],
			"type":"VEC3"
		},
		{
			"bufferView":1,
			"componentType":5126,
			"count":32514,
			"type":"VEC3"
		},
		{
			"bufferView":2,
			"componentType":5123,
			"count":195072,
			"type":"SCALAR"
		},
		{
			"bufferView":3,
			"componentType":5126,
			"count":32514,
			"max":[
				10,
				10,
				20
			],
			"min":[
				-10,
				-10,
				0
			],
			"type":"VEC3"
		},
		{
			"bufferView":4,
			"componentType":5126,
			"count":32514,
			"type":"VEC3"
		},
		{
			"bufferView":5,
			"componentType":5126,
			"count":32514,
			"max":[
				10,
				10,
				20
			],
			"min":[
				-10,
				-10,
				0
			],
			"type":"VEC3"
		},
		{
			"bufferView":6,
			"componentType":5126,
			"count":32514,
			"type":"VEC3"
		},
		{
			"bufferView":7,
			"componentType":5126,
			"count":32514,
			"max":[
				10,
				10,
				20
			],
			"min":[
				-10,
				-10,
				0
			],
			"type":"VEC3"
		},
		{
			"bufferView":8,
			"componentType":5126,
			"count":32514,
			"type":"VEC3"
		},
		{
			"bufferView":9,
			"componentType":5126,
			"count":32514,
			"max":[
				10,
				10,
				20
			],
			"min":[
				-10,
				-10,
				0
			],
			"type":"VEC3"
		},
		{
			"bufferView":10,
			"componentType":5126,
			"count":32514,
			"type":"VEC3"
		},
		{
			"bufferView":11,
			"componentType":5126,
			"count":32514,
			"max":[
				10,
				10,
				20
			],
			"min":[
				-10,
				-10,
				0
			],
			"type":"VEC3"
		},
		{
			"bufferView":12,
			"componentType":5126,
			"count":32514,
			"type":"VEC3"
		},
		{
			"bufferView":13,
			"componentType":5126,
			"count":32514,
			"max":[
				10,
				10,
				20
			],
			"min":[
				-10,
				-10,
				0
			],
			"type":"VEC3"
		},
		{
			"bufferView":14,
			"componentType":5126,
			"count":32514,
			"type":"VEC3"
		},
		{
			"bufferView":15,
			"componentType":5126,
			"count":32514,
			"max":[
				10,
				10,
				20
			],
			"min":[
				-10,
				-10,
				0
			],
			"type":"VEC3"
		},
		{
			"bufferView":16,
			"componentType":5126,
			"count":32514,
			"type":"VEC3"
		}
	],
	"bufferViews":[
		{
			"buffer":0,
			"byteLength":390168,
			"byteOffset":0,
			"target":34962
		},
		{
			"buffer":0,
			"byteLength":390168,
			"byteOffset":390168,
			"target":34962
		},
		{
			"buffer":0,
			"byteLength":390144,
			"byteOffset":780336,
			"target":34963
		},
		{
			"buffer":0,
			"byteLength":390168,
			"byteOffset":1170480,
			"target":34962
		},
		{
			"buffer":0,
			"byteLength":390168,
			"byteOffset":1560648,
			"target":34962
		},
		{
			"buffer":0,
			"byteLength":390168,
			"byteOffset":1950816,
			"target":34962
		},
		{
			"buffer":0,
			"byteLength":390168,
			"byteOffset":2340984,
			"target":34962
		},
		{
			"buffer":0,
			"byteLength":390168,
			"byteOffset":2731152,
			"target":34962
		},
		{
			"buffer":0,
			"byteLength":390168,
			"byteOffset":3121320,
			"target":34962
		},
		{
			"buffer":0,
			"byteLength":390168,
			"byteOffset":3511488,
			"target":34962
		},
		{
			"buffer":0,
			"byteLength":390168,
			"byteOffset":3901656,
			"target":34962
		},
		{
			"buffer":0,
			"byteLength":390168,
			"byteOffset":4291824,
			"target":34962
		},
		{
			"buffer":0,
			"byteLength":390168,
			"byteOffset":4681992,
			"target":34962
		},
		{
			"buffer":0,
			"byteLength":390168,
			"byteOffset":5072160,
			"target":34962
		},
		{
			"buffer":0,
			"byteLength":390168,
			"byteOffset":5462328,
			"target":34962
		},
		{
			"buffer":0,
			"byteLength":390168,
			"byteOffset":5852496,
			"target":34962
		},
		{
			"buffer":0,
			"byteLength":390168,
			"byteOffset":6242664,
			"target":34962
		}
	],
	"buffers":[
		{
			"byteLength":6632832,
			"uri":"clouders.bin"
		}
	]
}
