{
	"asset":{
		"generator":"Khronos glTF Blender I/O v3.6.27",
		"version":"2.0"
	},
	"scene":0,
	"scenes":[
		{
			"name":"Scene",
			"nodes":[
				0,
				1,
				2,
				3,
				4,
				5,
				6,
				7,
				8,
				9,
				10,
				11,
				12,
				13,
				14,
				15
			]
		}
	],
	"nodes":[
		{
			"mesh":0,
			"name":"Cylinder.001",
			"rotation":[
				0.6424738764762878,
				0.29534292221069336,
				-0.29534295201301575,
				0.6424737572669983
			],
			"scale":[
				0.304987370967865,
				0.3049874007701874,
				0.304987370967865
			],
			"translation":[
				47.96467208862305,
				4.591455459594727,
				0.26882362365722656
			]
		},
		{
			"mesh":1,
			"name":"Sphere",
			"rotation":[
				0,
				-0.3471308946609497,
				0,
				0.9378166794776917
			],
			"scale":[
				0.5289342403411865,
				0.20483465492725372,
				0.20483465492725372
			],
			"translation":[
				48.161808013916016,
				4.593019962310791,
				0.4379277229309082
			]
		},
		{
			"mesh":2,
			"name":"Plane.003",
			"rotation":[
				0.5247419476509094,
				0.08968330919742584,
				-0.47396811842918396,
				0.7013965249061584
			],
			"scale":[
				1.5237396955490112,
				1.5237398147583008,
				1.5237398147583008
			],
			"translation":[
				48.24271774291992,
				4.590925693511963,
				0.5085587501525879
			]
		},
		{
			"mesh":3,
			"name":"Cylinder",
			"rotation":[
				0,
				-0.34713083505630493,
				0,
				0.9378166794776917
			],
			"scale":[
				0.3137415647506714,
				6.256105422973633,
				0.3137415647506714
			],
			"translation":[
				47.96467208862305,
				-1.8015787601470947,
				0.26882362365722656
			]
		},
		{
			"mesh":4,
			"name":"Cylinder.002",
			"rotation":[
				0.6424738764762878,
				0.29534292221069336,
				-0.29534295201301575,
				0.6424737572669983
			],
			"scale":[
				0.304987370967865,
				0.3049874007701874,
				0.304987370967865
			],
			"translation":[
				45.305450439453125,
				5.349371910095215,
				-7.377424716949463
			]
		},
		{
			"mesh":5,
			"name":"Sphere.001",
			"rotation":[
				0,
				-0.3471308946609497,
				0,
				0.9378166794776917
			],
			"scale":[
				0.5289342403411865,
				0.20483465492725372,
				0.20483465492725372
			],
			"translation":[
				45.502586364746094,
				5.3509368896484375,
				-7.208320617675781
			]
		},
		{
			"mesh":6,
			"name":"Plane.004",
			"rotation":[
				0.5247419476509094,
				0.08968330919742584,
				-0.47396811842918396,
				0.7013965249061584
			],
			"scale":[
				1.5237396955490112,
				1.5237398147583008,
				1.5237398147583008
			],
			"translation":[
				45.583499908447266,
				5.348842620849609,
				-7.137692451477051
			]
		},
		{
			"mesh":7,
			"name":"Cylinder.003",
			"rotation":[
				0,
				-0.34713083505630493,
				0,
				0.9378166794776917
			],
			"scale":[
				0.3137415647506714,
				6.256105422973633,
				0.3137415647506714
			],
			"translation":[
				45.305450439453125,
				-1.0436618328094482,
				-7.377424716949463
			]
		},
		{
			"mesh":8,
			"name":"Cylinder.004",
			"rotation":[
				0.6424738764762878,
				0.29534292221069336,
				-0.29534295201301575,
				0.6424737572669983
			],
			"scale":[
				0.304987370967865,
				0.3049874007701874,
				0.304987370967865
			],
			"translation":[
				50.1151237487793,
				3.9950480461120605,
				7.649234771728516
			]
		},
		{
			"mesh":9,
			"name":"Sphere.002",
			"rotation":[
				0,
				-0.3471308946609497,
				0,
				0.9378166794776917
			],
			"scale":[
				0.5289342403411865,
				0.20483465492725372,
				0.20483465492725372
			],
			"translation":[
				50.312255859375,
				3.996613025665283,
				7.818341255187988
			]
		},
		{
			"mesh":10,
			"name":"Plane.005",
			"rotation":[
				0.5247419476509094,
				0.08968330919742584,
				-0.47396811842918396,
				0.7013965249061584
			],
			"scale":[
				1.5237396955490112,
				1.5237398147583008,
				1.5237398147583008
			],
			"translation":[
				50.39316940307617,
				3.994518756866455,
				7.888969421386719
			]
		},
		{
			"mesh":11,
			"name":"Cylinder.005",
			"rotation":[
				0,
				-0.34713083505630493,
				0,
				0.9378166794776917
			],
			"scale":[
				0.3137415647506714,
				6.256105422973633,
				0.3137415647506714
			],
			"translation":[
				50.1151237487793,
				-2.3979856967926025,
				7.649234771728516
			]
		},
		{
			"mesh":12,
			"name":"Cylinder.006",
			"rotation":[
				0.6424738764762878,
				0.29534292221069336,
				-0.29534295201301575,
				0.6424737572669983
			],
			"scale":[
				0.304987370967865,
				0.3049874007701874,
				0.304987370967865
			],
			"translation":[
				43.58675003051758,
				5.125475883483887,
				-14.147726058959961
			]
		},
		{
			"mesh":13,
			"name":"Sphere.003",
			"rotation":[
				0,
				-0.3471308946609497,
				0,
				0.9378166794776917
			],
			"scale":[
				0.5289342403411865,
				0.20483465492725372,
				0.20483465492725372
			],
			"translation":[
				43.78388214111328,
				5.127040863037109,
				-13.978618621826172
			]
		},
		{
			"mesh":14,
			"name":"Plane.006",
			"rotation":[
				0.5247419476509094,
				0.08968330919742584,
				-0.47396811842918396,
				0.7013965249061584
			],
			"scale":[
				1.5237396955490112,
				1.5237398147583008,
				1.5237398147583008
			],
			"translation":[
				43.86479568481445,
				5.124946594238281,
				-13.907987594604492
			]
		},
		{
			"mesh":15,
			"name":"Cylinder.007",
			"rotation":[
				0,
				-0.34713083505630493,
				0,
				0.9378166794776917
			],
			"scale":[
				0.3137415647506714,
				6.256105422973633,
				0.3137415647506714
			],
			"translation":[
				43.58675003051758,
				-1.2675583362579346,
				-14.147726058959961
			]
		}
	],
	"materials":[
		{
			"doubleSided":true,
			"name":"Blades",
			"pbrMetallicRoughness":{
				"metallicFactor":0,
				"roughnessFactor":0.5
			}
		}
	],
	"meshes":[
		{
			"name":"Cylinder.007",
			"primitives":[
				{
					"attributes":{
						"POSITION":0,
						"NORMAL":1
					},
					"indices":2,
					"material":0
				}
			]
		},
		{
			"name":"Sphere",
			"primitives":[
				{
					"attributes":{
						"POSITION":3,
						"NORMAL":4
					},
					"indices":5,
					"material":0
				}
			]
		},
		{
			"name":"Plane.003",
			"primitives":[
				{
					"attributes":{
						"POSITION":6,
						"NORMAL":7
					},
					"indices":8,
					"material":0
				}
			]
		},
		{
			"name":"Cylinder.074",
			"primitives":[
				{
					"attributes":{
						"POSITION":9,
						"NORMAL":10
					},
					"indices":11,
					"material":0
				}
			]
		},
		{
			"name":"Cylinder.075",
			"primitives":[
				{
					"attributes":{
						"POSITION":12,
						"NORMAL":13
					},
					"indices":2,
					"material":0
				}
			]
		},
		{
			"name":"Sphere.004",
			"primitives":[
				{
					"attributes":{
						"POSITION":14,
						"NORMAL":15
					},
					"indices":5,
					"material":0
				}
			]
		},
		{
			"name":"Plane.004",
			"primitives":[
				{
					"attributes":{
						"POSITION":16,
						"NORMAL":17
					},
					"indices":8,
					"material":0
				}
			]
		},
		{
			"name":"Cylinder.076",
			"primitives":[
				{
					"attributes":{
						"POSITION":18,
						"NORMAL":19
					},
					"indices":11,
					"material":0
				}
			]
		},
		{
			"name":"Cylinder.077",
			"primitives":[
				{
					"attributes":{
						"POSITION":20,
						"NORMAL":21
					},
					"indices":2,
					"material":0
				}
			]
		},
		{
			"name":"Sphere.005",
			"primitives":[
				{
					"attributes":{
						"POSITION":22,
						"NORMAL":23
					},
					"indices":5,
					"material":0
				}
			]
		},
		{
			"name":"Plane.005",
			"primitives":[
				{
					"attributes":{
						"POSITION":24,
						"NORMAL":25
					},
					"indices":8,
					"material":0
				}
			]
		},
		{
			"name":"Cylinder.078",
			"primitives":[
				{
					"attributes":{
						"POSITION":26,
						"NORMAL":27
					},
					"indices":11,
					"material":0
				}
			]
		},
		{
			"name":"Cylinder.079",
			"primitives":[
				{
					"attributes":{
						"POSITION":28,
						"NORMAL":29
					},
					"indices":2,
					"material":0
				}
			]
		},
		{
			"name":"Sphere.006",
			"primitives":[
				{
					"attributes":{
						"POSITION":30,
						"NORMAL":31
					},
					"indices":5,
					"material":0
				}
			]
		},
		{
			"name":"Plane.006",
			"primitives":[
				{
					"attributes":{
						"POSITION":32,
						"NORMAL":33
					},
					"indices":8,
					"material":0
				}
			]
		},
		{
			"name":"Cylinder.080",
			"primitives":[
				{
					"attributes":{
						"POSITION":34,
						"NORMAL":35
					},
					"indices":11,
					"material":0
				}
			]
		}
	],
	"accessors":[
		{
			"bufferView":0,
			"componentType":5126,
			"count":58,
			"max":[
				0.9448763132095337,
				1,
				0.8090171813964844
			],
			"min":[
				-0.9448760151863098,
				-3.2918689250946045,
				-0.9882442951202393
			],
			"type":"VEC3"
		},
		{
			"bufferView":1,
			"componentType":5126,
			"count":58,
			"type":"VEC3"
		},
		{
			"bufferView":2,
			"componentType":5123,
			"count":288,
			"type":"SCALAR"
		},
		{
			"bufferView":3,
			"componentType":5126,
			"count":257,
			"max":[
				0.9999988079071045,
				1,
				0.9999990463256836
			],
			"min":[
				-1.6391277313232422e-07,
				-1,
				-0.9999997019767761
			],
			"type":"VEC3"
		},
		{
			"bufferView":4,
			"componentType":5126,
			"count":257,
			"type":"VEC3"
		},
		{
			"bufferView":5,
			"componentType":5123,
			"count":1440,
			"type":"SCALAR"
		},
		{
			"bufferView":6,
			"componentType":5126,
			"count":390,
			"max":[
				2.499671697616577,
				0.06750121712684631,
				3.3821585178375244
			],
			"min":[
				-3.3545126914978027,
				-3.332659730403975e-07,
				-2.421018123626709
			],
			"type":"VEC3"
		},
		{
			"bufferView":7,
			"componentType":5126,
			"count":390,
			"type":"VEC3"
		},
		{
			"bufferView":8,
			"componentType":5123,
			"count":2304,
			"type":"SCALAR"
		},
		{
			"bufferView":9,
			"componentType":5126,
			"count":484,
			"max":[
				0.9852036237716675,
				1,
				0.9852038621902466
			],
			"min":[
				-0.9852039813995361,
				-1,
				-0.985203742980957
			],
			"type":"VEC3"
		},
		{
			"bufferView":10,
			"componentType":5126,
			"count":484,
			"type":"VEC3"
		},
		{
			"bufferView":11,
			"componentType":5123,
			"count":960,
			"type":"SCALAR"
		},
		{
			"bufferView":12,
			"componentType":5126,
			"count":58,
			"max":[
				0.9448763132095337,
				1,
				0.8090171813964844
			],
			"min":[
				-0.9448760151863098,
				-3.2918689250946045,
				-0.9882442951202393
			],
			"type":"VEC3"
		},
		{
			"bufferView":13,
			"componentType":5126,
			"count":58,
			"type":"VEC3"
		},
		{
			"bufferView":14,
			"componentType":5126,
			"count":257,
			"max":[
				0.9999988079071045,
				1,
				0.9999990463256836
			],
			"min":[
				-1.6391277313232422e-07,
				-1,
				-0.9999997019767761
			],
			"type":"VEC3"
		},
		{
			"bufferView":15,
			"componentType":5126,
			"count":257,
			"type":"VEC3"
		},
		{
			"bufferView":16,
			"componentType":5126,
			"count":390,
			"max":[
				2.499671697616577,
				0.06750121712684631,
				3.3821585178375244
			],
			"min":[
				-3.3545126914978027,
				-3.332659730403975e-07,
				-2.421018123626709
			],
			"type":"VEC3"
		},
		{
			"bufferView":17,
			"componentType":5126,
			"count":390,
			"type":"VEC3"
		},
		{
			"bufferView":18,
			"componentType":5126,
			"count":484,
			"max":[
				0.9852036237716675,
				1,
				0.9852038621902466
			],
			"min":[
				-0.9852039813995361,
				-1,
				-0.985203742980957
			],
			"type":"VEC3"
		},
		{
			"bufferView":19,
			"componentType":5126,
			"count":484,
			"type":"VEC3"
		},
		{
			"bufferView":20,
			"componentType":5126,
			"count":58,
			"max":[
				0.9448763132095337,
				1,
				0.8090171813964844
			],
			"min":[
				-0.9448760151863098,
				-3.2918689250946045,
				-0.9882442951202393
			],
			"type":"VEC3"
		},
		{
			"bufferView":21,
			"componentType":5126,
			"count":58,
			"type":"VEC3"
		},
		{
			"bufferView":22,
			"componentType":5126,
			"count":257,
			"max":[
				0.9999988079071045,
				1,
				0.9999990463256836
			],
			"min":[
				-1.6391277313232422e-07,
				-1,
				-0.9999997019767761
			],
			"type":"VEC3"
		},
		{
			"bufferView":23,
			"componentType":5126,
			"count":257,
			"type":"VEC3"
		},
		{
			"bufferView":24,
			"componentType":5126,
			"count":390,
			"max":[
				2.499671697616577,
				0.06750121712684631,
				3.3821585178375244
			],
			"min":[
				-3.3545126914978027,
				-3.332659730403975e-07,
				-2.421018123626709
			],
			"type":"VEC3"
		},
		{
			"bufferView":25,
			"componentType":5126,
			"count":390,
			"type":"VEC3"
		},
		{
			"bufferView":26,
			"componentType":5126,
			"count":484,
			"max":[
				0.9852036237716675,
				1,
				0.9852038621902466
			],
			"min":[
				-0.9852039813995361,
				-1,
				-0.985203742980957
			],
			"type":"VEC3"
		},
		{
			"bufferView":27,
			"componentType":5126,
			"count":484,
			"type":"VEC3"
		},
		{
			"bufferView":28,
			"componentType":5126,
			"count":58,
			"max":[
				0.9448763132095337,
				1,
				0.8090171813964844
			],
			"min":[
				-0.9448760151863098,
				-3.2918689250946045,
				-0.9882442951202393
			],
			"type":"VEC3"
		},
		{
			"bufferView":29,
			"componentType":5126,
			"count":58,
			"type":"VEC3"
		},
		{
			"bufferView":30,
			"componentType":5126,
			"count":257,
			"max":[
				0.9999988079071045,
				1,
				0.9999990463256836
			],
			"min":[
				-1.6391277313232422e-07,
				-1,
				-0.9999997019767761
			],
			"type":"VEC3"
		},
		{
			"bufferView":31,
			"componentType":5126,
			"count":257,
			"type":"VEC3"
		},
		{
			"bufferView":32,
			"componentType":5126,
			"count":390,
			"max":[
				2.499671697616577,
				0.06750121712684631,
				3.3821585178375244
			],
			"min":[
				-3.3545126914978027,
				-3.332659730403975e-07,
				-2.421018123626709
			],
			"type":"VEC3"
		},
		{
			"bufferView":33,
			"componentType":5126,
			"count":390,
			"type":"VEC3"
		},
		{
			"bufferView":34,
			"componentType":5126,
			"count":484,
			"max":[
				0.9852036237716675,
				1,
				0.9852038621902466
			],
			"min":[
				-0.9852039813995361,
				-1,
				-0.985203742980957
			],
			"type":"VEC3"
		},
		{
			"bufferView":35,
			"componentType":5126,
			"count":484,
			"type":"VEC3"
		}
	],
	"bufferViews":[
		{
			"buffer":0,
			"byteLength":696,
			"byteOffset":0,
			"target":34962
		},
		{
			"buffer":0,
			"byteLength":696,
			"byteOffset":696,
			"target":34962
		},
		{
			"buffer":0,
			"byteLength":576,
			"byteOffset":1392,
			"target":34963
		},
		{
			"buffer":0,
			"byteLength":3084,
			"byteOffset":1968,
			"target":34962
		},
		{
			"buffer":0,
			"byteLength":3084,
			"byteOffset":5052,
			"target":34962
		},
		{
			"buffer":0,
			"byteLength":2880,
			"byteOffset":8136,
			"target":34963
		},
		{
			"buffer":0,
			"byteLength":4680,
			"byteOffset":11016,
			"target":34962
		},
		{
			"buffer":0,
			"byteLength":4680,
			"byteOffset":15696,
			"target":34962
		},
		{
			"buffer":0,
			"byteLength":4608,
			"byteOffset":20376,
			"target":34963
		},
		{
			"buffer":0,
			"byteLength":5808,
			"byteOffset":24984,
			"target":34962
		},
		{
			"buffer":0,
			"byteLength":5808,
			"byteOffset":30792,
			"target":34962
		},
		{
			"buffer":0,
			"byteLength":1920,
			"byteOffset":36600,
			"target":34963
		},
		{
			"buffer":0,
			"byteLength":696,
			"byteOffset":38520,
			"target":34962
		},
		{
			"buffer":0,
			"byteLength":696,
			"byteOffset":39216,
			"target":34962
		},
		{
			"buffer":0,
			"byteLength":3084,
			"byteOffset":39912,
			"target":34962
		},
		{
			"buffer":0,
			"byteLength":3084,
			"byteOffset":42996,
			"target":34962
		},
		{
			"buffer":0,
			"byteLength":4680,
			"byteOffset":46080,
			"target":34962
		},
		{
			"buffer":0,
			"byteLength":4680,
			"byteOffset":50760,
			"target":34962
		},
		{
			"buffer":0,
			"byteLength":5808,
			"byteOffset":55440,
			"target":34962
		},
		{
			"buffer":0,
			"byteLength":5808,
			"byteOffset":61248,
			"target":34962
		},
		{
			"buffer":0,
			"byteLength":696,
			"byteOffset":67056,
			"target":34962
		},
		{
			"buffer":0,
			"byteLength":696,
			"byteOffset":67752,
			"target":34962
		},
		{
			"buffer":0,
			"byteLength":3084,
			"byteOffset":68448,
			"target":34962
		},
		{
			"buffer":0,
			"byteLength":3084,
			"byteOffset":71532,
			"target":34962
		},
		{
			"buffer":0,
			"byteLength":4680,
			"byteOffset":74616,
			"target":34962
		},
		{
			"buffer":0,
			"byteLength":4680,
			"byteOffset":79296,
			"target":34962
		},
		{
			"buffer":0,
			"byteLength":5808,
			"byteOffset":83976,
			"target":34962
		},
		{
			"buffer":0,
			"byteLength":5808,
			"byteOffset":89784,
			"target":34962
		},
		{
			"buffer":0,
			"byteLength":696,
			"byteOffset":95592,
			"target":34962
		},
		{
			"buffer":0,
			"byteLength":696,
			"byteOffset":96288,
			"target":34962
		},
		{
			"buffer":0,
			"byteLength":3084,
			"byteOffset":96984,
			"target":34962
		},
		{
			"buffer":0,
			"byteLength":3084,
			"byteOffset":100068,
			"target":34962
		},
		{
			"buffer":0,
			"byteLength":4680,
			"byteOffset":103152,
			"target":34962
		},
		{
			"buffer":0,
			"byteLength":4680,
			"byteOffset":107832,
			"target":34962
		},
		{
			"buffer":0,
			"byteLength":5808,
			"byteOffset":112512,
			"target":34962
		},
		{
			"buffer":0,
			"byteLength":5808,
			"byteOffset":118320,
			"target":34962
		}
	],
	"buffers":[
		{
			"byteLength":124128,
			"uri":"windyy.bin"
		}
	]
}
