{
	"asset":{
		"generator":"Khronos glTF Blender I/O v3.6.27",
		"version":"2.0"
	},
	"scene":0,
	"scenes":[
		{
			"name":"Scene",
			"nodes":[
				0,
				1,
				2,
				3,
				4,
				5
			]
		}
	],
	"nodes":[
		{
			"mesh":0,
			"name":"blade_1_high",
			"rotation":[
				0,
				0,
				-0.7071067690849304,
				0.7071068286895752
			],
			"scale":[
				1.5053656101226807,
				1.5053656101226807,
				1.5053656101226807
			],
			"translation":[
				0,
				6.660379409790039,
				0
			]
		},
		{
			"mesh":0,
			"name":"blade_2_high",
			"rotation":[
				-0.5000000596046448,
				-0.5000000596046448,
				-0.5000000596046448,
				0.5
			],
			"scale":[
				1.5053656101226807,
				1.5053656101226807,
				1.5053656101226807
			],
			"translation":[
				0,
				6.660394668579102,
				0
			]
		},
		{
			"mesh":0,
			"name":"blade_3_high",
			"rotation":[
				0.7071069478988647,
				0.7071066498756409,
				0,
				3.090862676913275e-08
			],
			"scale":[
				1.5053656101226807,
				1.5053656101226807,
				1.5053656101226807
			],
			"translation":[
				0,
				6.660379409790039,
				0
			]
		},
		{
			"mesh":0,
			"name":"blade_4_high",
			"rotation":[
				0.49999988079071045,
				0.49999985098838806,
				-0.5000001192092896,
				0.5000001192092896
			],
			"scale":[
				1.5053656101226807,
				1.5053656101226807,
				1.5053656101226807
			],
			"translation":[
				0,
				6.660379409790039,
				0
			]
		},
		{
			"mesh":1,
			"name":"stick_high",
			"scale":[
				0.15498751401901245,
				4.919434547424316,
				0.15498751401901245
			],
			"translation":[
				-0.25663062930107117,
				2.265709400177002,
				0
			]
		},
		{
			"mesh":2,
			"name":"axis_high",
			"rotation":[
				0,
				0,
				0.7071062922477722,
				0.7071073651313782
			],
			"scale":[
				0.10220278054475784,
				0.20343509316444397,
				0.10220278054475784
			],
			"translation":[
				0,
				6.660394668579102,
				0
			]
		}
	],
	"materials":[
		{
			"doubleSided":true,
			"name":"blade",
			"pbrMetallicRoughness":{
				"baseColorFactor":[
					1,
					0.1551077961921692,
					0,
					1
				],
				"metallicFactor":0.75,
				"roughnessFactor":0.7000000476837158
			}
		},
		{
			"doubleSided":true,
			"name":"stick",
			"pbrMetallicRoughness":{
				"baseColorFactor":[
					0.002846094314008951,
					0.33252501487731934,
					0,
					1
				],
				"metallicFactor":0.26363635063171387,
				"roughnessFactor":0.7909090518951416
			}
		},
		{
			"doubleSided":true,
			"name":"axis",
			"pbrMetallicRoughness":{
				"baseColorFactor":[
					0.9965256452560425,
					1,
					0,
					1
				],
				"metallicFactor":0.2136363685131073,
				"roughnessFactor":0.9045454263687134
			}
		}
	],
	"meshes":[
		{
			"name":"Plane.001",
			"primitives":[
				{
					"attributes":{
						"POSITION":0,
						"NORMAL":1,
						"TEXCOORD_0":2
					},
					"indices":3,
					"material":0
				}
			]
		},
		{
			"name":"Cube",
			"primitives":[
				{
					"attributes":{
						"POSITION":4,
						"NORMAL":5,
						"TEXCOORD_0":6
					},
					"indices":7,
					"material":1
				}
			]
		},
		{
			"name":"Cylinder.001",
			"primitives":[
				{
					"attributes":{
						"POSITION":8,
						"NORMAL":9,
						"TEXCOORD_0":10
					},
					"indices":11,
					"material":2
				}
			]
		}
	],
	"accessors":[
		{
			"bufferView":0,
			"componentType":5126,
			"count":215,
			"max":[
				0.0036814212799072266,
				0.25353896617889404,
				0.0036759376525878906
			],
			"min":[
				-0.881342351436615,
				-0.045738331973552704,
				-1.9927889108657837
			],
			"type":"VEC3"
		},
		{
			"bufferView":1,
			"componentType":5126,
			"count":215,
			"type":"VEC3"
		},
		{
			"bufferView":2,
			"componentType":5126,
			"count":215,
			"type":"VEC2"
		},
		{
			"bufferView":3,
			"componentType":5123,
			"count":1032,
			"type":"SCALAR"
		},
		{
			"bufferView":4,
			"componentType":5126,
			"count":14,
			"max":[
				1,
				1,
				1
			],
			"min":[
				-1,
				-0.46152302622795105,
				-1
			],
			"type":"VEC3"
		},
		{
			"bufferView":5,
			"componentType":5126,
			"count":14,
			"type":"VEC3"
		},
		{
			"bufferView":6,
			"componentType":5126,
			"count":14,
			"type":"VEC2"
		},
		{
			"bufferView":7,
			"componentType":5123,
			"count":36,
			"type":"SCALAR"
		},
		{
			"bufferView":8,
			"componentType":5126,
			"count":20,
			"max":[
				1.3035930395126343,
				1.2981878519058228,
				1.5052603483200073
			],
			"min":[
				-1.3035944700241089,
				-0.7018121480941772,
				-1.5052603483200073
			],
			"type":"VEC3"
		},
		{
			"bufferView":9,
			"componentType":5126,
			"count":20,
			"type":"VEC3"
		},
		{
			"bufferView":10,
			"componentType":5126,
			"count":20,
			"type":"VEC2"
		},
		{
			"bufferView":11,
			"componentType":5123,
			"count":48,
			"type":"SCALAR"
		}
	],
	"bufferViews":[
		{
			"buffer":0,
			"byteLength":2580,
			"byteOffset":0,
			"target":34962
		},
		{
			"buffer":0,
			"byteLength":2580,
			"byteOffset":2580,
			"target":34962
		},
		{
			"buffer":0,
			"byteLength":1720,
			"byteOffset":5160,
			"target":34962
		},
		{
			"buffer":0,
			"byteLength":2064,
			"byteOffset":6880,
			"target":34963
		},
		{
			"buffer":0,
			"byteLength":168,
			"byteOffset":8944,
			"target":34962
		},
		{
			"buffer":0,
			"byteLength":168,
			"byteOffset":9112,
			"target":34962
		},
		{
			"buffer":0,
			"byteLength":112,
			"byteOffset":9280,
			"target":34962
		},
		{
			"buffer":0,
			"byteLength":72,
			"byteOffset":9392,
			"target":34963
		},
		{
			"buffer":0,
			"byteLength":240,
			"byteOffset":9464,
			"target":34962
		},
		{
			"buffer":0,
			"byteLength":240,
			"byteOffset":9704,
			"target":34962
		},
		{
			"buffer":0,
			"byteLength":160,
			"byteOffset":9944,
			"target":34962
		},
		{
			"buffer":0,
			"byteLength":96,
			"byteOffset":10104,
			"target":34963
		}
	],
	"buffers":[
		{
			"byteLength":10200,
			"uri":"wind.bin"
		}
	]
}
