{
	"asset":{
		"generator":"Khronos glTF Blender I/O v3.6.27",
		"version":"2.0"
	},
	"scene":0,
	"scenes":[
		{
			"name":"Scene",
			"nodes":[
				0,
				1,
				2
			]
		}
	],
	"nodes":[
		{
			"mesh":0,
			"name":"Text.007",
			"rotation":[
				0.7071067094802856,
				0.0005109042976982892,
				-0.000510904414113611,
				0.7071065902709961
			],
			"scale":[
				0.1650826632976532,
				0.5843517780303955,
				0.1650826781988144
			],
			"translation":[
				-2.5217838287353516,
				2.914980411529541,
				0.016620507463812828
			]
		},
		{
			"mesh":1,
			"name":"Plane.007",
			"rotation":[
				-0.5003611445426941,
				0.5003611445426941,
				-0.49963855743408203,
				0.4996386468410492
			],
			"scale":[
				0.07768291980028152,
				0.6394535899162292,
				0.4266113340854645
			],
			"translation":[
				-2.2065610885620117,
				2.969628095626831,
				-0.005042186938226223
			]
		},
		{
			"mesh":2,
			"name":"Outside",
			"rotation":[
				0,
				0.7076175808906555,
				0,
				0.7065955996513367
			],
			"scale":[
				0.43578922748565674,
				0.43662479519844055,
				0.3958371877670288
			],
			"translation":[
				-2.329437732696533,
				3.7432870864868164,
				-0.454919695854187
			]
		}
	],
	"materials":[
		{
			"doubleSided":true,
			"name":"Material.023",
			"pbrMetallicRoughness":{
				"baseColorFactor":[
					0,
					0,
					0,
					1
				],
				"metallicFactor":0,
				"roughnessFactor":0.5
			}
		},
		{
			"doubleSided":true,
			"name":"Material.024",
			"pbrMetallicRoughness":{
				"baseColorFactor":[
					0.800000011920929,
					0.800000011920929,
					0.800000011920929,
					1
				],
				"metallicFactor":0,
				"roughnessFactor":0.5
			}
		},
		{
			"doubleSided":true,
			"name":"Material.026",
			"pbrMetallicRoughness":{
				"baseColorFactor":[
					0.7723206877708435,
					0,
					0.8005601167678833,
					1
				],
				"metallicFactor":0,
				"roughnessFactor":0.5
			}
		}
	],
	"meshes":[
		{
			"name":"Text.009",
			"primitives":[
				{
					"attributes":{
						"POSITION":0,
						"NORMAL":1,
						"TEXCOORD_0":2
					},
					"indices":3,
					"material":0
				}
			]
		},
		{
			"name":"Plane.016",
			"primitives":[
				{
					"attributes":{
						"POSITION":4,
						"NORMAL":5,
						"TEXCOORD_0":6
					},
					"indices":7,
					"material":1
				}
			]
		},
		{
			"name":"Cube.005",
			"primitives":[
				{
					"attributes":{
						"POSITION":8,
						"NORMAL":9
					},
					"indices":10,
					"material":2
				}
			]
		}
	],
	"accessors":[
		{
			"bufferView":0,
			"componentType":5126,
			"count":1620,
			"max":[
				3.7450003623962402,
				0.020000001415610313,
				0.009000000543892384
			],
			"min":[
				0.04800000041723251,
				-0.020000001415610313,
				-0.6910000443458557
			],
			"type":"VEC3"
		},
		{
			"bufferView":1,
			"componentType":5126,
			"count":1620,
			"type":"VEC3"
		},
		{
			"bufferView":2,
			"componentType":5126,
			"count":1620,
			"type":"VEC2"
		},
		{
			"bufferView":3,
			"componentType":5123,
			"count":4728,
			"type":"SCALAR"
		},
		{
			"bufferView":4,
			"componentType":5126,
			"count":4,
			"max":[
				1,
				0,
				1
			],
			"min":[
				-1,
				0,
				-1
			],
			"type":"VEC3"
		},
		{
			"bufferView":5,
			"componentType":5126,
			"count":4,
			"type":"VEC3"
		},
		{
			"bufferView":6,
			"componentType":5126,
			"count":4,
			"type":"VEC2"
		},
		{
			"bufferView":7,
			"componentType":5123,
			"count":6,
			"type":"SCALAR"
		},
		{
			"bufferView":8,
			"componentType":5126,
			"count":137,
			"max":[
				1.3720015287399292,
				1.3720015287399292,
				1.3720015287399292
			],
			"min":[
				-1.3720015287399292,
				-1.3720015287399292,
				-1.3720015287399292
			],
			"type":"VEC3"
		},
		{
			"bufferView":9,
			"componentType":5126,
			"count":137,
			"type":"VEC3"
		},
		{
			"bufferView":10,
			"componentType":5123,
			"count":756,
			"type":"SCALAR"
		}
	],
	"bufferViews":[
		{
			"buffer":0,
			"byteLength":19440,
			"byteOffset":0,
			"target":34962
		},
		{
			"buffer":0,
			"byteLength":19440,
			"byteOffset":19440,
			"target":34962
		},
		{
			"buffer":0,
			"byteLength":12960,
			"byteOffset":38880,
			"target":34962
		},
		{
			"buffer":0,
			"byteLength":9456,
			"byteOffset":51840,
			"target":34963
		},
		{
			"buffer":0,
			"byteLength":48,
			"byteOffset":61296,
			"target":34962
		},
		{
			"buffer":0,
			"byteLength":48,
			"byteOffset":61344,
			"target":34962
		},
		{
			"buffer":0,
			"byteLength":32,
			"byteOffset":61392,
			"target":34962
		},
		{
			"buffer":0,
			"byteLength":12,
			"byteOffset":61424,
			"target":34963
		},
		{
			"buffer":0,
			"byteLength":1644,
			"byteOffset":61436,
			"target":34962
		},
		{
			"buffer":0,
			"byteLength":1644,
			"byteOffset":63080,
			"target":34962
		},
		{
			"buffer":0,
			"byteLength":1512,
			"byteOffset":64724,
			"target":34963
		}
	],
	"buffers":[
		{
			"byteLength":66236,
			"uri":"cellwall.bin"
		}
	]
}
