{
	"asset":{
		"generator":"Khronos glTF Blender I/O v3.6.27",
		"version":"2.0"
	},
	"scene":0,
	"scenes":[
		{
			"name":"Scene",
			"nodes":[
				0,
				1,
				2
			]
		}
	],
	"nodes":[
		{
			"mesh":0,
			"name":"Text.004",
			"rotation":[
				0.7071067094802856,
				0.0005109042976982892,
				-0.0005109043559059501,
				0.7071065902709961
			],
			"scale":[
				0.11909482628107071,
				0.5843517780303955,
				0.1650826781988144
			],
			"translation":[
				-4.352354526519775,
				2.8927924633026123,
				-0.006431755609810352
			]
		},
		{
			"mesh":1,
			"name":"Outside.001",
			"rotation":[
				0,
				0.7076175808906555,
				0,
				0.7065957188606262
			],
			"scale":[
				0.39888107776641846,
				0.4000992774963379,
				0.36755645275115967
			],
			"translation":[
				-4.016194820404053,
				3.7605783939361572,
				-0.454919695854187
			]
		},
		{
			"mesh":2,
			"name":"Plane.002",
			"rotation":[
				-0.5003611445426941,
				0.5003611445426941,
				-0.4996385872364044,
				0.4996385872364044
			],
			"scale":[
				0.09794092178344727,
				0.6394535899162292,
				0.46957045793533325
			],
			"translation":[
				-3.99501895904541,
				2.9439809322357178,
				-0.01673251949250698
			]
		}
	],
	"materials":[
		{
			"doubleSided":true,
			"name":"Material.019",
			"pbrMetallicRoughness":{
				"baseColorFactor":[
					0,
					0,
					0,
					1
				],
				"metallicFactor":0,
				"roughnessFactor":0.5
			}
		},
		{
			"doubleSided":true,
			"name":"Material.020",
			"pbrMetallicRoughness":{
				"baseColorFactor":[
					0,
					0.8000473976135254,
					0.012261759489774704,
					1
				],
				"metallicFactor":0,
				"roughnessFactor":0.5
			}
		},
		{
			"doubleSided":true,
			"name":"Material.022",
			"pbrMetallicRoughness":{
				"baseColorFactor":[
					0.800000011920929,
					0.800000011920929,
					0.800000011920929,
					1
				],
				"metallicFactor":0,
				"roughnessFactor":0.5
			}
		}
	],
	"meshes":[
		{
			"name":"Text.008",
			"primitives":[
				{
					"attributes":{
						"POSITION":0,
						"NORMAL":1,
						"TEXCOORD_0":2
					},
					"indices":3,
					"material":0
				}
			]
		},
		{
			"name":"Cube.004",
			"primitives":[
				{
					"attributes":{
						"POSITION":4,
						"NORMAL":5
					},
					"indices":6,
					"material":1
				}
			]
		},
		{
			"name":"Plane.015",
			"primitives":[
				{
					"attributes":{
						"POSITION":7,
						"NORMAL":8,
						"TEXCOORD_0":9
					},
					"indices":10,
					"material":2
				}
			]
		}
	],
	"accessors":[
		{
			"bufferView":0,
			"componentType":5126,
			"count":3678,
			"max":[
				6.203000068664551,
				0.020000001415610313,
				0.009000000543892384
			],
			"min":[
				0.04800000041723251,
				-0.020000001415610313,
				-0.6910000443458557
			],
			"type":"VEC3"
		},
		{
			"bufferView":1,
			"componentType":5126,
			"count":3678,
			"type":"VEC3"
		},
		{
			"bufferView":2,
			"componentType":5126,
			"count":3678,
			"type":"VEC2"
		},
		{
			"bufferView":3,
			"componentType":5123,
			"count":10848,
			"type":"SCALAR"
		},
		{
			"bufferView":4,
			"componentType":5126,
			"count":137,
			"max":[
				1.3720015287399292,
				1.3720015287399292,
				1.3720015287399292
			],
			"min":[
				-1.3720015287399292,
				-1.3720015287399292,
				-1.3720015287399292
			],
			"type":"VEC3"
		},
		{
			"bufferView":5,
			"componentType":5126,
			"count":137,
			"type":"VEC3"
		},
		{
			"bufferView":6,
			"componentType":5123,
			"count":756,
			"type":"SCALAR"
		},
		{
			"bufferView":7,
			"componentType":5126,
			"count":4,
			"max":[
				1,
				0,
				1
			],
			"min":[
				-1,
				0,
				-1
			],
			"type":"VEC3"
		},
		{
			"bufferView":8,
			"componentType":5126,
			"count":4,
			"type":"VEC3"
		},
		{
			"bufferView":9,
			"componentType":5126,
			"count":4,
			"type":"VEC2"
		},
		{
			"bufferView":10,
			"componentType":5123,
			"count":6,
			"type":"SCALAR"
		}
	],
	"bufferViews":[
		{
			"buffer":0,
			"byteLength":44136,
			"byteOffset":0,
			"target":34962
		},
		{
			"buffer":0,
			"byteLength":44136,
			"byteOffset":44136,
			"target":34962
		},
		{
			"buffer":0,
			"byteLength":29424,
			"byteOffset":88272,
			"target":34962
		},
		{
			"buffer":0,
			"byteLength":21696,
			"byteOffset":117696,
			"target":34963
		},
		{
			"buffer":0,
			"byteLength":1644,
			"byteOffset":139392,
			"target":34962
		},
		{
			"buffer":0,
			"byteLength":1644,
			"byteOffset":141036,
			"target":34962
		},
		{
			"buffer":0,
			"byteLength":1512,
			"byteOffset":142680,
			"target":34963
		},
		{
			"buffer":0,
			"byteLength":48,
			"byteOffset":144192,
			"target":34962
		},
		{
			"buffer":0,
			"byteLength":48,
			"byteOffset":144240,
			"target":34962
		},
		{
			"buffer":0,
			"byteLength":32,
			"byteOffset":144288,
			"target":34962
		},
		{
			"buffer":0,
			"byteLength":12,
			"byteOffset":144320,
			"target":34963
		}
	],
	"buffers":[
		{
			"byteLength":144332,
			"uri":"cellmembrane.bin"
		}
	]
}
