{
	"asset":{
		"generator":"Khronos glTF Blender I/O v3.6.27",
		"version":"2.0"
	},
	"scene":0,
	"scenes":[
		{
			"name":"Scene",
			"nodes":[
				0,
				1,
				2
			]
		}
	],
	"nodes":[
		{
			"mesh":0,
			"name":"Text.002",
			"rotation":[
				0.7071067094802856,
				0.0005109042976982892,
				-0.0005109043559059501,
				0.7071065902709961
			],
			"scale":[
				0.25816208124160767,
				0.9138299226760864,
				0.25816211104393005
			],
			"translation":[
				-5.266317367553711,
				5.541228294372559,
				0.3081013858318329
			]
		},
		{
			"mesh":1,
			"name":"Plane.001",
			"rotation":[
				-0.5003611445426941,
				0.5003612041473389,
				-0.4996385872364044,
				0.49963870644569397
			],
			"scale":[
				0.12148330360651016,
				1,
				0.6671497821807861
			],
			"translation":[
				-4.63923454284668,
				5.626688003540039,
				0.2989334762096405
			]
		},
		{
			"mesh":2,
			"name":"Verde_Interno",
			"rotation":[
				0.48359841108322144,
				0.4623655378818512,
				0.3363499939441681,
				0.6627362370491028
			],
			"scale":[
				0.2729351222515106,
				0.13464149832725525,
				0.2729351222515106
			],
			"translation":[
				-4.1098432540893555,
				7.151427268981934,
				-0.9231283664703369
			]
		}
	],
	"materials":[
		{
			"doubleSided":true,
			"name":"Material.027",
			"pbrMetallicRoughness":{
				"baseColorFactor":[
					0,
					0,
					0,
					1
				],
				"metallicFactor":0,
				"roughnessFactor":0.5
			}
		},
		{
			"doubleSided":true,
			"name":"Material.028",
			"pbrMetallicRoughness":{
				"baseColorFactor":[
					0.800000011920929,
					0.800000011920929,
					0.800000011920929,
					1
				],
				"metallicFactor":0,
				"roughnessFactor":0.5
			}
		},
		{
			"doubleSided":true,
			"name":"Verde.001",
			"pbrMetallicRoughness":{
				"baseColorFactor":[
					0.006253701634705067,
					0.8000074625015259,
					0.0027622398920357227,
					1
				],
				"metallicFactor":0,
				"roughnessFactor":0
			}
		}
	],
	"meshes":[
		{
			"name":"Text.010",
			"primitives":[
				{
					"attributes":{
						"POSITION":0,
						"NORMAL":1,
						"TEXCOORD_0":2
					},
					"indices":3,
					"material":0
				}
			]
		},
		{
			"name":"Plane.018",
			"primitives":[
				{
					"attributes":{
						"POSITION":4,
						"NORMAL":5,
						"TEXCOORD_0":6
					},
					"indices":7,
					"material":1
				}
			]
		},
		{
			"name":"Cylinder.003",
			"primitives":[
				{
					"attributes":{
						"POSITION":8,
						"NORMAL":9
					},
					"indices":10,
					"material":2
				}
			]
		}
	],
	"accessors":[
		{
			"bufferView":0,
			"componentType":5126,
			"count":3449,
			"max":[
				4.789999961853027,
				0.020000001415610313,
				0.23000000417232513
			],
			"min":[
				0.04800000041723251,
				-0.020000001415610313,
				-0.6910000443458557
			],
			"type":"VEC3"
		},
		{
			"bufferView":1,
			"componentType":5126,
			"count":3449,
			"type":"VEC3"
		},
		{
			"bufferView":2,
			"componentType":5126,
			"count":3449,
			"type":"VEC2"
		},
		{
			"bufferView":3,
			"componentType":5123,
			"count":10164,
			"type":"SCALAR"
		},
		{
			"bufferView":4,
			"componentType":5126,
			"count":4,
			"max":[
				1,
				0,
				1
			],
			"min":[
				-1,
				0,
				-1
			],
			"type":"VEC3"
		},
		{
			"bufferView":5,
			"componentType":5126,
			"count":4,
			"type":"VEC3"
		},
		{
			"bufferView":6,
			"componentType":5126,
			"count":4,
			"type":"VEC2"
		},
		{
			"bufferView":7,
			"componentType":5123,
			"count":6,
			"type":"SCALAR"
		},
		{
			"bufferView":8,
			"componentType":5126,
			"count":218,
			"max":[
				0.8313162326812744,
				6.483244895935059,
				1
			],
			"min":[
				-6.786894798278809,
				-1,
				-4.446455955505371
			],
			"type":"VEC3"
		},
		{
			"bufferView":9,
			"componentType":5126,
			"count":218,
			"type":"VEC3"
		},
		{
			"bufferView":10,
			"componentType":5123,
			"count":1308,
			"type":"SCALAR"
		}
	],
	"bufferViews":[
		{
			"buffer":0,
			"byteLength":41388,
			"byteOffset":0,
			"target":34962
		},
		{
			"buffer":0,
			"byteLength":41388,
			"byteOffset":41388,
			"target":34962
		},
		{
			"buffer":0,
			"byteLength":27592,
			"byteOffset":82776,
			"target":34962
		},
		{
			"buffer":0,
			"byteLength":20328,
			"byteOffset":110368,
			"target":34963
		},
		{
			"buffer":0,
			"byteLength":48,
			"byteOffset":130696,
			"target":34962
		},
		{
			"buffer":0,
			"byteLength":48,
			"byteOffset":130744,
			"target":34962
		},
		{
			"buffer":0,
			"byteLength":32,
			"byteOffset":130792,
			"target":34962
		},
		{
			"buffer":0,
			"byteLength":12,
			"byteOffset":130824,
			"target":34963
		},
		{
			"buffer":0,
			"byteLength":2616,
			"byteOffset":130836,
			"target":34962
		},
		{
			"buffer":0,
			"byteLength":2616,
			"byteOffset":133452,
			"target":34962
		},
		{
			"buffer":0,
			"byteLength":2616,
			"byteOffset":136068,
			"target":34963
		}
	],
	"buffers":[
		{
			"byteLength":138684,
			"uri":"chloroplast.bin"
		}
	]
}
