{
	"asset":{
		"generator":"Khronos glTF Blender I/O v3.6.27",
		"version":"2.0"
	},
	"scene":0,
	"scenes":[
		{
			"name":"Scene",
			"nodes":[
				0,
				1,
				2,
				3
			]
		}
	],
	"nodes":[
		{
			"mesh":0,
			"name":"Text.011",
			"rotation":[
				0.7071067094802856,
				0.0005109042976982892,
				-0.000510904414113611,
				0.7071065902709961
			],
			"scale":[
				0.1650826632976532,
				0.5843517780303955,
				0.1650826781988144
			],
			"translation":[
				-5.976681709289551,
				2.9288763999938965,
				0.026664607226848602
			]
		},
		{
			"mesh":1,
			"name":"Plane.009",
			"rotation":[
				-0.5003611445426941,
				0.5003611445426941,
				-0.49963855743408203,
				0.4996386468410492
			],
			"scale":[
				0.07768291980028152,
				0.6394535899162292,
				0.4266113340854645
			],
			"translation":[
				-5.639832019805908,
				2.9835240840911865,
				0.02089480124413967
			]
		},
		{
			"mesh":2,
			"name":"Plane.003",
			"rotation":[
				-0.5003611445426941,
				0.5003611445426941,
				-0.49963855743408203,
				0.4996386468410492
			],
			"scale":[
				0.07768291980028152,
				0.6394535899162292,
				0.4266113340854645
			],
			"translation":[
				-5.639832019805908,
				2.9835240840911865,
				0.02089480124413967
			]
		},
		{
			"mesh":3,
			"name":"main",
			"rotation":[
				0,
				0.7076175808906555,
				0,
				0.7065955996513367
			],
			"scale":[
				0.4022107422351837,
				0.3956405818462372,
				0.3586812913417816
			],
			"translation":[
				-5.643284797668457,
				3.6796953678131104,
				-0.454919695854187
			]
		}
	],
	"materials":[
		{
			"doubleSided":true,
			"name":"Material.030",
			"pbrMetallicRoughness":{
				"baseColorFactor":[
					0,
					0,
					0,
					1
				],
				"metallicFactor":0,
				"roughnessFactor":0.5
			}
		},
		{
			"doubleSided":true,
			"name":"Material.032",
			"pbrMetallicRoughness":{
				"baseColorFactor":[
					0.800000011920929,
					0.800000011920929,
					0.800000011920929,
					1
				],
				"metallicFactor":0,
				"roughnessFactor":0.5
			}
		},
		{
			"doubleSided":true,
			"name":"Material.034",
			"pbrMetallicRoughness":{
				"baseColorFactor":[
					0.800000011920929,
					0.800000011920929,
					0.800000011920929,
					1
				],
				"metallicFactor":0,
				"roughnessFactor":0.5
			}
		},
		{
			"doubleSided":true,
			"name":"main.001",
			"pbrMetallicRoughness":{
				"baseColorFactor":[
					0.8000074625015259,
					0.7266815900802612,
					0.0020401799120008945,
					1
				],
				"metallicFactor":0,
				"roughnessFactor":0
			}
		}
	],
	"meshes":[
		{
			"name":"Text.011",
			"primitives":[
				{
					"attributes":{
						"POSITION":0,
						"NORMAL":1,
						"TEXCOORD_0":2
					},
					"indices":3,
					"material":0
				}
			]
		},
		{
			"name":"Plane.020",
			"primitives":[
				{
					"attributes":{
						"POSITION":4,
						"NORMAL":5,
						"TEXCOORD_0":6
					},
					"indices":7,
					"material":1
				}
			]
		},
		{
			"name":"Plane.024",
			"primitives":[
				{
					"attributes":{
						"POSITION":8,
						"NORMAL":9,
						"TEXCOORD_0":10
					},
					"indices":7,
					"material":2
				}
			]
		},
		{
			"name":"Cube.006",
			"primitives":[
				{
					"attributes":{
						"POSITION":11,
						"NORMAL":12
					},
					"indices":13,
					"material":3
				}
			]
		}
	],
	"accessors":[
		{
			"bufferView":0,
			"componentType":5126,
			"count":3056,
			"max":[
				4.27400016784668,
				0.020000001415610313,
				0.23000000417232513
			],
			"min":[
				0.04800000041723251,
				-0.020000001415610313,
				-0.6910000443458557
			],
			"type":"VEC3"
		},
		{
			"bufferView":1,
			"componentType":5126,
			"count":3056,
			"type":"VEC3"
		},
		{
			"bufferView":2,
			"componentType":5126,
			"count":3056,
			"type":"VEC2"
		},
		{
			"bufferView":3,
			"componentType":5123,
			"count":9012,
			"type":"SCALAR"
		},
		{
			"bufferView":4,
			"componentType":5126,
			"count":4,
			"max":[
				1,
				0,
				1
			],
			"min":[
				-1,
				0,
				-1
			],
			"type":"VEC3"
		},
		{
			"bufferView":5,
			"componentType":5126,
			"count":4,
			"type":"VEC3"
		},
		{
			"bufferView":6,
			"componentType":5126,
			"count":4,
			"type":"VEC2"
		},
		{
			"bufferView":7,
			"componentType":5123,
			"count":6,
			"type":"SCALAR"
		},
		{
			"bufferView":8,
			"componentType":5126,
			"count":4,
			"max":[
				1,
				0,
				1
			],
			"min":[
				-1,
				0,
				-1
			],
			"type":"VEC3"
		},
		{
			"bufferView":9,
			"componentType":5126,
			"count":4,
			"type":"VEC3"
		},
		{
			"bufferView":10,
			"componentType":5126,
			"count":4,
			"type":"VEC2"
		},
		{
			"bufferView":11,
			"componentType":5126,
			"count":144,
			"max":[
				1.3720015287399292,
				1.3720015287399292,
				1.3720015287399292
			],
			"min":[
				-1.3720015287399292,
				-1.3720015287399292,
				-1.3720015287399292
			],
			"type":"VEC3"
		},
		{
			"bufferView":12,
			"componentType":5126,
			"count":144,
			"type":"VEC3"
		},
		{
			"bufferView":13,
			"componentType":5123,
			"count":852,
			"type":"SCALAR"
		}
	],
	"bufferViews":[
		{
			"buffer":0,
			"byteLength":36672,
			"byteOffset":0,
			"target":34962
		},
		{
			"buffer":0,
			"byteLength":36672,
			"byteOffset":36672,
			"target":34962
		},
		{
			"buffer":0,
			"byteLength":24448,
			"byteOffset":73344,
			"target":34962
		},
		{
			"buffer":0,
			"byteLength":18024,
			"byteOffset":97792,
			"target":34963
		},
		{
			"buffer":0,
			"byteLength":48,
			"byteOffset":115816,
			"target":34962
		},
		{
			"buffer":0,
			"byteLength":48,
			"byteOffset":115864,
			"target":34962
		},
		{
			"buffer":0,
			"byteLength":32,
			"byteOffset":115912,
			"target":34962
		},
		{
			"buffer":0,
			"byteLength":12,
			"byteOffset":115944,
			"target":34963
		},
		{
			"buffer":0,
			"byteLength":48,
			"byteOffset":115956,
			"target":34962
		},
		{
			"buffer":0,
			"byteLength":48,
			"byteOffset":116004,
			"target":34962
		},
		{
			"buffer":0,
			"byteLength":32,
			"byteOffset":116052,
			"target":34962
		},
		{
			"buffer":0,
			"byteLength":1728,
			"byteOffset":116084,
			"target":34962
		},
		{
			"buffer":0,
			"byteLength":1728,
			"byteOffset":117812,
			"target":34962
		},
		{
			"buffer":0,
			"byteLength":1704,
			"byteOffset":119540,
			"target":34963
		}
	],
	"buffers":[
		{
			"byteLength":121244,
			"uri":"cytoplasm.bin"
		}
	]
}
