{
	"asset":{
		"generator":"Khronos glTF Blender I/O v3.6.27",
		"version":"2.0"
	},
	"scene":0,
	"scenes":[
		{
			"name":"Scene",
			"nodes":[
				0,
				1,
				2,
				3,
				4
			]
		}
	],
	"nodes":[
		{
			"mesh":0,
			"name":"Text.005",
			"rotation":[
				0.7071067094802856,
				0.0005109042976982892,
				-0.0005109043559059501,
				0.7071065902709961
			],
			"scale":[
				0.12628953158855438,
				0.9138298630714417,
				0.25816211104393005
			],
			"translation":[
				-12.40860366821289,
				2.9005701541900635,
				1.1018599271774292
			]
		},
		{
			"mesh":1,
			"name":"Plane.005",
			"rotation":[
				-0.5003611445426941,
				0.5003612041473389,
				-0.4996385872364044,
				0.49963870644569397
			],
			"scale":[
				0.12148330360651016,
				1,
				0.6671497821807861
			],
			"translation":[
				-11.817959785461426,
				2.986029863357544,
				1.0927444696426392
			]
		},
		{
			"mesh":2,
			"name":"Blue_Top",
			"rotation":[
				0.6977470517158508,
				-0.1136612817645073,
				-0.11466969549655914,
				0.6979119777679443
			],
			"scale":[
				0.03030143491923809,
				0.05002301186323166,
				0.05846874788403511
			],
			"translation":[
				-12.29019546508789,
				3.663177490234375,
				0.06936681270599365
			]
		},
		{
			"mesh":3,
			"name":"Base_Azules",
			"rotation":[
				0,
				0.7076175212860107,
				0,
				0.7065957188606262
			],
			"scale":[
				0.06582364439964294,
				0.06582363694906235,
				0.06582364439964294
			],
			"translation":[
				-11.526673316955566,
				3.3602137565612793,
				1.2588289976119995
			]
		},
		{
			"mesh":4,
			"name":"Base_Azules.001",
			"rotation":[
				0,
				0.7076175212860107,
				0,
				0.7065957188606262
			],
			"scale":[
				0.06582364439964294,
				0.06582363694906235,
				0.06582364439964294
			],
			"translation":[
				-11.526673316955566,
				3.3602137565612793,
				1.2588289976119995
			]
		}
	],
	"materials":[
		{
			"doubleSided":true,
			"name":"Material.035",
			"pbrMetallicRoughness":{
				"baseColorFactor":[
					0,
					0,
					0,
					1
				],
				"metallicFactor":0,
				"roughnessFactor":0.5
			}
		},
		{
			"doubleSided":true,
			"name":"Material.036",
			"pbrMetallicRoughness":{
				"baseColorFactor":[
					0.800000011920929,
					0.800000011920929,
					0.800000011920929,
					1
				],
				"metallicFactor":0,
				"roughnessFactor":0.5
			}
		},
		{
			"doubleSided":true,
			"name":"Azul_Top.002",
			"pbrMetallicRoughness":{
				"baseColorFactor":[
					0.5596118569374084,
					0.06412407755851746,
					0.8000156879425049,
					1
				],
				"metallicFactor":0,
				"roughnessFactor":0
			}
		},
		{
			"doubleSided":true,
			"name":"Azul_Base.002",
			"pbrMetallicRoughness":{
				"baseColorFactor":[
					0.8000074625015259,
					0.5441270470619202,
					0.4680717885494232,
					1
				],
				"metallicFactor":0,
				"roughnessFactor":0
			}
		},
		{
			"doubleSided":true,
			"name":"Azul_Base.003",
			"pbrMetallicRoughness":{
				"baseColorFactor":[
					0.8000074625015259,
					0.5441270470619202,
					0.4680717885494232,
					1
				],
				"metallicFactor":0,
				"roughnessFactor":0
			}
		}
	],
	"meshes":[
		{
			"name":"Text.012",
			"primitives":[
				{
					"attributes":{
						"POSITION":0,
						"NORMAL":1,
						"TEXCOORD_0":2
					},
					"indices":3,
					"material":0
				}
			]
		},
		{
			"name":"Plane.026",
			"primitives":[
				{
					"attributes":{
						"POSITION":4,
						"NORMAL":5,
						"TEXCOORD_0":6
					},
					"indices":7,
					"material":1
				}
			]
		},
		{
			"name":"Cylinder.004",
			"primitives":[
				{
					"attributes":{
						"POSITION":8,
						"NORMAL":9
					},
					"indices":10,
					"material":2
				}
			]
		},
		{
			"name":"Cylinder.005",
			"primitives":[
				{
					"attributes":{
						"POSITION":11,
						"NORMAL":12
					},
					"indices":13,
					"material":3
				}
			]
		},
		{
			"name":"Cylinder.009",
			"primitives":[
				{
					"attributes":{
						"POSITION":14,
						"NORMAL":15
					},
					"indices":13,
					"material":4
				}
			]
		}
	],
	"accessors":[
		{
			"bufferView":0,
			"componentType":5126,
			"count":6115,
			"max":[
				9.303000450134277,
				0.020000001415610313,
				0.23000000417232513
			],
			"min":[
				0.07500000298023224,
				-0.020000001415610313,
				-0.6820000410079956
			],
			"type":"VEC3"
		},
		{
			"bufferView":1,
			"componentType":5126,
			"count":6115,
			"type":"VEC3"
		},
		{
			"bufferView":2,
			"componentType":5126,
			"count":6115,
			"type":"VEC2"
		},
		{
			"bufferView":3,
			"componentType":5123,
			"count":17976,
			"type":"SCALAR"
		},
		{
			"bufferView":4,
			"componentType":5126,
			"count":4,
			"max":[
				1,
				0,
				1
			],
			"min":[
				-1,
				0,
				-1
			],
			"type":"VEC3"
		},
		{
			"bufferView":5,
			"componentType":5126,
			"count":4,
			"type":"VEC3"
		},
		{
			"bufferView":6,
			"componentType":5126,
			"count":4,
			"type":"VEC2"
		},
		{
			"bufferView":7,
			"componentType":5123,
			"count":6,
			"type":"SCALAR"
		},
		{
			"bufferView":8,
			"componentType":5126,
			"count":4647,
			"max":[
				41.32406234741211,
				27.794872283935547,
				4.316579341888428
			],
			"min":[
				-4.031057357788086,
				0.17725539207458496,
				-13.139900207519531
			],
			"type":"VEC3"
		},
		{
			"bufferView":9,
			"componentType":5126,
			"count":4647,
			"type":"VEC3"
		},
		{
			"bufferView":10,
			"componentType":5123,
			"count":25326,
			"type":"SCALAR"
		},
		{
			"bufferView":11,
			"componentType":5126,
			"count":1616,
			"max":[
				19.916614532470703,
				12.873932838439941,
				6.982692241668701
			],
			"min":[
				-2.2359118461608887,
				-1.829428791999817,
				-13.848580360412598
			],
			"type":"VEC3"
		},
		{
			"bufferView":12,
			"componentType":5126,
			"count":1616,
			"type":"VEC3"
		},
		{
			"bufferView":13,
			"componentType":5123,
			"count":4848,
			"type":"SCALAR"
		},
		{
			"bufferView":14,
			"componentType":5126,
			"count":1616,
			"max":[
				19.916614532470703,
				12.873932838439941,
				6.982692241668701
			],
			"min":[
				-2.2359118461608887,
				-1.829428791999817,
				-13.848580360412598
			],
			"type":"VEC3"
		},
		{
			"bufferView":15,
			"componentType":5126,
			"count":1616,
			"type":"VEC3"
		}
	],
	"bufferViews":[
		{
			"buffer":0,
			"byteLength":73380,
			"byteOffset":0,
			"target":34962
		},
		{
			"buffer":0,
			"byteLength":73380,
			"byteOffset":73380,
			"target":34962
		},
		{
			"buffer":0,
			"byteLength":48920,
			"byteOffset":146760,
			"target":34962
		},
		{
			"buffer":0,
			"byteLength":35952,
			"byteOffset":195680,
			"target":34963
		},
		{
			"buffer":0,
			"byteLength":48,
			"byteOffset":231632,
			"target":34962
		},
		{
			"buffer":0,
			"byteLength":48,
			"byteOffset":231680,
			"target":34962
		},
		{
			"buffer":0,
			"byteLength":32,
			"byteOffset":231728,
			"target":34962
		},
		{
			"buffer":0,
			"byteLength":12,
			"byteOffset":231760,
			"target":34963
		},
		{
			"buffer":0,
			"byteLength":55764,
			"byteOffset":231772,
			"target":34962
		},
		{
			"buffer":0,
			"byteLength":55764,
			"byteOffset":287536,
			"target":34962
		},
		{
			"buffer":0,
			"byteLength":50652,
			"byteOffset":343300,
			"target":34963
		},
		{
			"buffer":0,
			"byteLength":19392,
			"byteOffset":393952,
			"target":34962
		},
		{
			"buffer":0,
			"byteLength":19392,
			"byteOffset":413344,
			"target":34962
		},
		{
			"buffer":0,
			"byteLength":9696,
			"byteOffset":432736,
			"target":34963
		},
		{
			"buffer":0,
			"byteLength":19392,
			"byteOffset":442432,
			"target":34962
		},
		{
			"buffer":0,
			"byteLength":19392,
			"byteOffset":461824,
			"target":34962
		}
	],
	"buffers":[
		{
			"byteLength":481216,
			"uri":"endoplasmic.bin"
		}
	]
}
