{
	"asset":{
		"generator":"Khronos glTF Blender I/O v3.6.27",
		"version":"2.0"
	},
	"scene":0,
	"scenes":[
		{
			"name":"Scene",
			"nodes":[
				0,
				1,
				2
			]
		}
	],
	"nodes":[
		{
			"mesh":0,
			"name":"Text.020",
			"rotation":[
				0.7071067094802856,
				0.0005109042976982892,
				-0.0005109043559059501,
				0.7071065902709961
			],
			"scale":[
				0.25816208124160767,
				0.9138299226760864,
				0.25816211104393005
			],
			"translation":[
				-12.332412719726562,
				5.546106338500977,
				0.1997072398662567
			]
		},
		{
			"mesh":1,
			"name":"Plane.020",
			"rotation":[
				-0.5003611445426941,
				0.5003612041473389,
				-0.4996385872364044,
				0.49963870644569397
			],
			"scale":[
				0.12148330360651016,
				1,
				0.6671497821807861
			],
			"translation":[
				-11.78456974029541,
				5.631566047668457,
				0.1906537115573883
			]
		},
		{
			"mesh":2,
			"name":"Piedra_Naranja",
			"rotation":[
				0.3582610487937927,
				0.6101585626602173,
				0.5945426225662231,
				0.38193538784980774
			],
			"scale":[
				0.11588163673877716,
				0.14489789307117462,
				0.1395425647497177
			],
			"translation":[
				-11.597336769104004,
				6.3438520431518555,
				-0.021462440490722656
			]
		}
	],
	"materials":[
		{
			"doubleSided":true,
			"name":"Material.049",
			"pbrMetallicRoughness":{
				"baseColorFactor":[
					0,
					0,
					0,
					1
				],
				"metallicFactor":0,
				"roughnessFactor":0.5
			}
		},
		{
			"doubleSided":true,
			"name":"Material.056",
			"pbrMetallicRoughness":{
				"baseColorFactor":[
					0.800000011920929,
					0.800000011920929,
					0.800000011920929,
					1
				],
				"metallicFactor":0,
				"roughnessFactor":0.5
			}
		},
		{
			"doubleSided":true,
			"name":"Naranja.001",
			"pbrMetallicRoughness":{
				"baseColorFactor":[
					0.8001416921615601,
					0.17389583587646484,
					0.027613619342446327,
					1
				],
				"metallicFactor":0,
				"roughnessFactor":0
			}
		}
	],
	"meshes":[
		{
			"name":"Text.014",
			"primitives":[
				{
					"attributes":{
						"POSITION":0,
						"NORMAL":1,
						"TEXCOORD_0":2
					},
					"indices":3,
					"material":0
				}
			]
		},
		{
			"name":"Plane.035",
			"primitives":[
				{
					"attributes":{
						"POSITION":4,
						"NORMAL":5,
						"TEXCOORD_0":6
					},
					"indices":7,
					"material":1
				}
			]
		},
		{
			"name":"Mesh.002",
			"primitives":[
				{
					"attributes":{
						"POSITION":8,
						"NORMAL":9
					},
					"indices":10,
					"material":2
				}
			]
		}
	],
	"accessors":[
		{
			"bufferView":0,
			"componentType":5126,
			"count":3280,
			"max":[
				4.397000312805176,
				0.020000001415610313,
				0.23000000417232513
			],
			"min":[
				0.07400000095367432,
				-0.020000001415610313,
				-0.6820000410079956
			],
			"type":"VEC3"
		},
		{
			"bufferView":1,
			"componentType":5126,
			"count":3280,
			"type":"VEC3"
		},
		{
			"bufferView":2,
			"componentType":5126,
			"count":3280,
			"type":"VEC2"
		},
		{
			"bufferView":3,
			"componentType":5123,
			"count":9696,
			"type":"SCALAR"
		},
		{
			"bufferView":4,
			"componentType":5126,
			"count":4,
			"max":[
				1,
				0,
				1
			],
			"min":[
				-1,
				0,
				-1
			],
			"type":"VEC3"
		},
		{
			"bufferView":5,
			"componentType":5126,
			"count":4,
			"type":"VEC3"
		},
		{
			"bufferView":6,
			"componentType":5126,
			"count":4,
			"type":"VEC2"
		},
		{
			"bufferView":7,
			"componentType":5123,
			"count":6,
			"type":"SCALAR"
		},
		{
			"bufferView":8,
			"componentType":5126,
			"count":162,
			"max":[
				1.4102394580841064,
				1.1630911827087402,
				0.9166669845581055
			],
			"min":[
				-2.328463077545166,
				-0.8532769680023193,
				-0.9166669845581055
			],
			"type":"VEC3"
		},
		{
			"bufferView":9,
			"componentType":5126,
			"count":162,
			"type":"VEC3"
		},
		{
			"bufferView":10,
			"componentType":5123,
			"count":960,
			"type":"SCALAR"
		}
	],
	"bufferViews":[
		{
			"buffer":0,
			"byteLength":39360,
			"byteOffset":0,
			"target":34962
		},
		{
			"buffer":0,
			"byteLength":39360,
			"byteOffset":39360,
			"target":34962
		},
		{
			"buffer":0,
			"byteLength":26240,
			"byteOffset":78720,
			"target":34962
		},
		{
			"buffer":0,
			"byteLength":19392,
			"byteOffset":104960,
			"target":34963
		},
		{
			"buffer":0,
			"byteLength":48,
			"byteOffset":124352,
			"target":34962
		},
		{
			"buffer":0,
			"byteLength":48,
			"byteOffset":124400,
			"target":34962
		},
		{
			"buffer":0,
			"byteLength":32,
			"byteOffset":124448,
			"target":34962
		},
		{
			"buffer":0,
			"byteLength":12,
			"byteOffset":124480,
			"target":34963
		},
		{
			"buffer":0,
			"byteLength":1944,
			"byteOffset":124492,
			"target":34962
		},
		{
			"buffer":0,
			"byteLength":1944,
			"byteOffset":126436,
			"target":34962
		},
		{
			"buffer":0,
			"byteLength":1920,
			"byteOffset":128380,
			"target":34963
		}
	],
	"buffers":[
		{
			"byteLength":130300,
			"uri":"lysosomes.bin"
		}
	]
}
