{
	"asset":{
		"generator":"Khronos glTF Blender I/O v3.6.27",
		"version":"2.0"
	},
	"scene":0,
	"scenes":[
		{
			"name":"Scene",
			"nodes":[
				0,
				1,
				2
			]
		}
	],
	"nodes":[
		{
			"mesh":0,
			"name":"Text.003",
			"rotation":[
				0.7071067094802856,
				0.0005109042976982892,
				-0.0005109043559059501,
				0.7071065902709961
			],
			"scale":[
				0.22713883221149445,
				0.9138298630714417,
				0.25816211104393005
			],
			"translation":[
				-3.4364962577819824,
				5.541154861450195,
				0.5243921279907227
			]
		},
		{
			"mesh":1,
			"name":"Plane.004",
			"rotation":[
				-0.5003611445426941,
				0.5003612041473389,
				-0.4996385872364044,
				0.49963870644569397
			],
			"scale":[
				0.12148330360651016,
				1,
				0.6671497821807861
			],
			"translation":[
				-2.8094139099121094,
				5.626614570617676,
				0.5152244567871094
			]
		},
		{
			"mesh":2,
			"name":"Amarillo_Interno",
			"rotation":[
				-0.05927208438515663,
				-0.8189991116523743,
				0.043528273701667786,
				0.5690630674362183
			],
			"scale":[
				0.14162258803844452,
				0.06986378133296967,
				0.1416226029396057
			],
			"translation":[
				-2.8738532066345215,
				5.926277160644531,
				0.12394130229949951
			]
		}
	],
	"materials":[
		{
			"doubleSided":true,
			"name":"Material.063",
			"pbrMetallicRoughness":{
				"baseColorFactor":[
					0,
					0,
					0,
					1
				],
				"metallicFactor":0,
				"roughnessFactor":0.5
			}
		},
		{
			"doubleSided":true,
			"name":"Material.064",
			"pbrMetallicRoughness":{
				"baseColorFactor":[
					0.800000011920929,
					0.800000011920929,
					0.800000011920929,
					1
				],
				"metallicFactor":0,
				"roughnessFactor":0.5
			}
		},
		{
			"doubleSided":true,
			"name":"Amarillo.001",
			"pbrMetallicRoughness":{
				"baseColorFactor":[
					0.800039529800415,
					0.6236816644668579,
					0.023157058283686638,
					1
				],
				"metallicFactor":0,
				"roughnessFactor":0
			}
		}
	],
	"meshes":[
		{
			"name":"Text.015",
			"primitives":[
				{
					"attributes":{
						"POSITION":0,
						"NORMAL":1,
						"TEXCOORD_0":2
					},
					"indices":3,
					"material":0
				}
			]
		},
		{
			"name":"Plane.037",
			"primitives":[
				{
					"attributes":{
						"POSITION":4,
						"NORMAL":5,
						"TEXCOORD_0":6
					},
					"indices":7,
					"material":1
				}
			]
		},
		{
			"name":"Mesh.003",
			"primitives":[
				{
					"attributes":{
						"POSITION":8,
						"NORMAL":9
					},
					"indices":10,
					"material":2
				}
			]
		}
	],
	"accessors":[
		{
			"bufferView":0,
			"componentType":5126,
			"count":3592,
			"max":[
				5.4110002517700195,
				0.020000001415610313,
				0.009000000543892384
			],
			"min":[
				0.07300000637769699,
				-0.020000001415610313,
				-0.6820000410079956
			],
			"type":"VEC3"
		},
		{
			"bufferView":1,
			"componentType":5126,
			"count":3592,
			"type":"VEC3"
		},
		{
			"bufferView":2,
			"componentType":5126,
			"count":3592,
			"type":"VEC2"
		},
		{
			"bufferView":3,
			"componentType":5123,
			"count":10536,
			"type":"SCALAR"
		},
		{
			"bufferView":4,
			"componentType":5126,
			"count":4,
			"max":[
				1,
				0,
				1
			],
			"min":[
				-1,
				0,
				-1
			],
			"type":"VEC3"
		},
		{
			"bufferView":5,
			"componentType":5126,
			"count":4,
			"type":"VEC3"
		},
		{
			"bufferView":6,
			"componentType":5126,
			"count":4,
			"type":"VEC2"
		},
		{
			"bufferView":7,
			"componentType":5123,
			"count":6,
			"type":"SCALAR"
		},
		{
			"bufferView":8,
			"componentType":5126,
			"count":1120,
			"max":[
				0.8225647807121277,
				21.241456985473633,
				2.1769585609436035
			],
			"min":[
				-8.57792854309082,
				-0.9926344156265259,
				-2.0249216556549072
			],
			"type":"VEC3"
		},
		{
			"bufferView":9,
			"componentType":5126,
			"count":1120,
			"type":"VEC3"
		},
		{
			"bufferView":10,
			"componentType":5123,
			"count":6744,
			"type":"SCALAR"
		}
	],
	"bufferViews":[
		{
			"buffer":0,
			"byteLength":43104,
			"byteOffset":0,
			"target":34962
		},
		{
			"buffer":0,
			"byteLength":43104,
			"byteOffset":43104,
			"target":34962
		},
		{
			"buffer":0,
			"byteLength":28736,
			"byteOffset":86208,
			"target":34962
		},
		{
			"buffer":0,
			"byteLength":21072,
			"byteOffset":114944,
			"target":34963
		},
		{
			"buffer":0,
			"byteLength":48,
			"byteOffset":136016,
			"target":34962
		},
		{
			"buffer":0,
			"byteLength":48,
			"byteOffset":136064,
			"target":34962
		},
		{
			"buffer":0,
			"byteLength":32,
			"byteOffset":136112,
			"target":34962
		},
		{
			"buffer":0,
			"byteLength":12,
			"byteOffset":136144,
			"target":34963
		},
		{
			"buffer":0,
			"byteLength":13440,
			"byteOffset":136156,
			"target":34962
		},
		{
			"buffer":0,
			"byteLength":13440,
			"byteOffset":149596,
			"target":34962
		},
		{
			"buffer":0,
			"byteLength":13488,
			"byteOffset":163036,
			"target":34963
		}
	],
	"buffers":[
		{
			"byteLength":176524,
			"uri":"mitochondria.bin"
		}
	]
}
