{
	"asset":{
		"generator":"Khronos glTF Blender I/O v3.6.27",
		"version":"2.0"
	},
	"scene":0,
	"scenes":[
		{
			"name":"Scene",
			"nodes":[
				0,
				1
			]
		}
	],
	"nodes":[
		{
			"mesh":0,
			"name":"Text.021",
			"rotation":[
				0.587579071521759,
				0.00042454226058907807,
				-0.0005846453132107854,
				0.809166431427002
			],
			"scale":[
				0.43434321880340576,
				0.9138297438621521,
				0.43434321880340576
			],
			"translation":[
				-11.922831535339355,
				12.311063766479492,
				-2.509274482727051
			]
		},
		{
			"mesh":1,
			"name":"Plane.042",
			"rotation":[
				-0.5724674463272095,
				0.41589465737342834,
				-0.5718668103218079,
				0.4150677025318146
			],
			"scale":[
				0.5757050514221191,
				4.7389750480651855,
				4.274978160858154
			],
			"translation":[
				-8.938210487365723,
				12.442866325378418,
				-2.750340700149536
			]
		}
	],
	"materials":[
		{
			"doubleSided":true,
			"name":"Material.069",
			"pbrMetallicRoughness":{
				"baseColorFactor":[
					0,
					0,
					0,
					1
				],
				"metallicFactor":0,
				"roughnessFactor":0.5
			}
		},
		{
			"doubleSided":true,
			"name":"Material.044",
			"pbrMetallicRoughness":{
				"baseColorFactor":[
					0.800000011920929,
					0.800000011920929,
					0.800000011920929,
					1
				],
				"metallicFactor":0,
				"roughnessFactor":0.5
			}
		}
	],
	"meshes":[
		{
			"name":"Text.008",
			"primitives":[
				{
					"attributes":{
						"POSITION":0,
						"NORMAL":1,
						"TEXCOORD_0":2
					},
					"indices":3,
					"material":0
				}
			]
		},
		{
			"name":"Plane.026",
			"primitives":[
				{
					"attributes":{
						"POSITION":4,
						"NORMAL":5,
						"TEXCOORD_0":6
					},
					"indices":7,
					"material":1
				}
			]
		}
	],
	"accessors":[
		{
			"bufferView":0,
			"componentType":5126,
			"count":2709,
			"max":[
				14.038000106811523,
				0.020000001415610313,
				0.009000000543892384
			],
			"min":[
				0.07000000029802322,
				-0.020000001415610313,
				-0.6910000443458557
			],
			"type":"VEC3"
		},
		{
			"bufferView":1,
			"componentType":5126,
			"count":2709,
			"type":"VEC3"
		},
		{
			"bufferView":2,
			"componentType":5126,
			"count":2709,
			"type":"VEC2"
		},
		{
			"bufferView":3,
			"componentType":5123,
			"count":7740,
			"type":"SCALAR"
		},
		{
			"bufferView":4,
			"componentType":5126,
			"count":4,
			"max":[
				1,
				0,
				1
			],
			"min":[
				-1,
				0,
				-1
			],
			"type":"VEC3"
		},
		{
			"bufferView":5,
			"componentType":5126,
			"count":4,
			"type":"VEC3"
		},
		{
			"bufferView":6,
			"componentType":5126,
			"count":4,
			"type":"VEC2"
		},
		{
			"bufferView":7,
			"componentType":5123,
			"count":6,
			"type":"SCALAR"
		}
	],
	"bufferViews":[
		{
			"buffer":0,
			"byteLength":32508,
			"byteOffset":0,
			"target":34962
		},
		{
			"buffer":0,
			"byteLength":32508,
			"byteOffset":32508,
			"target":34962
		},
		{
			"buffer":0,
			"byteLength":21672,
			"byteOffset":65016,
			"target":34962
		},
		{
			"buffer":0,
			"byteLength":15480,
			"byteOffset":86688,
			"target":34963
		},
		{
			"buffer":0,
			"byteLength":48,
			"byteOffset":102168,
			"target":34962
		},
		{
			"buffer":0,
			"byteLength":48,
			"byteOffset":102216,
			"target":34962
		},
		{
			"buffer":0,
			"byteLength":32,
			"byteOffset":102264,
			"target":34962
		},
		{
			"buffer":0,
			"byteLength":12,
			"byteOffset":102296,
			"target":34963
		}
	],
	"buffers":[
		{
			"byteLength":102308,
			"uri":"planttext.bin"
		}
	]
}
