{
	"asset":{
		"generator":"Khronos glTF Blender I/O v3.6.27",
		"version":"2.0"
	},
	"scene":0,
	"scenes":[
		{
			"name":"Scene",
			"nodes":[
				0,
				1
			]
		}
	],
	"nodes":[
		{
			"mesh":0,
			"name":"Plane.043",
			"rotation":[
				-0.5724674463272095,
				0.41589465737342834,
				-0.5718668103218079,
				0.4150676727294922
			],
			"scale":[
				0.5757050514221191,
				4.738972187042236,
				2.393556594848633
			],
			"translation":[
				1.0422754287719727,
				12.442866325378418,
				-2.750340700149536
			]
		},
		{
			"mesh":1,
			"name":"Text.023",
			"rotation":[
				0.587579071521759,
				0.00042454226058907807,
				-0.0005846453132107854,
				0.809166431427002
			],
			"scale":[
				0.43434321880340576,
				0.9138297438621521,
				0.43434321880340576
			],
			"translation":[
				-0.23574590682983398,
				12.302557945251465,
				-2.535409688949585
			]
		}
	],
	"materials":[
		{
			"doubleSided":true,
			"name":"Material.048",
			"pbrMetallicRoughness":{
				"baseColorFactor":[
					0.800000011920929,
					0.800000011920929,
					0.800000011920929,
					1
				],
				"metallicFactor":0,
				"roughnessFactor":0.5
			}
		},
		{
			"doubleSided":true,
			"name":"Material.078",
			"pbrMetallicRoughness":{
				"baseColorFactor":[
					0,
					0,
					0,
					1
				],
				"metallicFactor":0,
				"roughnessFactor":0.5
			}
		}
	],
	"meshes":[
		{
			"name":"Plane.043",
			"primitives":[
				{
					"attributes":{
						"POSITION":0,
						"NORMAL":1,
						"TEXCOORD_0":2
					},
					"indices":3,
					"material":0
				}
			]
		},
		{
			"name":"Text.013",
			"primitives":[
				{
					"attributes":{
						"POSITION":4,
						"NORMAL":5,
						"TEXCOORD_0":6
					},
					"indices":7,
					"material":1
				}
			]
		}
	],
	"accessors":[
		{
			"bufferView":0,
			"componentType":5126,
			"count":4,
			"max":[
				1,
				0,
				1
			],
			"min":[
				-1,
				0,
				-1
			],
			"type":"VEC3"
		},
		{
			"bufferView":1,
			"componentType":5126,
			"count":4,
			"type":"VEC3"
		},
		{
			"bufferView":2,
			"componentType":5126,
			"count":4,
			"type":"VEC2"
		},
		{
			"bufferView":3,
			"componentType":5123,
			"count":6,
			"type":"SCALAR"
		},
		{
			"bufferView":4,
			"componentType":5126,
			"count":1656,
			"max":[
				5.53000020980835,
				0.020000001415610313,
				0.009000000543892384
			],
			"min":[
				0.04000000283122063,
				-0.020000001415610313,
				-0.6910000443458557
			],
			"type":"VEC3"
		},
		{
			"bufferView":5,
			"componentType":5126,
			"count":1656,
			"type":"VEC3"
		},
		{
			"bufferView":6,
			"componentType":5126,
			"count":1656,
			"type":"VEC2"
		},
		{
			"bufferView":7,
			"componentType":5123,
			"count":4752,
			"type":"SCALAR"
		}
	],
	"bufferViews":[
		{
			"buffer":0,
			"byteLength":48,
			"byteOffset":0,
			"target":34962
		},
		{
			"buffer":0,
			"byteLength":48,
			"byteOffset":48,
			"target":34962
		},
		{
			"buffer":0,
			"byteLength":32,
			"byteOffset":96,
			"target":34962
		},
		{
			"buffer":0,
			"byteLength":12,
			"byteOffset":128,
			"target":34963
		},
		{
			"buffer":0,
			"byteLength":19872,
			"byteOffset":140,
			"target":34962
		},
		{
			"buffer":0,
			"byteLength":19872,
			"byteOffset":20012,
			"target":34962
		},
		{
			"buffer":0,
			"byteLength":13248,
			"byteOffset":39884,
			"target":34962
		},
		{
			"buffer":0,
			"byteLength":9504,
			"byteOffset":53132,
			"target":34963
		}
	],
	"buffers":[
		{
			"byteLength":62636,
			"uri":"planttext2.bin"
		}
	]
}
