{
	"asset":{
		"generator":"Khronos glTF Blender I/O v3.6.27",
		"version":"2.0"
	},
	"scene":0,
	"scenes":[
		{
			"name":"Scene",
			"nodes":[
				0,
				1,
				2
			]
		}
	],
	"nodes":[
		{
			"mesh":0,
			"name":"Text.001",
			"rotation":[
				0.7071067094802856,
				0.0005109042976982892,
				-0.0005109043559059501,
				0.7071065902709961
			],
			"scale":[
				0.25816208124160767,
				0.9138299226760864,
				0.25816211104393005
			],
			"translation":[
				-10.043749809265137,
				2.950758695602417,
				0.6546441316604614
			]
		},
		{
			"mesh":1,
			"name":"Plane.010",
			"rotation":[
				-0.5003611445426941,
				0.5003612041473389,
				-0.4996385872364044,
				0.49963870644569397
			],
			"scale":[
				0.12148330360651016,
				1,
				0.6671497821807861
			],
			"translation":[
				-9.61355972290039,
				3.0362184047698975,
				0.6457606554031372
			]
		},
		{
			"mesh":2,
			"name":"Cylinder",
			"rotation":[
				-0.576738715171814,
				0,
				0,
				0.8169288039207458
			],
			"scale":[
				0.39290761947631836,
				0.33569782972335815,
				0.21275834739208221
			],
			"translation":[
				-9.582188606262207,
				3.576104164123535,
				0.3251582384109497
			]
		}
	],
	"materials":[
		{
			"doubleSided":true,
			"name":"Material.074",
			"pbrMetallicRoughness":{
				"baseColorFactor":[
					0,
					0,
					0,
					1
				],
				"metallicFactor":0,
				"roughnessFactor":0.5
			}
		},
		{
			"doubleSided":true,
			"name":"Material.075",
			"pbrMetallicRoughness":{
				"baseColorFactor":[
					0.800000011920929,
					0.800000011920929,
					0.800000011920929,
					1
				],
				"metallicFactor":0,
				"roughnessFactor":0.5
			}
		}
	],
	"meshes":[
		{
			"name":"Text.019",
			"primitives":[
				{
					"attributes":{
						"POSITION":0,
						"NORMAL":1,
						"TEXCOORD_0":2
					},
					"indices":3,
					"material":0
				}
			]
		},
		{
			"name":"Plane.046",
			"primitives":[
				{
					"attributes":{
						"POSITION":4,
						"NORMAL":5,
						"TEXCOORD_0":6
					},
					"indices":7,
					"material":1
				}
			]
		},
		{
			"name":"Cylinder.010",
			"primitives":[
				{
					"attributes":{
						"POSITION":8,
						"NORMAL":9,
						"TEXCOORD_0":10
					},
					"indices":11
				}
			]
		}
	],
	"accessors":[
		{
			"bufferView":0,
			"componentType":5126,
			"count":2156,
			"max":[
				3.186000347137451,
				0.020000001415610313,
				0.009000000543892384
			],
			"min":[
				0,
				-0.020000001415610313,
				-0.6820000410079956
			],
			"type":"VEC3"
		},
		{
			"bufferView":1,
			"componentType":5126,
			"count":2156,
			"type":"VEC3"
		},
		{
			"bufferView":2,
			"componentType":5126,
			"count":2156,
			"type":"VEC2"
		},
		{
			"bufferView":3,
			"componentType":5123,
			"count":6360,
			"type":"SCALAR"
		},
		{
			"bufferView":4,
			"componentType":5126,
			"count":4,
			"max":[
				1,
				0,
				1
			],
			"min":[
				-1,
				0,
				-1
			],
			"type":"VEC3"
		},
		{
			"bufferView":5,
			"componentType":5126,
			"count":4,
			"type":"VEC3"
		},
		{
			"bufferView":6,
			"componentType":5126,
			"count":4,
			"type":"VEC2"
		},
		{
			"bufferView":7,
			"componentType":5123,
			"count":6,
			"type":"SCALAR"
		},
		{
			"bufferView":8,
			"componentType":5126,
			"count":192,
			"max":[
				1,
				1,
				1
			],
			"min":[
				-1,
				-1,
				-1
			],
			"type":"VEC3"
		},
		{
			"bufferView":9,
			"componentType":5126,
			"count":192,
			"type":"VEC3"
		},
		{
			"bufferView":10,
			"componentType":5126,
			"count":192,
			"type":"VEC2"
		},
		{
			"bufferView":11,
			"componentType":5123,
			"count":372,
			"type":"SCALAR"
		}
	],
	"bufferViews":[
		{
			"buffer":0,
			"byteLength":25872,
			"byteOffset":0,
			"target":34962
		},
		{
			"buffer":0,
			"byteLength":25872,
			"byteOffset":25872,
			"target":34962
		},
		{
			"buffer":0,
			"byteLength":17248,
			"byteOffset":51744,
			"target":34962
		},
		{
			"buffer":0,
			"byteLength":12720,
			"byteOffset":68992,
			"target":34963
		},
		{
			"buffer":0,
			"byteLength":48,
			"byteOffset":81712,
			"target":34962
		},
		{
			"buffer":0,
			"byteLength":48,
			"byteOffset":81760,
			"target":34962
		},
		{
			"buffer":0,
			"byteLength":32,
			"byteOffset":81808,
			"target":34962
		},
		{
			"buffer":0,
			"byteLength":12,
			"byteOffset":81840,
			"target":34963
		},
		{
			"buffer":0,
			"byteLength":2304,
			"byteOffset":81852,
			"target":34962
		},
		{
			"buffer":0,
			"byteLength":2304,
			"byteOffset":84156,
			"target":34962
		},
		{
			"buffer":0,
			"byteLength":1536,
			"byteOffset":86460,
			"target":34962
		},
		{
			"buffer":0,
			"byteLength":744,
			"byteOffset":87996,
			"target":34963
		}
	],
	"buffers":[
		{
			"byteLength":88740,
			"uri":"vacuole.bin"
		}
	]
}
