{
	"asset":{
		"generator":"Khronos glTF Blender I/O v3.6.27",
		"version":"2.0"
	},
	"scene":0,
	"scenes":[
		{
			"name":"Scene",
			"nodes":[
				0,
				1
			]
		}
	],
	"nodes":[
		{
			"mesh":0,
			"name":"VisualMaterial0.002",
			"scale":[
				4.312219619750977,
				4.312220573425293,
				4.312220573425293
			],
			"translation":[
				-39.10976791381836,
				0,
				-25.184736251831055
			]
		},
		{
			"mesh":1,
			"name":"VisualMaterial10.002",
			"scale":[
				4.312219619750977,
				4.312220573425293,
				4.312220573425293
			],
			"translation":[
				-39.10976791381836,
				0,
				-25.184736251831055
			]
		}
	],
	"materials":[
		{
			"doubleSided":true,
			"name":"mesh_0.005",
			"pbrMetallicRoughness":{
				"baseColorTexture":{
					"index":0
				},
				"metallicFactor":0
			}
		},
		{
			"doubleSided":true,
			"name":"mesh_1.005",
			"pbrMetallicRoughness":{
				"baseColorTexture":{
					"index":1
				},
				"metallicFactor":0
			}
		}
	],
	"meshes":[
		{
			"name":"VisualMaterial0.002",
			"primitives":[
				{
					"attributes":{
						"POSITION":0,
						"NORMAL":1,
						"TEXCOORD_0":2
					},
					"indices":3,
					"material":0
				}
			]
		},
		{
			"name":"VisualMaterial10.002",
			"primitives":[
				{
					"attributes":{
						"POSITION":4,
						"NORMAL":5,
						"TEXCOORD_0":6
					},
					"indices":7,
					"material":1
				}
			]
		}
	],
	"textures":[
		{
			"sampler":0,
			"source":0
		},
		{
			"sampler":0,
			"source":1
		}
	],
	"images":[
		{
			"mimeType":"image/png",
			"name":"mesh_0_baseColor",
			"uri":"mesh_0_baseColor.png"
		},
		{
			"mimeType":"image/png",
			"name":"mesh_1_baseColor",
			"uri":"mesh_1_baseColor.png"
		}
	],
	"accessors":[
		{
			"bufferView":0,
			"componentType":5126,
			"count":2192,
			"max":[
				1.3636300563812256,
				2.8660800457000732,
				0.2679089903831482
			],
			"min":[
				-1.3636300563812256,
				0,
				-1.807129979133606
			],
			"type":"VEC3"
		},
		{
			"bufferView":1,
			"componentType":5126,
			"count":2192,
			"type":"VEC3"
		},
		{
			"bufferView":2,
			"componentType":5126,
			"count":2192,
			"type":"VEC2"
		},
		{
			"bufferView":3,
			"componentType":5123,
			"count":9753,
			"type":"SCALAR"
		},
		{
			"bufferView":4,
			"componentType":5126,
			"count":456,
			"max":[
				0.19335000216960907,
				2.783979892730713,
				0.18578700721263885
			],
			"min":[
				-0.19335000216960907,
				2.33912992477417,
				-0.27297499775886536
			],
			"type":"VEC3"
		},
		{
			"bufferView":5,
			"componentType":5126,
			"count":456,
			"type":"VEC3"
		},
		{
			"bufferView":6,
			"componentType":5126,
			"count":456,
			"type":"VEC2"
		},
		{
			"bufferView":7,
			"componentType":5123,
			"count":2472,
			"type":"SCALAR"
		}
	],
	"bufferViews":[
		{
			"buffer":0,
			"byteLength":26304,
			"byteOffset":0,
			"target":34962
		},
		{
			"buffer":0,
			"byteLength":26304,
			"byteOffset":26304,
			"target":34962
		},
		{
			"buffer":0,
			"byteLength":17536,
			"byteOffset":52608,
			"target":34962
		},
		{
			"buffer":0,
			"byteLength":19506,
			"byteOffset":70144,
			"target":34963
		},
		{
			"buffer":0,
			"byteLength":5472,
			"byteOffset":89652,
			"target":34962
		},
		{
			"buffer":0,
			"byteLength":5472,
			"byteOffset":95124,
			"target":34962
		},
		{
			"buffer":0,
			"byteLength":3648,
			"byteOffset":100596,
			"target":34962
		},
		{
			"buffer":0,
			"byteLength":4944,
			"byteOffset":104244,
			"target":34963
		}
	],
	"samplers":[
		{
			"magFilter":9729,
			"minFilter":9987
		}
	],
	"buffers":[
		{
			"byteLength":109188,
			"uri":"fake2.bin"
		}
	]
}
