{
	"asset":{
		"generator":"Khronos glTF Blender I/O v3.6.27",
		"version":"2.0"
	},
	"scene":0,
	"scenes":[
		{
			"name":"Scene",
			"nodes":[
				0,
				1,
				2,
				3,
				4,
				5,
				6,
				7,
				8,
				9
			]
		}
	],
	"nodes":[
		{
			"mesh":0,
			"name":"focus stop",
			"translation":[
				0,
				0.15145893394947052,
				-0.04829024896025658
			]
		},
		{
			"mesh":1,
			"name":"rail",
			"translation":[
				0.031725216656923294,
				0.15015257894992828,
				-0.01466725580394268
			]
		},
		{
			"mesh":2,
			"name":"tray",
			"translation":[
				0,
				0.1502213031053543,
				0.027300667017698288
			]
		},
		{
			"mesh":3,
			"name":"tray2",
			"translation":[
				0,
				0.13845081627368927,
				0.022499267011880875
			]
		},
		{
			"mesh":4,
			"name":"slide holder",
			"translation":[
				-0.004162479192018509,
				0.15483500063419342,
				0.03486059233546257
			]
		},
		{
			"mesh":5,
			"name":"slideholder2",
			"translation":[
				-0.048386100679636,
				0.1555287390947342,
				0.021001460030674934
			]
		},
		{
			"mesh":6,
			"name":"Cylinder.001",
			"translation":[
				-0.05216147378087044,
				0.16027678549289703,
				-0.007256210781633854
			]
		},
		{
			"mesh":7,
			"name":"Text.002",
			"rotation":[
				0.70710688829422,
				0,
				0,
				0.7071066498756409
			],
			"scale":[
				0.011089053936302662,
				0.024601411074399948,
				0.013473321683704853
			],
			"translation":[
				0.1588413417339325,
				0.14406155049800873,
				0.041236817836761475
			]
		},
		{
			"mesh":8,
			"name":"Cube.001",
			"scale":[
				0.0429159514605999,
				0.0010000000474974513,
				0
			],
			"translation":[
				0.10650565475225449,
				0.1484811156988144,
				0.041055381298065186
			]
		},
		{
			"mesh":9,
			"name":"Cube.004",
			"scale":[
				0.07514102756977081,
				0.009707197546958923,
				9.999999747378752e-05
			],
			"translation":[
				0.22367088496685028,
				0.14898286759853363,
				0.04073431342840195
			]
		}
	],
	"materials":[
		{
			"doubleSided":true,
			"name":"metal.023",
			"pbrMetallicRoughness":{
				"baseColorFactor":[
					0.5925782918930054,
					0.5925782918930054,
					0.5925782918930054,
					1
				],
				"roughnessFactor":0.4833333194255829
			}
		},
		{
			"doubleSided":true,
			"name":"black plastic.045",
			"pbrMetallicRoughness":{
				"baseColorFactor":[
					0.0056046294048428535,
					0.0056046294048428535,
					0.0056046294048428535,
					1
				],
				"metallicFactor":0,
				"roughnessFactor":0.6166667342185974
			}
		},
		{
			"doubleSided":true,
			"name":"metal.024",
			"pbrMetallicRoughness":{
				"baseColorFactor":[
					0.5925782918930054,
					0.5925782918930054,
					0.5925782918930054,
					1
				],
				"roughnessFactor":0.4833333194255829
			}
		},
		{
			"doubleSided":true,
			"name":"metal.025",
			"pbrMetallicRoughness":{
				"baseColorFactor":[
					0.5925782918930054,
					0.5925782918930054,
					0.5925782918930054,
					1
				],
				"roughnessFactor":0.4833333194255829
			}
		},
		{
			"doubleSided":true,
			"name":"black plastic.046",
			"pbrMetallicRoughness":{
				"baseColorFactor":[
					0.0056046294048428535,
					0.0056046294048428535,
					0.0056046294048428535,
					1
				],
				"metallicFactor":0,
				"roughnessFactor":0.6166667342185974
			}
		}
	],
	"meshes":[
		{
			"name":"Cylinder.008",
			"primitives":[
				{
					"attributes":{
						"POSITION":0,
						"NORMAL":1,
						"TEXCOORD_0":2
					},
					"indices":3,
					"material":0
				}
			]
		},
		{
			"name":"Cube.023",
			"primitives":[
				{
					"attributes":{
						"POSITION":4,
						"NORMAL":5,
						"TEXCOORD_0":6
					},
					"indices":7,
					"material":1
				}
			]
		},
		{
			"name":"Cube.034",
			"primitives":[
				{
					"attributes":{
						"POSITION":8,
						"NORMAL":9,
						"TEXCOORD_0":10
					},
					"indices":11,
					"material":1
				}
			]
		},
		{
			"name":"Cube.035",
			"primitives":[
				{
					"attributes":{
						"POSITION":12,
						"NORMAL":13,
						"TEXCOORD_0":14
					},
					"indices":15,
					"material":1
				}
			]
		},
		{
			"name":"Plane",
			"primitives":[
				{
					"attributes":{
						"POSITION":16,
						"NORMAL":17,
						"TEXCOORD_0":18
					},
					"indices":19,
					"material":2
				}
			]
		},
		{
			"name":"Plane.001",
			"primitives":[
				{
					"attributes":{
						"POSITION":20,
						"NORMAL":21,
						"TEXCOORD_0":22
					},
					"indices":23,
					"material":3
				}
			]
		},
		{
			"name":"Cylinder.010",
			"primitives":[
				{
					"attributes":{
						"POSITION":24,
						"NORMAL":25,
						"TEXCOORD_0":26
					},
					"indices":27,
					"material":0
				}
			]
		},
		{
			"name":"Text.009",
			"primitives":[
				{
					"attributes":{
						"POSITION":28,
						"NORMAL":29,
						"TEXCOORD_0":30
					},
					"indices":31,
					"material":4
				}
			]
		},
		{
			"name":"Cube.038",
			"primitives":[
				{
					"attributes":{
						"POSITION":32,
						"NORMAL":33,
						"TEXCOORD_0":34
					},
					"indices":35
				}
			]
		},
		{
			"name":"Cube.039",
			"primitives":[
				{
					"attributes":{
						"POSITION":36,
						"NORMAL":37,
						"TEXCOORD_0":38
					},
					"indices":35
				}
			]
		}
	],
	"accessors":[
		{
			"bufferView":0,
			"componentType":5126,
			"count":1106,
			"max":[
				0.004000000189989805,
				0.016716472804546356,
				0.004000000189989805
			],
			"min":[
				-0.004000000189989805,
				-0.0020000000949949026,
				-0.004000000189989805
			],
			"type":"VEC3"
		},
		{
			"bufferView":1,
			"componentType":5126,
			"count":1106,
			"type":"VEC3"
		},
		{
			"bufferView":2,
			"componentType":5126,
			"count":1106,
			"type":"VEC2"
		},
		{
			"bufferView":3,
			"componentType":5123,
			"count":3162,
			"type":"SCALAR"
		},
		{
			"bufferView":4,
			"componentType":5126,
			"count":472,
			"max":[
				0.07000000029802322,
				0.005001239478588104,
				0.007278012577444315
			],
			"min":[
				-0.07000000029802322,
				-0.00500122457742691,
				-0.007278005592525005
			],
			"type":"VEC3"
		},
		{
			"bufferView":5,
			"componentType":5126,
			"count":472,
			"type":"VEC3"
		},
		{
			"bufferView":6,
			"componentType":5126,
			"count":472,
			"type":"VEC2"
		},
		{
			"bufferView":7,
			"componentType":5123,
			"count":1908,
			"type":"SCALAR"
		},
		{
			"bufferView":8,
			"componentType":5126,
			"count":4557,
			"max":[
				0.06271278858184814,
				0.005049614701420069,
				0.05740230530500412
			],
			"min":[
				-0.06271278858184814,
				-0.01103646494448185,
				-0.057466354221105576
			],
			"type":"VEC3"
		},
		{
			"bufferView":9,
			"componentType":5126,
			"count":4557,
			"type":"VEC3"
		},
		{
			"bufferView":10,
			"componentType":5126,
			"count":4557,
			"type":"VEC2"
		},
		{
			"bufferView":11,
			"componentType":5123,
			"count":13404,
			"type":"SCALAR"
		},
		{
			"bufferView":12,
			"componentType":5126,
			"count":472,
			"max":[
				0.03891134262084961,
				0.006653726100921631,
				0.05490922927856445
			],
			"min":[
				-0.03891134262084961,
				0.0005094496300444007,
				-0.05490922927856445
			],
			"type":"VEC3"
		},
		{
			"bufferView":13,
			"componentType":5126,
			"count":472,
			"type":"VEC3"
		},
		{
			"bufferView":14,
			"componentType":5126,
			"count":472,
			"type":"VEC2"
		},
		{
			"bufferView":15,
			"componentType":5123,
			"count":1488,
			"type":"SCALAR"
		},
		{
			"bufferView":16,
			"componentType":5126,
			"count":15259,
			"max":[
				0.05750001221895218,
				0.002065083244815469,
				-0.01835424266755581
			],
			"min":[
				-0.03102640062570572,
				-7.723680755589157e-05,
				-0.05750001221895218
			],
			"type":"VEC3"
		},
		{
			"bufferView":17,
			"componentType":5126,
			"count":15259,
			"type":"VEC3"
		},
		{
			"bufferView":18,
			"componentType":5126,
			"count":15259,
			"type":"VEC2"
		},
		{
			"bufferView":19,
			"componentType":5123,
			"count":77184,
			"type":"SCALAR"
		},
		{
			"bufferView":20,
			"componentType":5126,
			"count":7862,
			"max":[
				0.031267568469047546,
				0.002832713071256876,
				0.028609979897737503
			],
			"min":[
				-0.025212695822119713,
				-0.00042447145096957684,
				-0.040289100259542465
			],
			"type":"VEC3"
		},
		{
			"bufferView":21,
			"componentType":5126,
			"count":7862,
			"type":"VEC3"
		},
		{
			"bufferView":22,
			"componentType":5126,
			"count":7862,
			"type":"VEC2"
		},
		{
			"bufferView":23,
			"componentType":5123,
			"count":38784,
			"type":"SCALAR"
		},
		{
			"bufferView":24,
			"componentType":5126,
			"count":616,
			"max":[
				0.008378013037145138,
				0.0027926694601774216,
				0.008378012105822563
			],
			"min":[
				-0.008378011174499989,
				-0.0027926715556532145,
				-0.008378012105822563
			],
			"type":"VEC3"
		},
		{
			"bufferView":25,
			"componentType":5126,
			"count":616,
			"type":"VEC3"
		},
		{
			"bufferView":26,
			"componentType":5126,
			"count":616,
			"type":"VEC2"
		},
		{
			"bufferView":27,
			"componentType":5123,
			"count":2778,
			"type":"SCALAR"
		},
		{
			"bufferView":28,
			"componentType":5126,
			"count":3389,
			"max":[
				11.781000137329102,
				0.010000000707805157,
				0.009000000543892384
			],
			"min":[
				0.04000000283122063,
				-0.010000000707805157,
				-0.6910000443458557
			],
			"type":"VEC3"
		},
		{
			"bufferView":29,
			"componentType":5126,
			"count":3389,
			"type":"VEC3"
		},
		{
			"bufferView":30,
			"componentType":5126,
			"count":3389,
			"type":"VEC2"
		},
		{
			"bufferView":31,
			"componentType":5123,
			"count":9804,
			"type":"SCALAR"
		},
		{
			"bufferView":32,
			"componentType":5126,
			"count":24,
			"max":[
				1,
				1,
				1
			],
			"min":[
				-1,
				-1,
				-1
			],
			"type":"VEC3"
		},
		{
			"bufferView":33,
			"componentType":5126,
			"count":24,
			"type":"VEC3"
		},
		{
			"bufferView":34,
			"componentType":5126,
			"count":24,
			"type":"VEC2"
		},
		{
			"bufferView":35,
			"componentType":5123,
			"count":36,
			"type":"SCALAR"
		},
		{
			"bufferView":36,
			"componentType":5126,
			"count":24,
			"max":[
				1,
				1,
				1
			],
			"min":[
				-1,
				-1,
				-1
			],
			"type":"VEC3"
		},
		{
			"bufferView":37,
			"componentType":5126,
			"count":24,
			"type":"VEC3"
		},
		{
			"bufferView":38,
			"componentType":5126,
			"count":24,
			"type":"VEC2"
		}
	],
	"bufferViews":[
		{
			"buffer":0,
			"byteLength":13272,
			"byteOffset":0,
			"target":34962
		},
		{
			"buffer":0,
			"byteLength":13272,
			"byteOffset":13272,
			"target":34962
		},
		{
			"buffer":0,
			"byteLength":8848,
			"byteOffset":26544,
			"target":34962
		},
		{
			"buffer":0,
			"byteLength":6324,
			"byteOffset":35392,
			"target":34963
		},
		{
			"buffer":0,
			"byteLength":5664,
			"byteOffset":41716,
			"target":34962
		},
		{
			"buffer":0,
			"byteLength":5664,
			"byteOffset":47380,
			"target":34962
		},
		{
			"buffer":0,
			"byteLength":3776,
			"byteOffset":53044,
			"target":34962
		},
		{
			"buffer":0,
			"byteLength":3816,
			"byteOffset":56820,
			"target":34963
		},
		{
			"buffer":0,
			"byteLength":54684,
			"byteOffset":60636,
			"target":34962
		},
		{
			"buffer":0,
			"byteLength":54684,
			"byteOffset":115320,
			"target":34962
		},
		{
			"buffer":0,
			"byteLength":36456,
			"byteOffset":170004,
			"target":34962
		},
		{
			"buffer":0,
			"byteLength":26808,
			"byteOffset":206460,
			"target":34963
		},
		{
			"buffer":0,
			"byteLength":5664,
			"byteOffset":233268,
			"target":34962
		},
		{
			"buffer":0,
			"byteLength":5664,
			"byteOffset":238932,
			"target":34962
		},
		{
			"buffer":0,
			"byteLength":3776,
			"byteOffset":244596,
			"target":34962
		},
		{
			"buffer":0,
			"byteLength":2976,
			"byteOffset":248372,
			"target":34963
		},
		{
			"buffer":0,
			"byteLength":183108,
			"byteOffset":251348,
			"target":34962
		},
		{
			"buffer":0,
			"byteLength":183108,
			"byteOffset":434456,
			"target":34962
		},
		{
			"buffer":0,
			"byteLength":122072,
			"byteOffset":617564,
			"target":34962
		},
		{
			"buffer":0,
			"byteLength":154368,
			"byteOffset":739636,
			"target":34963
		},
		{
			"buffer":0,
			"byteLength":94344,
			"byteOffset":894004,
			"target":34962
		},
		{
			"buffer":0,
			"byteLength":94344,
			"byteOffset":988348,
			"target":34962
		},
		{
			"buffer":0,
			"byteLength":62896,
			"byteOffset":1082692,
			"target":34962
		},
		{
			"buffer":0,
			"byteLength":77568,
			"byteOffset":1145588,
			"target":34963
		},
		{
			"buffer":0,
			"byteLength":7392,
			"byteOffset":1223156,
			"target":34962
		},
		{
			"buffer":0,
			"byteLength":7392,
			"byteOffset":1230548,
			"target":34962
		},
		{
			"buffer":0,
			"byteLength":4928,
			"byteOffset":1237940,
			"target":34962
		},
		{
			"buffer":0,
			"byteLength":5556,
			"byteOffset":1242868,
			"target":34963
		},
		{
			"buffer":0,
			"byteLength":40668,
			"byteOffset":1248424,
			"target":34962
		},
		{
			"buffer":0,
			"byteLength":40668,
			"byteOffset":1289092,
			"target":34962
		},
		{
			"buffer":0,
			"byteLength":27112,
			"byteOffset":1329760,
			"target":34962
		},
		{
			"buffer":0,
			"byteLength":19608,
			"byteOffset":1356872,
			"target":34963
		},
		{
			"buffer":0,
			"byteLength":288,
			"byteOffset":1376480,
			"target":34962
		},
		{
			"buffer":0,
			"byteLength":288,
			"byteOffset":1376768,
			"target":34962
		},
		{
			"buffer":0,
			"byteLength":192,
			"byteOffset":1377056,
			"target":34962
		},
		{
			"buffer":0,
			"byteLength":72,
			"byteOffset":1377248,
			"target":34963
		},
		{
			"buffer":0,
			"byteLength":288,
			"byteOffset":1377320,
			"target":34962
		},
		{
			"buffer":0,
			"byteLength":288,
			"byteOffset":1377608,
			"target":34962
		},
		{
			"buffer":0,
			"byteLength":192,
			"byteOffset":1377896,
			"target":34962
		}
	],
	"buffers":[
		{
			"byteLength":1378088,
			"uri":"stage3.bin"
		}
	]
}
