{
	"asset":{
		"generator":"Khronos glTF Blender I/O v3.6.27",
		"version":"2.0"
	},
	"extensionsUsed":[
		"KHR_materials_specular"
	],
	"scene":0,
	"scenes":[
		{
			"name":"Scene",
			"nodes":[
				0
			]
		}
	],
	"nodes":[
		{
			"mesh":0,
			"name":"mesh_0",
			"rotation":[
				0,
				-0.3013931214809418,
				0,
				0.953499972820282
			],
			"scale":[
				0.20070576667785645,
				0.20070576667785645,
				0.20070576667785645
			],
			"translation":[
				-0.7139315605163574,
				0,
				-0.059551794081926346
			]
		}
	],
	"animations":[
		{
			"channels":[
				{
					"sampler":0,
					"target":{
						"node":0,
						"path":"weights"
					}
				}
			],
			"name":"Animation",
			"samplers":[
				{
					"input":15,
					"interpolation":"LINEAR",
					"output":16
				}
			]
		}
	],
	"materials":[
		{
			"doubleSided":true,
			"extensions":{
				"KHR_materials_specular":{
					"specularColorTexture":{
						"index":0
					}
				}
			},
			"name":"material",
			"normalTexture":{
				"index":1,
				"scale":0.20000000298023224,
				"texCoord":2
			},
			"pbrMetallicRoughness":{
				"baseColorTexture":{
					"index":2
				},
				"metallicFactor":0.09090910106897354,
				"metallicRoughnessTexture":{
					"index":3,
					"texCoord":1
				}
			}
		}
	],
	"meshes":[
		{
			"extras":{
				"targetNames":[
					"target_0",
					"target_1",
					"target_2"
				]
			},
			"name":"mesh_0",
			"primitives":[
				{
					"attributes":{
						"POSITION":0,
						"NORMAL":1,
						"TEXCOORD_0":2,
						"TEXCOORD_1":3,
						"TEXCOORD_2":4,
						"TEXCOORD_3":5,
						"TEXCOORD_4":6,
						"TEXCOORD_5":7
					},
					"indices":8,
					"material":0,
					"targets":[
						{
							"POSITION":9,
							"NORMAL":10
						},
						{
							"POSITION":11,
							"NORMAL":12
						},
						{
							"POSITION":13,
							"NORMAL":14
						}
					]
				}
			],
			"weights":[
				0,
				0,
				0
			]
		}
	],
	"textures":[
		{
			"sampler":0,
			"source":0
		},
		{
			"sampler":0,
			"source":1
		},
		{
			"sampler":0,
			"source":2
		},
		{
			"sampler":0,
			"source":3
		}
	],
	"images":[
		{
			"mimeType":"image/png",
			"name":"Image",
			"uri":"Image.png"
		},
		{
			"mimeType":"image/png",
			"name":"material_normal",
			"uri":"material_normal.png"
		},
		{
			"mimeType":"image/png",
			"name":"material_baseColor",
			"uri":"material_baseColor.png"
		},
		{
			"mimeType":"image/png",
			"name":"material_metallicRoughness",
			"uri":"material_metallicRoughness.png"
		}
	],
	"accessors":[
		{
			"bufferView":0,
			"componentType":5126,
			"count":26115,
			"max":[
				0.6726844906806946,
				2.7592947483062744,
				2.561612844467163
			],
			"min":[
				-0.6727713942527771,
				-0.019485045224428177,
				-2.877188205718994
			],
			"type":"VEC3"
		},
		{
			"bufferView":1,
			"componentType":5126,
			"count":26115,
			"type":"VEC3"
		},
		{
			"bufferView":2,
			"componentType":5126,
			"count":26115,
			"type":"VEC2"
		},
		{
			"bufferView":3,
			"componentType":5126,
			"count":26115,
			"type":"VEC2"
		},
		{
			"bufferView":4,
			"componentType":5126,
			"count":26115,
			"type":"VEC2"
		},
		{
			"bufferView":5,
			"componentType":5126,
			"count":26115,
			"type":"VEC2"
		},
		{
			"bufferView":6,
			"componentType":5126,
			"count":26115,
			"type":"VEC2"
		},
		{
			"bufferView":7,
			"componentType":5126,
			"count":26115,
			"type":"VEC2"
		},
		{
			"bufferView":8,
			"componentType":5123,
			"count":141546,
			"type":"SCALAR"
		},
		{
			"bufferView":9,
			"componentType":5126,
			"count":26115,
			"max":[
				0.08553671836853027,
				0.007444620132446289,
				0.020353078842163086
			],
			"min":[
				-0.08553624153137207,
				-0.01770949363708496,
				-0.011723495088517666
			],
			"type":"VEC3"
		},
		{
			"bufferView":10,
			"componentType":5126,
			"count":26115,
			"type":"VEC3"
		},
		{
			"bufferView":11,
			"componentType":5126,
			"count":26115,
			"max":[
				0.01329512894153595,
				0.0315096378326416,
				0.02136516571044922
			],
			"min":[
				-0.013121917843818665,
				-0.029011249542236328,
				-0.01108860969543457
			],
			"type":"VEC3"
		},
		{
			"bufferView":12,
			"componentType":5126,
			"count":26115,
			"type":"VEC3"
		},
		{
			"bufferView":13,
			"componentType":5126,
			"count":26115,
			"max":[
				0.00014960765838623047,
				0.0044972896575927734,
				0.0035581588745117188
			],
			"min":[
				-6.620585918426514e-05,
				-0.002001047134399414,
				-0.002658843994140625
			],
			"type":"VEC3"
		},
		{
			"bufferView":14,
			"componentType":5126,
			"count":26115,
			"type":"VEC3"
		},
		{
			"bufferView":15,
			"componentType":5126,
			"count":314,
			"max":[
				13.083333333333334
			],
			"min":[
				0.041666666666666664
			],
			"type":"SCALAR"
		},
		{
			"bufferView":16,
			"componentType":5126,
			"count":942,
			"type":"SCALAR"
		}
	],
	"bufferViews":[
		{
			"buffer":0,
			"byteLength":313380,
			"byteOffset":0,
			"target":34962
		},
		{
			"buffer":0,
			"byteLength":313380,
			"byteOffset":313380,
			"target":34962
		},
		{
			"buffer":0,
			"byteLength":208920,
			"byteOffset":626760,
			"target":34962
		},
		{
			"buffer":0,
			"byteLength":208920,
			"byteOffset":835680,
			"target":34962
		},
		{
			"buffer":0,
			"byteLength":208920,
			"byteOffset":1044600,
			"target":34962
		},
		{
			"buffer":0,
			"byteLength":208920,
			"byteOffset":1253520,
			"target":34962
		},
		{
			"buffer":0,
			"byteLength":208920,
			"byteOffset":1462440,
			"target":34962
		},
		{
			"buffer":0,
			"byteLength":208920,
			"byteOffset":1671360,
			"target":34962
		},
		{
			"buffer":0,
			"byteLength":283092,
			"byteOffset":1880280,
			"target":34963
		},
		{
			"buffer":0,
			"byteLength":313380,
			"byteOffset":2163372,
			"target":34962
		},
		{
			"buffer":0,
			"byteLength":313380,
			"byteOffset":2476752,
			"target":34962
		},
		{
			"buffer":0,
			"byteLength":313380,
			"byteOffset":2790132,
			"target":34962
		},
		{
			"buffer":0,
			"byteLength":313380,
			"byteOffset":3103512,
			"target":34962
		},
		{
			"buffer":0,
			"byteLength":313380,
			"byteOffset":3416892,
			"target":34962
		},
		{
			"buffer":0,
			"byteLength":313380,
			"byteOffset":3730272,
			"target":34962
		},
		{
			"buffer":0,
			"byteLength":1256,
			"byteOffset":4043652
		},
		{
			"buffer":0,
			"byteLength":3768,
			"byteOffset":4044908
		}
	],
	"samplers":[
		{
			"magFilter":9729,
			"minFilter":9987
		}
	],
	"buffers":[
		{
			"byteLength":4048676,
			"uri":"dog.bin"
		}
	]
}
