{
	"asset":{
		"generator":"Khronos glTF Blender I/O v4.0.43",
		"version":"2.0"
	},
	"scene":0,
	"scenes":[
		{
			"name":"Scene",
			"nodes":[
				0,
				1,
				2,
				3,
				4,
				5,
				6
			]
		}
	],
	"nodes":[
		{
			"mesh":0,
			"name":"Text.008",
			"rotation":[
				0.7071066498756409,
				0.0005109042976982892,
				-0.0005109043559059501,
				0.7071066498756409
			],
			"scale":[
				0.4343431890010834,
				0.9138297438621521,
				0.43434321880340576
			],
			"translation":[
				-4.435790538787842,
				4.197958469390869,
				-2.2497689723968506
			]
		},
		{
			"mesh":1,
			"name":"Text.009",
			"rotation":[
				0.7071066498756409,
				0.0005109042976982892,
				-0.0005109042976982892,
				0.7071066498756409
			],
			"scale":[
				0.4443278908729553,
				0.9138297438621521,
				0.4443278908729553
			],
			"translation":[
				2.4422426223754883,
				4.336650371551514,
				-2.2583565711975098
			]
		},
		{
			"mesh":2,
			"name":"Plane.013",
			"rotation":[
				-0.5003611445426941,
				0.5003611445426941,
				-0.4996386468410492,
				0.4996386766433716
			],
			"scale":[
				2.980520725250244,
				1,
				7.968738555908203
			],
			"translation":[
				-0.3181871175765991,
				2.2642641067504883,
				-2.3603708744049072
			]
		},
		{
			"mesh":3,
			"name":"Text.001",
			"rotation":[
				0.7071066498756409,
				0.0005109042976982892,
				-0.0005109043559059501,
				0.7071066498756409
			],
			"scale":[
				0.4343431890010834,
				0.9138297438621521,
				0.43434321880340576
			],
			"translation":[
				-1.8469370603561401,
				4.775756359100342,
				-2.2497689723968506
			]
		},
		{
			"mesh":4,
			"name":"Plane",
			"rotation":[
				0.7071068286895752,
				0,
				0,
				0.7071068286895752
			],
			"scale":[
				1.7393321990966797,
				1,
				1.2001436948776245
			],
			"translation":[
				-3.8556714057922363,
				2.3392088413238525,
				-2.226006507873535
			]
		},
		{
			"mesh":5,
			"name":"Plane.001",
			"rotation":[
				0.7071068286895752,
				0,
				0,
				0.7071068286895752
			],
			"scale":[
				0.6981081962585449,
				1,
				0.4816964268684387
			],
			"translation":[
				-6.556428909301758,
				3.055582046508789,
				-2.226006507873535
			]
		},
		{
			"mesh":6,
			"name":"Plane.002",
			"rotation":[
				0.7071068286895752,
				0,
				0,
				0.7071068286895752
			],
			"scale":[
				0.6764869093894958,
				1,
				0.4667776823043823
			],
			"translation":[
				-6.551547527313232,
				1.9032002687454224,
				-2.226006507873535
			]
		}
	],
	"materials":[
		{
			"doubleSided":true,
			"name":"Material.038",
			"pbrMetallicRoughness":{
				"metallicFactor":0,
				"roughnessFactor":0.5
			}
		},
		{
			"doubleSided":true,
			"name":"Material.039",
			"pbrMetallicRoughness":{
				"metallicFactor":0,
				"roughnessFactor":0.5
			}
		},
		{
			"doubleSided":true,
			"name":"Material.044",
			"pbrMetallicRoughness":{
				"baseColorFactor":[
					0.0064769890159368515,
					0.055540382862091064,
					0.008944455534219742,
					1
				],
				"metallicFactor":0,
				"roughnessFactor":0.5
			}
		},
		{
			"doubleSided":true,
			"name":"Material.048",
			"pbrMetallicRoughness":{
				"metallicFactor":0,
				"roughnessFactor":0.5
			}
		},
		{
			"doubleSided":true,
			"name":"Material.069",
			"pbrMetallicRoughness":{
				"baseColorTexture":{
					"index":0
				},
				"metallicFactor":0,
				"roughnessFactor":0.5
			}
		},
		{
			"doubleSided":true,
			"name":"Material.071",
			"pbrMetallicRoughness":{
				"baseColorTexture":{
					"index":1
				},
				"metallicFactor":0,
				"roughnessFactor":0.5
			}
		},
		{
			"doubleSided":true,
			"name":"Material.072",
			"pbrMetallicRoughness":{
				"baseColorTexture":{
					"index":2
				},
				"metallicFactor":0,
				"roughnessFactor":0.5
			}
		}
	],
	"meshes":[
		{
			"name":"Text.022",
			"primitives":[
				{
					"attributes":{
						"POSITION":0,
						"NORMAL":1,
						"TEXCOORD_0":2
					},
					"indices":3,
					"material":0
				}
			]
		},
		{
			"name":"Text.023",
			"primitives":[
				{
					"attributes":{
						"POSITION":4,
						"NORMAL":5,
						"TEXCOORD_0":6
					},
					"indices":7,
					"material":1
				}
			]
		},
		{
			"name":"Plane.026",
			"primitives":[
				{
					"attributes":{
						"POSITION":8,
						"NORMAL":9,
						"TEXCOORD_0":10
					},
					"indices":11,
					"material":2
				}
			]
		},
		{
			"name":"Text.008",
			"primitives":[
				{
					"attributes":{
						"POSITION":12,
						"NORMAL":13,
						"TEXCOORD_0":14
					},
					"indices":15,
					"material":3
				}
			]
		},
		{
			"name":"Plane.039",
			"primitives":[
				{
					"attributes":{
						"POSITION":16,
						"NORMAL":17,
						"TEXCOORD_0":18
					},
					"indices":11,
					"material":4
				}
			]
		},
		{
			"name":"Plane.040",
			"primitives":[
				{
					"attributes":{
						"POSITION":19,
						"NORMAL":20,
						"TEXCOORD_0":21
					},
					"indices":11,
					"material":5
				}
			]
		},
		{
			"name":"Plane.041",
			"primitives":[
				{
					"attributes":{
						"POSITION":22,
						"NORMAL":23,
						"TEXCOORD_0":24
					},
					"indices":11,
					"material":6
				}
			]
		}
	],
	"textures":[
		{
			"sampler":0,
			"source":0
		},
		{
			"sampler":0,
			"source":1
		},
		{
			"sampler":0,
			"source":2
		}
	],
	"images":[
		{
			"mimeType":"image/jpeg",
			"name":"runners.jpg",
			"uri":"runners.jpg"
		},
		{
			"mimeType":"image/jpeg",
			"name":"budding.jpg",
			"uri":"budding.jpg"
		},
		{
			"mimeType":"image/jpeg",
			"name":"Vegetative-propagation.jpg",
			"uri":"Vegetative-propagation.jpg"
		}
	],
	"accessors":[
		{
			"bufferView":0,
			"componentType":5126,
			"count":1952,
			"max":[
				2.3340001106262207,
				0.020000001415610313,
				0.009000000543892384
			],
			"min":[
				0.07000000029802322,
				-0.020000001415610313,
				-0.6820000410079956
			],
			"type":"VEC3"
		},
		{
			"bufferView":1,
			"componentType":5126,
			"count":1952,
			"type":"VEC3"
		},
		{
			"bufferView":2,
			"componentType":5126,
			"count":1952,
			"type":"VEC2"
		},
		{
			"bufferView":3,
			"componentType":5123,
			"count":5748,
			"type":"SCALAR"
		},
		{
			"bufferView":4,
			"componentType":5126,
			"count":2176,
			"max":[
				3.1480002403259277,
				0.020000001415610313,
				0.009000000543892384
			],
			"min":[
				0,
				-0.020000001415610313,
				-0.6860000491142273
			],
			"type":"VEC3"
		},
		{
			"bufferView":5,
			"componentType":5126,
			"count":2176,
			"type":"VEC3"
		},
		{
			"bufferView":6,
			"componentType":5126,
			"count":2176,
			"type":"VEC2"
		},
		{
			"bufferView":7,
			"componentType":5123,
			"count":6396,
			"type":"SCALAR"
		},
		{
			"bufferView":8,
			"componentType":5126,
			"count":4,
			"max":[
				1,
				0,
				1
			],
			"min":[
				-1,
				0,
				-1
			],
			"type":"VEC3"
		},
		{
			"bufferView":9,
			"componentType":5126,
			"count":4,
			"type":"VEC3"
		},
		{
			"bufferView":10,
			"componentType":5126,
			"count":4,
			"type":"VEC2"
		},
		{
			"bufferView":11,
			"componentType":5123,
			"count":6,
			"type":"SCALAR"
		},
		{
			"bufferView":12,
			"componentType":5126,
			"count":5689,
			"max":[
				8.977001190185547,
				0.020000001415610313,
				0.23000000417232513
			],
			"min":[
				0,
				-0.020000001415610313,
				-0.6860000491142273
			],
			"type":"VEC3"
		},
		{
			"bufferView":13,
			"componentType":5126,
			"count":5689,
			"type":"VEC3"
		},
		{
			"bufferView":14,
			"componentType":5126,
			"count":5689,
			"type":"VEC2"
		},
		{
			"bufferView":15,
			"componentType":5123,
			"count":16752,
			"type":"SCALAR"
		},
		{
			"bufferView":16,
			"componentType":5126,
			"count":4,
			"max":[
				1,
				0,
				1
			],
			"min":[
				-1,
				0,
				-1
			],
			"type":"VEC3"
		},
		{
			"bufferView":17,
			"componentType":5126,
			"count":4,
			"type":"VEC3"
		},
		{
			"bufferView":18,
			"componentType":5126,
			"count":4,
			"type":"VEC2"
		},
		{
			"bufferView":19,
			"componentType":5126,
			"count":4,
			"max":[
				1,
				0,
				1
			],
			"min":[
				-1,
				0,
				-1
			],
			"type":"VEC3"
		},
		{
			"bufferView":20,
			"componentType":5126,
			"count":4,
			"type":"VEC3"
		},
		{
			"bufferView":21,
			"componentType":5126,
			"count":4,
			"type":"VEC2"
		},
		{
			"bufferView":22,
			"componentType":5126,
			"count":4,
			"max":[
				1,
				0,
				1
			],
			"min":[
				-1,
				0,
				-1
			],
			"type":"VEC3"
		},
		{
			"bufferView":23,
			"componentType":5126,
			"count":4,
			"type":"VEC3"
		},
		{
			"bufferView":24,
			"componentType":5126,
			"count":4,
			"type":"VEC2"
		}
	],
	"bufferViews":[
		{
			"buffer":0,
			"byteLength":23424,
			"byteOffset":0,
			"target":34962
		},
		{
			"buffer":0,
			"byteLength":23424,
			"byteOffset":23424,
			"target":34962
		},
		{
			"buffer":0,
			"byteLength":15616,
			"byteOffset":46848,
			"target":34962
		},
		{
			"buffer":0,
			"byteLength":11496,
			"byteOffset":62464,
			"target":34963
		},
		{
			"buffer":0,
			"byteLength":26112,
			"byteOffset":73960,
			"target":34962
		},
		{
			"buffer":0,
			"byteLength":26112,
			"byteOffset":100072,
			"target":34962
		},
		{
			"buffer":0,
			"byteLength":17408,
			"byteOffset":126184,
			"target":34962
		},
		{
			"buffer":0,
			"byteLength":12792,
			"byteOffset":143592,
			"target":34963
		},
		{
			"buffer":0,
			"byteLength":48,
			"byteOffset":156384,
			"target":34962
		},
		{
			"buffer":0,
			"byteLength":48,
			"byteOffset":156432,
			"target":34962
		},
		{
			"buffer":0,
			"byteLength":32,
			"byteOffset":156480,
			"target":34962
		},
		{
			"buffer":0,
			"byteLength":12,
			"byteOffset":156512,
			"target":34963
		},
		{
			"buffer":0,
			"byteLength":68268,
			"byteOffset":156524,
			"target":34962
		},
		{
			"buffer":0,
			"byteLength":68268,
			"byteOffset":224792,
			"target":34962
		},
		{
			"buffer":0,
			"byteLength":45512,
			"byteOffset":293060,
			"target":34962
		},
		{
			"buffer":0,
			"byteLength":33504,
			"byteOffset":338572,
			"target":34963
		},
		{
			"buffer":0,
			"byteLength":48,
			"byteOffset":372076,
			"target":34962
		},
		{
			"buffer":0,
			"byteLength":48,
			"byteOffset":372124,
			"target":34962
		},
		{
			"buffer":0,
			"byteLength":32,
			"byteOffset":372172,
			"target":34962
		},
		{
			"buffer":0,
			"byteLength":48,
			"byteOffset":372204,
			"target":34962
		},
		{
			"buffer":0,
			"byteLength":48,
			"byteOffset":372252,
			"target":34962
		},
		{
			"buffer":0,
			"byteLength":32,
			"byteOffset":372300,
			"target":34962
		},
		{
			"buffer":0,
			"byteLength":48,
			"byteOffset":372332,
			"target":34962
		},
		{
			"buffer":0,
			"byteLength":48,
			"byteOffset":372380,
			"target":34962
		},
		{
			"buffer":0,
			"byteLength":32,
			"byteOffset":372428,
			"target":34962
		}
	],
	"samplers":[
		{
			"magFilter":9729,
			"minFilter":9987
		}
	],
	"buffers":[
		{
			"byteLength":372460,
			"uri":"runners.bin"
		}
	]
}
