{
	"asset":{
		"generator":"Khronos glTF Blender I/O v3.6.27",
		"version":"2.0"
	},
	"extensionsUsed":[
		"KHR_materials_specular",
		"KHR_materials_ior"
	],
	"scene":0,
	"scenes":[
		{
			"name":"Scene",
			"nodes":[
				0,
				1,
				2,
				3
			]
		}
	],
	"nodes":[
		{
			"mesh":0,
			"name":"4x",
			"translation":[
				0,
				0.1992969810962677,
				0.01805155538022518
			]
		},
		{
			"mesh":1,
			"name":"40x",
			"rotation":[
				-0.15030543506145477,
				0,
				0,
				0.9886397123336792
			],
			"translation":[
				0,
				0.19805973768234253,
				0.055223770439624786
			]
		},
		{
			"mesh":2,
			"name":"10x",
			"rotation":[
				-0.059936270117759705,
				0.010082121938467026,
				-0.09488498419523239,
				0.99363112449646
			],
			"translation":[
				-0.0196746364235878,
				0.1967257559299469,
				0.03376791626214981
			]
		},
		{
			"mesh":3,
			"name":"100x",
			"rotation":[
				-0.06473423540592194,
				0.007583486381918192,
				0.08920599520206451,
				0.9938784837722778
			],
			"translation":[
				0.01931070163846016,
				0.19490566849708557,
				0.03537203371524811
			]
		}
	],
	"materials":[
		{
			"doubleSided":true,
			"extensions":{
				"KHR_materials_specular":{
					"specularColorFactor":[
						0.948543059910952,
						0.948543059910952,
						0.948543059910952
					]
				},
				"KHR_materials_ior":{
					"ior":1.4500000476837158
				}
			},
			"name":"metal",
			"pbrMetallicRoughness":{
				"roughnessFactor":0.4833333194255829
			}
		},
		{
			"doubleSided":true,
			"name":"Material.002",
			"pbrMetallicRoughness":{
				"baseColorFactor":[
					0.8000000715255737,
					0,
					0.0008169133216142654,
					1
				],
				"metallicFactor":0,
				"roughnessFactor":0.2083333432674408
			}
		},
		{
			"doubleSided":true,
			"name":"glass",
			"pbrMetallicRoughness":{
				"baseColorFactor":[
					0.38437479734420776,
					0.3731274902820587,
					0.3731274902820587,
					1
				],
				"metallicFactor":0,
				"roughnessFactor":0
			}
		},
		{
			"doubleSided":true,
			"extensions":{
				"KHR_materials_specular":{
					"specularColorFactor":[
						0.948543059910952,
						0.948543059910952,
						0.948543059910952
					]
				},
				"KHR_materials_ior":{
					"ior":1.4500000476837158
				}
			},
			"name":"metal.001",
			"pbrMetallicRoughness":{
				"roughnessFactor":0.36060604453086853
			}
		},
		{
			"doubleSided":true,
			"name":"Material.003",
			"pbrMetallicRoughness":{
				"baseColorFactor":[
					0,
					0.021236764267086983,
					0.8000000715255737,
					1
				],
				"metallicFactor":0,
				"roughnessFactor":0.2083333432674408
			}
		},
		{
			"doubleSided":true,
			"extensions":{
				"KHR_materials_specular":{
					"specularColorFactor":[
						0.948543059910952,
						0.948543059910952,
						0.948543059910952
					]
				},
				"KHR_materials_ior":{
					"ior":1.4500000476837158
				}
			},
			"name":"metal",
			"pbrMetallicRoughness":{
				"roughnessFactor":0.4833333194255829
			}
		},
		{
			"doubleSided":true,
			"name":"Material.004",
			"pbrMetallicRoughness":{
				"baseColorFactor":[
					0.8000000715255737,
					0.23028378188610077,
					0,
					1
				],
				"metallicFactor":0,
				"roughnessFactor":0.2083333432674408
			}
		},
		{
			"doubleSided":true,
			"name":"glass",
			"pbrMetallicRoughness":{
				"baseColorFactor":[
					0.38437479734420776,
					0.3731274902820587,
					0.3731274902820587,
					1
				],
				"metallicFactor":0,
				"roughnessFactor":0
			}
		},
		{
			"doubleSided":true,
			"name":"Material.005",
			"pbrMetallicRoughness":{
				"metallicFactor":0,
				"roughnessFactor":0.2083333432674408
			}
		}
	],
	"meshes":[
		{
			"name":"Cylinder.017",
			"primitives":[
				{
					"attributes":{
						"POSITION":0,
						"NORMAL":1,
						"TEXCOORD_0":2
					},
					"indices":3,
					"material":0
				},
				{
					"attributes":{
						"POSITION":4,
						"NORMAL":5,
						"TEXCOORD_0":6
					},
					"indices":7,
					"material":1
				},
				{
					"attributes":{
						"POSITION":8,
						"NORMAL":9,
						"TEXCOORD_0":10
					},
					"indices":11,
					"material":2
				}
			]
		},
		{
			"name":"Cylinder.020",
			"primitives":[
				{
					"attributes":{
						"POSITION":12,
						"NORMAL":13,
						"TEXCOORD_0":14,
						"TEXCOORD_1":15
					},
					"indices":16,
					"material":3
				},
				{
					"attributes":{
						"POSITION":17,
						"NORMAL":18,
						"TEXCOORD_0":19,
						"TEXCOORD_1":20
					},
					"indices":21,
					"material":4
				}
			]
		},
		{
			"name":"Cylinder.021",
			"primitives":[
				{
					"attributes":{
						"POSITION":22,
						"NORMAL":23,
						"TEXCOORD_0":24
					},
					"indices":25,
					"material":5
				},
				{
					"attributes":{
						"POSITION":26,
						"NORMAL":27,
						"TEXCOORD_0":28
					},
					"indices":29,
					"material":6
				},
				{
					"attributes":{
						"POSITION":30,
						"NORMAL":31,
						"TEXCOORD_0":32
					},
					"indices":33,
					"material":7
				}
			]
		},
		{
			"name":"Cylinder.022",
			"primitives":[
				{
					"attributes":{
						"POSITION":34,
						"NORMAL":35,
						"TEXCOORD_0":36
					},
					"indices":37,
					"material":5
				},
				{
					"attributes":{
						"POSITION":38,
						"NORMAL":39,
						"TEXCOORD_0":40
					},
					"indices":41,
					"material":8
				}
			]
		}
	],
	"accessors":[
		{
			"bufferView":0,
			"componentType":5126,
			"count":2375,
			"max":[
				0.009662123396992683,
				0.013000000268220901,
				0.009662123396992683
			],
			"min":[
				-0.009662123396992683,
				-0.013000000268220901,
				-0.009662123396992683
			],
			"type":"VEC3"
		},
		{
			"bufferView":1,
			"componentType":5126,
			"count":2375,
			"type":"VEC3"
		},
		{
			"bufferView":2,
			"componentType":5126,
			"count":2375,
			"type":"VEC2"
		},
		{
			"bufferView":3,
			"componentType":5123,
			"count":7098,
			"type":"SCALAR"
		},
		{
			"bufferView":4,
			"componentType":5126,
			"count":154,
			"max":[
				0.009351932443678379,
				0.004474494606256485,
				0.009351932443678379
			],
			"min":[
				-0.009351932443678379,
				0.003508908674120903,
				-0.009351932443678379
			],
			"type":"VEC3"
		},
		{
			"bufferView":5,
			"componentType":5126,
			"count":154,
			"type":"VEC3"
		},
		{
			"bufferView":6,
			"componentType":5126,
			"count":154,
			"type":"VEC2"
		},
		{
			"bufferView":7,
			"componentType":5123,
			"count":384,
			"type":"SCALAR"
		},
		{
			"bufferView":8,
			"componentType":5126,
			"count":64,
			"max":[
				0.003079392481595278,
				-0.009680964052677155,
				0.003079392481595278
			],
			"min":[
				-0.0030793906189501286,
				-0.009680966846644878,
				-0.003079391550272703
			],
			"type":"VEC3"
		},
		{
			"bufferView":9,
			"componentType":5126,
			"count":64,
			"type":"VEC3"
		},
		{
			"bufferView":10,
			"componentType":5126,
			"count":64,
			"type":"VEC2"
		},
		{
			"bufferView":11,
			"componentType":5123,
			"count":186,
			"type":"SCALAR"
		},
		{
			"bufferView":12,
			"componentType":5126,
			"count":6064,
			"max":[
				0.010980785824358463,
				0.020500000566244125,
				0.010980785824358463
			],
			"min":[
				-0.010980785824358463,
				-0.02310897782444954,
				-0.010980785824358463
			],
			"type":"VEC3"
		},
		{
			"bufferView":13,
			"componentType":5126,
			"count":6064,
			"type":"VEC3"
		},
		{
			"bufferView":14,
			"componentType":5126,
			"count":6064,
			"type":"VEC2"
		},
		{
			"bufferView":15,
			"componentType":5126,
			"count":6064,
			"type":"VEC2"
		},
		{
			"bufferView":16,
			"componentType":5123,
			"count":15348,
			"type":"SCALAR"
		},
		{
			"bufferView":17,
			"componentType":5126,
			"count":130,
			"max":[
				0.009944374673068523,
				0.0023571790661662817,
				0.009944374673068523
			],
			"min":[
				-0.009944374673068523,
				0.0013936175964772701,
				-0.009944374673068523
			],
			"type":"VEC3"
		},
		{
			"bufferView":18,
			"componentType":5126,
			"count":130,
			"type":"VEC3"
		},
		{
			"bufferView":19,
			"componentType":5126,
			"count":130,
			"type":"VEC2"
		},
		{
			"bufferView":20,
			"componentType":5126,
			"count":130,
			"type":"VEC2"
		},
		{
			"bufferView":21,
			"componentType":5123,
			"count":384,
			"type":"SCALAR"
		},
		{
			"bufferView":22,
			"componentType":5126,
			"count":6016,
			"max":[
				0.010291293263435364,
				0.01850000023841858,
				0.010291293263435364
			],
			"min":[
				-0.010291293263435364,
				-0.020071683451533318,
				-0.010291293263435364
			],
			"type":"VEC3"
		},
		{
			"bufferView":23,
			"componentType":5126,
			"count":6016,
			"type":"VEC3"
		},
		{
			"bufferView":24,
			"componentType":5126,
			"count":6016,
			"type":"VEC2"
		},
		{
			"bufferView":25,
			"componentType":5123,
			"count":16698,
			"type":"SCALAR"
		},
		{
			"bufferView":26,
			"componentType":5126,
			"count":132,
			"max":[
				0.009527250193059444,
				0.003973281942307949,
				0.009527250193059444
			],
			"min":[
				-0.009527250193059444,
				0.003006430109962821,
				-0.009527250193059444
			],
			"type":"VEC3"
		},
		{
			"bufferView":27,
			"componentType":5126,
			"count":132,
			"type":"VEC3"
		},
		{
			"bufferView":28,
			"componentType":5126,
			"count":132,
			"type":"VEC2"
		},
		{
			"bufferView":29,
			"componentType":5123,
			"count":384,
			"type":"SCALAR"
		},
		{
			"bufferView":30,
			"componentType":5126,
			"count":64,
			"max":[
				0.003487830050289631,
				-0.018871862441301346,
				0.0034878288861364126
			],
			"min":[
				-0.003487827954813838,
				-0.018871866166591644,
				-0.0034878288861364126
			],
			"type":"VEC3"
		},
		{
			"bufferView":31,
			"componentType":5126,
			"count":64,
			"type":"VEC3"
		},
		{
			"bufferView":32,
			"componentType":5126,
			"count":64,
			"type":"VEC2"
		},
		{
			"bufferView":33,
			"componentType":5123,
			"count":186,
			"type":"SCALAR"
		},
		{
			"bufferView":34,
			"componentType":5126,
			"count":5736,
			"max":[
				0.010769831016659737,
				0.020500000566244125,
				0.010769831016659737
			],
			"min":[
				-0.010769831016659737,
				-0.02387024648487568,
				-0.010769831016659737
			],
			"type":"VEC3"
		},
		{
			"bufferView":35,
			"componentType":5126,
			"count":5736,
			"type":"VEC3"
		},
		{
			"bufferView":36,
			"componentType":5126,
			"count":5736,
			"type":"VEC2"
		},
		{
			"bufferView":37,
			"componentType":5123,
			"count":17268,
			"type":"SCALAR"
		},
		{
			"bufferView":38,
			"componentType":5126,
			"count":130,
			"max":[
				0.009901701472699642,
				0.0033239289186894894,
				0.009901701472699642
			],
			"min":[
				-0.009901701472699642,
				0.0023599043488502502,
				-0.009901701472699642
			],
			"type":"VEC3"
		},
		{
			"bufferView":39,
			"componentType":5126,
			"count":130,
			"type":"VEC3"
		},
		{
			"bufferView":40,
			"componentType":5126,
			"count":130,
			"type":"VEC2"
		},
		{
			"bufferView":41,
			"componentType":5123,
			"count":384,
			"type":"SCALAR"
		}
	],
	"bufferViews":[
		{
			"buffer":0,
			"byteLength":28500,
			"byteOffset":0,
			"target":34962
		},
		{
			"buffer":0,
			"byteLength":28500,
			"byteOffset":28500,
			"target":34962
		},
		{
			"buffer":0,
			"byteLength":19000,
			"byteOffset":57000,
			"target":34962
		},
		{
			"buffer":0,
			"byteLength":14196,
			"byteOffset":76000,
			"target":34963
		},
		{
			"buffer":0,
			"byteLength":1848,
			"byteOffset":90196,
			"target":34962
		},
		{
			"buffer":0,
			"byteLength":1848,
			"byteOffset":92044,
			"target":34962
		},
		{
			"buffer":0,
			"byteLength":1232,
			"byteOffset":93892,
			"target":34962
		},
		{
			"buffer":0,
			"byteLength":768,
			"byteOffset":95124,
			"target":34963
		},
		{
			"buffer":0,
			"byteLength":768,
			"byteOffset":95892,
			"target":34962
		},
		{
			"buffer":0,
			"byteLength":768,
			"byteOffset":96660,
			"target":34962
		},
		{
			"buffer":0,
			"byteLength":512,
			"byteOffset":97428,
			"target":34962
		},
		{
			"buffer":0,
			"byteLength":372,
			"byteOffset":97940,
			"target":34963
		},
		{
			"buffer":0,
			"byteLength":72768,
			"byteOffset":98312,
			"target":34962
		},
		{
			"buffer":0,
			"byteLength":72768,
			"byteOffset":171080,
			"target":34962
		},
		{
			"buffer":0,
			"byteLength":48512,
			"byteOffset":243848,
			"target":34962
		},
		{
			"buffer":0,
			"byteLength":48512,
			"byteOffset":292360,
			"target":34962
		},
		{
			"buffer":0,
			"byteLength":30696,
			"byteOffset":340872,
			"target":34963
		},
		{
			"buffer":0,
			"byteLength":1560,
			"byteOffset":371568,
			"target":34962
		},
		{
			"buffer":0,
			"byteLength":1560,
			"byteOffset":373128,
			"target":34962
		},
		{
			"buffer":0,
			"byteLength":1040,
			"byteOffset":374688,
			"target":34962
		},
		{
			"buffer":0,
			"byteLength":1040,
			"byteOffset":375728,
			"target":34962
		},
		{
			"buffer":0,
			"byteLength":768,
			"byteOffset":376768,
			"target":34963
		},
		{
			"buffer":0,
			"byteLength":72192,
			"byteOffset":377536,
			"target":34962
		},
		{
			"buffer":0,
			"byteLength":72192,
			"byteOffset":449728,
			"target":34962
		},
		{
			"buffer":0,
			"byteLength":48128,
			"byteOffset":521920,
			"target":34962
		},
		{
			"buffer":0,
			"byteLength":33396,
			"byteOffset":570048,
			"target":34963
		},
		{
			"buffer":0,
			"byteLength":1584,
			"byteOffset":603444,
			"target":34962
		},
		{
			"buffer":0,
			"byteLength":1584,
			"byteOffset":605028,
			"target":34962
		},
		{
			"buffer":0,
			"byteLength":1056,
			"byteOffset":606612,
			"target":34962
		},
		{
			"buffer":0,
			"byteLength":768,
			"byteOffset":607668,
			"target":34963
		},
		{
			"buffer":0,
			"byteLength":768,
			"byteOffset":608436,
			"target":34962
		},
		{
			"buffer":0,
			"byteLength":768,
			"byteOffset":609204,
			"target":34962
		},
		{
			"buffer":0,
			"byteLength":512,
			"byteOffset":609972,
			"target":34962
		},
		{
			"buffer":0,
			"byteLength":372,
			"byteOffset":610484,
			"target":34963
		},
		{
			"buffer":0,
			"byteLength":68832,
			"byteOffset":610856,
			"target":34962
		},
		{
			"buffer":0,
			"byteLength":68832,
			"byteOffset":679688,
			"target":34962
		},
		{
			"buffer":0,
			"byteLength":45888,
			"byteOffset":748520,
			"target":34962
		},
		{
			"buffer":0,
			"byteLength":34536,
			"byteOffset":794408,
			"target":34963
		},
		{
			"buffer":0,
			"byteLength":1560,
			"byteOffset":828944,
			"target":34962
		},
		{
			"buffer":0,
			"byteLength":1560,
			"byteOffset":830504,
			"target":34962
		},
		{
			"buffer":0,
			"byteLength":1040,
			"byteOffset":832064,
			"target":34962
		},
		{
			"buffer":0,
			"byteLength":768,
			"byteOffset":833104,
			"target":34963
		}
	],
	"buffers":[
		{
			"byteLength":833872,
			"uri":"objective1.bin"
		}
	]
}
