{
	"asset":{
		"generator":"Khronos glTF Blender I/O v3.6.27",
		"version":"2.0"
	},
	"scene":0,
	"scenes":[
		{
			"name":"Scene",
			"nodes":[
				5
			]
		}
	],
	"nodes":[
		{
			"mesh":0,
			"name":"VisualMaterial0"
		},
		{
			"children":[
				0
			],
			"name":"mesh_0.002"
		},
		{
			"mesh":1,
			"name":"VisualMaterial10"
		},
		{
			"children":[
				2
			],
			"name":"mesh_1.002"
		},
		{
			"children":[
				1,
				3
			],
			"name":"Collada visual scene group.002",
			"rotation":[
				0.70710688829422,
				0,
				0,
				0.7071066498756409
			]
		},
		{
			"children":[
				4
			],
			"name":"Sketchfab_model.020",
			"rotation":[
				-0.7071069478988647,
				0,
				0,
				0.7071066498756409
			],
			"scale":[
				3.528374195098877,
				3.528374671936035,
				3.528374671936035
			],
			"translation":[
				-18.685678482055664,
				0,
				-26.20509910583496
			]
		}
	],
	"materials":[
		{
			"doubleSided":true,
			"name":"mesh_0.001",
			"pbrMetallicRoughness":{
				"baseColorTexture":{
					"index":0
				},
				"metallicFactor":0
			}
		},
		{
			"doubleSided":true,
			"name":"mesh_1.001",
			"pbrMetallicRoughness":{
				"baseColorTexture":{
					"index":1
				},
				"metallicFactor":0
			}
		}
	],
	"meshes":[
		{
			"name":"VisualMaterial0",
			"primitives":[
				{
					"attributes":{
						"POSITION":0,
						"NORMAL":1,
						"TEXCOORD_0":2
					},
					"indices":3,
					"material":0
				}
			]
		},
		{
			"name":"VisualMaterial10",
			"primitives":[
				{
					"attributes":{
						"POSITION":4,
						"NORMAL":5,
						"TEXCOORD_0":6
					},
					"indices":7,
					"material":1
				}
			]
		}
	],
	"textures":[
		{
			"sampler":0,
			"source":0
		},
		{
			"sampler":0,
			"source":1
		}
	],
	"images":[
		{
			"mimeType":"image/png",
			"name":"mesh_0_baseColor",
			"uri":"mesh_0_baseColor.png"
		},
		{
			"mimeType":"image/png",
			"name":"mesh_1_baseColor",
			"uri":"mesh_1_baseColor.png"
		}
	],
	"accessors":[
		{
			"bufferView":0,
			"componentType":5126,
			"count":489,
			"max":[
				0.19146700203418732,
				3.4802699089050293,
				0.818556010723114
			],
			"min":[
				-0.19146700203418732,
				2.5525100231170654,
				0.181427001953125
			],
			"type":"VEC3"
		},
		{
			"bufferView":1,
			"componentType":5126,
			"count":489,
			"type":"VEC3"
		},
		{
			"bufferView":2,
			"componentType":5126,
			"count":489,
			"type":"VEC2"
		},
		{
			"bufferView":3,
			"componentType":5123,
			"count":2508,
			"type":"SCALAR"
		},
		{
			"bufferView":4,
			"componentType":5126,
			"count":1943,
			"max":[
				2.091779947280884,
				3.4891200065612793,
				1.2833900451660156
			],
			"min":[
				-2.091779947280884,
				-0.0033859999384731054,
				-1.530269980430603
			],
			"type":"VEC3"
		},
		{
			"bufferView":5,
			"componentType":5126,
			"count":1943,
			"type":"VEC3"
		},
		{
			"bufferView":6,
			"componentType":5126,
			"count":1943,
			"type":"VEC2"
		},
		{
			"bufferView":7,
			"componentType":5123,
			"count":8088,
			"type":"SCALAR"
		}
	],
	"bufferViews":[
		{
			"buffer":0,
			"byteLength":5868,
			"byteOffset":0,
			"target":34962
		},
		{
			"buffer":0,
			"byteLength":5868,
			"byteOffset":5868,
			"target":34962
		},
		{
			"buffer":0,
			"byteLength":3912,
			"byteOffset":11736,
			"target":34962
		},
		{
			"buffer":0,
			"byteLength":5016,
			"byteOffset":15648,
			"target":34963
		},
		{
			"buffer":0,
			"byteLength":23316,
			"byteOffset":20664,
			"target":34962
		},
		{
			"buffer":0,
			"byteLength":23316,
			"byteOffset":43980,
			"target":34962
		},
		{
			"buffer":0,
			"byteLength":15544,
			"byteOffset":67296,
			"target":34962
		},
		{
			"buffer":0,
			"byteLength":16176,
			"byteOffset":82840,
			"target":34963
		}
	],
	"samplers":[
		{
			"magFilter":9729,
			"minFilter":9987
		}
	],
	"buffers":[
		{
			"byteLength":99016,
			"uri":"beldam.bin"
		}
	]
}
